%TF.GenerationSoftware,KiCad,Pcbnew,7.0.1*%
%TF.CreationDate,2024-03-07T06:40:02+01:00*%
%TF.ProjectId,AnthC,416e7468-432e-46b6-9963-61645f706362,M2-R4*%
%TF.SameCoordinates,Original*%
%TF.FileFunction,Paste,Top*%
%TF.FilePolarity,Positive*%
%FSLAX46Y46*%
G04 Gerber Fmt 4.6, Leading zero omitted, Abs format (unit mm)*
G04 Created by KiCad (PCBNEW 7.0.1) date 2024-03-07 06:40:02*
%MOMM*%
%LPD*%
G01*
G04 APERTURE LIST*
G04 Aperture macros list*
%AMRoundRect*
0 Rectangle with rounded corners*
0 $1 Rounding radius*
0 $2 $3 $4 $5 $6 $7 $8 $9 X,Y pos of 4 corners*
0 Add a 4 corners polygon primitive as box body*
4,1,4,$2,$3,$4,$5,$6,$7,$8,$9,$2,$3,0*
0 Add four circle primitives for the rounded corners*
1,1,$1+$1,$2,$3*
1,1,$1+$1,$4,$5*
1,1,$1+$1,$6,$7*
1,1,$1+$1,$8,$9*
0 Add four rect primitives between the rounded corners*
20,1,$1+$1,$2,$3,$4,$5,0*
20,1,$1+$1,$4,$5,$6,$7,0*
20,1,$1+$1,$6,$7,$8,$9,0*
20,1,$1+$1,$8,$9,$2,$3,0*%
G04 Aperture macros list end*
%ADD10RoundRect,0.200000X-0.200000X-0.275000X0.200000X-0.275000X0.200000X0.275000X-0.200000X0.275000X0*%
%ADD11RoundRect,0.200000X0.275000X-0.200000X0.275000X0.200000X-0.275000X0.200000X-0.275000X-0.200000X0*%
%ADD12RoundRect,0.200000X0.200000X0.275000X-0.200000X0.275000X-0.200000X-0.275000X0.200000X-0.275000X0*%
%ADD13RoundRect,0.225000X0.250000X-0.225000X0.250000X0.225000X-0.250000X0.225000X-0.250000X-0.225000X0*%
%ADD14RoundRect,0.225000X0.225000X0.250000X-0.225000X0.250000X-0.225000X-0.250000X0.225000X-0.250000X0*%
%ADD15RoundRect,0.249999X0.325001X0.650001X-0.325001X0.650001X-0.325001X-0.650001X0.325001X-0.650001X0*%
%ADD16RoundRect,0.300000X-0.675000X0.000000X0.675000X0.000000X0.675000X0.000000X-0.675000X0.000000X0*%
%ADD17RoundRect,0.150000X-0.825000X-0.150000X0.825000X-0.150000X0.825000X0.150000X-0.825000X0.150000X0*%
%ADD18R,0.500000X0.660000*%
%ADD19RoundRect,0.225000X-0.250000X0.225000X-0.250000X-0.225000X0.250000X-0.225000X0.250000X0.225000X0*%
%ADD20R,0.800000X0.900000*%
%ADD21RoundRect,0.225000X-0.225000X-0.250000X0.225000X-0.250000X0.225000X0.250000X-0.225000X0.250000X0*%
%ADD22RoundRect,0.200000X-0.275000X0.200000X-0.275000X-0.200000X0.275000X-0.200000X0.275000X0.200000X0*%
%ADD23RoundRect,0.300000X0.000000X-0.675000X0.000000X0.675000X0.000000X0.675000X0.000000X-0.675000X0*%
%ADD24RoundRect,0.150000X0.150000X-0.825000X0.150000X0.825000X-0.150000X0.825000X-0.150000X-0.825000X0*%
%ADD25RoundRect,0.140000X0.140000X0.170000X-0.140000X0.170000X-0.140000X-0.170000X0.140000X-0.170000X0*%
%ADD26R,0.900000X1.200000*%
%ADD27R,1.200000X0.900000*%
%ADD28R,0.660000X0.500000*%
%ADD29RoundRect,0.240000X0.385000X-0.240000X0.385000X0.240000X-0.385000X0.240000X-0.385000X-0.240000X0*%
%ADD30RoundRect,0.250000X0.325000X0.650000X-0.325000X0.650000X-0.325000X-0.650000X0.325000X-0.650000X0*%
%ADD31RoundRect,0.375000X0.375000X0.875000X-0.375000X0.875000X-0.375000X-0.875000X0.375000X-0.875000X0*%
%ADD32RoundRect,0.055500X0.694500X1.194500X-0.694500X1.194500X-0.694500X-1.194500X0.694500X-1.194500X0*%
%ADD33RoundRect,0.362500X0.362500X2.387500X-0.362500X2.387500X-0.362500X-2.387500X0.362500X-2.387500X0*%
%ADD34R,1.450000X5.500000*%
%ADD35R,0.900000X2.000000*%
%ADD36R,2.000000X0.900000*%
%ADD37R,0.900000X0.900000*%
%ADD38R,2.500000X2.300000*%
%ADD39RoundRect,0.249999X-0.325001X-0.650001X0.325001X-0.650001X0.325001X0.650001X-0.325001X0.650001X0*%
%ADD40RoundRect,0.172500X-0.172500X-0.172500X0.172500X-0.172500X0.172500X0.172500X-0.172500X0.172500X0*%
%ADD41RoundRect,0.062500X-0.350000X-0.062500X0.350000X-0.062500X0.350000X0.062500X-0.350000X0.062500X0*%
%ADD42RoundRect,0.062500X-0.062500X-0.350000X0.062500X-0.350000X0.062500X0.350000X-0.062500X0.350000X0*%
%ADD43R,0.900000X0.800000*%
%ADD44RoundRect,0.249999X-0.275001X-0.275001X0.275001X-0.275001X0.275001X0.275001X-0.275001X0.275001X0*%
%ADD45RoundRect,0.075000X0.175000X0.075000X-0.175000X0.075000X-0.175000X-0.075000X0.175000X-0.075000X0*%
%ADD46RoundRect,0.150000X-0.725000X-0.150000X0.725000X-0.150000X0.725000X0.150000X-0.725000X0.150000X0*%
%ADD47RoundRect,0.167500X-0.312500X0.167500X-0.312500X-0.167500X0.312500X-0.167500X0.312500X0.167500X0*%
%ADD48RoundRect,0.062500X-0.062500X0.362500X-0.062500X-0.362500X0.062500X-0.362500X0.062500X0.362500X0*%
%ADD49RoundRect,0.249999X0.650001X-0.325001X0.650001X0.325001X-0.650001X0.325001X-0.650001X-0.325001X0*%
%ADD50R,2.500000X1.800000*%
%ADD51R,3.050000X2.750000*%
%ADD52R,2.200000X1.200000*%
%ADD53RoundRect,0.200000X-0.200000X0.200000X-0.200000X-0.200000X0.200000X-0.200000X0.200000X0.200000X0*%
%ADD54RoundRect,0.050000X-0.050000X0.312500X-0.050000X-0.312500X0.050000X-0.312500X0.050000X0.312500X0*%
%ADD55RoundRect,0.050000X-0.312500X0.050000X-0.312500X-0.050000X0.312500X-0.050000X0.312500X0.050000X0*%
%ADD56RoundRect,0.450000X2.400000X-0.450000X2.400000X0.450000X-2.400000X0.450000X-2.400000X-0.450000X0*%
%ADD57R,5.700000X1.800000*%
%ADD58RoundRect,0.112500X-0.202500X-0.112500X0.202500X-0.112500X0.202500X0.112500X-0.202500X0.112500X0*%
%ADD59R,0.630000X0.450000*%
%ADD60R,0.480000X0.630000*%
%ADD61R,0.350000X0.600000*%
%ADD62RoundRect,0.150000X0.825000X0.150000X-0.825000X0.150000X-0.825000X-0.150000X0.825000X-0.150000X0*%
%ADD63RoundRect,0.140000X-0.140000X-0.170000X0.140000X-0.170000X0.140000X0.170000X-0.140000X0.170000X0*%
%ADD64RoundRect,0.150000X0.150000X-0.587500X0.150000X0.587500X-0.150000X0.587500X-0.150000X-0.587500X0*%
%ADD65RoundRect,0.250000X-0.650000X0.250000X-0.650000X-0.250000X0.650000X-0.250000X0.650000X0.250000X0*%
G04 APERTURE END LIST*
D10*
%TO.C,R13*%
X224025000Y-120950000D03*
X225675000Y-120950000D03*
%TD*%
%TO.C,R27*%
X224025000Y-119450000D03*
X225675000Y-119450000D03*
%TD*%
D11*
%TO.C,R29*%
X228600000Y-120925000D03*
X228600000Y-119275000D03*
%TD*%
D12*
%TO.C,R10*%
X225325000Y-126900000D03*
X223675000Y-126900000D03*
%TD*%
D13*
%TO.C,C15*%
X240000000Y-120575000D03*
X240000000Y-119025000D03*
%TD*%
%TO.C,C23*%
X222600000Y-122975000D03*
X222600000Y-121425000D03*
%TD*%
D14*
%TO.C,C14*%
X188575000Y-130750000D03*
X187025000Y-130750000D03*
%TD*%
D15*
%TO.C,C30*%
X194225000Y-138700000D03*
X191275000Y-138700000D03*
%TD*%
D16*
%TO.C,U4*%
X215125000Y-135295000D03*
D17*
X215125000Y-136565000D03*
X215125000Y-137835000D03*
X215125000Y-139105000D03*
X220075000Y-139105000D03*
X220075000Y-137835000D03*
X220075000Y-136565000D03*
X220075000Y-135295000D03*
%TD*%
D11*
%TO.C,R35*%
X197250000Y-137215000D03*
X197250000Y-135565000D03*
%TD*%
D18*
%TO.C,Q1*%
X198580000Y-137020000D03*
X199580000Y-137020000D03*
X199080000Y-135880000D03*
%TD*%
D11*
%TO.C,R21*%
X207800000Y-129000000D03*
X207800000Y-127350000D03*
%TD*%
%TO.C,R14*%
X187300000Y-107325000D03*
X187300000Y-105675000D03*
%TD*%
D19*
%TO.C,C17*%
X235750000Y-135975000D03*
X235750000Y-137525000D03*
%TD*%
D20*
%TO.C,Q4*%
X209400000Y-127400000D03*
X211300000Y-127400000D03*
X210350000Y-125400000D03*
%TD*%
D14*
%TO.C,C6*%
X204475000Y-139400000D03*
X202925000Y-139400000D03*
%TD*%
D21*
%TO.C,C27*%
X223725000Y-128400000D03*
X225275000Y-128400000D03*
%TD*%
D19*
%TO.C,C28*%
X230100000Y-119325000D03*
X230100000Y-120875000D03*
%TD*%
D22*
%TO.C,R15*%
X201400000Y-137925000D03*
X201400000Y-139575000D03*
%TD*%
D12*
%TO.C,R17*%
X208225000Y-144450000D03*
X206575000Y-144450000D03*
%TD*%
%TO.C,R19*%
X221425000Y-131900000D03*
X219775000Y-131900000D03*
%TD*%
D11*
%TO.C,R20*%
X199000000Y-142525000D03*
X199000000Y-140875000D03*
%TD*%
%TO.C,R25*%
X255450000Y-98825000D03*
X255450000Y-97175000D03*
%TD*%
%TO.C,R26*%
X258000000Y-98825000D03*
X258000000Y-97175000D03*
%TD*%
%TO.C,R28*%
X252950000Y-98825000D03*
X252950000Y-97175000D03*
%TD*%
%TO.C,R33*%
X185140000Y-108825000D03*
X185140000Y-107175000D03*
%TD*%
D22*
%TO.C,R42*%
X181240000Y-107175000D03*
X181240000Y-108825000D03*
%TD*%
D11*
%TO.C,R47*%
X207000000Y-142475000D03*
X207000000Y-140825000D03*
%TD*%
D22*
%TO.C,R48*%
X191400000Y-131075000D03*
X191400000Y-132725000D03*
%TD*%
%TO.C,R57*%
X196500000Y-130675000D03*
X196500000Y-132325000D03*
%TD*%
%TO.C,R59*%
X199500000Y-130675000D03*
X199500000Y-132325000D03*
%TD*%
%TO.C,R60*%
X201000000Y-130675000D03*
X201000000Y-132325000D03*
%TD*%
%TO.C,R61*%
X202500000Y-130675000D03*
X202500000Y-132325000D03*
%TD*%
D12*
%TO.C,R66*%
X211325000Y-123600000D03*
X209675000Y-123600000D03*
%TD*%
D11*
%TO.C,R69*%
X192850000Y-108975000D03*
X192850000Y-107325000D03*
%TD*%
%TO.C,R72*%
X205500000Y-132325000D03*
X205500000Y-130675000D03*
%TD*%
%TO.C,R73*%
X196000000Y-108925000D03*
X196000000Y-107275000D03*
%TD*%
%TO.C,R74*%
X199250000Y-108975000D03*
X199250000Y-107325000D03*
%TD*%
%TO.C,R75*%
X202500000Y-108975000D03*
X202500000Y-107325000D03*
%TD*%
%TO.C,R77*%
X191200000Y-108975000D03*
X191200000Y-107325000D03*
%TD*%
%TO.C,R78*%
X189450000Y-108975000D03*
X189450000Y-107325000D03*
%TD*%
%TO.C,R79*%
X204000000Y-109025000D03*
X204000000Y-107375000D03*
%TD*%
%TO.C,R80*%
X207000000Y-109025000D03*
X207000000Y-107375000D03*
%TD*%
D23*
%TO.C,U13*%
X243495000Y-124975000D03*
D24*
X244765000Y-124975000D03*
X246035000Y-124975000D03*
X247305000Y-124975000D03*
X247305000Y-120025000D03*
X246035000Y-120025000D03*
X244765000Y-120025000D03*
X243495000Y-120025000D03*
%TD*%
D21*
%TO.C,C4*%
X259025000Y-123500000D03*
X260575000Y-123500000D03*
%TD*%
D14*
%TO.C,C5*%
X261675000Y-114300000D03*
X260125000Y-114300000D03*
%TD*%
D25*
%TO.C,C7*%
X262880000Y-113025000D03*
X261920000Y-113025000D03*
%TD*%
D14*
%TO.C,C24*%
X243475000Y-115250000D03*
X241925000Y-115250000D03*
%TD*%
D26*
%TO.C,D1*%
X205150000Y-144400000D03*
X201850000Y-144400000D03*
%TD*%
%TO.C,D8*%
X214250000Y-144400000D03*
X210950000Y-144400000D03*
%TD*%
D27*
%TO.C,D18*%
X255600000Y-115950000D03*
X255600000Y-119250000D03*
%TD*%
D18*
%TO.C,Q2*%
X202750000Y-141280000D03*
X201750000Y-141280000D03*
X202250000Y-142420000D03*
%TD*%
D28*
%TO.C,Q5*%
X218470000Y-132300000D03*
X218470000Y-131300000D03*
X217330000Y-131800000D03*
%TD*%
%TO.C,Q7*%
X183740000Y-108900000D03*
X183740000Y-107900000D03*
X182600000Y-108400000D03*
%TD*%
D10*
%TO.C,R87*%
X247625000Y-102650000D03*
X249275000Y-102650000D03*
%TD*%
D29*
%TO.C,U1*%
X260350000Y-119470000D03*
X261850000Y-119470000D03*
X260350000Y-118330000D03*
X261850000Y-118330000D03*
D23*
X259195000Y-121375000D03*
D24*
X260465000Y-121375000D03*
X261735000Y-121375000D03*
X263005000Y-121375000D03*
X263005000Y-116425000D03*
X261735000Y-116425000D03*
X260465000Y-116425000D03*
X259195000Y-116425000D03*
%TD*%
D15*
%TO.C,C1*%
X257275000Y-125500000D03*
X254325000Y-125500000D03*
%TD*%
D13*
%TO.C,C8*%
X257600000Y-117475000D03*
X257600000Y-115925000D03*
%TD*%
D10*
%TO.C,R38*%
X232525000Y-140450000D03*
X234175000Y-140450000D03*
%TD*%
D30*
%TO.C,C18*%
X234075000Y-142350000D03*
X231125000Y-142350000D03*
%TD*%
D10*
%TO.C,R37*%
X242125000Y-132300000D03*
X243775000Y-132300000D03*
%TD*%
D19*
%TO.C,C32*%
X181300000Y-103525000D03*
X181300000Y-105075000D03*
%TD*%
D14*
%TO.C,C34*%
X225275000Y-131450000D03*
X223725000Y-131450000D03*
%TD*%
D11*
%TO.C,R89*%
X200500000Y-142525000D03*
X200500000Y-140875000D03*
%TD*%
D22*
%TO.C,R46*%
X218900000Y-107475000D03*
X218900000Y-109125000D03*
%TD*%
%TO.C,R63*%
X208500000Y-140825000D03*
X208500000Y-142475000D03*
%TD*%
%TO.C,R44*%
X211400000Y-107475000D03*
X211400000Y-109125000D03*
%TD*%
D20*
%TO.C,D16*%
X217950000Y-112480000D03*
X219850000Y-112480000D03*
X218900000Y-110480000D03*
%TD*%
D13*
%TO.C,C37*%
X220450000Y-109075000D03*
X220450000Y-107525000D03*
%TD*%
D31*
%TO.C,FL1*%
X255900000Y-134650000D03*
D32*
X258900000Y-134650000D03*
X258900000Y-128150000D03*
X255900000Y-128150000D03*
%TD*%
D33*
%TO.C,L1*%
X257475000Y-111850000D03*
D34*
X253475000Y-111850000D03*
%TD*%
D12*
%TO.C,R2*%
X260625000Y-113050000D03*
X258975000Y-113050000D03*
%TD*%
D21*
%TO.C,C13*%
X222125000Y-135200000D03*
X223675000Y-135200000D03*
%TD*%
D12*
%TO.C,R54*%
X196625000Y-133700000D03*
X194975000Y-133700000D03*
%TD*%
D11*
%TO.C,R22*%
X229500000Y-125325000D03*
X229500000Y-123675000D03*
%TD*%
%TO.C,R24*%
X231000000Y-125325000D03*
X231000000Y-123675000D03*
%TD*%
D20*
%TO.C,D2*%
X190850000Y-102400000D03*
X188950000Y-102400000D03*
X189900000Y-104400000D03*
%TD*%
%TO.C,D15*%
X201850000Y-102400000D03*
X199950000Y-102400000D03*
X200900000Y-104400000D03*
%TD*%
%TO.C,D22*%
X221450000Y-102400000D03*
X219550000Y-102400000D03*
X220500000Y-104400000D03*
%TD*%
%TO.C,D25*%
X229350000Y-102400000D03*
X227450000Y-102400000D03*
X228400000Y-104400000D03*
%TD*%
%TO.C,D26*%
X205950000Y-102400000D03*
X204050000Y-102400000D03*
X205000000Y-104400000D03*
%TD*%
%TO.C,D27*%
X217550000Y-102400000D03*
X215650000Y-102400000D03*
X216600000Y-104400000D03*
%TD*%
%TO.C,D28*%
X225350000Y-102400000D03*
X223450000Y-102400000D03*
X224400000Y-104400000D03*
%TD*%
%TO.C,D29*%
X233350000Y-102400000D03*
X231450000Y-102400000D03*
X232400000Y-104400000D03*
%TD*%
D22*
%TO.C,R9*%
X201320000Y-134875000D03*
X201320000Y-136525000D03*
%TD*%
%TO.C,R18*%
X213000000Y-127275000D03*
X213000000Y-128925000D03*
%TD*%
D20*
%TO.C,D21*%
X213750000Y-102400000D03*
X211850000Y-102400000D03*
X212800000Y-104400000D03*
%TD*%
D22*
%TO.C,R45*%
X223450000Y-107475000D03*
X223450000Y-109125000D03*
%TD*%
%TO.C,R52*%
X221950000Y-107475000D03*
X221950000Y-109125000D03*
%TD*%
D20*
%TO.C,D11*%
X221850000Y-112480000D03*
X223750000Y-112480000D03*
X222800000Y-110480000D03*
%TD*%
D13*
%TO.C,C38*%
X224950000Y-109075000D03*
X224950000Y-107525000D03*
%TD*%
D11*
%TO.C,R81*%
X201050000Y-108975000D03*
X201050000Y-107325000D03*
%TD*%
%TO.C,R11*%
X237250000Y-137575000D03*
X237250000Y-135925000D03*
%TD*%
%TO.C,R53*%
X190050000Y-135975000D03*
X190050000Y-134325000D03*
%TD*%
D35*
%TO.C,U6*%
X187390000Y-128650000D03*
X188660000Y-128650000D03*
X189930000Y-128650000D03*
X191200000Y-128650000D03*
X192470000Y-128650000D03*
X193740000Y-128650000D03*
X195010000Y-128650000D03*
X196280000Y-128650000D03*
X197550000Y-128650000D03*
X198820000Y-128650000D03*
X200090000Y-128650000D03*
X201360000Y-128650000D03*
X202630000Y-128650000D03*
X203900000Y-128650000D03*
D36*
X205400000Y-126885000D03*
X205400000Y-125615000D03*
X205400000Y-124345000D03*
X205400000Y-123075000D03*
X205400000Y-121805000D03*
X205400000Y-120535000D03*
X205400000Y-119265000D03*
X205400000Y-117995000D03*
X205400000Y-116725000D03*
X205400000Y-115455000D03*
X205400000Y-114185000D03*
X205400000Y-112915000D03*
D35*
X203900000Y-111150000D03*
X202630000Y-111150000D03*
X201360000Y-111150000D03*
X200090000Y-111150000D03*
X198820000Y-111150000D03*
X197550000Y-111150000D03*
X196280000Y-111150000D03*
X195010000Y-111150000D03*
X193740000Y-111150000D03*
X192470000Y-111150000D03*
X191200000Y-111150000D03*
X189930000Y-111150000D03*
X188660000Y-111150000D03*
X187390000Y-111150000D03*
D37*
X193710000Y-122800000D03*
X195110000Y-122800000D03*
X196510000Y-122800000D03*
X193710000Y-121400000D03*
X195110000Y-121400000D03*
X196510000Y-121400000D03*
X193710000Y-120000000D03*
X195110000Y-120000000D03*
X196510000Y-120000000D03*
%TD*%
D22*
%TO.C,R50*%
X208500000Y-107475000D03*
X208500000Y-109125000D03*
%TD*%
D21*
%TO.C,C29*%
X244825000Y-127000000D03*
X246375000Y-127000000D03*
%TD*%
D22*
%TO.C,R51*%
X217400000Y-107475000D03*
X217400000Y-109125000D03*
%TD*%
%TO.C,R56*%
X195000000Y-130675000D03*
X195000000Y-132325000D03*
%TD*%
D14*
%TO.C,C11*%
X252200000Y-107900000D03*
X250650000Y-107900000D03*
%TD*%
D11*
%TO.C,R43*%
X210000000Y-142475000D03*
X210000000Y-140825000D03*
%TD*%
D22*
%TO.C,R23*%
X227100000Y-119275000D03*
X227100000Y-120925000D03*
%TD*%
%TO.C,R16*%
X187300000Y-102375000D03*
X187300000Y-104025000D03*
%TD*%
D13*
%TO.C,C36*%
X209900000Y-109075000D03*
X209900000Y-107525000D03*
%TD*%
D22*
%TO.C,R58*%
X198000000Y-130675000D03*
X198000000Y-132325000D03*
%TD*%
D10*
%TO.C,R41*%
X214375000Y-131250000D03*
X216025000Y-131250000D03*
%TD*%
D22*
%TO.C,R55*%
X193500000Y-130675000D03*
X193500000Y-132325000D03*
%TD*%
D20*
%TO.C,D30*%
X220450000Y-144800000D03*
X222350000Y-144800000D03*
X221400000Y-142800000D03*
%TD*%
%TO.C,D10*%
X209050000Y-112480000D03*
X210950000Y-112480000D03*
X210000000Y-110480000D03*
%TD*%
%TO.C,Q8*%
X259150000Y-139200000D03*
X257250000Y-139200000D03*
X258200000Y-141200000D03*
%TD*%
D26*
%TO.C,D14*%
X258450000Y-137300000D03*
X261750000Y-137300000D03*
%TD*%
D38*
%TO.C,D13*%
X260550000Y-144200000D03*
X256250000Y-144200000D03*
%TD*%
D39*
%TO.C,C2*%
X259125000Y-125500000D03*
X262075000Y-125500000D03*
%TD*%
D22*
%TO.C,R1*%
X255600000Y-139475000D03*
X255600000Y-141125000D03*
%TD*%
D40*
%TO.C,U9*%
X225375000Y-123375000D03*
X225375000Y-124225000D03*
X226225000Y-123375000D03*
X226225000Y-124225000D03*
D41*
X224337500Y-123050000D03*
X224337500Y-123550000D03*
X224337500Y-124050000D03*
X224337500Y-124550000D03*
D42*
X225050000Y-125262500D03*
X225550000Y-125262500D03*
X226050000Y-125262500D03*
X226550000Y-125262500D03*
D41*
X227262500Y-124550000D03*
X227262500Y-124050000D03*
X227262500Y-123550000D03*
X227262500Y-123050000D03*
D42*
X226550000Y-122337500D03*
X226050000Y-122337500D03*
X225550000Y-122337500D03*
X225050000Y-122337500D03*
%TD*%
D43*
%TO.C,Q9*%
X247650000Y-104250000D03*
X247650000Y-106150000D03*
X249650000Y-105200000D03*
%TD*%
D39*
%TO.C,C22*%
X245025000Y-115250000D03*
X247975000Y-115250000D03*
%TD*%
D14*
%TO.C,C25*%
X225625000Y-117950000D03*
X224075000Y-117950000D03*
%TD*%
D12*
%TO.C,R32*%
X225325000Y-129900000D03*
X223675000Y-129900000D03*
%TD*%
D20*
%TO.C,D32*%
X194550000Y-102400000D03*
X192650000Y-102400000D03*
X193600000Y-104400000D03*
%TD*%
%TO.C,D33*%
X198250000Y-102400000D03*
X196350000Y-102400000D03*
X197300000Y-104400000D03*
%TD*%
%TO.C,D17*%
X209750000Y-102400000D03*
X207850000Y-102400000D03*
X208800000Y-104400000D03*
%TD*%
D11*
%TO.C,R31*%
X190900000Y-142525000D03*
X190900000Y-140875000D03*
%TD*%
D22*
%TO.C,R67*%
X234000000Y-123675000D03*
X234000000Y-125325000D03*
%TD*%
D19*
%TO.C,C26*%
X232500000Y-123725000D03*
X232500000Y-125275000D03*
%TD*%
D11*
%TO.C,R8*%
X263450000Y-111725000D03*
X263450000Y-110075000D03*
%TD*%
D27*
%TO.C,D24*%
X245700000Y-106300000D03*
X245700000Y-103000000D03*
%TD*%
D15*
%TO.C,C12*%
X243675000Y-104000000D03*
X240725000Y-104000000D03*
%TD*%
D10*
%TO.C,R86*%
X260350000Y-111675000D03*
X262000000Y-111675000D03*
%TD*%
D11*
%TO.C,R3*%
X199900000Y-149725000D03*
X199900000Y-148075000D03*
%TD*%
%TO.C,R88*%
X188100000Y-149725000D03*
X188100000Y-148075000D03*
%TD*%
D15*
%TO.C,C16*%
X233375000Y-133400000D03*
X230425000Y-133400000D03*
%TD*%
D19*
%TO.C,C31*%
X204000000Y-140875000D03*
X204000000Y-142425000D03*
%TD*%
%TO.C,C40*%
X193050000Y-134375000D03*
X193050000Y-135925000D03*
%TD*%
D11*
%TO.C,R7*%
X191550000Y-135975000D03*
X191550000Y-134325000D03*
%TD*%
D10*
%TO.C,R64*%
X222075000Y-136700000D03*
X223725000Y-136700000D03*
%TD*%
%TO.C,R65*%
X222075000Y-138200000D03*
X223725000Y-138200000D03*
%TD*%
%TO.C,R92*%
X211475000Y-137250000D03*
X213125000Y-137250000D03*
%TD*%
D44*
%TO.C,U5*%
X207200000Y-136212500D03*
X207200000Y-137512500D03*
X208500000Y-136212500D03*
X208500000Y-137512500D03*
D41*
X205912500Y-135612500D03*
X205912500Y-136112500D03*
X205912500Y-136612500D03*
X205912500Y-137112500D03*
X205912500Y-137612500D03*
X205912500Y-138112500D03*
D42*
X206600000Y-138800000D03*
X207100000Y-138800000D03*
X207600000Y-138800000D03*
X208100000Y-138800000D03*
X208600000Y-138800000D03*
X209100000Y-138800000D03*
D41*
X209787500Y-138112500D03*
X209787500Y-137612500D03*
X209787500Y-137112500D03*
X209787500Y-136612500D03*
X209787500Y-136112500D03*
X209787500Y-135612500D03*
D42*
X209100000Y-134925000D03*
X208600000Y-134925000D03*
X208100000Y-134925000D03*
X207600000Y-134925000D03*
X207100000Y-134925000D03*
X206600000Y-134925000D03*
%TD*%
D45*
%TO.C,U8*%
X183800000Y-104700000D03*
X183800000Y-103900000D03*
X182400000Y-103900000D03*
X182400000Y-104700000D03*
%TD*%
D46*
%TO.C,U11*%
X215250000Y-120780000D03*
X215250000Y-122050000D03*
X215250000Y-123320000D03*
X215250000Y-124590000D03*
X215250000Y-125860000D03*
X215250000Y-127130000D03*
X215250000Y-128400000D03*
X215250000Y-129670000D03*
X220400000Y-129670000D03*
X220400000Y-128400000D03*
X220400000Y-127130000D03*
X220400000Y-125860000D03*
X220400000Y-124590000D03*
X220400000Y-123320000D03*
X220400000Y-122050000D03*
X220400000Y-120780000D03*
%TD*%
D14*
%TO.C,C19*%
X204475000Y-137900000D03*
X202925000Y-137900000D03*
%TD*%
D19*
%TO.C,C39*%
X205500000Y-140875000D03*
X205500000Y-142425000D03*
%TD*%
D20*
%TO.C,Q3*%
X211250000Y-128900000D03*
X209350000Y-128900000D03*
X210300000Y-130900000D03*
%TD*%
D22*
%TO.C,R62*%
X204000000Y-130675000D03*
X204000000Y-132325000D03*
%TD*%
D11*
%TO.C,R91*%
X234750000Y-128325000D03*
X234750000Y-126675000D03*
%TD*%
D15*
%TO.C,C21*%
X246875000Y-117500000D03*
X243925000Y-117500000D03*
%TD*%
D12*
%TO.C,R12*%
X229625000Y-138200000D03*
X227975000Y-138200000D03*
%TD*%
%TO.C,TH1*%
X229625000Y-139700000D03*
X227975000Y-139700000D03*
%TD*%
D47*
%TO.C,U2*%
X232995000Y-136340000D03*
X231805000Y-136340000D03*
X232995000Y-137160000D03*
X231805000Y-137160000D03*
D48*
X233400000Y-135300000D03*
X232900000Y-135300000D03*
X232400000Y-135300000D03*
X231900000Y-135300000D03*
X231400000Y-135300000D03*
X231400000Y-138200000D03*
X231900000Y-138200000D03*
X232400000Y-138200000D03*
X232900000Y-138200000D03*
X233400000Y-138200000D03*
%TD*%
D49*
%TO.C,C43*%
X239550000Y-139425000D03*
X239550000Y-136475000D03*
%TD*%
D50*
%TO.C,D7*%
X243950000Y-134800000D03*
X247950000Y-134800000D03*
%TD*%
D10*
%TO.C,R36*%
X245325000Y-132300000D03*
X246975000Y-132300000D03*
%TD*%
D11*
%TO.C,R82*%
X238600000Y-125625000D03*
X238600000Y-123975000D03*
%TD*%
D13*
%TO.C,C42*%
X241475000Y-120575000D03*
X241475000Y-119025000D03*
%TD*%
D11*
%TO.C,R71*%
X205500000Y-109025000D03*
X205500000Y-107375000D03*
%TD*%
%TO.C,R70*%
X194450000Y-108975000D03*
X194450000Y-107325000D03*
%TD*%
%TO.C,R76*%
X197700000Y-108975000D03*
X197700000Y-107325000D03*
%TD*%
D51*
%TO.C,U3*%
X244075000Y-108995000D03*
X244075000Y-112045000D03*
X247425000Y-108995000D03*
X247425000Y-112045000D03*
D52*
X239450000Y-108240000D03*
X239450000Y-112800000D03*
%TD*%
D14*
%TO.C,C20*%
X242775000Y-106000000D03*
X241225000Y-106000000D03*
%TD*%
D39*
%TO.C,C9*%
X253800000Y-107475000D03*
X256750000Y-107475000D03*
%TD*%
D21*
%TO.C,C3*%
X262225000Y-123500000D03*
X263775000Y-123500000D03*
%TD*%
D11*
%TO.C,R83*%
X240000000Y-123625000D03*
X240000000Y-121975000D03*
%TD*%
D53*
%TO.C,U10*%
X237460000Y-120740000D03*
X236540000Y-120740000D03*
X237460000Y-121660000D03*
X236540000Y-121660000D03*
D54*
X237800000Y-119712500D03*
X237400000Y-119712500D03*
X237000000Y-119712500D03*
X236600000Y-119712500D03*
X236200000Y-119712500D03*
D55*
X235512500Y-120400000D03*
X235512500Y-120800000D03*
X235512500Y-121200000D03*
X235512500Y-121600000D03*
X235512500Y-122000000D03*
D54*
X236200000Y-122687500D03*
X236600000Y-122687500D03*
X237000000Y-122687500D03*
X237400000Y-122687500D03*
X237800000Y-122687500D03*
D55*
X238487500Y-122000000D03*
X238487500Y-121600000D03*
X238487500Y-121200000D03*
X238487500Y-120800000D03*
X238487500Y-120400000D03*
%TD*%
D30*
%TO.C,C41*%
X246125000Y-128950000D03*
X243175000Y-128950000D03*
%TD*%
D21*
%TO.C,C44*%
X243775000Y-130800000D03*
X245325000Y-130800000D03*
%TD*%
D27*
%TO.C,D9*%
X248950000Y-132100000D03*
X248950000Y-128800000D03*
%TD*%
D12*
%TO.C,R93*%
X213125000Y-138900000D03*
X211475000Y-138900000D03*
%TD*%
%TO.C,R95*%
X213125000Y-133700000D03*
X211475000Y-133700000D03*
%TD*%
%TO.C,R94*%
X213125000Y-135300000D03*
X211475000Y-135300000D03*
%TD*%
%TO.C,R30*%
X237225000Y-134500000D03*
X235575000Y-134500000D03*
%TD*%
D56*
%TO.C,L2*%
X248050000Y-142500000D03*
D57*
X248050000Y-137900000D03*
%TD*%
D58*
%TO.C,U12*%
X241260000Y-137450000D03*
D59*
X241260000Y-138400000D03*
X241260000Y-139350000D03*
X243940000Y-139350000D03*
X243940000Y-138400000D03*
X243940000Y-137450000D03*
D60*
X242200000Y-137875000D03*
X242200000Y-138925000D03*
X243000000Y-137875000D03*
X243000000Y-138925000D03*
%TD*%
D61*
%TO.C,D5*%
X194600000Y-142025000D03*
X195550000Y-142025000D03*
%TD*%
D11*
%TO.C,R4*%
X189400000Y-142525000D03*
X189400000Y-140875000D03*
%TD*%
D27*
%TO.C,D3*%
X197100000Y-139050000D03*
X197100000Y-142350000D03*
%TD*%
D11*
%TO.C,R34*%
X260500000Y-98775000D03*
X260500000Y-97125000D03*
%TD*%
D10*
%TO.C,R39*%
X227975000Y-141200000D03*
X229625000Y-141200000D03*
%TD*%
D11*
%TO.C,R5*%
X218800000Y-144525000D03*
X218800000Y-142875000D03*
%TD*%
D61*
%TO.C,D19*%
X193325000Y-142025000D03*
X192375000Y-142025000D03*
%TD*%
D22*
%TO.C,R40*%
X215900000Y-107475000D03*
X215900000Y-109125000D03*
%TD*%
D62*
%TO.C,U7*%
X232700000Y-131200000D03*
X232700000Y-129930000D03*
X232700000Y-128660000D03*
X232700000Y-127390000D03*
X227750000Y-127390000D03*
X227750000Y-128660000D03*
X227750000Y-129930000D03*
X227750000Y-131200000D03*
%TD*%
D63*
%TO.C,C45*%
X236920000Y-132450000D03*
X237880000Y-132450000D03*
%TD*%
D64*
%TO.C,D6*%
X213500000Y-112637500D03*
X215400000Y-112637500D03*
X214450000Y-110762500D03*
%TD*%
D26*
%TO.C,D4*%
X251250000Y-145250000D03*
X247950000Y-145250000D03*
%TD*%
D22*
%TO.C,R100*%
X188100000Y-144575000D03*
X188100000Y-146225000D03*
%TD*%
D63*
%TO.C,C46*%
X236920000Y-129800000D03*
X237880000Y-129800000D03*
%TD*%
D20*
%TO.C,D35*%
X234750000Y-105900000D03*
X232850000Y-105900000D03*
X233800000Y-107900000D03*
%TD*%
D26*
%TO.C,D31*%
X234300000Y-144700000D03*
X231000000Y-144700000D03*
%TD*%
D65*
%TO.C,Y1*%
X235250000Y-129700000D03*
X235250000Y-132200000D03*
%TD*%
D22*
%TO.C,R49*%
X212900000Y-107475000D03*
X212900000Y-109125000D03*
%TD*%
D20*
%TO.C,D23*%
X237300000Y-102390000D03*
X235400000Y-102390000D03*
X236350000Y-104390000D03*
%TD*%
D43*
%TO.C,Q10*%
X235699000Y-139050000D03*
X235699000Y-140950000D03*
X237699000Y-140000000D03*
%TD*%
D27*
%TO.C,D20*%
X236700000Y-128250000D03*
X236700000Y-124950000D03*
%TD*%
D13*
%TO.C,C35*%
X214400000Y-109075000D03*
X214400000Y-107525000D03*
%TD*%
D22*
%TO.C,R99*%
X200000000Y-144575000D03*
X200000000Y-146225000D03*
%TD*%
M02*
