M48
INCH
T1C0.0079
T2C0.0118
T3C0.0118
T4C0.0157
T5C0.0236
T6C0.0315
T7C0.0394
T8C0.0630
%
G90
G05
T1
X7.6264Y-4.752
X7.6264Y-4.8071
X7.6539Y-4.7244
X7.6539Y-4.7795
X7.6539Y-4.8346
X7.6815Y-4.752
X7.6815Y-4.8071
X7.7091Y-4.7244
X7.7091Y-4.7795
X7.7091Y-4.8346
X7.7366Y-4.752
X7.7366Y-4.8071
X9.1126Y-5.3642
X9.1126Y-5.4035
X9.1496Y-5.3642
X9.1496Y-5.4035
X9.1866Y-5.3642
X9.1866Y-5.4035
X9.311Y-4.752
X9.311Y-4.7913
X9.3504Y-4.752
X9.3504Y-4.7913
X9.5354Y-5.4213
X9.5354Y-5.4764
X9.5669Y-5.4213
X9.5669Y-5.4764
T2
X7.1024Y-4.1339
X7.1063Y-5.1181
X7.1063Y-5.1969
X7.1063Y-5.2756
X7.1063Y-5.3543
X7.1063Y-5.4331
X7.1063Y-5.5118
X7.1063Y-5.5906
X7.1063Y-5.6693
X7.1063Y-5.7677
X7.1339Y-4.185
X7.1339Y-5.6299
X7.1457Y-5.8661
X7.1811Y-4.1496
X7.189Y-4.2323
X7.2047Y-5.1181
X7.2047Y-5.1969
X7.2047Y-5.2756
X7.2047Y-5.3543
X7.2047Y-5.4331
X7.2047Y-5.5118
X7.2047Y-5.5906
X7.2047Y-5.6299
X7.2047Y-5.9252
X7.2835Y-5.1181
X7.2835Y-5.1969
X7.2835Y-5.2756
X7.2835Y-5.3543
X7.2835Y-5.4331
X7.2835Y-5.5118
X7.2835Y-5.5906
X7.2835Y-5.9252
X7.3228Y-3.7559
X7.3228Y-4.061
X7.3228Y-4.3051
X7.3248Y-5.1476
X7.3268Y-4.1851
X7.3583Y-5.4331
X7.3583Y-5.5118
X7.3583Y-5.5906
X7.3622Y-4.626
X7.3622Y-4.7047
X7.3622Y-4.7835
X7.3622Y-4.8622
X7.3622Y-4.9409
X7.3622Y-5.9252
X7.3637Y-4.5113
X7.3701Y-5.748
X7.374Y-4.2638
X7.378Y-4.435
X7.378Y-5.002
X7.3976Y-5.2224
X7.4134Y-4.0984
X7.4173Y-3.7559
X7.4203Y-5.5463
X7.437Y-3.9921
X7.437Y-4.0709
X7.4429Y-4.439
X7.4459Y-5.8258
X7.4488Y-4.2569
X7.4527Y-5.2461
X7.4695Y-4.6565
X7.4695Y-4.7283
X7.4695Y-4.8071
X7.4724Y-4.8898
X7.4764Y-4.1535
X7.4764Y-5.6535
X7.4862Y-5.4606
X7.4882Y-5.2028
X7.498Y-4.4429
X7.5098Y-5.3209
X7.5138Y-4.0787
X7.5177Y-5.8917
X7.5197Y-3.7559
X7.5276Y-4.4429
X7.5276Y-4.9744
X7.5295Y-4.1831
X7.5335Y-4.8642
X7.5413Y-5.3878
X7.5512Y-5.122
X7.5512Y-5.5472
X7.5576Y-4.6063
X7.5591Y-4.6575
X7.5591Y-4.7283
X7.5591Y-4.8031
X7.5669Y-4.1398
X7.5748Y-5.563
X7.5787Y-4.9213
X7.5787Y-5.0
X7.5787Y-5.6535
X7.5834Y-3.9929
X7.5866Y-4.0709
X7.5925Y-4.189
X7.6004Y-5.3917
X7.6014Y-5.2455
X7.6024Y-5.7638
X7.6102Y-4.9606
X7.6102Y-5.8937
X7.6142Y-3.7559
X7.6196Y-5.5489
X7.6196Y-5.6349
X7.626Y-4.2559
X7.626Y-4.4478
X7.628Y-5.748
X7.6299Y-5.7972
X7.6306Y-5.2495
X7.6378Y-4.9213
X7.6406Y-5.2886
X7.6457Y-4.0709
X7.6531Y-5.5489
X7.6531Y-5.6349
X7.6679Y-5.3219
X7.6732Y-5.7618
X7.689Y-4.2559
X7.6895Y-4.4483
X7.6949Y-5.4055
X7.6949Y-5.4626
X7.6969Y-5.5591
X7.7047Y-5.6552
X7.7136Y-4.5561
X7.7165Y-3.7559
X7.7283Y-4.0709
X7.7441Y-5.8917
X7.748Y-4.185
X7.748Y-4.4429
X7.7581Y-4.4921
X7.7598Y-5.563
X7.7697Y-5.5315
X7.7791Y-5.2738
X7.7835Y-4.1831
X7.7953Y-4.7598
X7.8007Y-4.6826
X7.8011Y-5.5847
X7.8012Y-5.3012
X7.8039Y-5.2512
X7.815Y-5.4469
X7.8189Y-3.7559
X7.8346Y-5.7795
X7.8652Y-4.4734
X7.8668Y-5.252
X7.8673Y-5.287
X7.8687Y-5.3193
X7.872Y-3.9882
X7.872Y-4.1122
X7.8789Y-4.19
X7.8799Y-4.2579
X7.8839Y-4.3189
X7.8839Y-5.6496
X7.8894Y-5.4598
X7.9055Y-4.9528
X7.9094Y-5.8228
X7.9134Y-3.7559
X7.9134Y-5.9252
X7.914Y-5.2539
X7.9154Y-4.187
X7.9283Y-5.594
X7.9429Y-5.2449
X7.9469Y-4.0787
X7.95Y-5.8
X7.9528Y-4.6319
X7.9606Y-4.7835
X7.9626Y-4.1161
X7.9803Y-4.8386
X7.9803Y-5.5256
X7.9882Y-3.998
X7.9882Y-4.7421
X7.9882Y-5.685
X7.9921Y-5.9252
X7.9941Y-5.5945
X7.9965Y-5.3461
X7.9993Y-4.9855
X8.0037Y-5.2443
X8.0118Y-4.4724
X8.0138Y-4.5551
X8.0157Y-3.7559
X8.0177Y-4.8917
X8.0186Y-4.0715
X8.0193Y-5.461
X8.0256Y-4.9409
X8.026Y-5.3724
X8.0471Y-3.9705
X8.0588Y-5.577
X8.0591Y-5.2543
X8.0709Y-5.9252
X8.0712Y-5.3437
X8.0768Y-5.4665
X8.0792Y-5.283
X8.0984Y-4.3563
X8.1181Y-3.7559
X8.122Y-5.5118
X8.1224Y-5.2681
X8.13Y-5.8
X8.1457Y-5.1043
X8.1496Y-5.9252
X8.1516Y-4.9803
X8.1634Y-5.6476
X8.1654Y-4.5965
X8.1713Y-4.7181
X8.1752Y-4.3661
X8.1752Y-4.939
X8.1772Y-4.6378
X8.1791Y-4.5669
X8.1811Y-4.0709
X8.1811Y-4.1831
X8.1811Y-4.6673
X8.1822Y-5.2599
X8.1831Y-4.5098
X8.189Y-4.4272
X8.189Y-4.8465
X8.1909Y-4.4724
X8.1969Y-5.7283
X8.2087Y-4.3386
X8.2087Y-5.6457
X8.2097Y-5.2706
X8.2205Y-3.7559
X8.2283Y-5.9252
X8.2323Y-3.9882
X8.2362Y-4.5669
X8.2461Y-4.6673
X8.2677Y-5.6437
X8.2717Y-4.7638
X8.2717Y-5.2756
X8.2795Y-5.1102
X8.2815Y-4.0728
X8.2854Y-5.313
X8.2913Y-4.5591
X8.2913Y-5.4685
X8.2933Y-4.2657
X8.3071Y-5.9252
X8.315Y-3.7559
X8.3248Y-5.1201
X8.3327Y-4.1142
X8.3346Y-4.5295
X8.3366Y-4.9685
X8.3386Y-3.9882
X8.34Y-5.8
X8.3445Y-5.689
X8.3465Y-4.6063
X8.3602Y-4.3445
X8.3691Y-5.3671
X8.376Y-4.0354
X8.3858Y-4.8051
X8.3858Y-5.6614
X8.3858Y-5.9252
X8.3878Y-4.8543
X8.4104Y-4.5443
X8.4104Y-4.6093
X8.4114Y-4.9075
X8.4409Y-4.685
X8.4528Y-4.122
X8.4646Y-4.5827
X8.4646Y-5.9252
X8.4686Y-4.2657
X8.4902Y-3.9941
X8.5079Y-4.5443
X8.5177Y-4.6319
X8.5276Y-3.9882
X8.53Y-5.8
X8.5315Y-4.3425
X8.5315Y-4.9551
X8.5315Y-5.0551
X8.5315Y-5.1063
X8.5335Y-5.0051
X8.5433Y-5.9252
X8.5551Y-5.2756
X8.5709Y-5.2402
X8.5728Y-4.1299
X8.5787Y-4.1673
X8.5807Y-4.3917
X8.5827Y-4.5748
X8.5827Y-4.6388
X8.5827Y-4.686
X8.6142Y-4.8551
X8.6161Y-4.9567
X8.6191Y-4.8051
X8.6211Y-5.0039
X8.622Y-4.9055
X8.622Y-5.9252
X8.623Y-4.7549
X8.6437Y-4.1122
X8.6457Y-3.9921
X8.6496Y-5.1417
X8.6545Y-4.2632
X8.6654Y-5.5118
X8.6791Y-4.5728
X8.6791Y-5.6181
X8.6809Y-5.1518
X8.6949Y-4.5148
X8.7008Y-5.9252
X8.7146Y-5.5827
X8.7185Y-4.0728
X8.72Y-5.8
X8.7224Y-4.1181
X8.7224Y-5.2697
X8.7283Y-4.3386
X8.7382Y-5.0955
X8.748Y-4.1929
X8.75Y-5.6201
X8.7539Y-4.0295
X8.7677Y-5.0551
X8.7689Y-4.9082
X8.7714Y-4.1715
X8.7746Y-4.3976
X8.7795Y-5.9252
X8.7852Y-4.663
X8.7852Y-4.7083
X8.7852Y-4.7398
X8.7953Y-4.8858
X8.7992Y-3.9961
X8.8071Y-4.8031
X8.8071Y-5.2165
X8.8091Y-5.4843
X8.811Y-4.9439
X8.8209Y-4.1715
X8.8465Y-5.3228
X8.8582Y-4.1948
X8.8583Y-5.9252
X8.874Y-4.0709
X8.874Y-5.2224
X8.9035Y-4.2736
X8.9055Y-5.0551
X8.9055Y-5.1142
X8.91Y-5.8
X8.9134Y-3.7559
X8.9134Y-4.1112
X8.9213Y-3.9921
X8.9321Y-5.4409
X8.937Y-5.5
X8.937Y-5.5591
X8.937Y-5.9252
X8.9518Y-4.8081
X8.9741Y-4.9636
X8.9806Y-4.2025
X8.9902Y-4.8661
X9.0Y-4.7992
X9.0059Y-5.8268
X9.0128Y-4.311
X9.0157Y-3.7559
X9.0157Y-5.9252
X9.0276Y-5.0157
X9.0276Y-5.0669
X9.0295Y-5.252
X9.0354Y-4.2736
X9.0374Y-5.6122
X9.0531Y-4.1713
X9.0551Y-5.6693
X9.0591Y-4.7972
X9.065Y-4.8986
X9.065Y-5.0394
X9.0827Y-5.3268
X9.0945Y-3.9921
X9.0945Y-5.9252
X9.0974Y-4.5846
X9.1028Y-5.0154
X9.1181Y-3.7559
X9.1181Y-4.1457
X9.124Y-4.8996
X9.1309Y-4.5571
X9.1407Y-4.4636
X9.1417Y-5.5748
X9.1732Y-5.9252
X9.1929Y-4.4488
X9.2047Y-4.2087
X9.2067Y-4.0994
X9.2205Y-3.7559
X9.2386Y-4.2996
X9.2401Y-5.4412
X9.2402Y-5.2953
X9.249Y-4.8701
X9.252Y-4.4094
X9.252Y-4.4724
X9.252Y-5.9252
X9.2657Y-4.3465
X9.2677Y-4.0807
X9.2687Y-4.2283
X9.3043Y-4.1488
X9.3071Y-4.2323
X9.315Y-3.7559
X9.315Y-5.5512
X9.3158Y-5.4524
X9.3169Y-4.8799
X9.3169Y-4.9636
X9.3307Y-4.3307
X9.3307Y-4.4094
X9.3307Y-4.4724
X9.3307Y-4.6772
X9.3307Y-5.9252
X9.3563Y-4.8858
X9.3622Y-4.1094
X9.3898Y-5.0512
X9.3957Y-5.1102
X9.3976Y-5.2165
X9.3996Y-4.7028
X9.4055Y-4.6693
X9.4055Y-5.2953
X9.413Y-4.7276
X9.4134Y-4.3307
X9.4134Y-4.3898
X9.4311Y-5.3248
X9.4488Y-4.6535
X9.4567Y-4.1732
X9.4567Y-4.9941
X9.4774Y-4.0404
X9.4843Y-4.3307
X9.4843Y-4.3898
X9.4843Y-4.5354
X9.4892Y-4.8671
X9.4961Y-5.2087
X9.5039Y-4.6535
X9.5295Y-5.0787
X9.61Y-4.21
X9.626Y-5.248
X9.6339Y-5.4862
X9.6457Y-4.6299
X9.6772Y-4.6299
X9.685Y-3.7795
X9.685Y-3.8583
X9.685Y-3.937
X9.72Y-5.8
X9.72Y-5.89
X9.7205Y-4.5354
X9.7402Y-5.0
X9.7539Y-4.9213
X9.7598Y-5.7618
X9.76Y-4.22
X9.7638Y-3.7795
X9.7638Y-3.8583
X9.7638Y-3.937
X9.8Y-4.68
X9.8012Y-5.1102
X9.8012Y-5.7205
X9.815Y-3.9961
X9.8524Y-5.0738
X9.8642Y-4.0413
X9.8691Y-4.2923
X9.8701Y-4.186
X9.89Y-4.43
X9.9016Y-3.7598
X9.93Y-4.57
X9.93Y-4.68
X9.93Y-4.76
X9.9331Y-5.1024
X9.9331Y-5.2126
X9.9409Y-5.7244
X9.9587Y-3.7874
X9.9606Y-4.9409
X9.9626Y-5.4508
X9.9626Y-5.5787
X9.9646Y-5.3543
X9.9843Y-5.1732
X9.99Y-4.57
X9.99Y-4.68
X9.99Y-4.76
X10.0197Y-3.7598
X10.0197Y-5.8937
X10.0217Y-5.2835
X10.0217Y-5.3327
X10.0217Y-5.5591
X10.0217Y-5.6378
X10.0217Y-5.7165
X10.0236Y-5.7559
X10.0236Y-5.8228
X10.0571Y-3.7874
X10.063Y-4.2323
X10.063Y-4.6535
X10.063Y-5.4409
X10.07Y-4.76
X10.0709Y-4.9449
X10.0984Y-3.7598
X10.126Y-5.2835
X10.126Y-5.3327
X10.1378Y-5.752
X10.1417Y-4.6693
X10.1496Y-5.6378
X10.1535Y-4.2323
X10.1742Y-4.7785
X10.189Y-4.4094
X10.2008Y-4.5
X10.2087Y-5.748
X10.2126Y-4.3957
X10.2165Y-3.7598
X10.252Y-5.748
X10.2559Y-5.5512
X10.2598Y-4.9094
X10.2638Y-5.4724
X10.2677Y-5.0866
X10.2756Y-4.5354
X10.2913Y-5.748
X10.315Y-3.7598
X10.36Y-5.09
X10.3622Y-4.9409
X10.3858Y-4.9016
X10.3937Y-3.8189
X10.3937Y-3.8976
X10.3937Y-3.9764
X10.3937Y-4.0551
X10.3937Y-4.1339
X10.3937Y-4.2126
X10.4134Y-4.5669
X10.4134Y-4.6457
X10.4134Y-4.9606
X10.4134Y-5.0394
X10.4134Y-5.1181
X10.4134Y-5.1969
T3
X8.8701Y-4.8543
X8.8701Y-4.8937
X8.8898Y-4.874
X8.9094Y-4.8543
X8.9094Y-4.8937
T4
X10.2402Y-4.6555
X10.2402Y-4.7067
X10.2795Y-4.6555
X10.2795Y-4.7067
X10.3189Y-4.6555
X10.3189Y-4.7067
T6
X9.9579Y-3.9823
X9.9579Y-4.0823
X10.0579Y-3.9823
X10.0579Y-4.0823
X10.1579Y-3.9823
X10.1579Y-4.0823
X10.2579Y-3.9823
X10.2579Y-4.0823
T7
X7.4162Y-3.828
X7.4162Y-3.928
X7.5162Y-3.828
X7.5162Y-3.928
X7.6162Y-3.828
X7.6162Y-3.928
X7.7162Y-3.828
X7.7162Y-3.928
X7.8162Y-3.828
X7.8162Y-3.928
X7.9162Y-3.828
X7.9162Y-3.928
X8.0162Y-3.828
X8.0162Y-3.928
X8.1162Y-3.828
X8.1162Y-3.928
X8.2162Y-3.828
X8.2162Y-3.928
X8.3162Y-3.828
X8.3162Y-3.928
X8.4162Y-3.828
X8.4162Y-3.928
X8.5162Y-3.828
X8.5162Y-3.928
X8.6162Y-3.828
X8.6162Y-3.928
X8.7162Y-3.828
X8.7162Y-3.928
X8.8162Y-3.828
X8.8162Y-3.928
X8.9162Y-3.828
X8.9162Y-3.928
X9.0162Y-3.828
X9.0162Y-3.928
X9.1162Y-3.828
X9.1162Y-3.928
X9.2162Y-3.828
X9.2162Y-3.928
X9.3162Y-3.828
X9.3162Y-3.928
T8
X8.0315Y-5.8268
X8.2315Y-5.8268
X8.4315Y-5.8268
X8.6315Y-5.8268
X8.8315Y-5.8268
X9.0695Y-5.8268
X9.2695Y-5.8268
X9.8937Y-5.8268
X10.0937Y-5.8268
X10.2937Y-5.8268
T5
G00X7.4677Y-5.7429
M15
G01X7.4677Y-5.6996
M16
G05
G00X7.4677Y-5.9016
M15
G01X7.4677Y-5.8701
M16
G05
G00X7.8079Y-5.7429
M15
G01X7.8079Y-5.6996
M16
G05
G00X7.8079Y-5.9016
M15
G01X7.8079Y-5.8701
M16
G05
T0
M30
