%TF.GenerationSoftware,KiCad,Pcbnew,7.0.1*%
%TF.CreationDate,2024-03-07T06:40:02+01:00*%
%TF.ProjectId,AnthC,416e7468-432e-46b6-9963-61645f706362,M2-R4*%
%TF.SameCoordinates,Original*%
%TF.FileFunction,Soldermask,Bot*%
%TF.FilePolarity,Negative*%
%FSLAX46Y46*%
G04 Gerber Fmt 4.6, Leading zero omitted, Abs format (unit mm)*
G04 Created by KiCad (PCBNEW 7.0.1) date 2024-03-07 06:40:02*
%MOMM*%
%LPD*%
G01*
G04 APERTURE LIST*
G04 Aperture macros list*
%AMRoundRect*
0 Rectangle with rounded corners*
0 $1 Rounding radius*
0 $2 $3 $4 $5 $6 $7 $8 $9 X,Y pos of 4 corners*
0 Add a 4 corners polygon primitive as box body*
4,1,4,$2,$3,$4,$5,$6,$7,$8,$9,$2,$3,0*
0 Add four circle primitives for the rounded corners*
1,1,$1+$1,$2,$3*
1,1,$1+$1,$4,$5*
1,1,$1+$1,$6,$7*
1,1,$1+$1,$8,$9*
0 Add four rect primitives between the rounded corners*
20,1,$1+$1,$2,$3,$4,$5,0*
20,1,$1+$1,$4,$5,$6,$7,0*
20,1,$1+$1,$6,$7,$8,$9,0*
20,1,$1+$1,$8,$9,$2,$3,0*%
G04 Aperture macros list end*
%ADD10C,3.600000*%
%ADD11C,1.000000*%
%ADD12RoundRect,0.200000X-0.850000X0.850000X-0.850000X-0.850000X0.850000X-0.850000X0.850000X0.850000X0*%
%ADD13O,2.100000X2.100000*%
%ADD14C,1.050000*%
%ADD15RoundRect,0.200000X0.300000X0.575000X-0.300000X0.575000X-0.300000X-0.575000X0.300000X-0.575000X0*%
%ADD16RoundRect,0.200000X0.150000X0.575000X-0.150000X0.575000X-0.150000X-0.575000X0.150000X-0.575000X0*%
%ADD17O,1.400000X2.400000*%
%ADD18O,1.450000X2.500000*%
%ADD19RoundRect,0.200000X-1.750000X-2.250000X1.750000X-2.250000X1.750000X2.250000X-1.750000X2.250000X0*%
%ADD20RoundRect,0.200000X0.800000X-0.800000X0.800000X0.800000X-0.800000X0.800000X-0.800000X-0.800000X0*%
%ADD21O,2.000000X2.000000*%
%ADD22C,1.900000*%
%ADD23RoundRect,0.200000X1.300000X1.300000X-1.300000X1.300000X-1.300000X-1.300000X1.300000X-1.300000X0*%
%ADD24C,3.000000*%
G04 APERTURE END LIST*
D10*
%TO.C,MH1*%
X241500000Y-98500000D03*
%TD*%
%TO.C,MH3*%
X241500000Y-147500000D03*
%TD*%
%TO.C,MH4*%
X183500000Y-98500000D03*
%TD*%
%TO.C,MH2*%
X183500000Y-147500000D03*
%TD*%
D11*
%TO.C,U6*%
X194410000Y-122800000D03*
X195810000Y-122800000D03*
X193710000Y-122100000D03*
X195110000Y-122100000D03*
X196510000Y-122100000D03*
X194410000Y-121400000D03*
X195810000Y-121400000D03*
X193710000Y-120700000D03*
X195110000Y-120700000D03*
X196510000Y-120700000D03*
X194410000Y-120000000D03*
X195810000Y-120000000D03*
%TD*%
%TO.C,U9*%
X225300000Y-123300000D03*
X225300000Y-124300000D03*
X225800000Y-123800000D03*
X226300000Y-123300000D03*
X226300000Y-124300000D03*
%TD*%
%TO.C,U12*%
X242200000Y-137700000D03*
X242200000Y-139100000D03*
X243000000Y-137700000D03*
X243000000Y-139100000D03*
%TD*%
D12*
%TO.C,J3*%
X188372600Y-97232300D03*
D13*
X188372600Y-99772300D03*
X190912600Y-97232300D03*
X190912600Y-99772300D03*
X193452600Y-97232300D03*
X193452600Y-99772300D03*
X195992600Y-97232300D03*
X195992600Y-99772300D03*
X198532600Y-97232300D03*
X198532600Y-99772300D03*
X201072600Y-97232300D03*
X201072600Y-99772300D03*
X203612600Y-97232300D03*
X203612600Y-99772300D03*
X206152600Y-97232300D03*
X206152600Y-99772300D03*
X208692600Y-97232300D03*
X208692600Y-99772300D03*
X211232600Y-97232300D03*
X211232600Y-99772300D03*
X213772600Y-97232300D03*
X213772600Y-99772300D03*
X216312600Y-97232300D03*
X216312600Y-99772300D03*
X218852600Y-97232300D03*
X218852600Y-99772300D03*
X221392600Y-97232300D03*
X221392600Y-99772300D03*
X223932600Y-97232300D03*
X223932600Y-99772300D03*
X226472600Y-97232300D03*
X226472600Y-99772300D03*
X229012600Y-97232300D03*
X229012600Y-99772300D03*
X231552600Y-97232300D03*
X231552600Y-99772300D03*
X234092600Y-97232300D03*
X234092600Y-99772300D03*
X236632600Y-97232300D03*
X236632600Y-99772300D03*
%TD*%
D14*
%TO.C,J1*%
X196890000Y-145820000D03*
X191110000Y-145820000D03*
D15*
X197200000Y-144745000D03*
X196400000Y-144745000D03*
D16*
X195250000Y-144745000D03*
X194250000Y-144745000D03*
X193750000Y-144745000D03*
X192750000Y-144745000D03*
D15*
X190800000Y-144745000D03*
X191600000Y-144745000D03*
D16*
X192250000Y-144745000D03*
X193250000Y-144745000D03*
X194750000Y-144745000D03*
X195750000Y-144745000D03*
D17*
X198320000Y-149500000D03*
X189680000Y-149500000D03*
D18*
X198320000Y-145320000D03*
X189680000Y-145320000D03*
%TD*%
D19*
%TO.C,BT1*%
X255050000Y-128400000D03*
X225750000Y-128400000D03*
%TD*%
D20*
%TO.C,SW1*%
X260550000Y-103690000D03*
D21*
X258010000Y-103690000D03*
X255470000Y-103690000D03*
X252930000Y-103690000D03*
X252930000Y-101150000D03*
X255470000Y-101150000D03*
X258010000Y-101150000D03*
X260550000Y-101150000D03*
%TD*%
D22*
%TO.C,TP7*%
X240600000Y-116800000D03*
%TD*%
%TO.C,TP18*%
X257600000Y-120200000D03*
%TD*%
D23*
%TO.C,J5*%
X261460000Y-148000000D03*
D24*
X256380000Y-148000000D03*
X251300000Y-148000000D03*
%TD*%
D23*
%TO.C,J6*%
X235445000Y-148000000D03*
D24*
X230365000Y-148000000D03*
%TD*%
D23*
%TO.C,J2*%
X224320000Y-148000000D03*
D24*
X219240000Y-148000000D03*
X214160000Y-148000000D03*
X209080000Y-148000000D03*
X204000000Y-148000000D03*
%TD*%
M02*
