G04 #@! TF.GenerationSoftware,KiCad,Pcbnew,7.0.1*
G04 #@! TF.CreationDate,2023-05-18T20:02:15+01:00*
G04 #@! TF.ProjectId,AnthC,416e7468-432e-46b6-9963-61645f706362,rev?*
G04 #@! TF.SameCoordinates,Original*
G04 #@! TF.FileFunction,Soldermask,Top*
G04 #@! TF.FilePolarity,Negative*
%FSLAX46Y46*%
G04 Gerber Fmt 4.6, Leading zero omitted, Abs format (unit mm)*
G04 Created by KiCad (PCBNEW 7.0.1) date 2023-05-18 20:02:15*
%MOMM*%
%LPD*%
G01*
G04 APERTURE LIST*
G04 Aperture macros list*
%AMRoundRect*
0 Rectangle with rounded corners*
0 $1 Rounding radius*
0 $2 $3 $4 $5 $6 $7 $8 $9 X,Y pos of 4 corners*
0 Add a 4 corners polygon primitive as box body*
4,1,4,$2,$3,$4,$5,$6,$7,$8,$9,$2,$3,0*
0 Add four circle primitives for the rounded corners*
1,1,$1+$1,$2,$3*
1,1,$1+$1,$4,$5*
1,1,$1+$1,$6,$7*
1,1,$1+$1,$8,$9*
0 Add four rect primitives between the rounded corners*
20,1,$1+$1,$2,$3,$4,$5,0*
20,1,$1+$1,$4,$5,$6,$7,0*
20,1,$1+$1,$6,$7,$8,$9,0*
20,1,$1+$1,$8,$9,$2,$3,0*%
G04 Aperture macros list end*
%ADD10RoundRect,0.200000X0.600000X-0.450000X0.600000X0.450000X-0.600000X0.450000X-0.600000X-0.450000X0*%
%ADD11RoundRect,0.350000X0.825000X0.150000X-0.825000X0.150000X-0.825000X-0.150000X0.825000X-0.150000X0*%
%ADD12RoundRect,0.450000X-0.650000X0.250000X-0.650000X-0.250000X0.650000X-0.250000X0.650000X0.250000X0*%
%ADD13RoundRect,0.425000X0.225000X0.250000X-0.225000X0.250000X-0.225000X-0.250000X0.225000X-0.250000X0*%
%ADD14RoundRect,0.340000X-0.140000X-0.170000X0.140000X-0.170000X0.140000X0.170000X-0.140000X0.170000X0*%
%ADD15C,3.600000*%
%ADD16RoundRect,0.400000X-0.200000X-0.275000X0.200000X-0.275000X0.200000X0.275000X-0.200000X0.275000X0*%
%ADD17RoundRect,0.400000X-0.275000X0.200000X-0.275000X-0.200000X0.275000X-0.200000X0.275000X0.200000X0*%
%ADD18RoundRect,0.400000X0.200000X0.275000X-0.200000X0.275000X-0.200000X-0.275000X0.200000X-0.275000X0*%
%ADD19RoundRect,0.425000X0.250000X-0.225000X0.250000X0.225000X-0.250000X0.225000X-0.250000X-0.225000X0*%
%ADD20RoundRect,0.200000X0.450000X0.400000X-0.450000X0.400000X-0.450000X-0.400000X0.450000X-0.400000X0*%
%ADD21RoundRect,0.425000X-0.250000X0.225000X-0.250000X-0.225000X0.250000X-0.225000X0.250000X0.225000X0*%
%ADD22RoundRect,0.449999X0.325001X0.650001X-0.325001X0.650001X-0.325001X-0.650001X0.325001X-0.650001X0*%
%ADD23RoundRect,0.500000X0.675000X0.000000X-0.675000X0.000000X-0.675000X0.000000X0.675000X0.000000X0*%
%ADD24RoundRect,0.200000X-0.330000X-0.250000X0.330000X-0.250000X0.330000X0.250000X-0.330000X0.250000X0*%
%ADD25RoundRect,0.400000X0.275000X-0.200000X0.275000X0.200000X-0.275000X0.200000X-0.275000X-0.200000X0*%
%ADD26RoundRect,0.425000X-0.225000X-0.250000X0.225000X-0.250000X0.225000X0.250000X-0.225000X0.250000X0*%
%ADD27RoundRect,0.200000X0.400000X-0.450000X0.400000X0.450000X-0.400000X0.450000X-0.400000X-0.450000X0*%
%ADD28RoundRect,0.418750X-0.218750X-0.256250X0.218750X-0.256250X0.218750X0.256250X-0.218750X0.256250X0*%
%ADD29RoundRect,0.500000X0.000000X-0.675000X0.000000X0.675000X0.000000X0.675000X0.000000X-0.675000X0*%
%ADD30RoundRect,0.350000X0.150000X-0.825000X0.150000X0.825000X-0.150000X0.825000X-0.150000X-0.825000X0*%
%ADD31RoundRect,0.340000X0.170000X-0.140000X0.170000X0.140000X-0.170000X0.140000X-0.170000X-0.140000X0*%
%ADD32RoundRect,0.200000X0.450000X0.600000X-0.450000X0.600000X-0.450000X-0.600000X0.450000X-0.600000X0*%
%ADD33RoundRect,0.200000X-0.600000X0.450000X-0.600000X-0.450000X0.600000X-0.450000X0.600000X0.450000X0*%
%ADD34RoundRect,0.200000X0.330000X0.250000X-0.330000X0.250000X-0.330000X-0.250000X0.330000X-0.250000X0*%
%ADD35RoundRect,0.200000X1.500000X-1.145000X1.500000X1.145000X-1.500000X1.145000X-1.500000X-1.145000X0*%
%ADD36RoundRect,0.575000X0.375000X0.875000X-0.375000X0.875000X-0.375000X-0.875000X0.375000X-0.875000X0*%
%ADD37RoundRect,0.255500X0.694500X1.194500X-0.694500X1.194500X-0.694500X-1.194500X0.694500X-1.194500X0*%
%ADD38RoundRect,0.562500X0.362500X2.387500X-0.362500X2.387500X-0.362500X-2.387500X0.362500X-2.387500X0*%
%ADD39RoundRect,0.200000X0.725000X2.750000X-0.725000X2.750000X-0.725000X-2.750000X0.725000X-2.750000X0*%
%ADD40RoundRect,0.300000X0.217500X0.100000X-0.217500X0.100000X-0.217500X-0.100000X0.217500X-0.100000X0*%
%ADD41RoundRect,0.200000X-0.400000X0.450000X-0.400000X-0.450000X0.400000X-0.450000X0.400000X0.450000X0*%
%ADD42RoundRect,0.200000X0.450000X-1.000000X0.450000X1.000000X-0.450000X1.000000X-0.450000X-1.000000X0*%
%ADD43RoundRect,0.200000X1.000000X0.450000X-1.000000X0.450000X-1.000000X-0.450000X1.000000X-0.450000X0*%
%ADD44RoundRect,0.200000X0.450000X-0.450000X0.450000X0.450000X-0.450000X0.450000X-0.450000X-0.450000X0*%
%ADD45C,1.000000*%
%ADD46RoundRect,0.200000X-0.450000X-0.600000X0.450000X-0.600000X0.450000X0.600000X-0.450000X0.600000X0*%
%ADD47RoundRect,0.200000X1.250000X1.150000X-1.250000X1.150000X-1.250000X-1.150000X1.250000X-1.150000X0*%
%ADD48RoundRect,0.449999X-0.325001X-0.650001X0.325001X-0.650001X0.325001X0.650001X-0.325001X0.650001X0*%
%ADD49RoundRect,0.262500X-0.350000X-0.062500X0.350000X-0.062500X0.350000X0.062500X-0.350000X0.062500X0*%
%ADD50RoundRect,0.262500X-0.062500X-0.350000X0.062500X-0.350000X0.062500X0.350000X-0.062500X0.350000X0*%
%ADD51RoundRect,0.200000X-0.850000X-0.850000X0.850000X-0.850000X0.850000X0.850000X-0.850000X0.850000X0*%
%ADD52RoundRect,0.200000X-0.450000X-0.400000X0.450000X-0.400000X0.450000X0.400000X-0.450000X0.400000X0*%
%ADD53RoundRect,0.200000X0.850000X-0.850000X0.850000X0.850000X-0.850000X0.850000X-0.850000X-0.850000X0*%
%ADD54O,2.100000X2.100000*%
%ADD55C,1.050000*%
%ADD56RoundRect,0.200000X-0.300000X-0.575000X0.300000X-0.575000X0.300000X0.575000X-0.300000X0.575000X0*%
%ADD57RoundRect,0.200000X-0.150000X-0.575000X0.150000X-0.575000X0.150000X0.575000X-0.150000X0.575000X0*%
%ADD58O,1.400000X2.400000*%
%ADD59O,1.450000X2.500000*%
%ADD60RoundRect,0.449999X-0.650001X0.325001X-0.650001X-0.325001X0.650001X-0.325001X0.650001X0.325001X0*%
%ADD61RoundRect,0.200000X-1.300000X-1.300000X1.300000X-1.300000X1.300000X1.300000X-1.300000X1.300000X0*%
%ADD62RoundRect,0.275000X0.175000X0.075000X-0.175000X0.075000X-0.175000X-0.075000X0.175000X-0.075000X0*%
%ADD63RoundRect,0.350000X-0.725000X-0.150000X0.725000X-0.150000X0.725000X0.150000X-0.725000X0.150000X0*%
%ADD64RoundRect,0.418750X-0.256250X0.218750X-0.256250X-0.218750X0.256250X-0.218750X0.256250X0.218750X0*%
%ADD65RoundRect,0.200000X-0.825000X-1.190000X0.825000X-1.190000X0.825000X1.190000X-0.825000X1.190000X0*%
%ADD66RoundRect,0.262500X-0.362500X-0.062500X0.362500X-0.062500X0.362500X0.062500X-0.362500X0.062500X0*%
%ADD67RoundRect,0.449999X0.650001X-0.325001X0.650001X0.325001X-0.650001X0.325001X-0.650001X-0.325001X0*%
%ADD68RoundRect,0.200000X-1.250000X-0.900000X1.250000X-0.900000X1.250000X0.900000X-1.250000X0.900000X0*%
%ADD69RoundRect,0.200000X-1.100000X-0.600000X1.100000X-0.600000X1.100000X0.600000X-1.100000X0.600000X0*%
%ADD70RoundRect,0.200000X-3.200000X-2.900000X3.200000X-2.900000X3.200000X2.900000X-3.200000X2.900000X0*%
%ADD71RoundRect,0.200000X-0.800000X0.800000X-0.800000X-0.800000X0.800000X-0.800000X0.800000X0.800000X0*%
%ADD72O,2.000000X2.000000*%
%ADD73RoundRect,0.200000X-0.500000X0.750000X-0.500000X-0.750000X0.500000X-0.750000X0.500000X0.750000X0*%
%ADD74RoundRect,0.250000X-0.050000X0.312500X-0.050000X-0.312500X0.050000X-0.312500X0.050000X0.312500X0*%
%ADD75RoundRect,0.250000X-0.312500X0.050000X-0.312500X-0.050000X0.312500X-0.050000X0.312500X0.050000X0*%
%ADD76RoundRect,0.200000X-0.925000X0.925000X-0.925000X-0.925000X0.925000X-0.925000X0.925000X0.925000X0*%
%ADD77RoundRect,0.650000X2.400000X-0.450000X2.400000X0.450000X-2.400000X0.450000X-2.400000X-0.450000X0*%
%ADD78RoundRect,0.200000X2.850000X-0.900000X2.850000X0.900000X-2.850000X0.900000X-2.850000X-0.900000X0*%
%ADD79RoundRect,0.312500X-0.202500X-0.112500X0.202500X-0.112500X0.202500X0.112500X-0.202500X0.112500X0*%
%ADD80RoundRect,0.200000X-0.315000X-0.225000X0.315000X-0.225000X0.315000X0.225000X-0.315000X0.225000X0*%
%ADD81RoundRect,0.200000X-0.400000X-0.525000X0.400000X-0.525000X0.400000X0.525000X-0.400000X0.525000X0*%
%ADD82RoundRect,0.200000X-0.175000X-0.300000X0.175000X-0.300000X0.175000X0.300000X-0.175000X0.300000X0*%
%ADD83RoundRect,0.200000X0.175000X0.300000X-0.175000X0.300000X-0.175000X-0.300000X0.175000X-0.300000X0*%
%ADD84RoundRect,0.200000X1.500000X1.500000X-1.500000X1.500000X-1.500000X-1.500000X1.500000X-1.500000X0*%
%ADD85C,3.400000*%
%ADD86O,2.100000X2.400000*%
%ADD87RoundRect,0.200000X0.850000X1.000000X-0.850000X1.000000X-0.850000X-1.000000X0.850000X-1.000000X0*%
%ADD88RoundRect,0.200000X1.300000X1.300000X-1.300000X1.300000X-1.300000X-1.300000X1.300000X-1.300000X0*%
%ADD89C,3.000000*%
G04 APERTURE END LIST*
D10*
X236500000Y-129050000D03*
X236500000Y-125750000D03*
D11*
X227750000Y-132655000D03*
X227750000Y-131385000D03*
X227750000Y-130115000D03*
X227750000Y-128845000D03*
X232700000Y-128845000D03*
X232700000Y-130115000D03*
X232700000Y-131385000D03*
X232700000Y-132655000D03*
D12*
X235250000Y-130500000D03*
X235250000Y-133000000D03*
D13*
X225775000Y-133000000D03*
X224225000Y-133000000D03*
D14*
X237730000Y-130500000D03*
X236770000Y-130500000D03*
X236770000Y-133000000D03*
X237730000Y-133000000D03*
D15*
X241500000Y-98500000D03*
X241500000Y-147500000D03*
X183500000Y-98500000D03*
D16*
X224025000Y-120950000D03*
X225675000Y-120950000D03*
X224025000Y-119450000D03*
X225675000Y-119450000D03*
D17*
X230000000Y-119675000D03*
X230000000Y-121325000D03*
D18*
X225325000Y-126900000D03*
X223675000Y-126900000D03*
D19*
X240000000Y-120575000D03*
X240000000Y-119025000D03*
D20*
X210000000Y-107950000D03*
X210000000Y-106050000D03*
X208000000Y-107000000D03*
D21*
X222350000Y-123225000D03*
X222350000Y-124775000D03*
D13*
X188575000Y-130750000D03*
X187025000Y-130750000D03*
D22*
X188475000Y-132700000D03*
X185525000Y-132700000D03*
D23*
X224775000Y-140855000D03*
D11*
X224775000Y-139585000D03*
X224775000Y-138315000D03*
X224775000Y-137045000D03*
X219825000Y-137045000D03*
X219825000Y-138315000D03*
X219825000Y-139585000D03*
X219825000Y-140855000D03*
D18*
X218125000Y-124200000D03*
X216475000Y-124200000D03*
D24*
X214770000Y-123900000D03*
X214770000Y-122900000D03*
X213630000Y-123400000D03*
D25*
X209550000Y-129525000D03*
X209550000Y-127875000D03*
D18*
X197575000Y-105900000D03*
X195925000Y-105900000D03*
D21*
X235750000Y-135975000D03*
X235750000Y-137525000D03*
D15*
X183500000Y-147500000D03*
D26*
X261225000Y-97750000D03*
X262775000Y-97750000D03*
D27*
X209600000Y-126400000D03*
X211500000Y-126400000D03*
X210550000Y-124400000D03*
D26*
X208025000Y-111000000D03*
X209575000Y-111000000D03*
D19*
X202700000Y-139475000D03*
X202700000Y-137925000D03*
D26*
X223725000Y-128400000D03*
X225275000Y-128400000D03*
D19*
X231300000Y-121275000D03*
X231300000Y-119725000D03*
D28*
X214262500Y-139950000D03*
X215837500Y-139950000D03*
X214262500Y-138450000D03*
X215837500Y-138450000D03*
D18*
X218125000Y-115700000D03*
X216475000Y-115700000D03*
X218125000Y-117550000D03*
X216475000Y-117550000D03*
X218125000Y-126200000D03*
X216475000Y-126200000D03*
D25*
X189800000Y-142725000D03*
X189800000Y-141075000D03*
D17*
X233000000Y-116375000D03*
X233000000Y-118025000D03*
X235400000Y-116375000D03*
X235400000Y-118025000D03*
D25*
X227200000Y-115025000D03*
X227200000Y-113375000D03*
D16*
X216475000Y-120700000D03*
X218125000Y-120700000D03*
D18*
X218125000Y-119050000D03*
X216475000Y-119050000D03*
D25*
X206700000Y-143025000D03*
X206700000Y-141375000D03*
D17*
X191400000Y-131075000D03*
X191400000Y-132725000D03*
X196500000Y-130675000D03*
X196500000Y-132325000D03*
X199500000Y-130675000D03*
X199500000Y-132325000D03*
X201000000Y-130675000D03*
X201000000Y-132325000D03*
X202500000Y-130675000D03*
X202500000Y-132325000D03*
D16*
X207975000Y-112500000D03*
X209625000Y-112500000D03*
D25*
X192850000Y-108975000D03*
X192850000Y-107325000D03*
D18*
X216725000Y-113700000D03*
X215075000Y-113700000D03*
D25*
X196000000Y-108925000D03*
X196000000Y-107275000D03*
X199700000Y-108975000D03*
X199700000Y-107325000D03*
X201700000Y-108975000D03*
X201700000Y-107325000D03*
X191200000Y-108975000D03*
X191200000Y-107325000D03*
X189450000Y-108975000D03*
X189450000Y-107325000D03*
X203450000Y-108975000D03*
X203450000Y-107325000D03*
X206500000Y-109025000D03*
X206500000Y-107375000D03*
D29*
X243095000Y-124975000D03*
D30*
X244365000Y-124975000D03*
X245635000Y-124975000D03*
X246905000Y-124975000D03*
X246905000Y-120025000D03*
X245635000Y-120025000D03*
X244365000Y-120025000D03*
X243095000Y-120025000D03*
D26*
X259025000Y-123500000D03*
X260575000Y-123500000D03*
D13*
X261675000Y-114300000D03*
X260125000Y-114300000D03*
D31*
X261700000Y-112980000D03*
X261700000Y-112020000D03*
D13*
X243475000Y-115250000D03*
X241925000Y-115250000D03*
D32*
X205450000Y-145450000D03*
X202150000Y-145450000D03*
X213950000Y-145700000D03*
X210650000Y-145700000D03*
D33*
X255600000Y-115950000D03*
X255600000Y-119250000D03*
D24*
X214620000Y-117050000D03*
X214620000Y-116050000D03*
X213480000Y-116550000D03*
X214620000Y-127700000D03*
X214620000Y-126700000D03*
X213480000Y-127200000D03*
D34*
X213480000Y-119550000D03*
X213480000Y-120550000D03*
X214620000Y-120050000D03*
D16*
X211225000Y-139950000D03*
X212875000Y-139950000D03*
X211225000Y-138450000D03*
X212875000Y-138450000D03*
X247775000Y-99100000D03*
X249425000Y-99100000D03*
D29*
X259195000Y-121375000D03*
D30*
X260465000Y-121375000D03*
X261735000Y-121375000D03*
X263005000Y-121375000D03*
X263005000Y-116425000D03*
X261735000Y-116425000D03*
X260465000Y-116425000D03*
X259195000Y-116425000D03*
D35*
X261100000Y-118900000D03*
D22*
X257275000Y-125500000D03*
X254325000Y-125500000D03*
D19*
X257600000Y-117475000D03*
X257600000Y-115925000D03*
D16*
X227775000Y-142000000D03*
X229425000Y-142000000D03*
D22*
X235075000Y-144800000D03*
X232125000Y-144800000D03*
D16*
X242575000Y-140500000D03*
X244225000Y-140500000D03*
D21*
X251550000Y-96675000D03*
X251550000Y-98225000D03*
D25*
X188300000Y-142725000D03*
X188300000Y-141075000D03*
D16*
X207975000Y-109500000D03*
X209625000Y-109500000D03*
D18*
X206625000Y-105850000D03*
X204975000Y-105850000D03*
D16*
X211375000Y-106000000D03*
X213025000Y-106000000D03*
D17*
X208000000Y-141375000D03*
X208000000Y-143025000D03*
D16*
X209725000Y-122100000D03*
X211375000Y-122100000D03*
D20*
X216800000Y-108350000D03*
X216800000Y-106450000D03*
X214800000Y-107400000D03*
D13*
X212975000Y-107600000D03*
X211425000Y-107600000D03*
D36*
X255900000Y-134650000D03*
D37*
X258900000Y-134650000D03*
X258900000Y-128150000D03*
X255900000Y-128150000D03*
D38*
X257500000Y-111600000D03*
D39*
X253500000Y-111600000D03*
D40*
X261657500Y-111000000D03*
X260842500Y-111000000D03*
D19*
X217800000Y-140975000D03*
X217800000Y-139425000D03*
D18*
X196625000Y-133700000D03*
X194975000Y-133700000D03*
D25*
X229500000Y-125325000D03*
X229500000Y-123675000D03*
X231000000Y-125325000D03*
X231000000Y-123675000D03*
D41*
X190850000Y-102400000D03*
X188950000Y-102400000D03*
X189900000Y-104400000D03*
X201850000Y-102400000D03*
X199950000Y-102400000D03*
X200900000Y-104400000D03*
X221450000Y-102400000D03*
X219550000Y-102400000D03*
X220500000Y-104400000D03*
X229350000Y-102400000D03*
X227450000Y-102400000D03*
X228400000Y-104400000D03*
X205950000Y-102400000D03*
X204050000Y-102400000D03*
X205000000Y-104400000D03*
X217550000Y-102400000D03*
X215650000Y-102400000D03*
X216600000Y-104400000D03*
X225350000Y-102400000D03*
X223450000Y-102400000D03*
X224400000Y-104400000D03*
X233350000Y-102400000D03*
X231450000Y-102400000D03*
X232400000Y-104400000D03*
D18*
X218125000Y-122450000D03*
X216475000Y-122450000D03*
D17*
X211550000Y-127875000D03*
X211550000Y-129525000D03*
D41*
X213750000Y-102400000D03*
X211850000Y-102400000D03*
X212800000Y-104400000D03*
D16*
X211375000Y-110600000D03*
X213025000Y-110600000D03*
D18*
X213025000Y-113600000D03*
X211375000Y-113600000D03*
D20*
X216750000Y-112100000D03*
X216750000Y-110200000D03*
X214750000Y-111150000D03*
D13*
X212975000Y-112100000D03*
X211425000Y-112100000D03*
D16*
X207975000Y-114000000D03*
X209625000Y-114000000D03*
D25*
X237250000Y-137575000D03*
X237250000Y-135925000D03*
X190050000Y-135975000D03*
X190050000Y-134325000D03*
D42*
X187390000Y-128650000D03*
X188660000Y-128650000D03*
X189930000Y-128650000D03*
X191200000Y-128650000D03*
X192470000Y-128650000D03*
X193740000Y-128650000D03*
X195010000Y-128650000D03*
X196280000Y-128650000D03*
X197550000Y-128650000D03*
X198820000Y-128650000D03*
X200090000Y-128650000D03*
X201360000Y-128650000D03*
X202630000Y-128650000D03*
X203900000Y-128650000D03*
D43*
X205400000Y-126885000D03*
X205400000Y-125615000D03*
X205400000Y-124345000D03*
X205400000Y-123075000D03*
X205400000Y-121805000D03*
X205400000Y-120535000D03*
X205400000Y-119265000D03*
X205400000Y-117995000D03*
X205400000Y-116725000D03*
X205400000Y-115455000D03*
X205400000Y-114185000D03*
X205400000Y-112915000D03*
D42*
X203900000Y-111150000D03*
X202630000Y-111150000D03*
X201360000Y-111150000D03*
X200090000Y-111150000D03*
X198820000Y-111150000D03*
X197550000Y-111150000D03*
X196280000Y-111150000D03*
X195010000Y-111150000D03*
X193740000Y-111150000D03*
X192470000Y-111150000D03*
X191200000Y-111150000D03*
X189930000Y-111150000D03*
X188660000Y-111150000D03*
X187390000Y-111150000D03*
D44*
X193710000Y-122800000D03*
D45*
X194410000Y-122800000D03*
D44*
X195110000Y-122800000D03*
D45*
X195810000Y-122800000D03*
D44*
X196510000Y-122800000D03*
D45*
X193710000Y-122100000D03*
X195110000Y-122100000D03*
X196510000Y-122100000D03*
D44*
X193710000Y-121400000D03*
D45*
X194410000Y-121400000D03*
D44*
X195110000Y-121400000D03*
D45*
X195810000Y-121400000D03*
D44*
X196510000Y-121400000D03*
D45*
X193710000Y-120700000D03*
X195110000Y-120700000D03*
X196510000Y-120700000D03*
D44*
X193710000Y-120000000D03*
D45*
X194410000Y-120000000D03*
D44*
X195110000Y-120000000D03*
D45*
X195810000Y-120000000D03*
D44*
X196510000Y-120000000D03*
D18*
X211375000Y-118950000D03*
X209725000Y-118950000D03*
X258425000Y-103000000D03*
X256775000Y-103000000D03*
D26*
X244425000Y-127000000D03*
X245975000Y-127000000D03*
D18*
X213025000Y-109100000D03*
X211375000Y-109100000D03*
D17*
X195000000Y-130675000D03*
X195000000Y-132325000D03*
D19*
X258300000Y-107675000D03*
X258300000Y-106125000D03*
D25*
X209300000Y-143025000D03*
X209300000Y-141375000D03*
X228700000Y-121325000D03*
X228700000Y-119675000D03*
D16*
X188975000Y-105900000D03*
X190625000Y-105900000D03*
D13*
X211325000Y-120600000D03*
X209775000Y-120600000D03*
D17*
X198000000Y-130675000D03*
X198000000Y-132325000D03*
D18*
X214625000Y-129950000D03*
X212975000Y-129950000D03*
D17*
X193500000Y-130675000D03*
X193500000Y-132325000D03*
D27*
X221950000Y-145500000D03*
X223850000Y-145500000D03*
X222900000Y-143500000D03*
D20*
X210550000Y-117400000D03*
X210550000Y-115500000D03*
X208550000Y-116450000D03*
D41*
X259150000Y-139200000D03*
X257250000Y-139200000D03*
X258200000Y-141200000D03*
D46*
X258450000Y-137300000D03*
X261750000Y-137300000D03*
D47*
X260550000Y-144200000D03*
X256250000Y-144200000D03*
D48*
X259125000Y-125500000D03*
X262075000Y-125500000D03*
D17*
X255600000Y-139475000D03*
X255600000Y-141125000D03*
D49*
X224337500Y-123050000D03*
X224337500Y-123550000D03*
X224337500Y-124050000D03*
X224337500Y-124550000D03*
D50*
X225050000Y-125262500D03*
X225550000Y-125262500D03*
X226050000Y-125262500D03*
X226550000Y-125262500D03*
D49*
X227262500Y-124550000D03*
X227262500Y-124050000D03*
X227262500Y-123550000D03*
X227262500Y-123050000D03*
D50*
X226550000Y-122337500D03*
X226050000Y-122337500D03*
X225550000Y-122337500D03*
X225050000Y-122337500D03*
D45*
X225300000Y-123300000D03*
X225300000Y-124300000D03*
X225800000Y-123800000D03*
D51*
X225800000Y-123800000D03*
D45*
X226300000Y-123300000D03*
X226300000Y-124300000D03*
D52*
X247700000Y-100650000D03*
X247700000Y-102550000D03*
X249700000Y-101600000D03*
D48*
X245025000Y-115250000D03*
X247975000Y-115250000D03*
D13*
X225625000Y-117950000D03*
X224075000Y-117950000D03*
D18*
X225325000Y-129900000D03*
X223675000Y-129900000D03*
D41*
X194550000Y-102400000D03*
X192650000Y-102400000D03*
X193600000Y-104400000D03*
X198250000Y-102400000D03*
X196350000Y-102400000D03*
X197300000Y-104400000D03*
D53*
X188372600Y-99772300D03*
D54*
X188372600Y-97232300D03*
X190912600Y-99772300D03*
X190912600Y-97232300D03*
X193452600Y-99772300D03*
X193452600Y-97232300D03*
X195992600Y-99772300D03*
X195992600Y-97232300D03*
X198532600Y-99772300D03*
X198532600Y-97232300D03*
X201072600Y-99772300D03*
X201072600Y-97232300D03*
X203612600Y-99772300D03*
X203612600Y-97232300D03*
X206152600Y-99772300D03*
X206152600Y-97232300D03*
X208692600Y-99772300D03*
X208692600Y-97232300D03*
X211232600Y-99772300D03*
X211232600Y-97232300D03*
X213772600Y-99772300D03*
X213772600Y-97232300D03*
X216312600Y-99772300D03*
X216312600Y-97232300D03*
X218852600Y-99772300D03*
X218852600Y-97232300D03*
X221392600Y-99772300D03*
X221392600Y-97232300D03*
X223932600Y-99772300D03*
X223932600Y-97232300D03*
X226472600Y-99772300D03*
X226472600Y-97232300D03*
X229012600Y-99772300D03*
X229012600Y-97232300D03*
X231552600Y-99772300D03*
X231552600Y-97232300D03*
X234092600Y-99772300D03*
X234092600Y-97232300D03*
X236632600Y-99772300D03*
X236632600Y-97232300D03*
D41*
X209750000Y-102400000D03*
X207850000Y-102400000D03*
X208800000Y-104400000D03*
D25*
X199000000Y-142525000D03*
X199000000Y-140875000D03*
D17*
X234000000Y-125325000D03*
X234000000Y-123675000D03*
D21*
X232500000Y-123725000D03*
X232500000Y-125275000D03*
D25*
X263000000Y-109425000D03*
X263000000Y-107775000D03*
D10*
X245800000Y-104150000D03*
X245800000Y-100850000D03*
D22*
X243675000Y-104000000D03*
X240725000Y-104000000D03*
D16*
X259775000Y-109200000D03*
X261425000Y-109200000D03*
D55*
X191110000Y-145820000D03*
X196890000Y-145820000D03*
D56*
X190800000Y-144745000D03*
X191600000Y-144745000D03*
D57*
X192750000Y-144745000D03*
X193750000Y-144745000D03*
X194250000Y-144745000D03*
X195250000Y-144745000D03*
D56*
X197200000Y-144745000D03*
X196400000Y-144745000D03*
D57*
X195750000Y-144745000D03*
X194750000Y-144745000D03*
X193250000Y-144745000D03*
X192250000Y-144745000D03*
D58*
X189680000Y-149500000D03*
X198320000Y-149500000D03*
D59*
X189680000Y-145320000D03*
X198320000Y-145320000D03*
D25*
X188000000Y-149625000D03*
X188000000Y-147975000D03*
X199800000Y-149525000D03*
X199800000Y-147875000D03*
D60*
X228100000Y-136025000D03*
X228100000Y-138975000D03*
D21*
X203900000Y-140325000D03*
X203900000Y-141875000D03*
X193050000Y-134375000D03*
X193050000Y-135925000D03*
D25*
X191550000Y-135975000D03*
X191550000Y-134325000D03*
D17*
X219300000Y-142375000D03*
X219300000Y-144025000D03*
X217800000Y-142375000D03*
X217800000Y-144025000D03*
D16*
X211225000Y-136950000D03*
X212875000Y-136950000D03*
D49*
X205512500Y-136200000D03*
X205512500Y-136700000D03*
X205512500Y-137200000D03*
X205512500Y-137700000D03*
X205512500Y-138200000D03*
X205512500Y-138700000D03*
D50*
X206200000Y-139387500D03*
X206700000Y-139387500D03*
X207200000Y-139387500D03*
X207700000Y-139387500D03*
X208200000Y-139387500D03*
X208700000Y-139387500D03*
D49*
X209387500Y-138700000D03*
X209387500Y-138200000D03*
X209387500Y-137700000D03*
X209387500Y-137200000D03*
X209387500Y-136700000D03*
X209387500Y-136200000D03*
D50*
X208700000Y-135512500D03*
X208200000Y-135512500D03*
X207700000Y-135512500D03*
X207200000Y-135512500D03*
X206700000Y-135512500D03*
X206200000Y-135512500D03*
D61*
X207450000Y-137450000D03*
D62*
X254250000Y-97350000D03*
X254250000Y-96550000D03*
X252850000Y-96550000D03*
X252850000Y-97350000D03*
D63*
X219975000Y-106755000D03*
X219975000Y-108025000D03*
X219975000Y-109295000D03*
X219975000Y-110565000D03*
X219975000Y-111835000D03*
X219975000Y-113105000D03*
X219975000Y-114375000D03*
X219975000Y-115645000D03*
X225125000Y-115645000D03*
X225125000Y-114375000D03*
X225125000Y-113105000D03*
X225125000Y-111835000D03*
X225125000Y-110565000D03*
X225125000Y-109295000D03*
X225125000Y-108025000D03*
X225125000Y-106755000D03*
D19*
X201100000Y-139475000D03*
X201100000Y-137925000D03*
D21*
X205200000Y-140325000D03*
X205200000Y-141875000D03*
D41*
X211500000Y-131450000D03*
X209600000Y-131450000D03*
X210550000Y-133450000D03*
D17*
X204000000Y-130675000D03*
X204000000Y-132325000D03*
D25*
X234750000Y-128825000D03*
X234750000Y-127175000D03*
D22*
X246875000Y-117500000D03*
X243925000Y-117500000D03*
D17*
X232200000Y-139375000D03*
X232200000Y-141025000D03*
X233800000Y-139375000D03*
X233800000Y-141025000D03*
D64*
X201100000Y-134912500D03*
X201100000Y-136487500D03*
D17*
X202700000Y-134875000D03*
X202700000Y-136525000D03*
D65*
X231750000Y-136750000D03*
D66*
X233200000Y-135750000D03*
X233200000Y-136250000D03*
X233200000Y-136750000D03*
X233200000Y-137250000D03*
X233200000Y-137750000D03*
X230300000Y-137750000D03*
X230300000Y-137250000D03*
X230300000Y-136750000D03*
X230300000Y-136250000D03*
X230300000Y-135750000D03*
D32*
X235150000Y-143000000D03*
X231850000Y-143000000D03*
D67*
X239450000Y-138625000D03*
X239450000Y-135675000D03*
D68*
X243650000Y-134500000D03*
X247650000Y-134500000D03*
D18*
X244125000Y-142000000D03*
X242475000Y-142000000D03*
D25*
X238600000Y-125625000D03*
X238600000Y-123975000D03*
D19*
X241400000Y-120575000D03*
X241400000Y-119025000D03*
D25*
X205000000Y-108975000D03*
X205000000Y-107325000D03*
D52*
X235700000Y-139050000D03*
X235700000Y-140950000D03*
X237700000Y-140000000D03*
D25*
X194450000Y-108975000D03*
X194450000Y-107325000D03*
X197700000Y-108975000D03*
X197700000Y-107325000D03*
D69*
X241800000Y-108120000D03*
D70*
X248100000Y-110400000D03*
D69*
X241800000Y-112680000D03*
D13*
X242775000Y-106000000D03*
X241225000Y-106000000D03*
D67*
X256100000Y-107575000D03*
X256100000Y-104625000D03*
D26*
X262225000Y-123500000D03*
X263775000Y-123500000D03*
D71*
X238000000Y-107000000D03*
D72*
X235460000Y-107000000D03*
X232920000Y-107000000D03*
X230380000Y-107000000D03*
X230380000Y-114620000D03*
X232920000Y-114620000D03*
X235460000Y-114620000D03*
X238000000Y-114620000D03*
D73*
X260400000Y-104450000D03*
X263600000Y-104450000D03*
X263600000Y-99550000D03*
X260400000Y-99550000D03*
D25*
X240000000Y-123625000D03*
X240000000Y-121975000D03*
D74*
X237800000Y-119712500D03*
X237400000Y-119712500D03*
X237000000Y-119712500D03*
X236600000Y-119712500D03*
X236200000Y-119712500D03*
D75*
X235512500Y-120400000D03*
X235512500Y-120800000D03*
X235512500Y-121200000D03*
X235512500Y-121600000D03*
X235512500Y-122000000D03*
D74*
X236200000Y-122687500D03*
X236600000Y-122687500D03*
X237000000Y-122687500D03*
X237400000Y-122687500D03*
X237800000Y-122687500D03*
D75*
X238487500Y-122000000D03*
X238487500Y-121600000D03*
X238487500Y-121200000D03*
X238487500Y-120800000D03*
X238487500Y-120400000D03*
D76*
X237000000Y-121200000D03*
D22*
X243675000Y-131600000D03*
X240725000Y-131600000D03*
D26*
X242625000Y-143500000D03*
X244175000Y-143500000D03*
D67*
X253700000Y-107575000D03*
X253700000Y-104625000D03*
D32*
X243250000Y-129250000D03*
X246550000Y-129250000D03*
D18*
X217825000Y-132000000D03*
X216175000Y-132000000D03*
X217825000Y-136750000D03*
X216175000Y-136750000D03*
X217825000Y-135250000D03*
X216175000Y-135250000D03*
X240725000Y-143300000D03*
X239075000Y-143300000D03*
X237225000Y-134500000D03*
X235575000Y-134500000D03*
D77*
X248000000Y-142000000D03*
D78*
X248000000Y-137400000D03*
D79*
X241260000Y-137050000D03*
D80*
X241260000Y-138000000D03*
X241260000Y-138950000D03*
X243940000Y-138950000D03*
X243940000Y-138000000D03*
X243940000Y-137050000D03*
D45*
X242200000Y-137300000D03*
D81*
X242200000Y-137475000D03*
X242200000Y-138525000D03*
D45*
X242200000Y-138700000D03*
X243000000Y-137300000D03*
D81*
X243000000Y-137475000D03*
X243000000Y-138525000D03*
D45*
X243000000Y-138700000D03*
D16*
X216175000Y-133500000D03*
X217825000Y-133500000D03*
X219775000Y-135200000D03*
X221425000Y-135200000D03*
D17*
X188000000Y-144575000D03*
X188000000Y-146225000D03*
X199900000Y-144575000D03*
X199900000Y-146225000D03*
D82*
X194225000Y-142400000D03*
X195175000Y-142400000D03*
D25*
X200500000Y-142525000D03*
X200500000Y-140875000D03*
D33*
X197100000Y-139050000D03*
X197100000Y-142350000D03*
D17*
X238000000Y-116275000D03*
X238000000Y-117925000D03*
D18*
X229425000Y-143300000D03*
X227775000Y-143300000D03*
X223725000Y-142200000D03*
X222075000Y-142200000D03*
D83*
X192875000Y-142400000D03*
X191925000Y-142400000D03*
D84*
X240400000Y-128400000D03*
D85*
X219910000Y-128400000D03*
D86*
X234750000Y-148500000D03*
D87*
X232250000Y-148500000D03*
D88*
X261460000Y-148500000D03*
D89*
X256380000Y-148500000D03*
X251300000Y-148500000D03*
D88*
X214760000Y-148700000D03*
D89*
X209680000Y-148700000D03*
X204600000Y-148700000D03*
D88*
X225760000Y-148700000D03*
D89*
X220680000Y-148700000D03*
M02*
