G04 #@! TF.GenerationSoftware,KiCad,Pcbnew,7.0.1*
G04 #@! TF.CreationDate,2023-05-18T20:02:15+01:00*
G04 #@! TF.ProjectId,AnthC,416e7468-432e-46b6-9963-61645f706362,rev?*
G04 #@! TF.SameCoordinates,Original*
G04 #@! TF.FileFunction,Other,User*
%FSLAX46Y46*%
G04 Gerber Fmt 4.6, Leading zero omitted, Abs format (unit mm)*
G04 Created by KiCad (PCBNEW 7.0.1) date 2023-05-18 20:02:15*
%MOMM*%
%LPD*%
G01*
G04 APERTURE LIST*
%ADD10C,0.050000*%
%ADD11C,0.120000*%
G04 APERTURE END LIST*
D10*
X235350000Y-129750000D02*
X235350000Y-125050000D01*
X235350000Y-125050000D02*
X237650000Y-125050000D01*
X237650000Y-125050000D02*
X237650000Y-129750000D01*
X235350000Y-129750000D02*
X237650000Y-129750000D01*
X233925000Y-133450000D02*
X233925000Y-128050000D01*
X233925000Y-128050000D02*
X226525000Y-128050000D01*
X226525000Y-128050000D02*
X226525000Y-133450000D01*
X226525000Y-133450000D02*
X233925000Y-133450000D01*
D11*
X236266000Y-129850000D02*
X234250000Y-129850000D01*
X236266000Y-129850000D02*
X236266000Y-133650000D01*
X234250000Y-129850000D02*
X234250000Y-133650000D01*
X236266000Y-133650000D02*
X234250000Y-133650000D01*
D10*
X226480000Y-133730000D02*
X223520000Y-133730000D01*
X226480000Y-132270000D02*
X226480000Y-133730000D01*
X223520000Y-133730000D02*
X223520000Y-132270000D01*
X223520000Y-132270000D02*
X226480000Y-132270000D01*
X236340000Y-130040000D02*
X238160000Y-130040000D01*
X238160000Y-130960000D02*
X236340000Y-130960000D01*
X238160000Y-130040000D02*
X238160000Y-130960000D01*
X236340000Y-130960000D02*
X236340000Y-130040000D01*
X236340000Y-133460000D02*
X236340000Y-132540000D01*
X238160000Y-132540000D02*
X238160000Y-133460000D01*
X238160000Y-133460000D02*
X236340000Y-133460000D01*
X236340000Y-132540000D02*
X238160000Y-132540000D01*
X244950000Y-98500000D02*
G75*
G03*
X244950000Y-98500000I-3450000J0D01*
G01*
X244950000Y-147500000D02*
G75*
G03*
X244950000Y-147500000I-3450000J0D01*
G01*
X186950000Y-98500000D02*
G75*
G03*
X186950000Y-98500000I-3450000J0D01*
G01*
X223370000Y-120220000D02*
X226330000Y-120220000D01*
X223370000Y-121680000D02*
X223370000Y-120220000D01*
X226330000Y-120220000D02*
X226330000Y-121680000D01*
X226330000Y-121680000D02*
X223370000Y-121680000D01*
X223370000Y-118720000D02*
X226330000Y-118720000D01*
X223370000Y-120180000D02*
X223370000Y-118720000D01*
X226330000Y-118720000D02*
X226330000Y-120180000D01*
X226330000Y-120180000D02*
X223370000Y-120180000D01*
X230730000Y-119020000D02*
X230730000Y-121980000D01*
X229270000Y-119020000D02*
X230730000Y-119020000D01*
X230730000Y-121980000D02*
X229270000Y-121980000D01*
X229270000Y-121980000D02*
X229270000Y-119020000D01*
X225980000Y-127630000D02*
X223020000Y-127630000D01*
X225980000Y-126170000D02*
X225980000Y-127630000D01*
X223020000Y-127630000D02*
X223020000Y-126170000D01*
X223020000Y-126170000D02*
X225980000Y-126170000D01*
X239270000Y-121280000D02*
X239270000Y-118320000D01*
X240730000Y-121280000D02*
X239270000Y-121280000D01*
X239270000Y-118320000D02*
X240730000Y-118320000D01*
X240730000Y-118320000D02*
X240730000Y-121280000D01*
X210700000Y-108750000D02*
X207300000Y-108750000D01*
X210700000Y-105250000D02*
X210700000Y-108750000D01*
X207300000Y-108750000D02*
X207300000Y-105250000D01*
X207300000Y-105250000D02*
X210700000Y-105250000D01*
X223080000Y-122520000D02*
X223080000Y-125480000D01*
X221620000Y-122520000D02*
X223080000Y-122520000D01*
X223080000Y-125480000D02*
X221620000Y-125480000D01*
X221620000Y-125480000D02*
X221620000Y-122520000D01*
X189280000Y-131480000D02*
X186320000Y-131480000D01*
X189280000Y-130020000D02*
X189280000Y-131480000D01*
X186320000Y-131480000D02*
X186320000Y-130020000D01*
X186320000Y-130020000D02*
X189280000Y-130020000D01*
X189300000Y-133850000D02*
X184700000Y-133850000D01*
X189300000Y-131550000D02*
X189300000Y-133850000D01*
X184700000Y-133850000D02*
X184700000Y-131550000D01*
X184700000Y-131550000D02*
X189300000Y-131550000D01*
X226000000Y-141650000D02*
X226000000Y-136250000D01*
X226000000Y-136250000D02*
X218600000Y-136250000D01*
X218600000Y-141650000D02*
X226000000Y-141650000D01*
X218600000Y-136250000D02*
X218600000Y-141650000D01*
X218780000Y-124930000D02*
X215820000Y-124930000D01*
X218780000Y-123470000D02*
X218780000Y-124930000D01*
X215820000Y-124930000D02*
X215820000Y-123470000D01*
X215820000Y-123470000D02*
X218780000Y-123470000D01*
X215350000Y-124450000D02*
X215350000Y-122350000D01*
X215350000Y-124450000D02*
X213050000Y-124450000D01*
X213050000Y-122350000D02*
X215350000Y-122350000D01*
X213050000Y-122350000D02*
X213050000Y-124450000D01*
X208820000Y-130180000D02*
X208820000Y-127220000D01*
X210280000Y-130180000D02*
X208820000Y-130180000D01*
X208820000Y-127220000D02*
X210280000Y-127220000D01*
X210280000Y-127220000D02*
X210280000Y-130180000D01*
X198230000Y-106630000D02*
X195270000Y-106630000D01*
X198230000Y-105170000D02*
X198230000Y-106630000D01*
X195270000Y-106630000D02*
X195270000Y-105170000D01*
X195270000Y-105170000D02*
X198230000Y-105170000D01*
X236480000Y-135270000D02*
X236480000Y-138230000D01*
X235020000Y-135270000D02*
X236480000Y-135270000D01*
X236480000Y-138230000D02*
X235020000Y-138230000D01*
X235020000Y-138230000D02*
X235020000Y-135270000D01*
X186950000Y-147500000D02*
G75*
G03*
X186950000Y-147500000I-3450000J0D01*
G01*
X260520000Y-97020000D02*
X263480000Y-97020000D01*
X260520000Y-98480000D02*
X260520000Y-97020000D01*
X263480000Y-97020000D02*
X263480000Y-98480000D01*
X263480000Y-98480000D02*
X260520000Y-98480000D01*
X208800000Y-127100000D02*
X208800000Y-123700000D01*
X212300000Y-127100000D02*
X208800000Y-127100000D01*
X208800000Y-123700000D02*
X212300000Y-123700000D01*
X212300000Y-123700000D02*
X212300000Y-127100000D01*
X207320000Y-110270000D02*
X210280000Y-110270000D01*
X207320000Y-111730000D02*
X207320000Y-110270000D01*
X210280000Y-110270000D02*
X210280000Y-111730000D01*
X210280000Y-111730000D02*
X207320000Y-111730000D01*
X201970000Y-140180000D02*
X201970000Y-137220000D01*
X203430000Y-140180000D02*
X201970000Y-140180000D01*
X201970000Y-137220000D02*
X203430000Y-137220000D01*
X203430000Y-137220000D02*
X203430000Y-140180000D01*
X223020000Y-127670000D02*
X225980000Y-127670000D01*
X223020000Y-129130000D02*
X223020000Y-127670000D01*
X225980000Y-127670000D02*
X225980000Y-129130000D01*
X225980000Y-129130000D02*
X223020000Y-129130000D01*
X230570000Y-121980000D02*
X230570000Y-119020000D01*
X232030000Y-121980000D02*
X230570000Y-121980000D01*
X230570000Y-119020000D02*
X232030000Y-119020000D01*
X232030000Y-119020000D02*
X232030000Y-121980000D01*
X213570000Y-139220000D02*
X216530000Y-139220000D01*
X213570000Y-140680000D02*
X213570000Y-139220000D01*
X216530000Y-139220000D02*
X216530000Y-140680000D01*
X216530000Y-140680000D02*
X213570000Y-140680000D01*
X213570000Y-137720000D02*
X216530000Y-137720000D01*
X213570000Y-139180000D02*
X213570000Y-137720000D01*
X216530000Y-137720000D02*
X216530000Y-139180000D01*
X216530000Y-139180000D02*
X213570000Y-139180000D01*
X218780000Y-116430000D02*
X215820000Y-116430000D01*
X218780000Y-114970000D02*
X218780000Y-116430000D01*
X215820000Y-116430000D02*
X215820000Y-114970000D01*
X215820000Y-114970000D02*
X218780000Y-114970000D01*
X218780000Y-118280000D02*
X215820000Y-118280000D01*
X218780000Y-116820000D02*
X218780000Y-118280000D01*
X215820000Y-118280000D02*
X215820000Y-116820000D01*
X215820000Y-116820000D02*
X218780000Y-116820000D01*
X218780000Y-126930000D02*
X215820000Y-126930000D01*
X218780000Y-125470000D02*
X218780000Y-126930000D01*
X215820000Y-126930000D02*
X215820000Y-125470000D01*
X215820000Y-125470000D02*
X218780000Y-125470000D01*
X189070000Y-143380000D02*
X189070000Y-140420000D01*
X190530000Y-143380000D02*
X189070000Y-143380000D01*
X189070000Y-140420000D02*
X190530000Y-140420000D01*
X190530000Y-140420000D02*
X190530000Y-143380000D01*
X233730000Y-115720000D02*
X233730000Y-118680000D01*
X232270000Y-115720000D02*
X233730000Y-115720000D01*
X233730000Y-118680000D02*
X232270000Y-118680000D01*
X232270000Y-118680000D02*
X232270000Y-115720000D01*
X236130000Y-115720000D02*
X236130000Y-118680000D01*
X234670000Y-115720000D02*
X236130000Y-115720000D01*
X236130000Y-118680000D02*
X234670000Y-118680000D01*
X234670000Y-118680000D02*
X234670000Y-115720000D01*
X226470000Y-115680000D02*
X226470000Y-112720000D01*
X227930000Y-115680000D02*
X226470000Y-115680000D01*
X226470000Y-112720000D02*
X227930000Y-112720000D01*
X227930000Y-112720000D02*
X227930000Y-115680000D01*
X215820000Y-119970000D02*
X218780000Y-119970000D01*
X215820000Y-121430000D02*
X215820000Y-119970000D01*
X218780000Y-119970000D02*
X218780000Y-121430000D01*
X218780000Y-121430000D02*
X215820000Y-121430000D01*
X218780000Y-119780000D02*
X215820000Y-119780000D01*
X218780000Y-118320000D02*
X218780000Y-119780000D01*
X215820000Y-119780000D02*
X215820000Y-118320000D01*
X215820000Y-118320000D02*
X218780000Y-118320000D01*
X205970000Y-143680000D02*
X205970000Y-140720000D01*
X207430000Y-143680000D02*
X205970000Y-143680000D01*
X205970000Y-140720000D02*
X207430000Y-140720000D01*
X207430000Y-140720000D02*
X207430000Y-143680000D01*
X192130000Y-130420000D02*
X192130000Y-133380000D01*
X190670000Y-130420000D02*
X192130000Y-130420000D01*
X192130000Y-133380000D02*
X190670000Y-133380000D01*
X190670000Y-133380000D02*
X190670000Y-130420000D01*
X197230000Y-130020000D02*
X197230000Y-132980000D01*
X195770000Y-130020000D02*
X197230000Y-130020000D01*
X197230000Y-132980000D02*
X195770000Y-132980000D01*
X195770000Y-132980000D02*
X195770000Y-130020000D01*
X200230000Y-130020000D02*
X200230000Y-132980000D01*
X198770000Y-130020000D02*
X200230000Y-130020000D01*
X200230000Y-132980000D02*
X198770000Y-132980000D01*
X198770000Y-132980000D02*
X198770000Y-130020000D01*
X201730000Y-130020000D02*
X201730000Y-132980000D01*
X200270000Y-130020000D02*
X201730000Y-130020000D01*
X201730000Y-132980000D02*
X200270000Y-132980000D01*
X200270000Y-132980000D02*
X200270000Y-130020000D01*
X203230000Y-130020000D02*
X203230000Y-132980000D01*
X201770000Y-130020000D02*
X203230000Y-130020000D01*
X203230000Y-132980000D02*
X201770000Y-132980000D01*
X201770000Y-132980000D02*
X201770000Y-130020000D01*
X207320000Y-111770000D02*
X210280000Y-111770000D01*
X207320000Y-113230000D02*
X207320000Y-111770000D01*
X210280000Y-111770000D02*
X210280000Y-113230000D01*
X210280000Y-113230000D02*
X207320000Y-113230000D01*
X192120000Y-109630000D02*
X192120000Y-106670000D01*
X193580000Y-109630000D02*
X192120000Y-109630000D01*
X192120000Y-106670000D02*
X193580000Y-106670000D01*
X193580000Y-106670000D02*
X193580000Y-109630000D01*
X217380000Y-114430000D02*
X214420000Y-114430000D01*
X217380000Y-112970000D02*
X217380000Y-114430000D01*
X214420000Y-114430000D02*
X214420000Y-112970000D01*
X214420000Y-112970000D02*
X217380000Y-112970000D01*
X195270000Y-109580000D02*
X195270000Y-106620000D01*
X196730000Y-109580000D02*
X195270000Y-109580000D01*
X195270000Y-106620000D02*
X196730000Y-106620000D01*
X196730000Y-106620000D02*
X196730000Y-109580000D01*
X198970000Y-109630000D02*
X198970000Y-106670000D01*
X200430000Y-109630000D02*
X198970000Y-109630000D01*
X198970000Y-106670000D02*
X200430000Y-106670000D01*
X200430000Y-106670000D02*
X200430000Y-109630000D01*
X200970000Y-109630000D02*
X200970000Y-106670000D01*
X202430000Y-109630000D02*
X200970000Y-109630000D01*
X200970000Y-106670000D02*
X202430000Y-106670000D01*
X202430000Y-106670000D02*
X202430000Y-109630000D01*
X190470000Y-109630000D02*
X190470000Y-106670000D01*
X191930000Y-109630000D02*
X190470000Y-109630000D01*
X190470000Y-106670000D02*
X191930000Y-106670000D01*
X191930000Y-106670000D02*
X191930000Y-109630000D01*
X188720000Y-109630000D02*
X188720000Y-106670000D01*
X190180000Y-109630000D02*
X188720000Y-109630000D01*
X188720000Y-106670000D02*
X190180000Y-106670000D01*
X190180000Y-106670000D02*
X190180000Y-109630000D01*
X202720000Y-109630000D02*
X202720000Y-106670000D01*
X204180000Y-109630000D02*
X202720000Y-109630000D01*
X202720000Y-106670000D02*
X204180000Y-106670000D01*
X204180000Y-106670000D02*
X204180000Y-109630000D01*
X205770000Y-109680000D02*
X205770000Y-106720000D01*
X207230000Y-109680000D02*
X205770000Y-109680000D01*
X205770000Y-106720000D02*
X207230000Y-106720000D01*
X207230000Y-106720000D02*
X207230000Y-109680000D01*
X242300000Y-126200000D02*
X247700000Y-126200000D01*
X247700000Y-126200000D02*
X247700000Y-118800000D01*
X242300000Y-118800000D02*
X242300000Y-126200000D01*
X247700000Y-118800000D02*
X242300000Y-118800000D01*
X258320000Y-122770000D02*
X261280000Y-122770000D01*
X258320000Y-124230000D02*
X258320000Y-122770000D01*
X261280000Y-122770000D02*
X261280000Y-124230000D01*
X261280000Y-124230000D02*
X258320000Y-124230000D01*
X262380000Y-115030000D02*
X259420000Y-115030000D01*
X262380000Y-113570000D02*
X262380000Y-115030000D01*
X259420000Y-115030000D02*
X259420000Y-113570000D01*
X259420000Y-113570000D02*
X262380000Y-113570000D01*
X261240000Y-113410000D02*
X261240000Y-111590000D01*
X262160000Y-113410000D02*
X261240000Y-113410000D01*
X261240000Y-111590000D02*
X262160000Y-111590000D01*
X262160000Y-111590000D02*
X262160000Y-113410000D01*
X244180000Y-115980000D02*
X241220000Y-115980000D01*
X244180000Y-114520000D02*
X244180000Y-115980000D01*
X241220000Y-115980000D02*
X241220000Y-114520000D01*
X241220000Y-114520000D02*
X244180000Y-114520000D01*
X206150000Y-146600000D02*
X206150000Y-144300000D01*
X206150000Y-146600000D02*
X201450000Y-146600000D01*
X201450000Y-146600000D02*
X201450000Y-144300000D01*
X201450000Y-144300000D02*
X206150000Y-144300000D01*
X214650000Y-146850000D02*
X214650000Y-144550000D01*
X214650000Y-146850000D02*
X209950000Y-146850000D01*
X209950000Y-146850000D02*
X209950000Y-144550000D01*
X209950000Y-144550000D02*
X214650000Y-144550000D01*
X256750000Y-115250000D02*
X254450000Y-115250000D01*
X256750000Y-115250000D02*
X256750000Y-119950000D01*
X256750000Y-119950000D02*
X254450000Y-119950000D01*
X254450000Y-119950000D02*
X254450000Y-115250000D01*
X215200000Y-117600000D02*
X215200000Y-115500000D01*
X215200000Y-117600000D02*
X212900000Y-117600000D01*
X212900000Y-115500000D02*
X215200000Y-115500000D01*
X212900000Y-115500000D02*
X212900000Y-117600000D01*
X215200000Y-128250000D02*
X215200000Y-126150000D01*
X215200000Y-128250000D02*
X212900000Y-128250000D01*
X212900000Y-126150000D02*
X215200000Y-126150000D01*
X212900000Y-126150000D02*
X212900000Y-128250000D01*
X212900000Y-119000000D02*
X212900000Y-121100000D01*
X212900000Y-119000000D02*
X215200000Y-119000000D01*
X215200000Y-121100000D02*
X212900000Y-121100000D01*
X215200000Y-121100000D02*
X215200000Y-119000000D01*
X210570000Y-139220000D02*
X213530000Y-139220000D01*
X210570000Y-140680000D02*
X210570000Y-139220000D01*
X213530000Y-139220000D02*
X213530000Y-140680000D01*
X213530000Y-140680000D02*
X210570000Y-140680000D01*
X210570000Y-137720000D02*
X213530000Y-137720000D01*
X210570000Y-139180000D02*
X210570000Y-137720000D01*
X213530000Y-137720000D02*
X213530000Y-139180000D01*
X213530000Y-139180000D02*
X210570000Y-139180000D01*
X247120000Y-98370000D02*
X250080000Y-98370000D01*
X247120000Y-99830000D02*
X247120000Y-98370000D01*
X250080000Y-98370000D02*
X250080000Y-99830000D01*
X250080000Y-99830000D02*
X247120000Y-99830000D01*
X258400000Y-122600000D02*
X263800000Y-122600000D01*
X263800000Y-122600000D02*
X263800000Y-115200000D01*
X258400000Y-115200000D02*
X258400000Y-122600000D01*
X263800000Y-115200000D02*
X258400000Y-115200000D01*
X258100000Y-126650000D02*
X253500000Y-126650000D01*
X258100000Y-124350000D02*
X258100000Y-126650000D01*
X253500000Y-126650000D02*
X253500000Y-124350000D01*
X253500000Y-124350000D02*
X258100000Y-124350000D01*
X256870000Y-118180000D02*
X256870000Y-115220000D01*
X258330000Y-118180000D02*
X256870000Y-118180000D01*
X256870000Y-115220000D02*
X258330000Y-115220000D01*
X258330000Y-115220000D02*
X258330000Y-118180000D01*
X227120000Y-141270000D02*
X230080000Y-141270000D01*
X227120000Y-142730000D02*
X227120000Y-141270000D01*
X230080000Y-141270000D02*
X230080000Y-142730000D01*
X230080000Y-142730000D02*
X227120000Y-142730000D01*
X235900000Y-145950000D02*
X231300000Y-145950000D01*
X235900000Y-143650000D02*
X235900000Y-145950000D01*
X231300000Y-145950000D02*
X231300000Y-143650000D01*
X231300000Y-143650000D02*
X235900000Y-143650000D01*
X241920000Y-139770000D02*
X244880000Y-139770000D01*
X241920000Y-141230000D02*
X241920000Y-139770000D01*
X244880000Y-139770000D02*
X244880000Y-141230000D01*
X244880000Y-141230000D02*
X241920000Y-141230000D01*
X252280000Y-95970000D02*
X252280000Y-98930000D01*
X250820000Y-95970000D02*
X252280000Y-95970000D01*
X252280000Y-98930000D02*
X250820000Y-98930000D01*
X250820000Y-98930000D02*
X250820000Y-95970000D01*
X187570000Y-143380000D02*
X187570000Y-140420000D01*
X189030000Y-143380000D02*
X187570000Y-143380000D01*
X187570000Y-140420000D02*
X189030000Y-140420000D01*
X189030000Y-140420000D02*
X189030000Y-143380000D01*
X207320000Y-108770000D02*
X210280000Y-108770000D01*
X207320000Y-110230000D02*
X207320000Y-108770000D01*
X210280000Y-108770000D02*
X210280000Y-110230000D01*
X210280000Y-110230000D02*
X207320000Y-110230000D01*
X207280000Y-106580000D02*
X204320000Y-106580000D01*
X207280000Y-105120000D02*
X207280000Y-106580000D01*
X204320000Y-106580000D02*
X204320000Y-105120000D01*
X204320000Y-105120000D02*
X207280000Y-105120000D01*
X210720000Y-105270000D02*
X213680000Y-105270000D01*
X210720000Y-106730000D02*
X210720000Y-105270000D01*
X213680000Y-105270000D02*
X213680000Y-106730000D01*
X213680000Y-106730000D02*
X210720000Y-106730000D01*
X208730000Y-140720000D02*
X208730000Y-143680000D01*
X207270000Y-140720000D02*
X208730000Y-140720000D01*
X208730000Y-143680000D02*
X207270000Y-143680000D01*
X207270000Y-143680000D02*
X207270000Y-140720000D01*
X209070000Y-121370000D02*
X212030000Y-121370000D01*
X209070000Y-122830000D02*
X209070000Y-121370000D01*
X212030000Y-121370000D02*
X212030000Y-122830000D01*
X212030000Y-122830000D02*
X209070000Y-122830000D01*
X217500000Y-109150000D02*
X214100000Y-109150000D01*
X217500000Y-105650000D02*
X217500000Y-109150000D01*
X214100000Y-109150000D02*
X214100000Y-105650000D01*
X214100000Y-105650000D02*
X217500000Y-105650000D01*
X213680000Y-108330000D02*
X210720000Y-108330000D01*
X213680000Y-106870000D02*
X213680000Y-108330000D01*
X210720000Y-108330000D02*
X210720000Y-106870000D01*
X210720000Y-106870000D02*
X213680000Y-106870000D01*
X253950000Y-136100000D02*
X253950000Y-126680000D01*
X260650000Y-136100000D02*
X253950000Y-136100000D01*
X260650000Y-136100000D02*
X260650000Y-126700000D01*
X260650000Y-126680000D02*
X253950000Y-126680000D01*
X258950000Y-114900000D02*
X258950000Y-108450000D01*
X258950000Y-108450000D02*
X252250000Y-108450000D01*
X252250000Y-114900000D02*
X258950000Y-114900000D01*
X252250000Y-108450000D02*
X252250000Y-114900000D01*
X262130000Y-111350000D02*
X260370000Y-111350000D01*
X262130000Y-110650000D02*
X262130000Y-111350000D01*
X260370000Y-111350000D02*
X260370000Y-110650000D01*
X260370000Y-110650000D02*
X262130000Y-110650000D01*
X217070000Y-141680000D02*
X217070000Y-138720000D01*
X218530000Y-141680000D02*
X217070000Y-141680000D01*
X217070000Y-138720000D02*
X218530000Y-138720000D01*
X218530000Y-138720000D02*
X218530000Y-141680000D01*
X197280000Y-134430000D02*
X194320000Y-134430000D01*
X197280000Y-132970000D02*
X197280000Y-134430000D01*
X194320000Y-134430000D02*
X194320000Y-132970000D01*
X194320000Y-132970000D02*
X197280000Y-132970000D01*
X228770000Y-125980000D02*
X228770000Y-123020000D01*
X230230000Y-125980000D02*
X228770000Y-125980000D01*
X228770000Y-123020000D02*
X230230000Y-123020000D01*
X230230000Y-123020000D02*
X230230000Y-125980000D01*
X230270000Y-125980000D02*
X230270000Y-123020000D01*
X231730000Y-125980000D02*
X230270000Y-125980000D01*
X230270000Y-123020000D02*
X231730000Y-123020000D01*
X231730000Y-123020000D02*
X231730000Y-125980000D01*
X191650000Y-101700000D02*
X191650000Y-105100000D01*
X188150000Y-101700000D02*
X191650000Y-101700000D01*
X191650000Y-105100000D02*
X188150000Y-105100000D01*
X188150000Y-105100000D02*
X188150000Y-101700000D01*
X202650000Y-101700000D02*
X202650000Y-105100000D01*
X199150000Y-101700000D02*
X202650000Y-101700000D01*
X202650000Y-105100000D02*
X199150000Y-105100000D01*
X199150000Y-105100000D02*
X199150000Y-101700000D01*
X222250000Y-101700000D02*
X222250000Y-105100000D01*
X218750000Y-101700000D02*
X222250000Y-101700000D01*
X222250000Y-105100000D02*
X218750000Y-105100000D01*
X218750000Y-105100000D02*
X218750000Y-101700000D01*
X230150000Y-101700000D02*
X230150000Y-105100000D01*
X226650000Y-101700000D02*
X230150000Y-101700000D01*
X230150000Y-105100000D02*
X226650000Y-105100000D01*
X226650000Y-105100000D02*
X226650000Y-101700000D01*
X206750000Y-101700000D02*
X206750000Y-105100000D01*
X203250000Y-101700000D02*
X206750000Y-101700000D01*
X206750000Y-105100000D02*
X203250000Y-105100000D01*
X203250000Y-105100000D02*
X203250000Y-101700000D01*
X218350000Y-101700000D02*
X218350000Y-105100000D01*
X214850000Y-101700000D02*
X218350000Y-101700000D01*
X218350000Y-105100000D02*
X214850000Y-105100000D01*
X214850000Y-105100000D02*
X214850000Y-101700000D01*
X226150000Y-101700000D02*
X226150000Y-105100000D01*
X222650000Y-101700000D02*
X226150000Y-101700000D01*
X226150000Y-105100000D02*
X222650000Y-105100000D01*
X222650000Y-105100000D02*
X222650000Y-101700000D01*
X234150000Y-101700000D02*
X234150000Y-105100000D01*
X230650000Y-101700000D02*
X234150000Y-101700000D01*
X234150000Y-105100000D02*
X230650000Y-105100000D01*
X230650000Y-105100000D02*
X230650000Y-101700000D01*
X218780000Y-123180000D02*
X215820000Y-123180000D01*
X218780000Y-121720000D02*
X218780000Y-123180000D01*
X215820000Y-123180000D02*
X215820000Y-121720000D01*
X215820000Y-121720000D02*
X218780000Y-121720000D01*
X212280000Y-127220000D02*
X212280000Y-130180000D01*
X210820000Y-127220000D02*
X212280000Y-127220000D01*
X212280000Y-130180000D02*
X210820000Y-130180000D01*
X210820000Y-130180000D02*
X210820000Y-127220000D01*
X214550000Y-101700000D02*
X214550000Y-105100000D01*
X211050000Y-101700000D02*
X214550000Y-101700000D01*
X214550000Y-105100000D02*
X211050000Y-105100000D01*
X211050000Y-105100000D02*
X211050000Y-101700000D01*
X210720000Y-109870000D02*
X213680000Y-109870000D01*
X210720000Y-111330000D02*
X210720000Y-109870000D01*
X213680000Y-109870000D02*
X213680000Y-111330000D01*
X213680000Y-111330000D02*
X210720000Y-111330000D01*
X213680000Y-114330000D02*
X210720000Y-114330000D01*
X213680000Y-112870000D02*
X213680000Y-114330000D01*
X210720000Y-114330000D02*
X210720000Y-112870000D01*
X210720000Y-112870000D02*
X213680000Y-112870000D01*
X217450000Y-112900000D02*
X214050000Y-112900000D01*
X217450000Y-109400000D02*
X217450000Y-112900000D01*
X214050000Y-112900000D02*
X214050000Y-109400000D01*
X214050000Y-109400000D02*
X217450000Y-109400000D01*
X213680000Y-112830000D02*
X210720000Y-112830000D01*
X213680000Y-111370000D02*
X213680000Y-112830000D01*
X210720000Y-112830000D02*
X210720000Y-111370000D01*
X210720000Y-111370000D02*
X213680000Y-111370000D01*
X207320000Y-113270000D02*
X210280000Y-113270000D01*
X207320000Y-114730000D02*
X207320000Y-113270000D01*
X210280000Y-113270000D02*
X210280000Y-114730000D01*
X210280000Y-114730000D02*
X207320000Y-114730000D01*
X236520000Y-138230000D02*
X236520000Y-135270000D01*
X237980000Y-138230000D02*
X236520000Y-138230000D01*
X236520000Y-135270000D02*
X237980000Y-135270000D01*
X237980000Y-135270000D02*
X237980000Y-138230000D01*
X189320000Y-136630000D02*
X189320000Y-133670000D01*
X190780000Y-136630000D02*
X189320000Y-136630000D01*
X189320000Y-133670000D02*
X190780000Y-133670000D01*
X190780000Y-133670000D02*
X190780000Y-136630000D01*
X180400000Y-129650000D02*
X180400000Y-110150000D01*
X206900000Y-129650000D02*
X180400000Y-129650000D01*
X206900000Y-129650000D02*
X206900000Y-110150000D01*
X180400000Y-110150000D02*
X206900000Y-110150000D01*
X212030000Y-119680000D02*
X209070000Y-119680000D01*
X212030000Y-118220000D02*
X212030000Y-119680000D01*
X209070000Y-119680000D02*
X209070000Y-118220000D01*
X209070000Y-118220000D02*
X212030000Y-118220000D01*
X259080000Y-103730000D02*
X256120000Y-103730000D01*
X259080000Y-102270000D02*
X259080000Y-103730000D01*
X256120000Y-103730000D02*
X256120000Y-102270000D01*
X256120000Y-102270000D02*
X259080000Y-102270000D01*
X243720000Y-126270000D02*
X246680000Y-126270000D01*
X243720000Y-127730000D02*
X243720000Y-126270000D01*
X246680000Y-126270000D02*
X246680000Y-127730000D01*
X246680000Y-127730000D02*
X243720000Y-127730000D01*
X213680000Y-109830000D02*
X210720000Y-109830000D01*
X213680000Y-108370000D02*
X213680000Y-109830000D01*
X210720000Y-109830000D02*
X210720000Y-108370000D01*
X210720000Y-108370000D02*
X213680000Y-108370000D01*
X195730000Y-130020000D02*
X195730000Y-132980000D01*
X194270000Y-130020000D02*
X195730000Y-130020000D01*
X195730000Y-132980000D02*
X194270000Y-132980000D01*
X194270000Y-132980000D02*
X194270000Y-130020000D01*
X257570000Y-108380000D02*
X257570000Y-105420000D01*
X259030000Y-108380000D02*
X257570000Y-108380000D01*
X257570000Y-105420000D02*
X259030000Y-105420000D01*
X259030000Y-105420000D02*
X259030000Y-108380000D01*
X208570000Y-143680000D02*
X208570000Y-140720000D01*
X210030000Y-143680000D02*
X208570000Y-143680000D01*
X208570000Y-140720000D02*
X210030000Y-140720000D01*
X210030000Y-140720000D02*
X210030000Y-143680000D01*
X227970000Y-121980000D02*
X227970000Y-119020000D01*
X229430000Y-121980000D02*
X227970000Y-121980000D01*
X227970000Y-119020000D02*
X229430000Y-119020000D01*
X229430000Y-119020000D02*
X229430000Y-121980000D01*
X188320000Y-105170000D02*
X191280000Y-105170000D01*
X188320000Y-106630000D02*
X188320000Y-105170000D01*
X191280000Y-105170000D02*
X191280000Y-106630000D01*
X191280000Y-106630000D02*
X188320000Y-106630000D01*
X212030000Y-121330000D02*
X209070000Y-121330000D01*
X212030000Y-119870000D02*
X212030000Y-121330000D01*
X209070000Y-121330000D02*
X209070000Y-119870000D01*
X209070000Y-119870000D02*
X212030000Y-119870000D01*
X198730000Y-130020000D02*
X198730000Y-132980000D01*
X197270000Y-130020000D02*
X198730000Y-130020000D01*
X198730000Y-132980000D02*
X197270000Y-132980000D01*
X197270000Y-132980000D02*
X197270000Y-130020000D01*
X215280000Y-130680000D02*
X212320000Y-130680000D01*
X215280000Y-129220000D02*
X215280000Y-130680000D01*
X212320000Y-130680000D02*
X212320000Y-129220000D01*
X212320000Y-129220000D02*
X215280000Y-129220000D01*
X194230000Y-130020000D02*
X194230000Y-132980000D01*
X192770000Y-130020000D02*
X194230000Y-130020000D01*
X194230000Y-132980000D02*
X192770000Y-132980000D01*
X192770000Y-132980000D02*
X192770000Y-130020000D01*
X221150000Y-146200000D02*
X221150000Y-142800000D01*
X224650000Y-146200000D02*
X221150000Y-146200000D01*
X221150000Y-142800000D02*
X224650000Y-142800000D01*
X224650000Y-142800000D02*
X224650000Y-146200000D01*
X211250000Y-118200000D02*
X207850000Y-118200000D01*
X211250000Y-114700000D02*
X211250000Y-118200000D01*
X207850000Y-118200000D02*
X207850000Y-114700000D01*
X207850000Y-114700000D02*
X211250000Y-114700000D01*
X259950000Y-138500000D02*
X259950000Y-141900000D01*
X256450000Y-138500000D02*
X259950000Y-138500000D01*
X259950000Y-141900000D02*
X256450000Y-141900000D01*
X256450000Y-141900000D02*
X256450000Y-138500000D01*
X257750000Y-136150000D02*
X257750000Y-138450000D01*
X257750000Y-136150000D02*
X262450000Y-136150000D01*
X262450000Y-136150000D02*
X262450000Y-138450000D01*
X262450000Y-138450000D02*
X257750000Y-138450000D01*
X262050000Y-146450000D02*
X254750000Y-146450000D01*
X262050000Y-141950000D02*
X262050000Y-146450000D01*
X254750000Y-146450000D02*
X254750000Y-141950000D01*
X254750000Y-141950000D02*
X262050000Y-141950000D01*
X258300000Y-124350000D02*
X262900000Y-124350000D01*
X258300000Y-126650000D02*
X258300000Y-124350000D01*
X262900000Y-124350000D02*
X262900000Y-126650000D01*
X262900000Y-126650000D02*
X258300000Y-126650000D01*
X256330000Y-138820000D02*
X256330000Y-141780000D01*
X254870000Y-138820000D02*
X256330000Y-138820000D01*
X256330000Y-141780000D02*
X254870000Y-141780000D01*
X254870000Y-141780000D02*
X254870000Y-138820000D01*
X223680000Y-121680000D02*
X223680000Y-125920000D01*
X223680000Y-125920000D02*
X227920000Y-125920000D01*
X227920000Y-121680000D02*
X223680000Y-121680000D01*
X227920000Y-125920000D02*
X227920000Y-121680000D01*
X247000000Y-99850000D02*
X250400000Y-99850000D01*
X247000000Y-103350000D02*
X247000000Y-99850000D01*
X250400000Y-99850000D02*
X250400000Y-103350000D01*
X250400000Y-103350000D02*
X247000000Y-103350000D01*
X244200000Y-114100000D02*
X248800000Y-114100000D01*
X244200000Y-116400000D02*
X244200000Y-114100000D01*
X248800000Y-114100000D02*
X248800000Y-116400000D01*
X248800000Y-116400000D02*
X244200000Y-116400000D01*
X226330000Y-118680000D02*
X223370000Y-118680000D01*
X226330000Y-117220000D02*
X226330000Y-118680000D01*
X223370000Y-118680000D02*
X223370000Y-117220000D01*
X223370000Y-117220000D02*
X226330000Y-117220000D01*
X225980000Y-130630000D02*
X223020000Y-130630000D01*
X225980000Y-129170000D02*
X225980000Y-130630000D01*
X223020000Y-130630000D02*
X223020000Y-129170000D01*
X223020000Y-129170000D02*
X225980000Y-129170000D01*
X195350000Y-101700000D02*
X195350000Y-105100000D01*
X191850000Y-101700000D02*
X195350000Y-101700000D01*
X195350000Y-105100000D02*
X191850000Y-105100000D01*
X191850000Y-105100000D02*
X191850000Y-101700000D01*
X199050000Y-101700000D02*
X199050000Y-105100000D01*
X195550000Y-101700000D02*
X199050000Y-101700000D01*
X199050000Y-105100000D02*
X195550000Y-105100000D01*
X195550000Y-105100000D02*
X195550000Y-101700000D01*
X186572600Y-101572300D02*
X238422600Y-101572300D01*
X238422600Y-101572300D02*
X238422600Y-95422300D01*
X186572600Y-95422300D02*
X186572600Y-101572300D01*
X238422600Y-95422300D02*
X186572600Y-95422300D01*
X210550000Y-101700000D02*
X210550000Y-105100000D01*
X207050000Y-101700000D02*
X210550000Y-101700000D01*
X210550000Y-105100000D02*
X207050000Y-105100000D01*
X207050000Y-105100000D02*
X207050000Y-101700000D01*
X198270000Y-143180000D02*
X198270000Y-140220000D01*
X199730000Y-143180000D02*
X198270000Y-143180000D01*
X198270000Y-140220000D02*
X199730000Y-140220000D01*
X199730000Y-140220000D02*
X199730000Y-143180000D01*
X233270000Y-125980000D02*
X233270000Y-123020000D01*
X234730000Y-125980000D02*
X233270000Y-125980000D01*
X233270000Y-123020000D02*
X234730000Y-123020000D01*
X234730000Y-123020000D02*
X234730000Y-125980000D01*
X233230000Y-123020000D02*
X233230000Y-125980000D01*
X231770000Y-123020000D02*
X233230000Y-123020000D01*
X233230000Y-125980000D02*
X231770000Y-125980000D01*
X231770000Y-125980000D02*
X231770000Y-123020000D01*
X262270000Y-110080000D02*
X262270000Y-107120000D01*
X263730000Y-110080000D02*
X262270000Y-110080000D01*
X262270000Y-107120000D02*
X263730000Y-107120000D01*
X263730000Y-107120000D02*
X263730000Y-110080000D01*
X244650000Y-104850000D02*
X246950000Y-104850000D01*
X244650000Y-104850000D02*
X244650000Y-100150000D01*
X244650000Y-100150000D02*
X246950000Y-100150000D01*
X246950000Y-100150000D02*
X246950000Y-104850000D01*
X244500000Y-105150000D02*
X239900000Y-105150000D01*
X244500000Y-102850000D02*
X244500000Y-105150000D01*
X239900000Y-105150000D02*
X239900000Y-102850000D01*
X239900000Y-102850000D02*
X244500000Y-102850000D01*
X259120000Y-108470000D02*
X262080000Y-108470000D01*
X259120000Y-109930000D02*
X259120000Y-108470000D01*
X262080000Y-108470000D02*
X262080000Y-109930000D01*
X262080000Y-109930000D02*
X259120000Y-109930000D01*
X188900000Y-143920000D02*
X188900000Y-152350000D01*
X188900000Y-152350000D02*
X199100000Y-152350000D01*
X199100000Y-143920000D02*
X188900000Y-143920000D01*
X199100000Y-152350000D02*
X199100000Y-143920000D01*
X187270000Y-150280000D02*
X187270000Y-147320000D01*
X188730000Y-150280000D02*
X187270000Y-150280000D01*
X187270000Y-147320000D02*
X188730000Y-147320000D01*
X188730000Y-147320000D02*
X188730000Y-150280000D01*
X199070000Y-150180000D02*
X199070000Y-147220000D01*
X200530000Y-150180000D02*
X199070000Y-150180000D01*
X199070000Y-147220000D02*
X200530000Y-147220000D01*
X200530000Y-147220000D02*
X200530000Y-150180000D01*
X229250000Y-135200000D02*
X229250000Y-139800000D01*
X226950000Y-135200000D02*
X229250000Y-135200000D01*
X229250000Y-139800000D02*
X226950000Y-139800000D01*
X226950000Y-139800000D02*
X226950000Y-135200000D01*
X204630000Y-139620000D02*
X204630000Y-142580000D01*
X203170000Y-139620000D02*
X204630000Y-139620000D01*
X204630000Y-142580000D02*
X203170000Y-142580000D01*
X203170000Y-142580000D02*
X203170000Y-139620000D01*
X193780000Y-133670000D02*
X193780000Y-136630000D01*
X192320000Y-133670000D02*
X193780000Y-133670000D01*
X193780000Y-136630000D02*
X192320000Y-136630000D01*
X192320000Y-136630000D02*
X192320000Y-133670000D01*
X190820000Y-136630000D02*
X190820000Y-133670000D01*
X192280000Y-136630000D02*
X190820000Y-136630000D01*
X190820000Y-133670000D02*
X192280000Y-133670000D01*
X192280000Y-133670000D02*
X192280000Y-136630000D01*
X220030000Y-141720000D02*
X220030000Y-144680000D01*
X218570000Y-141720000D02*
X220030000Y-141720000D01*
X220030000Y-144680000D02*
X218570000Y-144680000D01*
X218570000Y-144680000D02*
X218570000Y-141720000D01*
X218530000Y-141720000D02*
X218530000Y-144680000D01*
X217070000Y-141720000D02*
X218530000Y-141720000D01*
X218530000Y-144680000D02*
X217070000Y-144680000D01*
X217070000Y-144680000D02*
X217070000Y-141720000D01*
X210570000Y-136220000D02*
X213530000Y-136220000D01*
X210570000Y-137680000D02*
X210570000Y-136220000D01*
X213530000Y-136220000D02*
X213530000Y-137680000D01*
X213530000Y-137680000D02*
X210570000Y-137680000D01*
X204850000Y-134850000D02*
X204850000Y-140050000D01*
X204850000Y-140050000D02*
X210050000Y-140050000D01*
X210050000Y-134850000D02*
X204850000Y-134850000D01*
X210050000Y-140050000D02*
X210050000Y-134850000D01*
X254550000Y-97950000D02*
X254550000Y-95950000D01*
X254550000Y-95950000D02*
X252550000Y-95950000D01*
X252550000Y-97950000D02*
X254550000Y-97950000D01*
X252550000Y-95950000D02*
X252550000Y-97950000D01*
X218850000Y-106000000D02*
X218850000Y-116400000D01*
X218850000Y-116400000D02*
X226250000Y-116400000D01*
X226250000Y-106000000D02*
X218850000Y-106000000D01*
X226250000Y-116400000D02*
X226250000Y-106000000D01*
X200370000Y-140180000D02*
X200370000Y-137220000D01*
X201830000Y-140180000D02*
X200370000Y-140180000D01*
X200370000Y-137220000D02*
X201830000Y-137220000D01*
X201830000Y-137220000D02*
X201830000Y-140180000D01*
X205930000Y-139620000D02*
X205930000Y-142580000D01*
X204470000Y-139620000D02*
X205930000Y-139620000D01*
X205930000Y-142580000D02*
X204470000Y-142580000D01*
X204470000Y-142580000D02*
X204470000Y-139620000D01*
X212300000Y-130750000D02*
X212300000Y-134150000D01*
X208800000Y-130750000D02*
X212300000Y-130750000D01*
X212300000Y-134150000D02*
X208800000Y-134150000D01*
X208800000Y-134150000D02*
X208800000Y-130750000D01*
X204730000Y-130020000D02*
X204730000Y-132980000D01*
X203270000Y-130020000D02*
X204730000Y-130020000D01*
X204730000Y-132980000D02*
X203270000Y-132980000D01*
X203270000Y-132980000D02*
X203270000Y-130020000D01*
X234020000Y-129480000D02*
X234020000Y-126520000D01*
X235480000Y-129480000D02*
X234020000Y-129480000D01*
X234020000Y-126520000D02*
X235480000Y-126520000D01*
X235480000Y-126520000D02*
X235480000Y-129480000D01*
X247700000Y-118650000D02*
X243100000Y-118650000D01*
X247700000Y-116350000D02*
X247700000Y-118650000D01*
X243100000Y-118650000D02*
X243100000Y-116350000D01*
X243100000Y-116350000D02*
X247700000Y-116350000D01*
X232930000Y-138720000D02*
X232930000Y-141680000D01*
X231470000Y-138720000D02*
X232930000Y-138720000D01*
X232930000Y-141680000D02*
X231470000Y-141680000D01*
X231470000Y-141680000D02*
X231470000Y-138720000D01*
X234530000Y-138720000D02*
X234530000Y-141680000D01*
X233070000Y-138720000D02*
X234530000Y-138720000D01*
X234530000Y-141680000D02*
X233070000Y-141680000D01*
X233070000Y-141680000D02*
X233070000Y-138720000D01*
X201830000Y-134220000D02*
X201830000Y-137180000D01*
X200370000Y-134220000D02*
X201830000Y-134220000D01*
X201830000Y-137180000D02*
X200370000Y-137180000D01*
X200370000Y-137180000D02*
X200370000Y-134220000D01*
X203430000Y-134220000D02*
X203430000Y-137180000D01*
X201970000Y-134220000D02*
X203430000Y-134220000D01*
X203430000Y-137180000D02*
X201970000Y-137180000D01*
X201970000Y-137180000D02*
X201970000Y-134220000D01*
X233870000Y-138500000D02*
X233870000Y-135000000D01*
X233870000Y-135000000D02*
X229630000Y-135000000D01*
X229630000Y-138500000D02*
X233870000Y-138500000D01*
X229630000Y-135000000D02*
X229630000Y-138500000D01*
X235850000Y-144150000D02*
X235850000Y-141850000D01*
X235850000Y-144150000D02*
X231150000Y-144150000D01*
X231150000Y-144150000D02*
X231150000Y-141850000D01*
X231150000Y-141850000D02*
X235850000Y-141850000D01*
X238300000Y-139450000D02*
X238300000Y-134850000D01*
X240600000Y-139450000D02*
X238300000Y-139450000D01*
X238300000Y-134850000D02*
X240600000Y-134850000D01*
X240600000Y-134850000D02*
X240600000Y-139450000D01*
X242150000Y-132750000D02*
X249150000Y-132750000D01*
X242150000Y-136250000D02*
X242150000Y-132750000D01*
X249150000Y-132750000D02*
X249150000Y-136250000D01*
X249150000Y-136250000D02*
X242150000Y-136250000D01*
X244780000Y-142730000D02*
X241820000Y-142730000D01*
X244780000Y-141270000D02*
X244780000Y-142730000D01*
X241820000Y-142730000D02*
X241820000Y-141270000D01*
X241820000Y-141270000D02*
X244780000Y-141270000D01*
X237870000Y-126280000D02*
X237870000Y-123320000D01*
X239330000Y-126280000D02*
X237870000Y-126280000D01*
X237870000Y-123320000D02*
X239330000Y-123320000D01*
X239330000Y-123320000D02*
X239330000Y-126280000D01*
X240670000Y-121280000D02*
X240670000Y-118320000D01*
X242130000Y-121280000D02*
X240670000Y-121280000D01*
X240670000Y-118320000D02*
X242130000Y-118320000D01*
X242130000Y-118320000D02*
X242130000Y-121280000D01*
X204270000Y-109630000D02*
X204270000Y-106670000D01*
X205730000Y-109630000D02*
X204270000Y-109630000D01*
X204270000Y-106670000D02*
X205730000Y-106670000D01*
X205730000Y-106670000D02*
X205730000Y-109630000D01*
X235000000Y-138250000D02*
X238400000Y-138250000D01*
X235000000Y-141750000D02*
X235000000Y-138250000D01*
X238400000Y-138250000D02*
X238400000Y-141750000D01*
X238400000Y-141750000D02*
X235000000Y-141750000D01*
X193720000Y-109630000D02*
X193720000Y-106670000D01*
X195180000Y-109630000D02*
X193720000Y-109630000D01*
X193720000Y-106670000D02*
X195180000Y-106670000D01*
X195180000Y-106670000D02*
X195180000Y-109630000D01*
X196970000Y-109630000D02*
X196970000Y-106670000D01*
X198430000Y-109630000D02*
X196970000Y-109630000D01*
X196970000Y-106670000D02*
X198430000Y-106670000D01*
X198430000Y-106670000D02*
X198430000Y-109630000D01*
X240450000Y-106900000D02*
X240450000Y-113900000D01*
X240450000Y-113900000D02*
X251550000Y-113900000D01*
X251550000Y-106900000D02*
X240450000Y-106900000D01*
X251550000Y-113900000D02*
X251550000Y-106900000D01*
X243480000Y-106730000D02*
X240520000Y-106730000D01*
X243480000Y-105270000D02*
X243480000Y-106730000D01*
X240520000Y-106730000D02*
X240520000Y-105270000D01*
X240520000Y-105270000D02*
X243480000Y-105270000D01*
X254950000Y-108400000D02*
X254950000Y-103800000D01*
X257250000Y-108400000D02*
X254950000Y-108400000D01*
X254950000Y-103800000D02*
X257250000Y-103800000D01*
X257250000Y-103800000D02*
X257250000Y-108400000D01*
X261520000Y-122770000D02*
X264480000Y-122770000D01*
X261520000Y-124230000D02*
X261520000Y-122770000D01*
X264480000Y-122770000D02*
X264480000Y-124230000D01*
X264480000Y-124230000D02*
X261520000Y-124230000D01*
X240400000Y-105900000D02*
X228000000Y-105900000D01*
X228000000Y-105900000D02*
X228000000Y-115700000D01*
X240400000Y-115700000D02*
X240400000Y-105900000D01*
X228000000Y-115700000D02*
X240400000Y-115700000D01*
X264750000Y-98550000D02*
X259250000Y-98550000D01*
X259250000Y-98550000D02*
X259250000Y-105450000D01*
X264750000Y-105450000D02*
X264750000Y-98550000D01*
X259250000Y-105450000D02*
X264750000Y-105450000D01*
X239270000Y-124280000D02*
X239270000Y-121320000D01*
X240730000Y-124280000D02*
X239270000Y-124280000D01*
X239270000Y-121320000D02*
X240730000Y-121320000D01*
X240730000Y-121320000D02*
X240730000Y-124280000D01*
X239100000Y-119100000D02*
X234900000Y-119100000D01*
X234900000Y-119100000D02*
X234900000Y-123300000D01*
X239100000Y-123300000D02*
X239100000Y-119100000D01*
X234900000Y-123300000D02*
X239100000Y-123300000D01*
X244500000Y-132750000D02*
X239900000Y-132750000D01*
X244500000Y-130450000D02*
X244500000Y-132750000D01*
X239900000Y-132750000D02*
X239900000Y-130450000D01*
X239900000Y-130450000D02*
X244500000Y-130450000D01*
X241920000Y-142770000D02*
X244880000Y-142770000D01*
X241920000Y-144230000D02*
X241920000Y-142770000D01*
X244880000Y-142770000D02*
X244880000Y-144230000D01*
X244880000Y-144230000D02*
X241920000Y-144230000D01*
X252550000Y-108400000D02*
X252550000Y-103800000D01*
X254850000Y-108400000D02*
X252550000Y-108400000D01*
X252550000Y-103800000D02*
X254850000Y-103800000D01*
X254850000Y-103800000D02*
X254850000Y-108400000D01*
X242550000Y-128100000D02*
X247250000Y-128100000D01*
X242550000Y-130400000D02*
X242550000Y-128100000D01*
X247250000Y-130400000D02*
X242550000Y-130400000D01*
X247250000Y-130400000D02*
X247250000Y-128100000D01*
X218480000Y-132730000D02*
X215520000Y-132730000D01*
X218480000Y-131270000D02*
X218480000Y-132730000D01*
X215520000Y-132730000D02*
X215520000Y-131270000D01*
X215520000Y-131270000D02*
X218480000Y-131270000D01*
X218480000Y-137480000D02*
X215520000Y-137480000D01*
X218480000Y-136020000D02*
X218480000Y-137480000D01*
X215520000Y-137480000D02*
X215520000Y-136020000D01*
X215520000Y-136020000D02*
X218480000Y-136020000D01*
X218480000Y-135980000D02*
X215520000Y-135980000D01*
X218480000Y-134520000D02*
X218480000Y-135980000D01*
X215520000Y-135980000D02*
X215520000Y-134520000D01*
X215520000Y-134520000D02*
X218480000Y-134520000D01*
X241380000Y-144030000D02*
X238420000Y-144030000D01*
X241380000Y-142570000D02*
X241380000Y-144030000D01*
X238420000Y-144030000D02*
X238420000Y-142570000D01*
X238420000Y-142570000D02*
X241380000Y-142570000D01*
X237880000Y-135230000D02*
X234920000Y-135230000D01*
X237880000Y-133770000D02*
X237880000Y-135230000D01*
X234920000Y-135230000D02*
X234920000Y-133770000D01*
X234920000Y-133770000D02*
X237880000Y-133770000D01*
D11*
X245000000Y-143000000D02*
X245000000Y-136400000D01*
X251000000Y-143000000D02*
X245000000Y-143000000D01*
X245000000Y-136400000D02*
X251000000Y-136400000D01*
X251000000Y-136400000D02*
X251000000Y-143000000D01*
D10*
X240700000Y-136150000D02*
X240700000Y-139850000D01*
X240700000Y-136150000D02*
X244500000Y-136150000D01*
X240700000Y-139850000D02*
X244500000Y-139850000D01*
X244500000Y-136150000D02*
X244500000Y-139850000D01*
X215520000Y-132770000D02*
X218480000Y-132770000D01*
X215520000Y-134230000D02*
X215520000Y-132770000D01*
X218480000Y-132770000D02*
X218480000Y-134230000D01*
X218480000Y-134230000D02*
X215520000Y-134230000D01*
X219120000Y-134470000D02*
X222080000Y-134470000D01*
X219120000Y-135930000D02*
X219120000Y-134470000D01*
X222080000Y-134470000D02*
X222080000Y-135930000D01*
X222080000Y-135930000D02*
X219120000Y-135930000D01*
X188730000Y-143920000D02*
X188730000Y-146880000D01*
X187270000Y-143920000D02*
X188730000Y-143920000D01*
X188730000Y-146880000D02*
X187270000Y-146880000D01*
X187270000Y-146880000D02*
X187270000Y-143920000D01*
X200630000Y-143920000D02*
X200630000Y-146880000D01*
X199170000Y-143920000D02*
X200630000Y-143920000D01*
X200630000Y-146880000D02*
X199170000Y-146880000D01*
X199170000Y-146880000D02*
X199170000Y-143920000D01*
X193700000Y-143150000D02*
X193700000Y-141650000D01*
X193700000Y-143150000D02*
X195550000Y-143150000D01*
X195550000Y-141650000D02*
X193700000Y-141650000D01*
X195550000Y-143150000D02*
X195550000Y-141650000D01*
X199770000Y-143180000D02*
X199770000Y-140220000D01*
X201230000Y-143180000D02*
X199770000Y-143180000D01*
X199770000Y-140220000D02*
X201230000Y-140220000D01*
X201230000Y-140220000D02*
X201230000Y-143180000D01*
X198250000Y-138350000D02*
X195950000Y-138350000D01*
X198250000Y-138350000D02*
X198250000Y-143050000D01*
X198250000Y-143050000D02*
X195950000Y-143050000D01*
X195950000Y-143050000D02*
X195950000Y-138350000D01*
X238730000Y-115620000D02*
X238730000Y-118580000D01*
X237270000Y-115620000D02*
X238730000Y-115620000D01*
X238730000Y-118580000D02*
X237270000Y-118580000D01*
X237270000Y-118580000D02*
X237270000Y-115620000D01*
X230080000Y-144030000D02*
X227120000Y-144030000D01*
X230080000Y-142570000D02*
X230080000Y-144030000D01*
X227120000Y-144030000D02*
X227120000Y-142570000D01*
X227120000Y-142570000D02*
X230080000Y-142570000D01*
X224380000Y-142930000D02*
X221420000Y-142930000D01*
X224380000Y-141470000D02*
X224380000Y-142930000D01*
X221420000Y-142930000D02*
X221420000Y-141470000D01*
X221420000Y-141470000D02*
X224380000Y-141470000D01*
X193400000Y-141650000D02*
X193400000Y-143150000D01*
X193400000Y-141650000D02*
X191550000Y-141650000D01*
X191550000Y-143150000D02*
X193400000Y-143150000D01*
X191550000Y-141650000D02*
X191550000Y-143150000D01*
M02*
