G04 #@! TF.GenerationSoftware,KiCad,Pcbnew,7.0.1*
G04 #@! TF.CreationDate,2023-05-18T20:02:15+01:00*
G04 #@! TF.ProjectId,AnthC,416e7468-432e-46b6-9963-61645f706362,rev?*
G04 #@! TF.SameCoordinates,Original*
G04 #@! TF.FileFunction,AssemblyDrawing,Bot*
%FSLAX46Y46*%
G04 Gerber Fmt 4.6, Leading zero omitted, Abs format (unit mm)*
G04 Created by KiCad (PCBNEW 7.0.1) date 2023-05-18 20:02:15*
%MOMM*%
%LPD*%
G01*
G04 APERTURE LIST*
%ADD10C,0.150000*%
%ADD11C,0.100000*%
G04 APERTURE END LIST*
D10*
X241185714Y-128338809D02*
X241042857Y-128386428D01*
X241042857Y-128386428D02*
X240995238Y-128434047D01*
X240995238Y-128434047D02*
X240947619Y-128529285D01*
X240947619Y-128529285D02*
X240947619Y-128672142D01*
X240947619Y-128672142D02*
X240995238Y-128767380D01*
X240995238Y-128767380D02*
X241042857Y-128815000D01*
X241042857Y-128815000D02*
X241138095Y-128862619D01*
X241138095Y-128862619D02*
X241519047Y-128862619D01*
X241519047Y-128862619D02*
X241519047Y-127862619D01*
X241519047Y-127862619D02*
X241185714Y-127862619D01*
X241185714Y-127862619D02*
X241090476Y-127910238D01*
X241090476Y-127910238D02*
X241042857Y-127957857D01*
X241042857Y-127957857D02*
X240995238Y-128053095D01*
X240995238Y-128053095D02*
X240995238Y-128148333D01*
X240995238Y-128148333D02*
X241042857Y-128243571D01*
X241042857Y-128243571D02*
X241090476Y-128291190D01*
X241090476Y-128291190D02*
X241185714Y-128338809D01*
X241185714Y-128338809D02*
X241519047Y-128338809D01*
X240661904Y-127862619D02*
X240090476Y-127862619D01*
X240376190Y-128862619D02*
X240376190Y-127862619D01*
X239233333Y-128862619D02*
X239804761Y-128862619D01*
X239519047Y-128862619D02*
X239519047Y-127862619D01*
X239519047Y-127862619D02*
X239614285Y-128005476D01*
X239614285Y-128005476D02*
X239709523Y-128100714D01*
X239709523Y-128100714D02*
X239804761Y-128148333D01*
X234285714Y-149938809D02*
X234142857Y-149986428D01*
X234142857Y-149986428D02*
X234095238Y-150034047D01*
X234095238Y-150034047D02*
X234047619Y-150129285D01*
X234047619Y-150129285D02*
X234047619Y-150272142D01*
X234047619Y-150272142D02*
X234095238Y-150367380D01*
X234095238Y-150367380D02*
X234142857Y-150415000D01*
X234142857Y-150415000D02*
X234238095Y-150462619D01*
X234238095Y-150462619D02*
X234619047Y-150462619D01*
X234619047Y-150462619D02*
X234619047Y-149462619D01*
X234619047Y-149462619D02*
X234285714Y-149462619D01*
X234285714Y-149462619D02*
X234190476Y-149510238D01*
X234190476Y-149510238D02*
X234142857Y-149557857D01*
X234142857Y-149557857D02*
X234095238Y-149653095D01*
X234095238Y-149653095D02*
X234095238Y-149748333D01*
X234095238Y-149748333D02*
X234142857Y-149843571D01*
X234142857Y-149843571D02*
X234190476Y-149891190D01*
X234190476Y-149891190D02*
X234285714Y-149938809D01*
X234285714Y-149938809D02*
X234619047Y-149938809D01*
X233761904Y-149462619D02*
X233190476Y-149462619D01*
X233476190Y-150462619D02*
X233476190Y-149462619D01*
X232904761Y-149557857D02*
X232857142Y-149510238D01*
X232857142Y-149510238D02*
X232761904Y-149462619D01*
X232761904Y-149462619D02*
X232523809Y-149462619D01*
X232523809Y-149462619D02*
X232428571Y-149510238D01*
X232428571Y-149510238D02*
X232380952Y-149557857D01*
X232380952Y-149557857D02*
X232333333Y-149653095D01*
X232333333Y-149653095D02*
X232333333Y-149748333D01*
X232333333Y-149748333D02*
X232380952Y-149891190D01*
X232380952Y-149891190D02*
X232952380Y-150462619D01*
X232952380Y-150462619D02*
X232333333Y-150462619D01*
X213061904Y-142712619D02*
X212490476Y-142712619D01*
X212776190Y-143712619D02*
X212776190Y-142712619D01*
X212157142Y-143712619D02*
X212157142Y-142712619D01*
X212157142Y-142712619D02*
X211776190Y-142712619D01*
X211776190Y-142712619D02*
X211680952Y-142760238D01*
X211680952Y-142760238D02*
X211633333Y-142807857D01*
X211633333Y-142807857D02*
X211585714Y-142903095D01*
X211585714Y-142903095D02*
X211585714Y-143045952D01*
X211585714Y-143045952D02*
X211633333Y-143141190D01*
X211633333Y-143141190D02*
X211680952Y-143188809D01*
X211680952Y-143188809D02*
X211776190Y-143236428D01*
X211776190Y-143236428D02*
X212157142Y-143236428D01*
X210633333Y-143712619D02*
X211204761Y-143712619D01*
X210919047Y-143712619D02*
X210919047Y-142712619D01*
X210919047Y-142712619D02*
X211014285Y-142855476D01*
X211014285Y-142855476D02*
X211109523Y-142950714D01*
X211109523Y-142950714D02*
X211204761Y-142998333D01*
X236061904Y-146512619D02*
X235490476Y-146512619D01*
X235776190Y-147512619D02*
X235776190Y-146512619D01*
X235157142Y-147512619D02*
X235157142Y-146512619D01*
X235157142Y-146512619D02*
X234776190Y-146512619D01*
X234776190Y-146512619D02*
X234680952Y-146560238D01*
X234680952Y-146560238D02*
X234633333Y-146607857D01*
X234633333Y-146607857D02*
X234585714Y-146703095D01*
X234585714Y-146703095D02*
X234585714Y-146845952D01*
X234585714Y-146845952D02*
X234633333Y-146941190D01*
X234633333Y-146941190D02*
X234680952Y-146988809D01*
X234680952Y-146988809D02*
X234776190Y-147036428D01*
X234776190Y-147036428D02*
X235157142Y-147036428D01*
X234252380Y-146512619D02*
X233633333Y-146512619D01*
X233633333Y-146512619D02*
X233966666Y-146893571D01*
X233966666Y-146893571D02*
X233823809Y-146893571D01*
X233823809Y-146893571D02*
X233728571Y-146941190D01*
X233728571Y-146941190D02*
X233680952Y-146988809D01*
X233680952Y-146988809D02*
X233633333Y-147084047D01*
X233633333Y-147084047D02*
X233633333Y-147322142D01*
X233633333Y-147322142D02*
X233680952Y-147417380D01*
X233680952Y-147417380D02*
X233728571Y-147465000D01*
X233728571Y-147465000D02*
X233823809Y-147512619D01*
X233823809Y-147512619D02*
X234109523Y-147512619D01*
X234109523Y-147512619D02*
X234204761Y-147465000D01*
X234204761Y-147465000D02*
X234252380Y-147417380D01*
X247261904Y-132512619D02*
X246690476Y-132512619D01*
X246976190Y-133512619D02*
X246976190Y-132512619D01*
X246357142Y-133512619D02*
X246357142Y-132512619D01*
X246357142Y-132512619D02*
X245976190Y-132512619D01*
X245976190Y-132512619D02*
X245880952Y-132560238D01*
X245880952Y-132560238D02*
X245833333Y-132607857D01*
X245833333Y-132607857D02*
X245785714Y-132703095D01*
X245785714Y-132703095D02*
X245785714Y-132845952D01*
X245785714Y-132845952D02*
X245833333Y-132941190D01*
X245833333Y-132941190D02*
X245880952Y-132988809D01*
X245880952Y-132988809D02*
X245976190Y-133036428D01*
X245976190Y-133036428D02*
X246357142Y-133036428D01*
X244880952Y-132512619D02*
X245357142Y-132512619D01*
X245357142Y-132512619D02*
X245404761Y-132988809D01*
X245404761Y-132988809D02*
X245357142Y-132941190D01*
X245357142Y-132941190D02*
X245261904Y-132893571D01*
X245261904Y-132893571D02*
X245023809Y-132893571D01*
X245023809Y-132893571D02*
X244928571Y-132941190D01*
X244928571Y-132941190D02*
X244880952Y-132988809D01*
X244880952Y-132988809D02*
X244833333Y-133084047D01*
X244833333Y-133084047D02*
X244833333Y-133322142D01*
X244833333Y-133322142D02*
X244880952Y-133417380D01*
X244880952Y-133417380D02*
X244928571Y-133465000D01*
X244928571Y-133465000D02*
X245023809Y-133512619D01*
X245023809Y-133512619D02*
X245261904Y-133512619D01*
X245261904Y-133512619D02*
X245357142Y-133465000D01*
X245357142Y-133465000D02*
X245404761Y-133417380D01*
X239011904Y-129612619D02*
X238440476Y-129612619D01*
X238726190Y-130612619D02*
X238726190Y-129612619D01*
X238107142Y-130612619D02*
X238107142Y-129612619D01*
X238107142Y-129612619D02*
X237726190Y-129612619D01*
X237726190Y-129612619D02*
X237630952Y-129660238D01*
X237630952Y-129660238D02*
X237583333Y-129707857D01*
X237583333Y-129707857D02*
X237535714Y-129803095D01*
X237535714Y-129803095D02*
X237535714Y-129945952D01*
X237535714Y-129945952D02*
X237583333Y-130041190D01*
X237583333Y-130041190D02*
X237630952Y-130088809D01*
X237630952Y-130088809D02*
X237726190Y-130136428D01*
X237726190Y-130136428D02*
X238107142Y-130136428D01*
X236678571Y-129612619D02*
X236869047Y-129612619D01*
X236869047Y-129612619D02*
X236964285Y-129660238D01*
X236964285Y-129660238D02*
X237011904Y-129707857D01*
X237011904Y-129707857D02*
X237107142Y-129850714D01*
X237107142Y-129850714D02*
X237154761Y-130041190D01*
X237154761Y-130041190D02*
X237154761Y-130422142D01*
X237154761Y-130422142D02*
X237107142Y-130517380D01*
X237107142Y-130517380D02*
X237059523Y-130565000D01*
X237059523Y-130565000D02*
X236964285Y-130612619D01*
X236964285Y-130612619D02*
X236773809Y-130612619D01*
X236773809Y-130612619D02*
X236678571Y-130565000D01*
X236678571Y-130565000D02*
X236630952Y-130517380D01*
X236630952Y-130517380D02*
X236583333Y-130422142D01*
X236583333Y-130422142D02*
X236583333Y-130184047D01*
X236583333Y-130184047D02*
X236630952Y-130088809D01*
X236630952Y-130088809D02*
X236678571Y-130041190D01*
X236678571Y-130041190D02*
X236773809Y-129993571D01*
X236773809Y-129993571D02*
X236964285Y-129993571D01*
X236964285Y-129993571D02*
X237059523Y-130041190D01*
X237059523Y-130041190D02*
X237107142Y-130088809D01*
X237107142Y-130088809D02*
X237154761Y-130184047D01*
X241861904Y-117912619D02*
X241290476Y-117912619D01*
X241576190Y-118912619D02*
X241576190Y-117912619D01*
X240957142Y-118912619D02*
X240957142Y-117912619D01*
X240957142Y-117912619D02*
X240576190Y-117912619D01*
X240576190Y-117912619D02*
X240480952Y-117960238D01*
X240480952Y-117960238D02*
X240433333Y-118007857D01*
X240433333Y-118007857D02*
X240385714Y-118103095D01*
X240385714Y-118103095D02*
X240385714Y-118245952D01*
X240385714Y-118245952D02*
X240433333Y-118341190D01*
X240433333Y-118341190D02*
X240480952Y-118388809D01*
X240480952Y-118388809D02*
X240576190Y-118436428D01*
X240576190Y-118436428D02*
X240957142Y-118436428D01*
X240052380Y-117912619D02*
X239385714Y-117912619D01*
X239385714Y-117912619D02*
X239814285Y-118912619D01*
X234261904Y-122512619D02*
X233690476Y-122512619D01*
X233976190Y-123512619D02*
X233976190Y-122512619D01*
X233357142Y-123512619D02*
X233357142Y-122512619D01*
X233357142Y-122512619D02*
X232976190Y-122512619D01*
X232976190Y-122512619D02*
X232880952Y-122560238D01*
X232880952Y-122560238D02*
X232833333Y-122607857D01*
X232833333Y-122607857D02*
X232785714Y-122703095D01*
X232785714Y-122703095D02*
X232785714Y-122845952D01*
X232785714Y-122845952D02*
X232833333Y-122941190D01*
X232833333Y-122941190D02*
X232880952Y-122988809D01*
X232880952Y-122988809D02*
X232976190Y-123036428D01*
X232976190Y-123036428D02*
X233357142Y-123036428D01*
X232214285Y-122941190D02*
X232309523Y-122893571D01*
X232309523Y-122893571D02*
X232357142Y-122845952D01*
X232357142Y-122845952D02*
X232404761Y-122750714D01*
X232404761Y-122750714D02*
X232404761Y-122703095D01*
X232404761Y-122703095D02*
X232357142Y-122607857D01*
X232357142Y-122607857D02*
X232309523Y-122560238D01*
X232309523Y-122560238D02*
X232214285Y-122512619D01*
X232214285Y-122512619D02*
X232023809Y-122512619D01*
X232023809Y-122512619D02*
X231928571Y-122560238D01*
X231928571Y-122560238D02*
X231880952Y-122607857D01*
X231880952Y-122607857D02*
X231833333Y-122703095D01*
X231833333Y-122703095D02*
X231833333Y-122750714D01*
X231833333Y-122750714D02*
X231880952Y-122845952D01*
X231880952Y-122845952D02*
X231928571Y-122893571D01*
X231928571Y-122893571D02*
X232023809Y-122941190D01*
X232023809Y-122941190D02*
X232214285Y-122941190D01*
X232214285Y-122941190D02*
X232309523Y-122988809D01*
X232309523Y-122988809D02*
X232357142Y-123036428D01*
X232357142Y-123036428D02*
X232404761Y-123131666D01*
X232404761Y-123131666D02*
X232404761Y-123322142D01*
X232404761Y-123322142D02*
X232357142Y-123417380D01*
X232357142Y-123417380D02*
X232309523Y-123465000D01*
X232309523Y-123465000D02*
X232214285Y-123512619D01*
X232214285Y-123512619D02*
X232023809Y-123512619D01*
X232023809Y-123512619D02*
X231928571Y-123465000D01*
X231928571Y-123465000D02*
X231880952Y-123417380D01*
X231880952Y-123417380D02*
X231833333Y-123322142D01*
X231833333Y-123322142D02*
X231833333Y-123131666D01*
X231833333Y-123131666D02*
X231880952Y-123036428D01*
X231880952Y-123036428D02*
X231928571Y-122988809D01*
X231928571Y-122988809D02*
X232023809Y-122941190D01*
X235661904Y-120212619D02*
X235090476Y-120212619D01*
X235376190Y-121212619D02*
X235376190Y-120212619D01*
X234757142Y-121212619D02*
X234757142Y-120212619D01*
X234757142Y-120212619D02*
X234376190Y-120212619D01*
X234376190Y-120212619D02*
X234280952Y-120260238D01*
X234280952Y-120260238D02*
X234233333Y-120307857D01*
X234233333Y-120307857D02*
X234185714Y-120403095D01*
X234185714Y-120403095D02*
X234185714Y-120545952D01*
X234185714Y-120545952D02*
X234233333Y-120641190D01*
X234233333Y-120641190D02*
X234280952Y-120688809D01*
X234280952Y-120688809D02*
X234376190Y-120736428D01*
X234376190Y-120736428D02*
X234757142Y-120736428D01*
X233709523Y-121212619D02*
X233519047Y-121212619D01*
X233519047Y-121212619D02*
X233423809Y-121165000D01*
X233423809Y-121165000D02*
X233376190Y-121117380D01*
X233376190Y-121117380D02*
X233280952Y-120974523D01*
X233280952Y-120974523D02*
X233233333Y-120784047D01*
X233233333Y-120784047D02*
X233233333Y-120403095D01*
X233233333Y-120403095D02*
X233280952Y-120307857D01*
X233280952Y-120307857D02*
X233328571Y-120260238D01*
X233328571Y-120260238D02*
X233423809Y-120212619D01*
X233423809Y-120212619D02*
X233614285Y-120212619D01*
X233614285Y-120212619D02*
X233709523Y-120260238D01*
X233709523Y-120260238D02*
X233757142Y-120307857D01*
X233757142Y-120307857D02*
X233804761Y-120403095D01*
X233804761Y-120403095D02*
X233804761Y-120641190D01*
X233804761Y-120641190D02*
X233757142Y-120736428D01*
X233757142Y-120736428D02*
X233709523Y-120784047D01*
X233709523Y-120784047D02*
X233614285Y-120831666D01*
X233614285Y-120831666D02*
X233423809Y-120831666D01*
X233423809Y-120831666D02*
X233328571Y-120784047D01*
X233328571Y-120784047D02*
X233280952Y-120736428D01*
X233280952Y-120736428D02*
X233233333Y-120641190D01*
X209738094Y-106912619D02*
X209166666Y-106912619D01*
X209452380Y-107912619D02*
X209452380Y-106912619D01*
X208833332Y-107912619D02*
X208833332Y-106912619D01*
X208833332Y-106912619D02*
X208452380Y-106912619D01*
X208452380Y-106912619D02*
X208357142Y-106960238D01*
X208357142Y-106960238D02*
X208309523Y-107007857D01*
X208309523Y-107007857D02*
X208261904Y-107103095D01*
X208261904Y-107103095D02*
X208261904Y-107245952D01*
X208261904Y-107245952D02*
X208309523Y-107341190D01*
X208309523Y-107341190D02*
X208357142Y-107388809D01*
X208357142Y-107388809D02*
X208452380Y-107436428D01*
X208452380Y-107436428D02*
X208833332Y-107436428D01*
X207309523Y-107912619D02*
X207880951Y-107912619D01*
X207595237Y-107912619D02*
X207595237Y-106912619D01*
X207595237Y-106912619D02*
X207690475Y-107055476D01*
X207690475Y-107055476D02*
X207785713Y-107150714D01*
X207785713Y-107150714D02*
X207880951Y-107198333D01*
X206357142Y-107912619D02*
X206928570Y-107912619D01*
X206642856Y-107912619D02*
X206642856Y-106912619D01*
X206642856Y-106912619D02*
X206738094Y-107055476D01*
X206738094Y-107055476D02*
X206833332Y-107150714D01*
X206833332Y-107150714D02*
X206928570Y-107198333D01*
X196438094Y-108912619D02*
X195866666Y-108912619D01*
X196152380Y-109912619D02*
X196152380Y-108912619D01*
X195533332Y-109912619D02*
X195533332Y-108912619D01*
X195533332Y-108912619D02*
X195152380Y-108912619D01*
X195152380Y-108912619D02*
X195057142Y-108960238D01*
X195057142Y-108960238D02*
X195009523Y-109007857D01*
X195009523Y-109007857D02*
X194961904Y-109103095D01*
X194961904Y-109103095D02*
X194961904Y-109245952D01*
X194961904Y-109245952D02*
X195009523Y-109341190D01*
X195009523Y-109341190D02*
X195057142Y-109388809D01*
X195057142Y-109388809D02*
X195152380Y-109436428D01*
X195152380Y-109436428D02*
X195533332Y-109436428D01*
X194009523Y-109912619D02*
X194580951Y-109912619D01*
X194295237Y-109912619D02*
X194295237Y-108912619D01*
X194295237Y-108912619D02*
X194390475Y-109055476D01*
X194390475Y-109055476D02*
X194485713Y-109150714D01*
X194485713Y-109150714D02*
X194580951Y-109198333D01*
X193628570Y-109007857D02*
X193580951Y-108960238D01*
X193580951Y-108960238D02*
X193485713Y-108912619D01*
X193485713Y-108912619D02*
X193247618Y-108912619D01*
X193247618Y-108912619D02*
X193152380Y-108960238D01*
X193152380Y-108960238D02*
X193104761Y-109007857D01*
X193104761Y-109007857D02*
X193057142Y-109103095D01*
X193057142Y-109103095D02*
X193057142Y-109198333D01*
X193057142Y-109198333D02*
X193104761Y-109341190D01*
X193104761Y-109341190D02*
X193676189Y-109912619D01*
X193676189Y-109912619D02*
X193057142Y-109912619D01*
X232238094Y-117912619D02*
X231666666Y-117912619D01*
X231952380Y-118912619D02*
X231952380Y-117912619D01*
X231333332Y-118912619D02*
X231333332Y-117912619D01*
X231333332Y-117912619D02*
X230952380Y-117912619D01*
X230952380Y-117912619D02*
X230857142Y-117960238D01*
X230857142Y-117960238D02*
X230809523Y-118007857D01*
X230809523Y-118007857D02*
X230761904Y-118103095D01*
X230761904Y-118103095D02*
X230761904Y-118245952D01*
X230761904Y-118245952D02*
X230809523Y-118341190D01*
X230809523Y-118341190D02*
X230857142Y-118388809D01*
X230857142Y-118388809D02*
X230952380Y-118436428D01*
X230952380Y-118436428D02*
X231333332Y-118436428D01*
X229809523Y-118912619D02*
X230380951Y-118912619D01*
X230095237Y-118912619D02*
X230095237Y-117912619D01*
X230095237Y-117912619D02*
X230190475Y-118055476D01*
X230190475Y-118055476D02*
X230285713Y-118150714D01*
X230285713Y-118150714D02*
X230380951Y-118198333D01*
X228952380Y-118245952D02*
X228952380Y-118912619D01*
X229190475Y-117865000D02*
X229428570Y-118579285D01*
X229428570Y-118579285D02*
X228809523Y-118579285D01*
X202538094Y-107312619D02*
X201966666Y-107312619D01*
X202252380Y-108312619D02*
X202252380Y-107312619D01*
X201633332Y-108312619D02*
X201633332Y-107312619D01*
X201633332Y-107312619D02*
X201252380Y-107312619D01*
X201252380Y-107312619D02*
X201157142Y-107360238D01*
X201157142Y-107360238D02*
X201109523Y-107407857D01*
X201109523Y-107407857D02*
X201061904Y-107503095D01*
X201061904Y-107503095D02*
X201061904Y-107645952D01*
X201061904Y-107645952D02*
X201109523Y-107741190D01*
X201109523Y-107741190D02*
X201157142Y-107788809D01*
X201157142Y-107788809D02*
X201252380Y-107836428D01*
X201252380Y-107836428D02*
X201633332Y-107836428D01*
X200109523Y-108312619D02*
X200680951Y-108312619D01*
X200395237Y-108312619D02*
X200395237Y-107312619D01*
X200395237Y-107312619D02*
X200490475Y-107455476D01*
X200490475Y-107455476D02*
X200585713Y-107550714D01*
X200585713Y-107550714D02*
X200680951Y-107598333D01*
X199204761Y-107312619D02*
X199680951Y-107312619D01*
X199680951Y-107312619D02*
X199728570Y-107788809D01*
X199728570Y-107788809D02*
X199680951Y-107741190D01*
X199680951Y-107741190D02*
X199585713Y-107693571D01*
X199585713Y-107693571D02*
X199347618Y-107693571D01*
X199347618Y-107693571D02*
X199252380Y-107741190D01*
X199252380Y-107741190D02*
X199204761Y-107788809D01*
X199204761Y-107788809D02*
X199157142Y-107884047D01*
X199157142Y-107884047D02*
X199157142Y-108122142D01*
X199157142Y-108122142D02*
X199204761Y-108217380D01*
X199204761Y-108217380D02*
X199252380Y-108265000D01*
X199252380Y-108265000D02*
X199347618Y-108312619D01*
X199347618Y-108312619D02*
X199585713Y-108312619D01*
X199585713Y-108312619D02*
X199680951Y-108265000D01*
X199680951Y-108265000D02*
X199728570Y-108217380D01*
X264738094Y-143112619D02*
X264166666Y-143112619D01*
X264452380Y-144112619D02*
X264452380Y-143112619D01*
X263833332Y-144112619D02*
X263833332Y-143112619D01*
X263833332Y-143112619D02*
X263452380Y-143112619D01*
X263452380Y-143112619D02*
X263357142Y-143160238D01*
X263357142Y-143160238D02*
X263309523Y-143207857D01*
X263309523Y-143207857D02*
X263261904Y-143303095D01*
X263261904Y-143303095D02*
X263261904Y-143445952D01*
X263261904Y-143445952D02*
X263309523Y-143541190D01*
X263309523Y-143541190D02*
X263357142Y-143588809D01*
X263357142Y-143588809D02*
X263452380Y-143636428D01*
X263452380Y-143636428D02*
X263833332Y-143636428D01*
X262309523Y-144112619D02*
X262880951Y-144112619D01*
X262595237Y-144112619D02*
X262595237Y-143112619D01*
X262595237Y-143112619D02*
X262690475Y-143255476D01*
X262690475Y-143255476D02*
X262785713Y-143350714D01*
X262785713Y-143350714D02*
X262880951Y-143398333D01*
X261452380Y-143112619D02*
X261642856Y-143112619D01*
X261642856Y-143112619D02*
X261738094Y-143160238D01*
X261738094Y-143160238D02*
X261785713Y-143207857D01*
X261785713Y-143207857D02*
X261880951Y-143350714D01*
X261880951Y-143350714D02*
X261928570Y-143541190D01*
X261928570Y-143541190D02*
X261928570Y-143922142D01*
X261928570Y-143922142D02*
X261880951Y-144017380D01*
X261880951Y-144017380D02*
X261833332Y-144065000D01*
X261833332Y-144065000D02*
X261738094Y-144112619D01*
X261738094Y-144112619D02*
X261547618Y-144112619D01*
X261547618Y-144112619D02*
X261452380Y-144065000D01*
X261452380Y-144065000D02*
X261404761Y-144017380D01*
X261404761Y-144017380D02*
X261357142Y-143922142D01*
X261357142Y-143922142D02*
X261357142Y-143684047D01*
X261357142Y-143684047D02*
X261404761Y-143588809D01*
X261404761Y-143588809D02*
X261452380Y-143541190D01*
X261452380Y-143541190D02*
X261547618Y-143493571D01*
X261547618Y-143493571D02*
X261738094Y-143493571D01*
X261738094Y-143493571D02*
X261833332Y-143541190D01*
X261833332Y-143541190D02*
X261880951Y-143588809D01*
X261880951Y-143588809D02*
X261928570Y-143684047D01*
X259338094Y-121312619D02*
X258766666Y-121312619D01*
X259052380Y-122312619D02*
X259052380Y-121312619D01*
X258433332Y-122312619D02*
X258433332Y-121312619D01*
X258433332Y-121312619D02*
X258052380Y-121312619D01*
X258052380Y-121312619D02*
X257957142Y-121360238D01*
X257957142Y-121360238D02*
X257909523Y-121407857D01*
X257909523Y-121407857D02*
X257861904Y-121503095D01*
X257861904Y-121503095D02*
X257861904Y-121645952D01*
X257861904Y-121645952D02*
X257909523Y-121741190D01*
X257909523Y-121741190D02*
X257957142Y-121788809D01*
X257957142Y-121788809D02*
X258052380Y-121836428D01*
X258052380Y-121836428D02*
X258433332Y-121836428D01*
X256909523Y-122312619D02*
X257480951Y-122312619D01*
X257195237Y-122312619D02*
X257195237Y-121312619D01*
X257195237Y-121312619D02*
X257290475Y-121455476D01*
X257290475Y-121455476D02*
X257385713Y-121550714D01*
X257385713Y-121550714D02*
X257480951Y-121598333D01*
X256338094Y-121741190D02*
X256433332Y-121693571D01*
X256433332Y-121693571D02*
X256480951Y-121645952D01*
X256480951Y-121645952D02*
X256528570Y-121550714D01*
X256528570Y-121550714D02*
X256528570Y-121503095D01*
X256528570Y-121503095D02*
X256480951Y-121407857D01*
X256480951Y-121407857D02*
X256433332Y-121360238D01*
X256433332Y-121360238D02*
X256338094Y-121312619D01*
X256338094Y-121312619D02*
X256147618Y-121312619D01*
X256147618Y-121312619D02*
X256052380Y-121360238D01*
X256052380Y-121360238D02*
X256004761Y-121407857D01*
X256004761Y-121407857D02*
X255957142Y-121503095D01*
X255957142Y-121503095D02*
X255957142Y-121550714D01*
X255957142Y-121550714D02*
X256004761Y-121645952D01*
X256004761Y-121645952D02*
X256052380Y-121693571D01*
X256052380Y-121693571D02*
X256147618Y-121741190D01*
X256147618Y-121741190D02*
X256338094Y-121741190D01*
X256338094Y-121741190D02*
X256433332Y-121788809D01*
X256433332Y-121788809D02*
X256480951Y-121836428D01*
X256480951Y-121836428D02*
X256528570Y-121931666D01*
X256528570Y-121931666D02*
X256528570Y-122122142D01*
X256528570Y-122122142D02*
X256480951Y-122217380D01*
X256480951Y-122217380D02*
X256433332Y-122265000D01*
X256433332Y-122265000D02*
X256338094Y-122312619D01*
X256338094Y-122312619D02*
X256147618Y-122312619D01*
X256147618Y-122312619D02*
X256052380Y-122265000D01*
X256052380Y-122265000D02*
X256004761Y-122217380D01*
X256004761Y-122217380D02*
X255957142Y-122122142D01*
X255957142Y-122122142D02*
X255957142Y-121931666D01*
X255957142Y-121931666D02*
X256004761Y-121836428D01*
X256004761Y-121836428D02*
X256052380Y-121788809D01*
X256052380Y-121788809D02*
X256147618Y-121741190D01*
X252938094Y-106512619D02*
X252366666Y-106512619D01*
X252652380Y-107512619D02*
X252652380Y-106512619D01*
X252033332Y-107512619D02*
X252033332Y-106512619D01*
X252033332Y-106512619D02*
X251652380Y-106512619D01*
X251652380Y-106512619D02*
X251557142Y-106560238D01*
X251557142Y-106560238D02*
X251509523Y-106607857D01*
X251509523Y-106607857D02*
X251461904Y-106703095D01*
X251461904Y-106703095D02*
X251461904Y-106845952D01*
X251461904Y-106845952D02*
X251509523Y-106941190D01*
X251509523Y-106941190D02*
X251557142Y-106988809D01*
X251557142Y-106988809D02*
X251652380Y-107036428D01*
X251652380Y-107036428D02*
X252033332Y-107036428D01*
X250509523Y-107512619D02*
X251080951Y-107512619D01*
X250795237Y-107512619D02*
X250795237Y-106512619D01*
X250795237Y-106512619D02*
X250890475Y-106655476D01*
X250890475Y-106655476D02*
X250985713Y-106750714D01*
X250985713Y-106750714D02*
X251080951Y-106798333D01*
X250033332Y-107512619D02*
X249842856Y-107512619D01*
X249842856Y-107512619D02*
X249747618Y-107465000D01*
X249747618Y-107465000D02*
X249699999Y-107417380D01*
X249699999Y-107417380D02*
X249604761Y-107274523D01*
X249604761Y-107274523D02*
X249557142Y-107084047D01*
X249557142Y-107084047D02*
X249557142Y-106703095D01*
X249557142Y-106703095D02*
X249604761Y-106607857D01*
X249604761Y-106607857D02*
X249652380Y-106560238D01*
X249652380Y-106560238D02*
X249747618Y-106512619D01*
X249747618Y-106512619D02*
X249938094Y-106512619D01*
X249938094Y-106512619D02*
X250033332Y-106560238D01*
X250033332Y-106560238D02*
X250080951Y-106607857D01*
X250080951Y-106607857D02*
X250128570Y-106703095D01*
X250128570Y-106703095D02*
X250128570Y-106941190D01*
X250128570Y-106941190D02*
X250080951Y-107036428D01*
X250080951Y-107036428D02*
X250033332Y-107084047D01*
X250033332Y-107084047D02*
X249938094Y-107131666D01*
X249938094Y-107131666D02*
X249747618Y-107131666D01*
X249747618Y-107131666D02*
X249652380Y-107084047D01*
X249652380Y-107084047D02*
X249604761Y-107036428D01*
X249604761Y-107036428D02*
X249557142Y-106941190D01*
X246738094Y-107112619D02*
X246166666Y-107112619D01*
X246452380Y-108112619D02*
X246452380Y-107112619D01*
X245833332Y-108112619D02*
X245833332Y-107112619D01*
X245833332Y-107112619D02*
X245452380Y-107112619D01*
X245452380Y-107112619D02*
X245357142Y-107160238D01*
X245357142Y-107160238D02*
X245309523Y-107207857D01*
X245309523Y-107207857D02*
X245261904Y-107303095D01*
X245261904Y-107303095D02*
X245261904Y-107445952D01*
X245261904Y-107445952D02*
X245309523Y-107541190D01*
X245309523Y-107541190D02*
X245357142Y-107588809D01*
X245357142Y-107588809D02*
X245452380Y-107636428D01*
X245452380Y-107636428D02*
X245833332Y-107636428D01*
X244880951Y-107207857D02*
X244833332Y-107160238D01*
X244833332Y-107160238D02*
X244738094Y-107112619D01*
X244738094Y-107112619D02*
X244499999Y-107112619D01*
X244499999Y-107112619D02*
X244404761Y-107160238D01*
X244404761Y-107160238D02*
X244357142Y-107207857D01*
X244357142Y-107207857D02*
X244309523Y-107303095D01*
X244309523Y-107303095D02*
X244309523Y-107398333D01*
X244309523Y-107398333D02*
X244357142Y-107541190D01*
X244357142Y-107541190D02*
X244928570Y-108112619D01*
X244928570Y-108112619D02*
X244309523Y-108112619D01*
X243690475Y-107112619D02*
X243595237Y-107112619D01*
X243595237Y-107112619D02*
X243499999Y-107160238D01*
X243499999Y-107160238D02*
X243452380Y-107207857D01*
X243452380Y-107207857D02*
X243404761Y-107303095D01*
X243404761Y-107303095D02*
X243357142Y-107493571D01*
X243357142Y-107493571D02*
X243357142Y-107731666D01*
X243357142Y-107731666D02*
X243404761Y-107922142D01*
X243404761Y-107922142D02*
X243452380Y-108017380D01*
X243452380Y-108017380D02*
X243499999Y-108065000D01*
X243499999Y-108065000D02*
X243595237Y-108112619D01*
X243595237Y-108112619D02*
X243690475Y-108112619D01*
X243690475Y-108112619D02*
X243785713Y-108065000D01*
X243785713Y-108065000D02*
X243833332Y-108017380D01*
X243833332Y-108017380D02*
X243880951Y-107922142D01*
X243880951Y-107922142D02*
X243928570Y-107731666D01*
X243928570Y-107731666D02*
X243928570Y-107493571D01*
X243928570Y-107493571D02*
X243880951Y-107303095D01*
X243880951Y-107303095D02*
X243833332Y-107207857D01*
X243833332Y-107207857D02*
X243785713Y-107160238D01*
X243785713Y-107160238D02*
X243690475Y-107112619D01*
X245138094Y-129512619D02*
X244566666Y-129512619D01*
X244852380Y-130512619D02*
X244852380Y-129512619D01*
X244233332Y-130512619D02*
X244233332Y-129512619D01*
X244233332Y-129512619D02*
X243852380Y-129512619D01*
X243852380Y-129512619D02*
X243757142Y-129560238D01*
X243757142Y-129560238D02*
X243709523Y-129607857D01*
X243709523Y-129607857D02*
X243661904Y-129703095D01*
X243661904Y-129703095D02*
X243661904Y-129845952D01*
X243661904Y-129845952D02*
X243709523Y-129941190D01*
X243709523Y-129941190D02*
X243757142Y-129988809D01*
X243757142Y-129988809D02*
X243852380Y-130036428D01*
X243852380Y-130036428D02*
X244233332Y-130036428D01*
X243280951Y-129607857D02*
X243233332Y-129560238D01*
X243233332Y-129560238D02*
X243138094Y-129512619D01*
X243138094Y-129512619D02*
X242899999Y-129512619D01*
X242899999Y-129512619D02*
X242804761Y-129560238D01*
X242804761Y-129560238D02*
X242757142Y-129607857D01*
X242757142Y-129607857D02*
X242709523Y-129703095D01*
X242709523Y-129703095D02*
X242709523Y-129798333D01*
X242709523Y-129798333D02*
X242757142Y-129941190D01*
X242757142Y-129941190D02*
X243328570Y-130512619D01*
X243328570Y-130512619D02*
X242709523Y-130512619D01*
X241757142Y-130512619D02*
X242328570Y-130512619D01*
X242042856Y-130512619D02*
X242042856Y-129512619D01*
X242042856Y-129512619D02*
X242138094Y-129655476D01*
X242138094Y-129655476D02*
X242233332Y-129750714D01*
X242233332Y-129750714D02*
X242328570Y-129798333D01*
X262938094Y-135712619D02*
X262366666Y-135712619D01*
X262652380Y-136712619D02*
X262652380Y-135712619D01*
X262033332Y-136712619D02*
X262033332Y-135712619D01*
X262033332Y-135712619D02*
X261652380Y-135712619D01*
X261652380Y-135712619D02*
X261557142Y-135760238D01*
X261557142Y-135760238D02*
X261509523Y-135807857D01*
X261509523Y-135807857D02*
X261461904Y-135903095D01*
X261461904Y-135903095D02*
X261461904Y-136045952D01*
X261461904Y-136045952D02*
X261509523Y-136141190D01*
X261509523Y-136141190D02*
X261557142Y-136188809D01*
X261557142Y-136188809D02*
X261652380Y-136236428D01*
X261652380Y-136236428D02*
X262033332Y-136236428D01*
X260509523Y-136712619D02*
X261080951Y-136712619D01*
X260795237Y-136712619D02*
X260795237Y-135712619D01*
X260795237Y-135712619D02*
X260890475Y-135855476D01*
X260890475Y-135855476D02*
X260985713Y-135950714D01*
X260985713Y-135950714D02*
X261080951Y-135998333D01*
X260176189Y-135712619D02*
X259509523Y-135712619D01*
X259509523Y-135712619D02*
X259938094Y-136712619D01*
X232138094Y-123312619D02*
X231566666Y-123312619D01*
X231852380Y-124312619D02*
X231852380Y-123312619D01*
X231233332Y-124312619D02*
X231233332Y-123312619D01*
X231233332Y-123312619D02*
X230852380Y-123312619D01*
X230852380Y-123312619D02*
X230757142Y-123360238D01*
X230757142Y-123360238D02*
X230709523Y-123407857D01*
X230709523Y-123407857D02*
X230661904Y-123503095D01*
X230661904Y-123503095D02*
X230661904Y-123645952D01*
X230661904Y-123645952D02*
X230709523Y-123741190D01*
X230709523Y-123741190D02*
X230757142Y-123788809D01*
X230757142Y-123788809D02*
X230852380Y-123836428D01*
X230852380Y-123836428D02*
X231233332Y-123836428D01*
X229709523Y-124312619D02*
X230280951Y-124312619D01*
X229995237Y-124312619D02*
X229995237Y-123312619D01*
X229995237Y-123312619D02*
X230090475Y-123455476D01*
X230090475Y-123455476D02*
X230185713Y-123550714D01*
X230185713Y-123550714D02*
X230280951Y-123598333D01*
X229376189Y-123312619D02*
X228757142Y-123312619D01*
X228757142Y-123312619D02*
X229090475Y-123693571D01*
X229090475Y-123693571D02*
X228947618Y-123693571D01*
X228947618Y-123693571D02*
X228852380Y-123741190D01*
X228852380Y-123741190D02*
X228804761Y-123788809D01*
X228804761Y-123788809D02*
X228757142Y-123884047D01*
X228757142Y-123884047D02*
X228757142Y-124122142D01*
X228757142Y-124122142D02*
X228804761Y-124217380D01*
X228804761Y-124217380D02*
X228852380Y-124265000D01*
X228852380Y-124265000D02*
X228947618Y-124312619D01*
X228947618Y-124312619D02*
X229233332Y-124312619D01*
X229233332Y-124312619D02*
X229328570Y-124265000D01*
X229328570Y-124265000D02*
X229376189Y-124217380D01*
X214861904Y-144512619D02*
X214290476Y-144512619D01*
X214576190Y-145512619D02*
X214576190Y-144512619D01*
X213957142Y-145512619D02*
X213957142Y-144512619D01*
X213957142Y-144512619D02*
X213576190Y-144512619D01*
X213576190Y-144512619D02*
X213480952Y-144560238D01*
X213480952Y-144560238D02*
X213433333Y-144607857D01*
X213433333Y-144607857D02*
X213385714Y-144703095D01*
X213385714Y-144703095D02*
X213385714Y-144845952D01*
X213385714Y-144845952D02*
X213433333Y-144941190D01*
X213433333Y-144941190D02*
X213480952Y-144988809D01*
X213480952Y-144988809D02*
X213576190Y-145036428D01*
X213576190Y-145036428D02*
X213957142Y-145036428D01*
X213004761Y-144607857D02*
X212957142Y-144560238D01*
X212957142Y-144560238D02*
X212861904Y-144512619D01*
X212861904Y-144512619D02*
X212623809Y-144512619D01*
X212623809Y-144512619D02*
X212528571Y-144560238D01*
X212528571Y-144560238D02*
X212480952Y-144607857D01*
X212480952Y-144607857D02*
X212433333Y-144703095D01*
X212433333Y-144703095D02*
X212433333Y-144798333D01*
X212433333Y-144798333D02*
X212480952Y-144941190D01*
X212480952Y-144941190D02*
X213052380Y-145512619D01*
X213052380Y-145512619D02*
X212433333Y-145512619D01*
X213338094Y-125412619D02*
X212766666Y-125412619D01*
X213052380Y-126412619D02*
X213052380Y-125412619D01*
X212433332Y-126412619D02*
X212433332Y-125412619D01*
X212433332Y-125412619D02*
X212052380Y-125412619D01*
X212052380Y-125412619D02*
X211957142Y-125460238D01*
X211957142Y-125460238D02*
X211909523Y-125507857D01*
X211909523Y-125507857D02*
X211861904Y-125603095D01*
X211861904Y-125603095D02*
X211861904Y-125745952D01*
X211861904Y-125745952D02*
X211909523Y-125841190D01*
X211909523Y-125841190D02*
X211957142Y-125888809D01*
X211957142Y-125888809D02*
X212052380Y-125936428D01*
X212052380Y-125936428D02*
X212433332Y-125936428D01*
X210909523Y-126412619D02*
X211480951Y-126412619D01*
X211195237Y-126412619D02*
X211195237Y-125412619D01*
X211195237Y-125412619D02*
X211290475Y-125555476D01*
X211290475Y-125555476D02*
X211385713Y-125650714D01*
X211385713Y-125650714D02*
X211480951Y-125698333D01*
X210290475Y-125412619D02*
X210195237Y-125412619D01*
X210195237Y-125412619D02*
X210099999Y-125460238D01*
X210099999Y-125460238D02*
X210052380Y-125507857D01*
X210052380Y-125507857D02*
X210004761Y-125603095D01*
X210004761Y-125603095D02*
X209957142Y-125793571D01*
X209957142Y-125793571D02*
X209957142Y-126031666D01*
X209957142Y-126031666D02*
X210004761Y-126222142D01*
X210004761Y-126222142D02*
X210052380Y-126317380D01*
X210052380Y-126317380D02*
X210099999Y-126365000D01*
X210099999Y-126365000D02*
X210195237Y-126412619D01*
X210195237Y-126412619D02*
X210290475Y-126412619D01*
X210290475Y-126412619D02*
X210385713Y-126365000D01*
X210385713Y-126365000D02*
X210433332Y-126317380D01*
X210433332Y-126317380D02*
X210480951Y-126222142D01*
X210480951Y-126222142D02*
X210528570Y-126031666D01*
X210528570Y-126031666D02*
X210528570Y-125793571D01*
X210528570Y-125793571D02*
X210480951Y-125603095D01*
X210480951Y-125603095D02*
X210433332Y-125507857D01*
X210433332Y-125507857D02*
X210385713Y-125460238D01*
X210385713Y-125460238D02*
X210290475Y-125412619D01*
X262174333Y-145105619D02*
X262174333Y-145819904D01*
X262174333Y-145819904D02*
X262221952Y-145962761D01*
X262221952Y-145962761D02*
X262317190Y-146058000D01*
X262317190Y-146058000D02*
X262460047Y-146105619D01*
X262460047Y-146105619D02*
X262555285Y-146105619D01*
X261221952Y-145105619D02*
X261698142Y-145105619D01*
X261698142Y-145105619D02*
X261745761Y-145581809D01*
X261745761Y-145581809D02*
X261698142Y-145534190D01*
X261698142Y-145534190D02*
X261602904Y-145486571D01*
X261602904Y-145486571D02*
X261364809Y-145486571D01*
X261364809Y-145486571D02*
X261269571Y-145534190D01*
X261269571Y-145534190D02*
X261221952Y-145581809D01*
X261221952Y-145581809D02*
X261174333Y-145677047D01*
X261174333Y-145677047D02*
X261174333Y-145915142D01*
X261174333Y-145915142D02*
X261221952Y-146010380D01*
X261221952Y-146010380D02*
X261269571Y-146058000D01*
X261269571Y-146058000D02*
X261364809Y-146105619D01*
X261364809Y-146105619D02*
X261602904Y-146105619D01*
X261602904Y-146105619D02*
X261698142Y-146058000D01*
X261698142Y-146058000D02*
X261745761Y-146010380D01*
X253038094Y-145212619D02*
X252466666Y-145212619D01*
X252752380Y-146212619D02*
X252752380Y-145212619D01*
X252133332Y-146212619D02*
X252133332Y-145212619D01*
X252133332Y-145212619D02*
X251752380Y-145212619D01*
X251752380Y-145212619D02*
X251657142Y-145260238D01*
X251657142Y-145260238D02*
X251609523Y-145307857D01*
X251609523Y-145307857D02*
X251561904Y-145403095D01*
X251561904Y-145403095D02*
X251561904Y-145545952D01*
X251561904Y-145545952D02*
X251609523Y-145641190D01*
X251609523Y-145641190D02*
X251657142Y-145688809D01*
X251657142Y-145688809D02*
X251752380Y-145736428D01*
X251752380Y-145736428D02*
X252133332Y-145736428D01*
X251180951Y-145307857D02*
X251133332Y-145260238D01*
X251133332Y-145260238D02*
X251038094Y-145212619D01*
X251038094Y-145212619D02*
X250799999Y-145212619D01*
X250799999Y-145212619D02*
X250704761Y-145260238D01*
X250704761Y-145260238D02*
X250657142Y-145307857D01*
X250657142Y-145307857D02*
X250609523Y-145403095D01*
X250609523Y-145403095D02*
X250609523Y-145498333D01*
X250609523Y-145498333D02*
X250657142Y-145641190D01*
X250657142Y-145641190D02*
X251228570Y-146212619D01*
X251228570Y-146212619D02*
X250609523Y-146212619D01*
X250228570Y-145307857D02*
X250180951Y-145260238D01*
X250180951Y-145260238D02*
X250085713Y-145212619D01*
X250085713Y-145212619D02*
X249847618Y-145212619D01*
X249847618Y-145212619D02*
X249752380Y-145260238D01*
X249752380Y-145260238D02*
X249704761Y-145307857D01*
X249704761Y-145307857D02*
X249657142Y-145403095D01*
X249657142Y-145403095D02*
X249657142Y-145498333D01*
X249657142Y-145498333D02*
X249704761Y-145641190D01*
X249704761Y-145641190D02*
X250276189Y-146212619D01*
X250276189Y-146212619D02*
X249657142Y-146212619D01*
X233461904Y-146512619D02*
X232890476Y-146512619D01*
X233176190Y-147512619D02*
X233176190Y-146512619D01*
X232557142Y-147512619D02*
X232557142Y-146512619D01*
X232557142Y-146512619D02*
X232176190Y-146512619D01*
X232176190Y-146512619D02*
X232080952Y-146560238D01*
X232080952Y-146560238D02*
X232033333Y-146607857D01*
X232033333Y-146607857D02*
X231985714Y-146703095D01*
X231985714Y-146703095D02*
X231985714Y-146845952D01*
X231985714Y-146845952D02*
X232033333Y-146941190D01*
X232033333Y-146941190D02*
X232080952Y-146988809D01*
X232080952Y-146988809D02*
X232176190Y-147036428D01*
X232176190Y-147036428D02*
X232557142Y-147036428D01*
X231128571Y-146845952D02*
X231128571Y-147512619D01*
X231366666Y-146465000D02*
X231604761Y-147179285D01*
X231604761Y-147179285D02*
X230985714Y-147179285D01*
X226838094Y-144712619D02*
X226266666Y-144712619D01*
X226552380Y-145712619D02*
X226552380Y-144712619D01*
X225933332Y-145712619D02*
X225933332Y-144712619D01*
X225933332Y-144712619D02*
X225552380Y-144712619D01*
X225552380Y-144712619D02*
X225457142Y-144760238D01*
X225457142Y-144760238D02*
X225409523Y-144807857D01*
X225409523Y-144807857D02*
X225361904Y-144903095D01*
X225361904Y-144903095D02*
X225361904Y-145045952D01*
X225361904Y-145045952D02*
X225409523Y-145141190D01*
X225409523Y-145141190D02*
X225457142Y-145188809D01*
X225457142Y-145188809D02*
X225552380Y-145236428D01*
X225552380Y-145236428D02*
X225933332Y-145236428D01*
X224980951Y-144807857D02*
X224933332Y-144760238D01*
X224933332Y-144760238D02*
X224838094Y-144712619D01*
X224838094Y-144712619D02*
X224599999Y-144712619D01*
X224599999Y-144712619D02*
X224504761Y-144760238D01*
X224504761Y-144760238D02*
X224457142Y-144807857D01*
X224457142Y-144807857D02*
X224409523Y-144903095D01*
X224409523Y-144903095D02*
X224409523Y-144998333D01*
X224409523Y-144998333D02*
X224457142Y-145141190D01*
X224457142Y-145141190D02*
X225028570Y-145712619D01*
X225028570Y-145712619D02*
X224409523Y-145712619D01*
X224076189Y-144712619D02*
X223457142Y-144712619D01*
X223457142Y-144712619D02*
X223790475Y-145093571D01*
X223790475Y-145093571D02*
X223647618Y-145093571D01*
X223647618Y-145093571D02*
X223552380Y-145141190D01*
X223552380Y-145141190D02*
X223504761Y-145188809D01*
X223504761Y-145188809D02*
X223457142Y-145284047D01*
X223457142Y-145284047D02*
X223457142Y-145522142D01*
X223457142Y-145522142D02*
X223504761Y-145617380D01*
X223504761Y-145617380D02*
X223552380Y-145665000D01*
X223552380Y-145665000D02*
X223647618Y-145712619D01*
X223647618Y-145712619D02*
X223933332Y-145712619D01*
X223933332Y-145712619D02*
X224028570Y-145665000D01*
X224028570Y-145665000D02*
X224076189Y-145617380D01*
X222638094Y-144812619D02*
X222066666Y-144812619D01*
X222352380Y-145812619D02*
X222352380Y-144812619D01*
X221733332Y-145812619D02*
X221733332Y-144812619D01*
X221733332Y-144812619D02*
X221352380Y-144812619D01*
X221352380Y-144812619D02*
X221257142Y-144860238D01*
X221257142Y-144860238D02*
X221209523Y-144907857D01*
X221209523Y-144907857D02*
X221161904Y-145003095D01*
X221161904Y-145003095D02*
X221161904Y-145145952D01*
X221161904Y-145145952D02*
X221209523Y-145241190D01*
X221209523Y-145241190D02*
X221257142Y-145288809D01*
X221257142Y-145288809D02*
X221352380Y-145336428D01*
X221352380Y-145336428D02*
X221733332Y-145336428D01*
X220780951Y-144907857D02*
X220733332Y-144860238D01*
X220733332Y-144860238D02*
X220638094Y-144812619D01*
X220638094Y-144812619D02*
X220399999Y-144812619D01*
X220399999Y-144812619D02*
X220304761Y-144860238D01*
X220304761Y-144860238D02*
X220257142Y-144907857D01*
X220257142Y-144907857D02*
X220209523Y-145003095D01*
X220209523Y-145003095D02*
X220209523Y-145098333D01*
X220209523Y-145098333D02*
X220257142Y-145241190D01*
X220257142Y-145241190D02*
X220828570Y-145812619D01*
X220828570Y-145812619D02*
X220209523Y-145812619D01*
X219352380Y-145145952D02*
X219352380Y-145812619D01*
X219590475Y-144765000D02*
X219828570Y-145479285D01*
X219828570Y-145479285D02*
X219209523Y-145479285D01*
X241438094Y-135712619D02*
X240866666Y-135712619D01*
X241152380Y-136712619D02*
X241152380Y-135712619D01*
X240533332Y-136712619D02*
X240533332Y-135712619D01*
X240533332Y-135712619D02*
X240152380Y-135712619D01*
X240152380Y-135712619D02*
X240057142Y-135760238D01*
X240057142Y-135760238D02*
X240009523Y-135807857D01*
X240009523Y-135807857D02*
X239961904Y-135903095D01*
X239961904Y-135903095D02*
X239961904Y-136045952D01*
X239961904Y-136045952D02*
X240009523Y-136141190D01*
X240009523Y-136141190D02*
X240057142Y-136188809D01*
X240057142Y-136188809D02*
X240152380Y-136236428D01*
X240152380Y-136236428D02*
X240533332Y-136236428D01*
X239580951Y-135807857D02*
X239533332Y-135760238D01*
X239533332Y-135760238D02*
X239438094Y-135712619D01*
X239438094Y-135712619D02*
X239199999Y-135712619D01*
X239199999Y-135712619D02*
X239104761Y-135760238D01*
X239104761Y-135760238D02*
X239057142Y-135807857D01*
X239057142Y-135807857D02*
X239009523Y-135903095D01*
X239009523Y-135903095D02*
X239009523Y-135998333D01*
X239009523Y-135998333D02*
X239057142Y-136141190D01*
X239057142Y-136141190D02*
X239628570Y-136712619D01*
X239628570Y-136712619D02*
X239009523Y-136712619D01*
X238104761Y-135712619D02*
X238580951Y-135712619D01*
X238580951Y-135712619D02*
X238628570Y-136188809D01*
X238628570Y-136188809D02*
X238580951Y-136141190D01*
X238580951Y-136141190D02*
X238485713Y-136093571D01*
X238485713Y-136093571D02*
X238247618Y-136093571D01*
X238247618Y-136093571D02*
X238152380Y-136141190D01*
X238152380Y-136141190D02*
X238104761Y-136188809D01*
X238104761Y-136188809D02*
X238057142Y-136284047D01*
X238057142Y-136284047D02*
X238057142Y-136522142D01*
X238057142Y-136522142D02*
X238104761Y-136617380D01*
X238104761Y-136617380D02*
X238152380Y-136665000D01*
X238152380Y-136665000D02*
X238247618Y-136712619D01*
X238247618Y-136712619D02*
X238485713Y-136712619D01*
X238485713Y-136712619D02*
X238580951Y-136665000D01*
X238580951Y-136665000D02*
X238628570Y-136617380D01*
X215474333Y-145305619D02*
X215474333Y-146019904D01*
X215474333Y-146019904D02*
X215521952Y-146162761D01*
X215521952Y-146162761D02*
X215617190Y-146258000D01*
X215617190Y-146258000D02*
X215760047Y-146305619D01*
X215760047Y-146305619D02*
X215855285Y-146305619D01*
X214569571Y-145638952D02*
X214569571Y-146305619D01*
X214807666Y-145258000D02*
X215045761Y-145972285D01*
X215045761Y-145972285D02*
X214426714Y-145972285D01*
X226474333Y-145305619D02*
X226474333Y-146019904D01*
X226474333Y-146019904D02*
X226521952Y-146162761D01*
X226521952Y-146162761D02*
X226617190Y-146258000D01*
X226617190Y-146258000D02*
X226760047Y-146305619D01*
X226760047Y-146305619D02*
X226855285Y-146305619D01*
X226045761Y-145400857D02*
X225998142Y-145353238D01*
X225998142Y-145353238D02*
X225902904Y-145305619D01*
X225902904Y-145305619D02*
X225664809Y-145305619D01*
X225664809Y-145305619D02*
X225569571Y-145353238D01*
X225569571Y-145353238D02*
X225521952Y-145400857D01*
X225521952Y-145400857D02*
X225474333Y-145496095D01*
X225474333Y-145496095D02*
X225474333Y-145591333D01*
X225474333Y-145591333D02*
X225521952Y-145734190D01*
X225521952Y-145734190D02*
X226093380Y-146305619D01*
X226093380Y-146305619D02*
X225474333Y-146305619D01*
D11*
X242500000Y-125900000D02*
X242500000Y-130900000D01*
X242100000Y-131300000D02*
X236869400Y-131300000D01*
X240400000Y-129700000D02*
X224200000Y-129700000D01*
X240400000Y-127100000D02*
X240400000Y-129700000D01*
X236869400Y-125500000D02*
X242100000Y-125500000D01*
X224200000Y-127100000D02*
X240400000Y-127100000D01*
X216828800Y-136121600D02*
X217743200Y-135283400D01*
X216828800Y-120678400D02*
X217768600Y-121542000D01*
X242100000Y-131300000D02*
G75*
G03*
X242500000Y-130900000I1J399999D01*
G01*
X242500000Y-125900000D02*
G75*
G03*
X242100000Y-125500000I-399999J1D01*
G01*
X236054277Y-124907818D02*
G75*
G03*
X236900000Y-125500000I845723J307818D01*
G01*
X236900000Y-131300001D02*
G75*
G03*
X236054278Y-131892182I0J-899999D01*
G01*
X213799701Y-128324649D02*
G75*
G03*
X236050000Y-131900000I11400299J-75351D01*
G01*
X215200001Y-127100000D02*
G75*
G03*
X235199999Y-129700000I9999999J-1300000D01*
G01*
X218868450Y-128196369D02*
G75*
G03*
X231400000Y-129700000I6331550J-203631D01*
G01*
X222904553Y-128224167D02*
G75*
G03*
X227099999Y-129699999I2295447J-175833D01*
G01*
X224200000Y-127100000D02*
G75*
G03*
X224200000Y-129700000I0J-1300000D01*
G01*
X227099999Y-127100001D02*
G75*
G03*
X222904553Y-128575833I-1899999J-1299999D01*
G01*
X231400000Y-127100000D02*
G75*
G03*
X218868450Y-128603631I-6200000J-1300000D01*
G01*
X235199999Y-127100000D02*
G75*
G03*
X215200001Y-129700000I-9999999J-1300000D01*
G01*
X236050000Y-124900000D02*
G75*
G03*
X213799701Y-128475351I-10850000J-3500000D01*
G01*
X237660000Y-151110000D02*
X235160000Y-151110000D01*
X237660000Y-148610000D02*
X237660000Y-151110000D01*
X237250000Y-150700000D02*
X229750000Y-150700000D01*
X237250000Y-146900000D02*
X237250000Y-150700000D01*
X229750000Y-150700000D02*
X229750000Y-146900000D01*
X229750000Y-146900000D02*
X237250000Y-146900000D01*
M02*
