G04 #@! TF.GenerationSoftware,KiCad,Pcbnew,7.0.1*
G04 #@! TF.CreationDate,2023-05-18T20:02:14+01:00*
G04 #@! TF.ProjectId,AnthC,416e7468-432e-46b6-9963-61645f706362,rev?*
G04 #@! TF.SameCoordinates,Original*
G04 #@! TF.FileFunction,Legend,Top*
G04 #@! TF.FilePolarity,Positive*
%FSLAX46Y46*%
G04 Gerber Fmt 4.6, Leading zero omitted, Abs format (unit mm)*
G04 Created by KiCad (PCBNEW 7.0.1) date 2023-05-18 20:02:14*
%MOMM*%
%LPD*%
G01*
G04 APERTURE LIST*
G04 Aperture macros list*
%AMRoundRect*
0 Rectangle with rounded corners*
0 $1 Rounding radius*
0 $2 $3 $4 $5 $6 $7 $8 $9 X,Y pos of 4 corners*
0 Add a 4 corners polygon primitive as box body*
4,1,4,$2,$3,$4,$5,$6,$7,$8,$9,$2,$3,0*
0 Add four circle primitives for the rounded corners*
1,1,$1+$1,$2,$3*
1,1,$1+$1,$4,$5*
1,1,$1+$1,$6,$7*
1,1,$1+$1,$8,$9*
0 Add four rect primitives between the rounded corners*
20,1,$1+$1,$2,$3,$4,$5,0*
20,1,$1+$1,$4,$5,$6,$7,0*
20,1,$1+$1,$6,$7,$8,$9,0*
20,1,$1+$1,$8,$9,$2,$3,0*%
G04 Aperture macros list end*
%ADD10C,0.150000*%
%ADD11C,0.300000*%
%ADD12C,0.120000*%
%ADD13C,0.100000*%
%ADD14C,0.500000*%
%ADD15C,0.200000*%
%ADD16C,0.400000*%
%ADD17RoundRect,0.200000X0.600000X-0.450000X0.600000X0.450000X-0.600000X0.450000X-0.600000X-0.450000X0*%
%ADD18RoundRect,0.350000X0.825000X0.150000X-0.825000X0.150000X-0.825000X-0.150000X0.825000X-0.150000X0*%
%ADD19RoundRect,0.450000X-0.650000X0.250000X-0.650000X-0.250000X0.650000X-0.250000X0.650000X0.250000X0*%
%ADD20RoundRect,0.425000X0.225000X0.250000X-0.225000X0.250000X-0.225000X-0.250000X0.225000X-0.250000X0*%
%ADD21RoundRect,0.340000X-0.140000X-0.170000X0.140000X-0.170000X0.140000X0.170000X-0.140000X0.170000X0*%
%ADD22C,3.600000*%
%ADD23RoundRect,0.400000X-0.200000X-0.275000X0.200000X-0.275000X0.200000X0.275000X-0.200000X0.275000X0*%
%ADD24RoundRect,0.400000X-0.275000X0.200000X-0.275000X-0.200000X0.275000X-0.200000X0.275000X0.200000X0*%
%ADD25RoundRect,0.400000X0.200000X0.275000X-0.200000X0.275000X-0.200000X-0.275000X0.200000X-0.275000X0*%
%ADD26RoundRect,0.425000X0.250000X-0.225000X0.250000X0.225000X-0.250000X0.225000X-0.250000X-0.225000X0*%
%ADD27RoundRect,0.200000X0.450000X0.400000X-0.450000X0.400000X-0.450000X-0.400000X0.450000X-0.400000X0*%
%ADD28RoundRect,0.425000X-0.250000X0.225000X-0.250000X-0.225000X0.250000X-0.225000X0.250000X0.225000X0*%
%ADD29RoundRect,0.449999X0.325001X0.650001X-0.325001X0.650001X-0.325001X-0.650001X0.325001X-0.650001X0*%
%ADD30RoundRect,0.500000X0.675000X0.000000X-0.675000X0.000000X-0.675000X0.000000X0.675000X0.000000X0*%
%ADD31RoundRect,0.200000X-0.330000X-0.250000X0.330000X-0.250000X0.330000X0.250000X-0.330000X0.250000X0*%
%ADD32RoundRect,0.400000X0.275000X-0.200000X0.275000X0.200000X-0.275000X0.200000X-0.275000X-0.200000X0*%
%ADD33RoundRect,0.425000X-0.225000X-0.250000X0.225000X-0.250000X0.225000X0.250000X-0.225000X0.250000X0*%
%ADD34RoundRect,0.200000X0.400000X-0.450000X0.400000X0.450000X-0.400000X0.450000X-0.400000X-0.450000X0*%
%ADD35RoundRect,0.418750X-0.218750X-0.256250X0.218750X-0.256250X0.218750X0.256250X-0.218750X0.256250X0*%
%ADD36RoundRect,0.500000X0.000000X-0.675000X0.000000X0.675000X0.000000X0.675000X0.000000X-0.675000X0*%
%ADD37RoundRect,0.350000X0.150000X-0.825000X0.150000X0.825000X-0.150000X0.825000X-0.150000X-0.825000X0*%
%ADD38RoundRect,0.340000X0.170000X-0.140000X0.170000X0.140000X-0.170000X0.140000X-0.170000X-0.140000X0*%
%ADD39RoundRect,0.200000X0.450000X0.600000X-0.450000X0.600000X-0.450000X-0.600000X0.450000X-0.600000X0*%
%ADD40RoundRect,0.200000X-0.600000X0.450000X-0.600000X-0.450000X0.600000X-0.450000X0.600000X0.450000X0*%
%ADD41RoundRect,0.200000X0.330000X0.250000X-0.330000X0.250000X-0.330000X-0.250000X0.330000X-0.250000X0*%
%ADD42RoundRect,0.200000X1.500000X-1.145000X1.500000X1.145000X-1.500000X1.145000X-1.500000X-1.145000X0*%
%ADD43RoundRect,0.575000X0.375000X0.875000X-0.375000X0.875000X-0.375000X-0.875000X0.375000X-0.875000X0*%
%ADD44RoundRect,0.255500X0.694500X1.194500X-0.694500X1.194500X-0.694500X-1.194500X0.694500X-1.194500X0*%
%ADD45RoundRect,0.562500X0.362500X2.387500X-0.362500X2.387500X-0.362500X-2.387500X0.362500X-2.387500X0*%
%ADD46RoundRect,0.200000X0.725000X2.750000X-0.725000X2.750000X-0.725000X-2.750000X0.725000X-2.750000X0*%
%ADD47RoundRect,0.300000X0.217500X0.100000X-0.217500X0.100000X-0.217500X-0.100000X0.217500X-0.100000X0*%
%ADD48RoundRect,0.200000X-0.400000X0.450000X-0.400000X-0.450000X0.400000X-0.450000X0.400000X0.450000X0*%
%ADD49RoundRect,0.200000X0.450000X-1.000000X0.450000X1.000000X-0.450000X1.000000X-0.450000X-1.000000X0*%
%ADD50RoundRect,0.200000X1.000000X0.450000X-1.000000X0.450000X-1.000000X-0.450000X1.000000X-0.450000X0*%
%ADD51RoundRect,0.200000X0.450000X-0.450000X0.450000X0.450000X-0.450000X0.450000X-0.450000X-0.450000X0*%
%ADD52C,1.000000*%
%ADD53RoundRect,0.200000X-0.450000X-0.600000X0.450000X-0.600000X0.450000X0.600000X-0.450000X0.600000X0*%
%ADD54RoundRect,0.200000X1.250000X1.150000X-1.250000X1.150000X-1.250000X-1.150000X1.250000X-1.150000X0*%
%ADD55RoundRect,0.449999X-0.325001X-0.650001X0.325001X-0.650001X0.325001X0.650001X-0.325001X0.650001X0*%
%ADD56RoundRect,0.262500X-0.350000X-0.062500X0.350000X-0.062500X0.350000X0.062500X-0.350000X0.062500X0*%
%ADD57RoundRect,0.262500X-0.062500X-0.350000X0.062500X-0.350000X0.062500X0.350000X-0.062500X0.350000X0*%
%ADD58RoundRect,0.200000X-0.850000X-0.850000X0.850000X-0.850000X0.850000X0.850000X-0.850000X0.850000X0*%
%ADD59RoundRect,0.200000X-0.450000X-0.400000X0.450000X-0.400000X0.450000X0.400000X-0.450000X0.400000X0*%
%ADD60RoundRect,0.200000X0.850000X-0.850000X0.850000X0.850000X-0.850000X0.850000X-0.850000X-0.850000X0*%
%ADD61O,2.100000X2.100000*%
%ADD62C,1.050000*%
%ADD63RoundRect,0.200000X-0.300000X-0.575000X0.300000X-0.575000X0.300000X0.575000X-0.300000X0.575000X0*%
%ADD64RoundRect,0.200000X-0.150000X-0.575000X0.150000X-0.575000X0.150000X0.575000X-0.150000X0.575000X0*%
%ADD65O,1.400000X2.400000*%
%ADD66O,1.450000X2.500000*%
%ADD67RoundRect,0.449999X-0.650001X0.325001X-0.650001X-0.325001X0.650001X-0.325001X0.650001X0.325001X0*%
%ADD68RoundRect,0.200000X-1.300000X-1.300000X1.300000X-1.300000X1.300000X1.300000X-1.300000X1.300000X0*%
%ADD69RoundRect,0.275000X0.175000X0.075000X-0.175000X0.075000X-0.175000X-0.075000X0.175000X-0.075000X0*%
%ADD70RoundRect,0.350000X-0.725000X-0.150000X0.725000X-0.150000X0.725000X0.150000X-0.725000X0.150000X0*%
%ADD71RoundRect,0.418750X-0.256250X0.218750X-0.256250X-0.218750X0.256250X-0.218750X0.256250X0.218750X0*%
%ADD72RoundRect,0.200000X-0.825000X-1.190000X0.825000X-1.190000X0.825000X1.190000X-0.825000X1.190000X0*%
%ADD73RoundRect,0.262500X-0.362500X-0.062500X0.362500X-0.062500X0.362500X0.062500X-0.362500X0.062500X0*%
%ADD74RoundRect,0.449999X0.650001X-0.325001X0.650001X0.325001X-0.650001X0.325001X-0.650001X-0.325001X0*%
%ADD75RoundRect,0.200000X-1.250000X-0.900000X1.250000X-0.900000X1.250000X0.900000X-1.250000X0.900000X0*%
%ADD76RoundRect,0.200000X-1.100000X-0.600000X1.100000X-0.600000X1.100000X0.600000X-1.100000X0.600000X0*%
%ADD77RoundRect,0.200000X-3.200000X-2.900000X3.200000X-2.900000X3.200000X2.900000X-3.200000X2.900000X0*%
%ADD78RoundRect,0.200000X-0.800000X0.800000X-0.800000X-0.800000X0.800000X-0.800000X0.800000X0.800000X0*%
%ADD79O,2.000000X2.000000*%
%ADD80RoundRect,0.200000X-0.500000X0.750000X-0.500000X-0.750000X0.500000X-0.750000X0.500000X0.750000X0*%
%ADD81RoundRect,0.250000X-0.050000X0.312500X-0.050000X-0.312500X0.050000X-0.312500X0.050000X0.312500X0*%
%ADD82RoundRect,0.250000X-0.312500X0.050000X-0.312500X-0.050000X0.312500X-0.050000X0.312500X0.050000X0*%
%ADD83RoundRect,0.200000X-0.925000X0.925000X-0.925000X-0.925000X0.925000X-0.925000X0.925000X0.925000X0*%
%ADD84RoundRect,0.650000X2.400000X-0.450000X2.400000X0.450000X-2.400000X0.450000X-2.400000X-0.450000X0*%
%ADD85RoundRect,0.200000X2.850000X-0.900000X2.850000X0.900000X-2.850000X0.900000X-2.850000X-0.900000X0*%
%ADD86RoundRect,0.312500X-0.202500X-0.112500X0.202500X-0.112500X0.202500X0.112500X-0.202500X0.112500X0*%
%ADD87RoundRect,0.200000X-0.315000X-0.225000X0.315000X-0.225000X0.315000X0.225000X-0.315000X0.225000X0*%
%ADD88RoundRect,0.200000X-0.400000X-0.525000X0.400000X-0.525000X0.400000X0.525000X-0.400000X0.525000X0*%
%ADD89RoundRect,0.200000X-0.175000X-0.300000X0.175000X-0.300000X0.175000X0.300000X-0.175000X0.300000X0*%
%ADD90RoundRect,0.200000X0.175000X0.300000X-0.175000X0.300000X-0.175000X-0.300000X0.175000X-0.300000X0*%
%ADD91RoundRect,0.200000X1.500000X1.500000X-1.500000X1.500000X-1.500000X-1.500000X1.500000X-1.500000X0*%
%ADD92C,3.400000*%
%ADD93O,2.100000X2.400000*%
%ADD94RoundRect,0.200000X0.850000X1.000000X-0.850000X1.000000X-0.850000X-1.000000X0.850000X-1.000000X0*%
%ADD95RoundRect,0.200000X1.300000X1.300000X-1.300000X1.300000X-1.300000X-1.300000X1.300000X-1.300000X0*%
%ADD96C,3.000000*%
G04 APERTURE END LIST*
D10*
X184159214Y-140914286D02*
X184159214Y-140485715D01*
X184416357Y-141000000D02*
X183516357Y-140700000D01*
X183516357Y-140700000D02*
X184416357Y-140400000D01*
X183816357Y-140100000D02*
X184416357Y-140100000D01*
X183902071Y-140100000D02*
X183859214Y-140057143D01*
X183859214Y-140057143D02*
X183816357Y-139971428D01*
X183816357Y-139971428D02*
X183816357Y-139842857D01*
X183816357Y-139842857D02*
X183859214Y-139757143D01*
X183859214Y-139757143D02*
X183944928Y-139714286D01*
X183944928Y-139714286D02*
X184416357Y-139714286D01*
X183816357Y-139414285D02*
X183816357Y-139071428D01*
X183516357Y-139285714D02*
X184287785Y-139285714D01*
X184287785Y-139285714D02*
X184373500Y-139242857D01*
X184373500Y-139242857D02*
X184416357Y-139157142D01*
X184416357Y-139157142D02*
X184416357Y-139071428D01*
X184416357Y-138771428D02*
X183516357Y-138771428D01*
X184416357Y-138385714D02*
X183944928Y-138385714D01*
X183944928Y-138385714D02*
X183859214Y-138428571D01*
X183859214Y-138428571D02*
X183816357Y-138514285D01*
X183816357Y-138514285D02*
X183816357Y-138642856D01*
X183816357Y-138642856D02*
X183859214Y-138728571D01*
X183859214Y-138728571D02*
X183902071Y-138771428D01*
X184330642Y-137442856D02*
X184373500Y-137485713D01*
X184373500Y-137485713D02*
X184416357Y-137614285D01*
X184416357Y-137614285D02*
X184416357Y-137699999D01*
X184416357Y-137699999D02*
X184373500Y-137828570D01*
X184373500Y-137828570D02*
X184287785Y-137914285D01*
X184287785Y-137914285D02*
X184202071Y-137957142D01*
X184202071Y-137957142D02*
X184030642Y-137999999D01*
X184030642Y-137999999D02*
X183902071Y-137999999D01*
X183902071Y-137999999D02*
X183730642Y-137957142D01*
X183730642Y-137957142D02*
X183644928Y-137914285D01*
X183644928Y-137914285D02*
X183559214Y-137828570D01*
X183559214Y-137828570D02*
X183516357Y-137699999D01*
X183516357Y-137699999D02*
X183516357Y-137614285D01*
X183516357Y-137614285D02*
X183559214Y-137485713D01*
X183559214Y-137485713D02*
X183602071Y-137442856D01*
X184073500Y-137057142D02*
X184073500Y-136371428D01*
X184416357Y-135942856D02*
X183516357Y-135942856D01*
X183516357Y-135942856D02*
X184159214Y-135642856D01*
X184159214Y-135642856D02*
X183516357Y-135342856D01*
X183516357Y-135342856D02*
X184416357Y-135342856D01*
X183602071Y-134957142D02*
X183559214Y-134914285D01*
X183559214Y-134914285D02*
X183516357Y-134828571D01*
X183516357Y-134828571D02*
X183516357Y-134614285D01*
X183516357Y-134614285D02*
X183559214Y-134528571D01*
X183559214Y-134528571D02*
X183602071Y-134485713D01*
X183602071Y-134485713D02*
X183687785Y-134442856D01*
X183687785Y-134442856D02*
X183773500Y-134442856D01*
X183773500Y-134442856D02*
X183902071Y-134485713D01*
X183902071Y-134485713D02*
X184416357Y-134999999D01*
X184416357Y-134999999D02*
X184416357Y-134442856D01*
X184416357Y-133542856D02*
X183987785Y-133842856D01*
X184416357Y-134057142D02*
X183516357Y-134057142D01*
X183516357Y-134057142D02*
X183516357Y-133714285D01*
X183516357Y-133714285D02*
X183559214Y-133628570D01*
X183559214Y-133628570D02*
X183602071Y-133585713D01*
X183602071Y-133585713D02*
X183687785Y-133542856D01*
X183687785Y-133542856D02*
X183816357Y-133542856D01*
X183816357Y-133542856D02*
X183902071Y-133585713D01*
X183902071Y-133585713D02*
X183944928Y-133628570D01*
X183944928Y-133628570D02*
X183987785Y-133714285D01*
X183987785Y-133714285D02*
X183987785Y-134057142D01*
X183516357Y-133242856D02*
X183516357Y-132685713D01*
X183516357Y-132685713D02*
X183859214Y-132985713D01*
X183859214Y-132985713D02*
X183859214Y-132857142D01*
X183859214Y-132857142D02*
X183902071Y-132771428D01*
X183902071Y-132771428D02*
X183944928Y-132728570D01*
X183944928Y-132728570D02*
X184030642Y-132685713D01*
X184030642Y-132685713D02*
X184244928Y-132685713D01*
X184244928Y-132685713D02*
X184330642Y-132728570D01*
X184330642Y-132728570D02*
X184373500Y-132771428D01*
X184373500Y-132771428D02*
X184416357Y-132857142D01*
X184416357Y-132857142D02*
X184416357Y-133114285D01*
X184416357Y-133114285D02*
X184373500Y-133199999D01*
X184373500Y-133199999D02*
X184330642Y-133242856D01*
X181493523Y-141790477D02*
X181493523Y-141409524D01*
X181722095Y-141866667D02*
X180922095Y-141600000D01*
X180922095Y-141600000D02*
X181722095Y-141333334D01*
X181188761Y-141066667D02*
X181722095Y-141066667D01*
X181264952Y-141066667D02*
X181226857Y-141028572D01*
X181226857Y-141028572D02*
X181188761Y-140952382D01*
X181188761Y-140952382D02*
X181188761Y-140838096D01*
X181188761Y-140838096D02*
X181226857Y-140761905D01*
X181226857Y-140761905D02*
X181303047Y-140723810D01*
X181303047Y-140723810D02*
X181722095Y-140723810D01*
X181188761Y-140457143D02*
X181188761Y-140152381D01*
X180922095Y-140342857D02*
X181607809Y-140342857D01*
X181607809Y-140342857D02*
X181684000Y-140304762D01*
X181684000Y-140304762D02*
X181722095Y-140228572D01*
X181722095Y-140228572D02*
X181722095Y-140152381D01*
X181722095Y-139885714D02*
X180922095Y-139885714D01*
X181722095Y-139542857D02*
X181303047Y-139542857D01*
X181303047Y-139542857D02*
X181226857Y-139580952D01*
X181226857Y-139580952D02*
X181188761Y-139657143D01*
X181188761Y-139657143D02*
X181188761Y-139771429D01*
X181188761Y-139771429D02*
X181226857Y-139847619D01*
X181226857Y-139847619D02*
X181264952Y-139885714D01*
X181722095Y-139161904D02*
X181188761Y-139161904D01*
X180922095Y-139161904D02*
X180960190Y-139200000D01*
X180960190Y-139200000D02*
X180998285Y-139161904D01*
X180998285Y-139161904D02*
X180960190Y-139123809D01*
X180960190Y-139123809D02*
X180922095Y-139161904D01*
X180922095Y-139161904D02*
X180998285Y-139161904D01*
X181722095Y-138666667D02*
X181684000Y-138742857D01*
X181684000Y-138742857D02*
X181607809Y-138780952D01*
X181607809Y-138780952D02*
X180922095Y-138780952D01*
X181722095Y-138247619D02*
X181684000Y-138323809D01*
X181684000Y-138323809D02*
X181607809Y-138361904D01*
X181607809Y-138361904D02*
X180922095Y-138361904D01*
X181722095Y-137599999D02*
X181303047Y-137599999D01*
X181303047Y-137599999D02*
X181226857Y-137638094D01*
X181226857Y-137638094D02*
X181188761Y-137714285D01*
X181188761Y-137714285D02*
X181188761Y-137866666D01*
X181188761Y-137866666D02*
X181226857Y-137942856D01*
X181684000Y-137599999D02*
X181722095Y-137676190D01*
X181722095Y-137676190D02*
X181722095Y-137866666D01*
X181722095Y-137866666D02*
X181684000Y-137942856D01*
X181684000Y-137942856D02*
X181607809Y-137980952D01*
X181607809Y-137980952D02*
X181531619Y-137980952D01*
X181531619Y-137980952D02*
X181455428Y-137942856D01*
X181455428Y-137942856D02*
X181417333Y-137866666D01*
X181417333Y-137866666D02*
X181417333Y-137676190D01*
X181417333Y-137676190D02*
X181379238Y-137599999D01*
X181684000Y-136647618D02*
X181722095Y-136571427D01*
X181722095Y-136571427D02*
X181722095Y-136419046D01*
X181722095Y-136419046D02*
X181684000Y-136342856D01*
X181684000Y-136342856D02*
X181607809Y-136304760D01*
X181607809Y-136304760D02*
X181569714Y-136304760D01*
X181569714Y-136304760D02*
X181493523Y-136342856D01*
X181493523Y-136342856D02*
X181455428Y-136419046D01*
X181455428Y-136419046D02*
X181455428Y-136533332D01*
X181455428Y-136533332D02*
X181417333Y-136609522D01*
X181417333Y-136609522D02*
X181341142Y-136647618D01*
X181341142Y-136647618D02*
X181303047Y-136647618D01*
X181303047Y-136647618D02*
X181226857Y-136609522D01*
X181226857Y-136609522D02*
X181188761Y-136533332D01*
X181188761Y-136533332D02*
X181188761Y-136419046D01*
X181188761Y-136419046D02*
X181226857Y-136342856D01*
X181722095Y-135961903D02*
X181188761Y-135961903D01*
X181341142Y-135961903D02*
X181264952Y-135923808D01*
X181264952Y-135923808D02*
X181226857Y-135885713D01*
X181226857Y-135885713D02*
X181188761Y-135809522D01*
X181188761Y-135809522D02*
X181188761Y-135733332D01*
X181722095Y-135352380D02*
X181684000Y-135428570D01*
X181684000Y-135428570D02*
X181607809Y-135466665D01*
X181607809Y-135466665D02*
X180922095Y-135466665D01*
X181684000Y-135009522D02*
X181722095Y-135009522D01*
X181722095Y-135009522D02*
X181798285Y-135047617D01*
X181798285Y-135047617D02*
X181836380Y-135085713D01*
X181722095Y-134057141D02*
X180922095Y-134057141D01*
X181188761Y-133790475D02*
X181188761Y-133485713D01*
X180922095Y-133676189D02*
X181607809Y-133676189D01*
X181607809Y-133676189D02*
X181684000Y-133638094D01*
X181684000Y-133638094D02*
X181722095Y-133561904D01*
X181722095Y-133561904D02*
X181722095Y-133485713D01*
X181722095Y-132876189D02*
X181303047Y-132876189D01*
X181303047Y-132876189D02*
X181226857Y-132914284D01*
X181226857Y-132914284D02*
X181188761Y-132990475D01*
X181188761Y-132990475D02*
X181188761Y-133142856D01*
X181188761Y-133142856D02*
X181226857Y-133219046D01*
X181684000Y-132876189D02*
X181722095Y-132952380D01*
X181722095Y-132952380D02*
X181722095Y-133142856D01*
X181722095Y-133142856D02*
X181684000Y-133219046D01*
X181684000Y-133219046D02*
X181607809Y-133257142D01*
X181607809Y-133257142D02*
X181531619Y-133257142D01*
X181531619Y-133257142D02*
X181455428Y-133219046D01*
X181455428Y-133219046D02*
X181417333Y-133142856D01*
X181417333Y-133142856D02*
X181417333Y-132952380D01*
X181417333Y-132952380D02*
X181379238Y-132876189D01*
X181722095Y-132380951D02*
X181684000Y-132457141D01*
X181684000Y-132457141D02*
X181607809Y-132495236D01*
X181607809Y-132495236D02*
X180922095Y-132495236D01*
X181188761Y-132152379D02*
X181722095Y-131961903D01*
X181188761Y-131771426D02*
X181722095Y-131961903D01*
X181722095Y-131961903D02*
X181912571Y-132038093D01*
X181912571Y-132038093D02*
X181950666Y-132076188D01*
X181950666Y-132076188D02*
X181988761Y-132152379D01*
X182484761Y-141847619D02*
X183018095Y-141695238D01*
X183018095Y-141695238D02*
X182637142Y-141542857D01*
X182637142Y-141542857D02*
X183018095Y-141390476D01*
X183018095Y-141390476D02*
X182484761Y-141238095D01*
X182484761Y-141009524D02*
X183018095Y-140857143D01*
X183018095Y-140857143D02*
X182637142Y-140704762D01*
X182637142Y-140704762D02*
X183018095Y-140552381D01*
X183018095Y-140552381D02*
X182484761Y-140400000D01*
X182484761Y-140171429D02*
X183018095Y-140019048D01*
X183018095Y-140019048D02*
X182637142Y-139866667D01*
X182637142Y-139866667D02*
X183018095Y-139714286D01*
X183018095Y-139714286D02*
X182484761Y-139561905D01*
X182941904Y-139257143D02*
X182980000Y-139219048D01*
X182980000Y-139219048D02*
X183018095Y-139257143D01*
X183018095Y-139257143D02*
X182980000Y-139295239D01*
X182980000Y-139295239D02*
X182941904Y-139257143D01*
X182941904Y-139257143D02*
X183018095Y-139257143D01*
X183018095Y-138533334D02*
X182599047Y-138533334D01*
X182599047Y-138533334D02*
X182522857Y-138571429D01*
X182522857Y-138571429D02*
X182484761Y-138647620D01*
X182484761Y-138647620D02*
X182484761Y-138800001D01*
X182484761Y-138800001D02*
X182522857Y-138876191D01*
X182980000Y-138533334D02*
X183018095Y-138609525D01*
X183018095Y-138609525D02*
X183018095Y-138800001D01*
X183018095Y-138800001D02*
X182980000Y-138876191D01*
X182980000Y-138876191D02*
X182903809Y-138914287D01*
X182903809Y-138914287D02*
X182827619Y-138914287D01*
X182827619Y-138914287D02*
X182751428Y-138876191D01*
X182751428Y-138876191D02*
X182713333Y-138800001D01*
X182713333Y-138800001D02*
X182713333Y-138609525D01*
X182713333Y-138609525D02*
X182675238Y-138533334D01*
X182484761Y-138152381D02*
X183018095Y-138152381D01*
X182560952Y-138152381D02*
X182522857Y-138114286D01*
X182522857Y-138114286D02*
X182484761Y-138038096D01*
X182484761Y-138038096D02*
X182484761Y-137923810D01*
X182484761Y-137923810D02*
X182522857Y-137847619D01*
X182522857Y-137847619D02*
X182599047Y-137809524D01*
X182599047Y-137809524D02*
X183018095Y-137809524D01*
X182484761Y-137542857D02*
X182484761Y-137238095D01*
X182218095Y-137428571D02*
X182903809Y-137428571D01*
X182903809Y-137428571D02*
X182980000Y-137390476D01*
X182980000Y-137390476D02*
X183018095Y-137314286D01*
X183018095Y-137314286D02*
X183018095Y-137238095D01*
X183018095Y-136971428D02*
X182218095Y-136971428D01*
X183018095Y-136628571D02*
X182599047Y-136628571D01*
X182599047Y-136628571D02*
X182522857Y-136666666D01*
X182522857Y-136666666D02*
X182484761Y-136742857D01*
X182484761Y-136742857D02*
X182484761Y-136857143D01*
X182484761Y-136857143D02*
X182522857Y-136933333D01*
X182522857Y-136933333D02*
X182560952Y-136971428D01*
X183018095Y-136247618D02*
X182484761Y-136247618D01*
X182218095Y-136247618D02*
X182256190Y-136285714D01*
X182256190Y-136285714D02*
X182294285Y-136247618D01*
X182294285Y-136247618D02*
X182256190Y-136209523D01*
X182256190Y-136209523D02*
X182218095Y-136247618D01*
X182218095Y-136247618D02*
X182294285Y-136247618D01*
X183018095Y-135752381D02*
X182980000Y-135828571D01*
X182980000Y-135828571D02*
X182903809Y-135866666D01*
X182903809Y-135866666D02*
X182218095Y-135866666D01*
X183018095Y-135333333D02*
X182980000Y-135409523D01*
X182980000Y-135409523D02*
X182903809Y-135447618D01*
X182903809Y-135447618D02*
X182218095Y-135447618D01*
X183018095Y-134685713D02*
X182599047Y-134685713D01*
X182599047Y-134685713D02*
X182522857Y-134723808D01*
X182522857Y-134723808D02*
X182484761Y-134799999D01*
X182484761Y-134799999D02*
X182484761Y-134952380D01*
X182484761Y-134952380D02*
X182522857Y-135028570D01*
X182980000Y-134685713D02*
X183018095Y-134761904D01*
X183018095Y-134761904D02*
X183018095Y-134952380D01*
X183018095Y-134952380D02*
X182980000Y-135028570D01*
X182980000Y-135028570D02*
X182903809Y-135066666D01*
X182903809Y-135066666D02*
X182827619Y-135066666D01*
X182827619Y-135066666D02*
X182751428Y-135028570D01*
X182751428Y-135028570D02*
X182713333Y-134952380D01*
X182713333Y-134952380D02*
X182713333Y-134761904D01*
X182713333Y-134761904D02*
X182675238Y-134685713D01*
X182941904Y-134304760D02*
X182980000Y-134266665D01*
X182980000Y-134266665D02*
X183018095Y-134304760D01*
X183018095Y-134304760D02*
X182980000Y-134342856D01*
X182980000Y-134342856D02*
X182941904Y-134304760D01*
X182941904Y-134304760D02*
X183018095Y-134304760D01*
X182980000Y-133580951D02*
X183018095Y-133657142D01*
X183018095Y-133657142D02*
X183018095Y-133809523D01*
X183018095Y-133809523D02*
X182980000Y-133885713D01*
X182980000Y-133885713D02*
X182941904Y-133923808D01*
X182941904Y-133923808D02*
X182865714Y-133961904D01*
X182865714Y-133961904D02*
X182637142Y-133961904D01*
X182637142Y-133961904D02*
X182560952Y-133923808D01*
X182560952Y-133923808D02*
X182522857Y-133885713D01*
X182522857Y-133885713D02*
X182484761Y-133809523D01*
X182484761Y-133809523D02*
X182484761Y-133657142D01*
X182484761Y-133657142D02*
X182522857Y-133580951D01*
X183018095Y-133123809D02*
X182980000Y-133199999D01*
X182980000Y-133199999D02*
X182941904Y-133238094D01*
X182941904Y-133238094D02*
X182865714Y-133276190D01*
X182865714Y-133276190D02*
X182637142Y-133276190D01*
X182637142Y-133276190D02*
X182560952Y-133238094D01*
X182560952Y-133238094D02*
X182522857Y-133199999D01*
X182522857Y-133199999D02*
X182484761Y-133123809D01*
X182484761Y-133123809D02*
X182484761Y-133009523D01*
X182484761Y-133009523D02*
X182522857Y-132933332D01*
X182522857Y-132933332D02*
X182560952Y-132895237D01*
X182560952Y-132895237D02*
X182637142Y-132857142D01*
X182637142Y-132857142D02*
X182865714Y-132857142D01*
X182865714Y-132857142D02*
X182941904Y-132895237D01*
X182941904Y-132895237D02*
X182980000Y-132933332D01*
X182980000Y-132933332D02*
X183018095Y-133009523D01*
X183018095Y-133009523D02*
X183018095Y-133123809D01*
X183018095Y-132514284D02*
X182484761Y-132514284D01*
X182560952Y-132514284D02*
X182522857Y-132476189D01*
X182522857Y-132476189D02*
X182484761Y-132399999D01*
X182484761Y-132399999D02*
X182484761Y-132285713D01*
X182484761Y-132285713D02*
X182522857Y-132209522D01*
X182522857Y-132209522D02*
X182599047Y-132171427D01*
X182599047Y-132171427D02*
X183018095Y-132171427D01*
X182599047Y-132171427D02*
X182522857Y-132133332D01*
X182522857Y-132133332D02*
X182484761Y-132057141D01*
X182484761Y-132057141D02*
X182484761Y-131942856D01*
X182484761Y-131942856D02*
X182522857Y-131866665D01*
X182522857Y-131866665D02*
X182599047Y-131828570D01*
X182599047Y-131828570D02*
X183018095Y-131828570D01*
X227238095Y-126712619D02*
X227238095Y-127522142D01*
X227238095Y-127522142D02*
X227285714Y-127617380D01*
X227285714Y-127617380D02*
X227333333Y-127665000D01*
X227333333Y-127665000D02*
X227428571Y-127712619D01*
X227428571Y-127712619D02*
X227619047Y-127712619D01*
X227619047Y-127712619D02*
X227714285Y-127665000D01*
X227714285Y-127665000D02*
X227761904Y-127617380D01*
X227761904Y-127617380D02*
X227809523Y-127522142D01*
X227809523Y-127522142D02*
X227809523Y-126712619D01*
X228190476Y-126712619D02*
X228857142Y-126712619D01*
X228857142Y-126712619D02*
X228428571Y-127712619D01*
X236773809Y-131736428D02*
X236773809Y-132212619D01*
X236440476Y-131212619D02*
X236773809Y-131736428D01*
X236773809Y-131736428D02*
X237107142Y-131212619D01*
X237964285Y-132212619D02*
X237392857Y-132212619D01*
X237678571Y-132212619D02*
X237678571Y-131212619D01*
X237678571Y-131212619D02*
X237583333Y-131355476D01*
X237583333Y-131355476D02*
X237488095Y-131450714D01*
X237488095Y-131450714D02*
X237392857Y-131498333D01*
X230562619Y-118142857D02*
X230086428Y-118476190D01*
X230562619Y-118714285D02*
X229562619Y-118714285D01*
X229562619Y-118714285D02*
X229562619Y-118333333D01*
X229562619Y-118333333D02*
X229610238Y-118238095D01*
X229610238Y-118238095D02*
X229657857Y-118190476D01*
X229657857Y-118190476D02*
X229753095Y-118142857D01*
X229753095Y-118142857D02*
X229895952Y-118142857D01*
X229895952Y-118142857D02*
X229991190Y-118190476D01*
X229991190Y-118190476D02*
X230038809Y-118238095D01*
X230038809Y-118238095D02*
X230086428Y-118333333D01*
X230086428Y-118333333D02*
X230086428Y-118714285D01*
X229657857Y-117761904D02*
X229610238Y-117714285D01*
X229610238Y-117714285D02*
X229562619Y-117619047D01*
X229562619Y-117619047D02*
X229562619Y-117380952D01*
X229562619Y-117380952D02*
X229610238Y-117285714D01*
X229610238Y-117285714D02*
X229657857Y-117238095D01*
X229657857Y-117238095D02*
X229753095Y-117190476D01*
X229753095Y-117190476D02*
X229848333Y-117190476D01*
X229848333Y-117190476D02*
X229991190Y-117238095D01*
X229991190Y-117238095D02*
X230562619Y-117809523D01*
X230562619Y-117809523D02*
X230562619Y-117190476D01*
X230562619Y-116714285D02*
X230562619Y-116523809D01*
X230562619Y-116523809D02*
X230515000Y-116428571D01*
X230515000Y-116428571D02*
X230467380Y-116380952D01*
X230467380Y-116380952D02*
X230324523Y-116285714D01*
X230324523Y-116285714D02*
X230134047Y-116238095D01*
X230134047Y-116238095D02*
X229753095Y-116238095D01*
X229753095Y-116238095D02*
X229657857Y-116285714D01*
X229657857Y-116285714D02*
X229610238Y-116333333D01*
X229610238Y-116333333D02*
X229562619Y-116428571D01*
X229562619Y-116428571D02*
X229562619Y-116619047D01*
X229562619Y-116619047D02*
X229610238Y-116714285D01*
X229610238Y-116714285D02*
X229657857Y-116761904D01*
X229657857Y-116761904D02*
X229753095Y-116809523D01*
X229753095Y-116809523D02*
X229991190Y-116809523D01*
X229991190Y-116809523D02*
X230086428Y-116761904D01*
X230086428Y-116761904D02*
X230134047Y-116714285D01*
X230134047Y-116714285D02*
X230181666Y-116619047D01*
X230181666Y-116619047D02*
X230181666Y-116428571D01*
X230181666Y-116428571D02*
X230134047Y-116333333D01*
X230134047Y-116333333D02*
X230086428Y-116285714D01*
X230086428Y-116285714D02*
X229991190Y-116238095D01*
X222238095Y-135262619D02*
X222238095Y-136072142D01*
X222238095Y-136072142D02*
X222285714Y-136167380D01*
X222285714Y-136167380D02*
X222333333Y-136215000D01*
X222333333Y-136215000D02*
X222428571Y-136262619D01*
X222428571Y-136262619D02*
X222619047Y-136262619D01*
X222619047Y-136262619D02*
X222714285Y-136215000D01*
X222714285Y-136215000D02*
X222761904Y-136167380D01*
X222761904Y-136167380D02*
X222809523Y-136072142D01*
X222809523Y-136072142D02*
X222809523Y-135262619D01*
X223714285Y-135595952D02*
X223714285Y-136262619D01*
X223476190Y-135215000D02*
X223238095Y-135929285D01*
X223238095Y-135929285D02*
X223857142Y-135929285D01*
X219607142Y-124712619D02*
X219273809Y-124236428D01*
X219035714Y-124712619D02*
X219035714Y-123712619D01*
X219035714Y-123712619D02*
X219416666Y-123712619D01*
X219416666Y-123712619D02*
X219511904Y-123760238D01*
X219511904Y-123760238D02*
X219559523Y-123807857D01*
X219559523Y-123807857D02*
X219607142Y-123903095D01*
X219607142Y-123903095D02*
X219607142Y-124045952D01*
X219607142Y-124045952D02*
X219559523Y-124141190D01*
X219559523Y-124141190D02*
X219511904Y-124188809D01*
X219511904Y-124188809D02*
X219416666Y-124236428D01*
X219416666Y-124236428D02*
X219035714Y-124236428D01*
X219940476Y-123712619D02*
X220559523Y-123712619D01*
X220559523Y-123712619D02*
X220226190Y-124093571D01*
X220226190Y-124093571D02*
X220369047Y-124093571D01*
X220369047Y-124093571D02*
X220464285Y-124141190D01*
X220464285Y-124141190D02*
X220511904Y-124188809D01*
X220511904Y-124188809D02*
X220559523Y-124284047D01*
X220559523Y-124284047D02*
X220559523Y-124522142D01*
X220559523Y-124522142D02*
X220511904Y-124617380D01*
X220511904Y-124617380D02*
X220464285Y-124665000D01*
X220464285Y-124665000D02*
X220369047Y-124712619D01*
X220369047Y-124712619D02*
X220083333Y-124712619D01*
X220083333Y-124712619D02*
X219988095Y-124665000D01*
X219988095Y-124665000D02*
X219940476Y-124617380D01*
X221464285Y-123712619D02*
X220988095Y-123712619D01*
X220988095Y-123712619D02*
X220940476Y-124188809D01*
X220940476Y-124188809D02*
X220988095Y-124141190D01*
X220988095Y-124141190D02*
X221083333Y-124093571D01*
X221083333Y-124093571D02*
X221321428Y-124093571D01*
X221321428Y-124093571D02*
X221416666Y-124141190D01*
X221416666Y-124141190D02*
X221464285Y-124188809D01*
X221464285Y-124188809D02*
X221511904Y-124284047D01*
X221511904Y-124284047D02*
X221511904Y-124522142D01*
X221511904Y-124522142D02*
X221464285Y-124617380D01*
X221464285Y-124617380D02*
X221416666Y-124665000D01*
X221416666Y-124665000D02*
X221321428Y-124712619D01*
X221321428Y-124712619D02*
X221083333Y-124712619D01*
X221083333Y-124712619D02*
X220988095Y-124665000D01*
X220988095Y-124665000D02*
X220940476Y-124617380D01*
X214104761Y-125807857D02*
X214009523Y-125760238D01*
X214009523Y-125760238D02*
X213914285Y-125665000D01*
X213914285Y-125665000D02*
X213771428Y-125522142D01*
X213771428Y-125522142D02*
X213676190Y-125474523D01*
X213676190Y-125474523D02*
X213580952Y-125474523D01*
X213628571Y-125712619D02*
X213533333Y-125665000D01*
X213533333Y-125665000D02*
X213438095Y-125569761D01*
X213438095Y-125569761D02*
X213390476Y-125379285D01*
X213390476Y-125379285D02*
X213390476Y-125045952D01*
X213390476Y-125045952D02*
X213438095Y-124855476D01*
X213438095Y-124855476D02*
X213533333Y-124760238D01*
X213533333Y-124760238D02*
X213628571Y-124712619D01*
X213628571Y-124712619D02*
X213819047Y-124712619D01*
X213819047Y-124712619D02*
X213914285Y-124760238D01*
X213914285Y-124760238D02*
X214009523Y-124855476D01*
X214009523Y-124855476D02*
X214057142Y-125045952D01*
X214057142Y-125045952D02*
X214057142Y-125379285D01*
X214057142Y-125379285D02*
X214009523Y-125569761D01*
X214009523Y-125569761D02*
X213914285Y-125665000D01*
X213914285Y-125665000D02*
X213819047Y-125712619D01*
X213819047Y-125712619D02*
X213628571Y-125712619D01*
X215009523Y-125712619D02*
X214438095Y-125712619D01*
X214723809Y-125712619D02*
X214723809Y-124712619D01*
X214723809Y-124712619D02*
X214628571Y-124855476D01*
X214628571Y-124855476D02*
X214533333Y-124950714D01*
X214533333Y-124950714D02*
X214438095Y-124998333D01*
X219607142Y-117962619D02*
X219273809Y-117486428D01*
X219035714Y-117962619D02*
X219035714Y-116962619D01*
X219035714Y-116962619D02*
X219416666Y-116962619D01*
X219416666Y-116962619D02*
X219511904Y-117010238D01*
X219511904Y-117010238D02*
X219559523Y-117057857D01*
X219559523Y-117057857D02*
X219607142Y-117153095D01*
X219607142Y-117153095D02*
X219607142Y-117295952D01*
X219607142Y-117295952D02*
X219559523Y-117391190D01*
X219559523Y-117391190D02*
X219511904Y-117438809D01*
X219511904Y-117438809D02*
X219416666Y-117486428D01*
X219416666Y-117486428D02*
X219035714Y-117486428D01*
X220559523Y-117962619D02*
X219988095Y-117962619D01*
X220273809Y-117962619D02*
X220273809Y-116962619D01*
X220273809Y-116962619D02*
X220178571Y-117105476D01*
X220178571Y-117105476D02*
X220083333Y-117200714D01*
X220083333Y-117200714D02*
X219988095Y-117248333D01*
X220892857Y-116962619D02*
X221559523Y-116962619D01*
X221559523Y-116962619D02*
X221130952Y-117962619D01*
X219607142Y-126462619D02*
X219273809Y-125986428D01*
X219035714Y-126462619D02*
X219035714Y-125462619D01*
X219035714Y-125462619D02*
X219416666Y-125462619D01*
X219416666Y-125462619D02*
X219511904Y-125510238D01*
X219511904Y-125510238D02*
X219559523Y-125557857D01*
X219559523Y-125557857D02*
X219607142Y-125653095D01*
X219607142Y-125653095D02*
X219607142Y-125795952D01*
X219607142Y-125795952D02*
X219559523Y-125891190D01*
X219559523Y-125891190D02*
X219511904Y-125938809D01*
X219511904Y-125938809D02*
X219416666Y-125986428D01*
X219416666Y-125986428D02*
X219035714Y-125986428D01*
X220559523Y-126462619D02*
X219988095Y-126462619D01*
X220273809Y-126462619D02*
X220273809Y-125462619D01*
X220273809Y-125462619D02*
X220178571Y-125605476D01*
X220178571Y-125605476D02*
X220083333Y-125700714D01*
X220083333Y-125700714D02*
X219988095Y-125748333D01*
X221035714Y-126462619D02*
X221226190Y-126462619D01*
X221226190Y-126462619D02*
X221321428Y-126415000D01*
X221321428Y-126415000D02*
X221369047Y-126367380D01*
X221369047Y-126367380D02*
X221464285Y-126224523D01*
X221464285Y-126224523D02*
X221511904Y-126034047D01*
X221511904Y-126034047D02*
X221511904Y-125653095D01*
X221511904Y-125653095D02*
X221464285Y-125557857D01*
X221464285Y-125557857D02*
X221416666Y-125510238D01*
X221416666Y-125510238D02*
X221321428Y-125462619D01*
X221321428Y-125462619D02*
X221130952Y-125462619D01*
X221130952Y-125462619D02*
X221035714Y-125510238D01*
X221035714Y-125510238D02*
X220988095Y-125557857D01*
X220988095Y-125557857D02*
X220940476Y-125653095D01*
X220940476Y-125653095D02*
X220940476Y-125891190D01*
X220940476Y-125891190D02*
X220988095Y-125986428D01*
X220988095Y-125986428D02*
X221035714Y-126034047D01*
X221035714Y-126034047D02*
X221130952Y-126081666D01*
X221130952Y-126081666D02*
X221321428Y-126081666D01*
X221321428Y-126081666D02*
X221416666Y-126034047D01*
X221416666Y-126034047D02*
X221464285Y-125986428D01*
X221464285Y-125986428D02*
X221511904Y-125891190D01*
X219657142Y-121212619D02*
X219323809Y-120736428D01*
X219085714Y-121212619D02*
X219085714Y-120212619D01*
X219085714Y-120212619D02*
X219466666Y-120212619D01*
X219466666Y-120212619D02*
X219561904Y-120260238D01*
X219561904Y-120260238D02*
X219609523Y-120307857D01*
X219609523Y-120307857D02*
X219657142Y-120403095D01*
X219657142Y-120403095D02*
X219657142Y-120545952D01*
X219657142Y-120545952D02*
X219609523Y-120641190D01*
X219609523Y-120641190D02*
X219561904Y-120688809D01*
X219561904Y-120688809D02*
X219466666Y-120736428D01*
X219466666Y-120736428D02*
X219085714Y-120736428D01*
X219990476Y-120212619D02*
X220609523Y-120212619D01*
X220609523Y-120212619D02*
X220276190Y-120593571D01*
X220276190Y-120593571D02*
X220419047Y-120593571D01*
X220419047Y-120593571D02*
X220514285Y-120641190D01*
X220514285Y-120641190D02*
X220561904Y-120688809D01*
X220561904Y-120688809D02*
X220609523Y-120784047D01*
X220609523Y-120784047D02*
X220609523Y-121022142D01*
X220609523Y-121022142D02*
X220561904Y-121117380D01*
X220561904Y-121117380D02*
X220514285Y-121165000D01*
X220514285Y-121165000D02*
X220419047Y-121212619D01*
X220419047Y-121212619D02*
X220133333Y-121212619D01*
X220133333Y-121212619D02*
X220038095Y-121165000D01*
X220038095Y-121165000D02*
X219990476Y-121117380D01*
X220942857Y-120212619D02*
X221561904Y-120212619D01*
X221561904Y-120212619D02*
X221228571Y-120593571D01*
X221228571Y-120593571D02*
X221371428Y-120593571D01*
X221371428Y-120593571D02*
X221466666Y-120641190D01*
X221466666Y-120641190D02*
X221514285Y-120688809D01*
X221514285Y-120688809D02*
X221561904Y-120784047D01*
X221561904Y-120784047D02*
X221561904Y-121022142D01*
X221561904Y-121022142D02*
X221514285Y-121117380D01*
X221514285Y-121117380D02*
X221466666Y-121165000D01*
X221466666Y-121165000D02*
X221371428Y-121212619D01*
X221371428Y-121212619D02*
X221085714Y-121212619D01*
X221085714Y-121212619D02*
X220990476Y-121165000D01*
X220990476Y-121165000D02*
X220942857Y-121117380D01*
X219657142Y-119462619D02*
X219323809Y-118986428D01*
X219085714Y-119462619D02*
X219085714Y-118462619D01*
X219085714Y-118462619D02*
X219466666Y-118462619D01*
X219466666Y-118462619D02*
X219561904Y-118510238D01*
X219561904Y-118510238D02*
X219609523Y-118557857D01*
X219609523Y-118557857D02*
X219657142Y-118653095D01*
X219657142Y-118653095D02*
X219657142Y-118795952D01*
X219657142Y-118795952D02*
X219609523Y-118891190D01*
X219609523Y-118891190D02*
X219561904Y-118938809D01*
X219561904Y-118938809D02*
X219466666Y-118986428D01*
X219466666Y-118986428D02*
X219085714Y-118986428D01*
X220514285Y-118795952D02*
X220514285Y-119462619D01*
X220276190Y-118415000D02*
X220038095Y-119129285D01*
X220038095Y-119129285D02*
X220657142Y-119129285D01*
X220990476Y-118557857D02*
X221038095Y-118510238D01*
X221038095Y-118510238D02*
X221133333Y-118462619D01*
X221133333Y-118462619D02*
X221371428Y-118462619D01*
X221371428Y-118462619D02*
X221466666Y-118510238D01*
X221466666Y-118510238D02*
X221514285Y-118557857D01*
X221514285Y-118557857D02*
X221561904Y-118653095D01*
X221561904Y-118653095D02*
X221561904Y-118748333D01*
X221561904Y-118748333D02*
X221514285Y-118891190D01*
X221514285Y-118891190D02*
X220942857Y-119462619D01*
X220942857Y-119462619D02*
X221561904Y-119462619D01*
X248011905Y-122212619D02*
X248011905Y-123022142D01*
X248011905Y-123022142D02*
X248059524Y-123117380D01*
X248059524Y-123117380D02*
X248107143Y-123165000D01*
X248107143Y-123165000D02*
X248202381Y-123212619D01*
X248202381Y-123212619D02*
X248392857Y-123212619D01*
X248392857Y-123212619D02*
X248488095Y-123165000D01*
X248488095Y-123165000D02*
X248535714Y-123117380D01*
X248535714Y-123117380D02*
X248583333Y-123022142D01*
X248583333Y-123022142D02*
X248583333Y-122212619D01*
X249583333Y-123212619D02*
X249011905Y-123212619D01*
X249297619Y-123212619D02*
X249297619Y-122212619D01*
X249297619Y-122212619D02*
X249202381Y-122355476D01*
X249202381Y-122355476D02*
X249107143Y-122450714D01*
X249107143Y-122450714D02*
X249011905Y-122498333D01*
X249916667Y-122212619D02*
X250535714Y-122212619D01*
X250535714Y-122212619D02*
X250202381Y-122593571D01*
X250202381Y-122593571D02*
X250345238Y-122593571D01*
X250345238Y-122593571D02*
X250440476Y-122641190D01*
X250440476Y-122641190D02*
X250488095Y-122688809D01*
X250488095Y-122688809D02*
X250535714Y-122784047D01*
X250535714Y-122784047D02*
X250535714Y-123022142D01*
X250535714Y-123022142D02*
X250488095Y-123117380D01*
X250488095Y-123117380D02*
X250440476Y-123165000D01*
X250440476Y-123165000D02*
X250345238Y-123212619D01*
X250345238Y-123212619D02*
X250059524Y-123212619D01*
X250059524Y-123212619D02*
X249964286Y-123165000D01*
X249964286Y-123165000D02*
X249916667Y-123117380D01*
X256833333Y-123917380D02*
X256785714Y-123965000D01*
X256785714Y-123965000D02*
X256642857Y-124012619D01*
X256642857Y-124012619D02*
X256547619Y-124012619D01*
X256547619Y-124012619D02*
X256404762Y-123965000D01*
X256404762Y-123965000D02*
X256309524Y-123869761D01*
X256309524Y-123869761D02*
X256261905Y-123774523D01*
X256261905Y-123774523D02*
X256214286Y-123584047D01*
X256214286Y-123584047D02*
X256214286Y-123441190D01*
X256214286Y-123441190D02*
X256261905Y-123250714D01*
X256261905Y-123250714D02*
X256309524Y-123155476D01*
X256309524Y-123155476D02*
X256404762Y-123060238D01*
X256404762Y-123060238D02*
X256547619Y-123012619D01*
X256547619Y-123012619D02*
X256642857Y-123012619D01*
X256642857Y-123012619D02*
X256785714Y-123060238D01*
X256785714Y-123060238D02*
X256833333Y-123107857D01*
X257690476Y-123345952D02*
X257690476Y-124012619D01*
X257452381Y-122965000D02*
X257214286Y-123679285D01*
X257214286Y-123679285D02*
X257833333Y-123679285D01*
X207061905Y-146062619D02*
X207061905Y-145062619D01*
X207061905Y-145062619D02*
X207300000Y-145062619D01*
X207300000Y-145062619D02*
X207442857Y-145110238D01*
X207442857Y-145110238D02*
X207538095Y-145205476D01*
X207538095Y-145205476D02*
X207585714Y-145300714D01*
X207585714Y-145300714D02*
X207633333Y-145491190D01*
X207633333Y-145491190D02*
X207633333Y-145634047D01*
X207633333Y-145634047D02*
X207585714Y-145824523D01*
X207585714Y-145824523D02*
X207538095Y-145919761D01*
X207538095Y-145919761D02*
X207442857Y-146015000D01*
X207442857Y-146015000D02*
X207300000Y-146062619D01*
X207300000Y-146062619D02*
X207061905Y-146062619D01*
X208585714Y-146062619D02*
X208014286Y-146062619D01*
X208300000Y-146062619D02*
X208300000Y-145062619D01*
X208300000Y-145062619D02*
X208204762Y-145205476D01*
X208204762Y-145205476D02*
X208109524Y-145300714D01*
X208109524Y-145300714D02*
X208014286Y-145348333D01*
X214961905Y-146262619D02*
X214961905Y-145262619D01*
X214961905Y-145262619D02*
X215200000Y-145262619D01*
X215200000Y-145262619D02*
X215342857Y-145310238D01*
X215342857Y-145310238D02*
X215438095Y-145405476D01*
X215438095Y-145405476D02*
X215485714Y-145500714D01*
X215485714Y-145500714D02*
X215533333Y-145691190D01*
X215533333Y-145691190D02*
X215533333Y-145834047D01*
X215533333Y-145834047D02*
X215485714Y-146024523D01*
X215485714Y-146024523D02*
X215438095Y-146119761D01*
X215438095Y-146119761D02*
X215342857Y-146215000D01*
X215342857Y-146215000D02*
X215200000Y-146262619D01*
X215200000Y-146262619D02*
X214961905Y-146262619D01*
X216104762Y-145691190D02*
X216009524Y-145643571D01*
X216009524Y-145643571D02*
X215961905Y-145595952D01*
X215961905Y-145595952D02*
X215914286Y-145500714D01*
X215914286Y-145500714D02*
X215914286Y-145453095D01*
X215914286Y-145453095D02*
X215961905Y-145357857D01*
X215961905Y-145357857D02*
X216009524Y-145310238D01*
X216009524Y-145310238D02*
X216104762Y-145262619D01*
X216104762Y-145262619D02*
X216295238Y-145262619D01*
X216295238Y-145262619D02*
X216390476Y-145310238D01*
X216390476Y-145310238D02*
X216438095Y-145357857D01*
X216438095Y-145357857D02*
X216485714Y-145453095D01*
X216485714Y-145453095D02*
X216485714Y-145500714D01*
X216485714Y-145500714D02*
X216438095Y-145595952D01*
X216438095Y-145595952D02*
X216390476Y-145643571D01*
X216390476Y-145643571D02*
X216295238Y-145691190D01*
X216295238Y-145691190D02*
X216104762Y-145691190D01*
X216104762Y-145691190D02*
X216009524Y-145738809D01*
X216009524Y-145738809D02*
X215961905Y-145786428D01*
X215961905Y-145786428D02*
X215914286Y-145881666D01*
X215914286Y-145881666D02*
X215914286Y-146072142D01*
X215914286Y-146072142D02*
X215961905Y-146167380D01*
X215961905Y-146167380D02*
X216009524Y-146215000D01*
X216009524Y-146215000D02*
X216104762Y-146262619D01*
X216104762Y-146262619D02*
X216295238Y-146262619D01*
X216295238Y-146262619D02*
X216390476Y-146215000D01*
X216390476Y-146215000D02*
X216438095Y-146167380D01*
X216438095Y-146167380D02*
X216485714Y-146072142D01*
X216485714Y-146072142D02*
X216485714Y-145881666D01*
X216485714Y-145881666D02*
X216438095Y-145786428D01*
X216438095Y-145786428D02*
X216390476Y-145738809D01*
X216390476Y-145738809D02*
X216295238Y-145691190D01*
X256162619Y-122614285D02*
X255162619Y-122614285D01*
X255162619Y-122614285D02*
X255162619Y-122376190D01*
X255162619Y-122376190D02*
X255210238Y-122233333D01*
X255210238Y-122233333D02*
X255305476Y-122138095D01*
X255305476Y-122138095D02*
X255400714Y-122090476D01*
X255400714Y-122090476D02*
X255591190Y-122042857D01*
X255591190Y-122042857D02*
X255734047Y-122042857D01*
X255734047Y-122042857D02*
X255924523Y-122090476D01*
X255924523Y-122090476D02*
X256019761Y-122138095D01*
X256019761Y-122138095D02*
X256115000Y-122233333D01*
X256115000Y-122233333D02*
X256162619Y-122376190D01*
X256162619Y-122376190D02*
X256162619Y-122614285D01*
X256162619Y-121090476D02*
X256162619Y-121661904D01*
X256162619Y-121376190D02*
X255162619Y-121376190D01*
X255162619Y-121376190D02*
X255305476Y-121471428D01*
X255305476Y-121471428D02*
X255400714Y-121566666D01*
X255400714Y-121566666D02*
X255448333Y-121661904D01*
X255591190Y-120519047D02*
X255543571Y-120614285D01*
X255543571Y-120614285D02*
X255495952Y-120661904D01*
X255495952Y-120661904D02*
X255400714Y-120709523D01*
X255400714Y-120709523D02*
X255353095Y-120709523D01*
X255353095Y-120709523D02*
X255257857Y-120661904D01*
X255257857Y-120661904D02*
X255210238Y-120614285D01*
X255210238Y-120614285D02*
X255162619Y-120519047D01*
X255162619Y-120519047D02*
X255162619Y-120328571D01*
X255162619Y-120328571D02*
X255210238Y-120233333D01*
X255210238Y-120233333D02*
X255257857Y-120185714D01*
X255257857Y-120185714D02*
X255353095Y-120138095D01*
X255353095Y-120138095D02*
X255400714Y-120138095D01*
X255400714Y-120138095D02*
X255495952Y-120185714D01*
X255495952Y-120185714D02*
X255543571Y-120233333D01*
X255543571Y-120233333D02*
X255591190Y-120328571D01*
X255591190Y-120328571D02*
X255591190Y-120519047D01*
X255591190Y-120519047D02*
X255638809Y-120614285D01*
X255638809Y-120614285D02*
X255686428Y-120661904D01*
X255686428Y-120661904D02*
X255781666Y-120709523D01*
X255781666Y-120709523D02*
X255972142Y-120709523D01*
X255972142Y-120709523D02*
X256067380Y-120661904D01*
X256067380Y-120661904D02*
X256115000Y-120614285D01*
X256115000Y-120614285D02*
X256162619Y-120519047D01*
X256162619Y-120519047D02*
X256162619Y-120328571D01*
X256162619Y-120328571D02*
X256115000Y-120233333D01*
X256115000Y-120233333D02*
X256067380Y-120185714D01*
X256067380Y-120185714D02*
X255972142Y-120138095D01*
X255972142Y-120138095D02*
X255781666Y-120138095D01*
X255781666Y-120138095D02*
X255686428Y-120185714D01*
X255686428Y-120185714D02*
X255638809Y-120233333D01*
X255638809Y-120233333D02*
X255591190Y-120328571D01*
X213904761Y-115457857D02*
X213809523Y-115410238D01*
X213809523Y-115410238D02*
X213714285Y-115315000D01*
X213714285Y-115315000D02*
X213571428Y-115172142D01*
X213571428Y-115172142D02*
X213476190Y-115124523D01*
X213476190Y-115124523D02*
X213380952Y-115124523D01*
X213428571Y-115362619D02*
X213333333Y-115315000D01*
X213333333Y-115315000D02*
X213238095Y-115219761D01*
X213238095Y-115219761D02*
X213190476Y-115029285D01*
X213190476Y-115029285D02*
X213190476Y-114695952D01*
X213190476Y-114695952D02*
X213238095Y-114505476D01*
X213238095Y-114505476D02*
X213333333Y-114410238D01*
X213333333Y-114410238D02*
X213428571Y-114362619D01*
X213428571Y-114362619D02*
X213619047Y-114362619D01*
X213619047Y-114362619D02*
X213714285Y-114410238D01*
X213714285Y-114410238D02*
X213809523Y-114505476D01*
X213809523Y-114505476D02*
X213857142Y-114695952D01*
X213857142Y-114695952D02*
X213857142Y-115029285D01*
X213857142Y-115029285D02*
X213809523Y-115219761D01*
X213809523Y-115219761D02*
X213714285Y-115315000D01*
X213714285Y-115315000D02*
X213619047Y-115362619D01*
X213619047Y-115362619D02*
X213428571Y-115362619D01*
X214238095Y-114457857D02*
X214285714Y-114410238D01*
X214285714Y-114410238D02*
X214380952Y-114362619D01*
X214380952Y-114362619D02*
X214619047Y-114362619D01*
X214619047Y-114362619D02*
X214714285Y-114410238D01*
X214714285Y-114410238D02*
X214761904Y-114457857D01*
X214761904Y-114457857D02*
X214809523Y-114553095D01*
X214809523Y-114553095D02*
X214809523Y-114648333D01*
X214809523Y-114648333D02*
X214761904Y-114791190D01*
X214761904Y-114791190D02*
X214190476Y-115362619D01*
X214190476Y-115362619D02*
X214809523Y-115362619D01*
X216404761Y-128307857D02*
X216309523Y-128260238D01*
X216309523Y-128260238D02*
X216214285Y-128165000D01*
X216214285Y-128165000D02*
X216071428Y-128022142D01*
X216071428Y-128022142D02*
X215976190Y-127974523D01*
X215976190Y-127974523D02*
X215880952Y-127974523D01*
X215928571Y-128212619D02*
X215833333Y-128165000D01*
X215833333Y-128165000D02*
X215738095Y-128069761D01*
X215738095Y-128069761D02*
X215690476Y-127879285D01*
X215690476Y-127879285D02*
X215690476Y-127545952D01*
X215690476Y-127545952D02*
X215738095Y-127355476D01*
X215738095Y-127355476D02*
X215833333Y-127260238D01*
X215833333Y-127260238D02*
X215928571Y-127212619D01*
X215928571Y-127212619D02*
X216119047Y-127212619D01*
X216119047Y-127212619D02*
X216214285Y-127260238D01*
X216214285Y-127260238D02*
X216309523Y-127355476D01*
X216309523Y-127355476D02*
X216357142Y-127545952D01*
X216357142Y-127545952D02*
X216357142Y-127879285D01*
X216357142Y-127879285D02*
X216309523Y-128069761D01*
X216309523Y-128069761D02*
X216214285Y-128165000D01*
X216214285Y-128165000D02*
X216119047Y-128212619D01*
X216119047Y-128212619D02*
X215928571Y-128212619D01*
X217261904Y-127212619D02*
X216785714Y-127212619D01*
X216785714Y-127212619D02*
X216738095Y-127688809D01*
X216738095Y-127688809D02*
X216785714Y-127641190D01*
X216785714Y-127641190D02*
X216880952Y-127593571D01*
X216880952Y-127593571D02*
X217119047Y-127593571D01*
X217119047Y-127593571D02*
X217214285Y-127641190D01*
X217214285Y-127641190D02*
X217261904Y-127688809D01*
X217261904Y-127688809D02*
X217309523Y-127784047D01*
X217309523Y-127784047D02*
X217309523Y-128022142D01*
X217309523Y-128022142D02*
X217261904Y-128117380D01*
X217261904Y-128117380D02*
X217214285Y-128165000D01*
X217214285Y-128165000D02*
X217119047Y-128212619D01*
X217119047Y-128212619D02*
X216880952Y-128212619D01*
X216880952Y-128212619D02*
X216785714Y-128165000D01*
X216785714Y-128165000D02*
X216738095Y-128117380D01*
X213954761Y-118907857D02*
X213859523Y-118860238D01*
X213859523Y-118860238D02*
X213764285Y-118765000D01*
X213764285Y-118765000D02*
X213621428Y-118622142D01*
X213621428Y-118622142D02*
X213526190Y-118574523D01*
X213526190Y-118574523D02*
X213430952Y-118574523D01*
X213478571Y-118812619D02*
X213383333Y-118765000D01*
X213383333Y-118765000D02*
X213288095Y-118669761D01*
X213288095Y-118669761D02*
X213240476Y-118479285D01*
X213240476Y-118479285D02*
X213240476Y-118145952D01*
X213240476Y-118145952D02*
X213288095Y-117955476D01*
X213288095Y-117955476D02*
X213383333Y-117860238D01*
X213383333Y-117860238D02*
X213478571Y-117812619D01*
X213478571Y-117812619D02*
X213669047Y-117812619D01*
X213669047Y-117812619D02*
X213764285Y-117860238D01*
X213764285Y-117860238D02*
X213859523Y-117955476D01*
X213859523Y-117955476D02*
X213907142Y-118145952D01*
X213907142Y-118145952D02*
X213907142Y-118479285D01*
X213907142Y-118479285D02*
X213859523Y-118669761D01*
X213859523Y-118669761D02*
X213764285Y-118765000D01*
X213764285Y-118765000D02*
X213669047Y-118812619D01*
X213669047Y-118812619D02*
X213478571Y-118812619D01*
X214240476Y-117812619D02*
X214907142Y-117812619D01*
X214907142Y-117812619D02*
X214478571Y-118812619D01*
X263662619Y-119461904D02*
X264472142Y-119461904D01*
X264472142Y-119461904D02*
X264567380Y-119414285D01*
X264567380Y-119414285D02*
X264615000Y-119366666D01*
X264615000Y-119366666D02*
X264662619Y-119271428D01*
X264662619Y-119271428D02*
X264662619Y-119080952D01*
X264662619Y-119080952D02*
X264615000Y-118985714D01*
X264615000Y-118985714D02*
X264567380Y-118938095D01*
X264567380Y-118938095D02*
X264472142Y-118890476D01*
X264472142Y-118890476D02*
X263662619Y-118890476D01*
X264662619Y-117890476D02*
X264662619Y-118461904D01*
X264662619Y-118176190D02*
X263662619Y-118176190D01*
X263662619Y-118176190D02*
X263805476Y-118271428D01*
X263805476Y-118271428D02*
X263900714Y-118366666D01*
X263900714Y-118366666D02*
X263948333Y-118461904D01*
X254083333Y-123967380D02*
X254035714Y-124015000D01*
X254035714Y-124015000D02*
X253892857Y-124062619D01*
X253892857Y-124062619D02*
X253797619Y-124062619D01*
X253797619Y-124062619D02*
X253654762Y-124015000D01*
X253654762Y-124015000D02*
X253559524Y-123919761D01*
X253559524Y-123919761D02*
X253511905Y-123824523D01*
X253511905Y-123824523D02*
X253464286Y-123634047D01*
X253464286Y-123634047D02*
X253464286Y-123491190D01*
X253464286Y-123491190D02*
X253511905Y-123300714D01*
X253511905Y-123300714D02*
X253559524Y-123205476D01*
X253559524Y-123205476D02*
X253654762Y-123110238D01*
X253654762Y-123110238D02*
X253797619Y-123062619D01*
X253797619Y-123062619D02*
X253892857Y-123062619D01*
X253892857Y-123062619D02*
X254035714Y-123110238D01*
X254035714Y-123110238D02*
X254083333Y-123157857D01*
X255035714Y-124062619D02*
X254464286Y-124062619D01*
X254750000Y-124062619D02*
X254750000Y-123062619D01*
X254750000Y-123062619D02*
X254654762Y-123205476D01*
X254654762Y-123205476D02*
X254559524Y-123300714D01*
X254559524Y-123300714D02*
X254464286Y-123348333D01*
X258067380Y-120166666D02*
X258115000Y-120214285D01*
X258115000Y-120214285D02*
X258162619Y-120357142D01*
X258162619Y-120357142D02*
X258162619Y-120452380D01*
X258162619Y-120452380D02*
X258115000Y-120595237D01*
X258115000Y-120595237D02*
X258019761Y-120690475D01*
X258019761Y-120690475D02*
X257924523Y-120738094D01*
X257924523Y-120738094D02*
X257734047Y-120785713D01*
X257734047Y-120785713D02*
X257591190Y-120785713D01*
X257591190Y-120785713D02*
X257400714Y-120738094D01*
X257400714Y-120738094D02*
X257305476Y-120690475D01*
X257305476Y-120690475D02*
X257210238Y-120595237D01*
X257210238Y-120595237D02*
X257162619Y-120452380D01*
X257162619Y-120452380D02*
X257162619Y-120357142D01*
X257162619Y-120357142D02*
X257210238Y-120214285D01*
X257210238Y-120214285D02*
X257257857Y-120166666D01*
X257591190Y-119595237D02*
X257543571Y-119690475D01*
X257543571Y-119690475D02*
X257495952Y-119738094D01*
X257495952Y-119738094D02*
X257400714Y-119785713D01*
X257400714Y-119785713D02*
X257353095Y-119785713D01*
X257353095Y-119785713D02*
X257257857Y-119738094D01*
X257257857Y-119738094D02*
X257210238Y-119690475D01*
X257210238Y-119690475D02*
X257162619Y-119595237D01*
X257162619Y-119595237D02*
X257162619Y-119404761D01*
X257162619Y-119404761D02*
X257210238Y-119309523D01*
X257210238Y-119309523D02*
X257257857Y-119261904D01*
X257257857Y-119261904D02*
X257353095Y-119214285D01*
X257353095Y-119214285D02*
X257400714Y-119214285D01*
X257400714Y-119214285D02*
X257495952Y-119261904D01*
X257495952Y-119261904D02*
X257543571Y-119309523D01*
X257543571Y-119309523D02*
X257591190Y-119404761D01*
X257591190Y-119404761D02*
X257591190Y-119595237D01*
X257591190Y-119595237D02*
X257638809Y-119690475D01*
X257638809Y-119690475D02*
X257686428Y-119738094D01*
X257686428Y-119738094D02*
X257781666Y-119785713D01*
X257781666Y-119785713D02*
X257972142Y-119785713D01*
X257972142Y-119785713D02*
X258067380Y-119738094D01*
X258067380Y-119738094D02*
X258115000Y-119690475D01*
X258115000Y-119690475D02*
X258162619Y-119595237D01*
X258162619Y-119595237D02*
X258162619Y-119404761D01*
X258162619Y-119404761D02*
X258115000Y-119309523D01*
X258115000Y-119309523D02*
X258067380Y-119261904D01*
X258067380Y-119261904D02*
X257972142Y-119214285D01*
X257972142Y-119214285D02*
X257781666Y-119214285D01*
X257781666Y-119214285D02*
X257686428Y-119261904D01*
X257686428Y-119261904D02*
X257638809Y-119309523D01*
X257638809Y-119309523D02*
X257591190Y-119404761D01*
X218662619Y-108514285D02*
X217662619Y-108514285D01*
X217662619Y-108514285D02*
X217662619Y-108276190D01*
X217662619Y-108276190D02*
X217710238Y-108133333D01*
X217710238Y-108133333D02*
X217805476Y-108038095D01*
X217805476Y-108038095D02*
X217900714Y-107990476D01*
X217900714Y-107990476D02*
X218091190Y-107942857D01*
X218091190Y-107942857D02*
X218234047Y-107942857D01*
X218234047Y-107942857D02*
X218424523Y-107990476D01*
X218424523Y-107990476D02*
X218519761Y-108038095D01*
X218519761Y-108038095D02*
X218615000Y-108133333D01*
X218615000Y-108133333D02*
X218662619Y-108276190D01*
X218662619Y-108276190D02*
X218662619Y-108514285D01*
X218662619Y-106990476D02*
X218662619Y-107561904D01*
X218662619Y-107276190D02*
X217662619Y-107276190D01*
X217662619Y-107276190D02*
X217805476Y-107371428D01*
X217805476Y-107371428D02*
X217900714Y-107466666D01*
X217900714Y-107466666D02*
X217948333Y-107561904D01*
X217662619Y-106133333D02*
X217662619Y-106323809D01*
X217662619Y-106323809D02*
X217710238Y-106419047D01*
X217710238Y-106419047D02*
X217757857Y-106466666D01*
X217757857Y-106466666D02*
X217900714Y-106561904D01*
X217900714Y-106561904D02*
X218091190Y-106609523D01*
X218091190Y-106609523D02*
X218472142Y-106609523D01*
X218472142Y-106609523D02*
X218567380Y-106561904D01*
X218567380Y-106561904D02*
X218615000Y-106514285D01*
X218615000Y-106514285D02*
X218662619Y-106419047D01*
X218662619Y-106419047D02*
X218662619Y-106228571D01*
X218662619Y-106228571D02*
X218615000Y-106133333D01*
X218615000Y-106133333D02*
X218567380Y-106085714D01*
X218567380Y-106085714D02*
X218472142Y-106038095D01*
X218472142Y-106038095D02*
X218234047Y-106038095D01*
X218234047Y-106038095D02*
X218138809Y-106085714D01*
X218138809Y-106085714D02*
X218091190Y-106133333D01*
X218091190Y-106133333D02*
X218043571Y-106228571D01*
X218043571Y-106228571D02*
X218043571Y-106419047D01*
X218043571Y-106419047D02*
X218091190Y-106514285D01*
X218091190Y-106514285D02*
X218138809Y-106561904D01*
X218138809Y-106561904D02*
X218234047Y-106609523D01*
X261738809Y-132738095D02*
X261738809Y-133071428D01*
X262262619Y-133071428D02*
X261262619Y-133071428D01*
X261262619Y-133071428D02*
X261262619Y-132595238D01*
X262262619Y-131738095D02*
X262262619Y-132214285D01*
X262262619Y-132214285D02*
X261262619Y-132214285D01*
X262262619Y-130880952D02*
X262262619Y-131452380D01*
X262262619Y-131166666D02*
X261262619Y-131166666D01*
X261262619Y-131166666D02*
X261405476Y-131261904D01*
X261405476Y-131261904D02*
X261500714Y-131357142D01*
X261500714Y-131357142D02*
X261548333Y-131452380D01*
X252333333Y-116362619D02*
X251857143Y-116362619D01*
X251857143Y-116362619D02*
X251857143Y-115362619D01*
X253190476Y-116362619D02*
X252619048Y-116362619D01*
X252904762Y-116362619D02*
X252904762Y-115362619D01*
X252904762Y-115362619D02*
X252809524Y-115505476D01*
X252809524Y-115505476D02*
X252714286Y-115600714D01*
X252714286Y-115600714D02*
X252619048Y-115648333D01*
X219633333Y-122962619D02*
X219300000Y-122486428D01*
X219061905Y-122962619D02*
X219061905Y-121962619D01*
X219061905Y-121962619D02*
X219442857Y-121962619D01*
X219442857Y-121962619D02*
X219538095Y-122010238D01*
X219538095Y-122010238D02*
X219585714Y-122057857D01*
X219585714Y-122057857D02*
X219633333Y-122153095D01*
X219633333Y-122153095D02*
X219633333Y-122295952D01*
X219633333Y-122295952D02*
X219585714Y-122391190D01*
X219585714Y-122391190D02*
X219538095Y-122438809D01*
X219538095Y-122438809D02*
X219442857Y-122486428D01*
X219442857Y-122486428D02*
X219061905Y-122486428D01*
X220109524Y-122962619D02*
X220300000Y-122962619D01*
X220300000Y-122962619D02*
X220395238Y-122915000D01*
X220395238Y-122915000D02*
X220442857Y-122867380D01*
X220442857Y-122867380D02*
X220538095Y-122724523D01*
X220538095Y-122724523D02*
X220585714Y-122534047D01*
X220585714Y-122534047D02*
X220585714Y-122153095D01*
X220585714Y-122153095D02*
X220538095Y-122057857D01*
X220538095Y-122057857D02*
X220490476Y-122010238D01*
X220490476Y-122010238D02*
X220395238Y-121962619D01*
X220395238Y-121962619D02*
X220204762Y-121962619D01*
X220204762Y-121962619D02*
X220109524Y-122010238D01*
X220109524Y-122010238D02*
X220061905Y-122057857D01*
X220061905Y-122057857D02*
X220014286Y-122153095D01*
X220014286Y-122153095D02*
X220014286Y-122391190D01*
X220014286Y-122391190D02*
X220061905Y-122486428D01*
X220061905Y-122486428D02*
X220109524Y-122534047D01*
X220109524Y-122534047D02*
X220204762Y-122581666D01*
X220204762Y-122581666D02*
X220395238Y-122581666D01*
X220395238Y-122581666D02*
X220490476Y-122534047D01*
X220490476Y-122534047D02*
X220538095Y-122486428D01*
X220538095Y-122486428D02*
X220585714Y-122391190D01*
X218570095Y-111871428D02*
X217770095Y-111871428D01*
X217770095Y-111871428D02*
X217770095Y-111680952D01*
X217770095Y-111680952D02*
X217808190Y-111566666D01*
X217808190Y-111566666D02*
X217884380Y-111490476D01*
X217884380Y-111490476D02*
X217960571Y-111452381D01*
X217960571Y-111452381D02*
X218112952Y-111414285D01*
X218112952Y-111414285D02*
X218227238Y-111414285D01*
X218227238Y-111414285D02*
X218379619Y-111452381D01*
X218379619Y-111452381D02*
X218455809Y-111490476D01*
X218455809Y-111490476D02*
X218532000Y-111566666D01*
X218532000Y-111566666D02*
X218570095Y-111680952D01*
X218570095Y-111680952D02*
X218570095Y-111871428D01*
X218570095Y-110652381D02*
X218570095Y-111109524D01*
X218570095Y-110880952D02*
X217770095Y-110880952D01*
X217770095Y-110880952D02*
X217884380Y-110957143D01*
X217884380Y-110957143D02*
X217960571Y-111033333D01*
X217960571Y-111033333D02*
X217998666Y-111109524D01*
X218570095Y-109890476D02*
X218570095Y-110347619D01*
X218570095Y-110119047D02*
X217770095Y-110119047D01*
X217770095Y-110119047D02*
X217884380Y-110195238D01*
X217884380Y-110195238D02*
X217960571Y-110271428D01*
X217960571Y-110271428D02*
X217998666Y-110347619D01*
X205938095Y-130162619D02*
X205938095Y-130972142D01*
X205938095Y-130972142D02*
X205985714Y-131067380D01*
X205985714Y-131067380D02*
X206033333Y-131115000D01*
X206033333Y-131115000D02*
X206128571Y-131162619D01*
X206128571Y-131162619D02*
X206319047Y-131162619D01*
X206319047Y-131162619D02*
X206414285Y-131115000D01*
X206414285Y-131115000D02*
X206461904Y-131067380D01*
X206461904Y-131067380D02*
X206509523Y-130972142D01*
X206509523Y-130972142D02*
X206509523Y-130162619D01*
X207414285Y-130162619D02*
X207223809Y-130162619D01*
X207223809Y-130162619D02*
X207128571Y-130210238D01*
X207128571Y-130210238D02*
X207080952Y-130257857D01*
X207080952Y-130257857D02*
X206985714Y-130400714D01*
X206985714Y-130400714D02*
X206938095Y-130591190D01*
X206938095Y-130591190D02*
X206938095Y-130972142D01*
X206938095Y-130972142D02*
X206985714Y-131067380D01*
X206985714Y-131067380D02*
X207033333Y-131115000D01*
X207033333Y-131115000D02*
X207128571Y-131162619D01*
X207128571Y-131162619D02*
X207319047Y-131162619D01*
X207319047Y-131162619D02*
X207414285Y-131115000D01*
X207414285Y-131115000D02*
X207461904Y-131067380D01*
X207461904Y-131067380D02*
X207509523Y-130972142D01*
X207509523Y-130972142D02*
X207509523Y-130734047D01*
X207509523Y-130734047D02*
X207461904Y-130638809D01*
X207461904Y-130638809D02*
X207414285Y-130591190D01*
X207414285Y-130591190D02*
X207319047Y-130543571D01*
X207319047Y-130543571D02*
X207128571Y-130543571D01*
X207128571Y-130543571D02*
X207033333Y-130591190D01*
X207033333Y-130591190D02*
X206985714Y-130638809D01*
X206985714Y-130638809D02*
X206938095Y-130734047D01*
X187852619Y-126364285D02*
X187852619Y-126935713D01*
X187852619Y-126649999D02*
X186852619Y-126649999D01*
X186852619Y-126649999D02*
X186995476Y-126745237D01*
X186995476Y-126745237D02*
X187090714Y-126840475D01*
X187090714Y-126840475D02*
X187138333Y-126935713D01*
X202538095Y-112507857D02*
X202585714Y-112460238D01*
X202585714Y-112460238D02*
X202680952Y-112412619D01*
X202680952Y-112412619D02*
X202919047Y-112412619D01*
X202919047Y-112412619D02*
X203014285Y-112460238D01*
X203014285Y-112460238D02*
X203061904Y-112507857D01*
X203061904Y-112507857D02*
X203109523Y-112603095D01*
X203109523Y-112603095D02*
X203109523Y-112698333D01*
X203109523Y-112698333D02*
X203061904Y-112841190D01*
X203061904Y-112841190D02*
X202490476Y-113412619D01*
X202490476Y-113412619D02*
X203109523Y-113412619D01*
X203966666Y-112412619D02*
X203776190Y-112412619D01*
X203776190Y-112412619D02*
X203680952Y-112460238D01*
X203680952Y-112460238D02*
X203633333Y-112507857D01*
X203633333Y-112507857D02*
X203538095Y-112650714D01*
X203538095Y-112650714D02*
X203490476Y-112841190D01*
X203490476Y-112841190D02*
X203490476Y-113222142D01*
X203490476Y-113222142D02*
X203538095Y-113317380D01*
X203538095Y-113317380D02*
X203585714Y-113365000D01*
X203585714Y-113365000D02*
X203680952Y-113412619D01*
X203680952Y-113412619D02*
X203871428Y-113412619D01*
X203871428Y-113412619D02*
X203966666Y-113365000D01*
X203966666Y-113365000D02*
X204014285Y-113317380D01*
X204014285Y-113317380D02*
X204061904Y-113222142D01*
X204061904Y-113222142D02*
X204061904Y-112984047D01*
X204061904Y-112984047D02*
X204014285Y-112888809D01*
X204014285Y-112888809D02*
X203966666Y-112841190D01*
X203966666Y-112841190D02*
X203871428Y-112793571D01*
X203871428Y-112793571D02*
X203680952Y-112793571D01*
X203680952Y-112793571D02*
X203585714Y-112841190D01*
X203585714Y-112841190D02*
X203538095Y-112888809D01*
X203538095Y-112888809D02*
X203490476Y-112984047D01*
X187185952Y-113435714D02*
X187852619Y-113435714D01*
X186805000Y-113673809D02*
X187519285Y-113911904D01*
X187519285Y-113911904D02*
X187519285Y-113292857D01*
X186852619Y-112721428D02*
X186852619Y-112626190D01*
X186852619Y-112626190D02*
X186900238Y-112530952D01*
X186900238Y-112530952D02*
X186947857Y-112483333D01*
X186947857Y-112483333D02*
X187043095Y-112435714D01*
X187043095Y-112435714D02*
X187233571Y-112388095D01*
X187233571Y-112388095D02*
X187471666Y-112388095D01*
X187471666Y-112388095D02*
X187662142Y-112435714D01*
X187662142Y-112435714D02*
X187757380Y-112483333D01*
X187757380Y-112483333D02*
X187805000Y-112530952D01*
X187805000Y-112530952D02*
X187852619Y-112626190D01*
X187852619Y-112626190D02*
X187852619Y-112721428D01*
X187852619Y-112721428D02*
X187805000Y-112816666D01*
X187805000Y-112816666D02*
X187757380Y-112864285D01*
X187757380Y-112864285D02*
X187662142Y-112911904D01*
X187662142Y-112911904D02*
X187471666Y-112959523D01*
X187471666Y-112959523D02*
X187233571Y-112959523D01*
X187233571Y-112959523D02*
X187043095Y-112911904D01*
X187043095Y-112911904D02*
X186947857Y-112864285D01*
X186947857Y-112864285D02*
X186900238Y-112816666D01*
X186900238Y-112816666D02*
X186852619Y-112721428D01*
X203159523Y-127262619D02*
X202588095Y-127262619D01*
X202873809Y-127262619D02*
X202873809Y-126262619D01*
X202873809Y-126262619D02*
X202778571Y-126405476D01*
X202778571Y-126405476D02*
X202683333Y-126500714D01*
X202683333Y-126500714D02*
X202588095Y-126548333D01*
X204064285Y-126262619D02*
X203588095Y-126262619D01*
X203588095Y-126262619D02*
X203540476Y-126738809D01*
X203540476Y-126738809D02*
X203588095Y-126691190D01*
X203588095Y-126691190D02*
X203683333Y-126643571D01*
X203683333Y-126643571D02*
X203921428Y-126643571D01*
X203921428Y-126643571D02*
X204016666Y-126691190D01*
X204016666Y-126691190D02*
X204064285Y-126738809D01*
X204064285Y-126738809D02*
X204111904Y-126834047D01*
X204111904Y-126834047D02*
X204111904Y-127072142D01*
X204111904Y-127072142D02*
X204064285Y-127167380D01*
X204064285Y-127167380D02*
X204016666Y-127215000D01*
X204016666Y-127215000D02*
X203921428Y-127262619D01*
X203921428Y-127262619D02*
X203683333Y-127262619D01*
X203683333Y-127262619D02*
X203588095Y-127215000D01*
X203588095Y-127215000D02*
X203540476Y-127167380D01*
X229162619Y-118142857D02*
X228686428Y-118476190D01*
X229162619Y-118714285D02*
X228162619Y-118714285D01*
X228162619Y-118714285D02*
X228162619Y-118333333D01*
X228162619Y-118333333D02*
X228210238Y-118238095D01*
X228210238Y-118238095D02*
X228257857Y-118190476D01*
X228257857Y-118190476D02*
X228353095Y-118142857D01*
X228353095Y-118142857D02*
X228495952Y-118142857D01*
X228495952Y-118142857D02*
X228591190Y-118190476D01*
X228591190Y-118190476D02*
X228638809Y-118238095D01*
X228638809Y-118238095D02*
X228686428Y-118333333D01*
X228686428Y-118333333D02*
X228686428Y-118714285D01*
X228257857Y-117761904D02*
X228210238Y-117714285D01*
X228210238Y-117714285D02*
X228162619Y-117619047D01*
X228162619Y-117619047D02*
X228162619Y-117380952D01*
X228162619Y-117380952D02*
X228210238Y-117285714D01*
X228210238Y-117285714D02*
X228257857Y-117238095D01*
X228257857Y-117238095D02*
X228353095Y-117190476D01*
X228353095Y-117190476D02*
X228448333Y-117190476D01*
X228448333Y-117190476D02*
X228591190Y-117238095D01*
X228591190Y-117238095D02*
X229162619Y-117809523D01*
X229162619Y-117809523D02*
X229162619Y-117190476D01*
X228162619Y-116857142D02*
X228162619Y-116238095D01*
X228162619Y-116238095D02*
X228543571Y-116571428D01*
X228543571Y-116571428D02*
X228543571Y-116428571D01*
X228543571Y-116428571D02*
X228591190Y-116333333D01*
X228591190Y-116333333D02*
X228638809Y-116285714D01*
X228638809Y-116285714D02*
X228734047Y-116238095D01*
X228734047Y-116238095D02*
X228972142Y-116238095D01*
X228972142Y-116238095D02*
X229067380Y-116285714D01*
X229067380Y-116285714D02*
X229115000Y-116333333D01*
X229115000Y-116333333D02*
X229162619Y-116428571D01*
X229162619Y-116428571D02*
X229162619Y-116714285D01*
X229162619Y-116714285D02*
X229115000Y-116809523D01*
X229115000Y-116809523D02*
X229067380Y-116857142D01*
X261757857Y-140595238D02*
X261710238Y-140690476D01*
X261710238Y-140690476D02*
X261615000Y-140785714D01*
X261615000Y-140785714D02*
X261472142Y-140928571D01*
X261472142Y-140928571D02*
X261424523Y-141023809D01*
X261424523Y-141023809D02*
X261424523Y-141119047D01*
X261662619Y-141071428D02*
X261615000Y-141166666D01*
X261615000Y-141166666D02*
X261519761Y-141261904D01*
X261519761Y-141261904D02*
X261329285Y-141309523D01*
X261329285Y-141309523D02*
X260995952Y-141309523D01*
X260995952Y-141309523D02*
X260805476Y-141261904D01*
X260805476Y-141261904D02*
X260710238Y-141166666D01*
X260710238Y-141166666D02*
X260662619Y-141071428D01*
X260662619Y-141071428D02*
X260662619Y-140880952D01*
X260662619Y-140880952D02*
X260710238Y-140785714D01*
X260710238Y-140785714D02*
X260805476Y-140690476D01*
X260805476Y-140690476D02*
X260995952Y-140642857D01*
X260995952Y-140642857D02*
X261329285Y-140642857D01*
X261329285Y-140642857D02*
X261519761Y-140690476D01*
X261519761Y-140690476D02*
X261615000Y-140785714D01*
X261615000Y-140785714D02*
X261662619Y-140880952D01*
X261662619Y-140880952D02*
X261662619Y-141071428D01*
X261091190Y-140071428D02*
X261043571Y-140166666D01*
X261043571Y-140166666D02*
X260995952Y-140214285D01*
X260995952Y-140214285D02*
X260900714Y-140261904D01*
X260900714Y-140261904D02*
X260853095Y-140261904D01*
X260853095Y-140261904D02*
X260757857Y-140214285D01*
X260757857Y-140214285D02*
X260710238Y-140166666D01*
X260710238Y-140166666D02*
X260662619Y-140071428D01*
X260662619Y-140071428D02*
X260662619Y-139880952D01*
X260662619Y-139880952D02*
X260710238Y-139785714D01*
X260710238Y-139785714D02*
X260757857Y-139738095D01*
X260757857Y-139738095D02*
X260853095Y-139690476D01*
X260853095Y-139690476D02*
X260900714Y-139690476D01*
X260900714Y-139690476D02*
X260995952Y-139738095D01*
X260995952Y-139738095D02*
X261043571Y-139785714D01*
X261043571Y-139785714D02*
X261091190Y-139880952D01*
X261091190Y-139880952D02*
X261091190Y-140071428D01*
X261091190Y-140071428D02*
X261138809Y-140166666D01*
X261138809Y-140166666D02*
X261186428Y-140214285D01*
X261186428Y-140214285D02*
X261281666Y-140261904D01*
X261281666Y-140261904D02*
X261472142Y-140261904D01*
X261472142Y-140261904D02*
X261567380Y-140214285D01*
X261567380Y-140214285D02*
X261615000Y-140166666D01*
X261615000Y-140166666D02*
X261662619Y-140071428D01*
X261662619Y-140071428D02*
X261662619Y-139880952D01*
X261662619Y-139880952D02*
X261615000Y-139785714D01*
X261615000Y-139785714D02*
X261567380Y-139738095D01*
X261567380Y-139738095D02*
X261472142Y-139690476D01*
X261472142Y-139690476D02*
X261281666Y-139690476D01*
X261281666Y-139690476D02*
X261186428Y-139738095D01*
X261186428Y-139738095D02*
X261138809Y-139785714D01*
X261138809Y-139785714D02*
X261091190Y-139880952D01*
X263962619Y-138314285D02*
X262962619Y-138314285D01*
X262962619Y-138314285D02*
X262962619Y-138076190D01*
X262962619Y-138076190D02*
X263010238Y-137933333D01*
X263010238Y-137933333D02*
X263105476Y-137838095D01*
X263105476Y-137838095D02*
X263200714Y-137790476D01*
X263200714Y-137790476D02*
X263391190Y-137742857D01*
X263391190Y-137742857D02*
X263534047Y-137742857D01*
X263534047Y-137742857D02*
X263724523Y-137790476D01*
X263724523Y-137790476D02*
X263819761Y-137838095D01*
X263819761Y-137838095D02*
X263915000Y-137933333D01*
X263915000Y-137933333D02*
X263962619Y-138076190D01*
X263962619Y-138076190D02*
X263962619Y-138314285D01*
X263962619Y-136790476D02*
X263962619Y-137361904D01*
X263962619Y-137076190D02*
X262962619Y-137076190D01*
X262962619Y-137076190D02*
X263105476Y-137171428D01*
X263105476Y-137171428D02*
X263200714Y-137266666D01*
X263200714Y-137266666D02*
X263248333Y-137361904D01*
X263295952Y-135933333D02*
X263962619Y-135933333D01*
X262915000Y-136171428D02*
X263629285Y-136409523D01*
X263629285Y-136409523D02*
X263629285Y-135790476D01*
X253962619Y-145314285D02*
X252962619Y-145314285D01*
X252962619Y-145314285D02*
X252962619Y-145076190D01*
X252962619Y-145076190D02*
X253010238Y-144933333D01*
X253010238Y-144933333D02*
X253105476Y-144838095D01*
X253105476Y-144838095D02*
X253200714Y-144790476D01*
X253200714Y-144790476D02*
X253391190Y-144742857D01*
X253391190Y-144742857D02*
X253534047Y-144742857D01*
X253534047Y-144742857D02*
X253724523Y-144790476D01*
X253724523Y-144790476D02*
X253819761Y-144838095D01*
X253819761Y-144838095D02*
X253915000Y-144933333D01*
X253915000Y-144933333D02*
X253962619Y-145076190D01*
X253962619Y-145076190D02*
X253962619Y-145314285D01*
X253962619Y-143790476D02*
X253962619Y-144361904D01*
X253962619Y-144076190D02*
X252962619Y-144076190D01*
X252962619Y-144076190D02*
X253105476Y-144171428D01*
X253105476Y-144171428D02*
X253200714Y-144266666D01*
X253200714Y-144266666D02*
X253248333Y-144361904D01*
X252962619Y-143457142D02*
X252962619Y-142838095D01*
X252962619Y-142838095D02*
X253343571Y-143171428D01*
X253343571Y-143171428D02*
X253343571Y-143028571D01*
X253343571Y-143028571D02*
X253391190Y-142933333D01*
X253391190Y-142933333D02*
X253438809Y-142885714D01*
X253438809Y-142885714D02*
X253534047Y-142838095D01*
X253534047Y-142838095D02*
X253772142Y-142838095D01*
X253772142Y-142838095D02*
X253867380Y-142885714D01*
X253867380Y-142885714D02*
X253915000Y-142933333D01*
X253915000Y-142933333D02*
X253962619Y-143028571D01*
X253962619Y-143028571D02*
X253962619Y-143314285D01*
X253962619Y-143314285D02*
X253915000Y-143409523D01*
X253915000Y-143409523D02*
X253867380Y-143457142D01*
X261833333Y-127767380D02*
X261785714Y-127815000D01*
X261785714Y-127815000D02*
X261642857Y-127862619D01*
X261642857Y-127862619D02*
X261547619Y-127862619D01*
X261547619Y-127862619D02*
X261404762Y-127815000D01*
X261404762Y-127815000D02*
X261309524Y-127719761D01*
X261309524Y-127719761D02*
X261261905Y-127624523D01*
X261261905Y-127624523D02*
X261214286Y-127434047D01*
X261214286Y-127434047D02*
X261214286Y-127291190D01*
X261214286Y-127291190D02*
X261261905Y-127100714D01*
X261261905Y-127100714D02*
X261309524Y-127005476D01*
X261309524Y-127005476D02*
X261404762Y-126910238D01*
X261404762Y-126910238D02*
X261547619Y-126862619D01*
X261547619Y-126862619D02*
X261642857Y-126862619D01*
X261642857Y-126862619D02*
X261785714Y-126910238D01*
X261785714Y-126910238D02*
X261833333Y-126957857D01*
X262214286Y-126957857D02*
X262261905Y-126910238D01*
X262261905Y-126910238D02*
X262357143Y-126862619D01*
X262357143Y-126862619D02*
X262595238Y-126862619D01*
X262595238Y-126862619D02*
X262690476Y-126910238D01*
X262690476Y-126910238D02*
X262738095Y-126957857D01*
X262738095Y-126957857D02*
X262785714Y-127053095D01*
X262785714Y-127053095D02*
X262785714Y-127148333D01*
X262785714Y-127148333D02*
X262738095Y-127291190D01*
X262738095Y-127291190D02*
X262166667Y-127862619D01*
X262166667Y-127862619D02*
X262785714Y-127862619D01*
X254762619Y-140366666D02*
X254286428Y-140699999D01*
X254762619Y-140938094D02*
X253762619Y-140938094D01*
X253762619Y-140938094D02*
X253762619Y-140557142D01*
X253762619Y-140557142D02*
X253810238Y-140461904D01*
X253810238Y-140461904D02*
X253857857Y-140414285D01*
X253857857Y-140414285D02*
X253953095Y-140366666D01*
X253953095Y-140366666D02*
X254095952Y-140366666D01*
X254095952Y-140366666D02*
X254191190Y-140414285D01*
X254191190Y-140414285D02*
X254238809Y-140461904D01*
X254238809Y-140461904D02*
X254286428Y-140557142D01*
X254286428Y-140557142D02*
X254286428Y-140938094D01*
X254762619Y-139414285D02*
X254762619Y-139985713D01*
X254762619Y-139699999D02*
X253762619Y-139699999D01*
X253762619Y-139699999D02*
X253905476Y-139795237D01*
X253905476Y-139795237D02*
X254000714Y-139890475D01*
X254000714Y-139890475D02*
X254048333Y-139985713D01*
X251604761Y-102157857D02*
X251509523Y-102110238D01*
X251509523Y-102110238D02*
X251414285Y-102015000D01*
X251414285Y-102015000D02*
X251271428Y-101872142D01*
X251271428Y-101872142D02*
X251176190Y-101824523D01*
X251176190Y-101824523D02*
X251080952Y-101824523D01*
X251128571Y-102062619D02*
X251033333Y-102015000D01*
X251033333Y-102015000D02*
X250938095Y-101919761D01*
X250938095Y-101919761D02*
X250890476Y-101729285D01*
X250890476Y-101729285D02*
X250890476Y-101395952D01*
X250890476Y-101395952D02*
X250938095Y-101205476D01*
X250938095Y-101205476D02*
X251033333Y-101110238D01*
X251033333Y-101110238D02*
X251128571Y-101062619D01*
X251128571Y-101062619D02*
X251319047Y-101062619D01*
X251319047Y-101062619D02*
X251414285Y-101110238D01*
X251414285Y-101110238D02*
X251509523Y-101205476D01*
X251509523Y-101205476D02*
X251557142Y-101395952D01*
X251557142Y-101395952D02*
X251557142Y-101729285D01*
X251557142Y-101729285D02*
X251509523Y-101919761D01*
X251509523Y-101919761D02*
X251414285Y-102015000D01*
X251414285Y-102015000D02*
X251319047Y-102062619D01*
X251319047Y-102062619D02*
X251128571Y-102062619D01*
X252033333Y-102062619D02*
X252223809Y-102062619D01*
X252223809Y-102062619D02*
X252319047Y-102015000D01*
X252319047Y-102015000D02*
X252366666Y-101967380D01*
X252366666Y-101967380D02*
X252461904Y-101824523D01*
X252461904Y-101824523D02*
X252509523Y-101634047D01*
X252509523Y-101634047D02*
X252509523Y-101253095D01*
X252509523Y-101253095D02*
X252461904Y-101157857D01*
X252461904Y-101157857D02*
X252414285Y-101110238D01*
X252414285Y-101110238D02*
X252319047Y-101062619D01*
X252319047Y-101062619D02*
X252128571Y-101062619D01*
X252128571Y-101062619D02*
X252033333Y-101110238D01*
X252033333Y-101110238D02*
X251985714Y-101157857D01*
X251985714Y-101157857D02*
X251938095Y-101253095D01*
X251938095Y-101253095D02*
X251938095Y-101491190D01*
X251938095Y-101491190D02*
X251985714Y-101586428D01*
X251985714Y-101586428D02*
X252033333Y-101634047D01*
X252033333Y-101634047D02*
X252128571Y-101681666D01*
X252128571Y-101681666D02*
X252319047Y-101681666D01*
X252319047Y-101681666D02*
X252414285Y-101634047D01*
X252414285Y-101634047D02*
X252461904Y-101586428D01*
X252461904Y-101586428D02*
X252509523Y-101491190D01*
X185505219Y-98835633D02*
X186219504Y-98835633D01*
X186219504Y-98835633D02*
X186362361Y-98883252D01*
X186362361Y-98883252D02*
X186457600Y-98978490D01*
X186457600Y-98978490D02*
X186505219Y-99121347D01*
X186505219Y-99121347D02*
X186505219Y-99216585D01*
X185505219Y-98454680D02*
X185505219Y-97835633D01*
X185505219Y-97835633D02*
X185886171Y-98168966D01*
X185886171Y-98168966D02*
X185886171Y-98026109D01*
X185886171Y-98026109D02*
X185933790Y-97930871D01*
X185933790Y-97930871D02*
X185981409Y-97883252D01*
X185981409Y-97883252D02*
X186076647Y-97835633D01*
X186076647Y-97835633D02*
X186314742Y-97835633D01*
X186314742Y-97835633D02*
X186409980Y-97883252D01*
X186409980Y-97883252D02*
X186457600Y-97930871D01*
X186457600Y-97930871D02*
X186505219Y-98026109D01*
X186505219Y-98026109D02*
X186505219Y-98311823D01*
X186505219Y-98311823D02*
X186457600Y-98407061D01*
X186457600Y-98407061D02*
X186409980Y-98454680D01*
D11*
X186299999Y-144206071D02*
X186299999Y-143134642D01*
X186299999Y-143134642D02*
X186371428Y-142920357D01*
X186371428Y-142920357D02*
X186514285Y-142777500D01*
X186514285Y-142777500D02*
X186728571Y-142706071D01*
X186728571Y-142706071D02*
X186871428Y-142706071D01*
X184799999Y-142706071D02*
X185657142Y-142706071D01*
X185228571Y-142706071D02*
X185228571Y-144206071D01*
X185228571Y-144206071D02*
X185371428Y-143991785D01*
X185371428Y-143991785D02*
X185514285Y-143848928D01*
X185514285Y-143848928D02*
X185657142Y-143777500D01*
D10*
X206688095Y-133612619D02*
X206688095Y-134422142D01*
X206688095Y-134422142D02*
X206735714Y-134517380D01*
X206735714Y-134517380D02*
X206783333Y-134565000D01*
X206783333Y-134565000D02*
X206878571Y-134612619D01*
X206878571Y-134612619D02*
X207069047Y-134612619D01*
X207069047Y-134612619D02*
X207164285Y-134565000D01*
X207164285Y-134565000D02*
X207211904Y-134517380D01*
X207211904Y-134517380D02*
X207259523Y-134422142D01*
X207259523Y-134422142D02*
X207259523Y-133612619D01*
X208211904Y-133612619D02*
X207735714Y-133612619D01*
X207735714Y-133612619D02*
X207688095Y-134088809D01*
X207688095Y-134088809D02*
X207735714Y-134041190D01*
X207735714Y-134041190D02*
X207830952Y-133993571D01*
X207830952Y-133993571D02*
X208069047Y-133993571D01*
X208069047Y-133993571D02*
X208164285Y-134041190D01*
X208164285Y-134041190D02*
X208211904Y-134088809D01*
X208211904Y-134088809D02*
X208259523Y-134184047D01*
X208259523Y-134184047D02*
X208259523Y-134422142D01*
X208259523Y-134422142D02*
X208211904Y-134517380D01*
X208211904Y-134517380D02*
X208164285Y-134565000D01*
X208164285Y-134565000D02*
X208069047Y-134612619D01*
X208069047Y-134612619D02*
X207830952Y-134612619D01*
X207830952Y-134612619D02*
X207735714Y-134565000D01*
X207735714Y-134565000D02*
X207688095Y-134517380D01*
X252788095Y-98212619D02*
X252788095Y-99022142D01*
X252788095Y-99022142D02*
X252835714Y-99117380D01*
X252835714Y-99117380D02*
X252883333Y-99165000D01*
X252883333Y-99165000D02*
X252978571Y-99212619D01*
X252978571Y-99212619D02*
X253169047Y-99212619D01*
X253169047Y-99212619D02*
X253264285Y-99165000D01*
X253264285Y-99165000D02*
X253311904Y-99117380D01*
X253311904Y-99117380D02*
X253359523Y-99022142D01*
X253359523Y-99022142D02*
X253359523Y-98212619D01*
X253978571Y-98641190D02*
X253883333Y-98593571D01*
X253883333Y-98593571D02*
X253835714Y-98545952D01*
X253835714Y-98545952D02*
X253788095Y-98450714D01*
X253788095Y-98450714D02*
X253788095Y-98403095D01*
X253788095Y-98403095D02*
X253835714Y-98307857D01*
X253835714Y-98307857D02*
X253883333Y-98260238D01*
X253883333Y-98260238D02*
X253978571Y-98212619D01*
X253978571Y-98212619D02*
X254169047Y-98212619D01*
X254169047Y-98212619D02*
X254264285Y-98260238D01*
X254264285Y-98260238D02*
X254311904Y-98307857D01*
X254311904Y-98307857D02*
X254359523Y-98403095D01*
X254359523Y-98403095D02*
X254359523Y-98450714D01*
X254359523Y-98450714D02*
X254311904Y-98545952D01*
X254311904Y-98545952D02*
X254264285Y-98593571D01*
X254264285Y-98593571D02*
X254169047Y-98641190D01*
X254169047Y-98641190D02*
X253978571Y-98641190D01*
X253978571Y-98641190D02*
X253883333Y-98688809D01*
X253883333Y-98688809D02*
X253835714Y-98736428D01*
X253835714Y-98736428D02*
X253788095Y-98831666D01*
X253788095Y-98831666D02*
X253788095Y-99022142D01*
X253788095Y-99022142D02*
X253835714Y-99117380D01*
X253835714Y-99117380D02*
X253883333Y-99165000D01*
X253883333Y-99165000D02*
X253978571Y-99212619D01*
X253978571Y-99212619D02*
X254169047Y-99212619D01*
X254169047Y-99212619D02*
X254264285Y-99165000D01*
X254264285Y-99165000D02*
X254311904Y-99117380D01*
X254311904Y-99117380D02*
X254359523Y-99022142D01*
X254359523Y-99022142D02*
X254359523Y-98831666D01*
X254359523Y-98831666D02*
X254311904Y-98736428D01*
X254311904Y-98736428D02*
X254264285Y-98688809D01*
X254264285Y-98688809D02*
X254169047Y-98641190D01*
X221311905Y-104762619D02*
X221311905Y-105572142D01*
X221311905Y-105572142D02*
X221359524Y-105667380D01*
X221359524Y-105667380D02*
X221407143Y-105715000D01*
X221407143Y-105715000D02*
X221502381Y-105762619D01*
X221502381Y-105762619D02*
X221692857Y-105762619D01*
X221692857Y-105762619D02*
X221788095Y-105715000D01*
X221788095Y-105715000D02*
X221835714Y-105667380D01*
X221835714Y-105667380D02*
X221883333Y-105572142D01*
X221883333Y-105572142D02*
X221883333Y-104762619D01*
X222883333Y-105762619D02*
X222311905Y-105762619D01*
X222597619Y-105762619D02*
X222597619Y-104762619D01*
X222597619Y-104762619D02*
X222502381Y-104905476D01*
X222502381Y-104905476D02*
X222407143Y-105000714D01*
X222407143Y-105000714D02*
X222311905Y-105048333D01*
X223835714Y-105762619D02*
X223264286Y-105762619D01*
X223550000Y-105762619D02*
X223550000Y-104762619D01*
X223550000Y-104762619D02*
X223454762Y-104905476D01*
X223454762Y-104905476D02*
X223359524Y-105000714D01*
X223359524Y-105000714D02*
X223264286Y-105048333D01*
X213607857Y-132545238D02*
X213560238Y-132640476D01*
X213560238Y-132640476D02*
X213465000Y-132735714D01*
X213465000Y-132735714D02*
X213322142Y-132878571D01*
X213322142Y-132878571D02*
X213274523Y-132973809D01*
X213274523Y-132973809D02*
X213274523Y-133069047D01*
X213512619Y-133021428D02*
X213465000Y-133116666D01*
X213465000Y-133116666D02*
X213369761Y-133211904D01*
X213369761Y-133211904D02*
X213179285Y-133259523D01*
X213179285Y-133259523D02*
X212845952Y-133259523D01*
X212845952Y-133259523D02*
X212655476Y-133211904D01*
X212655476Y-133211904D02*
X212560238Y-133116666D01*
X212560238Y-133116666D02*
X212512619Y-133021428D01*
X212512619Y-133021428D02*
X212512619Y-132830952D01*
X212512619Y-132830952D02*
X212560238Y-132735714D01*
X212560238Y-132735714D02*
X212655476Y-132640476D01*
X212655476Y-132640476D02*
X212845952Y-132592857D01*
X212845952Y-132592857D02*
X213179285Y-132592857D01*
X213179285Y-132592857D02*
X213369761Y-132640476D01*
X213369761Y-132640476D02*
X213465000Y-132735714D01*
X213465000Y-132735714D02*
X213512619Y-132830952D01*
X213512619Y-132830952D02*
X213512619Y-133021428D01*
X212512619Y-132259523D02*
X212512619Y-131640476D01*
X212512619Y-131640476D02*
X212893571Y-131973809D01*
X212893571Y-131973809D02*
X212893571Y-131830952D01*
X212893571Y-131830952D02*
X212941190Y-131735714D01*
X212941190Y-131735714D02*
X212988809Y-131688095D01*
X212988809Y-131688095D02*
X213084047Y-131640476D01*
X213084047Y-131640476D02*
X213322142Y-131640476D01*
X213322142Y-131640476D02*
X213417380Y-131688095D01*
X213417380Y-131688095D02*
X213465000Y-131735714D01*
X213465000Y-131735714D02*
X213512619Y-131830952D01*
X213512619Y-131830952D02*
X213512619Y-132116666D01*
X213512619Y-132116666D02*
X213465000Y-132211904D01*
X213465000Y-132211904D02*
X213417380Y-132259523D01*
X227988095Y-133962619D02*
X227988095Y-134772142D01*
X227988095Y-134772142D02*
X228035714Y-134867380D01*
X228035714Y-134867380D02*
X228083333Y-134915000D01*
X228083333Y-134915000D02*
X228178571Y-134962619D01*
X228178571Y-134962619D02*
X228369047Y-134962619D01*
X228369047Y-134962619D02*
X228464285Y-134915000D01*
X228464285Y-134915000D02*
X228511904Y-134867380D01*
X228511904Y-134867380D02*
X228559523Y-134772142D01*
X228559523Y-134772142D02*
X228559523Y-133962619D01*
X228988095Y-134057857D02*
X229035714Y-134010238D01*
X229035714Y-134010238D02*
X229130952Y-133962619D01*
X229130952Y-133962619D02*
X229369047Y-133962619D01*
X229369047Y-133962619D02*
X229464285Y-134010238D01*
X229464285Y-134010238D02*
X229511904Y-134057857D01*
X229511904Y-134057857D02*
X229559523Y-134153095D01*
X229559523Y-134153095D02*
X229559523Y-134248333D01*
X229559523Y-134248333D02*
X229511904Y-134391190D01*
X229511904Y-134391190D02*
X228940476Y-134962619D01*
X228940476Y-134962619D02*
X229559523Y-134962619D01*
X249511905Y-134962619D02*
X249511905Y-133962619D01*
X249511905Y-133962619D02*
X249750000Y-133962619D01*
X249750000Y-133962619D02*
X249892857Y-134010238D01*
X249892857Y-134010238D02*
X249988095Y-134105476D01*
X249988095Y-134105476D02*
X250035714Y-134200714D01*
X250035714Y-134200714D02*
X250083333Y-134391190D01*
X250083333Y-134391190D02*
X250083333Y-134534047D01*
X250083333Y-134534047D02*
X250035714Y-134724523D01*
X250035714Y-134724523D02*
X249988095Y-134819761D01*
X249988095Y-134819761D02*
X249892857Y-134915000D01*
X249892857Y-134915000D02*
X249750000Y-134962619D01*
X249750000Y-134962619D02*
X249511905Y-134962619D01*
X250416667Y-133962619D02*
X251083333Y-133962619D01*
X251083333Y-133962619D02*
X250654762Y-134962619D01*
X245238095Y-105362619D02*
X245238095Y-106172142D01*
X245238095Y-106172142D02*
X245285714Y-106267380D01*
X245285714Y-106267380D02*
X245333333Y-106315000D01*
X245333333Y-106315000D02*
X245428571Y-106362619D01*
X245428571Y-106362619D02*
X245619047Y-106362619D01*
X245619047Y-106362619D02*
X245714285Y-106315000D01*
X245714285Y-106315000D02*
X245761904Y-106267380D01*
X245761904Y-106267380D02*
X245809523Y-106172142D01*
X245809523Y-106172142D02*
X245809523Y-105362619D01*
X246190476Y-105362619D02*
X246809523Y-105362619D01*
X246809523Y-105362619D02*
X246476190Y-105743571D01*
X246476190Y-105743571D02*
X246619047Y-105743571D01*
X246619047Y-105743571D02*
X246714285Y-105791190D01*
X246714285Y-105791190D02*
X246761904Y-105838809D01*
X246761904Y-105838809D02*
X246809523Y-105934047D01*
X246809523Y-105934047D02*
X246809523Y-106172142D01*
X246809523Y-106172142D02*
X246761904Y-106267380D01*
X246761904Y-106267380D02*
X246714285Y-106315000D01*
X246714285Y-106315000D02*
X246619047Y-106362619D01*
X246619047Y-106362619D02*
X246333333Y-106362619D01*
X246333333Y-106362619D02*
X246238095Y-106315000D01*
X246238095Y-106315000D02*
X246190476Y-106267380D01*
X255767380Y-102966666D02*
X255815000Y-103014285D01*
X255815000Y-103014285D02*
X255862619Y-103157142D01*
X255862619Y-103157142D02*
X255862619Y-103252380D01*
X255862619Y-103252380D02*
X255815000Y-103395237D01*
X255815000Y-103395237D02*
X255719761Y-103490475D01*
X255719761Y-103490475D02*
X255624523Y-103538094D01*
X255624523Y-103538094D02*
X255434047Y-103585713D01*
X255434047Y-103585713D02*
X255291190Y-103585713D01*
X255291190Y-103585713D02*
X255100714Y-103538094D01*
X255100714Y-103538094D02*
X255005476Y-103490475D01*
X255005476Y-103490475D02*
X254910238Y-103395237D01*
X254910238Y-103395237D02*
X254862619Y-103252380D01*
X254862619Y-103252380D02*
X254862619Y-103157142D01*
X254862619Y-103157142D02*
X254910238Y-103014285D01*
X254910238Y-103014285D02*
X254957857Y-102966666D01*
X255862619Y-102490475D02*
X255862619Y-102299999D01*
X255862619Y-102299999D02*
X255815000Y-102204761D01*
X255815000Y-102204761D02*
X255767380Y-102157142D01*
X255767380Y-102157142D02*
X255624523Y-102061904D01*
X255624523Y-102061904D02*
X255434047Y-102014285D01*
X255434047Y-102014285D02*
X255053095Y-102014285D01*
X255053095Y-102014285D02*
X254957857Y-102061904D01*
X254957857Y-102061904D02*
X254910238Y-102109523D01*
X254910238Y-102109523D02*
X254862619Y-102204761D01*
X254862619Y-102204761D02*
X254862619Y-102395237D01*
X254862619Y-102395237D02*
X254910238Y-102490475D01*
X254910238Y-102490475D02*
X254957857Y-102538094D01*
X254957857Y-102538094D02*
X255053095Y-102585713D01*
X255053095Y-102585713D02*
X255291190Y-102585713D01*
X255291190Y-102585713D02*
X255386428Y-102538094D01*
X255386428Y-102538094D02*
X255434047Y-102490475D01*
X255434047Y-102490475D02*
X255481666Y-102395237D01*
X255481666Y-102395237D02*
X255481666Y-102204761D01*
X255481666Y-102204761D02*
X255434047Y-102109523D01*
X255434047Y-102109523D02*
X255386428Y-102061904D01*
X255386428Y-102061904D02*
X255291190Y-102014285D01*
X264367380Y-125666666D02*
X264415000Y-125714285D01*
X264415000Y-125714285D02*
X264462619Y-125857142D01*
X264462619Y-125857142D02*
X264462619Y-125952380D01*
X264462619Y-125952380D02*
X264415000Y-126095237D01*
X264415000Y-126095237D02*
X264319761Y-126190475D01*
X264319761Y-126190475D02*
X264224523Y-126238094D01*
X264224523Y-126238094D02*
X264034047Y-126285713D01*
X264034047Y-126285713D02*
X263891190Y-126285713D01*
X263891190Y-126285713D02*
X263700714Y-126238094D01*
X263700714Y-126238094D02*
X263605476Y-126190475D01*
X263605476Y-126190475D02*
X263510238Y-126095237D01*
X263510238Y-126095237D02*
X263462619Y-125952380D01*
X263462619Y-125952380D02*
X263462619Y-125857142D01*
X263462619Y-125857142D02*
X263510238Y-125714285D01*
X263510238Y-125714285D02*
X263557857Y-125666666D01*
X263462619Y-125333332D02*
X263462619Y-124714285D01*
X263462619Y-124714285D02*
X263843571Y-125047618D01*
X263843571Y-125047618D02*
X263843571Y-124904761D01*
X263843571Y-124904761D02*
X263891190Y-124809523D01*
X263891190Y-124809523D02*
X263938809Y-124761904D01*
X263938809Y-124761904D02*
X264034047Y-124714285D01*
X264034047Y-124714285D02*
X264272142Y-124714285D01*
X264272142Y-124714285D02*
X264367380Y-124761904D01*
X264367380Y-124761904D02*
X264415000Y-124809523D01*
X264415000Y-124809523D02*
X264462619Y-124904761D01*
X264462619Y-124904761D02*
X264462619Y-125190475D01*
X264462619Y-125190475D02*
X264415000Y-125285713D01*
X264415000Y-125285713D02*
X264367380Y-125333332D01*
X258962619Y-101314285D02*
X257962619Y-101314285D01*
X257962619Y-101314285D02*
X257962619Y-101076190D01*
X257962619Y-101076190D02*
X258010238Y-100933333D01*
X258010238Y-100933333D02*
X258105476Y-100838095D01*
X258105476Y-100838095D02*
X258200714Y-100790476D01*
X258200714Y-100790476D02*
X258391190Y-100742857D01*
X258391190Y-100742857D02*
X258534047Y-100742857D01*
X258534047Y-100742857D02*
X258724523Y-100790476D01*
X258724523Y-100790476D02*
X258819761Y-100838095D01*
X258819761Y-100838095D02*
X258915000Y-100933333D01*
X258915000Y-100933333D02*
X258962619Y-101076190D01*
X258962619Y-101076190D02*
X258962619Y-101314285D01*
X258962619Y-99790476D02*
X258962619Y-100361904D01*
X258962619Y-100076190D02*
X257962619Y-100076190D01*
X257962619Y-100076190D02*
X258105476Y-100171428D01*
X258105476Y-100171428D02*
X258200714Y-100266666D01*
X258200714Y-100266666D02*
X258248333Y-100361904D01*
X258057857Y-99409523D02*
X258010238Y-99361904D01*
X258010238Y-99361904D02*
X257962619Y-99266666D01*
X257962619Y-99266666D02*
X257962619Y-99028571D01*
X257962619Y-99028571D02*
X258010238Y-98933333D01*
X258010238Y-98933333D02*
X258057857Y-98885714D01*
X258057857Y-98885714D02*
X258153095Y-98838095D01*
X258153095Y-98838095D02*
X258248333Y-98838095D01*
X258248333Y-98838095D02*
X258391190Y-98885714D01*
X258391190Y-98885714D02*
X258962619Y-99457142D01*
X258962619Y-99457142D02*
X258962619Y-98838095D01*
X260862619Y-105964285D02*
X260862619Y-106535713D01*
X260862619Y-106249999D02*
X259862619Y-106249999D01*
X259862619Y-106249999D02*
X260005476Y-106345237D01*
X260005476Y-106345237D02*
X260100714Y-106440475D01*
X260100714Y-106440475D02*
X260148333Y-106535713D01*
X232161905Y-120562619D02*
X232161905Y-121372142D01*
X232161905Y-121372142D02*
X232209524Y-121467380D01*
X232209524Y-121467380D02*
X232257143Y-121515000D01*
X232257143Y-121515000D02*
X232352381Y-121562619D01*
X232352381Y-121562619D02*
X232542857Y-121562619D01*
X232542857Y-121562619D02*
X232638095Y-121515000D01*
X232638095Y-121515000D02*
X232685714Y-121467380D01*
X232685714Y-121467380D02*
X232733333Y-121372142D01*
X232733333Y-121372142D02*
X232733333Y-120562619D01*
X233733333Y-121562619D02*
X233161905Y-121562619D01*
X233447619Y-121562619D02*
X233447619Y-120562619D01*
X233447619Y-120562619D02*
X233352381Y-120705476D01*
X233352381Y-120705476D02*
X233257143Y-120800714D01*
X233257143Y-120800714D02*
X233161905Y-120848333D01*
X234352381Y-120562619D02*
X234447619Y-120562619D01*
X234447619Y-120562619D02*
X234542857Y-120610238D01*
X234542857Y-120610238D02*
X234590476Y-120657857D01*
X234590476Y-120657857D02*
X234638095Y-120753095D01*
X234638095Y-120753095D02*
X234685714Y-120943571D01*
X234685714Y-120943571D02*
X234685714Y-121181666D01*
X234685714Y-121181666D02*
X234638095Y-121372142D01*
X234638095Y-121372142D02*
X234590476Y-121467380D01*
X234590476Y-121467380D02*
X234542857Y-121515000D01*
X234542857Y-121515000D02*
X234447619Y-121562619D01*
X234447619Y-121562619D02*
X234352381Y-121562619D01*
X234352381Y-121562619D02*
X234257143Y-121515000D01*
X234257143Y-121515000D02*
X234209524Y-121467380D01*
X234209524Y-121467380D02*
X234161905Y-121372142D01*
X234161905Y-121372142D02*
X234114286Y-121181666D01*
X234114286Y-121181666D02*
X234114286Y-120943571D01*
X234114286Y-120943571D02*
X234161905Y-120753095D01*
X234161905Y-120753095D02*
X234209524Y-120657857D01*
X234209524Y-120657857D02*
X234257143Y-120610238D01*
X234257143Y-120610238D02*
X234352381Y-120562619D01*
X239357142Y-142117380D02*
X239309523Y-142165000D01*
X239309523Y-142165000D02*
X239166666Y-142212619D01*
X239166666Y-142212619D02*
X239071428Y-142212619D01*
X239071428Y-142212619D02*
X238928571Y-142165000D01*
X238928571Y-142165000D02*
X238833333Y-142069761D01*
X238833333Y-142069761D02*
X238785714Y-141974523D01*
X238785714Y-141974523D02*
X238738095Y-141784047D01*
X238738095Y-141784047D02*
X238738095Y-141641190D01*
X238738095Y-141641190D02*
X238785714Y-141450714D01*
X238785714Y-141450714D02*
X238833333Y-141355476D01*
X238833333Y-141355476D02*
X238928571Y-141260238D01*
X238928571Y-141260238D02*
X239071428Y-141212619D01*
X239071428Y-141212619D02*
X239166666Y-141212619D01*
X239166666Y-141212619D02*
X239309523Y-141260238D01*
X239309523Y-141260238D02*
X239357142Y-141307857D01*
X240214285Y-141545952D02*
X240214285Y-142212619D01*
X239976190Y-141165000D02*
X239738095Y-141879285D01*
X239738095Y-141879285D02*
X240357142Y-141879285D01*
X241166666Y-141545952D02*
X241166666Y-142212619D01*
X240928571Y-141165000D02*
X240690476Y-141879285D01*
X240690476Y-141879285D02*
X241309523Y-141879285D01*
X254067380Y-103042857D02*
X254115000Y-103090476D01*
X254115000Y-103090476D02*
X254162619Y-103233333D01*
X254162619Y-103233333D02*
X254162619Y-103328571D01*
X254162619Y-103328571D02*
X254115000Y-103471428D01*
X254115000Y-103471428D02*
X254019761Y-103566666D01*
X254019761Y-103566666D02*
X253924523Y-103614285D01*
X253924523Y-103614285D02*
X253734047Y-103661904D01*
X253734047Y-103661904D02*
X253591190Y-103661904D01*
X253591190Y-103661904D02*
X253400714Y-103614285D01*
X253400714Y-103614285D02*
X253305476Y-103566666D01*
X253305476Y-103566666D02*
X253210238Y-103471428D01*
X253210238Y-103471428D02*
X253162619Y-103328571D01*
X253162619Y-103328571D02*
X253162619Y-103233333D01*
X253162619Y-103233333D02*
X253210238Y-103090476D01*
X253210238Y-103090476D02*
X253257857Y-103042857D01*
X254162619Y-102090476D02*
X254162619Y-102661904D01*
X254162619Y-102376190D02*
X253162619Y-102376190D01*
X253162619Y-102376190D02*
X253305476Y-102471428D01*
X253305476Y-102471428D02*
X253400714Y-102566666D01*
X253400714Y-102566666D02*
X253448333Y-102661904D01*
X253162619Y-101471428D02*
X253162619Y-101376190D01*
X253162619Y-101376190D02*
X253210238Y-101280952D01*
X253210238Y-101280952D02*
X253257857Y-101233333D01*
X253257857Y-101233333D02*
X253353095Y-101185714D01*
X253353095Y-101185714D02*
X253543571Y-101138095D01*
X253543571Y-101138095D02*
X253781666Y-101138095D01*
X253781666Y-101138095D02*
X253972142Y-101185714D01*
X253972142Y-101185714D02*
X254067380Y-101233333D01*
X254067380Y-101233333D02*
X254115000Y-101280952D01*
X254115000Y-101280952D02*
X254162619Y-101376190D01*
X254162619Y-101376190D02*
X254162619Y-101471428D01*
X254162619Y-101471428D02*
X254115000Y-101566666D01*
X254115000Y-101566666D02*
X254067380Y-101614285D01*
X254067380Y-101614285D02*
X253972142Y-101661904D01*
X253972142Y-101661904D02*
X253781666Y-101709523D01*
X253781666Y-101709523D02*
X253543571Y-101709523D01*
X253543571Y-101709523D02*
X253353095Y-101661904D01*
X253353095Y-101661904D02*
X253257857Y-101614285D01*
X253257857Y-101614285D02*
X253210238Y-101566666D01*
X253210238Y-101566666D02*
X253162619Y-101471428D01*
X245511905Y-132212619D02*
X245511905Y-131212619D01*
X245511905Y-131212619D02*
X245750000Y-131212619D01*
X245750000Y-131212619D02*
X245892857Y-131260238D01*
X245892857Y-131260238D02*
X245988095Y-131355476D01*
X245988095Y-131355476D02*
X246035714Y-131450714D01*
X246035714Y-131450714D02*
X246083333Y-131641190D01*
X246083333Y-131641190D02*
X246083333Y-131784047D01*
X246083333Y-131784047D02*
X246035714Y-131974523D01*
X246035714Y-131974523D02*
X245988095Y-132069761D01*
X245988095Y-132069761D02*
X245892857Y-132165000D01*
X245892857Y-132165000D02*
X245750000Y-132212619D01*
X245750000Y-132212619D02*
X245511905Y-132212619D01*
X246559524Y-132212619D02*
X246750000Y-132212619D01*
X246750000Y-132212619D02*
X246845238Y-132165000D01*
X246845238Y-132165000D02*
X246892857Y-132117380D01*
X246892857Y-132117380D02*
X246988095Y-131974523D01*
X246988095Y-131974523D02*
X247035714Y-131784047D01*
X247035714Y-131784047D02*
X247035714Y-131403095D01*
X247035714Y-131403095D02*
X246988095Y-131307857D01*
X246988095Y-131307857D02*
X246940476Y-131260238D01*
X246940476Y-131260238D02*
X246845238Y-131212619D01*
X246845238Y-131212619D02*
X246654762Y-131212619D01*
X246654762Y-131212619D02*
X246559524Y-131260238D01*
X246559524Y-131260238D02*
X246511905Y-131307857D01*
X246511905Y-131307857D02*
X246464286Y-131403095D01*
X246464286Y-131403095D02*
X246464286Y-131641190D01*
X246464286Y-131641190D02*
X246511905Y-131736428D01*
X246511905Y-131736428D02*
X246559524Y-131784047D01*
X246559524Y-131784047D02*
X246654762Y-131831666D01*
X246654762Y-131831666D02*
X246845238Y-131831666D01*
X246845238Y-131831666D02*
X246940476Y-131784047D01*
X246940476Y-131784047D02*
X246988095Y-131736428D01*
X246988095Y-131736428D02*
X247035714Y-131641190D01*
X236607142Y-145212619D02*
X236273809Y-144736428D01*
X236035714Y-145212619D02*
X236035714Y-144212619D01*
X236035714Y-144212619D02*
X236416666Y-144212619D01*
X236416666Y-144212619D02*
X236511904Y-144260238D01*
X236511904Y-144260238D02*
X236559523Y-144307857D01*
X236559523Y-144307857D02*
X236607142Y-144403095D01*
X236607142Y-144403095D02*
X236607142Y-144545952D01*
X236607142Y-144545952D02*
X236559523Y-144641190D01*
X236559523Y-144641190D02*
X236511904Y-144688809D01*
X236511904Y-144688809D02*
X236416666Y-144736428D01*
X236416666Y-144736428D02*
X236035714Y-144736428D01*
X237083333Y-145212619D02*
X237273809Y-145212619D01*
X237273809Y-145212619D02*
X237369047Y-145165000D01*
X237369047Y-145165000D02*
X237416666Y-145117380D01*
X237416666Y-145117380D02*
X237511904Y-144974523D01*
X237511904Y-144974523D02*
X237559523Y-144784047D01*
X237559523Y-144784047D02*
X237559523Y-144403095D01*
X237559523Y-144403095D02*
X237511904Y-144307857D01*
X237511904Y-144307857D02*
X237464285Y-144260238D01*
X237464285Y-144260238D02*
X237369047Y-144212619D01*
X237369047Y-144212619D02*
X237178571Y-144212619D01*
X237178571Y-144212619D02*
X237083333Y-144260238D01*
X237083333Y-144260238D02*
X237035714Y-144307857D01*
X237035714Y-144307857D02*
X236988095Y-144403095D01*
X236988095Y-144403095D02*
X236988095Y-144641190D01*
X236988095Y-144641190D02*
X237035714Y-144736428D01*
X237035714Y-144736428D02*
X237083333Y-144784047D01*
X237083333Y-144784047D02*
X237178571Y-144831666D01*
X237178571Y-144831666D02*
X237369047Y-144831666D01*
X237369047Y-144831666D02*
X237464285Y-144784047D01*
X237464285Y-144784047D02*
X237511904Y-144736428D01*
X237511904Y-144736428D02*
X237559523Y-144641190D01*
X238416666Y-144212619D02*
X238226190Y-144212619D01*
X238226190Y-144212619D02*
X238130952Y-144260238D01*
X238130952Y-144260238D02*
X238083333Y-144307857D01*
X238083333Y-144307857D02*
X237988095Y-144450714D01*
X237988095Y-144450714D02*
X237940476Y-144641190D01*
X237940476Y-144641190D02*
X237940476Y-145022142D01*
X237940476Y-145022142D02*
X237988095Y-145117380D01*
X237988095Y-145117380D02*
X238035714Y-145165000D01*
X238035714Y-145165000D02*
X238130952Y-145212619D01*
X238130952Y-145212619D02*
X238321428Y-145212619D01*
X238321428Y-145212619D02*
X238416666Y-145165000D01*
X238416666Y-145165000D02*
X238464285Y-145117380D01*
X238464285Y-145117380D02*
X238511904Y-145022142D01*
X238511904Y-145022142D02*
X238511904Y-144784047D01*
X238511904Y-144784047D02*
X238464285Y-144688809D01*
X238464285Y-144688809D02*
X238416666Y-144641190D01*
X238416666Y-144641190D02*
X238321428Y-144593571D01*
X238321428Y-144593571D02*
X238130952Y-144593571D01*
X238130952Y-144593571D02*
X238035714Y-144641190D01*
X238035714Y-144641190D02*
X237988095Y-144688809D01*
X237988095Y-144688809D02*
X237940476Y-144784047D01*
X247583333Y-144712619D02*
X247107143Y-144712619D01*
X247107143Y-144712619D02*
X247107143Y-143712619D01*
X247869048Y-143807857D02*
X247916667Y-143760238D01*
X247916667Y-143760238D02*
X248011905Y-143712619D01*
X248011905Y-143712619D02*
X248250000Y-143712619D01*
X248250000Y-143712619D02*
X248345238Y-143760238D01*
X248345238Y-143760238D02*
X248392857Y-143807857D01*
X248392857Y-143807857D02*
X248440476Y-143903095D01*
X248440476Y-143903095D02*
X248440476Y-143998333D01*
X248440476Y-143998333D02*
X248392857Y-144141190D01*
X248392857Y-144141190D02*
X247821429Y-144712619D01*
X247821429Y-144712619D02*
X248440476Y-144712619D01*
X238761905Y-139962619D02*
X238761905Y-140772142D01*
X238761905Y-140772142D02*
X238809524Y-140867380D01*
X238809524Y-140867380D02*
X238857143Y-140915000D01*
X238857143Y-140915000D02*
X238952381Y-140962619D01*
X238952381Y-140962619D02*
X239142857Y-140962619D01*
X239142857Y-140962619D02*
X239238095Y-140915000D01*
X239238095Y-140915000D02*
X239285714Y-140867380D01*
X239285714Y-140867380D02*
X239333333Y-140772142D01*
X239333333Y-140772142D02*
X239333333Y-139962619D01*
X240333333Y-140962619D02*
X239761905Y-140962619D01*
X240047619Y-140962619D02*
X240047619Y-139962619D01*
X240047619Y-139962619D02*
X239952381Y-140105476D01*
X239952381Y-140105476D02*
X239857143Y-140200714D01*
X239857143Y-140200714D02*
X239761905Y-140248333D01*
X240714286Y-140057857D02*
X240761905Y-140010238D01*
X240761905Y-140010238D02*
X240857143Y-139962619D01*
X240857143Y-139962619D02*
X241095238Y-139962619D01*
X241095238Y-139962619D02*
X241190476Y-140010238D01*
X241190476Y-140010238D02*
X241238095Y-140057857D01*
X241238095Y-140057857D02*
X241285714Y-140153095D01*
X241285714Y-140153095D02*
X241285714Y-140248333D01*
X241285714Y-140248333D02*
X241238095Y-140391190D01*
X241238095Y-140391190D02*
X240666667Y-140962619D01*
X240666667Y-140962619D02*
X241285714Y-140962619D01*
X219957142Y-134232619D02*
X219623809Y-133756428D01*
X219385714Y-134232619D02*
X219385714Y-133232619D01*
X219385714Y-133232619D02*
X219766666Y-133232619D01*
X219766666Y-133232619D02*
X219861904Y-133280238D01*
X219861904Y-133280238D02*
X219909523Y-133327857D01*
X219909523Y-133327857D02*
X219957142Y-133423095D01*
X219957142Y-133423095D02*
X219957142Y-133565952D01*
X219957142Y-133565952D02*
X219909523Y-133661190D01*
X219909523Y-133661190D02*
X219861904Y-133708809D01*
X219861904Y-133708809D02*
X219766666Y-133756428D01*
X219766666Y-133756428D02*
X219385714Y-133756428D01*
X220433333Y-134232619D02*
X220623809Y-134232619D01*
X220623809Y-134232619D02*
X220719047Y-134185000D01*
X220719047Y-134185000D02*
X220766666Y-134137380D01*
X220766666Y-134137380D02*
X220861904Y-133994523D01*
X220861904Y-133994523D02*
X220909523Y-133804047D01*
X220909523Y-133804047D02*
X220909523Y-133423095D01*
X220909523Y-133423095D02*
X220861904Y-133327857D01*
X220861904Y-133327857D02*
X220814285Y-133280238D01*
X220814285Y-133280238D02*
X220719047Y-133232619D01*
X220719047Y-133232619D02*
X220528571Y-133232619D01*
X220528571Y-133232619D02*
X220433333Y-133280238D01*
X220433333Y-133280238D02*
X220385714Y-133327857D01*
X220385714Y-133327857D02*
X220338095Y-133423095D01*
X220338095Y-133423095D02*
X220338095Y-133661190D01*
X220338095Y-133661190D02*
X220385714Y-133756428D01*
X220385714Y-133756428D02*
X220433333Y-133804047D01*
X220433333Y-133804047D02*
X220528571Y-133851666D01*
X220528571Y-133851666D02*
X220719047Y-133851666D01*
X220719047Y-133851666D02*
X220814285Y-133804047D01*
X220814285Y-133804047D02*
X220861904Y-133756428D01*
X220861904Y-133756428D02*
X220909523Y-133661190D01*
X221480952Y-133661190D02*
X221385714Y-133613571D01*
X221385714Y-133613571D02*
X221338095Y-133565952D01*
X221338095Y-133565952D02*
X221290476Y-133470714D01*
X221290476Y-133470714D02*
X221290476Y-133423095D01*
X221290476Y-133423095D02*
X221338095Y-133327857D01*
X221338095Y-133327857D02*
X221385714Y-133280238D01*
X221385714Y-133280238D02*
X221480952Y-133232619D01*
X221480952Y-133232619D02*
X221671428Y-133232619D01*
X221671428Y-133232619D02*
X221766666Y-133280238D01*
X221766666Y-133280238D02*
X221814285Y-133327857D01*
X221814285Y-133327857D02*
X221861904Y-133423095D01*
X221861904Y-133423095D02*
X221861904Y-133470714D01*
X221861904Y-133470714D02*
X221814285Y-133565952D01*
X221814285Y-133565952D02*
X221766666Y-133613571D01*
X221766666Y-133613571D02*
X221671428Y-133661190D01*
X221671428Y-133661190D02*
X221480952Y-133661190D01*
X221480952Y-133661190D02*
X221385714Y-133708809D01*
X221385714Y-133708809D02*
X221338095Y-133756428D01*
X221338095Y-133756428D02*
X221290476Y-133851666D01*
X221290476Y-133851666D02*
X221290476Y-134042142D01*
X221290476Y-134042142D02*
X221338095Y-134137380D01*
X221338095Y-134137380D02*
X221385714Y-134185000D01*
X221385714Y-134185000D02*
X221480952Y-134232619D01*
X221480952Y-134232619D02*
X221671428Y-134232619D01*
X221671428Y-134232619D02*
X221766666Y-134185000D01*
X221766666Y-134185000D02*
X221814285Y-134137380D01*
X221814285Y-134137380D02*
X221861904Y-134042142D01*
X221861904Y-134042142D02*
X221861904Y-133851666D01*
X221861904Y-133851666D02*
X221814285Y-133756428D01*
X221814285Y-133756428D02*
X221766666Y-133708809D01*
X221766666Y-133708809D02*
X221671428Y-133661190D01*
X193961905Y-140862619D02*
X193961905Y-139862619D01*
X193961905Y-139862619D02*
X194200000Y-139862619D01*
X194200000Y-139862619D02*
X194342857Y-139910238D01*
X194342857Y-139910238D02*
X194438095Y-140005476D01*
X194438095Y-140005476D02*
X194485714Y-140100714D01*
X194485714Y-140100714D02*
X194533333Y-140291190D01*
X194533333Y-140291190D02*
X194533333Y-140434047D01*
X194533333Y-140434047D02*
X194485714Y-140624523D01*
X194485714Y-140624523D02*
X194438095Y-140719761D01*
X194438095Y-140719761D02*
X194342857Y-140815000D01*
X194342857Y-140815000D02*
X194200000Y-140862619D01*
X194200000Y-140862619D02*
X193961905Y-140862619D01*
X195438095Y-139862619D02*
X194961905Y-139862619D01*
X194961905Y-139862619D02*
X194914286Y-140338809D01*
X194914286Y-140338809D02*
X194961905Y-140291190D01*
X194961905Y-140291190D02*
X195057143Y-140243571D01*
X195057143Y-140243571D02*
X195295238Y-140243571D01*
X195295238Y-140243571D02*
X195390476Y-140291190D01*
X195390476Y-140291190D02*
X195438095Y-140338809D01*
X195438095Y-140338809D02*
X195485714Y-140434047D01*
X195485714Y-140434047D02*
X195485714Y-140672142D01*
X195485714Y-140672142D02*
X195438095Y-140767380D01*
X195438095Y-140767380D02*
X195390476Y-140815000D01*
X195390476Y-140815000D02*
X195295238Y-140862619D01*
X195295238Y-140862619D02*
X195057143Y-140862619D01*
X195057143Y-140862619D02*
X194961905Y-140815000D01*
X194961905Y-140815000D02*
X194914286Y-140767380D01*
X225183333Y-142662619D02*
X224850000Y-142186428D01*
X224611905Y-142662619D02*
X224611905Y-141662619D01*
X224611905Y-141662619D02*
X224992857Y-141662619D01*
X224992857Y-141662619D02*
X225088095Y-141710238D01*
X225088095Y-141710238D02*
X225135714Y-141757857D01*
X225135714Y-141757857D02*
X225183333Y-141853095D01*
X225183333Y-141853095D02*
X225183333Y-141995952D01*
X225183333Y-141995952D02*
X225135714Y-142091190D01*
X225135714Y-142091190D02*
X225088095Y-142138809D01*
X225088095Y-142138809D02*
X224992857Y-142186428D01*
X224992857Y-142186428D02*
X224611905Y-142186428D01*
X226088095Y-141662619D02*
X225611905Y-141662619D01*
X225611905Y-141662619D02*
X225564286Y-142138809D01*
X225564286Y-142138809D02*
X225611905Y-142091190D01*
X225611905Y-142091190D02*
X225707143Y-142043571D01*
X225707143Y-142043571D02*
X225945238Y-142043571D01*
X225945238Y-142043571D02*
X226040476Y-142091190D01*
X226040476Y-142091190D02*
X226088095Y-142138809D01*
X226088095Y-142138809D02*
X226135714Y-142234047D01*
X226135714Y-142234047D02*
X226135714Y-142472142D01*
X226135714Y-142472142D02*
X226088095Y-142567380D01*
X226088095Y-142567380D02*
X226040476Y-142615000D01*
X226040476Y-142615000D02*
X225945238Y-142662619D01*
X225945238Y-142662619D02*
X225707143Y-142662619D01*
X225707143Y-142662619D02*
X225611905Y-142615000D01*
X225611905Y-142615000D02*
X225564286Y-142567380D01*
X190685714Y-140862619D02*
X190685714Y-139862619D01*
X190685714Y-139862619D02*
X190923809Y-139862619D01*
X190923809Y-139862619D02*
X191066666Y-139910238D01*
X191066666Y-139910238D02*
X191161904Y-140005476D01*
X191161904Y-140005476D02*
X191209523Y-140100714D01*
X191209523Y-140100714D02*
X191257142Y-140291190D01*
X191257142Y-140291190D02*
X191257142Y-140434047D01*
X191257142Y-140434047D02*
X191209523Y-140624523D01*
X191209523Y-140624523D02*
X191161904Y-140719761D01*
X191161904Y-140719761D02*
X191066666Y-140815000D01*
X191066666Y-140815000D02*
X190923809Y-140862619D01*
X190923809Y-140862619D02*
X190685714Y-140862619D01*
X192209523Y-140862619D02*
X191638095Y-140862619D01*
X191923809Y-140862619D02*
X191923809Y-139862619D01*
X191923809Y-139862619D02*
X191828571Y-140005476D01*
X191828571Y-140005476D02*
X191733333Y-140100714D01*
X191733333Y-140100714D02*
X191638095Y-140148333D01*
X192685714Y-140862619D02*
X192876190Y-140862619D01*
X192876190Y-140862619D02*
X192971428Y-140815000D01*
X192971428Y-140815000D02*
X193019047Y-140767380D01*
X193019047Y-140767380D02*
X193114285Y-140624523D01*
X193114285Y-140624523D02*
X193161904Y-140434047D01*
X193161904Y-140434047D02*
X193161904Y-140053095D01*
X193161904Y-140053095D02*
X193114285Y-139957857D01*
X193114285Y-139957857D02*
X193066666Y-139910238D01*
X193066666Y-139910238D02*
X192971428Y-139862619D01*
X192971428Y-139862619D02*
X192780952Y-139862619D01*
X192780952Y-139862619D02*
X192685714Y-139910238D01*
X192685714Y-139910238D02*
X192638095Y-139957857D01*
X192638095Y-139957857D02*
X192590476Y-140053095D01*
X192590476Y-140053095D02*
X192590476Y-140291190D01*
X192590476Y-140291190D02*
X192638095Y-140386428D01*
X192638095Y-140386428D02*
X192685714Y-140434047D01*
X192685714Y-140434047D02*
X192780952Y-140481666D01*
X192780952Y-140481666D02*
X192971428Y-140481666D01*
X192971428Y-140481666D02*
X193066666Y-140434047D01*
X193066666Y-140434047D02*
X193114285Y-140386428D01*
X193114285Y-140386428D02*
X193161904Y-140291190D01*
D12*
X235500000Y-129650000D02*
X237500000Y-129650000D01*
X237500000Y-129650000D02*
X237500000Y-125750000D01*
X235500000Y-129650000D02*
X235500000Y-125750000D01*
D13*
X236500000Y-127750000D02*
X237050000Y-127750000D01*
X236500000Y-127750000D02*
X235950000Y-127750000D01*
X236500000Y-128150000D02*
X236500000Y-127750000D01*
X236500000Y-127750000D02*
X236100000Y-127150000D01*
X236500000Y-127150000D02*
X236500000Y-126650000D01*
X236900000Y-127150000D02*
X236500000Y-127750000D01*
X236100000Y-127150000D02*
X236900000Y-127150000D01*
D14*
X233225000Y-133950000D02*
G75*
G03*
X233225000Y-133950000I-200000J0D01*
G01*
D12*
X230625000Y-132950000D02*
X228925000Y-132950000D01*
X231425000Y-132250000D02*
X230625000Y-132950000D01*
X231425000Y-128650000D02*
X231425000Y-132250000D01*
X228925000Y-128650000D02*
X231425000Y-128650000D01*
X228925000Y-132950000D02*
X228925000Y-128650000D01*
X235850000Y-129850000D02*
X236266000Y-130100000D01*
X234250000Y-129850000D02*
X235850000Y-129850000D01*
X236266000Y-133650000D02*
X236266000Y-130100000D01*
X234250000Y-133650000D02*
X234250000Y-129850000D01*
X234250000Y-133650000D02*
X236266000Y-133650000D01*
X225140580Y-133510000D02*
X224859420Y-133510000D01*
X225140580Y-132490000D02*
X224859420Y-132490000D01*
X237142164Y-130140000D02*
X237357836Y-130140000D01*
X237142164Y-130860000D02*
X237357836Y-130860000D01*
X237142164Y-133360000D02*
X237357836Y-133360000D01*
X237142164Y-132640000D02*
X237357836Y-132640000D01*
X224612742Y-120427500D02*
X225087258Y-120427500D01*
X224612742Y-121472500D02*
X225087258Y-121472500D01*
X224612742Y-118927500D02*
X225087258Y-118927500D01*
X224612742Y-119972500D02*
X225087258Y-119972500D01*
X230522500Y-120262742D02*
X230522500Y-120737258D01*
X229477500Y-120262742D02*
X229477500Y-120737258D01*
X224737258Y-127422500D02*
X224262742Y-127422500D01*
X224737258Y-126377500D02*
X224262742Y-126377500D01*
X239490000Y-119940580D02*
X239490000Y-119659420D01*
X240510000Y-119940580D02*
X240510000Y-119659420D01*
X208240000Y-108580000D02*
X210400000Y-108580000D01*
X208240000Y-108580000D02*
X208240000Y-107650000D01*
X208240000Y-105420000D02*
X209700000Y-105420000D01*
X208240000Y-105420000D02*
X208240000Y-106350000D01*
X222860000Y-123859420D02*
X222860000Y-124140580D01*
X221840000Y-123859420D02*
X221840000Y-124140580D01*
X187940580Y-131260000D02*
X187659420Y-131260000D01*
X187940580Y-130240000D02*
X187659420Y-130240000D01*
X187711252Y-133610000D02*
X186288748Y-133610000D01*
X187711252Y-131790000D02*
X186288748Y-131790000D01*
X223600000Y-141050000D02*
X222700000Y-141050000D01*
X223600000Y-136850000D02*
X223600000Y-141050000D01*
X221900000Y-141050000D02*
X221000000Y-141050000D01*
X221000000Y-141050000D02*
X221000000Y-136850000D01*
X221000000Y-136850000D02*
X223600000Y-136850000D01*
X222700000Y-141050000D02*
G75*
G03*
X221900000Y-141050000I-400000J0D01*
G01*
X217537258Y-124722500D02*
X217062742Y-124722500D01*
X217537258Y-123677500D02*
X217062742Y-123677500D01*
X215200000Y-124300000D02*
X213550000Y-124300000D01*
X213550000Y-122500000D02*
X214850000Y-122500000D01*
X209027500Y-128937258D02*
X209027500Y-128462742D01*
X210072500Y-128937258D02*
X210072500Y-128462742D01*
X196987258Y-106422500D02*
X196512742Y-106422500D01*
X196987258Y-105377500D02*
X196512742Y-105377500D01*
X236260000Y-136609420D02*
X236260000Y-136890580D01*
X235240000Y-136609420D02*
X235240000Y-136890580D01*
X261859420Y-97240000D02*
X262140580Y-97240000D01*
X261859420Y-98260000D02*
X262140580Y-98260000D01*
X208970000Y-124640000D02*
X208970000Y-126800000D01*
X208970000Y-124640000D02*
X209900000Y-124640000D01*
X212130000Y-124640000D02*
X212130000Y-126100000D01*
X212130000Y-124640000D02*
X211200000Y-124640000D01*
X208659420Y-110490000D02*
X208940580Y-110490000D01*
X208659420Y-111510000D02*
X208940580Y-111510000D01*
X202190000Y-138840580D02*
X202190000Y-138559420D01*
X203210000Y-138840580D02*
X203210000Y-138559420D01*
X224359420Y-127890000D02*
X224640580Y-127890000D01*
X224359420Y-128910000D02*
X224640580Y-128910000D01*
X230790000Y-120640580D02*
X230790000Y-120359420D01*
X231810000Y-120640580D02*
X231810000Y-120359420D01*
X213565000Y-139215000D02*
X213565000Y-140685000D01*
X213565000Y-140685000D02*
X215850000Y-140685000D01*
X215850000Y-139215000D02*
X213565000Y-139215000D01*
X213565000Y-137715000D02*
X213565000Y-139185000D01*
X213565000Y-139185000D02*
X215850000Y-139185000D01*
X215850000Y-137715000D02*
X213565000Y-137715000D01*
X217537258Y-116222500D02*
X217062742Y-116222500D01*
X217537258Y-115177500D02*
X217062742Y-115177500D01*
X217537258Y-118072500D02*
X217062742Y-118072500D01*
X217537258Y-117027500D02*
X217062742Y-117027500D01*
X217537258Y-126722500D02*
X217062742Y-126722500D01*
X217537258Y-125677500D02*
X217062742Y-125677500D01*
X189277500Y-142137258D02*
X189277500Y-141662742D01*
X190322500Y-142137258D02*
X190322500Y-141662742D01*
X233522500Y-116962742D02*
X233522500Y-117437258D01*
X232477500Y-116962742D02*
X232477500Y-117437258D01*
X235922500Y-116962742D02*
X235922500Y-117437258D01*
X234877500Y-116962742D02*
X234877500Y-117437258D01*
X226677500Y-114437258D02*
X226677500Y-113962742D01*
X227722500Y-114437258D02*
X227722500Y-113962742D01*
X217062742Y-120177500D02*
X217537258Y-120177500D01*
X217062742Y-121222500D02*
X217537258Y-121222500D01*
X217537258Y-119572500D02*
X217062742Y-119572500D01*
X217537258Y-118527500D02*
X217062742Y-118527500D01*
X206177500Y-142437258D02*
X206177500Y-141962742D01*
X207222500Y-142437258D02*
X207222500Y-141962742D01*
X191922500Y-131662742D02*
X191922500Y-132137258D01*
X190877500Y-131662742D02*
X190877500Y-132137258D01*
X197022500Y-131262742D02*
X197022500Y-131737258D01*
X195977500Y-131262742D02*
X195977500Y-131737258D01*
X200022500Y-131262742D02*
X200022500Y-131737258D01*
X198977500Y-131262742D02*
X198977500Y-131737258D01*
X201522500Y-131262742D02*
X201522500Y-131737258D01*
X200477500Y-131262742D02*
X200477500Y-131737258D01*
X203022500Y-131262742D02*
X203022500Y-131737258D01*
X201977500Y-131262742D02*
X201977500Y-131737258D01*
X208562742Y-111977500D02*
X209037258Y-111977500D01*
X208562742Y-113022500D02*
X209037258Y-113022500D01*
X192327500Y-108387258D02*
X192327500Y-107912742D01*
X193372500Y-108387258D02*
X193372500Y-107912742D01*
X216137258Y-114222500D02*
X215662742Y-114222500D01*
X216137258Y-113177500D02*
X215662742Y-113177500D01*
X195477500Y-108337258D02*
X195477500Y-107862742D01*
X196522500Y-108337258D02*
X196522500Y-107862742D01*
X199177500Y-108387258D02*
X199177500Y-107912742D01*
X200222500Y-108387258D02*
X200222500Y-107912742D01*
X201177500Y-108387258D02*
X201177500Y-107912742D01*
X202222500Y-108387258D02*
X202222500Y-107912742D01*
X190677500Y-108387258D02*
X190677500Y-107912742D01*
X191722500Y-108387258D02*
X191722500Y-107912742D01*
X188927500Y-108387258D02*
X188927500Y-107912742D01*
X189972500Y-108387258D02*
X189972500Y-107912742D01*
X202927500Y-108387258D02*
X202927500Y-107912742D01*
X203972500Y-108387258D02*
X203972500Y-107912742D01*
X205977500Y-108437258D02*
X205977500Y-107962742D01*
X207022500Y-108437258D02*
X207022500Y-107962742D01*
X243600000Y-123800000D02*
X242800000Y-122900000D01*
X247200000Y-123800000D02*
X243600000Y-123800000D01*
X242800000Y-122900000D02*
X242800000Y-121200000D01*
X242800000Y-121200000D02*
X247200000Y-121200000D01*
X247200000Y-121200000D02*
X247200000Y-123800000D01*
X259659420Y-122990000D02*
X259940580Y-122990000D01*
X259659420Y-124010000D02*
X259940580Y-124010000D01*
X261040580Y-114810000D02*
X260759420Y-114810000D01*
X261040580Y-113790000D02*
X260759420Y-113790000D01*
X261340000Y-112607836D02*
X261340000Y-112392164D01*
X262060000Y-112607836D02*
X262060000Y-112392164D01*
X242840580Y-115760000D02*
X242559420Y-115760000D01*
X242840580Y-114740000D02*
X242559420Y-114740000D01*
X206050000Y-146450000D02*
X206050000Y-144450000D01*
X206050000Y-146450000D02*
X202150000Y-146450000D01*
X206050000Y-144450000D02*
X202150000Y-144450000D01*
X214550000Y-146700000D02*
X214550000Y-144700000D01*
X214550000Y-146700000D02*
X210650000Y-146700000D01*
X214550000Y-144700000D02*
X210650000Y-144700000D01*
X256600000Y-115350000D02*
X254600000Y-115350000D01*
X256600000Y-115350000D02*
X256600000Y-119250000D01*
X254600000Y-115350000D02*
X254600000Y-119250000D01*
X215050000Y-117450000D02*
X213400000Y-117450000D01*
X213400000Y-115650000D02*
X214700000Y-115650000D01*
X215050000Y-128100000D02*
X213400000Y-128100000D01*
X213400000Y-126300000D02*
X214700000Y-126300000D01*
X213050000Y-119150000D02*
X214700000Y-119150000D01*
X214700000Y-120950000D02*
X213400000Y-120950000D01*
X211812742Y-139427500D02*
X212287258Y-139427500D01*
X211812742Y-140472500D02*
X212287258Y-140472500D01*
X211812742Y-137927500D02*
X212287258Y-137927500D01*
X211812742Y-138972500D02*
X212287258Y-138972500D01*
X248362742Y-98577500D02*
X248837258Y-98577500D01*
X248362742Y-99622500D02*
X248837258Y-99622500D01*
X258900000Y-120200000D02*
X258900000Y-119300000D01*
X263200000Y-120200000D02*
X258900000Y-120200000D01*
X263200000Y-120200000D02*
X263200000Y-117500000D01*
X258900000Y-118400000D02*
X258900000Y-117500000D01*
X263200000Y-117500000D02*
X258900000Y-117500000D01*
X258900000Y-119300000D02*
G75*
G03*
X258900000Y-118400000I0J450000D01*
G01*
D11*
X258450000Y-121600000D02*
G75*
G03*
X258450000Y-121600000I-150000J0D01*
G01*
D12*
X256511252Y-126410000D02*
X255088748Y-126410000D01*
X256511252Y-124590000D02*
X255088748Y-124590000D01*
X257090000Y-116840580D02*
X257090000Y-116559420D01*
X258110000Y-116840580D02*
X258110000Y-116559420D01*
X228362742Y-141477500D02*
X228837258Y-141477500D01*
X228362742Y-142522500D02*
X228837258Y-142522500D01*
X234311252Y-145710000D02*
X232888748Y-145710000D01*
X234311252Y-143890000D02*
X232888748Y-143890000D01*
X243162742Y-139977500D02*
X243637258Y-139977500D01*
X243162742Y-141022500D02*
X243637258Y-141022500D01*
X252060000Y-97309420D02*
X252060000Y-97590580D01*
X251040000Y-97309420D02*
X251040000Y-97590580D01*
X187777500Y-142137258D02*
X187777500Y-141662742D01*
X188822500Y-142137258D02*
X188822500Y-141662742D01*
X208562742Y-108977500D02*
X209037258Y-108977500D01*
X208562742Y-110022500D02*
X209037258Y-110022500D01*
X206037258Y-106372500D02*
X205562742Y-106372500D01*
X206037258Y-105327500D02*
X205562742Y-105327500D01*
X211962742Y-105477500D02*
X212437258Y-105477500D01*
X211962742Y-106522500D02*
X212437258Y-106522500D01*
X208522500Y-141962742D02*
X208522500Y-142437258D01*
X207477500Y-141962742D02*
X207477500Y-142437258D01*
X210312742Y-121577500D02*
X210787258Y-121577500D01*
X210312742Y-122622500D02*
X210787258Y-122622500D01*
X215040000Y-108980000D02*
X217200000Y-108980000D01*
X215040000Y-108980000D02*
X215040000Y-108050000D01*
X215040000Y-105820000D02*
X216500000Y-105820000D01*
X215040000Y-105820000D02*
X215040000Y-106750000D01*
X212340580Y-108110000D02*
X212059420Y-108110000D01*
X212340580Y-107090000D02*
X212059420Y-107090000D01*
X255000000Y-135000000D02*
X254200000Y-134000000D01*
X256800000Y-135000000D02*
X258000000Y-135000000D01*
X259800000Y-135000000D02*
X260600000Y-135000000D01*
X254200000Y-134000000D02*
X254200000Y-127800000D01*
X254200000Y-127800000D02*
X255000000Y-127800000D01*
X258000000Y-127800000D02*
X256800000Y-127800000D01*
X260600000Y-127800000D02*
X260600000Y-135000000D01*
X260600000Y-127800000D02*
X259800000Y-127800000D01*
X256500000Y-114600000D02*
X254500000Y-114600000D01*
X254500000Y-108600000D02*
X256500000Y-108600000D01*
D14*
X256310555Y-113750000D02*
G75*
G03*
X256310555Y-113750000I-250000J0D01*
G01*
D12*
X217290000Y-140340580D02*
X217290000Y-140059420D01*
X218310000Y-140340580D02*
X218310000Y-140059420D01*
X196037258Y-134222500D02*
X195562742Y-134222500D01*
X196037258Y-133177500D02*
X195562742Y-133177500D01*
X228977500Y-124737258D02*
X228977500Y-124262742D01*
X230022500Y-124737258D02*
X230022500Y-124262742D01*
X230477500Y-124737258D02*
X230477500Y-124262742D01*
X231522500Y-124737258D02*
X231522500Y-124262742D01*
X191480000Y-104160000D02*
X191480000Y-102000000D01*
X191480000Y-104160000D02*
X190550000Y-104160000D01*
X188320000Y-104160000D02*
X188320000Y-102700000D01*
X188320000Y-104160000D02*
X189250000Y-104160000D01*
X202480000Y-104160000D02*
X202480000Y-102000000D01*
X202480000Y-104160000D02*
X201550000Y-104160000D01*
X199320000Y-104160000D02*
X199320000Y-102700000D01*
X199320000Y-104160000D02*
X200250000Y-104160000D01*
X222080000Y-104160000D02*
X222080000Y-102000000D01*
X222080000Y-104160000D02*
X221150000Y-104160000D01*
X218920000Y-104160000D02*
X218920000Y-102700000D01*
X218920000Y-104160000D02*
X219850000Y-104160000D01*
X229980000Y-104160000D02*
X229980000Y-102000000D01*
X229980000Y-104160000D02*
X229050000Y-104160000D01*
X226820000Y-104160000D02*
X226820000Y-102700000D01*
X226820000Y-104160000D02*
X227750000Y-104160000D01*
X206580000Y-104160000D02*
X206580000Y-102000000D01*
X206580000Y-104160000D02*
X205650000Y-104160000D01*
X203420000Y-104160000D02*
X203420000Y-102700000D01*
X203420000Y-104160000D02*
X204350000Y-104160000D01*
X218180000Y-104160000D02*
X218180000Y-102000000D01*
X218180000Y-104160000D02*
X217250000Y-104160000D01*
X215020000Y-104160000D02*
X215020000Y-102700000D01*
X215020000Y-104160000D02*
X215950000Y-104160000D01*
X225980000Y-104160000D02*
X225980000Y-102000000D01*
X225980000Y-104160000D02*
X225050000Y-104160000D01*
X222820000Y-104160000D02*
X222820000Y-102700000D01*
X222820000Y-104160000D02*
X223750000Y-104160000D01*
X233980000Y-104160000D02*
X233980000Y-102000000D01*
X233980000Y-104160000D02*
X233050000Y-104160000D01*
X230820000Y-104160000D02*
X230820000Y-102700000D01*
X230820000Y-104160000D02*
X231750000Y-104160000D01*
X217537258Y-122972500D02*
X217062742Y-122972500D01*
X217537258Y-121927500D02*
X217062742Y-121927500D01*
X212072500Y-128462742D02*
X212072500Y-128937258D01*
X211027500Y-128462742D02*
X211027500Y-128937258D01*
X214380000Y-104160000D02*
X214380000Y-102000000D01*
X214380000Y-104160000D02*
X213450000Y-104160000D01*
X211220000Y-104160000D02*
X211220000Y-102700000D01*
X211220000Y-104160000D02*
X212150000Y-104160000D01*
X211962742Y-110077500D02*
X212437258Y-110077500D01*
X211962742Y-111122500D02*
X212437258Y-111122500D01*
X212437258Y-114122500D02*
X211962742Y-114122500D01*
X212437258Y-113077500D02*
X211962742Y-113077500D01*
X214990000Y-112730000D02*
X217150000Y-112730000D01*
X214990000Y-112730000D02*
X214990000Y-111800000D01*
X214990000Y-109570000D02*
X216450000Y-109570000D01*
X214990000Y-109570000D02*
X214990000Y-110500000D01*
X212340580Y-112610000D02*
X212059420Y-112610000D01*
X212340580Y-111590000D02*
X212059420Y-111590000D01*
X208562742Y-113477500D02*
X209037258Y-113477500D01*
X208562742Y-114522500D02*
X209037258Y-114522500D01*
X236727500Y-136987258D02*
X236727500Y-136512742D01*
X237772500Y-136987258D02*
X237772500Y-136512742D01*
X189527500Y-135387258D02*
X189527500Y-134912742D01*
X190572500Y-135387258D02*
X190572500Y-134912742D01*
X180535000Y-129020000D02*
X186400000Y-129020000D01*
X180535000Y-129020000D02*
X180535000Y-110780000D01*
X205500000Y-129020000D02*
X206280000Y-129020000D01*
X206280000Y-129020000D02*
X206280000Y-128020000D01*
X180535000Y-110780000D02*
X186400000Y-110780000D01*
X186400000Y-110780000D02*
X186400000Y-129020000D01*
X205500000Y-110780000D02*
X206280000Y-110780000D01*
X206280000Y-110780000D02*
X206280000Y-111780000D01*
X210787258Y-119472500D02*
X210312742Y-119472500D01*
X210787258Y-118427500D02*
X210312742Y-118427500D01*
X257837258Y-103522500D02*
X257362742Y-103522500D01*
X257837258Y-102477500D02*
X257362742Y-102477500D01*
X245059420Y-126490000D02*
X245340580Y-126490000D01*
X245059420Y-127510000D02*
X245340580Y-127510000D01*
X212437258Y-109622500D02*
X211962742Y-109622500D01*
X212437258Y-108577500D02*
X211962742Y-108577500D01*
X195522500Y-131262742D02*
X195522500Y-131737258D01*
X194477500Y-131262742D02*
X194477500Y-131737258D01*
X257790000Y-107040580D02*
X257790000Y-106759420D01*
X258810000Y-107040580D02*
X258810000Y-106759420D01*
X208777500Y-142437258D02*
X208777500Y-141962742D01*
X209822500Y-142437258D02*
X209822500Y-141962742D01*
X228177500Y-120737258D02*
X228177500Y-120262742D01*
X229222500Y-120737258D02*
X229222500Y-120262742D01*
X189562742Y-105377500D02*
X190037258Y-105377500D01*
X189562742Y-106422500D02*
X190037258Y-106422500D01*
X210690580Y-121110000D02*
X210409420Y-121110000D01*
X210690580Y-120090000D02*
X210409420Y-120090000D01*
X198522500Y-131262742D02*
X198522500Y-131737258D01*
X197477500Y-131262742D02*
X197477500Y-131737258D01*
X214037258Y-130472500D02*
X213562742Y-130472500D01*
X214037258Y-129427500D02*
X213562742Y-129427500D01*
X194022500Y-131262742D02*
X194022500Y-131737258D01*
X192977500Y-131262742D02*
X192977500Y-131737258D01*
X221320000Y-143740000D02*
X221320000Y-145900000D01*
X221320000Y-143740000D02*
X222250000Y-143740000D01*
X224480000Y-143740000D02*
X224480000Y-145200000D01*
X224480000Y-143740000D02*
X223550000Y-143740000D01*
X208790000Y-118030000D02*
X210950000Y-118030000D01*
X208790000Y-118030000D02*
X208790000Y-117100000D01*
X208790000Y-114870000D02*
X210250000Y-114870000D01*
X208790000Y-114870000D02*
X208790000Y-115800000D01*
X259780000Y-140960000D02*
X259780000Y-138800000D01*
X259780000Y-140960000D02*
X258850000Y-140960000D01*
X256620000Y-140960000D02*
X256620000Y-139500000D01*
X256620000Y-140960000D02*
X257550000Y-140960000D01*
X257850000Y-136300000D02*
X257850000Y-138300000D01*
X257850000Y-136300000D02*
X261750000Y-136300000D01*
X257850000Y-138300000D02*
X261750000Y-138300000D01*
X261950000Y-146350000D02*
X261950000Y-142050000D01*
X261950000Y-146350000D02*
X256250000Y-146350000D01*
X261950000Y-142050000D02*
X256250000Y-142050000D01*
X259888748Y-124590000D02*
X261311252Y-124590000D01*
X259888748Y-126410000D02*
X261311252Y-126410000D01*
X256122500Y-140062742D02*
X256122500Y-140537258D01*
X255077500Y-140062742D02*
X255077500Y-140537258D01*
X224190000Y-125410000D02*
X224190000Y-124935000D01*
X224665000Y-125410000D02*
X224190000Y-125410000D01*
X226935000Y-122190000D02*
X227410000Y-122190000D01*
X226935000Y-125410000D02*
X227410000Y-125410000D01*
X227410000Y-122190000D02*
X227410000Y-122665000D01*
X227410000Y-125410000D02*
X227410000Y-124935000D01*
D11*
X224391421Y-122350000D02*
G75*
G03*
X224391421Y-122350000I-141421J0D01*
G01*
D12*
X249460000Y-100020000D02*
X247300000Y-100020000D01*
X249460000Y-100020000D02*
X249460000Y-100950000D01*
X249460000Y-103180000D02*
X248000000Y-103180000D01*
X249460000Y-103180000D02*
X249460000Y-102250000D01*
X245788748Y-114340000D02*
X247211252Y-114340000D01*
X245788748Y-116160000D02*
X247211252Y-116160000D01*
X224990580Y-118460000D02*
X224709420Y-118460000D01*
X224990580Y-117440000D02*
X224709420Y-117440000D01*
X224737258Y-130422500D02*
X224262742Y-130422500D01*
X224737258Y-129377500D02*
X224262742Y-129377500D01*
X195180000Y-104160000D02*
X195180000Y-102000000D01*
X195180000Y-104160000D02*
X194250000Y-104160000D01*
X192020000Y-104160000D02*
X192020000Y-102700000D01*
X192020000Y-104160000D02*
X192950000Y-104160000D01*
X198880000Y-104160000D02*
X198880000Y-102000000D01*
X198880000Y-104160000D02*
X197950000Y-104160000D01*
X195720000Y-104160000D02*
X195720000Y-102700000D01*
X195720000Y-104160000D02*
X196650000Y-104160000D01*
X187042600Y-101102300D02*
X187042600Y-99772300D01*
X188372600Y-101102300D02*
X187042600Y-101102300D01*
X189642600Y-101102300D02*
X237962600Y-101102300D01*
X189642600Y-101102300D02*
X189642600Y-98502300D01*
X237962600Y-101102300D02*
X237962600Y-95902300D01*
X187042600Y-98502300D02*
X187042600Y-95902300D01*
X189642600Y-98502300D02*
X187042600Y-98502300D01*
X187042600Y-95902300D02*
X237962600Y-95902300D01*
X210380000Y-104160000D02*
X210380000Y-102000000D01*
X210380000Y-104160000D02*
X209450000Y-104160000D01*
X207220000Y-104160000D02*
X207220000Y-102700000D01*
X207220000Y-104160000D02*
X208150000Y-104160000D01*
X198477500Y-141937258D02*
X198477500Y-141462742D01*
X199522500Y-141937258D02*
X199522500Y-141462742D01*
X233477500Y-124262742D02*
X233477500Y-124737258D01*
X234522500Y-124262742D02*
X234522500Y-124737258D01*
X233010000Y-124359420D02*
X233010000Y-124640580D01*
X231990000Y-124359420D02*
X231990000Y-124640580D01*
X262477500Y-108837258D02*
X262477500Y-108362742D01*
X263522500Y-108837258D02*
X263522500Y-108362742D01*
X244800000Y-104750000D02*
X246800000Y-104750000D01*
X244800000Y-104750000D02*
X244800000Y-100850000D01*
X246800000Y-104750000D02*
X246800000Y-100850000D01*
X242911252Y-104910000D02*
X241488748Y-104910000D01*
X242911252Y-103090000D02*
X241488748Y-103090000D01*
X260362742Y-108677500D02*
X260837258Y-108677500D01*
X260362742Y-109722500D02*
X260837258Y-109722500D01*
D15*
X189210000Y-146850000D02*
X189210000Y-148100000D01*
X189210000Y-150820000D02*
X189210000Y-152100000D01*
X189210000Y-152100000D02*
X198790000Y-152100000D01*
X198790000Y-146850000D02*
X198790000Y-148100000D01*
X198790000Y-152100000D02*
X198790000Y-150820000D01*
D12*
X187477500Y-149037258D02*
X187477500Y-148562742D01*
X188522500Y-149037258D02*
X188522500Y-148562742D01*
X199277500Y-148937258D02*
X199277500Y-148462742D01*
X200322500Y-148937258D02*
X200322500Y-148462742D01*
X229010000Y-136788748D02*
X229010000Y-138211252D01*
X227190000Y-136788748D02*
X227190000Y-138211252D01*
X204410000Y-140959420D02*
X204410000Y-141240580D01*
X203390000Y-140959420D02*
X203390000Y-141240580D01*
X193560000Y-135009420D02*
X193560000Y-135290580D01*
X192540000Y-135009420D02*
X192540000Y-135290580D01*
X191027500Y-135387258D02*
X191027500Y-134912742D01*
X192072500Y-135387258D02*
X192072500Y-134912742D01*
X219822500Y-142962742D02*
X219822500Y-143437258D01*
X218777500Y-142962742D02*
X218777500Y-143437258D01*
X218322500Y-142962742D02*
X218322500Y-143437258D01*
X217277500Y-142962742D02*
X217277500Y-143437258D01*
X211812742Y-136427500D02*
X212287258Y-136427500D01*
X211812742Y-137472500D02*
X212287258Y-137472500D01*
X205340000Y-139560000D02*
X205340000Y-139085000D01*
X205815000Y-135340000D02*
X205340000Y-135340000D01*
X205815000Y-139560000D02*
X205340000Y-139560000D01*
X209085000Y-135340000D02*
X209560000Y-135340000D01*
X209085000Y-139560000D02*
X209560000Y-139560000D01*
X209560000Y-135340000D02*
X209560000Y-135815000D01*
X209560000Y-139560000D02*
X209560000Y-139085000D01*
D10*
X254370711Y-97700000D02*
G75*
G03*
X254370711Y-97700000I-70711J0D01*
G01*
D12*
X222550000Y-106140000D02*
X219100000Y-106140000D01*
X222550000Y-106140000D02*
X224500000Y-106140000D01*
X222550000Y-116260000D02*
X220600000Y-116260000D01*
X222550000Y-116260000D02*
X224500000Y-116260000D01*
X200590000Y-138840580D02*
X200590000Y-138559420D01*
X201610000Y-138840580D02*
X201610000Y-138559420D01*
X205710000Y-140959420D02*
X205710000Y-141240580D01*
X204690000Y-140959420D02*
X204690000Y-141240580D01*
X212130000Y-133210000D02*
X212130000Y-131050000D01*
X212130000Y-133210000D02*
X211200000Y-133210000D01*
X208970000Y-133210000D02*
X208970000Y-131750000D01*
X208970000Y-133210000D02*
X209900000Y-133210000D01*
X204522500Y-131262742D02*
X204522500Y-131737258D01*
X203477500Y-131262742D02*
X203477500Y-131737258D01*
X234227500Y-128237258D02*
X234227500Y-127762742D01*
X235272500Y-128237258D02*
X235272500Y-127762742D01*
X246111252Y-118410000D02*
X244688748Y-118410000D01*
X246111252Y-116590000D02*
X244688748Y-116590000D01*
X232722500Y-139962742D02*
X232722500Y-140437258D01*
X231677500Y-139962742D02*
X231677500Y-140437258D01*
X234322500Y-139962742D02*
X234322500Y-140437258D01*
X233277500Y-139962742D02*
X233277500Y-140437258D01*
X201835000Y-134215000D02*
X200365000Y-134215000D01*
X200365000Y-134215000D02*
X200365000Y-136500000D01*
X201835000Y-136500000D02*
X201835000Y-134215000D01*
X203222500Y-135462742D02*
X203222500Y-135937258D01*
X202177500Y-135462742D02*
X202177500Y-135937258D01*
D16*
X230150000Y-135150000D02*
G75*
G03*
X230150000Y-135150000I-100000J0D01*
G01*
D12*
X232675000Y-138050000D02*
X230825000Y-138050000D01*
X232675000Y-135250000D02*
X232675000Y-138050000D01*
X232675000Y-135150000D02*
X232675000Y-135250000D01*
X231425000Y-135150000D02*
X232675000Y-135150000D01*
X231125000Y-135150000D02*
X231425000Y-135150000D01*
X230825000Y-138050000D02*
X230825000Y-135450000D01*
X230825000Y-135450000D02*
X231125000Y-135150000D01*
X235750000Y-144000000D02*
X235750000Y-142000000D01*
X235750000Y-144000000D02*
X231850000Y-144000000D01*
X235750000Y-142000000D02*
X231850000Y-142000000D01*
X238540000Y-137861252D02*
X238540000Y-136438748D01*
X240360000Y-137861252D02*
X240360000Y-136438748D01*
X242250000Y-132850000D02*
X242250000Y-136150000D01*
X242250000Y-132850000D02*
X247650000Y-132850000D01*
X242250000Y-136150000D02*
X247650000Y-136150000D01*
X243537258Y-142522500D02*
X243062742Y-142522500D01*
X243537258Y-141477500D02*
X243062742Y-141477500D01*
X238077500Y-125037258D02*
X238077500Y-124562742D01*
X239122500Y-125037258D02*
X239122500Y-124562742D01*
X240890000Y-119940580D02*
X240890000Y-119659420D01*
X241910000Y-119940580D02*
X241910000Y-119659420D01*
X204477500Y-108387258D02*
X204477500Y-107912742D01*
X205522500Y-108387258D02*
X205522500Y-107912742D01*
X237460000Y-138420000D02*
X235300000Y-138420000D01*
X237460000Y-138420000D02*
X237460000Y-139350000D01*
X237460000Y-141580000D02*
X236000000Y-141580000D01*
X237460000Y-141580000D02*
X237460000Y-140650000D01*
X193927500Y-108387258D02*
X193927500Y-107912742D01*
X194972500Y-108387258D02*
X194972500Y-107912742D01*
X197177500Y-108387258D02*
X197177500Y-107912742D01*
X198222500Y-108387258D02*
X198222500Y-107912742D01*
X243530000Y-106950000D02*
X243530000Y-107220000D01*
X243530000Y-107220000D02*
X240700000Y-107220000D01*
X243530000Y-113580000D02*
X242430000Y-113580000D01*
X243530000Y-113850000D02*
X243530000Y-113580000D01*
X245030000Y-106950000D02*
X243530000Y-106950000D01*
X245030000Y-113850000D02*
X243530000Y-113850000D01*
X242140580Y-106510000D02*
X241859420Y-106510000D01*
X242140580Y-105490000D02*
X241859420Y-105490000D01*
X255190000Y-106811252D02*
X255190000Y-105388748D01*
X257010000Y-106811252D02*
X257010000Y-105388748D01*
X262859420Y-122990000D02*
X263140580Y-122990000D01*
X262859420Y-124010000D02*
X263140580Y-124010000D01*
X240350000Y-107160000D02*
X239040000Y-107160000D01*
X240350000Y-107160000D02*
X240350000Y-108543000D01*
X240110000Y-107400000D02*
X239040000Y-107400000D01*
X240110000Y-107400000D02*
X240110000Y-114221000D01*
X236960000Y-107400000D02*
X236449000Y-107400000D01*
X234470000Y-107400000D02*
X233909000Y-107400000D01*
X231930000Y-107400000D02*
X231369000Y-107400000D01*
X229390000Y-107400000D02*
X228270000Y-107400000D01*
X228270000Y-107400000D02*
X228270000Y-114221000D01*
X238635000Y-109000000D02*
X237365000Y-109000000D01*
X238515000Y-109000000D02*
X238515000Y-110206667D01*
X238395000Y-109000000D02*
X238395000Y-110206667D01*
X238275000Y-109000000D02*
X238275000Y-110206667D01*
X238155000Y-109000000D02*
X238155000Y-110206667D01*
X238035000Y-109000000D02*
X238035000Y-110206667D01*
X237915000Y-109000000D02*
X237915000Y-110206667D01*
X237795000Y-109000000D02*
X237795000Y-110206667D01*
X237675000Y-109000000D02*
X237675000Y-110206667D01*
X237555000Y-109000000D02*
X237555000Y-110206667D01*
X237435000Y-109000000D02*
X237435000Y-110206667D01*
X237365000Y-109000000D02*
X237365000Y-112620000D01*
X236095000Y-109000000D02*
X234825000Y-109000000D01*
X235975000Y-109000000D02*
X235975000Y-110206667D01*
X235855000Y-109000000D02*
X235855000Y-110206667D01*
X235735000Y-109000000D02*
X235735000Y-110206667D01*
X235615000Y-109000000D02*
X235615000Y-110206667D01*
X235495000Y-109000000D02*
X235495000Y-110206667D01*
X235375000Y-109000000D02*
X235375000Y-110206667D01*
X235255000Y-109000000D02*
X235255000Y-110206667D01*
X235135000Y-109000000D02*
X235135000Y-110206667D01*
X235015000Y-109000000D02*
X235015000Y-110206667D01*
X234895000Y-109000000D02*
X234895000Y-110206667D01*
X234825000Y-109000000D02*
X234825000Y-112620000D01*
X233555000Y-109000000D02*
X232285000Y-109000000D01*
X233435000Y-109000000D02*
X233435000Y-110206667D01*
X233315000Y-109000000D02*
X233315000Y-110206667D01*
X233195000Y-109000000D02*
X233195000Y-110206667D01*
X233075000Y-109000000D02*
X233075000Y-110206667D01*
X232955000Y-109000000D02*
X232955000Y-110206667D01*
X232835000Y-109000000D02*
X232835000Y-110206667D01*
X232715000Y-109000000D02*
X232715000Y-110206667D01*
X232595000Y-109000000D02*
X232595000Y-110206667D01*
X232475000Y-109000000D02*
X232475000Y-110206667D01*
X232355000Y-109000000D02*
X232355000Y-110206667D01*
X232285000Y-109000000D02*
X232285000Y-112620000D01*
X231015000Y-109000000D02*
X229745000Y-109000000D01*
X230895000Y-109000000D02*
X230895000Y-110206667D01*
X230775000Y-109000000D02*
X230775000Y-110206667D01*
X230655000Y-109000000D02*
X230655000Y-110206667D01*
X230535000Y-109000000D02*
X230535000Y-110206667D01*
X230415000Y-109000000D02*
X230415000Y-110206667D01*
X230295000Y-109000000D02*
X230295000Y-110206667D01*
X230175000Y-109000000D02*
X230175000Y-110206667D01*
X230055000Y-109000000D02*
X230055000Y-110206667D01*
X229935000Y-109000000D02*
X229935000Y-110206667D01*
X229815000Y-109000000D02*
X229815000Y-110206667D01*
X229745000Y-109000000D02*
X229745000Y-112620000D01*
X238635000Y-110206667D02*
X237365000Y-110206667D01*
X236095000Y-110206667D02*
X234825000Y-110206667D01*
X233555000Y-110206667D02*
X232285000Y-110206667D01*
X231015000Y-110206667D02*
X229745000Y-110206667D01*
X238635000Y-112620000D02*
X238635000Y-109000000D01*
X237365000Y-112620000D02*
X238635000Y-112620000D01*
X236095000Y-112620000D02*
X236095000Y-109000000D01*
X234825000Y-112620000D02*
X236095000Y-112620000D01*
X233555000Y-112620000D02*
X233555000Y-109000000D01*
X232285000Y-112620000D02*
X233555000Y-112620000D01*
X231015000Y-112620000D02*
X231015000Y-109000000D01*
X229745000Y-112620000D02*
X231015000Y-112620000D01*
X240110000Y-114221000D02*
X238990000Y-114221000D01*
X237010000Y-114221000D02*
X236449000Y-114221000D01*
X234470000Y-114221000D02*
X233909000Y-114221000D01*
X231930000Y-114221000D02*
X231369000Y-114221000D01*
X229390000Y-114221000D02*
X228270000Y-114221000D01*
X264750000Y-98350000D02*
X264750000Y-105650000D01*
X259250000Y-98350000D02*
X259250000Y-105650000D01*
X259250000Y-105650000D02*
X260400000Y-105650000D01*
D13*
X264500000Y-103500000D02*
X259500000Y-103500000D01*
X259500000Y-102700000D01*
X264500000Y-102700000D01*
X264500000Y-103500000D01*
G36*
X264500000Y-103500000D02*
G01*
X259500000Y-103500000D01*
X259500000Y-102700000D01*
X264500000Y-102700000D01*
X264500000Y-103500000D01*
G37*
D12*
X239477500Y-123037258D02*
X239477500Y-122562742D01*
X240522500Y-123037258D02*
X240522500Y-122562742D01*
X235390000Y-119590000D02*
X235840000Y-119590000D01*
X238610000Y-120040000D02*
X238610000Y-119590000D01*
X235390000Y-120040000D02*
X235390000Y-119590000D01*
X238610000Y-122360000D02*
X238610000Y-122810000D01*
X235390000Y-122360000D02*
X235390000Y-122810000D01*
X238610000Y-122810000D02*
X238160000Y-122810000D01*
X235390000Y-122810000D02*
X235840000Y-122810000D01*
X242911252Y-132510000D02*
X241488748Y-132510000D01*
X242911252Y-130690000D02*
X241488748Y-130690000D01*
X243259420Y-142990000D02*
X243540580Y-142990000D01*
X243259420Y-144010000D02*
X243540580Y-144010000D01*
X252790000Y-106811252D02*
X252790000Y-105388748D01*
X254610000Y-106811252D02*
X254610000Y-105388748D01*
X247150000Y-128250000D02*
X243250000Y-128250000D01*
X247150000Y-130250000D02*
X243250000Y-130250000D01*
X247150000Y-130250000D02*
X247150000Y-128250000D01*
X217237258Y-132522500D02*
X216762742Y-132522500D01*
X217237258Y-131477500D02*
X216762742Y-131477500D01*
X217237258Y-137272500D02*
X216762742Y-137272500D01*
X217237258Y-136227500D02*
X216762742Y-136227500D01*
X217237258Y-135772500D02*
X216762742Y-135772500D01*
X217237258Y-134727500D02*
X216762742Y-134727500D01*
X240137258Y-143822500D02*
X239662742Y-143822500D01*
X240137258Y-142777500D02*
X239662742Y-142777500D01*
X236637258Y-135022500D02*
X236162742Y-135022500D01*
X236637258Y-133977500D02*
X236162742Y-133977500D01*
X241700000Y-136900000D02*
X242200000Y-136400000D01*
X241700000Y-139200000D02*
X241700000Y-136900000D01*
X242200000Y-136400000D02*
X243500000Y-136400000D01*
X243500000Y-136400000D02*
X243500000Y-136800000D01*
X243500000Y-136800000D02*
X243500000Y-139200000D01*
X243500000Y-139200000D02*
X241700000Y-139200000D01*
D11*
X241350000Y-136100000D02*
G75*
G03*
X241350000Y-136100000I-150000J0D01*
G01*
D12*
X216762742Y-132977500D02*
X217237258Y-132977500D01*
X216762742Y-134022500D02*
X217237258Y-134022500D01*
X220362742Y-134677500D02*
X220837258Y-134677500D01*
X220362742Y-135722500D02*
X220837258Y-135722500D01*
X188522500Y-145162742D02*
X188522500Y-145637258D01*
X187477500Y-145162742D02*
X187477500Y-145637258D01*
X200422500Y-145162742D02*
X200422500Y-145637258D01*
X199377500Y-145162742D02*
X199377500Y-145637258D01*
D13*
X193800000Y-141750000D02*
X195400000Y-141750000D01*
X193800000Y-143100000D02*
X193800000Y-141750000D01*
X195450000Y-143100000D02*
X193800000Y-143100000D01*
D12*
X199977500Y-141937258D02*
X199977500Y-141462742D01*
X201022500Y-141937258D02*
X201022500Y-141462742D01*
X198100000Y-138450000D02*
X196100000Y-138450000D01*
X198100000Y-138450000D02*
X198100000Y-142350000D01*
X196100000Y-138450000D02*
X196100000Y-142350000D01*
X238522500Y-116862742D02*
X238522500Y-117337258D01*
X237477500Y-116862742D02*
X237477500Y-117337258D01*
X228837258Y-143822500D02*
X228362742Y-143822500D01*
X228837258Y-142777500D02*
X228362742Y-142777500D01*
X223137258Y-142722500D02*
X222662742Y-142722500D01*
X223137258Y-141677500D02*
X222662742Y-141677500D01*
D13*
X193300000Y-143050000D02*
X191700000Y-143050000D01*
X193300000Y-141700000D02*
X193300000Y-143050000D01*
X191650000Y-141700000D02*
X193300000Y-141700000D01*
%LPC*%
D17*
X236500000Y-129050000D03*
X236500000Y-125750000D03*
D18*
X227750000Y-132655000D03*
X227750000Y-131385000D03*
X227750000Y-130115000D03*
X227750000Y-128845000D03*
X232700000Y-128845000D03*
X232700000Y-130115000D03*
X232700000Y-131385000D03*
X232700000Y-132655000D03*
D19*
X235250000Y-130500000D03*
X235250000Y-133000000D03*
D20*
X225775000Y-133000000D03*
X224225000Y-133000000D03*
D21*
X237730000Y-130500000D03*
X236770000Y-130500000D03*
X236770000Y-133000000D03*
X237730000Y-133000000D03*
D22*
X241500000Y-98500000D03*
X241500000Y-147500000D03*
X183500000Y-98500000D03*
D23*
X224025000Y-120950000D03*
X225675000Y-120950000D03*
X224025000Y-119450000D03*
X225675000Y-119450000D03*
D24*
X230000000Y-119675000D03*
X230000000Y-121325000D03*
D25*
X225325000Y-126900000D03*
X223675000Y-126900000D03*
D26*
X240000000Y-120575000D03*
X240000000Y-119025000D03*
D27*
X210000000Y-107950000D03*
X210000000Y-106050000D03*
X208000000Y-107000000D03*
D28*
X222350000Y-123225000D03*
X222350000Y-124775000D03*
D20*
X188575000Y-130750000D03*
X187025000Y-130750000D03*
D29*
X188475000Y-132700000D03*
X185525000Y-132700000D03*
D30*
X224775000Y-140855000D03*
D18*
X224775000Y-139585000D03*
X224775000Y-138315000D03*
X224775000Y-137045000D03*
X219825000Y-137045000D03*
X219825000Y-138315000D03*
X219825000Y-139585000D03*
X219825000Y-140855000D03*
D25*
X218125000Y-124200000D03*
X216475000Y-124200000D03*
D31*
X214770000Y-123900000D03*
X214770000Y-122900000D03*
X213630000Y-123400000D03*
D32*
X209550000Y-129525000D03*
X209550000Y-127875000D03*
D25*
X197575000Y-105900000D03*
X195925000Y-105900000D03*
D28*
X235750000Y-135975000D03*
X235750000Y-137525000D03*
D22*
X183500000Y-147500000D03*
D33*
X261225000Y-97750000D03*
X262775000Y-97750000D03*
D34*
X209600000Y-126400000D03*
X211500000Y-126400000D03*
X210550000Y-124400000D03*
D33*
X208025000Y-111000000D03*
X209575000Y-111000000D03*
D26*
X202700000Y-139475000D03*
X202700000Y-137925000D03*
D33*
X223725000Y-128400000D03*
X225275000Y-128400000D03*
D26*
X231300000Y-121275000D03*
X231300000Y-119725000D03*
D35*
X214262500Y-139950000D03*
X215837500Y-139950000D03*
X214262500Y-138450000D03*
X215837500Y-138450000D03*
D25*
X218125000Y-115700000D03*
X216475000Y-115700000D03*
X218125000Y-117550000D03*
X216475000Y-117550000D03*
X218125000Y-126200000D03*
X216475000Y-126200000D03*
D32*
X189800000Y-142725000D03*
X189800000Y-141075000D03*
D24*
X233000000Y-116375000D03*
X233000000Y-118025000D03*
X235400000Y-116375000D03*
X235400000Y-118025000D03*
D32*
X227200000Y-115025000D03*
X227200000Y-113375000D03*
D23*
X216475000Y-120700000D03*
X218125000Y-120700000D03*
D25*
X218125000Y-119050000D03*
X216475000Y-119050000D03*
D32*
X206700000Y-143025000D03*
X206700000Y-141375000D03*
D24*
X191400000Y-131075000D03*
X191400000Y-132725000D03*
X196500000Y-130675000D03*
X196500000Y-132325000D03*
X199500000Y-130675000D03*
X199500000Y-132325000D03*
X201000000Y-130675000D03*
X201000000Y-132325000D03*
X202500000Y-130675000D03*
X202500000Y-132325000D03*
D23*
X207975000Y-112500000D03*
X209625000Y-112500000D03*
D32*
X192850000Y-108975000D03*
X192850000Y-107325000D03*
D25*
X216725000Y-113700000D03*
X215075000Y-113700000D03*
D32*
X196000000Y-108925000D03*
X196000000Y-107275000D03*
X199700000Y-108975000D03*
X199700000Y-107325000D03*
X201700000Y-108975000D03*
X201700000Y-107325000D03*
X191200000Y-108975000D03*
X191200000Y-107325000D03*
X189450000Y-108975000D03*
X189450000Y-107325000D03*
X203450000Y-108975000D03*
X203450000Y-107325000D03*
X206500000Y-109025000D03*
X206500000Y-107375000D03*
D36*
X243095000Y-124975000D03*
D37*
X244365000Y-124975000D03*
X245635000Y-124975000D03*
X246905000Y-124975000D03*
X246905000Y-120025000D03*
X245635000Y-120025000D03*
X244365000Y-120025000D03*
X243095000Y-120025000D03*
D33*
X259025000Y-123500000D03*
X260575000Y-123500000D03*
D20*
X261675000Y-114300000D03*
X260125000Y-114300000D03*
D38*
X261700000Y-112980000D03*
X261700000Y-112020000D03*
D20*
X243475000Y-115250000D03*
X241925000Y-115250000D03*
D39*
X205450000Y-145450000D03*
X202150000Y-145450000D03*
X213950000Y-145700000D03*
X210650000Y-145700000D03*
D40*
X255600000Y-115950000D03*
X255600000Y-119250000D03*
D31*
X214620000Y-117050000D03*
X214620000Y-116050000D03*
X213480000Y-116550000D03*
X214620000Y-127700000D03*
X214620000Y-126700000D03*
X213480000Y-127200000D03*
D41*
X213480000Y-119550000D03*
X213480000Y-120550000D03*
X214620000Y-120050000D03*
D23*
X211225000Y-139950000D03*
X212875000Y-139950000D03*
X211225000Y-138450000D03*
X212875000Y-138450000D03*
X247775000Y-99100000D03*
X249425000Y-99100000D03*
D36*
X259195000Y-121375000D03*
D37*
X260465000Y-121375000D03*
X261735000Y-121375000D03*
X263005000Y-121375000D03*
X263005000Y-116425000D03*
X261735000Y-116425000D03*
X260465000Y-116425000D03*
X259195000Y-116425000D03*
D42*
X261100000Y-118900000D03*
D29*
X257275000Y-125500000D03*
X254325000Y-125500000D03*
D26*
X257600000Y-117475000D03*
X257600000Y-115925000D03*
D23*
X227775000Y-142000000D03*
X229425000Y-142000000D03*
D29*
X235075000Y-144800000D03*
X232125000Y-144800000D03*
D23*
X242575000Y-140500000D03*
X244225000Y-140500000D03*
D28*
X251550000Y-96675000D03*
X251550000Y-98225000D03*
D32*
X188300000Y-142725000D03*
X188300000Y-141075000D03*
D23*
X207975000Y-109500000D03*
X209625000Y-109500000D03*
D25*
X206625000Y-105850000D03*
X204975000Y-105850000D03*
D23*
X211375000Y-106000000D03*
X213025000Y-106000000D03*
D24*
X208000000Y-141375000D03*
X208000000Y-143025000D03*
D23*
X209725000Y-122100000D03*
X211375000Y-122100000D03*
D27*
X216800000Y-108350000D03*
X216800000Y-106450000D03*
X214800000Y-107400000D03*
D20*
X212975000Y-107600000D03*
X211425000Y-107600000D03*
D43*
X255900000Y-134650000D03*
D44*
X258900000Y-134650000D03*
X258900000Y-128150000D03*
X255900000Y-128150000D03*
D45*
X257500000Y-111600000D03*
D46*
X253500000Y-111600000D03*
D47*
X261657500Y-111000000D03*
X260842500Y-111000000D03*
D26*
X217800000Y-140975000D03*
X217800000Y-139425000D03*
D25*
X196625000Y-133700000D03*
X194975000Y-133700000D03*
D32*
X229500000Y-125325000D03*
X229500000Y-123675000D03*
X231000000Y-125325000D03*
X231000000Y-123675000D03*
D48*
X190850000Y-102400000D03*
X188950000Y-102400000D03*
X189900000Y-104400000D03*
X201850000Y-102400000D03*
X199950000Y-102400000D03*
X200900000Y-104400000D03*
X221450000Y-102400000D03*
X219550000Y-102400000D03*
X220500000Y-104400000D03*
X229350000Y-102400000D03*
X227450000Y-102400000D03*
X228400000Y-104400000D03*
X205950000Y-102400000D03*
X204050000Y-102400000D03*
X205000000Y-104400000D03*
X217550000Y-102400000D03*
X215650000Y-102400000D03*
X216600000Y-104400000D03*
X225350000Y-102400000D03*
X223450000Y-102400000D03*
X224400000Y-104400000D03*
X233350000Y-102400000D03*
X231450000Y-102400000D03*
X232400000Y-104400000D03*
D25*
X218125000Y-122450000D03*
X216475000Y-122450000D03*
D24*
X211550000Y-127875000D03*
X211550000Y-129525000D03*
D48*
X213750000Y-102400000D03*
X211850000Y-102400000D03*
X212800000Y-104400000D03*
D23*
X211375000Y-110600000D03*
X213025000Y-110600000D03*
D25*
X213025000Y-113600000D03*
X211375000Y-113600000D03*
D27*
X216750000Y-112100000D03*
X216750000Y-110200000D03*
X214750000Y-111150000D03*
D20*
X212975000Y-112100000D03*
X211425000Y-112100000D03*
D23*
X207975000Y-114000000D03*
X209625000Y-114000000D03*
D32*
X237250000Y-137575000D03*
X237250000Y-135925000D03*
X190050000Y-135975000D03*
X190050000Y-134325000D03*
D49*
X187390000Y-128650000D03*
X188660000Y-128650000D03*
X189930000Y-128650000D03*
X191200000Y-128650000D03*
X192470000Y-128650000D03*
X193740000Y-128650000D03*
X195010000Y-128650000D03*
X196280000Y-128650000D03*
X197550000Y-128650000D03*
X198820000Y-128650000D03*
X200090000Y-128650000D03*
X201360000Y-128650000D03*
X202630000Y-128650000D03*
X203900000Y-128650000D03*
D50*
X205400000Y-126885000D03*
X205400000Y-125615000D03*
X205400000Y-124345000D03*
X205400000Y-123075000D03*
X205400000Y-121805000D03*
X205400000Y-120535000D03*
X205400000Y-119265000D03*
X205400000Y-117995000D03*
X205400000Y-116725000D03*
X205400000Y-115455000D03*
X205400000Y-114185000D03*
X205400000Y-112915000D03*
D49*
X203900000Y-111150000D03*
X202630000Y-111150000D03*
X201360000Y-111150000D03*
X200090000Y-111150000D03*
X198820000Y-111150000D03*
X197550000Y-111150000D03*
X196280000Y-111150000D03*
X195010000Y-111150000D03*
X193740000Y-111150000D03*
X192470000Y-111150000D03*
X191200000Y-111150000D03*
X189930000Y-111150000D03*
X188660000Y-111150000D03*
X187390000Y-111150000D03*
D51*
X193710000Y-122800000D03*
D52*
X194410000Y-122800000D03*
D51*
X195110000Y-122800000D03*
D52*
X195810000Y-122800000D03*
D51*
X196510000Y-122800000D03*
D52*
X193710000Y-122100000D03*
X195110000Y-122100000D03*
X196510000Y-122100000D03*
D51*
X193710000Y-121400000D03*
D52*
X194410000Y-121400000D03*
D51*
X195110000Y-121400000D03*
D52*
X195810000Y-121400000D03*
D51*
X196510000Y-121400000D03*
D52*
X193710000Y-120700000D03*
X195110000Y-120700000D03*
X196510000Y-120700000D03*
D51*
X193710000Y-120000000D03*
D52*
X194410000Y-120000000D03*
D51*
X195110000Y-120000000D03*
D52*
X195810000Y-120000000D03*
D51*
X196510000Y-120000000D03*
D25*
X211375000Y-118950000D03*
X209725000Y-118950000D03*
X258425000Y-103000000D03*
X256775000Y-103000000D03*
D33*
X244425000Y-127000000D03*
X245975000Y-127000000D03*
D25*
X213025000Y-109100000D03*
X211375000Y-109100000D03*
D24*
X195000000Y-130675000D03*
X195000000Y-132325000D03*
D26*
X258300000Y-107675000D03*
X258300000Y-106125000D03*
D32*
X209300000Y-143025000D03*
X209300000Y-141375000D03*
X228700000Y-121325000D03*
X228700000Y-119675000D03*
D23*
X188975000Y-105900000D03*
X190625000Y-105900000D03*
D20*
X211325000Y-120600000D03*
X209775000Y-120600000D03*
D24*
X198000000Y-130675000D03*
X198000000Y-132325000D03*
D25*
X214625000Y-129950000D03*
X212975000Y-129950000D03*
D24*
X193500000Y-130675000D03*
X193500000Y-132325000D03*
D34*
X221950000Y-145500000D03*
X223850000Y-145500000D03*
X222900000Y-143500000D03*
D27*
X210550000Y-117400000D03*
X210550000Y-115500000D03*
X208550000Y-116450000D03*
D48*
X259150000Y-139200000D03*
X257250000Y-139200000D03*
X258200000Y-141200000D03*
D53*
X258450000Y-137300000D03*
X261750000Y-137300000D03*
D54*
X260550000Y-144200000D03*
X256250000Y-144200000D03*
D55*
X259125000Y-125500000D03*
X262075000Y-125500000D03*
D24*
X255600000Y-139475000D03*
X255600000Y-141125000D03*
D56*
X224337500Y-123050000D03*
X224337500Y-123550000D03*
X224337500Y-124050000D03*
X224337500Y-124550000D03*
D57*
X225050000Y-125262500D03*
X225550000Y-125262500D03*
X226050000Y-125262500D03*
X226550000Y-125262500D03*
D56*
X227262500Y-124550000D03*
X227262500Y-124050000D03*
X227262500Y-123550000D03*
X227262500Y-123050000D03*
D57*
X226550000Y-122337500D03*
X226050000Y-122337500D03*
X225550000Y-122337500D03*
X225050000Y-122337500D03*
D52*
X225300000Y-123300000D03*
X225300000Y-124300000D03*
X225800000Y-123800000D03*
D58*
X225800000Y-123800000D03*
D52*
X226300000Y-123300000D03*
X226300000Y-124300000D03*
D59*
X247700000Y-100650000D03*
X247700000Y-102550000D03*
X249700000Y-101600000D03*
D55*
X245025000Y-115250000D03*
X247975000Y-115250000D03*
D20*
X225625000Y-117950000D03*
X224075000Y-117950000D03*
D25*
X225325000Y-129900000D03*
X223675000Y-129900000D03*
D48*
X194550000Y-102400000D03*
X192650000Y-102400000D03*
X193600000Y-104400000D03*
X198250000Y-102400000D03*
X196350000Y-102400000D03*
X197300000Y-104400000D03*
D60*
X188372600Y-99772300D03*
D61*
X188372600Y-97232300D03*
X190912600Y-99772300D03*
X190912600Y-97232300D03*
X193452600Y-99772300D03*
X193452600Y-97232300D03*
X195992600Y-99772300D03*
X195992600Y-97232300D03*
X198532600Y-99772300D03*
X198532600Y-97232300D03*
X201072600Y-99772300D03*
X201072600Y-97232300D03*
X203612600Y-99772300D03*
X203612600Y-97232300D03*
X206152600Y-99772300D03*
X206152600Y-97232300D03*
X208692600Y-99772300D03*
X208692600Y-97232300D03*
X211232600Y-99772300D03*
X211232600Y-97232300D03*
X213772600Y-99772300D03*
X213772600Y-97232300D03*
X216312600Y-99772300D03*
X216312600Y-97232300D03*
X218852600Y-99772300D03*
X218852600Y-97232300D03*
X221392600Y-99772300D03*
X221392600Y-97232300D03*
X223932600Y-99772300D03*
X223932600Y-97232300D03*
X226472600Y-99772300D03*
X226472600Y-97232300D03*
X229012600Y-99772300D03*
X229012600Y-97232300D03*
X231552600Y-99772300D03*
X231552600Y-97232300D03*
X234092600Y-99772300D03*
X234092600Y-97232300D03*
X236632600Y-99772300D03*
X236632600Y-97232300D03*
D48*
X209750000Y-102400000D03*
X207850000Y-102400000D03*
X208800000Y-104400000D03*
D32*
X199000000Y-142525000D03*
X199000000Y-140875000D03*
D24*
X234000000Y-125325000D03*
X234000000Y-123675000D03*
D28*
X232500000Y-123725000D03*
X232500000Y-125275000D03*
D32*
X263000000Y-109425000D03*
X263000000Y-107775000D03*
D17*
X245800000Y-104150000D03*
X245800000Y-100850000D03*
D29*
X243675000Y-104000000D03*
X240725000Y-104000000D03*
D23*
X259775000Y-109200000D03*
X261425000Y-109200000D03*
D62*
X191110000Y-145820000D03*
X196890000Y-145820000D03*
D63*
X190800000Y-144745000D03*
X191600000Y-144745000D03*
D64*
X192750000Y-144745000D03*
X193750000Y-144745000D03*
X194250000Y-144745000D03*
X195250000Y-144745000D03*
D63*
X197200000Y-144745000D03*
X196400000Y-144745000D03*
D64*
X195750000Y-144745000D03*
X194750000Y-144745000D03*
X193250000Y-144745000D03*
X192250000Y-144745000D03*
D65*
X189680000Y-149500000D03*
X198320000Y-149500000D03*
D66*
X189680000Y-145320000D03*
X198320000Y-145320000D03*
D32*
X188000000Y-149625000D03*
X188000000Y-147975000D03*
X199800000Y-149525000D03*
X199800000Y-147875000D03*
D67*
X228100000Y-136025000D03*
X228100000Y-138975000D03*
D28*
X203900000Y-140325000D03*
X203900000Y-141875000D03*
X193050000Y-134375000D03*
X193050000Y-135925000D03*
D32*
X191550000Y-135975000D03*
X191550000Y-134325000D03*
D24*
X219300000Y-142375000D03*
X219300000Y-144025000D03*
X217800000Y-142375000D03*
X217800000Y-144025000D03*
D23*
X211225000Y-136950000D03*
X212875000Y-136950000D03*
D56*
X205512500Y-136200000D03*
X205512500Y-136700000D03*
X205512500Y-137200000D03*
X205512500Y-137700000D03*
X205512500Y-138200000D03*
X205512500Y-138700000D03*
D57*
X206200000Y-139387500D03*
X206700000Y-139387500D03*
X207200000Y-139387500D03*
X207700000Y-139387500D03*
X208200000Y-139387500D03*
X208700000Y-139387500D03*
D56*
X209387500Y-138700000D03*
X209387500Y-138200000D03*
X209387500Y-137700000D03*
X209387500Y-137200000D03*
X209387500Y-136700000D03*
X209387500Y-136200000D03*
D57*
X208700000Y-135512500D03*
X208200000Y-135512500D03*
X207700000Y-135512500D03*
X207200000Y-135512500D03*
X206700000Y-135512500D03*
X206200000Y-135512500D03*
D68*
X207450000Y-137450000D03*
D69*
X254250000Y-97350000D03*
X254250000Y-96550000D03*
X252850000Y-96550000D03*
X252850000Y-97350000D03*
D70*
X219975000Y-106755000D03*
X219975000Y-108025000D03*
X219975000Y-109295000D03*
X219975000Y-110565000D03*
X219975000Y-111835000D03*
X219975000Y-113105000D03*
X219975000Y-114375000D03*
X219975000Y-115645000D03*
X225125000Y-115645000D03*
X225125000Y-114375000D03*
X225125000Y-113105000D03*
X225125000Y-111835000D03*
X225125000Y-110565000D03*
X225125000Y-109295000D03*
X225125000Y-108025000D03*
X225125000Y-106755000D03*
D26*
X201100000Y-139475000D03*
X201100000Y-137925000D03*
D28*
X205200000Y-140325000D03*
X205200000Y-141875000D03*
D48*
X211500000Y-131450000D03*
X209600000Y-131450000D03*
X210550000Y-133450000D03*
D24*
X204000000Y-130675000D03*
X204000000Y-132325000D03*
D32*
X234750000Y-128825000D03*
X234750000Y-127175000D03*
D29*
X246875000Y-117500000D03*
X243925000Y-117500000D03*
D24*
X232200000Y-139375000D03*
X232200000Y-141025000D03*
X233800000Y-139375000D03*
X233800000Y-141025000D03*
D71*
X201100000Y-134912500D03*
X201100000Y-136487500D03*
D24*
X202700000Y-134875000D03*
X202700000Y-136525000D03*
D72*
X231750000Y-136750000D03*
D73*
X233200000Y-135750000D03*
X233200000Y-136250000D03*
X233200000Y-136750000D03*
X233200000Y-137250000D03*
X233200000Y-137750000D03*
X230300000Y-137750000D03*
X230300000Y-137250000D03*
X230300000Y-136750000D03*
X230300000Y-136250000D03*
X230300000Y-135750000D03*
D39*
X235150000Y-143000000D03*
X231850000Y-143000000D03*
D74*
X239450000Y-138625000D03*
X239450000Y-135675000D03*
D75*
X243650000Y-134500000D03*
X247650000Y-134500000D03*
D25*
X244125000Y-142000000D03*
X242475000Y-142000000D03*
D32*
X238600000Y-125625000D03*
X238600000Y-123975000D03*
D26*
X241400000Y-120575000D03*
X241400000Y-119025000D03*
D32*
X205000000Y-108975000D03*
X205000000Y-107325000D03*
D59*
X235700000Y-139050000D03*
X235700000Y-140950000D03*
X237700000Y-140000000D03*
D32*
X194450000Y-108975000D03*
X194450000Y-107325000D03*
X197700000Y-108975000D03*
X197700000Y-107325000D03*
D76*
X241800000Y-108120000D03*
D77*
X248100000Y-110400000D03*
D76*
X241800000Y-112680000D03*
D20*
X242775000Y-106000000D03*
X241225000Y-106000000D03*
D74*
X256100000Y-107575000D03*
X256100000Y-104625000D03*
D33*
X262225000Y-123500000D03*
X263775000Y-123500000D03*
D78*
X238000000Y-107000000D03*
D79*
X235460000Y-107000000D03*
X232920000Y-107000000D03*
X230380000Y-107000000D03*
X230380000Y-114620000D03*
X232920000Y-114620000D03*
X235460000Y-114620000D03*
X238000000Y-114620000D03*
D80*
X260400000Y-104450000D03*
X263600000Y-104450000D03*
X263600000Y-99550000D03*
X260400000Y-99550000D03*
D32*
X240000000Y-123625000D03*
X240000000Y-121975000D03*
D81*
X237800000Y-119712500D03*
X237400000Y-119712500D03*
X237000000Y-119712500D03*
X236600000Y-119712500D03*
X236200000Y-119712500D03*
D82*
X235512500Y-120400000D03*
X235512500Y-120800000D03*
X235512500Y-121200000D03*
X235512500Y-121600000D03*
X235512500Y-122000000D03*
D81*
X236200000Y-122687500D03*
X236600000Y-122687500D03*
X237000000Y-122687500D03*
X237400000Y-122687500D03*
X237800000Y-122687500D03*
D82*
X238487500Y-122000000D03*
X238487500Y-121600000D03*
X238487500Y-121200000D03*
X238487500Y-120800000D03*
X238487500Y-120400000D03*
D83*
X237000000Y-121200000D03*
D29*
X243675000Y-131600000D03*
X240725000Y-131600000D03*
D33*
X242625000Y-143500000D03*
X244175000Y-143500000D03*
D74*
X253700000Y-107575000D03*
X253700000Y-104625000D03*
D39*
X243250000Y-129250000D03*
X246550000Y-129250000D03*
D25*
X217825000Y-132000000D03*
X216175000Y-132000000D03*
X217825000Y-136750000D03*
X216175000Y-136750000D03*
X217825000Y-135250000D03*
X216175000Y-135250000D03*
X240725000Y-143300000D03*
X239075000Y-143300000D03*
X237225000Y-134500000D03*
X235575000Y-134500000D03*
D84*
X248000000Y-142000000D03*
D85*
X248000000Y-137400000D03*
D86*
X241260000Y-137050000D03*
D87*
X241260000Y-138000000D03*
X241260000Y-138950000D03*
X243940000Y-138950000D03*
X243940000Y-138000000D03*
X243940000Y-137050000D03*
D52*
X242200000Y-137300000D03*
D88*
X242200000Y-137475000D03*
X242200000Y-138525000D03*
D52*
X242200000Y-138700000D03*
X243000000Y-137300000D03*
D88*
X243000000Y-137475000D03*
X243000000Y-138525000D03*
D52*
X243000000Y-138700000D03*
D23*
X216175000Y-133500000D03*
X217825000Y-133500000D03*
X219775000Y-135200000D03*
X221425000Y-135200000D03*
D24*
X188000000Y-144575000D03*
X188000000Y-146225000D03*
X199900000Y-144575000D03*
X199900000Y-146225000D03*
D89*
X194225000Y-142400000D03*
X195175000Y-142400000D03*
D32*
X200500000Y-142525000D03*
X200500000Y-140875000D03*
D40*
X197100000Y-139050000D03*
X197100000Y-142350000D03*
D24*
X238000000Y-116275000D03*
X238000000Y-117925000D03*
D25*
X229425000Y-143300000D03*
X227775000Y-143300000D03*
X223725000Y-142200000D03*
X222075000Y-142200000D03*
D90*
X192875000Y-142400000D03*
X191925000Y-142400000D03*
D91*
X240400000Y-128400000D03*
D92*
X219910000Y-128400000D03*
D93*
X234750000Y-148500000D03*
D94*
X232250000Y-148500000D03*
D95*
X261460000Y-148500000D03*
D96*
X256380000Y-148500000D03*
X251300000Y-148500000D03*
D95*
X214760000Y-148700000D03*
D96*
X209680000Y-148700000D03*
X204600000Y-148700000D03*
D95*
X225760000Y-148700000D03*
D96*
X220680000Y-148700000D03*
M02*
