G04 #@! TF.GenerationSoftware,KiCad,Pcbnew,(5.1.9)-1*
G04 #@! TF.CreationDate,2021-06-26T21:34:31-04:00*
G04 #@! TF.ProjectId,esp32 Core  V-0.1,65737033-3220-4436-9f72-652020562d30,rev?*
G04 #@! TF.SameCoordinates,Original*
G04 #@! TF.FileFunction,Soldermask,Top*
G04 #@! TF.FilePolarity,Negative*
%FSLAX46Y46*%
G04 Gerber Fmt 4.6, Leading zero omitted, Abs format (unit mm)*
G04 Created by KiCad (PCBNEW (5.1.9)-1) date 2021-06-26 21:34:31*
%MOMM*%
%LPD*%
G01*
G04 APERTURE LIST*
%ADD10O,2.000000X2.000000*%
%ADD11O,2.400000X4.000000*%
%ADD12C,3.400000*%
%ADD13O,1.300000X2.900000*%
%ADD14O,2.900000X1.300000*%
%ADD15O,2.400000X2.100000*%
%ADD16C,3.600000*%
%ADD17O,2.100000X2.100000*%
%ADD18O,1.600000X2.300000*%
%ADD19C,1.850000*%
G04 APERTURE END LIST*
G04 #@! TO.C,C40*
G36*
G01*
X241670000Y-130200000D02*
X241130000Y-130200000D01*
G75*
G02*
X240890000Y-129960000I0J240000D01*
G01*
X240890000Y-129480000D01*
G75*
G02*
X241130000Y-129240000I240000J0D01*
G01*
X241670000Y-129240000D01*
G75*
G02*
X241910000Y-129480000I0J-240000D01*
G01*
X241910000Y-129960000D01*
G75*
G02*
X241670000Y-130200000I-240000J0D01*
G01*
G37*
G36*
G01*
X241670000Y-131160000D02*
X241130000Y-131160000D01*
G75*
G02*
X240890000Y-130920000I0J240000D01*
G01*
X240890000Y-130440000D01*
G75*
G02*
X241130000Y-130200000I240000J0D01*
G01*
X241670000Y-130200000D01*
G75*
G02*
X241910000Y-130440000I0J-240000D01*
G01*
X241910000Y-130920000D01*
G75*
G02*
X241670000Y-131160000I-240000J0D01*
G01*
G37*
G04 #@! TD*
G04 #@! TO.C,C39*
G36*
G01*
X241130000Y-133120000D02*
X241670000Y-133120000D01*
G75*
G02*
X241910000Y-133360000I0J-240000D01*
G01*
X241910000Y-133840000D01*
G75*
G02*
X241670000Y-134080000I-240000J0D01*
G01*
X241130000Y-134080000D01*
G75*
G02*
X240890000Y-133840000I0J240000D01*
G01*
X240890000Y-133360000D01*
G75*
G02*
X241130000Y-133120000I240000J0D01*
G01*
G37*
G36*
G01*
X241130000Y-132160000D02*
X241670000Y-132160000D01*
G75*
G02*
X241910000Y-132400000I0J-240000D01*
G01*
X241910000Y-132880000D01*
G75*
G02*
X241670000Y-133120000I-240000J0D01*
G01*
X241130000Y-133120000D01*
G75*
G02*
X240890000Y-132880000I0J240000D01*
G01*
X240890000Y-132400000D01*
G75*
G02*
X241130000Y-132160000I240000J0D01*
G01*
G37*
G04 #@! TD*
G04 #@! TO.C,D20*
G36*
G01*
X256905000Y-124044000D02*
X256905000Y-122844000D01*
G75*
G02*
X257105000Y-122644000I200000J0D01*
G01*
X258005000Y-122644000D01*
G75*
G02*
X258205000Y-122844000I0J-200000D01*
G01*
X258205000Y-124044000D01*
G75*
G02*
X258005000Y-124244000I-200000J0D01*
G01*
X257105000Y-124244000D01*
G75*
G02*
X256905000Y-124044000I0J200000D01*
G01*
G37*
G36*
G01*
X253605000Y-124044000D02*
X253605000Y-122844000D01*
G75*
G02*
X253805000Y-122644000I200000J0D01*
G01*
X254705000Y-122644000D01*
G75*
G02*
X254905000Y-122844000I0J-200000D01*
G01*
X254905000Y-124044000D01*
G75*
G02*
X254705000Y-124244000I-200000J0D01*
G01*
X253805000Y-124244000D01*
G75*
G02*
X253605000Y-124044000I0J200000D01*
G01*
G37*
G04 #@! TD*
D10*
G04 #@! TO.C,JP4*
X234520000Y-107900000D03*
G36*
G01*
X225900000Y-108700000D02*
X225900000Y-107100000D01*
G75*
G02*
X226100000Y-106900000I200000J0D01*
G01*
X227700000Y-106900000D01*
G75*
G02*
X227900000Y-107100000I0J-200000D01*
G01*
X227900000Y-108700000D01*
G75*
G02*
X227700000Y-108900000I-200000J0D01*
G01*
X226100000Y-108900000D01*
G75*
G02*
X225900000Y-108700000I0J200000D01*
G01*
G37*
G04 #@! TD*
G04 #@! TO.C,JP3*
X234520000Y-114000000D03*
G36*
G01*
X225900000Y-114800000D02*
X225900000Y-113200000D01*
G75*
G02*
X226100000Y-113000000I200000J0D01*
G01*
X227700000Y-113000000D01*
G75*
G02*
X227900000Y-113200000I0J-200000D01*
G01*
X227900000Y-114800000D01*
G75*
G02*
X227700000Y-115000000I-200000J0D01*
G01*
X226100000Y-115000000D01*
G75*
G02*
X225900000Y-114800000I0J200000D01*
G01*
G37*
G04 #@! TD*
G04 #@! TO.C,JP2*
X246600000Y-109200000D03*
G36*
G01*
X245800000Y-100580000D02*
X247400000Y-100580000D01*
G75*
G02*
X247600000Y-100780000I0J-200000D01*
G01*
X247600000Y-102380000D01*
G75*
G02*
X247400000Y-102580000I-200000J0D01*
G01*
X245800000Y-102580000D01*
G75*
G02*
X245600000Y-102380000I0J200000D01*
G01*
X245600000Y-100780000D01*
G75*
G02*
X245800000Y-100580000I200000J0D01*
G01*
G37*
G04 #@! TD*
G04 #@! TO.C,JP1*
X246600000Y-111580000D03*
G36*
G01*
X247400000Y-120200000D02*
X245800000Y-120200000D01*
G75*
G02*
X245600000Y-120000000I0J200000D01*
G01*
X245600000Y-118400000D01*
G75*
G02*
X245800000Y-118200000I200000J0D01*
G01*
X247400000Y-118200000D01*
G75*
G02*
X247600000Y-118400000I0J-200000D01*
G01*
X247600000Y-120000000D01*
G75*
G02*
X247400000Y-120200000I-200000J0D01*
G01*
G37*
G04 #@! TD*
G04 #@! TO.C,U13*
G36*
G01*
X260770000Y-116441000D02*
X257770000Y-116441000D01*
G75*
G02*
X257570000Y-116241000I0J200000D01*
G01*
X257570000Y-113951000D01*
G75*
G02*
X257770000Y-113751000I200000J0D01*
G01*
X260770000Y-113751000D01*
G75*
G02*
X260970000Y-113951000I0J-200000D01*
G01*
X260970000Y-116241000D01*
G75*
G02*
X260770000Y-116441000I-200000J0D01*
G01*
G37*
G36*
G01*
X257615000Y-113796000D02*
X257115000Y-113796000D01*
G75*
G02*
X256865000Y-113546000I0J250000D01*
G01*
X256865000Y-111696000D01*
G75*
G02*
X257115000Y-111446000I250000J0D01*
G01*
X257615000Y-111446000D01*
G75*
G02*
X257865000Y-111696000I0J-250000D01*
G01*
X257865000Y-113546000D01*
G75*
G02*
X257615000Y-113796000I-250000J0D01*
G01*
G37*
G36*
G01*
X258885000Y-113796000D02*
X258385000Y-113796000D01*
G75*
G02*
X258135000Y-113546000I0J250000D01*
G01*
X258135000Y-111696000D01*
G75*
G02*
X258385000Y-111446000I250000J0D01*
G01*
X258885000Y-111446000D01*
G75*
G02*
X259135000Y-111696000I0J-250000D01*
G01*
X259135000Y-113546000D01*
G75*
G02*
X258885000Y-113796000I-250000J0D01*
G01*
G37*
G36*
G01*
X260155000Y-113796000D02*
X259655000Y-113796000D01*
G75*
G02*
X259405000Y-113546000I0J250000D01*
G01*
X259405000Y-111696000D01*
G75*
G02*
X259655000Y-111446000I250000J0D01*
G01*
X260155000Y-111446000D01*
G75*
G02*
X260405000Y-111696000I0J-250000D01*
G01*
X260405000Y-113546000D01*
G75*
G02*
X260155000Y-113796000I-250000J0D01*
G01*
G37*
G36*
G01*
X261425000Y-113796000D02*
X260925000Y-113796000D01*
G75*
G02*
X260675000Y-113546000I0J250000D01*
G01*
X260675000Y-111696000D01*
G75*
G02*
X260925000Y-111446000I250000J0D01*
G01*
X261425000Y-111446000D01*
G75*
G02*
X261675000Y-111696000I0J-250000D01*
G01*
X261675000Y-113546000D01*
G75*
G02*
X261425000Y-113796000I-250000J0D01*
G01*
G37*
G36*
G01*
X261425000Y-118746000D02*
X260925000Y-118746000D01*
G75*
G02*
X260675000Y-118496000I0J250000D01*
G01*
X260675000Y-116646000D01*
G75*
G02*
X260925000Y-116396000I250000J0D01*
G01*
X261425000Y-116396000D01*
G75*
G02*
X261675000Y-116646000I0J-250000D01*
G01*
X261675000Y-118496000D01*
G75*
G02*
X261425000Y-118746000I-250000J0D01*
G01*
G37*
G36*
G01*
X260155000Y-118746000D02*
X259655000Y-118746000D01*
G75*
G02*
X259405000Y-118496000I0J250000D01*
G01*
X259405000Y-116646000D01*
G75*
G02*
X259655000Y-116396000I250000J0D01*
G01*
X260155000Y-116396000D01*
G75*
G02*
X260405000Y-116646000I0J-250000D01*
G01*
X260405000Y-118496000D01*
G75*
G02*
X260155000Y-118746000I-250000J0D01*
G01*
G37*
G36*
G01*
X258885000Y-118746000D02*
X258385000Y-118746000D01*
G75*
G02*
X258135000Y-118496000I0J250000D01*
G01*
X258135000Y-116646000D01*
G75*
G02*
X258385000Y-116396000I250000J0D01*
G01*
X258885000Y-116396000D01*
G75*
G02*
X259135000Y-116646000I0J-250000D01*
G01*
X259135000Y-118496000D01*
G75*
G02*
X258885000Y-118746000I-250000J0D01*
G01*
G37*
G36*
G01*
X257615000Y-118746000D02*
X257115000Y-118746000D01*
G75*
G02*
X256865000Y-118496000I0J250000D01*
G01*
X256865000Y-116646000D01*
G75*
G02*
X257115000Y-116396000I250000J0D01*
G01*
X257615000Y-116396000D01*
G75*
G02*
X257865000Y-116646000I0J-250000D01*
G01*
X257865000Y-118496000D01*
G75*
G02*
X257615000Y-118746000I-250000J0D01*
G01*
G37*
G04 #@! TD*
G04 #@! TO.C,U1*
G36*
G01*
X259591000Y-130476000D02*
X259591000Y-133476000D01*
G75*
G02*
X259391000Y-133676000I-200000J0D01*
G01*
X257101000Y-133676000D01*
G75*
G02*
X256901000Y-133476000I0J200000D01*
G01*
X256901000Y-130476000D01*
G75*
G02*
X257101000Y-130276000I200000J0D01*
G01*
X259391000Y-130276000D01*
G75*
G02*
X259591000Y-130476000I0J-200000D01*
G01*
G37*
G36*
G01*
X256946000Y-133631000D02*
X256946000Y-134131000D01*
G75*
G02*
X256696000Y-134381000I-250000J0D01*
G01*
X254846000Y-134381000D01*
G75*
G02*
X254596000Y-134131000I0J250000D01*
G01*
X254596000Y-133631000D01*
G75*
G02*
X254846000Y-133381000I250000J0D01*
G01*
X256696000Y-133381000D01*
G75*
G02*
X256946000Y-133631000I0J-250000D01*
G01*
G37*
G36*
G01*
X256946000Y-132361000D02*
X256946000Y-132861000D01*
G75*
G02*
X256696000Y-133111000I-250000J0D01*
G01*
X254846000Y-133111000D01*
G75*
G02*
X254596000Y-132861000I0J250000D01*
G01*
X254596000Y-132361000D01*
G75*
G02*
X254846000Y-132111000I250000J0D01*
G01*
X256696000Y-132111000D01*
G75*
G02*
X256946000Y-132361000I0J-250000D01*
G01*
G37*
G36*
G01*
X256946000Y-131091000D02*
X256946000Y-131591000D01*
G75*
G02*
X256696000Y-131841000I-250000J0D01*
G01*
X254846000Y-131841000D01*
G75*
G02*
X254596000Y-131591000I0J250000D01*
G01*
X254596000Y-131091000D01*
G75*
G02*
X254846000Y-130841000I250000J0D01*
G01*
X256696000Y-130841000D01*
G75*
G02*
X256946000Y-131091000I0J-250000D01*
G01*
G37*
G36*
G01*
X256946000Y-129821000D02*
X256946000Y-130321000D01*
G75*
G02*
X256696000Y-130571000I-250000J0D01*
G01*
X254846000Y-130571000D01*
G75*
G02*
X254596000Y-130321000I0J250000D01*
G01*
X254596000Y-129821000D01*
G75*
G02*
X254846000Y-129571000I250000J0D01*
G01*
X256696000Y-129571000D01*
G75*
G02*
X256946000Y-129821000I0J-250000D01*
G01*
G37*
G36*
G01*
X261896000Y-129821000D02*
X261896000Y-130321000D01*
G75*
G02*
X261646000Y-130571000I-250000J0D01*
G01*
X259796000Y-130571000D01*
G75*
G02*
X259546000Y-130321000I0J250000D01*
G01*
X259546000Y-129821000D01*
G75*
G02*
X259796000Y-129571000I250000J0D01*
G01*
X261646000Y-129571000D01*
G75*
G02*
X261896000Y-129821000I0J-250000D01*
G01*
G37*
G36*
G01*
X261896000Y-131091000D02*
X261896000Y-131591000D01*
G75*
G02*
X261646000Y-131841000I-250000J0D01*
G01*
X259796000Y-131841000D01*
G75*
G02*
X259546000Y-131591000I0J250000D01*
G01*
X259546000Y-131091000D01*
G75*
G02*
X259796000Y-130841000I250000J0D01*
G01*
X261646000Y-130841000D01*
G75*
G02*
X261896000Y-131091000I0J-250000D01*
G01*
G37*
G36*
G01*
X261896000Y-132361000D02*
X261896000Y-132861000D01*
G75*
G02*
X261646000Y-133111000I-250000J0D01*
G01*
X259796000Y-133111000D01*
G75*
G02*
X259546000Y-132861000I0J250000D01*
G01*
X259546000Y-132361000D01*
G75*
G02*
X259796000Y-132111000I250000J0D01*
G01*
X261646000Y-132111000D01*
G75*
G02*
X261896000Y-132361000I0J-250000D01*
G01*
G37*
G36*
G01*
X261896000Y-133631000D02*
X261896000Y-134131000D01*
G75*
G02*
X261646000Y-134381000I-250000J0D01*
G01*
X259796000Y-134381000D01*
G75*
G02*
X259546000Y-134131000I0J250000D01*
G01*
X259546000Y-133631000D01*
G75*
G02*
X259796000Y-133381000I250000J0D01*
G01*
X261646000Y-133381000D01*
G75*
G02*
X261896000Y-133631000I0J-250000D01*
G01*
G37*
G04 #@! TD*
G04 #@! TO.C,R52*
G36*
G01*
X214599000Y-111544000D02*
X215169000Y-111544000D01*
G75*
G02*
X215404000Y-111779000I0J-235000D01*
G01*
X215404000Y-112249000D01*
G75*
G02*
X215169000Y-112484000I-235000J0D01*
G01*
X214599000Y-112484000D01*
G75*
G02*
X214364000Y-112249000I0J235000D01*
G01*
X214364000Y-111779000D01*
G75*
G02*
X214599000Y-111544000I235000J0D01*
G01*
G37*
G36*
G01*
X214599000Y-110524000D02*
X215169000Y-110524000D01*
G75*
G02*
X215404000Y-110759000I0J-235000D01*
G01*
X215404000Y-111229000D01*
G75*
G02*
X215169000Y-111464000I-235000J0D01*
G01*
X214599000Y-111464000D01*
G75*
G02*
X214364000Y-111229000I0J235000D01*
G01*
X214364000Y-110759000D01*
G75*
G02*
X214599000Y-110524000I235000J0D01*
G01*
G37*
G04 #@! TD*
G04 #@! TO.C,R51*
G36*
G01*
X215869000Y-111544000D02*
X216439000Y-111544000D01*
G75*
G02*
X216674000Y-111779000I0J-235000D01*
G01*
X216674000Y-112249000D01*
G75*
G02*
X216439000Y-112484000I-235000J0D01*
G01*
X215869000Y-112484000D01*
G75*
G02*
X215634000Y-112249000I0J235000D01*
G01*
X215634000Y-111779000D01*
G75*
G02*
X215869000Y-111544000I235000J0D01*
G01*
G37*
G36*
G01*
X215869000Y-110524000D02*
X216439000Y-110524000D01*
G75*
G02*
X216674000Y-110759000I0J-235000D01*
G01*
X216674000Y-111229000D01*
G75*
G02*
X216439000Y-111464000I-235000J0D01*
G01*
X215869000Y-111464000D01*
G75*
G02*
X215634000Y-111229000I0J235000D01*
G01*
X215634000Y-110759000D01*
G75*
G02*
X215869000Y-110524000I235000J0D01*
G01*
G37*
G04 #@! TD*
G04 #@! TO.C,R50*
G36*
G01*
X213075000Y-111544000D02*
X213645000Y-111544000D01*
G75*
G02*
X213880000Y-111779000I0J-235000D01*
G01*
X213880000Y-112249000D01*
G75*
G02*
X213645000Y-112484000I-235000J0D01*
G01*
X213075000Y-112484000D01*
G75*
G02*
X212840000Y-112249000I0J235000D01*
G01*
X212840000Y-111779000D01*
G75*
G02*
X213075000Y-111544000I235000J0D01*
G01*
G37*
G36*
G01*
X213075000Y-110524000D02*
X213645000Y-110524000D01*
G75*
G02*
X213880000Y-110759000I0J-235000D01*
G01*
X213880000Y-111229000D01*
G75*
G02*
X213645000Y-111464000I-235000J0D01*
G01*
X213075000Y-111464000D01*
G75*
G02*
X212840000Y-111229000I0J235000D01*
G01*
X212840000Y-110759000D01*
G75*
G02*
X213075000Y-110524000I235000J0D01*
G01*
G37*
G04 #@! TD*
G04 #@! TO.C,R49*
G36*
G01*
X211805000Y-111544000D02*
X212375000Y-111544000D01*
G75*
G02*
X212610000Y-111779000I0J-235000D01*
G01*
X212610000Y-112249000D01*
G75*
G02*
X212375000Y-112484000I-235000J0D01*
G01*
X211805000Y-112484000D01*
G75*
G02*
X211570000Y-112249000I0J235000D01*
G01*
X211570000Y-111779000D01*
G75*
G02*
X211805000Y-111544000I235000J0D01*
G01*
G37*
G36*
G01*
X211805000Y-110524000D02*
X212375000Y-110524000D01*
G75*
G02*
X212610000Y-110759000I0J-235000D01*
G01*
X212610000Y-111229000D01*
G75*
G02*
X212375000Y-111464000I-235000J0D01*
G01*
X211805000Y-111464000D01*
G75*
G02*
X211570000Y-111229000I0J235000D01*
G01*
X211570000Y-110759000D01*
G75*
G02*
X211805000Y-110524000I235000J0D01*
G01*
G37*
G04 #@! TD*
G04 #@! TO.C,C38*
G36*
G01*
X215928000Y-109236000D02*
X215928000Y-108696000D01*
G75*
G02*
X216168000Y-108456000I240000J0D01*
G01*
X216648000Y-108456000D01*
G75*
G02*
X216888000Y-108696000I0J-240000D01*
G01*
X216888000Y-109236000D01*
G75*
G02*
X216648000Y-109476000I-240000J0D01*
G01*
X216168000Y-109476000D01*
G75*
G02*
X215928000Y-109236000I0J240000D01*
G01*
G37*
G36*
G01*
X214968000Y-109236000D02*
X214968000Y-108696000D01*
G75*
G02*
X215208000Y-108456000I240000J0D01*
G01*
X215688000Y-108456000D01*
G75*
G02*
X215928000Y-108696000I0J-240000D01*
G01*
X215928000Y-109236000D01*
G75*
G02*
X215688000Y-109476000I-240000J0D01*
G01*
X215208000Y-109476000D01*
G75*
G02*
X214968000Y-109236000I0J240000D01*
G01*
G37*
G04 #@! TD*
G04 #@! TO.C,C37*
G36*
G01*
X219964000Y-109236000D02*
X219964000Y-108696000D01*
G75*
G02*
X220204000Y-108456000I240000J0D01*
G01*
X220684000Y-108456000D01*
G75*
G02*
X220924000Y-108696000I0J-240000D01*
G01*
X220924000Y-109236000D01*
G75*
G02*
X220684000Y-109476000I-240000J0D01*
G01*
X220204000Y-109476000D01*
G75*
G02*
X219964000Y-109236000I0J240000D01*
G01*
G37*
G36*
G01*
X219004000Y-109236000D02*
X219004000Y-108696000D01*
G75*
G02*
X219244000Y-108456000I240000J0D01*
G01*
X219724000Y-108456000D01*
G75*
G02*
X219964000Y-108696000I0J-240000D01*
G01*
X219964000Y-109236000D01*
G75*
G02*
X219724000Y-109476000I-240000J0D01*
G01*
X219244000Y-109476000D01*
G75*
G02*
X219004000Y-109236000I0J240000D01*
G01*
G37*
G04 #@! TD*
G04 #@! TO.C,C36*
G36*
G01*
X212118000Y-109236000D02*
X212118000Y-108696000D01*
G75*
G02*
X212358000Y-108456000I240000J0D01*
G01*
X212838000Y-108456000D01*
G75*
G02*
X213078000Y-108696000I0J-240000D01*
G01*
X213078000Y-109236000D01*
G75*
G02*
X212838000Y-109476000I-240000J0D01*
G01*
X212358000Y-109476000D01*
G75*
G02*
X212118000Y-109236000I0J240000D01*
G01*
G37*
G36*
G01*
X211158000Y-109236000D02*
X211158000Y-108696000D01*
G75*
G02*
X211398000Y-108456000I240000J0D01*
G01*
X211878000Y-108456000D01*
G75*
G02*
X212118000Y-108696000I0J-240000D01*
G01*
X212118000Y-109236000D01*
G75*
G02*
X211878000Y-109476000I-240000J0D01*
G01*
X211398000Y-109476000D01*
G75*
G02*
X211158000Y-109236000I0J240000D01*
G01*
G37*
G04 #@! TD*
G04 #@! TO.C,C35*
G36*
G01*
X208308000Y-109045500D02*
X208308000Y-108505500D01*
G75*
G02*
X208548000Y-108265500I240000J0D01*
G01*
X209028000Y-108265500D01*
G75*
G02*
X209268000Y-108505500I0J-240000D01*
G01*
X209268000Y-109045500D01*
G75*
G02*
X209028000Y-109285500I-240000J0D01*
G01*
X208548000Y-109285500D01*
G75*
G02*
X208308000Y-109045500I0J240000D01*
G01*
G37*
G36*
G01*
X207348000Y-109045500D02*
X207348000Y-108505500D01*
G75*
G02*
X207588000Y-108265500I240000J0D01*
G01*
X208068000Y-108265500D01*
G75*
G02*
X208308000Y-108505500I0J-240000D01*
G01*
X208308000Y-109045500D01*
G75*
G02*
X208068000Y-109285500I-240000J0D01*
G01*
X207588000Y-109285500D01*
G75*
G02*
X207348000Y-109045500I0J240000D01*
G01*
G37*
G04 #@! TD*
G04 #@! TO.C,C34*
G36*
G01*
X228000000Y-131330000D02*
X228000000Y-131870000D01*
G75*
G02*
X227760000Y-132110000I-240000J0D01*
G01*
X227280000Y-132110000D01*
G75*
G02*
X227040000Y-131870000I0J240000D01*
G01*
X227040000Y-131330000D01*
G75*
G02*
X227280000Y-131090000I240000J0D01*
G01*
X227760000Y-131090000D01*
G75*
G02*
X228000000Y-131330000I0J-240000D01*
G01*
G37*
G36*
G01*
X228960000Y-131330000D02*
X228960000Y-131870000D01*
G75*
G02*
X228720000Y-132110000I-240000J0D01*
G01*
X228240000Y-132110000D01*
G75*
G02*
X228000000Y-131870000I0J240000D01*
G01*
X228000000Y-131330000D01*
G75*
G02*
X228240000Y-131090000I240000J0D01*
G01*
X228720000Y-131090000D01*
G75*
G02*
X228960000Y-131330000I0J-240000D01*
G01*
G37*
G04 #@! TD*
G04 #@! TO.C,U2*
G36*
G01*
X232380000Y-132211000D02*
X232380000Y-132711000D01*
G75*
G02*
X232130000Y-132961000I-250000J0D01*
G01*
X230280000Y-132961000D01*
G75*
G02*
X230030000Y-132711000I0J250000D01*
G01*
X230030000Y-132211000D01*
G75*
G02*
X230280000Y-131961000I250000J0D01*
G01*
X232130000Y-131961000D01*
G75*
G02*
X232380000Y-132211000I0J-250000D01*
G01*
G37*
G36*
G01*
X232380000Y-130941000D02*
X232380000Y-131441000D01*
G75*
G02*
X232130000Y-131691000I-250000J0D01*
G01*
X230280000Y-131691000D01*
G75*
G02*
X230030000Y-131441000I0J250000D01*
G01*
X230030000Y-130941000D01*
G75*
G02*
X230280000Y-130691000I250000J0D01*
G01*
X232130000Y-130691000D01*
G75*
G02*
X232380000Y-130941000I0J-250000D01*
G01*
G37*
G36*
G01*
X232380000Y-129671000D02*
X232380000Y-130171000D01*
G75*
G02*
X232130000Y-130421000I-250000J0D01*
G01*
X230280000Y-130421000D01*
G75*
G02*
X230030000Y-130171000I0J250000D01*
G01*
X230030000Y-129671000D01*
G75*
G02*
X230280000Y-129421000I250000J0D01*
G01*
X232130000Y-129421000D01*
G75*
G02*
X232380000Y-129671000I0J-250000D01*
G01*
G37*
G36*
G01*
X232380000Y-128401000D02*
X232380000Y-128901000D01*
G75*
G02*
X232130000Y-129151000I-250000J0D01*
G01*
X230280000Y-129151000D01*
G75*
G02*
X230030000Y-128901000I0J250000D01*
G01*
X230030000Y-128401000D01*
G75*
G02*
X230280000Y-128151000I250000J0D01*
G01*
X232130000Y-128151000D01*
G75*
G02*
X232380000Y-128401000I0J-250000D01*
G01*
G37*
G36*
G01*
X237330000Y-128401000D02*
X237330000Y-128901000D01*
G75*
G02*
X237080000Y-129151000I-250000J0D01*
G01*
X235230000Y-129151000D01*
G75*
G02*
X234980000Y-128901000I0J250000D01*
G01*
X234980000Y-128401000D01*
G75*
G02*
X235230000Y-128151000I250000J0D01*
G01*
X237080000Y-128151000D01*
G75*
G02*
X237330000Y-128401000I0J-250000D01*
G01*
G37*
G36*
G01*
X237330000Y-129671000D02*
X237330000Y-130171000D01*
G75*
G02*
X237080000Y-130421000I-250000J0D01*
G01*
X235230000Y-130421000D01*
G75*
G02*
X234980000Y-130171000I0J250000D01*
G01*
X234980000Y-129671000D01*
G75*
G02*
X235230000Y-129421000I250000J0D01*
G01*
X237080000Y-129421000D01*
G75*
G02*
X237330000Y-129671000I0J-250000D01*
G01*
G37*
G36*
G01*
X237330000Y-130941000D02*
X237330000Y-131441000D01*
G75*
G02*
X237080000Y-131691000I-250000J0D01*
G01*
X235230000Y-131691000D01*
G75*
G02*
X234980000Y-131441000I0J250000D01*
G01*
X234980000Y-130941000D01*
G75*
G02*
X235230000Y-130691000I250000J0D01*
G01*
X237080000Y-130691000D01*
G75*
G02*
X237330000Y-130941000I0J-250000D01*
G01*
G37*
G36*
G01*
X237330000Y-132211000D02*
X237330000Y-132711000D01*
G75*
G02*
X237080000Y-132961000I-250000J0D01*
G01*
X235230000Y-132961000D01*
G75*
G02*
X234980000Y-132711000I0J250000D01*
G01*
X234980000Y-132211000D01*
G75*
G02*
X235230000Y-131961000I250000J0D01*
G01*
X237080000Y-131961000D01*
G75*
G02*
X237330000Y-132211000I0J-250000D01*
G01*
G37*
G04 #@! TD*
G04 #@! TO.C,Y2*
G36*
G01*
X240400000Y-133700000D02*
X238600000Y-133700000D01*
G75*
G02*
X238400000Y-133500000I0J200000D01*
G01*
X238400000Y-132500000D01*
G75*
G02*
X238600000Y-132300000I200000J0D01*
G01*
X240400000Y-132300000D01*
G75*
G02*
X240600000Y-132500000I0J-200000D01*
G01*
X240600000Y-133500000D01*
G75*
G02*
X240400000Y-133700000I-200000J0D01*
G01*
G37*
G36*
G01*
X240400000Y-131200000D02*
X238600000Y-131200000D01*
G75*
G02*
X238400000Y-131000000I0J200000D01*
G01*
X238400000Y-130000000D01*
G75*
G02*
X238600000Y-129800000I200000J0D01*
G01*
X240400000Y-129800000D01*
G75*
G02*
X240600000Y-130000000I0J-200000D01*
G01*
X240600000Y-131000000D01*
G75*
G02*
X240400000Y-131200000I-200000J0D01*
G01*
G37*
G04 #@! TD*
G04 #@! TO.C,R48*
G36*
G01*
X227986000Y-128063000D02*
X227986000Y-127493000D01*
G75*
G02*
X228221000Y-127258000I235000J0D01*
G01*
X228691000Y-127258000D01*
G75*
G02*
X228926000Y-127493000I0J-235000D01*
G01*
X228926000Y-128063000D01*
G75*
G02*
X228691000Y-128298000I-235000J0D01*
G01*
X228221000Y-128298000D01*
G75*
G02*
X227986000Y-128063000I0J235000D01*
G01*
G37*
G36*
G01*
X226966000Y-128063000D02*
X226966000Y-127493000D01*
G75*
G02*
X227201000Y-127258000I235000J0D01*
G01*
X227671000Y-127258000D01*
G75*
G02*
X227906000Y-127493000I0J-235000D01*
G01*
X227906000Y-128063000D01*
G75*
G02*
X227671000Y-128298000I-235000J0D01*
G01*
X227201000Y-128298000D01*
G75*
G02*
X226966000Y-128063000I0J235000D01*
G01*
G37*
G04 #@! TD*
G04 #@! TO.C,R47*
G36*
G01*
X227984000Y-129333000D02*
X227984000Y-128763000D01*
G75*
G02*
X228219000Y-128528000I235000J0D01*
G01*
X228689000Y-128528000D01*
G75*
G02*
X228924000Y-128763000I0J-235000D01*
G01*
X228924000Y-129333000D01*
G75*
G02*
X228689000Y-129568000I-235000J0D01*
G01*
X228219000Y-129568000D01*
G75*
G02*
X227984000Y-129333000I0J235000D01*
G01*
G37*
G36*
G01*
X226964000Y-129333000D02*
X226964000Y-128763000D01*
G75*
G02*
X227199000Y-128528000I235000J0D01*
G01*
X227669000Y-128528000D01*
G75*
G02*
X227904000Y-128763000I0J-235000D01*
G01*
X227904000Y-129333000D01*
G75*
G02*
X227669000Y-129568000I-235000J0D01*
G01*
X227199000Y-129568000D01*
G75*
G02*
X226964000Y-129333000I0J235000D01*
G01*
G37*
G04 #@! TD*
G04 #@! TO.C,R17*
G36*
G01*
X227796000Y-121381000D02*
X227796000Y-121951000D01*
G75*
G02*
X227561000Y-122186000I-235000J0D01*
G01*
X227091000Y-122186000D01*
G75*
G02*
X226856000Y-121951000I0J235000D01*
G01*
X226856000Y-121381000D01*
G75*
G02*
X227091000Y-121146000I235000J0D01*
G01*
X227561000Y-121146000D01*
G75*
G02*
X227796000Y-121381000I0J-235000D01*
G01*
G37*
G36*
G01*
X228816000Y-121381000D02*
X228816000Y-121951000D01*
G75*
G02*
X228581000Y-122186000I-235000J0D01*
G01*
X228111000Y-122186000D01*
G75*
G02*
X227876000Y-121951000I0J235000D01*
G01*
X227876000Y-121381000D01*
G75*
G02*
X228111000Y-121146000I235000J0D01*
G01*
X228581000Y-121146000D01*
G75*
G02*
X228816000Y-121381000I0J-235000D01*
G01*
G37*
G04 #@! TD*
G04 #@! TO.C,R15*
G36*
G01*
X232370000Y-121635000D02*
X232370000Y-122205000D01*
G75*
G02*
X232135000Y-122440000I-235000J0D01*
G01*
X231665000Y-122440000D01*
G75*
G02*
X231430000Y-122205000I0J235000D01*
G01*
X231430000Y-121635000D01*
G75*
G02*
X231665000Y-121400000I235000J0D01*
G01*
X232135000Y-121400000D01*
G75*
G02*
X232370000Y-121635000I0J-235000D01*
G01*
G37*
G36*
G01*
X233390000Y-121635000D02*
X233390000Y-122205000D01*
G75*
G02*
X233155000Y-122440000I-235000J0D01*
G01*
X232685000Y-122440000D01*
G75*
G02*
X232450000Y-122205000I0J235000D01*
G01*
X232450000Y-121635000D01*
G75*
G02*
X232685000Y-121400000I235000J0D01*
G01*
X233155000Y-121400000D01*
G75*
G02*
X233390000Y-121635000I0J-235000D01*
G01*
G37*
G04 #@! TD*
G04 #@! TO.C,Q2*
G36*
G01*
X227635000Y-125468000D02*
X228285000Y-125468000D01*
G75*
G02*
X228485000Y-125668000I0J-200000D01*
G01*
X228485000Y-126888000D01*
G75*
G02*
X228285000Y-127088000I-200000J0D01*
G01*
X227635000Y-127088000D01*
G75*
G02*
X227435000Y-126888000I0J200000D01*
G01*
X227435000Y-125668000D01*
G75*
G02*
X227635000Y-125468000I200000J0D01*
G01*
G37*
G36*
G01*
X226685000Y-122848000D02*
X227335000Y-122848000D01*
G75*
G02*
X227535000Y-123048000I0J-200000D01*
G01*
X227535000Y-124268000D01*
G75*
G02*
X227335000Y-124468000I-200000J0D01*
G01*
X226685000Y-124468000D01*
G75*
G02*
X226485000Y-124268000I0J200000D01*
G01*
X226485000Y-123048000D01*
G75*
G02*
X226685000Y-122848000I200000J0D01*
G01*
G37*
G36*
G01*
X228585000Y-122848000D02*
X229235000Y-122848000D01*
G75*
G02*
X229435000Y-123048000I0J-200000D01*
G01*
X229435000Y-124268000D01*
G75*
G02*
X229235000Y-124468000I-200000J0D01*
G01*
X228585000Y-124468000D01*
G75*
G02*
X228385000Y-124268000I0J200000D01*
G01*
X228385000Y-123048000D01*
G75*
G02*
X228585000Y-122848000I200000J0D01*
G01*
G37*
G04 #@! TD*
G04 #@! TO.C,Q1*
G36*
G01*
X232085000Y-125468000D02*
X232735000Y-125468000D01*
G75*
G02*
X232935000Y-125668000I0J-200000D01*
G01*
X232935000Y-126888000D01*
G75*
G02*
X232735000Y-127088000I-200000J0D01*
G01*
X232085000Y-127088000D01*
G75*
G02*
X231885000Y-126888000I0J200000D01*
G01*
X231885000Y-125668000D01*
G75*
G02*
X232085000Y-125468000I200000J0D01*
G01*
G37*
G36*
G01*
X231135000Y-122848000D02*
X231785000Y-122848000D01*
G75*
G02*
X231985000Y-123048000I0J-200000D01*
G01*
X231985000Y-124268000D01*
G75*
G02*
X231785000Y-124468000I-200000J0D01*
G01*
X231135000Y-124468000D01*
G75*
G02*
X230935000Y-124268000I0J200000D01*
G01*
X230935000Y-123048000D01*
G75*
G02*
X231135000Y-122848000I200000J0D01*
G01*
G37*
G36*
G01*
X233035000Y-122848000D02*
X233685000Y-122848000D01*
G75*
G02*
X233885000Y-123048000I0J-200000D01*
G01*
X233885000Y-124268000D01*
G75*
G02*
X233685000Y-124468000I-200000J0D01*
G01*
X233035000Y-124468000D01*
G75*
G02*
X232835000Y-124268000I0J200000D01*
G01*
X232835000Y-123048000D01*
G75*
G02*
X233035000Y-122848000I200000J0D01*
G01*
G37*
G04 #@! TD*
G04 #@! TO.C,D19*
G36*
G01*
X251495000Y-142350000D02*
X252695000Y-142350000D01*
G75*
G02*
X252895000Y-142550000I0J-200000D01*
G01*
X252895000Y-143450000D01*
G75*
G02*
X252695000Y-143650000I-200000J0D01*
G01*
X251495000Y-143650000D01*
G75*
G02*
X251295000Y-143450000I0J200000D01*
G01*
X251295000Y-142550000D01*
G75*
G02*
X251495000Y-142350000I200000J0D01*
G01*
G37*
G36*
G01*
X251495000Y-139050000D02*
X252695000Y-139050000D01*
G75*
G02*
X252895000Y-139250000I0J-200000D01*
G01*
X252895000Y-140150000D01*
G75*
G02*
X252695000Y-140350000I-200000J0D01*
G01*
X251495000Y-140350000D01*
G75*
G02*
X251295000Y-140150000I0J200000D01*
G01*
X251295000Y-139250000D01*
G75*
G02*
X251495000Y-139050000I200000J0D01*
G01*
G37*
G04 #@! TD*
D11*
G04 #@! TO.C,J5*
X251305000Y-148590000D03*
X256305000Y-148590000D03*
G36*
G01*
X262505000Y-146890000D02*
X262505000Y-150290000D01*
G75*
G02*
X262205000Y-150590000I-300000J0D01*
G01*
X260405000Y-150590000D01*
G75*
G02*
X260105000Y-150290000I0J300000D01*
G01*
X260105000Y-146890000D01*
G75*
G02*
X260405000Y-146590000I300000J0D01*
G01*
X262205000Y-146590000D01*
G75*
G02*
X262505000Y-146890000I0J-300000D01*
G01*
G37*
G04 #@! TD*
G04 #@! TO.C,D18*
G36*
G01*
X246288000Y-141588000D02*
X247488000Y-141588000D01*
G75*
G02*
X247688000Y-141788000I0J-200000D01*
G01*
X247688000Y-142688000D01*
G75*
G02*
X247488000Y-142888000I-200000J0D01*
G01*
X246288000Y-142888000D01*
G75*
G02*
X246088000Y-142688000I0J200000D01*
G01*
X246088000Y-141788000D01*
G75*
G02*
X246288000Y-141588000I200000J0D01*
G01*
G37*
G36*
G01*
X246288000Y-138288000D02*
X247488000Y-138288000D01*
G75*
G02*
X247688000Y-138488000I0J-200000D01*
G01*
X247688000Y-139388000D01*
G75*
G02*
X247488000Y-139588000I-200000J0D01*
G01*
X246288000Y-139588000D01*
G75*
G02*
X246088000Y-139388000I0J200000D01*
G01*
X246088000Y-138488000D01*
G75*
G02*
X246288000Y-138288000I200000J0D01*
G01*
G37*
G04 #@! TD*
G04 #@! TO.C,C33*
G36*
G01*
X181328000Y-130318000D02*
X181328000Y-129778000D01*
G75*
G02*
X181568000Y-129538000I240000J0D01*
G01*
X182048000Y-129538000D01*
G75*
G02*
X182288000Y-129778000I0J-240000D01*
G01*
X182288000Y-130318000D01*
G75*
G02*
X182048000Y-130558000I-240000J0D01*
G01*
X181568000Y-130558000D01*
G75*
G02*
X181328000Y-130318000I0J240000D01*
G01*
G37*
G36*
G01*
X180368000Y-130318000D02*
X180368000Y-129778000D01*
G75*
G02*
X180608000Y-129538000I240000J0D01*
G01*
X181088000Y-129538000D01*
G75*
G02*
X181328000Y-129778000I0J-240000D01*
G01*
X181328000Y-130318000D01*
G75*
G02*
X181088000Y-130558000I-240000J0D01*
G01*
X180608000Y-130558000D01*
G75*
G02*
X180368000Y-130318000I0J240000D01*
G01*
G37*
G04 #@! TD*
G04 #@! TO.C,J4*
X261500000Y-98425000D03*
G36*
G01*
X255300000Y-100125000D02*
X255300000Y-96725000D01*
G75*
G02*
X255600000Y-96425000I300000J0D01*
G01*
X257400000Y-96425000D01*
G75*
G02*
X257700000Y-96725000I0J-300000D01*
G01*
X257700000Y-100125000D01*
G75*
G02*
X257400000Y-100425000I-300000J0D01*
G01*
X255600000Y-100425000D01*
G75*
G02*
X255300000Y-100125000I0J300000D01*
G01*
G37*
G04 #@! TD*
G04 #@! TO.C,C32*
G36*
G01*
X246087000Y-124503000D02*
X246087000Y-123963000D01*
G75*
G02*
X246327000Y-123723000I240000J0D01*
G01*
X246807000Y-123723000D01*
G75*
G02*
X247047000Y-123963000I0J-240000D01*
G01*
X247047000Y-124503000D01*
G75*
G02*
X246807000Y-124743000I-240000J0D01*
G01*
X246327000Y-124743000D01*
G75*
G02*
X246087000Y-124503000I0J240000D01*
G01*
G37*
G36*
G01*
X245127000Y-124503000D02*
X245127000Y-123963000D01*
G75*
G02*
X245367000Y-123723000I240000J0D01*
G01*
X245847000Y-123723000D01*
G75*
G02*
X246087000Y-123963000I0J-240000D01*
G01*
X246087000Y-124503000D01*
G75*
G02*
X245847000Y-124743000I-240000J0D01*
G01*
X245367000Y-124743000D01*
G75*
G02*
X245127000Y-124503000I0J240000D01*
G01*
G37*
G04 #@! TD*
G04 #@! TO.C,J13*
X204343000Y-148590000D03*
X209343000Y-148590000D03*
X214343000Y-148590000D03*
G36*
G01*
X220543000Y-146890000D02*
X220543000Y-150290000D01*
G75*
G02*
X220243000Y-150590000I-300000J0D01*
G01*
X218443000Y-150590000D01*
G75*
G02*
X218143000Y-150290000I0J300000D01*
G01*
X218143000Y-146890000D01*
G75*
G02*
X218443000Y-146590000I300000J0D01*
G01*
X220243000Y-146590000D01*
G75*
G02*
X220543000Y-146890000I0J-300000D01*
G01*
G37*
G04 #@! TD*
G04 #@! TO.C,J2*
X229743000Y-148590000D03*
G36*
G01*
X235943000Y-146890000D02*
X235943000Y-150290000D01*
G75*
G02*
X235643000Y-150590000I-300000J0D01*
G01*
X233843000Y-150590000D01*
G75*
G02*
X233543000Y-150290000I0J300000D01*
G01*
X233543000Y-146890000D01*
G75*
G02*
X233843000Y-146590000I300000J0D01*
G01*
X235643000Y-146590000D01*
G75*
G02*
X235943000Y-146890000I0J-300000D01*
G01*
G37*
G04 #@! TD*
G04 #@! TO.C,U7*
G36*
G01*
X244829000Y-126127000D02*
X244429000Y-126127000D01*
G75*
G02*
X244229000Y-125927000I0J200000D01*
G01*
X244229000Y-125327000D01*
G75*
G02*
X244429000Y-125127000I200000J0D01*
G01*
X244829000Y-125127000D01*
G75*
G02*
X245029000Y-125327000I0J-200000D01*
G01*
X245029000Y-125927000D01*
G75*
G02*
X244829000Y-126127000I-200000J0D01*
G01*
G37*
G36*
G01*
X245779000Y-126127000D02*
X245379000Y-126127000D01*
G75*
G02*
X245179000Y-125927000I0J200000D01*
G01*
X245179000Y-125327000D01*
G75*
G02*
X245379000Y-125127000I200000J0D01*
G01*
X245779000Y-125127000D01*
G75*
G02*
X245979000Y-125327000I0J-200000D01*
G01*
X245979000Y-125927000D01*
G75*
G02*
X245779000Y-126127000I-200000J0D01*
G01*
G37*
G36*
G01*
X246729000Y-126127000D02*
X246329000Y-126127000D01*
G75*
G02*
X246129000Y-125927000I0J200000D01*
G01*
X246129000Y-125327000D01*
G75*
G02*
X246329000Y-125127000I200000J0D01*
G01*
X246729000Y-125127000D01*
G75*
G02*
X246929000Y-125327000I0J-200000D01*
G01*
X246929000Y-125927000D01*
G75*
G02*
X246729000Y-126127000I-200000J0D01*
G01*
G37*
G36*
G01*
X246729000Y-128927000D02*
X246329000Y-128927000D01*
G75*
G02*
X246129000Y-128727000I0J200000D01*
G01*
X246129000Y-128127000D01*
G75*
G02*
X246329000Y-127927000I200000J0D01*
G01*
X246729000Y-127927000D01*
G75*
G02*
X246929000Y-128127000I0J-200000D01*
G01*
X246929000Y-128727000D01*
G75*
G02*
X246729000Y-128927000I-200000J0D01*
G01*
G37*
G36*
G01*
X245779000Y-128927000D02*
X245379000Y-128927000D01*
G75*
G02*
X245179000Y-128727000I0J200000D01*
G01*
X245179000Y-128127000D01*
G75*
G02*
X245379000Y-127927000I200000J0D01*
G01*
X245779000Y-127927000D01*
G75*
G02*
X245979000Y-128127000I0J-200000D01*
G01*
X245979000Y-128727000D01*
G75*
G02*
X245779000Y-128927000I-200000J0D01*
G01*
G37*
G36*
G01*
X244829000Y-128927000D02*
X244429000Y-128927000D01*
G75*
G02*
X244229000Y-128727000I0J200000D01*
G01*
X244229000Y-128127000D01*
G75*
G02*
X244429000Y-127927000I200000J0D01*
G01*
X244829000Y-127927000D01*
G75*
G02*
X245029000Y-128127000I0J-200000D01*
G01*
X245029000Y-128727000D01*
G75*
G02*
X244829000Y-128927000I-200000J0D01*
G01*
G37*
G36*
G01*
X246779000Y-127977000D02*
X244379000Y-127977000D01*
G75*
G02*
X244179000Y-127777000I0J200000D01*
G01*
X244179000Y-126277000D01*
G75*
G02*
X244379000Y-126077000I200000J0D01*
G01*
X246779000Y-126077000D01*
G75*
G02*
X246979000Y-126277000I0J-200000D01*
G01*
X246979000Y-127777000D01*
G75*
G02*
X246779000Y-127977000I-200000J0D01*
G01*
G37*
G04 #@! TD*
G04 #@! TO.C,L1*
G36*
G01*
X254495000Y-134894000D02*
X254495000Y-137394000D01*
G75*
G02*
X254295000Y-137594000I-200000J0D01*
G01*
X252795000Y-137594000D01*
G75*
G02*
X252595000Y-137394000I0J200000D01*
G01*
X252595000Y-134894000D01*
G75*
G02*
X252795000Y-134694000I200000J0D01*
G01*
X254295000Y-134694000D01*
G75*
G02*
X254495000Y-134894000I0J-200000D01*
G01*
G37*
G36*
G01*
X250795000Y-134894000D02*
X250795000Y-137394000D01*
G75*
G02*
X250595000Y-137594000I-200000J0D01*
G01*
X249095000Y-137594000D01*
G75*
G02*
X248895000Y-137394000I0J200000D01*
G01*
X248895000Y-134894000D01*
G75*
G02*
X249095000Y-134694000I200000J0D01*
G01*
X250595000Y-134694000D01*
G75*
G02*
X250795000Y-134894000I0J-200000D01*
G01*
G37*
G04 #@! TD*
G04 #@! TO.C,L3*
G36*
G01*
X256075000Y-111601000D02*
X253575000Y-111601000D01*
G75*
G02*
X253375000Y-111401000I0J200000D01*
G01*
X253375000Y-109901000D01*
G75*
G02*
X253575000Y-109701000I200000J0D01*
G01*
X256075000Y-109701000D01*
G75*
G02*
X256275000Y-109901000I0J-200000D01*
G01*
X256275000Y-111401000D01*
G75*
G02*
X256075000Y-111601000I-200000J0D01*
G01*
G37*
G36*
G01*
X256075000Y-107901000D02*
X253575000Y-107901000D01*
G75*
G02*
X253375000Y-107701000I0J200000D01*
G01*
X253375000Y-106201000D01*
G75*
G02*
X253575000Y-106001000I200000J0D01*
G01*
X256075000Y-106001000D01*
G75*
G02*
X256275000Y-106201000I0J-200000D01*
G01*
X256275000Y-107701000D01*
G75*
G02*
X256075000Y-107901000I-200000J0D01*
G01*
G37*
G04 #@! TD*
G04 #@! TO.C,BT1*
G36*
G01*
X242238000Y-125754000D02*
X242238000Y-128754000D01*
G75*
G02*
X242038000Y-128954000I-200000J0D01*
G01*
X239038000Y-128954000D01*
G75*
G02*
X238838000Y-128754000I0J200000D01*
G01*
X238838000Y-125754000D01*
G75*
G02*
X239038000Y-125554000I200000J0D01*
G01*
X242038000Y-125554000D01*
G75*
G02*
X242238000Y-125754000I0J-200000D01*
G01*
G37*
D12*
X220048000Y-127254000D03*
G04 #@! TD*
G04 #@! TO.C,C23*
G36*
G01*
X234216000Y-110728000D02*
X234216000Y-111268000D01*
G75*
G02*
X233976000Y-111508000I-240000J0D01*
G01*
X233496000Y-111508000D01*
G75*
G02*
X233256000Y-111268000I0J240000D01*
G01*
X233256000Y-110728000D01*
G75*
G02*
X233496000Y-110488000I240000J0D01*
G01*
X233976000Y-110488000D01*
G75*
G02*
X234216000Y-110728000I0J-240000D01*
G01*
G37*
G36*
G01*
X235176000Y-110728000D02*
X235176000Y-111268000D01*
G75*
G02*
X234936000Y-111508000I-240000J0D01*
G01*
X234456000Y-111508000D01*
G75*
G02*
X234216000Y-111268000I0J240000D01*
G01*
X234216000Y-110728000D01*
G75*
G02*
X234456000Y-110488000I240000J0D01*
G01*
X234936000Y-110488000D01*
G75*
G02*
X235176000Y-110728000I0J-240000D01*
G01*
G37*
G04 #@! TD*
G04 #@! TO.C,R46*
G36*
G01*
X217647000Y-103162000D02*
X218217000Y-103162000D01*
G75*
G02*
X218452000Y-103397000I0J-235000D01*
G01*
X218452000Y-103867000D01*
G75*
G02*
X218217000Y-104102000I-235000J0D01*
G01*
X217647000Y-104102000D01*
G75*
G02*
X217412000Y-103867000I0J235000D01*
G01*
X217412000Y-103397000D01*
G75*
G02*
X217647000Y-103162000I235000J0D01*
G01*
G37*
G36*
G01*
X217647000Y-102142000D02*
X218217000Y-102142000D01*
G75*
G02*
X218452000Y-102377000I0J-235000D01*
G01*
X218452000Y-102847000D01*
G75*
G02*
X218217000Y-103082000I-235000J0D01*
G01*
X217647000Y-103082000D01*
G75*
G02*
X217412000Y-102847000I0J235000D01*
G01*
X217412000Y-102377000D01*
G75*
G02*
X217647000Y-102142000I235000J0D01*
G01*
G37*
G04 #@! TD*
G04 #@! TO.C,R45*
G36*
G01*
X214853000Y-103162000D02*
X215423000Y-103162000D01*
G75*
G02*
X215658000Y-103397000I0J-235000D01*
G01*
X215658000Y-103867000D01*
G75*
G02*
X215423000Y-104102000I-235000J0D01*
G01*
X214853000Y-104102000D01*
G75*
G02*
X214618000Y-103867000I0J235000D01*
G01*
X214618000Y-103397000D01*
G75*
G02*
X214853000Y-103162000I235000J0D01*
G01*
G37*
G36*
G01*
X214853000Y-102142000D02*
X215423000Y-102142000D01*
G75*
G02*
X215658000Y-102377000I0J-235000D01*
G01*
X215658000Y-102847000D01*
G75*
G02*
X215423000Y-103082000I-235000J0D01*
G01*
X214853000Y-103082000D01*
G75*
G02*
X214618000Y-102847000I0J235000D01*
G01*
X214618000Y-102377000D01*
G75*
G02*
X214853000Y-102142000I235000J0D01*
G01*
G37*
G04 #@! TD*
G04 #@! TO.C,R44*
G36*
G01*
X210789000Y-103162000D02*
X211359000Y-103162000D01*
G75*
G02*
X211594000Y-103397000I0J-235000D01*
G01*
X211594000Y-103867000D01*
G75*
G02*
X211359000Y-104102000I-235000J0D01*
G01*
X210789000Y-104102000D01*
G75*
G02*
X210554000Y-103867000I0J235000D01*
G01*
X210554000Y-103397000D01*
G75*
G02*
X210789000Y-103162000I235000J0D01*
G01*
G37*
G36*
G01*
X210789000Y-102142000D02*
X211359000Y-102142000D01*
G75*
G02*
X211594000Y-102377000I0J-235000D01*
G01*
X211594000Y-102847000D01*
G75*
G02*
X211359000Y-103082000I-235000J0D01*
G01*
X210789000Y-103082000D01*
G75*
G02*
X210554000Y-102847000I0J235000D01*
G01*
X210554000Y-102377000D01*
G75*
G02*
X210789000Y-102142000I235000J0D01*
G01*
G37*
G04 #@! TD*
G04 #@! TO.C,R40*
G36*
G01*
X206471000Y-103166000D02*
X207041000Y-103166000D01*
G75*
G02*
X207276000Y-103401000I0J-235000D01*
G01*
X207276000Y-103871000D01*
G75*
G02*
X207041000Y-104106000I-235000J0D01*
G01*
X206471000Y-104106000D01*
G75*
G02*
X206236000Y-103871000I0J235000D01*
G01*
X206236000Y-103401000D01*
G75*
G02*
X206471000Y-103166000I235000J0D01*
G01*
G37*
G36*
G01*
X206471000Y-102146000D02*
X207041000Y-102146000D01*
G75*
G02*
X207276000Y-102381000I0J-235000D01*
G01*
X207276000Y-102851000D01*
G75*
G02*
X207041000Y-103086000I-235000J0D01*
G01*
X206471000Y-103086000D01*
G75*
G02*
X206236000Y-102851000I0J235000D01*
G01*
X206236000Y-102381000D01*
G75*
G02*
X206471000Y-102146000I235000J0D01*
G01*
G37*
G04 #@! TD*
G04 #@! TO.C,D16*
G36*
G01*
X219852000Y-106026000D02*
X219852000Y-106826000D01*
G75*
G02*
X219652000Y-107026000I-200000J0D01*
G01*
X218752000Y-107026000D01*
G75*
G02*
X218552000Y-106826000I0J200000D01*
G01*
X218552000Y-106026000D01*
G75*
G02*
X218752000Y-105826000I200000J0D01*
G01*
X219652000Y-105826000D01*
G75*
G02*
X219852000Y-106026000I0J-200000D01*
G01*
G37*
G36*
G01*
X221852000Y-105076000D02*
X221852000Y-105876000D01*
G75*
G02*
X221652000Y-106076000I-200000J0D01*
G01*
X220752000Y-106076000D01*
G75*
G02*
X220552000Y-105876000I0J200000D01*
G01*
X220552000Y-105076000D01*
G75*
G02*
X220752000Y-104876000I200000J0D01*
G01*
X221652000Y-104876000D01*
G75*
G02*
X221852000Y-105076000I0J-200000D01*
G01*
G37*
G36*
G01*
X221852000Y-106976000D02*
X221852000Y-107776000D01*
G75*
G02*
X221652000Y-107976000I-200000J0D01*
G01*
X220752000Y-107976000D01*
G75*
G02*
X220552000Y-107776000I0J200000D01*
G01*
X220552000Y-106976000D01*
G75*
G02*
X220752000Y-106776000I200000J0D01*
G01*
X221652000Y-106776000D01*
G75*
G02*
X221852000Y-106976000I0J-200000D01*
G01*
G37*
G04 #@! TD*
G04 #@! TO.C,D11*
G36*
G01*
X215534000Y-106026000D02*
X215534000Y-106826000D01*
G75*
G02*
X215334000Y-107026000I-200000J0D01*
G01*
X214434000Y-107026000D01*
G75*
G02*
X214234000Y-106826000I0J200000D01*
G01*
X214234000Y-106026000D01*
G75*
G02*
X214434000Y-105826000I200000J0D01*
G01*
X215334000Y-105826000D01*
G75*
G02*
X215534000Y-106026000I0J-200000D01*
G01*
G37*
G36*
G01*
X217534000Y-105076000D02*
X217534000Y-105876000D01*
G75*
G02*
X217334000Y-106076000I-200000J0D01*
G01*
X216434000Y-106076000D01*
G75*
G02*
X216234000Y-105876000I0J200000D01*
G01*
X216234000Y-105076000D01*
G75*
G02*
X216434000Y-104876000I200000J0D01*
G01*
X217334000Y-104876000D01*
G75*
G02*
X217534000Y-105076000I0J-200000D01*
G01*
G37*
G36*
G01*
X217534000Y-106976000D02*
X217534000Y-107776000D01*
G75*
G02*
X217334000Y-107976000I-200000J0D01*
G01*
X216434000Y-107976000D01*
G75*
G02*
X216234000Y-107776000I0J200000D01*
G01*
X216234000Y-106976000D01*
G75*
G02*
X216434000Y-106776000I200000J0D01*
G01*
X217334000Y-106776000D01*
G75*
G02*
X217534000Y-106976000I0J-200000D01*
G01*
G37*
G04 #@! TD*
G04 #@! TO.C,D10*
G36*
G01*
X211470000Y-106026000D02*
X211470000Y-106826000D01*
G75*
G02*
X211270000Y-107026000I-200000J0D01*
G01*
X210370000Y-107026000D01*
G75*
G02*
X210170000Y-106826000I0J200000D01*
G01*
X210170000Y-106026000D01*
G75*
G02*
X210370000Y-105826000I200000J0D01*
G01*
X211270000Y-105826000D01*
G75*
G02*
X211470000Y-106026000I0J-200000D01*
G01*
G37*
G36*
G01*
X213470000Y-105076000D02*
X213470000Y-105876000D01*
G75*
G02*
X213270000Y-106076000I-200000J0D01*
G01*
X212370000Y-106076000D01*
G75*
G02*
X212170000Y-105876000I0J200000D01*
G01*
X212170000Y-105076000D01*
G75*
G02*
X212370000Y-104876000I200000J0D01*
G01*
X213270000Y-104876000D01*
G75*
G02*
X213470000Y-105076000I0J-200000D01*
G01*
G37*
G36*
G01*
X213470000Y-106976000D02*
X213470000Y-107776000D01*
G75*
G02*
X213270000Y-107976000I-200000J0D01*
G01*
X212370000Y-107976000D01*
G75*
G02*
X212170000Y-107776000I0J200000D01*
G01*
X212170000Y-106976000D01*
G75*
G02*
X212370000Y-106776000I200000J0D01*
G01*
X213270000Y-106776000D01*
G75*
G02*
X213470000Y-106976000I0J-200000D01*
G01*
G37*
G04 #@! TD*
G04 #@! TO.C,D6*
G36*
G01*
X207406000Y-106026000D02*
X207406000Y-106826000D01*
G75*
G02*
X207206000Y-107026000I-200000J0D01*
G01*
X206306000Y-107026000D01*
G75*
G02*
X206106000Y-106826000I0J200000D01*
G01*
X206106000Y-106026000D01*
G75*
G02*
X206306000Y-105826000I200000J0D01*
G01*
X207206000Y-105826000D01*
G75*
G02*
X207406000Y-106026000I0J-200000D01*
G01*
G37*
G36*
G01*
X209406000Y-105076000D02*
X209406000Y-105876000D01*
G75*
G02*
X209206000Y-106076000I-200000J0D01*
G01*
X208306000Y-106076000D01*
G75*
G02*
X208106000Y-105876000I0J200000D01*
G01*
X208106000Y-105076000D01*
G75*
G02*
X208306000Y-104876000I200000J0D01*
G01*
X209206000Y-104876000D01*
G75*
G02*
X209406000Y-105076000I0J-200000D01*
G01*
G37*
G36*
G01*
X209406000Y-106976000D02*
X209406000Y-107776000D01*
G75*
G02*
X209206000Y-107976000I-200000J0D01*
G01*
X208306000Y-107976000D01*
G75*
G02*
X208106000Y-107776000I0J200000D01*
G01*
X208106000Y-106976000D01*
G75*
G02*
X208306000Y-106776000I200000J0D01*
G01*
X209206000Y-106776000D01*
G75*
G02*
X209406000Y-106976000I0J-200000D01*
G01*
G37*
G04 #@! TD*
G04 #@! TO.C,R34*
G36*
G01*
X229787500Y-103447558D02*
X229787500Y-104552442D01*
G75*
G02*
X229439942Y-104900000I-347558J0D01*
G01*
X228710058Y-104900000D01*
G75*
G02*
X228362500Y-104552442I0J347558D01*
G01*
X228362500Y-103447558D01*
G75*
G02*
X228710058Y-103100000I347558J0D01*
G01*
X229439942Y-103100000D01*
G75*
G02*
X229787500Y-103447558I0J-347558D01*
G01*
G37*
G36*
G01*
X231612500Y-103447558D02*
X231612500Y-104552442D01*
G75*
G02*
X231264942Y-104900000I-347558J0D01*
G01*
X230535058Y-104900000D01*
G75*
G02*
X230187500Y-104552442I0J347558D01*
G01*
X230187500Y-103447558D01*
G75*
G02*
X230535058Y-103100000I347558J0D01*
G01*
X231264942Y-103100000D01*
G75*
G02*
X231612500Y-103447558I0J-347558D01*
G01*
G37*
G04 #@! TD*
G04 #@! TO.C,R28*
G36*
G01*
X229887500Y-116947558D02*
X229887500Y-118052442D01*
G75*
G02*
X229539942Y-118400000I-347558J0D01*
G01*
X228810058Y-118400000D01*
G75*
G02*
X228462500Y-118052442I0J347558D01*
G01*
X228462500Y-116947558D01*
G75*
G02*
X228810058Y-116600000I347558J0D01*
G01*
X229539942Y-116600000D01*
G75*
G02*
X229887500Y-116947558I0J-347558D01*
G01*
G37*
G36*
G01*
X231712500Y-116947558D02*
X231712500Y-118052442D01*
G75*
G02*
X231364942Y-118400000I-347558J0D01*
G01*
X230635058Y-118400000D01*
G75*
G02*
X230287500Y-118052442I0J347558D01*
G01*
X230287500Y-116947558D01*
G75*
G02*
X230635058Y-116600000I347558J0D01*
G01*
X231364942Y-116600000D01*
G75*
G02*
X231712500Y-116947558I0J-347558D01*
G01*
G37*
G04 #@! TD*
G04 #@! TO.C,R26*
G36*
G01*
X246537500Y-98747558D02*
X246537500Y-99852442D01*
G75*
G02*
X246189942Y-100200000I-347558J0D01*
G01*
X245460058Y-100200000D01*
G75*
G02*
X245112500Y-99852442I0J347558D01*
G01*
X245112500Y-98747558D01*
G75*
G02*
X245460058Y-98400000I347558J0D01*
G01*
X246189942Y-98400000D01*
G75*
G02*
X246537500Y-98747558I0J-347558D01*
G01*
G37*
G36*
G01*
X248362500Y-98747558D02*
X248362500Y-99852442D01*
G75*
G02*
X248014942Y-100200000I-347558J0D01*
G01*
X247285058Y-100200000D01*
G75*
G02*
X246937500Y-99852442I0J347558D01*
G01*
X246937500Y-98747558D01*
G75*
G02*
X247285058Y-98400000I347558J0D01*
G01*
X248014942Y-98400000D01*
G75*
G02*
X248362500Y-98747558I0J-347558D01*
G01*
G37*
G04 #@! TD*
G04 #@! TO.C,R25*
G36*
G01*
X246687500Y-122052442D02*
X246687500Y-120947558D01*
G75*
G02*
X247035058Y-120600000I347558J0D01*
G01*
X247764942Y-120600000D01*
G75*
G02*
X248112500Y-120947558I0J-347558D01*
G01*
X248112500Y-122052442D01*
G75*
G02*
X247764942Y-122400000I-347558J0D01*
G01*
X247035058Y-122400000D01*
G75*
G02*
X246687500Y-122052442I0J347558D01*
G01*
G37*
G36*
G01*
X244862500Y-122052442D02*
X244862500Y-120947558D01*
G75*
G02*
X245210058Y-120600000I347558J0D01*
G01*
X245939942Y-120600000D01*
G75*
G02*
X246287500Y-120947558I0J-347558D01*
G01*
X246287500Y-122052442D01*
G75*
G02*
X245939942Y-122400000I-347558J0D01*
G01*
X245210058Y-122400000D01*
G75*
G02*
X244862500Y-122052442I0J347558D01*
G01*
G37*
G04 #@! TD*
G04 #@! TO.C,C31*
G36*
G01*
X258307000Y-140747000D02*
X258307000Y-141447000D01*
G75*
G02*
X257982000Y-141772000I-325000J0D01*
G01*
X257332000Y-141772000D01*
G75*
G02*
X257007000Y-141447000I0J325000D01*
G01*
X257007000Y-140747000D01*
G75*
G02*
X257332000Y-140422000I325000J0D01*
G01*
X257982000Y-140422000D01*
G75*
G02*
X258307000Y-140747000I0J-325000D01*
G01*
G37*
G36*
G01*
X259857000Y-140747000D02*
X259857000Y-141447000D01*
G75*
G02*
X259532000Y-141772000I-325000J0D01*
G01*
X258882000Y-141772000D01*
G75*
G02*
X258557000Y-141447000I0J325000D01*
G01*
X258557000Y-140747000D01*
G75*
G02*
X258882000Y-140422000I325000J0D01*
G01*
X259532000Y-140422000D01*
G75*
G02*
X259857000Y-140747000I0J-325000D01*
G01*
G37*
G04 #@! TD*
G04 #@! TO.C,C24*
G36*
G01*
X257110000Y-138301955D02*
X257110000Y-139828045D01*
G75*
G02*
X256773045Y-140165000I-336955J0D01*
G01*
X255896955Y-140165000D01*
G75*
G02*
X255560000Y-139828045I0J336955D01*
G01*
X255560000Y-138301955D01*
G75*
G02*
X255896955Y-137965000I336955J0D01*
G01*
X256773045Y-137965000D01*
G75*
G02*
X257110000Y-138301955I0J-336955D01*
G01*
G37*
G36*
G01*
X260060000Y-138301955D02*
X260060000Y-139828045D01*
G75*
G02*
X259723045Y-140165000I-336955J0D01*
G01*
X258846955Y-140165000D01*
G75*
G02*
X258510000Y-139828045I0J336955D01*
G01*
X258510000Y-138301955D01*
G75*
G02*
X258846955Y-137965000I336955J0D01*
G01*
X259723045Y-137965000D01*
G75*
G02*
X260060000Y-138301955I0J-336955D01*
G01*
G37*
G04 #@! TD*
G04 #@! TO.C,C30*
G36*
G01*
X189258000Y-131048000D02*
X189258000Y-131588000D01*
G75*
G02*
X189018000Y-131828000I-240000J0D01*
G01*
X188538000Y-131828000D01*
G75*
G02*
X188298000Y-131588000I0J240000D01*
G01*
X188298000Y-131048000D01*
G75*
G02*
X188538000Y-130808000I240000J0D01*
G01*
X189018000Y-130808000D01*
G75*
G02*
X189258000Y-131048000I0J-240000D01*
G01*
G37*
G36*
G01*
X190218000Y-131048000D02*
X190218000Y-131588000D01*
G75*
G02*
X189978000Y-131828000I-240000J0D01*
G01*
X189498000Y-131828000D01*
G75*
G02*
X189258000Y-131588000I0J240000D01*
G01*
X189258000Y-131048000D01*
G75*
G02*
X189498000Y-130808000I240000J0D01*
G01*
X189978000Y-130808000D01*
G75*
G02*
X190218000Y-131048000I0J-240000D01*
G01*
G37*
G04 #@! TD*
G04 #@! TO.C,C14*
G36*
G01*
X189385000Y-132572000D02*
X189385000Y-133112000D01*
G75*
G02*
X189145000Y-133352000I-240000J0D01*
G01*
X188665000Y-133352000D01*
G75*
G02*
X188425000Y-133112000I0J240000D01*
G01*
X188425000Y-132572000D01*
G75*
G02*
X188665000Y-132332000I240000J0D01*
G01*
X189145000Y-132332000D01*
G75*
G02*
X189385000Y-132572000I0J-240000D01*
G01*
G37*
G36*
G01*
X190345000Y-132572000D02*
X190345000Y-133112000D01*
G75*
G02*
X190105000Y-133352000I-240000J0D01*
G01*
X189625000Y-133352000D01*
G75*
G02*
X189385000Y-133112000I0J240000D01*
G01*
X189385000Y-132572000D01*
G75*
G02*
X189625000Y-132332000I240000J0D01*
G01*
X190105000Y-132332000D01*
G75*
G02*
X190345000Y-132572000I0J-240000D01*
G01*
G37*
G04 #@! TD*
G04 #@! TO.C,C4*
G36*
G01*
X235779000Y-135325000D02*
X234629000Y-135325000D01*
G75*
G02*
X234279000Y-134975000I0J350000D01*
G01*
X234279000Y-134275000D01*
G75*
G02*
X234629000Y-133925000I350000J0D01*
G01*
X235779000Y-133925000D01*
G75*
G02*
X236129000Y-134275000I0J-350000D01*
G01*
X236129000Y-134975000D01*
G75*
G02*
X235779000Y-135325000I-350000J0D01*
G01*
G37*
G36*
G01*
X235779000Y-137225000D02*
X234629000Y-137225000D01*
G75*
G02*
X234279000Y-136875000I0J350000D01*
G01*
X234279000Y-136175000D01*
G75*
G02*
X234629000Y-135825000I350000J0D01*
G01*
X235779000Y-135825000D01*
G75*
G02*
X236129000Y-136175000I0J-350000D01*
G01*
X236129000Y-136875000D01*
G75*
G02*
X235779000Y-137225000I-350000J0D01*
G01*
G37*
G04 #@! TD*
G04 #@! TO.C,C3*
G36*
G01*
X248853000Y-140900000D02*
X250003000Y-140900000D01*
G75*
G02*
X250353000Y-141250000I0J-350000D01*
G01*
X250353000Y-141950000D01*
G75*
G02*
X250003000Y-142300000I-350000J0D01*
G01*
X248853000Y-142300000D01*
G75*
G02*
X248503000Y-141950000I0J350000D01*
G01*
X248503000Y-141250000D01*
G75*
G02*
X248853000Y-140900000I350000J0D01*
G01*
G37*
G36*
G01*
X248853000Y-139000000D02*
X250003000Y-139000000D01*
G75*
G02*
X250353000Y-139350000I0J-350000D01*
G01*
X250353000Y-140050000D01*
G75*
G02*
X250003000Y-140400000I-350000J0D01*
G01*
X248853000Y-140400000D01*
G75*
G02*
X248503000Y-140050000I0J350000D01*
G01*
X248503000Y-139350000D01*
G75*
G02*
X248853000Y-139000000I350000J0D01*
G01*
G37*
G04 #@! TD*
D13*
G04 #@! TO.C,U6*
X206502000Y-110524000D03*
X205232000Y-110524000D03*
X206502000Y-128524000D03*
X205232000Y-128524000D03*
G36*
G01*
X192152000Y-116624000D02*
X198152000Y-116624000D01*
G75*
G02*
X198352000Y-116824000I0J-200000D01*
G01*
X198352000Y-122824000D01*
G75*
G02*
X198152000Y-123024000I-200000J0D01*
G01*
X192152000Y-123024000D01*
G75*
G02*
X191952000Y-122824000I0J200000D01*
G01*
X191952000Y-116824000D01*
G75*
G02*
X192152000Y-116624000I200000J0D01*
G01*
G37*
X187452000Y-128524000D03*
X188722000Y-128524000D03*
X189992000Y-128524000D03*
X191262000Y-128524000D03*
X192532000Y-128524000D03*
X193802000Y-128524000D03*
X195072000Y-128524000D03*
X196342000Y-128524000D03*
X197612000Y-128524000D03*
X198882000Y-128524000D03*
X200152000Y-128524000D03*
X201422000Y-128524000D03*
X202692000Y-128524000D03*
X203962000Y-128524000D03*
D14*
X205452000Y-125239000D03*
X205452000Y-123969000D03*
X205452000Y-115079000D03*
X205452000Y-113809000D03*
D13*
X203962000Y-110524000D03*
X202692000Y-110524000D03*
X201422000Y-110524000D03*
X200152000Y-110524000D03*
X198882000Y-110524000D03*
X197612000Y-110524000D03*
X196342000Y-110524000D03*
X195072000Y-110524000D03*
X193802000Y-110524000D03*
X192532000Y-110524000D03*
X191262000Y-110524000D03*
X189992000Y-110524000D03*
X188722000Y-110524000D03*
X187452000Y-110524000D03*
G04 #@! TD*
G04 #@! TO.C,R43*
G36*
G01*
X263175000Y-112641000D02*
X262605000Y-112641000D01*
G75*
G02*
X262370000Y-112406000I0J235000D01*
G01*
X262370000Y-111936000D01*
G75*
G02*
X262605000Y-111701000I235000J0D01*
G01*
X263175000Y-111701000D01*
G75*
G02*
X263410000Y-111936000I0J-235000D01*
G01*
X263410000Y-112406000D01*
G75*
G02*
X263175000Y-112641000I-235000J0D01*
G01*
G37*
G36*
G01*
X263175000Y-113661000D02*
X262605000Y-113661000D01*
G75*
G02*
X262370000Y-113426000I0J235000D01*
G01*
X262370000Y-112956000D01*
G75*
G02*
X262605000Y-112721000I235000J0D01*
G01*
X263175000Y-112721000D01*
G75*
G02*
X263410000Y-112956000I0J-235000D01*
G01*
X263410000Y-113426000D01*
G75*
G02*
X263175000Y-113661000I-235000J0D01*
G01*
G37*
G04 #@! TD*
G04 #@! TO.C,R42*
G36*
G01*
X259546000Y-106903000D02*
X259546000Y-107473000D01*
G75*
G02*
X259311000Y-107708000I-235000J0D01*
G01*
X258841000Y-107708000D01*
G75*
G02*
X258606000Y-107473000I0J235000D01*
G01*
X258606000Y-106903000D01*
G75*
G02*
X258841000Y-106668000I235000J0D01*
G01*
X259311000Y-106668000D01*
G75*
G02*
X259546000Y-106903000I0J-235000D01*
G01*
G37*
G36*
G01*
X260566000Y-106903000D02*
X260566000Y-107473000D01*
G75*
G02*
X260331000Y-107708000I-235000J0D01*
G01*
X259861000Y-107708000D01*
G75*
G02*
X259626000Y-107473000I0J235000D01*
G01*
X259626000Y-106903000D01*
G75*
G02*
X259861000Y-106668000I235000J0D01*
G01*
X260331000Y-106668000D01*
G75*
G02*
X260566000Y-106903000I0J-235000D01*
G01*
G37*
G04 #@! TD*
G04 #@! TO.C,R41*
G36*
G01*
X262503000Y-109440000D02*
X261753000Y-109440000D01*
G75*
G02*
X261453000Y-109140000I0J300000D01*
G01*
X261453000Y-108540000D01*
G75*
G02*
X261753000Y-108240000I300000J0D01*
G01*
X262503000Y-108240000D01*
G75*
G02*
X262803000Y-108540000I0J-300000D01*
G01*
X262803000Y-109140000D01*
G75*
G02*
X262503000Y-109440000I-300000J0D01*
G01*
G37*
G36*
G01*
X262503000Y-111090000D02*
X261753000Y-111090000D01*
G75*
G02*
X261453000Y-110790000I0J300000D01*
G01*
X261453000Y-110190000D01*
G75*
G02*
X261753000Y-109890000I300000J0D01*
G01*
X262503000Y-109890000D01*
G75*
G02*
X262803000Y-110190000I0J-300000D01*
G01*
X262803000Y-110790000D01*
G75*
G02*
X262503000Y-111090000I-300000J0D01*
G01*
G37*
G04 #@! TD*
G04 #@! TO.C,D17*
G36*
G01*
X252892000Y-115335000D02*
X254092000Y-115335000D01*
G75*
G02*
X254292000Y-115535000I0J-200000D01*
G01*
X254292000Y-116435000D01*
G75*
G02*
X254092000Y-116635000I-200000J0D01*
G01*
X252892000Y-116635000D01*
G75*
G02*
X252692000Y-116435000I0J200000D01*
G01*
X252692000Y-115535000D01*
G75*
G02*
X252892000Y-115335000I200000J0D01*
G01*
G37*
G36*
G01*
X252892000Y-112035000D02*
X254092000Y-112035000D01*
G75*
G02*
X254292000Y-112235000I0J-200000D01*
G01*
X254292000Y-113135000D01*
G75*
G02*
X254092000Y-113335000I-200000J0D01*
G01*
X252892000Y-113335000D01*
G75*
G02*
X252692000Y-113135000I0J200000D01*
G01*
X252692000Y-112235000D01*
G75*
G02*
X252892000Y-112035000I200000J0D01*
G01*
G37*
G04 #@! TD*
G04 #@! TO.C,C29*
G36*
G01*
X251730000Y-106200000D02*
X251190000Y-106200000D01*
G75*
G02*
X250950000Y-105960000I0J240000D01*
G01*
X250950000Y-105480000D01*
G75*
G02*
X251190000Y-105240000I240000J0D01*
G01*
X251730000Y-105240000D01*
G75*
G02*
X251970000Y-105480000I0J-240000D01*
G01*
X251970000Y-105960000D01*
G75*
G02*
X251730000Y-106200000I-240000J0D01*
G01*
G37*
G36*
G01*
X251730000Y-107160000D02*
X251190000Y-107160000D01*
G75*
G02*
X250950000Y-106920000I0J240000D01*
G01*
X250950000Y-106440000D01*
G75*
G02*
X251190000Y-106200000I240000J0D01*
G01*
X251730000Y-106200000D01*
G75*
G02*
X251970000Y-106440000I0J-240000D01*
G01*
X251970000Y-106920000D01*
G75*
G02*
X251730000Y-107160000I-240000J0D01*
G01*
G37*
G04 #@! TD*
G04 #@! TO.C,C28*
G36*
G01*
X253730000Y-102926955D02*
X253730000Y-105353045D01*
G75*
G02*
X253393045Y-105690000I-336955J0D01*
G01*
X252516955Y-105690000D01*
G75*
G02*
X252180000Y-105353045I0J336955D01*
G01*
X252180000Y-102926955D01*
G75*
G02*
X252516955Y-102590000I336955J0D01*
G01*
X253393045Y-102590000D01*
G75*
G02*
X253730000Y-102926955I0J-336955D01*
G01*
G37*
G36*
G01*
X256680000Y-102926955D02*
X256680000Y-105353045D01*
G75*
G02*
X256343045Y-105690000I-336955J0D01*
G01*
X255466955Y-105690000D01*
G75*
G02*
X255130000Y-105353045I0J336955D01*
G01*
X255130000Y-102926955D01*
G75*
G02*
X255466955Y-102590000I336955J0D01*
G01*
X256343045Y-102590000D01*
G75*
G02*
X256680000Y-102926955I0J-336955D01*
G01*
G37*
G04 #@! TD*
G04 #@! TO.C,C27*
G36*
G01*
X259985000Y-105353045D02*
X259985000Y-102926955D01*
G75*
G02*
X260321955Y-102590000I336955J0D01*
G01*
X261198045Y-102590000D01*
G75*
G02*
X261535000Y-102926955I0J-336955D01*
G01*
X261535000Y-105353045D01*
G75*
G02*
X261198045Y-105690000I-336955J0D01*
G01*
X260321955Y-105690000D01*
G75*
G02*
X259985000Y-105353045I0J336955D01*
G01*
G37*
G36*
G01*
X257035000Y-105353045D02*
X257035000Y-102926955D01*
G75*
G02*
X257371955Y-102590000I336955J0D01*
G01*
X258248045Y-102590000D01*
G75*
G02*
X258585000Y-102926955I0J-336955D01*
G01*
X258585000Y-105353045D01*
G75*
G02*
X258248045Y-105690000I-336955J0D01*
G01*
X257371955Y-105690000D01*
G75*
G02*
X257035000Y-105353045I0J336955D01*
G01*
G37*
G04 #@! TD*
G04 #@! TO.C,C26*
G36*
G01*
X255984000Y-118243000D02*
X255444000Y-118243000D01*
G75*
G02*
X255204000Y-118003000I0J240000D01*
G01*
X255204000Y-117523000D01*
G75*
G02*
X255444000Y-117283000I240000J0D01*
G01*
X255984000Y-117283000D01*
G75*
G02*
X256224000Y-117523000I0J-240000D01*
G01*
X256224000Y-118003000D01*
G75*
G02*
X255984000Y-118243000I-240000J0D01*
G01*
G37*
G36*
G01*
X255984000Y-119203000D02*
X255444000Y-119203000D01*
G75*
G02*
X255204000Y-118963000I0J240000D01*
G01*
X255204000Y-118483000D01*
G75*
G02*
X255444000Y-118243000I240000J0D01*
G01*
X255984000Y-118243000D01*
G75*
G02*
X256224000Y-118483000I0J-240000D01*
G01*
X256224000Y-118963000D01*
G75*
G02*
X255984000Y-119203000I-240000J0D01*
G01*
G37*
G04 #@! TD*
G04 #@! TO.C,C25*
G36*
G01*
X259616000Y-108188000D02*
X259616000Y-108728000D01*
G75*
G02*
X259376000Y-108968000I-240000J0D01*
G01*
X258896000Y-108968000D01*
G75*
G02*
X258656000Y-108728000I0J240000D01*
G01*
X258656000Y-108188000D01*
G75*
G02*
X258896000Y-107948000I240000J0D01*
G01*
X259376000Y-107948000D01*
G75*
G02*
X259616000Y-108188000I0J-240000D01*
G01*
G37*
G36*
G01*
X260576000Y-108188000D02*
X260576000Y-108728000D01*
G75*
G02*
X260336000Y-108968000I-240000J0D01*
G01*
X259856000Y-108968000D01*
G75*
G02*
X259616000Y-108728000I0J240000D01*
G01*
X259616000Y-108188000D01*
G75*
G02*
X259856000Y-107948000I240000J0D01*
G01*
X260336000Y-107948000D01*
G75*
G02*
X260576000Y-108188000I0J-240000D01*
G01*
G37*
G04 #@! TD*
G04 #@! TO.C,C21*
G36*
G01*
X259425000Y-109458000D02*
X259425000Y-109998000D01*
G75*
G02*
X259185000Y-110238000I-240000J0D01*
G01*
X258705000Y-110238000D01*
G75*
G02*
X258465000Y-109998000I0J240000D01*
G01*
X258465000Y-109458000D01*
G75*
G02*
X258705000Y-109218000I240000J0D01*
G01*
X259185000Y-109218000D01*
G75*
G02*
X259425000Y-109458000I0J-240000D01*
G01*
G37*
G36*
G01*
X260385000Y-109458000D02*
X260385000Y-109998000D01*
G75*
G02*
X260145000Y-110238000I-240000J0D01*
G01*
X259665000Y-110238000D01*
G75*
G02*
X259425000Y-109998000I0J240000D01*
G01*
X259425000Y-109458000D01*
G75*
G02*
X259665000Y-109218000I240000J0D01*
G01*
X260145000Y-109218000D01*
G75*
G02*
X260385000Y-109458000I0J-240000D01*
G01*
G37*
G04 #@! TD*
G04 #@! TO.C,C20*
G36*
G01*
X261255000Y-120939045D02*
X261255000Y-119412955D01*
G75*
G02*
X261591955Y-119076000I336955J0D01*
G01*
X262468045Y-119076000D01*
G75*
G02*
X262805000Y-119412955I0J-336955D01*
G01*
X262805000Y-120939045D01*
G75*
G02*
X262468045Y-121276000I-336955J0D01*
G01*
X261591955Y-121276000D01*
G75*
G02*
X261255000Y-120939045I0J336955D01*
G01*
G37*
G36*
G01*
X258305000Y-120939045D02*
X258305000Y-119412955D01*
G75*
G02*
X258641955Y-119076000I336955J0D01*
G01*
X259518045Y-119076000D01*
G75*
G02*
X259855000Y-119412955I0J-336955D01*
G01*
X259855000Y-120939045D01*
G75*
G02*
X259518045Y-121276000I-336955J0D01*
G01*
X258641955Y-121276000D01*
G75*
G02*
X258305000Y-120939045I0J336955D01*
G01*
G37*
G04 #@! TD*
G04 #@! TO.C,C19*
G36*
G01*
X263160000Y-117481000D02*
X262620000Y-117481000D01*
G75*
G02*
X262380000Y-117241000I0J240000D01*
G01*
X262380000Y-116761000D01*
G75*
G02*
X262620000Y-116521000I240000J0D01*
G01*
X263160000Y-116521000D01*
G75*
G02*
X263400000Y-116761000I0J-240000D01*
G01*
X263400000Y-117241000D01*
G75*
G02*
X263160000Y-117481000I-240000J0D01*
G01*
G37*
G36*
G01*
X263160000Y-118441000D02*
X262620000Y-118441000D01*
G75*
G02*
X262380000Y-118201000I0J240000D01*
G01*
X262380000Y-117721000D01*
G75*
G02*
X262620000Y-117481000I240000J0D01*
G01*
X263160000Y-117481000D01*
G75*
G02*
X263400000Y-117721000I0J-240000D01*
G01*
X263400000Y-118201000D01*
G75*
G02*
X263160000Y-118441000I-240000J0D01*
G01*
G37*
G04 #@! TD*
G04 #@! TO.C,D9*
G36*
G01*
X255795000Y-142529000D02*
X255795000Y-143729000D01*
G75*
G02*
X255595000Y-143929000I-200000J0D01*
G01*
X254695000Y-143929000D01*
G75*
G02*
X254495000Y-143729000I0J200000D01*
G01*
X254495000Y-142529000D01*
G75*
G02*
X254695000Y-142329000I200000J0D01*
G01*
X255595000Y-142329000D01*
G75*
G02*
X255795000Y-142529000I0J-200000D01*
G01*
G37*
G36*
G01*
X259095000Y-142529000D02*
X259095000Y-143729000D01*
G75*
G02*
X258895000Y-143929000I-200000J0D01*
G01*
X257995000Y-143929000D01*
G75*
G02*
X257795000Y-143729000I0J200000D01*
G01*
X257795000Y-142529000D01*
G75*
G02*
X257995000Y-142329000I200000J0D01*
G01*
X258895000Y-142329000D01*
G75*
G02*
X259095000Y-142529000I0J-200000D01*
G01*
G37*
G04 #@! TD*
G04 #@! TO.C,BT2*
G36*
G01*
X181372000Y-140388000D02*
X183372000Y-140388000D01*
G75*
G02*
X183572000Y-140588000I0J-200000D01*
G01*
X183572000Y-142288000D01*
G75*
G02*
X183372000Y-142488000I-200000J0D01*
G01*
X181372000Y-142488000D01*
G75*
G02*
X181172000Y-142288000I0J200000D01*
G01*
X181172000Y-140588000D01*
G75*
G02*
X181372000Y-140388000I200000J0D01*
G01*
G37*
D15*
X182372000Y-138938000D03*
G04 #@! TD*
G04 #@! TO.C,U12*
G36*
G01*
X194447000Y-136155000D02*
X193797000Y-136155000D01*
G75*
G02*
X193597000Y-135955000I0J200000D01*
G01*
X193597000Y-134895000D01*
G75*
G02*
X193797000Y-134695000I200000J0D01*
G01*
X194447000Y-134695000D01*
G75*
G02*
X194647000Y-134895000I0J-200000D01*
G01*
X194647000Y-135955000D01*
G75*
G02*
X194447000Y-136155000I-200000J0D01*
G01*
G37*
G36*
G01*
X196347000Y-136155000D02*
X195697000Y-136155000D01*
G75*
G02*
X195497000Y-135955000I0J200000D01*
G01*
X195497000Y-134895000D01*
G75*
G02*
X195697000Y-134695000I200000J0D01*
G01*
X196347000Y-134695000D01*
G75*
G02*
X196547000Y-134895000I0J-200000D01*
G01*
X196547000Y-135955000D01*
G75*
G02*
X196347000Y-136155000I-200000J0D01*
G01*
G37*
G36*
G01*
X196347000Y-138355000D02*
X195697000Y-138355000D01*
G75*
G02*
X195497000Y-138155000I0J200000D01*
G01*
X195497000Y-137095000D01*
G75*
G02*
X195697000Y-136895000I200000J0D01*
G01*
X196347000Y-136895000D01*
G75*
G02*
X196547000Y-137095000I0J-200000D01*
G01*
X196547000Y-138155000D01*
G75*
G02*
X196347000Y-138355000I-200000J0D01*
G01*
G37*
G36*
G01*
X195397000Y-138355000D02*
X194747000Y-138355000D01*
G75*
G02*
X194547000Y-138155000I0J200000D01*
G01*
X194547000Y-137095000D01*
G75*
G02*
X194747000Y-136895000I200000J0D01*
G01*
X195397000Y-136895000D01*
G75*
G02*
X195597000Y-137095000I0J-200000D01*
G01*
X195597000Y-138155000D01*
G75*
G02*
X195397000Y-138355000I-200000J0D01*
G01*
G37*
G36*
G01*
X194447000Y-138355000D02*
X193797000Y-138355000D01*
G75*
G02*
X193597000Y-138155000I0J200000D01*
G01*
X193597000Y-137095000D01*
G75*
G02*
X193797000Y-136895000I200000J0D01*
G01*
X194447000Y-136895000D01*
G75*
G02*
X194647000Y-137095000I0J-200000D01*
G01*
X194647000Y-138155000D01*
G75*
G02*
X194447000Y-138355000I-200000J0D01*
G01*
G37*
G04 #@! TD*
G04 #@! TO.C,U11*
G36*
G01*
X188712000Y-140916000D02*
X189362000Y-140916000D01*
G75*
G02*
X189562000Y-141116000I0J-200000D01*
G01*
X189562000Y-142176000D01*
G75*
G02*
X189362000Y-142376000I-200000J0D01*
G01*
X188712000Y-142376000D01*
G75*
G02*
X188512000Y-142176000I0J200000D01*
G01*
X188512000Y-141116000D01*
G75*
G02*
X188712000Y-140916000I200000J0D01*
G01*
G37*
G36*
G01*
X186812000Y-140916000D02*
X187462000Y-140916000D01*
G75*
G02*
X187662000Y-141116000I0J-200000D01*
G01*
X187662000Y-142176000D01*
G75*
G02*
X187462000Y-142376000I-200000J0D01*
G01*
X186812000Y-142376000D01*
G75*
G02*
X186612000Y-142176000I0J200000D01*
G01*
X186612000Y-141116000D01*
G75*
G02*
X186812000Y-140916000I200000J0D01*
G01*
G37*
G36*
G01*
X186812000Y-138716000D02*
X187462000Y-138716000D01*
G75*
G02*
X187662000Y-138916000I0J-200000D01*
G01*
X187662000Y-139976000D01*
G75*
G02*
X187462000Y-140176000I-200000J0D01*
G01*
X186812000Y-140176000D01*
G75*
G02*
X186612000Y-139976000I0J200000D01*
G01*
X186612000Y-138916000D01*
G75*
G02*
X186812000Y-138716000I200000J0D01*
G01*
G37*
G36*
G01*
X187762000Y-138716000D02*
X188412000Y-138716000D01*
G75*
G02*
X188612000Y-138916000I0J-200000D01*
G01*
X188612000Y-139976000D01*
G75*
G02*
X188412000Y-140176000I-200000J0D01*
G01*
X187762000Y-140176000D01*
G75*
G02*
X187562000Y-139976000I0J200000D01*
G01*
X187562000Y-138916000D01*
G75*
G02*
X187762000Y-138716000I200000J0D01*
G01*
G37*
G36*
G01*
X188712000Y-138716000D02*
X189362000Y-138716000D01*
G75*
G02*
X189562000Y-138916000I0J-200000D01*
G01*
X189562000Y-139976000D01*
G75*
G02*
X189362000Y-140176000I-200000J0D01*
G01*
X188712000Y-140176000D01*
G75*
G02*
X188512000Y-139976000I0J200000D01*
G01*
X188512000Y-138916000D01*
G75*
G02*
X188712000Y-138716000I200000J0D01*
G01*
G37*
G04 #@! TD*
G04 #@! TO.C,R39*
G36*
G01*
X194475000Y-131730000D02*
X194475000Y-131160000D01*
G75*
G02*
X194710000Y-130925000I235000J0D01*
G01*
X195180000Y-130925000D01*
G75*
G02*
X195415000Y-131160000I0J-235000D01*
G01*
X195415000Y-131730000D01*
G75*
G02*
X195180000Y-131965000I-235000J0D01*
G01*
X194710000Y-131965000D01*
G75*
G02*
X194475000Y-131730000I0J235000D01*
G01*
G37*
G36*
G01*
X193455000Y-131730000D02*
X193455000Y-131160000D01*
G75*
G02*
X193690000Y-130925000I235000J0D01*
G01*
X194160000Y-130925000D01*
G75*
G02*
X194395000Y-131160000I0J-235000D01*
G01*
X194395000Y-131730000D01*
G75*
G02*
X194160000Y-131965000I-235000J0D01*
G01*
X193690000Y-131965000D01*
G75*
G02*
X193455000Y-131730000I0J235000D01*
G01*
G37*
G04 #@! TD*
G04 #@! TO.C,R38*
G36*
G01*
X194399000Y-132430000D02*
X194399000Y-133000000D01*
G75*
G02*
X194164000Y-133235000I-235000J0D01*
G01*
X193694000Y-133235000D01*
G75*
G02*
X193459000Y-133000000I0J235000D01*
G01*
X193459000Y-132430000D01*
G75*
G02*
X193694000Y-132195000I235000J0D01*
G01*
X194164000Y-132195000D01*
G75*
G02*
X194399000Y-132430000I0J-235000D01*
G01*
G37*
G36*
G01*
X195419000Y-132430000D02*
X195419000Y-133000000D01*
G75*
G02*
X195184000Y-133235000I-235000J0D01*
G01*
X194714000Y-133235000D01*
G75*
G02*
X194479000Y-133000000I0J235000D01*
G01*
X194479000Y-132430000D01*
G75*
G02*
X194714000Y-132195000I235000J0D01*
G01*
X195184000Y-132195000D01*
G75*
G02*
X195419000Y-132430000I0J-235000D01*
G01*
G37*
G04 #@! TD*
G04 #@! TO.C,R37*
G36*
G01*
X195110000Y-139604000D02*
X195110000Y-139034000D01*
G75*
G02*
X195345000Y-138799000I235000J0D01*
G01*
X195815000Y-138799000D01*
G75*
G02*
X196050000Y-139034000I0J-235000D01*
G01*
X196050000Y-139604000D01*
G75*
G02*
X195815000Y-139839000I-235000J0D01*
G01*
X195345000Y-139839000D01*
G75*
G02*
X195110000Y-139604000I0J235000D01*
G01*
G37*
G36*
G01*
X194090000Y-139604000D02*
X194090000Y-139034000D01*
G75*
G02*
X194325000Y-138799000I235000J0D01*
G01*
X194795000Y-138799000D01*
G75*
G02*
X195030000Y-139034000I0J-235000D01*
G01*
X195030000Y-139604000D01*
G75*
G02*
X194795000Y-139839000I-235000J0D01*
G01*
X194325000Y-139839000D01*
G75*
G02*
X194090000Y-139604000I0J235000D01*
G01*
G37*
G04 #@! TD*
G04 #@! TO.C,R36*
G36*
G01*
X196565000Y-139869000D02*
X197135000Y-139869000D01*
G75*
G02*
X197370000Y-140104000I0J-235000D01*
G01*
X197370000Y-140574000D01*
G75*
G02*
X197135000Y-140809000I-235000J0D01*
G01*
X196565000Y-140809000D01*
G75*
G02*
X196330000Y-140574000I0J235000D01*
G01*
X196330000Y-140104000D01*
G75*
G02*
X196565000Y-139869000I235000J0D01*
G01*
G37*
G36*
G01*
X196565000Y-138849000D02*
X197135000Y-138849000D01*
G75*
G02*
X197370000Y-139084000I0J-235000D01*
G01*
X197370000Y-139554000D01*
G75*
G02*
X197135000Y-139789000I-235000J0D01*
G01*
X196565000Y-139789000D01*
G75*
G02*
X196330000Y-139554000I0J235000D01*
G01*
X196330000Y-139084000D01*
G75*
G02*
X196565000Y-138849000I235000J0D01*
G01*
G37*
G04 #@! TD*
G04 #@! TO.C,R35*
G36*
G01*
X195419000Y-133700000D02*
X195419000Y-134270000D01*
G75*
G02*
X195184000Y-134505000I-235000J0D01*
G01*
X194714000Y-134505000D01*
G75*
G02*
X194479000Y-134270000I0J235000D01*
G01*
X194479000Y-133700000D01*
G75*
G02*
X194714000Y-133465000I235000J0D01*
G01*
X195184000Y-133465000D01*
G75*
G02*
X195419000Y-133700000I0J-235000D01*
G01*
G37*
G36*
G01*
X194399000Y-133700000D02*
X194399000Y-134270000D01*
G75*
G02*
X194164000Y-134505000I-235000J0D01*
G01*
X193694000Y-134505000D01*
G75*
G02*
X193459000Y-134270000I0J235000D01*
G01*
X193459000Y-133700000D01*
G75*
G02*
X193694000Y-133465000I235000J0D01*
G01*
X194164000Y-133465000D01*
G75*
G02*
X194399000Y-133700000I0J-235000D01*
G01*
G37*
G04 #@! TD*
G04 #@! TO.C,R30*
G36*
G01*
X201453000Y-135848000D02*
X200883000Y-135848000D01*
G75*
G02*
X200648000Y-135613000I0J235000D01*
G01*
X200648000Y-135143000D01*
G75*
G02*
X200883000Y-134908000I235000J0D01*
G01*
X201453000Y-134908000D01*
G75*
G02*
X201688000Y-135143000I0J-235000D01*
G01*
X201688000Y-135613000D01*
G75*
G02*
X201453000Y-135848000I-235000J0D01*
G01*
G37*
G36*
G01*
X201453000Y-136868000D02*
X200883000Y-136868000D01*
G75*
G02*
X200648000Y-136633000I0J235000D01*
G01*
X200648000Y-136163000D01*
G75*
G02*
X200883000Y-135928000I235000J0D01*
G01*
X201453000Y-135928000D01*
G75*
G02*
X201688000Y-136163000I0J-235000D01*
G01*
X201688000Y-136633000D01*
G75*
G02*
X201453000Y-136868000I-235000J0D01*
G01*
G37*
G04 #@! TD*
G04 #@! TO.C,Q6*
G36*
G01*
X198421000Y-135429000D02*
X198421000Y-136229000D01*
G75*
G02*
X198221000Y-136429000I-200000J0D01*
G01*
X197321000Y-136429000D01*
G75*
G02*
X197121000Y-136229000I0J200000D01*
G01*
X197121000Y-135429000D01*
G75*
G02*
X197321000Y-135229000I200000J0D01*
G01*
X198221000Y-135229000D01*
G75*
G02*
X198421000Y-135429000I0J-200000D01*
G01*
G37*
G36*
G01*
X200421000Y-134479000D02*
X200421000Y-135279000D01*
G75*
G02*
X200221000Y-135479000I-200000J0D01*
G01*
X199321000Y-135479000D01*
G75*
G02*
X199121000Y-135279000I0J200000D01*
G01*
X199121000Y-134479000D01*
G75*
G02*
X199321000Y-134279000I200000J0D01*
G01*
X200221000Y-134279000D01*
G75*
G02*
X200421000Y-134479000I0J-200000D01*
G01*
G37*
G36*
G01*
X200421000Y-136379000D02*
X200421000Y-137179000D01*
G75*
G02*
X200221000Y-137379000I-200000J0D01*
G01*
X199321000Y-137379000D01*
G75*
G02*
X199121000Y-137179000I0J200000D01*
G01*
X199121000Y-136379000D01*
G75*
G02*
X199321000Y-136179000I200000J0D01*
G01*
X200221000Y-136179000D01*
G75*
G02*
X200421000Y-136379000I0J-200000D01*
G01*
G37*
G04 #@! TD*
G04 #@! TO.C,L2*
G36*
G01*
X190292000Y-136775000D02*
X192232000Y-136775000D01*
G75*
G02*
X192562000Y-137105000I0J-330000D01*
G01*
X192562000Y-138095000D01*
G75*
G02*
X192232000Y-138425000I-330000J0D01*
G01*
X190292000Y-138425000D01*
G75*
G02*
X189962000Y-138095000I0J330000D01*
G01*
X189962000Y-137105000D01*
G75*
G02*
X190292000Y-136775000I330000J0D01*
G01*
G37*
G36*
G01*
X190292000Y-134625000D02*
X192232000Y-134625000D01*
G75*
G02*
X192562000Y-134955000I0J-330000D01*
G01*
X192562000Y-135945000D01*
G75*
G02*
X192232000Y-136275000I-330000J0D01*
G01*
X190292000Y-136275000D01*
G75*
G02*
X189962000Y-135945000I0J330000D01*
G01*
X189962000Y-134955000D01*
G75*
G02*
X190292000Y-134625000I330000J0D01*
G01*
G37*
G04 #@! TD*
G04 #@! TO.C,D15*
G36*
G01*
X251402750Y-122931500D02*
X252115250Y-122931500D01*
G75*
G02*
X252434000Y-123250250I0J-318750D01*
G01*
X252434000Y-123887750D01*
G75*
G02*
X252115250Y-124206500I-318750J0D01*
G01*
X251402750Y-124206500D01*
G75*
G02*
X251084000Y-123887750I0J318750D01*
G01*
X251084000Y-123250250D01*
G75*
G02*
X251402750Y-122931500I318750J0D01*
G01*
G37*
G36*
G01*
X251402750Y-121356500D02*
X252115250Y-121356500D01*
G75*
G02*
X252434000Y-121675250I0J-318750D01*
G01*
X252434000Y-122312750D01*
G75*
G02*
X252115250Y-122631500I-318750J0D01*
G01*
X251402750Y-122631500D01*
G75*
G02*
X251084000Y-122312750I0J318750D01*
G01*
X251084000Y-121675250D01*
G75*
G02*
X251402750Y-121356500I318750J0D01*
G01*
G37*
G04 #@! TD*
G04 #@! TO.C,D14*
G36*
G01*
X243700000Y-132100000D02*
X242500000Y-132100000D01*
G75*
G02*
X242300000Y-131900000I0J200000D01*
G01*
X242300000Y-131000000D01*
G75*
G02*
X242500000Y-130800000I200000J0D01*
G01*
X243700000Y-130800000D01*
G75*
G02*
X243900000Y-131000000I0J-200000D01*
G01*
X243900000Y-131900000D01*
G75*
G02*
X243700000Y-132100000I-200000J0D01*
G01*
G37*
G36*
G01*
X243700000Y-135400000D02*
X242500000Y-135400000D01*
G75*
G02*
X242300000Y-135200000I0J200000D01*
G01*
X242300000Y-134300000D01*
G75*
G02*
X242500000Y-134100000I200000J0D01*
G01*
X243700000Y-134100000D01*
G75*
G02*
X243900000Y-134300000I0J-200000D01*
G01*
X243900000Y-135200000D01*
G75*
G02*
X243700000Y-135400000I-200000J0D01*
G01*
G37*
G04 #@! TD*
G04 #@! TO.C,D13*
G36*
G01*
X198663000Y-141334000D02*
X199863000Y-141334000D01*
G75*
G02*
X200063000Y-141534000I0J-200000D01*
G01*
X200063000Y-142434000D01*
G75*
G02*
X199863000Y-142634000I-200000J0D01*
G01*
X198663000Y-142634000D01*
G75*
G02*
X198463000Y-142434000I0J200000D01*
G01*
X198463000Y-141534000D01*
G75*
G02*
X198663000Y-141334000I200000J0D01*
G01*
G37*
G36*
G01*
X198663000Y-138034000D02*
X199863000Y-138034000D01*
G75*
G02*
X200063000Y-138234000I0J-200000D01*
G01*
X200063000Y-139134000D01*
G75*
G02*
X199863000Y-139334000I-200000J0D01*
G01*
X198663000Y-139334000D01*
G75*
G02*
X198463000Y-139134000I0J200000D01*
G01*
X198463000Y-138234000D01*
G75*
G02*
X198663000Y-138034000I200000J0D01*
G01*
G37*
G04 #@! TD*
G04 #@! TO.C,D7*
G36*
G01*
X192422000Y-140878000D02*
X192422000Y-142078000D01*
G75*
G02*
X192222000Y-142278000I-200000J0D01*
G01*
X191322000Y-142278000D01*
G75*
G02*
X191122000Y-142078000I0J200000D01*
G01*
X191122000Y-140878000D01*
G75*
G02*
X191322000Y-140678000I200000J0D01*
G01*
X192222000Y-140678000D01*
G75*
G02*
X192422000Y-140878000I0J-200000D01*
G01*
G37*
G36*
G01*
X195722000Y-140878000D02*
X195722000Y-142078000D01*
G75*
G02*
X195522000Y-142278000I-200000J0D01*
G01*
X194622000Y-142278000D01*
G75*
G02*
X194422000Y-142078000I0J200000D01*
G01*
X194422000Y-140878000D01*
G75*
G02*
X194622000Y-140678000I200000J0D01*
G01*
X195522000Y-140678000D01*
G75*
G02*
X195722000Y-140878000I0J-200000D01*
G01*
G37*
G04 #@! TD*
G04 #@! TO.C,C18*
G36*
G01*
X186780000Y-136630000D02*
X186780000Y-137170000D01*
G75*
G02*
X186540000Y-137410000I-240000J0D01*
G01*
X186060000Y-137410000D01*
G75*
G02*
X185820000Y-137170000I0J240000D01*
G01*
X185820000Y-136630000D01*
G75*
G02*
X186060000Y-136390000I240000J0D01*
G01*
X186540000Y-136390000D01*
G75*
G02*
X186780000Y-136630000I0J-240000D01*
G01*
G37*
G36*
G01*
X187740000Y-136630000D02*
X187740000Y-137170000D01*
G75*
G02*
X187500000Y-137410000I-240000J0D01*
G01*
X187020000Y-137410000D01*
G75*
G02*
X186780000Y-137170000I0J240000D01*
G01*
X186780000Y-136630000D01*
G75*
G02*
X187020000Y-136390000I240000J0D01*
G01*
X187500000Y-136390000D01*
G75*
G02*
X187740000Y-136630000I0J-240000D01*
G01*
G37*
G04 #@! TD*
G04 #@! TO.C,C17*
G36*
G01*
X186780000Y-137830000D02*
X186780000Y-138370000D01*
G75*
G02*
X186540000Y-138610000I-240000J0D01*
G01*
X186060000Y-138610000D01*
G75*
G02*
X185820000Y-138370000I0J240000D01*
G01*
X185820000Y-137830000D01*
G75*
G02*
X186060000Y-137590000I240000J0D01*
G01*
X186540000Y-137590000D01*
G75*
G02*
X186780000Y-137830000I0J-240000D01*
G01*
G37*
G36*
G01*
X187740000Y-137830000D02*
X187740000Y-138370000D01*
G75*
G02*
X187500000Y-138610000I-240000J0D01*
G01*
X187020000Y-138610000D01*
G75*
G02*
X186780000Y-138370000I0J240000D01*
G01*
X186780000Y-137830000D01*
G75*
G02*
X187020000Y-137590000I240000J0D01*
G01*
X187500000Y-137590000D01*
G75*
G02*
X187740000Y-137830000I0J-240000D01*
G01*
G37*
G04 #@! TD*
G04 #@! TO.C,C16*
G36*
G01*
X187551000Y-143526000D02*
X187551000Y-142986000D01*
G75*
G02*
X187791000Y-142746000I240000J0D01*
G01*
X188271000Y-142746000D01*
G75*
G02*
X188511000Y-142986000I0J-240000D01*
G01*
X188511000Y-143526000D01*
G75*
G02*
X188271000Y-143766000I-240000J0D01*
G01*
X187791000Y-143766000D01*
G75*
G02*
X187551000Y-143526000I0J240000D01*
G01*
G37*
G36*
G01*
X186591000Y-143526000D02*
X186591000Y-142986000D01*
G75*
G02*
X186831000Y-142746000I240000J0D01*
G01*
X187311000Y-142746000D01*
G75*
G02*
X187551000Y-142986000I0J-240000D01*
G01*
X187551000Y-143526000D01*
G75*
G02*
X187311000Y-143766000I-240000J0D01*
G01*
X186831000Y-143766000D01*
G75*
G02*
X186591000Y-143526000I0J240000D01*
G01*
G37*
G04 #@! TD*
D16*
G04 #@! TO.C,MH4*
X183500000Y-98500000D03*
G04 #@! TD*
G04 #@! TO.C,MH3*
X242500000Y-147500000D03*
G04 #@! TD*
G04 #@! TO.C,MH2*
X183500000Y-147500000D03*
G04 #@! TD*
G04 #@! TO.C,MH1*
X241500000Y-98500000D03*
G04 #@! TD*
G04 #@! TO.C,U10*
G36*
G01*
X238533000Y-121779000D02*
X238533000Y-122029000D01*
G75*
G02*
X238333000Y-122229000I-200000J0D01*
G01*
X237233000Y-122229000D01*
G75*
G02*
X237033000Y-122029000I0J200000D01*
G01*
X237033000Y-121779000D01*
G75*
G02*
X237233000Y-121579000I200000J0D01*
G01*
X238333000Y-121579000D01*
G75*
G02*
X238533000Y-121779000I0J-200000D01*
G01*
G37*
G36*
G01*
X238533000Y-121279000D02*
X238533000Y-121529000D01*
G75*
G02*
X238333000Y-121729000I-200000J0D01*
G01*
X237233000Y-121729000D01*
G75*
G02*
X237033000Y-121529000I0J200000D01*
G01*
X237033000Y-121279000D01*
G75*
G02*
X237233000Y-121079000I200000J0D01*
G01*
X238333000Y-121079000D01*
G75*
G02*
X238533000Y-121279000I0J-200000D01*
G01*
G37*
G36*
G01*
X238533000Y-120779000D02*
X238533000Y-121029000D01*
G75*
G02*
X238333000Y-121229000I-200000J0D01*
G01*
X237233000Y-121229000D01*
G75*
G02*
X237033000Y-121029000I0J200000D01*
G01*
X237033000Y-120779000D01*
G75*
G02*
X237233000Y-120579000I200000J0D01*
G01*
X238333000Y-120579000D01*
G75*
G02*
X238533000Y-120779000I0J-200000D01*
G01*
G37*
G36*
G01*
X238533000Y-120279000D02*
X238533000Y-120529000D01*
G75*
G02*
X238333000Y-120729000I-200000J0D01*
G01*
X237233000Y-120729000D01*
G75*
G02*
X237033000Y-120529000I0J200000D01*
G01*
X237033000Y-120279000D01*
G75*
G02*
X237233000Y-120079000I200000J0D01*
G01*
X238333000Y-120079000D01*
G75*
G02*
X238533000Y-120279000I0J-200000D01*
G01*
G37*
G36*
G01*
X238533000Y-119779000D02*
X238533000Y-120029000D01*
G75*
G02*
X238333000Y-120229000I-200000J0D01*
G01*
X237233000Y-120229000D01*
G75*
G02*
X237033000Y-120029000I0J200000D01*
G01*
X237033000Y-119779000D01*
G75*
G02*
X237233000Y-119579000I200000J0D01*
G01*
X238333000Y-119579000D01*
G75*
G02*
X238533000Y-119779000I0J-200000D01*
G01*
G37*
G36*
G01*
X242833000Y-119779000D02*
X242833000Y-120029000D01*
G75*
G02*
X242633000Y-120229000I-200000J0D01*
G01*
X241533000Y-120229000D01*
G75*
G02*
X241333000Y-120029000I0J200000D01*
G01*
X241333000Y-119779000D01*
G75*
G02*
X241533000Y-119579000I200000J0D01*
G01*
X242633000Y-119579000D01*
G75*
G02*
X242833000Y-119779000I0J-200000D01*
G01*
G37*
G36*
G01*
X242833000Y-120279000D02*
X242833000Y-120529000D01*
G75*
G02*
X242633000Y-120729000I-200000J0D01*
G01*
X241533000Y-120729000D01*
G75*
G02*
X241333000Y-120529000I0J200000D01*
G01*
X241333000Y-120279000D01*
G75*
G02*
X241533000Y-120079000I200000J0D01*
G01*
X242633000Y-120079000D01*
G75*
G02*
X242833000Y-120279000I0J-200000D01*
G01*
G37*
G36*
G01*
X242833000Y-120779000D02*
X242833000Y-121029000D01*
G75*
G02*
X242633000Y-121229000I-200000J0D01*
G01*
X241533000Y-121229000D01*
G75*
G02*
X241333000Y-121029000I0J200000D01*
G01*
X241333000Y-120779000D01*
G75*
G02*
X241533000Y-120579000I200000J0D01*
G01*
X242633000Y-120579000D01*
G75*
G02*
X242833000Y-120779000I0J-200000D01*
G01*
G37*
G36*
G01*
X242833000Y-121279000D02*
X242833000Y-121529000D01*
G75*
G02*
X242633000Y-121729000I-200000J0D01*
G01*
X241533000Y-121729000D01*
G75*
G02*
X241333000Y-121529000I0J200000D01*
G01*
X241333000Y-121279000D01*
G75*
G02*
X241533000Y-121079000I200000J0D01*
G01*
X242633000Y-121079000D01*
G75*
G02*
X242833000Y-121279000I0J-200000D01*
G01*
G37*
G36*
G01*
X242833000Y-121779000D02*
X242833000Y-122029000D01*
G75*
G02*
X242633000Y-122229000I-200000J0D01*
G01*
X241533000Y-122229000D01*
G75*
G02*
X241333000Y-122029000I0J200000D01*
G01*
X241333000Y-121779000D01*
G75*
G02*
X241533000Y-121579000I200000J0D01*
G01*
X242633000Y-121579000D01*
G75*
G02*
X242833000Y-121779000I0J-200000D01*
G01*
G37*
G04 #@! TD*
D17*
G04 #@! TO.C,J3*
X236632600Y-97232300D03*
X236632600Y-99772300D03*
X234092600Y-97232300D03*
X234092600Y-99772300D03*
X231552600Y-97232300D03*
X231552600Y-99772300D03*
X229012600Y-97232300D03*
X229012600Y-99772300D03*
X226472600Y-97232300D03*
X226472600Y-99772300D03*
X223932600Y-97232300D03*
X223932600Y-99772300D03*
X221392600Y-97232300D03*
X221392600Y-99772300D03*
X218852600Y-97232300D03*
X218852600Y-99772300D03*
X216312600Y-97232300D03*
X216312600Y-99772300D03*
X213772600Y-97232300D03*
X213772600Y-99772300D03*
X211232600Y-97232300D03*
X211232600Y-99772300D03*
X208692600Y-97232300D03*
X208692600Y-99772300D03*
X206152600Y-97232300D03*
X206152600Y-99772300D03*
X203612600Y-97232300D03*
X203612600Y-99772300D03*
X201072600Y-97232300D03*
X201072600Y-99772300D03*
X198532600Y-97232300D03*
X198532600Y-99772300D03*
X195992600Y-97232300D03*
X195992600Y-99772300D03*
X193452600Y-97232300D03*
X193452600Y-99772300D03*
X190912600Y-97232300D03*
X190912600Y-99772300D03*
X188372600Y-97232300D03*
G36*
G01*
X189222600Y-100822300D02*
X187522600Y-100822300D01*
G75*
G02*
X187322600Y-100622300I0J200000D01*
G01*
X187322600Y-98922300D01*
G75*
G02*
X187522600Y-98722300I200000J0D01*
G01*
X189222600Y-98722300D01*
G75*
G02*
X189422600Y-98922300I0J-200000D01*
G01*
X189422600Y-100622300D01*
G75*
G02*
X189222600Y-100822300I-200000J0D01*
G01*
G37*
G04 #@! TD*
G04 #@! TO.C,D12*
G36*
G01*
X180496000Y-132377000D02*
X180496000Y-131377000D01*
G75*
G02*
X180696000Y-131177000I200000J0D01*
G01*
X182196000Y-131177000D01*
G75*
G02*
X182396000Y-131377000I0J-200000D01*
G01*
X182396000Y-132377000D01*
G75*
G02*
X182196000Y-132577000I-200000J0D01*
G01*
X180696000Y-132577000D01*
G75*
G02*
X180496000Y-132377000I0J200000D01*
G01*
G37*
G36*
G01*
X180496000Y-135577000D02*
X180496000Y-134577000D01*
G75*
G02*
X180696000Y-134377000I200000J0D01*
G01*
X182196000Y-134377000D01*
G75*
G02*
X182396000Y-134577000I0J-200000D01*
G01*
X182396000Y-135577000D01*
G75*
G02*
X182196000Y-135777000I-200000J0D01*
G01*
X180696000Y-135777000D01*
G75*
G02*
X180496000Y-135577000I0J200000D01*
G01*
G37*
G36*
G01*
X185396000Y-132377000D02*
X185396000Y-131377000D01*
G75*
G02*
X185596000Y-131177000I200000J0D01*
G01*
X187096000Y-131177000D01*
G75*
G02*
X187296000Y-131377000I0J-200000D01*
G01*
X187296000Y-132377000D01*
G75*
G02*
X187096000Y-132577000I-200000J0D01*
G01*
X185596000Y-132577000D01*
G75*
G02*
X185396000Y-132377000I0J200000D01*
G01*
G37*
G36*
G01*
X185396000Y-135577000D02*
X185396000Y-134577000D01*
G75*
G02*
X185596000Y-134377000I200000J0D01*
G01*
X187096000Y-134377000D01*
G75*
G02*
X187296000Y-134577000I0J-200000D01*
G01*
X187296000Y-135577000D01*
G75*
G02*
X187096000Y-135777000I-200000J0D01*
G01*
X185596000Y-135777000D01*
G75*
G02*
X185396000Y-135577000I0J200000D01*
G01*
G37*
G04 #@! TD*
G04 #@! TO.C,C15*
G36*
G01*
X235500000Y-121130000D02*
X235500000Y-121670000D01*
G75*
G02*
X235260000Y-121910000I-240000J0D01*
G01*
X234780000Y-121910000D01*
G75*
G02*
X234540000Y-121670000I0J240000D01*
G01*
X234540000Y-121130000D01*
G75*
G02*
X234780000Y-120890000I240000J0D01*
G01*
X235260000Y-120890000D01*
G75*
G02*
X235500000Y-121130000I0J-240000D01*
G01*
G37*
G36*
G01*
X236460000Y-121130000D02*
X236460000Y-121670000D01*
G75*
G02*
X236220000Y-121910000I-240000J0D01*
G01*
X235740000Y-121910000D01*
G75*
G02*
X235500000Y-121670000I0J240000D01*
G01*
X235500000Y-121130000D01*
G75*
G02*
X235740000Y-120890000I240000J0D01*
G01*
X236220000Y-120890000D01*
G75*
G02*
X236460000Y-121130000I0J-240000D01*
G01*
G37*
G04 #@! TD*
G04 #@! TO.C,R23*
G36*
G01*
X234940000Y-104735000D02*
X234940000Y-104165000D01*
G75*
G02*
X235175000Y-103930000I235000J0D01*
G01*
X235645000Y-103930000D01*
G75*
G02*
X235880000Y-104165000I0J-235000D01*
G01*
X235880000Y-104735000D01*
G75*
G02*
X235645000Y-104970000I-235000J0D01*
G01*
X235175000Y-104970000D01*
G75*
G02*
X234940000Y-104735000I0J235000D01*
G01*
G37*
G36*
G01*
X233920000Y-104735000D02*
X233920000Y-104165000D01*
G75*
G02*
X234155000Y-103930000I235000J0D01*
G01*
X234625000Y-103930000D01*
G75*
G02*
X234860000Y-104165000I0J-235000D01*
G01*
X234860000Y-104735000D01*
G75*
G02*
X234625000Y-104970000I-235000J0D01*
G01*
X234155000Y-104970000D01*
G75*
G02*
X233920000Y-104735000I0J235000D01*
G01*
G37*
G04 #@! TD*
G04 #@! TO.C,R10*
G36*
G01*
X236685000Y-116802000D02*
X236115000Y-116802000D01*
G75*
G02*
X235880000Y-116567000I0J235000D01*
G01*
X235880000Y-116097000D01*
G75*
G02*
X236115000Y-115862000I235000J0D01*
G01*
X236685000Y-115862000D01*
G75*
G02*
X236920000Y-116097000I0J-235000D01*
G01*
X236920000Y-116567000D01*
G75*
G02*
X236685000Y-116802000I-235000J0D01*
G01*
G37*
G36*
G01*
X236685000Y-117822000D02*
X236115000Y-117822000D01*
G75*
G02*
X235880000Y-117587000I0J235000D01*
G01*
X235880000Y-117117000D01*
G75*
G02*
X236115000Y-116882000I235000J0D01*
G01*
X236685000Y-116882000D01*
G75*
G02*
X236920000Y-117117000I0J-235000D01*
G01*
X236920000Y-117587000D01*
G75*
G02*
X236685000Y-117822000I-235000J0D01*
G01*
G37*
G04 #@! TD*
G04 #@! TO.C,R33*
G36*
G01*
X227984000Y-130603000D02*
X227984000Y-130033000D01*
G75*
G02*
X228219000Y-129798000I235000J0D01*
G01*
X228689000Y-129798000D01*
G75*
G02*
X228924000Y-130033000I0J-235000D01*
G01*
X228924000Y-130603000D01*
G75*
G02*
X228689000Y-130838000I-235000J0D01*
G01*
X228219000Y-130838000D01*
G75*
G02*
X227984000Y-130603000I0J235000D01*
G01*
G37*
G36*
G01*
X226964000Y-130603000D02*
X226964000Y-130033000D01*
G75*
G02*
X227199000Y-129798000I235000J0D01*
G01*
X227669000Y-129798000D01*
G75*
G02*
X227904000Y-130033000I0J-235000D01*
G01*
X227904000Y-130603000D01*
G75*
G02*
X227669000Y-130838000I-235000J0D01*
G01*
X227199000Y-130838000D01*
G75*
G02*
X226964000Y-130603000I0J235000D01*
G01*
G37*
G04 #@! TD*
G04 #@! TO.C,D2*
G36*
G01*
X201203000Y-141334000D02*
X202403000Y-141334000D01*
G75*
G02*
X202603000Y-141534000I0J-200000D01*
G01*
X202603000Y-142434000D01*
G75*
G02*
X202403000Y-142634000I-200000J0D01*
G01*
X201203000Y-142634000D01*
G75*
G02*
X201003000Y-142434000I0J200000D01*
G01*
X201003000Y-141534000D01*
G75*
G02*
X201203000Y-141334000I200000J0D01*
G01*
G37*
G36*
G01*
X201203000Y-138034000D02*
X202403000Y-138034000D01*
G75*
G02*
X202603000Y-138234000I0J-200000D01*
G01*
X202603000Y-139134000D01*
G75*
G02*
X202403000Y-139334000I-200000J0D01*
G01*
X201203000Y-139334000D01*
G75*
G02*
X201003000Y-139134000I0J200000D01*
G01*
X201003000Y-138234000D01*
G75*
G02*
X201203000Y-138034000I200000J0D01*
G01*
G37*
G04 #@! TD*
G04 #@! TO.C,U9*
G36*
G01*
X240979000Y-107438000D02*
X240979000Y-106938000D01*
G75*
G02*
X241229000Y-106688000I250000J0D01*
G01*
X243079000Y-106688000D01*
G75*
G02*
X243329000Y-106938000I0J-250000D01*
G01*
X243329000Y-107438000D01*
G75*
G02*
X243079000Y-107688000I-250000J0D01*
G01*
X241229000Y-107688000D01*
G75*
G02*
X240979000Y-107438000I0J250000D01*
G01*
G37*
G36*
G01*
X240979000Y-108708000D02*
X240979000Y-108208000D01*
G75*
G02*
X241229000Y-107958000I250000J0D01*
G01*
X243079000Y-107958000D01*
G75*
G02*
X243329000Y-108208000I0J-250000D01*
G01*
X243329000Y-108708000D01*
G75*
G02*
X243079000Y-108958000I-250000J0D01*
G01*
X241229000Y-108958000D01*
G75*
G02*
X240979000Y-108708000I0J250000D01*
G01*
G37*
G36*
G01*
X240979000Y-109978000D02*
X240979000Y-109478000D01*
G75*
G02*
X241229000Y-109228000I250000J0D01*
G01*
X243079000Y-109228000D01*
G75*
G02*
X243329000Y-109478000I0J-250000D01*
G01*
X243329000Y-109978000D01*
G75*
G02*
X243079000Y-110228000I-250000J0D01*
G01*
X241229000Y-110228000D01*
G75*
G02*
X240979000Y-109978000I0J250000D01*
G01*
G37*
G36*
G01*
X240979000Y-111248000D02*
X240979000Y-110748000D01*
G75*
G02*
X241229000Y-110498000I250000J0D01*
G01*
X243079000Y-110498000D01*
G75*
G02*
X243329000Y-110748000I0J-250000D01*
G01*
X243329000Y-111248000D01*
G75*
G02*
X243079000Y-111498000I-250000J0D01*
G01*
X241229000Y-111498000D01*
G75*
G02*
X240979000Y-111248000I0J250000D01*
G01*
G37*
G36*
G01*
X240979000Y-112518000D02*
X240979000Y-112018000D01*
G75*
G02*
X241229000Y-111768000I250000J0D01*
G01*
X243079000Y-111768000D01*
G75*
G02*
X243329000Y-112018000I0J-250000D01*
G01*
X243329000Y-112518000D01*
G75*
G02*
X243079000Y-112768000I-250000J0D01*
G01*
X241229000Y-112768000D01*
G75*
G02*
X240979000Y-112518000I0J250000D01*
G01*
G37*
G36*
G01*
X240979000Y-113788000D02*
X240979000Y-113288000D01*
G75*
G02*
X241229000Y-113038000I250000J0D01*
G01*
X243079000Y-113038000D01*
G75*
G02*
X243329000Y-113288000I0J-250000D01*
G01*
X243329000Y-113788000D01*
G75*
G02*
X243079000Y-114038000I-250000J0D01*
G01*
X241229000Y-114038000D01*
G75*
G02*
X240979000Y-113788000I0J250000D01*
G01*
G37*
G36*
G01*
X240979000Y-115058000D02*
X240979000Y-114558000D01*
G75*
G02*
X241229000Y-114308000I250000J0D01*
G01*
X243079000Y-114308000D01*
G75*
G02*
X243329000Y-114558000I0J-250000D01*
G01*
X243329000Y-115058000D01*
G75*
G02*
X243079000Y-115308000I-250000J0D01*
G01*
X241229000Y-115308000D01*
G75*
G02*
X240979000Y-115058000I0J250000D01*
G01*
G37*
G36*
G01*
X236029000Y-115058000D02*
X236029000Y-114558000D01*
G75*
G02*
X236279000Y-114308000I250000J0D01*
G01*
X238129000Y-114308000D01*
G75*
G02*
X238379000Y-114558000I0J-250000D01*
G01*
X238379000Y-115058000D01*
G75*
G02*
X238129000Y-115308000I-250000J0D01*
G01*
X236279000Y-115308000D01*
G75*
G02*
X236029000Y-115058000I0J250000D01*
G01*
G37*
G36*
G01*
X236029000Y-113788000D02*
X236029000Y-113288000D01*
G75*
G02*
X236279000Y-113038000I250000J0D01*
G01*
X238129000Y-113038000D01*
G75*
G02*
X238379000Y-113288000I0J-250000D01*
G01*
X238379000Y-113788000D01*
G75*
G02*
X238129000Y-114038000I-250000J0D01*
G01*
X236279000Y-114038000D01*
G75*
G02*
X236029000Y-113788000I0J250000D01*
G01*
G37*
G36*
G01*
X236029000Y-112518000D02*
X236029000Y-112018000D01*
G75*
G02*
X236279000Y-111768000I250000J0D01*
G01*
X238129000Y-111768000D01*
G75*
G02*
X238379000Y-112018000I0J-250000D01*
G01*
X238379000Y-112518000D01*
G75*
G02*
X238129000Y-112768000I-250000J0D01*
G01*
X236279000Y-112768000D01*
G75*
G02*
X236029000Y-112518000I0J250000D01*
G01*
G37*
G36*
G01*
X236029000Y-111248000D02*
X236029000Y-110748000D01*
G75*
G02*
X236279000Y-110498000I250000J0D01*
G01*
X238129000Y-110498000D01*
G75*
G02*
X238379000Y-110748000I0J-250000D01*
G01*
X238379000Y-111248000D01*
G75*
G02*
X238129000Y-111498000I-250000J0D01*
G01*
X236279000Y-111498000D01*
G75*
G02*
X236029000Y-111248000I0J250000D01*
G01*
G37*
G36*
G01*
X236029000Y-109978000D02*
X236029000Y-109478000D01*
G75*
G02*
X236279000Y-109228000I250000J0D01*
G01*
X238129000Y-109228000D01*
G75*
G02*
X238379000Y-109478000I0J-250000D01*
G01*
X238379000Y-109978000D01*
G75*
G02*
X238129000Y-110228000I-250000J0D01*
G01*
X236279000Y-110228000D01*
G75*
G02*
X236029000Y-109978000I0J250000D01*
G01*
G37*
G36*
G01*
X236029000Y-108708000D02*
X236029000Y-108208000D01*
G75*
G02*
X236279000Y-107958000I250000J0D01*
G01*
X238129000Y-107958000D01*
G75*
G02*
X238379000Y-108208000I0J-250000D01*
G01*
X238379000Y-108708000D01*
G75*
G02*
X238129000Y-108958000I-250000J0D01*
G01*
X236279000Y-108958000D01*
G75*
G02*
X236029000Y-108708000I0J250000D01*
G01*
G37*
G36*
G01*
X236029000Y-107438000D02*
X236029000Y-106938000D01*
G75*
G02*
X236279000Y-106688000I250000J0D01*
G01*
X238129000Y-106688000D01*
G75*
G02*
X238379000Y-106938000I0J-250000D01*
G01*
X238379000Y-107438000D01*
G75*
G02*
X238129000Y-107688000I-250000J0D01*
G01*
X236279000Y-107688000D01*
G75*
G02*
X236029000Y-107438000I0J250000D01*
G01*
G37*
G04 #@! TD*
G04 #@! TO.C,R32*
G36*
G01*
X235530000Y-119392000D02*
X235530000Y-118822000D01*
G75*
G02*
X235765000Y-118587000I235000J0D01*
G01*
X236235000Y-118587000D01*
G75*
G02*
X236470000Y-118822000I0J-235000D01*
G01*
X236470000Y-119392000D01*
G75*
G02*
X236235000Y-119627000I-235000J0D01*
G01*
X235765000Y-119627000D01*
G75*
G02*
X235530000Y-119392000I0J235000D01*
G01*
G37*
G36*
G01*
X234510000Y-119392000D02*
X234510000Y-118822000D01*
G75*
G02*
X234745000Y-118587000I235000J0D01*
G01*
X235215000Y-118587000D01*
G75*
G02*
X235450000Y-118822000I0J-235000D01*
G01*
X235450000Y-119392000D01*
G75*
G02*
X235215000Y-119627000I-235000J0D01*
G01*
X234745000Y-119627000D01*
G75*
G02*
X234510000Y-119392000I0J235000D01*
G01*
G37*
G04 #@! TD*
G04 #@! TO.C,R29*
G36*
G01*
X235534000Y-120535000D02*
X235534000Y-119965000D01*
G75*
G02*
X235769000Y-119730000I235000J0D01*
G01*
X236239000Y-119730000D01*
G75*
G02*
X236474000Y-119965000I0J-235000D01*
G01*
X236474000Y-120535000D01*
G75*
G02*
X236239000Y-120770000I-235000J0D01*
G01*
X235769000Y-120770000D01*
G75*
G02*
X235534000Y-120535000I0J235000D01*
G01*
G37*
G36*
G01*
X234514000Y-120535000D02*
X234514000Y-119965000D01*
G75*
G02*
X234749000Y-119730000I235000J0D01*
G01*
X235219000Y-119730000D01*
G75*
G02*
X235454000Y-119965000I0J-235000D01*
G01*
X235454000Y-120535000D01*
G75*
G02*
X235219000Y-120770000I-235000J0D01*
G01*
X234749000Y-120770000D01*
G75*
G02*
X234514000Y-120535000I0J235000D01*
G01*
G37*
G04 #@! TD*
G04 #@! TO.C,D8*
G36*
G01*
X261355000Y-140790000D02*
X263155000Y-140790000D01*
G75*
G02*
X263355000Y-140990000I0J-200000D01*
G01*
X263355000Y-143490000D01*
G75*
G02*
X263155000Y-143690000I-200000J0D01*
G01*
X261355000Y-143690000D01*
G75*
G02*
X261155000Y-143490000I0J200000D01*
G01*
X261155000Y-140990000D01*
G75*
G02*
X261355000Y-140790000I200000J0D01*
G01*
G37*
G36*
G01*
X261355000Y-136790000D02*
X263155000Y-136790000D01*
G75*
G02*
X263355000Y-136990000I0J-200000D01*
G01*
X263355000Y-139490000D01*
G75*
G02*
X263155000Y-139690000I-200000J0D01*
G01*
X261355000Y-139690000D01*
G75*
G02*
X261155000Y-139490000I0J200000D01*
G01*
X261155000Y-136990000D01*
G75*
G02*
X261355000Y-136790000I200000J0D01*
G01*
G37*
G04 #@! TD*
G04 #@! TO.C,D1*
G36*
G01*
X258174000Y-136744000D02*
X258174000Y-135544000D01*
G75*
G02*
X258374000Y-135344000I200000J0D01*
G01*
X259274000Y-135344000D01*
G75*
G02*
X259474000Y-135544000I0J-200000D01*
G01*
X259474000Y-136744000D01*
G75*
G02*
X259274000Y-136944000I-200000J0D01*
G01*
X258374000Y-136944000D01*
G75*
G02*
X258174000Y-136744000I0J200000D01*
G01*
G37*
G36*
G01*
X254874000Y-136744000D02*
X254874000Y-135544000D01*
G75*
G02*
X255074000Y-135344000I200000J0D01*
G01*
X255974000Y-135344000D01*
G75*
G02*
X256174000Y-135544000I0J-200000D01*
G01*
X256174000Y-136744000D01*
G75*
G02*
X255974000Y-136944000I-200000J0D01*
G01*
X255074000Y-136944000D01*
G75*
G02*
X254874000Y-136744000I0J200000D01*
G01*
G37*
G04 #@! TD*
G04 #@! TO.C,U3*
G36*
G01*
X245040000Y-141236000D02*
X245040000Y-142736000D01*
G75*
G02*
X244840000Y-142936000I-200000J0D01*
G01*
X242840000Y-142936000D01*
G75*
G02*
X242640000Y-142736000I0J200000D01*
G01*
X242640000Y-141236000D01*
G75*
G02*
X242840000Y-141036000I200000J0D01*
G01*
X244840000Y-141036000D01*
G75*
G02*
X245040000Y-141236000I0J-200000D01*
G01*
G37*
G36*
G01*
X245040000Y-136636000D02*
X245040000Y-138136000D01*
G75*
G02*
X244840000Y-138336000I-200000J0D01*
G01*
X242840000Y-138336000D01*
G75*
G02*
X242640000Y-138136000I0J200000D01*
G01*
X242640000Y-136636000D01*
G75*
G02*
X242840000Y-136436000I200000J0D01*
G01*
X244840000Y-136436000D01*
G75*
G02*
X245040000Y-136636000I0J-200000D01*
G01*
G37*
G36*
G01*
X245040000Y-138936000D02*
X245040000Y-140436000D01*
G75*
G02*
X244840000Y-140636000I-200000J0D01*
G01*
X242840000Y-140636000D01*
G75*
G02*
X242640000Y-140436000I0J200000D01*
G01*
X242640000Y-138936000D01*
G75*
G02*
X242840000Y-138736000I200000J0D01*
G01*
X244840000Y-138736000D01*
G75*
G02*
X245040000Y-138936000I0J-200000D01*
G01*
G37*
G36*
G01*
X238740000Y-137786000D02*
X238740000Y-141586000D01*
G75*
G02*
X238540000Y-141786000I-200000J0D01*
G01*
X236540000Y-141786000D01*
G75*
G02*
X236340000Y-141586000I0J200000D01*
G01*
X236340000Y-137786000D01*
G75*
G02*
X236540000Y-137586000I200000J0D01*
G01*
X238540000Y-137586000D01*
G75*
G02*
X238740000Y-137786000I0J-200000D01*
G01*
G37*
G04 #@! TD*
G04 #@! TO.C,U5*
G36*
G01*
X207643000Y-138362500D02*
X207643000Y-138037500D01*
G75*
G02*
X207805500Y-137875000I162500J0D01*
G01*
X208680500Y-137875000D01*
G75*
G02*
X208843000Y-138037500I0J-162500D01*
G01*
X208843000Y-138362500D01*
G75*
G02*
X208680500Y-138525000I-162500J0D01*
G01*
X207805500Y-138525000D01*
G75*
G02*
X207643000Y-138362500I0J162500D01*
G01*
G37*
G36*
G01*
X207643000Y-138862500D02*
X207643000Y-138537500D01*
G75*
G02*
X207805500Y-138375000I162500J0D01*
G01*
X208680500Y-138375000D01*
G75*
G02*
X208843000Y-138537500I0J-162500D01*
G01*
X208843000Y-138862500D01*
G75*
G02*
X208680500Y-139025000I-162500J0D01*
G01*
X207805500Y-139025000D01*
G75*
G02*
X207643000Y-138862500I0J162500D01*
G01*
G37*
G36*
G01*
X207643000Y-139362500D02*
X207643000Y-139037500D01*
G75*
G02*
X207805500Y-138875000I162500J0D01*
G01*
X208680500Y-138875000D01*
G75*
G02*
X208843000Y-139037500I0J-162500D01*
G01*
X208843000Y-139362500D01*
G75*
G02*
X208680500Y-139525000I-162500J0D01*
G01*
X207805500Y-139525000D01*
G75*
G02*
X207643000Y-139362500I0J162500D01*
G01*
G37*
G36*
G01*
X207643000Y-139862500D02*
X207643000Y-139537500D01*
G75*
G02*
X207805500Y-139375000I162500J0D01*
G01*
X208680500Y-139375000D01*
G75*
G02*
X208843000Y-139537500I0J-162500D01*
G01*
X208843000Y-139862500D01*
G75*
G02*
X208680500Y-140025000I-162500J0D01*
G01*
X207805500Y-140025000D01*
G75*
G02*
X207643000Y-139862500I0J162500D01*
G01*
G37*
G36*
G01*
X207643000Y-140362500D02*
X207643000Y-140037500D01*
G75*
G02*
X207805500Y-139875000I162500J0D01*
G01*
X208680500Y-139875000D01*
G75*
G02*
X208843000Y-140037500I0J-162500D01*
G01*
X208843000Y-140362500D01*
G75*
G02*
X208680500Y-140525000I-162500J0D01*
G01*
X207805500Y-140525000D01*
G75*
G02*
X207643000Y-140362500I0J162500D01*
G01*
G37*
G36*
G01*
X207643000Y-140862500D02*
X207643000Y-140537500D01*
G75*
G02*
X207805500Y-140375000I162500J0D01*
G01*
X208680500Y-140375000D01*
G75*
G02*
X208843000Y-140537500I0J-162500D01*
G01*
X208843000Y-140862500D01*
G75*
G02*
X208680500Y-141025000I-162500J0D01*
G01*
X207805500Y-141025000D01*
G75*
G02*
X207643000Y-140862500I0J162500D01*
G01*
G37*
G36*
G01*
X207643000Y-141362500D02*
X207643000Y-141037500D01*
G75*
G02*
X207805500Y-140875000I162500J0D01*
G01*
X208680500Y-140875000D01*
G75*
G02*
X208843000Y-141037500I0J-162500D01*
G01*
X208843000Y-141362500D01*
G75*
G02*
X208680500Y-141525000I-162500J0D01*
G01*
X207805500Y-141525000D01*
G75*
G02*
X207643000Y-141362500I0J162500D01*
G01*
G37*
G36*
G01*
X208868000Y-142587500D02*
X208868000Y-141712500D01*
G75*
G02*
X209030500Y-141550000I162500J0D01*
G01*
X209355500Y-141550000D01*
G75*
G02*
X209518000Y-141712500I0J-162500D01*
G01*
X209518000Y-142587500D01*
G75*
G02*
X209355500Y-142750000I-162500J0D01*
G01*
X209030500Y-142750000D01*
G75*
G02*
X208868000Y-142587500I0J162500D01*
G01*
G37*
G36*
G01*
X209368000Y-142587500D02*
X209368000Y-141712500D01*
G75*
G02*
X209530500Y-141550000I162500J0D01*
G01*
X209855500Y-141550000D01*
G75*
G02*
X210018000Y-141712500I0J-162500D01*
G01*
X210018000Y-142587500D01*
G75*
G02*
X209855500Y-142750000I-162500J0D01*
G01*
X209530500Y-142750000D01*
G75*
G02*
X209368000Y-142587500I0J162500D01*
G01*
G37*
G36*
G01*
X209868000Y-142587500D02*
X209868000Y-141712500D01*
G75*
G02*
X210030500Y-141550000I162500J0D01*
G01*
X210355500Y-141550000D01*
G75*
G02*
X210518000Y-141712500I0J-162500D01*
G01*
X210518000Y-142587500D01*
G75*
G02*
X210355500Y-142750000I-162500J0D01*
G01*
X210030500Y-142750000D01*
G75*
G02*
X209868000Y-142587500I0J162500D01*
G01*
G37*
G36*
G01*
X210368000Y-142587500D02*
X210368000Y-141712500D01*
G75*
G02*
X210530500Y-141550000I162500J0D01*
G01*
X210855500Y-141550000D01*
G75*
G02*
X211018000Y-141712500I0J-162500D01*
G01*
X211018000Y-142587500D01*
G75*
G02*
X210855500Y-142750000I-162500J0D01*
G01*
X210530500Y-142750000D01*
G75*
G02*
X210368000Y-142587500I0J162500D01*
G01*
G37*
G36*
G01*
X210868000Y-142587500D02*
X210868000Y-141712500D01*
G75*
G02*
X211030500Y-141550000I162500J0D01*
G01*
X211355500Y-141550000D01*
G75*
G02*
X211518000Y-141712500I0J-162500D01*
G01*
X211518000Y-142587500D01*
G75*
G02*
X211355500Y-142750000I-162500J0D01*
G01*
X211030500Y-142750000D01*
G75*
G02*
X210868000Y-142587500I0J162500D01*
G01*
G37*
G36*
G01*
X211368000Y-142587500D02*
X211368000Y-141712500D01*
G75*
G02*
X211530500Y-141550000I162500J0D01*
G01*
X211855500Y-141550000D01*
G75*
G02*
X212018000Y-141712500I0J-162500D01*
G01*
X212018000Y-142587500D01*
G75*
G02*
X211855500Y-142750000I-162500J0D01*
G01*
X211530500Y-142750000D01*
G75*
G02*
X211368000Y-142587500I0J162500D01*
G01*
G37*
G36*
G01*
X211868000Y-142587500D02*
X211868000Y-141712500D01*
G75*
G02*
X212030500Y-141550000I162500J0D01*
G01*
X212355500Y-141550000D01*
G75*
G02*
X212518000Y-141712500I0J-162500D01*
G01*
X212518000Y-142587500D01*
G75*
G02*
X212355500Y-142750000I-162500J0D01*
G01*
X212030500Y-142750000D01*
G75*
G02*
X211868000Y-142587500I0J162500D01*
G01*
G37*
G36*
G01*
X212543000Y-141362500D02*
X212543000Y-141037500D01*
G75*
G02*
X212705500Y-140875000I162500J0D01*
G01*
X213580500Y-140875000D01*
G75*
G02*
X213743000Y-141037500I0J-162500D01*
G01*
X213743000Y-141362500D01*
G75*
G02*
X213580500Y-141525000I-162500J0D01*
G01*
X212705500Y-141525000D01*
G75*
G02*
X212543000Y-141362500I0J162500D01*
G01*
G37*
G36*
G01*
X212543000Y-140862500D02*
X212543000Y-140537500D01*
G75*
G02*
X212705500Y-140375000I162500J0D01*
G01*
X213580500Y-140375000D01*
G75*
G02*
X213743000Y-140537500I0J-162500D01*
G01*
X213743000Y-140862500D01*
G75*
G02*
X213580500Y-141025000I-162500J0D01*
G01*
X212705500Y-141025000D01*
G75*
G02*
X212543000Y-140862500I0J162500D01*
G01*
G37*
G36*
G01*
X212543000Y-140362500D02*
X212543000Y-140037500D01*
G75*
G02*
X212705500Y-139875000I162500J0D01*
G01*
X213580500Y-139875000D01*
G75*
G02*
X213743000Y-140037500I0J-162500D01*
G01*
X213743000Y-140362500D01*
G75*
G02*
X213580500Y-140525000I-162500J0D01*
G01*
X212705500Y-140525000D01*
G75*
G02*
X212543000Y-140362500I0J162500D01*
G01*
G37*
G36*
G01*
X212543000Y-139862500D02*
X212543000Y-139537500D01*
G75*
G02*
X212705500Y-139375000I162500J0D01*
G01*
X213580500Y-139375000D01*
G75*
G02*
X213743000Y-139537500I0J-162500D01*
G01*
X213743000Y-139862500D01*
G75*
G02*
X213580500Y-140025000I-162500J0D01*
G01*
X212705500Y-140025000D01*
G75*
G02*
X212543000Y-139862500I0J162500D01*
G01*
G37*
G36*
G01*
X212543000Y-139362500D02*
X212543000Y-139037500D01*
G75*
G02*
X212705500Y-138875000I162500J0D01*
G01*
X213580500Y-138875000D01*
G75*
G02*
X213743000Y-139037500I0J-162500D01*
G01*
X213743000Y-139362500D01*
G75*
G02*
X213580500Y-139525000I-162500J0D01*
G01*
X212705500Y-139525000D01*
G75*
G02*
X212543000Y-139362500I0J162500D01*
G01*
G37*
G36*
G01*
X212543000Y-138862500D02*
X212543000Y-138537500D01*
G75*
G02*
X212705500Y-138375000I162500J0D01*
G01*
X213580500Y-138375000D01*
G75*
G02*
X213743000Y-138537500I0J-162500D01*
G01*
X213743000Y-138862500D01*
G75*
G02*
X213580500Y-139025000I-162500J0D01*
G01*
X212705500Y-139025000D01*
G75*
G02*
X212543000Y-138862500I0J162500D01*
G01*
G37*
G36*
G01*
X212543000Y-138362500D02*
X212543000Y-138037500D01*
G75*
G02*
X212705500Y-137875000I162500J0D01*
G01*
X213580500Y-137875000D01*
G75*
G02*
X213743000Y-138037500I0J-162500D01*
G01*
X213743000Y-138362500D01*
G75*
G02*
X213580500Y-138525000I-162500J0D01*
G01*
X212705500Y-138525000D01*
G75*
G02*
X212543000Y-138362500I0J162500D01*
G01*
G37*
G36*
G01*
X211868000Y-137687500D02*
X211868000Y-136812500D01*
G75*
G02*
X212030500Y-136650000I162500J0D01*
G01*
X212355500Y-136650000D01*
G75*
G02*
X212518000Y-136812500I0J-162500D01*
G01*
X212518000Y-137687500D01*
G75*
G02*
X212355500Y-137850000I-162500J0D01*
G01*
X212030500Y-137850000D01*
G75*
G02*
X211868000Y-137687500I0J162500D01*
G01*
G37*
G36*
G01*
X211368000Y-137687500D02*
X211368000Y-136812500D01*
G75*
G02*
X211530500Y-136650000I162500J0D01*
G01*
X211855500Y-136650000D01*
G75*
G02*
X212018000Y-136812500I0J-162500D01*
G01*
X212018000Y-137687500D01*
G75*
G02*
X211855500Y-137850000I-162500J0D01*
G01*
X211530500Y-137850000D01*
G75*
G02*
X211368000Y-137687500I0J162500D01*
G01*
G37*
G36*
G01*
X210868000Y-137687500D02*
X210868000Y-136812500D01*
G75*
G02*
X211030500Y-136650000I162500J0D01*
G01*
X211355500Y-136650000D01*
G75*
G02*
X211518000Y-136812500I0J-162500D01*
G01*
X211518000Y-137687500D01*
G75*
G02*
X211355500Y-137850000I-162500J0D01*
G01*
X211030500Y-137850000D01*
G75*
G02*
X210868000Y-137687500I0J162500D01*
G01*
G37*
G36*
G01*
X210368000Y-137687500D02*
X210368000Y-136812500D01*
G75*
G02*
X210530500Y-136650000I162500J0D01*
G01*
X210855500Y-136650000D01*
G75*
G02*
X211018000Y-136812500I0J-162500D01*
G01*
X211018000Y-137687500D01*
G75*
G02*
X210855500Y-137850000I-162500J0D01*
G01*
X210530500Y-137850000D01*
G75*
G02*
X210368000Y-137687500I0J162500D01*
G01*
G37*
G36*
G01*
X209868000Y-137687500D02*
X209868000Y-136812500D01*
G75*
G02*
X210030500Y-136650000I162500J0D01*
G01*
X210355500Y-136650000D01*
G75*
G02*
X210518000Y-136812500I0J-162500D01*
G01*
X210518000Y-137687500D01*
G75*
G02*
X210355500Y-137850000I-162500J0D01*
G01*
X210030500Y-137850000D01*
G75*
G02*
X209868000Y-137687500I0J162500D01*
G01*
G37*
G36*
G01*
X209368000Y-137687500D02*
X209368000Y-136812500D01*
G75*
G02*
X209530500Y-136650000I162500J0D01*
G01*
X209855500Y-136650000D01*
G75*
G02*
X210018000Y-136812500I0J-162500D01*
G01*
X210018000Y-137687500D01*
G75*
G02*
X209855500Y-137850000I-162500J0D01*
G01*
X209530500Y-137850000D01*
G75*
G02*
X209368000Y-137687500I0J162500D01*
G01*
G37*
G36*
G01*
X208868000Y-137687500D02*
X208868000Y-136812500D01*
G75*
G02*
X209030500Y-136650000I162500J0D01*
G01*
X209355500Y-136650000D01*
G75*
G02*
X209518000Y-136812500I0J-162500D01*
G01*
X209518000Y-137687500D01*
G75*
G02*
X209355500Y-137850000I-162500J0D01*
G01*
X209030500Y-137850000D01*
G75*
G02*
X208868000Y-137687500I0J162500D01*
G01*
G37*
G36*
G01*
X208818000Y-141375000D02*
X208818000Y-138025000D01*
G75*
G02*
X209018000Y-137825000I200000J0D01*
G01*
X212368000Y-137825000D01*
G75*
G02*
X212568000Y-138025000I0J-200000D01*
G01*
X212568000Y-141375000D01*
G75*
G02*
X212368000Y-141575000I-200000J0D01*
G01*
X209018000Y-141575000D01*
G75*
G02*
X208818000Y-141375000I0J200000D01*
G01*
G37*
G04 #@! TD*
G04 #@! TO.C,U4*
G36*
G01*
X232922000Y-140238000D02*
X233422000Y-140238000D01*
G75*
G02*
X233672000Y-140488000I0J-250000D01*
G01*
X233672000Y-142338000D01*
G75*
G02*
X233422000Y-142588000I-250000J0D01*
G01*
X232922000Y-142588000D01*
G75*
G02*
X232672000Y-142338000I0J250000D01*
G01*
X232672000Y-140488000D01*
G75*
G02*
X232922000Y-140238000I250000J0D01*
G01*
G37*
G36*
G01*
X231652000Y-140238000D02*
X232152000Y-140238000D01*
G75*
G02*
X232402000Y-140488000I0J-250000D01*
G01*
X232402000Y-142338000D01*
G75*
G02*
X232152000Y-142588000I-250000J0D01*
G01*
X231652000Y-142588000D01*
G75*
G02*
X231402000Y-142338000I0J250000D01*
G01*
X231402000Y-140488000D01*
G75*
G02*
X231652000Y-140238000I250000J0D01*
G01*
G37*
G36*
G01*
X230382000Y-140238000D02*
X230882000Y-140238000D01*
G75*
G02*
X231132000Y-140488000I0J-250000D01*
G01*
X231132000Y-142338000D01*
G75*
G02*
X230882000Y-142588000I-250000J0D01*
G01*
X230382000Y-142588000D01*
G75*
G02*
X230132000Y-142338000I0J250000D01*
G01*
X230132000Y-140488000D01*
G75*
G02*
X230382000Y-140238000I250000J0D01*
G01*
G37*
G36*
G01*
X229112000Y-140238000D02*
X229612000Y-140238000D01*
G75*
G02*
X229862000Y-140488000I0J-250000D01*
G01*
X229862000Y-142338000D01*
G75*
G02*
X229612000Y-142588000I-250000J0D01*
G01*
X229112000Y-142588000D01*
G75*
G02*
X228862000Y-142338000I0J250000D01*
G01*
X228862000Y-140488000D01*
G75*
G02*
X229112000Y-140238000I250000J0D01*
G01*
G37*
G36*
G01*
X229112000Y-135288000D02*
X229612000Y-135288000D01*
G75*
G02*
X229862000Y-135538000I0J-250000D01*
G01*
X229862000Y-137388000D01*
G75*
G02*
X229612000Y-137638000I-250000J0D01*
G01*
X229112000Y-137638000D01*
G75*
G02*
X228862000Y-137388000I0J250000D01*
G01*
X228862000Y-135538000D01*
G75*
G02*
X229112000Y-135288000I250000J0D01*
G01*
G37*
G36*
G01*
X230382000Y-135288000D02*
X230882000Y-135288000D01*
G75*
G02*
X231132000Y-135538000I0J-250000D01*
G01*
X231132000Y-137388000D01*
G75*
G02*
X230882000Y-137638000I-250000J0D01*
G01*
X230382000Y-137638000D01*
G75*
G02*
X230132000Y-137388000I0J250000D01*
G01*
X230132000Y-135538000D01*
G75*
G02*
X230382000Y-135288000I250000J0D01*
G01*
G37*
G36*
G01*
X231652000Y-135288000D02*
X232152000Y-135288000D01*
G75*
G02*
X232402000Y-135538000I0J-250000D01*
G01*
X232402000Y-137388000D01*
G75*
G02*
X232152000Y-137638000I-250000J0D01*
G01*
X231652000Y-137638000D01*
G75*
G02*
X231402000Y-137388000I0J250000D01*
G01*
X231402000Y-135538000D01*
G75*
G02*
X231652000Y-135288000I250000J0D01*
G01*
G37*
G36*
G01*
X232922000Y-135288000D02*
X233422000Y-135288000D01*
G75*
G02*
X233672000Y-135538000I0J-250000D01*
G01*
X233672000Y-137388000D01*
G75*
G02*
X233422000Y-137638000I-250000J0D01*
G01*
X232922000Y-137638000D01*
G75*
G02*
X232672000Y-137388000I0J250000D01*
G01*
X232672000Y-135538000D01*
G75*
G02*
X232922000Y-135288000I250000J0D01*
G01*
G37*
G04 #@! TD*
G04 #@! TO.C,Q4*
G36*
G01*
X218196000Y-134930000D02*
X218196000Y-135580000D01*
G75*
G02*
X217996000Y-135780000I-200000J0D01*
G01*
X216776000Y-135780000D01*
G75*
G02*
X216576000Y-135580000I0J200000D01*
G01*
X216576000Y-134930000D01*
G75*
G02*
X216776000Y-134730000I200000J0D01*
G01*
X217996000Y-134730000D01*
G75*
G02*
X218196000Y-134930000I0J-200000D01*
G01*
G37*
G36*
G01*
X220816000Y-133980000D02*
X220816000Y-134630000D01*
G75*
G02*
X220616000Y-134830000I-200000J0D01*
G01*
X219396000Y-134830000D01*
G75*
G02*
X219196000Y-134630000I0J200000D01*
G01*
X219196000Y-133980000D01*
G75*
G02*
X219396000Y-133780000I200000J0D01*
G01*
X220616000Y-133780000D01*
G75*
G02*
X220816000Y-133980000I0J-200000D01*
G01*
G37*
G36*
G01*
X220816000Y-135880000D02*
X220816000Y-136530000D01*
G75*
G02*
X220616000Y-136730000I-200000J0D01*
G01*
X219396000Y-136730000D01*
G75*
G02*
X219196000Y-136530000I0J200000D01*
G01*
X219196000Y-135880000D01*
G75*
G02*
X219396000Y-135680000I200000J0D01*
G01*
X220616000Y-135680000D01*
G75*
G02*
X220816000Y-135880000I0J-200000D01*
G01*
G37*
G04 #@! TD*
G04 #@! TO.C,Q3*
G36*
G01*
X225681000Y-135580000D02*
X225681000Y-134930000D01*
G75*
G02*
X225881000Y-134730000I200000J0D01*
G01*
X227101000Y-134730000D01*
G75*
G02*
X227301000Y-134930000I0J-200000D01*
G01*
X227301000Y-135580000D01*
G75*
G02*
X227101000Y-135780000I-200000J0D01*
G01*
X225881000Y-135780000D01*
G75*
G02*
X225681000Y-135580000I0J200000D01*
G01*
G37*
G36*
G01*
X223061000Y-136530000D02*
X223061000Y-135880000D01*
G75*
G02*
X223261000Y-135680000I200000J0D01*
G01*
X224481000Y-135680000D01*
G75*
G02*
X224681000Y-135880000I0J-200000D01*
G01*
X224681000Y-136530000D01*
G75*
G02*
X224481000Y-136730000I-200000J0D01*
G01*
X223261000Y-136730000D01*
G75*
G02*
X223061000Y-136530000I0J200000D01*
G01*
G37*
G36*
G01*
X223061000Y-134630000D02*
X223061000Y-133980000D01*
G75*
G02*
X223261000Y-133780000I200000J0D01*
G01*
X224481000Y-133780000D01*
G75*
G02*
X224681000Y-133980000I0J-200000D01*
G01*
X224681000Y-134630000D01*
G75*
G02*
X224481000Y-134830000I-200000J0D01*
G01*
X223261000Y-134830000D01*
G75*
G02*
X223061000Y-134630000I0J200000D01*
G01*
G37*
G04 #@! TD*
G04 #@! TO.C,D4*
G36*
G01*
X200162500Y-103756250D02*
X200162500Y-103043750D01*
G75*
G02*
X200481250Y-102725000I318750J0D01*
G01*
X201118750Y-102725000D01*
G75*
G02*
X201437500Y-103043750I0J-318750D01*
G01*
X201437500Y-103756250D01*
G75*
G02*
X201118750Y-104075000I-318750J0D01*
G01*
X200481250Y-104075000D01*
G75*
G02*
X200162500Y-103756250I0J318750D01*
G01*
G37*
G36*
G01*
X198587500Y-103756250D02*
X198587500Y-103043750D01*
G75*
G02*
X198906250Y-102725000I318750J0D01*
G01*
X199543750Y-102725000D01*
G75*
G02*
X199862500Y-103043750I0J-318750D01*
G01*
X199862500Y-103756250D01*
G75*
G02*
X199543750Y-104075000I-318750J0D01*
G01*
X198906250Y-104075000D01*
G75*
G02*
X198587500Y-103756250I0J318750D01*
G01*
G37*
G04 #@! TD*
G04 #@! TO.C,D3*
G36*
G01*
X194687500Y-103706250D02*
X194687500Y-102993750D01*
G75*
G02*
X195006250Y-102675000I318750J0D01*
G01*
X195643750Y-102675000D01*
G75*
G02*
X195962500Y-102993750I0J-318750D01*
G01*
X195962500Y-103706250D01*
G75*
G02*
X195643750Y-104025000I-318750J0D01*
G01*
X195006250Y-104025000D01*
G75*
G02*
X194687500Y-103706250I0J318750D01*
G01*
G37*
G36*
G01*
X196262500Y-103706250D02*
X196262500Y-102993750D01*
G75*
G02*
X196581250Y-102675000I318750J0D01*
G01*
X197218750Y-102675000D01*
G75*
G02*
X197537500Y-102993750I0J-318750D01*
G01*
X197537500Y-103706250D01*
G75*
G02*
X197218750Y-104025000I-318750J0D01*
G01*
X196581250Y-104025000D01*
G75*
G02*
X196262500Y-103706250I0J318750D01*
G01*
G37*
G04 #@! TD*
G04 #@! TO.C,Q5*
G36*
G01*
X217734000Y-142954000D02*
X218384000Y-142954000D01*
G75*
G02*
X218584000Y-143154000I0J-200000D01*
G01*
X218584000Y-144374000D01*
G75*
G02*
X218384000Y-144574000I-200000J0D01*
G01*
X217734000Y-144574000D01*
G75*
G02*
X217534000Y-144374000I0J200000D01*
G01*
X217534000Y-143154000D01*
G75*
G02*
X217734000Y-142954000I200000J0D01*
G01*
G37*
G36*
G01*
X216784000Y-140334000D02*
X217434000Y-140334000D01*
G75*
G02*
X217634000Y-140534000I0J-200000D01*
G01*
X217634000Y-141754000D01*
G75*
G02*
X217434000Y-141954000I-200000J0D01*
G01*
X216784000Y-141954000D01*
G75*
G02*
X216584000Y-141754000I0J200000D01*
G01*
X216584000Y-140534000D01*
G75*
G02*
X216784000Y-140334000I200000J0D01*
G01*
G37*
G36*
G01*
X218684000Y-140334000D02*
X219334000Y-140334000D01*
G75*
G02*
X219534000Y-140534000I0J-200000D01*
G01*
X219534000Y-141754000D01*
G75*
G02*
X219334000Y-141954000I-200000J0D01*
G01*
X218684000Y-141954000D01*
G75*
G02*
X218484000Y-141754000I0J200000D01*
G01*
X218484000Y-140534000D01*
G75*
G02*
X218684000Y-140334000I200000J0D01*
G01*
G37*
G04 #@! TD*
G04 #@! TO.C,R31*
G36*
G01*
X214537000Y-135630000D02*
X214537000Y-134880000D01*
G75*
G02*
X214837000Y-134580000I300000J0D01*
G01*
X215437000Y-134580000D01*
G75*
G02*
X215737000Y-134880000I0J-300000D01*
G01*
X215737000Y-135630000D01*
G75*
G02*
X215437000Y-135930000I-300000J0D01*
G01*
X214837000Y-135930000D01*
G75*
G02*
X214537000Y-135630000I0J300000D01*
G01*
G37*
G36*
G01*
X212887000Y-135630000D02*
X212887000Y-134880000D01*
G75*
G02*
X213187000Y-134580000I300000J0D01*
G01*
X213787000Y-134580000D01*
G75*
G02*
X214087000Y-134880000I0J-300000D01*
G01*
X214087000Y-135630000D01*
G75*
G02*
X213787000Y-135930000I-300000J0D01*
G01*
X213187000Y-135930000D01*
G75*
G02*
X212887000Y-135630000I0J300000D01*
G01*
G37*
G04 #@! TD*
G04 #@! TO.C,R27*
G36*
G01*
X240340000Y-118185000D02*
X240340000Y-117615000D01*
G75*
G02*
X240575000Y-117380000I235000J0D01*
G01*
X241045000Y-117380000D01*
G75*
G02*
X241280000Y-117615000I0J-235000D01*
G01*
X241280000Y-118185000D01*
G75*
G02*
X241045000Y-118420000I-235000J0D01*
G01*
X240575000Y-118420000D01*
G75*
G02*
X240340000Y-118185000I0J235000D01*
G01*
G37*
G36*
G01*
X239320000Y-118185000D02*
X239320000Y-117615000D01*
G75*
G02*
X239555000Y-117380000I235000J0D01*
G01*
X240025000Y-117380000D01*
G75*
G02*
X240260000Y-117615000I0J-235000D01*
G01*
X240260000Y-118185000D01*
G75*
G02*
X240025000Y-118420000I-235000J0D01*
G01*
X239555000Y-118420000D01*
G75*
G02*
X239320000Y-118185000I0J235000D01*
G01*
G37*
G04 #@! TD*
G04 #@! TO.C,R24*
G36*
G01*
X240340000Y-116785000D02*
X240340000Y-116215000D01*
G75*
G02*
X240575000Y-115980000I235000J0D01*
G01*
X241045000Y-115980000D01*
G75*
G02*
X241280000Y-116215000I0J-235000D01*
G01*
X241280000Y-116785000D01*
G75*
G02*
X241045000Y-117020000I-235000J0D01*
G01*
X240575000Y-117020000D01*
G75*
G02*
X240340000Y-116785000I0J235000D01*
G01*
G37*
G36*
G01*
X239320000Y-116785000D02*
X239320000Y-116215000D01*
G75*
G02*
X239555000Y-115980000I235000J0D01*
G01*
X240025000Y-115980000D01*
G75*
G02*
X240260000Y-116215000I0J-235000D01*
G01*
X240260000Y-116785000D01*
G75*
G02*
X240025000Y-117020000I-235000J0D01*
G01*
X239555000Y-117020000D01*
G75*
G02*
X239320000Y-116785000I0J235000D01*
G01*
G37*
G04 #@! TD*
G04 #@! TO.C,R22*
G36*
G01*
X242866000Y-105441000D02*
X242866000Y-104871000D01*
G75*
G02*
X243101000Y-104636000I235000J0D01*
G01*
X243571000Y-104636000D01*
G75*
G02*
X243806000Y-104871000I0J-235000D01*
G01*
X243806000Y-105441000D01*
G75*
G02*
X243571000Y-105676000I-235000J0D01*
G01*
X243101000Y-105676000D01*
G75*
G02*
X242866000Y-105441000I0J235000D01*
G01*
G37*
G36*
G01*
X241846000Y-105441000D02*
X241846000Y-104871000D01*
G75*
G02*
X242081000Y-104636000I235000J0D01*
G01*
X242551000Y-104636000D01*
G75*
G02*
X242786000Y-104871000I0J-235000D01*
G01*
X242786000Y-105441000D01*
G75*
G02*
X242551000Y-105676000I-235000J0D01*
G01*
X242081000Y-105676000D01*
G75*
G02*
X241846000Y-105441000I0J235000D01*
G01*
G37*
G04 #@! TD*
G04 #@! TO.C,R21*
G36*
G01*
X221928000Y-135925000D02*
X221928000Y-136495000D01*
G75*
G02*
X221693000Y-136730000I-235000J0D01*
G01*
X221223000Y-136730000D01*
G75*
G02*
X220988000Y-136495000I0J235000D01*
G01*
X220988000Y-135925000D01*
G75*
G02*
X221223000Y-135690000I235000J0D01*
G01*
X221693000Y-135690000D01*
G75*
G02*
X221928000Y-135925000I0J-235000D01*
G01*
G37*
G36*
G01*
X222948000Y-135925000D02*
X222948000Y-136495000D01*
G75*
G02*
X222713000Y-136730000I-235000J0D01*
G01*
X222243000Y-136730000D01*
G75*
G02*
X222008000Y-136495000I0J235000D01*
G01*
X222008000Y-135925000D01*
G75*
G02*
X222243000Y-135690000I235000J0D01*
G01*
X222713000Y-135690000D01*
G75*
G02*
X222948000Y-135925000I0J-235000D01*
G01*
G37*
G04 #@! TD*
G04 #@! TO.C,R20*
G36*
G01*
X214214000Y-132594000D02*
X214214000Y-133344000D01*
G75*
G02*
X213914000Y-133644000I-300000J0D01*
G01*
X213314000Y-133644000D01*
G75*
G02*
X213014000Y-133344000I0J300000D01*
G01*
X213014000Y-132594000D01*
G75*
G02*
X213314000Y-132294000I300000J0D01*
G01*
X213914000Y-132294000D01*
G75*
G02*
X214214000Y-132594000I0J-300000D01*
G01*
G37*
G36*
G01*
X215864000Y-132594000D02*
X215864000Y-133344000D01*
G75*
G02*
X215564000Y-133644000I-300000J0D01*
G01*
X214964000Y-133644000D01*
G75*
G02*
X214664000Y-133344000I0J300000D01*
G01*
X214664000Y-132594000D01*
G75*
G02*
X214964000Y-132294000I300000J0D01*
G01*
X215564000Y-132294000D01*
G75*
G02*
X215864000Y-132594000I0J-300000D01*
G01*
G37*
G04 #@! TD*
G04 #@! TO.C,R19*
G36*
G01*
X209004000Y-143225000D02*
X209004000Y-143795000D01*
G75*
G02*
X208769000Y-144030000I-235000J0D01*
G01*
X208299000Y-144030000D01*
G75*
G02*
X208064000Y-143795000I0J235000D01*
G01*
X208064000Y-143225000D01*
G75*
G02*
X208299000Y-142990000I235000J0D01*
G01*
X208769000Y-142990000D01*
G75*
G02*
X209004000Y-143225000I0J-235000D01*
G01*
G37*
G36*
G01*
X210024000Y-143225000D02*
X210024000Y-143795000D01*
G75*
G02*
X209789000Y-144030000I-235000J0D01*
G01*
X209319000Y-144030000D01*
G75*
G02*
X209084000Y-143795000I0J235000D01*
G01*
X209084000Y-143225000D01*
G75*
G02*
X209319000Y-142990000I235000J0D01*
G01*
X209789000Y-142990000D01*
G75*
G02*
X210024000Y-143225000I0J-235000D01*
G01*
G37*
G04 #@! TD*
G04 #@! TO.C,R18*
G36*
G01*
X222008000Y-134590000D02*
X222008000Y-134020000D01*
G75*
G02*
X222243000Y-133785000I235000J0D01*
G01*
X222713000Y-133785000D01*
G75*
G02*
X222948000Y-134020000I0J-235000D01*
G01*
X222948000Y-134590000D01*
G75*
G02*
X222713000Y-134825000I-235000J0D01*
G01*
X222243000Y-134825000D01*
G75*
G02*
X222008000Y-134590000I0J235000D01*
G01*
G37*
G36*
G01*
X220988000Y-134590000D02*
X220988000Y-134020000D01*
G75*
G02*
X221223000Y-133785000I235000J0D01*
G01*
X221693000Y-133785000D01*
G75*
G02*
X221928000Y-134020000I0J-235000D01*
G01*
X221928000Y-134590000D01*
G75*
G02*
X221693000Y-134825000I-235000J0D01*
G01*
X221223000Y-134825000D01*
G75*
G02*
X220988000Y-134590000I0J235000D01*
G01*
G37*
G04 #@! TD*
G04 #@! TO.C,R16*
G36*
G01*
X193127000Y-102331000D02*
X193127000Y-102901000D01*
G75*
G02*
X192892000Y-103136000I-235000J0D01*
G01*
X192422000Y-103136000D01*
G75*
G02*
X192187000Y-102901000I0J235000D01*
G01*
X192187000Y-102331000D01*
G75*
G02*
X192422000Y-102096000I235000J0D01*
G01*
X192892000Y-102096000D01*
G75*
G02*
X193127000Y-102331000I0J-235000D01*
G01*
G37*
G36*
G01*
X194147000Y-102331000D02*
X194147000Y-102901000D01*
G75*
G02*
X193912000Y-103136000I-235000J0D01*
G01*
X193442000Y-103136000D01*
G75*
G02*
X193207000Y-102901000I0J235000D01*
G01*
X193207000Y-102331000D01*
G75*
G02*
X193442000Y-102096000I235000J0D01*
G01*
X193912000Y-102096000D01*
G75*
G02*
X194147000Y-102331000I0J-235000D01*
G01*
G37*
G04 #@! TD*
G04 #@! TO.C,R14*
G36*
G01*
X189522000Y-102901000D02*
X189522000Y-102331000D01*
G75*
G02*
X189757000Y-102096000I235000J0D01*
G01*
X190227000Y-102096000D01*
G75*
G02*
X190462000Y-102331000I0J-235000D01*
G01*
X190462000Y-102901000D01*
G75*
G02*
X190227000Y-103136000I-235000J0D01*
G01*
X189757000Y-103136000D01*
G75*
G02*
X189522000Y-102901000I0J235000D01*
G01*
G37*
G36*
G01*
X188502000Y-102901000D02*
X188502000Y-102331000D01*
G75*
G02*
X188737000Y-102096000I235000J0D01*
G01*
X189207000Y-102096000D01*
G75*
G02*
X189442000Y-102331000I0J-235000D01*
G01*
X189442000Y-102901000D01*
G75*
G02*
X189207000Y-103136000I-235000J0D01*
G01*
X188737000Y-103136000D01*
G75*
G02*
X188502000Y-102901000I0J235000D01*
G01*
G37*
G04 #@! TD*
G04 #@! TO.C,R13*
G36*
G01*
X242031000Y-117136000D02*
X242601000Y-117136000D01*
G75*
G02*
X242836000Y-117371000I0J-235000D01*
G01*
X242836000Y-117841000D01*
G75*
G02*
X242601000Y-118076000I-235000J0D01*
G01*
X242031000Y-118076000D01*
G75*
G02*
X241796000Y-117841000I0J235000D01*
G01*
X241796000Y-117371000D01*
G75*
G02*
X242031000Y-117136000I235000J0D01*
G01*
G37*
G36*
G01*
X242031000Y-116116000D02*
X242601000Y-116116000D01*
G75*
G02*
X242836000Y-116351000I0J-235000D01*
G01*
X242836000Y-116821000D01*
G75*
G02*
X242601000Y-117056000I-235000J0D01*
G01*
X242031000Y-117056000D01*
G75*
G02*
X241796000Y-116821000I0J235000D01*
G01*
X241796000Y-116351000D01*
G75*
G02*
X242031000Y-116116000I235000J0D01*
G01*
G37*
G04 #@! TD*
G04 #@! TO.C,R12*
G36*
G01*
X203619000Y-102647000D02*
X203619000Y-102077000D01*
G75*
G02*
X203854000Y-101842000I235000J0D01*
G01*
X204324000Y-101842000D01*
G75*
G02*
X204559000Y-102077000I0J-235000D01*
G01*
X204559000Y-102647000D01*
G75*
G02*
X204324000Y-102882000I-235000J0D01*
G01*
X203854000Y-102882000D01*
G75*
G02*
X203619000Y-102647000I0J235000D01*
G01*
G37*
G36*
G01*
X202599000Y-102647000D02*
X202599000Y-102077000D01*
G75*
G02*
X202834000Y-101842000I235000J0D01*
G01*
X203304000Y-101842000D01*
G75*
G02*
X203539000Y-102077000I0J-235000D01*
G01*
X203539000Y-102647000D01*
G75*
G02*
X203304000Y-102882000I-235000J0D01*
G01*
X202834000Y-102882000D01*
G75*
G02*
X202599000Y-102647000I0J235000D01*
G01*
G37*
G04 #@! TD*
G04 #@! TO.C,R11*
G36*
G01*
X221985000Y-142770000D02*
X221415000Y-142770000D01*
G75*
G02*
X221180000Y-142535000I0J235000D01*
G01*
X221180000Y-142065000D01*
G75*
G02*
X221415000Y-141830000I235000J0D01*
G01*
X221985000Y-141830000D01*
G75*
G02*
X222220000Y-142065000I0J-235000D01*
G01*
X222220000Y-142535000D01*
G75*
G02*
X221985000Y-142770000I-235000J0D01*
G01*
G37*
G36*
G01*
X221985000Y-143790000D02*
X221415000Y-143790000D01*
G75*
G02*
X221180000Y-143555000I0J235000D01*
G01*
X221180000Y-143085000D01*
G75*
G02*
X221415000Y-142850000I235000J0D01*
G01*
X221985000Y-142850000D01*
G75*
G02*
X222220000Y-143085000I0J-235000D01*
G01*
X222220000Y-143555000D01*
G75*
G02*
X221985000Y-143790000I-235000J0D01*
G01*
G37*
G04 #@! TD*
G04 #@! TO.C,R9*
G36*
G01*
X217650000Y-139215000D02*
X217650000Y-139785000D01*
G75*
G02*
X217415000Y-140020000I-235000J0D01*
G01*
X216945000Y-140020000D01*
G75*
G02*
X216710000Y-139785000I0J235000D01*
G01*
X216710000Y-139215000D01*
G75*
G02*
X216945000Y-138980000I235000J0D01*
G01*
X217415000Y-138980000D01*
G75*
G02*
X217650000Y-139215000I0J-235000D01*
G01*
G37*
G36*
G01*
X218670000Y-139215000D02*
X218670000Y-139785000D01*
G75*
G02*
X218435000Y-140020000I-235000J0D01*
G01*
X217965000Y-140020000D01*
G75*
G02*
X217730000Y-139785000I0J235000D01*
G01*
X217730000Y-139215000D01*
G75*
G02*
X217965000Y-138980000I235000J0D01*
G01*
X218435000Y-138980000D01*
G75*
G02*
X218670000Y-139215000I0J-235000D01*
G01*
G37*
G04 #@! TD*
G04 #@! TO.C,R8*
G36*
G01*
X250729000Y-131026000D02*
X250159000Y-131026000D01*
G75*
G02*
X249924000Y-130791000I0J235000D01*
G01*
X249924000Y-130321000D01*
G75*
G02*
X250159000Y-130086000I235000J0D01*
G01*
X250729000Y-130086000D01*
G75*
G02*
X250964000Y-130321000I0J-235000D01*
G01*
X250964000Y-130791000D01*
G75*
G02*
X250729000Y-131026000I-235000J0D01*
G01*
G37*
G36*
G01*
X250729000Y-132046000D02*
X250159000Y-132046000D01*
G75*
G02*
X249924000Y-131811000I0J235000D01*
G01*
X249924000Y-131341000D01*
G75*
G02*
X250159000Y-131106000I235000J0D01*
G01*
X250729000Y-131106000D01*
G75*
G02*
X250964000Y-131341000I0J-235000D01*
G01*
X250964000Y-131811000D01*
G75*
G02*
X250729000Y-132046000I-235000J0D01*
G01*
G37*
G04 #@! TD*
G04 #@! TO.C,R7*
G36*
G01*
X227085000Y-138660000D02*
X226515000Y-138660000D01*
G75*
G02*
X226280000Y-138425000I0J235000D01*
G01*
X226280000Y-137955000D01*
G75*
G02*
X226515000Y-137720000I235000J0D01*
G01*
X227085000Y-137720000D01*
G75*
G02*
X227320000Y-137955000I0J-235000D01*
G01*
X227320000Y-138425000D01*
G75*
G02*
X227085000Y-138660000I-235000J0D01*
G01*
G37*
G36*
G01*
X227085000Y-139680000D02*
X226515000Y-139680000D01*
G75*
G02*
X226280000Y-139445000I0J235000D01*
G01*
X226280000Y-138975000D01*
G75*
G02*
X226515000Y-138740000I235000J0D01*
G01*
X227085000Y-138740000D01*
G75*
G02*
X227320000Y-138975000I0J-235000D01*
G01*
X227320000Y-139445000D01*
G75*
G02*
X227085000Y-139680000I-235000J0D01*
G01*
G37*
G04 #@! TD*
G04 #@! TO.C,R6*
G36*
G01*
X252134000Y-119293000D02*
X251384000Y-119293000D01*
G75*
G02*
X251084000Y-118993000I0J300000D01*
G01*
X251084000Y-118393000D01*
G75*
G02*
X251384000Y-118093000I300000J0D01*
G01*
X252134000Y-118093000D01*
G75*
G02*
X252434000Y-118393000I0J-300000D01*
G01*
X252434000Y-118993000D01*
G75*
G02*
X252134000Y-119293000I-300000J0D01*
G01*
G37*
G36*
G01*
X252134000Y-120943000D02*
X251384000Y-120943000D01*
G75*
G02*
X251084000Y-120643000I0J300000D01*
G01*
X251084000Y-120043000D01*
G75*
G02*
X251384000Y-119743000I300000J0D01*
G01*
X252134000Y-119743000D01*
G75*
G02*
X252434000Y-120043000I0J-300000D01*
G01*
X252434000Y-120643000D01*
G75*
G02*
X252134000Y-120943000I-300000J0D01*
G01*
G37*
G04 #@! TD*
G04 #@! TO.C,R5*
G36*
G01*
X232059500Y-143592558D02*
X232059500Y-144697442D01*
G75*
G02*
X231711942Y-145045000I-347558J0D01*
G01*
X230982058Y-145045000D01*
G75*
G02*
X230634500Y-144697442I0J347558D01*
G01*
X230634500Y-143592558D01*
G75*
G02*
X230982058Y-143245000I347558J0D01*
G01*
X231711942Y-143245000D01*
G75*
G02*
X232059500Y-143592558I0J-347558D01*
G01*
G37*
G36*
G01*
X233884500Y-143592558D02*
X233884500Y-144697442D01*
G75*
G02*
X233536942Y-145045000I-347558J0D01*
G01*
X232807058Y-145045000D01*
G75*
G02*
X232459500Y-144697442I0J347558D01*
G01*
X232459500Y-143592558D01*
G75*
G02*
X232807058Y-143245000I347558J0D01*
G01*
X233536942Y-143245000D01*
G75*
G02*
X233884500Y-143592558I0J-347558D01*
G01*
G37*
G04 #@! TD*
G04 #@! TO.C,R4*
G36*
G01*
X199750000Y-104875000D02*
X199750000Y-105625000D01*
G75*
G02*
X199450000Y-105925000I-300000J0D01*
G01*
X198850000Y-105925000D01*
G75*
G02*
X198550000Y-105625000I0J300000D01*
G01*
X198550000Y-104875000D01*
G75*
G02*
X198850000Y-104575000I300000J0D01*
G01*
X199450000Y-104575000D01*
G75*
G02*
X199750000Y-104875000I0J-300000D01*
G01*
G37*
G36*
G01*
X201400000Y-104875000D02*
X201400000Y-105625000D01*
G75*
G02*
X201100000Y-105925000I-300000J0D01*
G01*
X200500000Y-105925000D01*
G75*
G02*
X200200000Y-105625000I0J300000D01*
G01*
X200200000Y-104875000D01*
G75*
G02*
X200500000Y-104575000I300000J0D01*
G01*
X201100000Y-104575000D01*
G75*
G02*
X201400000Y-104875000I0J-300000D01*
G01*
G37*
G04 #@! TD*
G04 #@! TO.C,R3*
G36*
G01*
X197500000Y-105025000D02*
X197500000Y-105775000D01*
G75*
G02*
X197200000Y-106075000I-300000J0D01*
G01*
X196600000Y-106075000D01*
G75*
G02*
X196300000Y-105775000I0J300000D01*
G01*
X196300000Y-105025000D01*
G75*
G02*
X196600000Y-104725000I300000J0D01*
G01*
X197200000Y-104725000D01*
G75*
G02*
X197500000Y-105025000I0J-300000D01*
G01*
G37*
G36*
G01*
X195850000Y-105025000D02*
X195850000Y-105775000D01*
G75*
G02*
X195550000Y-106075000I-300000J0D01*
G01*
X194950000Y-106075000D01*
G75*
G02*
X194650000Y-105775000I0J300000D01*
G01*
X194650000Y-105025000D01*
G75*
G02*
X194950000Y-104725000I300000J0D01*
G01*
X195550000Y-104725000D01*
G75*
G02*
X195850000Y-105025000I0J-300000D01*
G01*
G37*
G04 #@! TD*
G04 #@! TO.C,R2*
G36*
G01*
X252314000Y-128212000D02*
X252314000Y-128962000D01*
G75*
G02*
X252014000Y-129262000I-300000J0D01*
G01*
X251414000Y-129262000D01*
G75*
G02*
X251114000Y-128962000I0J300000D01*
G01*
X251114000Y-128212000D01*
G75*
G02*
X251414000Y-127912000I300000J0D01*
G01*
X252014000Y-127912000D01*
G75*
G02*
X252314000Y-128212000I0J-300000D01*
G01*
G37*
G36*
G01*
X253964000Y-128212000D02*
X253964000Y-128962000D01*
G75*
G02*
X253664000Y-129262000I-300000J0D01*
G01*
X253064000Y-129262000D01*
G75*
G02*
X252764000Y-128962000I0J300000D01*
G01*
X252764000Y-128212000D01*
G75*
G02*
X253064000Y-127912000I300000J0D01*
G01*
X253664000Y-127912000D01*
G75*
G02*
X253964000Y-128212000I0J-300000D01*
G01*
G37*
G04 #@! TD*
G04 #@! TO.C,R1*
G36*
G01*
X252568000Y-126117000D02*
X252568000Y-126867000D01*
G75*
G02*
X252268000Y-127167000I-300000J0D01*
G01*
X251668000Y-127167000D01*
G75*
G02*
X251368000Y-126867000I0J300000D01*
G01*
X251368000Y-126117000D01*
G75*
G02*
X251668000Y-125817000I300000J0D01*
G01*
X252268000Y-125817000D01*
G75*
G02*
X252568000Y-126117000I0J-300000D01*
G01*
G37*
G36*
G01*
X254218000Y-126117000D02*
X254218000Y-126867000D01*
G75*
G02*
X253918000Y-127167000I-300000J0D01*
G01*
X253318000Y-127167000D01*
G75*
G02*
X253018000Y-126867000I0J300000D01*
G01*
X253018000Y-126117000D01*
G75*
G02*
X253318000Y-125817000I300000J0D01*
G01*
X253918000Y-125817000D01*
G75*
G02*
X254218000Y-126117000I0J-300000D01*
G01*
G37*
G04 #@! TD*
G04 #@! TO.C,C22*
G36*
G01*
X246888000Y-137684000D02*
X246888000Y-137144000D01*
G75*
G02*
X247128000Y-136904000I240000J0D01*
G01*
X247608000Y-136904000D01*
G75*
G02*
X247848000Y-137144000I0J-240000D01*
G01*
X247848000Y-137684000D01*
G75*
G02*
X247608000Y-137924000I-240000J0D01*
G01*
X247128000Y-137924000D01*
G75*
G02*
X246888000Y-137684000I0J240000D01*
G01*
G37*
G36*
G01*
X245928000Y-137684000D02*
X245928000Y-137144000D01*
G75*
G02*
X246168000Y-136904000I240000J0D01*
G01*
X246648000Y-136904000D01*
G75*
G02*
X246888000Y-137144000I0J-240000D01*
G01*
X246888000Y-137684000D01*
G75*
G02*
X246648000Y-137924000I-240000J0D01*
G01*
X246168000Y-137924000D01*
G75*
G02*
X245928000Y-137684000I0J240000D01*
G01*
G37*
G04 #@! TD*
G04 #@! TO.C,C13*
G36*
G01*
X234807000Y-141196000D02*
X235347000Y-141196000D01*
G75*
G02*
X235587000Y-141436000I0J-240000D01*
G01*
X235587000Y-141916000D01*
G75*
G02*
X235347000Y-142156000I-240000J0D01*
G01*
X234807000Y-142156000D01*
G75*
G02*
X234567000Y-141916000I0J240000D01*
G01*
X234567000Y-141436000D01*
G75*
G02*
X234807000Y-141196000I240000J0D01*
G01*
G37*
G36*
G01*
X234807000Y-140236000D02*
X235347000Y-140236000D01*
G75*
G02*
X235587000Y-140476000I0J-240000D01*
G01*
X235587000Y-140956000D01*
G75*
G02*
X235347000Y-141196000I-240000J0D01*
G01*
X234807000Y-141196000D01*
G75*
G02*
X234567000Y-140956000I0J240000D01*
G01*
X234567000Y-140476000D01*
G75*
G02*
X234807000Y-140236000I240000J0D01*
G01*
G37*
G04 #@! TD*
G04 #@! TO.C,C12*
G36*
G01*
X251444000Y-131092000D02*
X251984000Y-131092000D01*
G75*
G02*
X252224000Y-131332000I0J-240000D01*
G01*
X252224000Y-131812000D01*
G75*
G02*
X251984000Y-132052000I-240000J0D01*
G01*
X251444000Y-132052000D01*
G75*
G02*
X251204000Y-131812000I0J240000D01*
G01*
X251204000Y-131332000D01*
G75*
G02*
X251444000Y-131092000I240000J0D01*
G01*
G37*
G36*
G01*
X251444000Y-130132000D02*
X251984000Y-130132000D01*
G75*
G02*
X252224000Y-130372000I0J-240000D01*
G01*
X252224000Y-130852000D01*
G75*
G02*
X251984000Y-131092000I-240000J0D01*
G01*
X251444000Y-131092000D01*
G75*
G02*
X251204000Y-130852000I0J240000D01*
G01*
X251204000Y-130372000D01*
G75*
G02*
X251444000Y-130132000I240000J0D01*
G01*
G37*
G04 #@! TD*
G04 #@! TO.C,C11*
G36*
G01*
X252961000Y-131036000D02*
X253501000Y-131036000D01*
G75*
G02*
X253741000Y-131276000I0J-240000D01*
G01*
X253741000Y-131756000D01*
G75*
G02*
X253501000Y-131996000I-240000J0D01*
G01*
X252961000Y-131996000D01*
G75*
G02*
X252721000Y-131756000I0J240000D01*
G01*
X252721000Y-131276000D01*
G75*
G02*
X252961000Y-131036000I240000J0D01*
G01*
G37*
G36*
G01*
X252961000Y-130076000D02*
X253501000Y-130076000D01*
G75*
G02*
X253741000Y-130316000I0J-240000D01*
G01*
X253741000Y-130796000D01*
G75*
G02*
X253501000Y-131036000I-240000J0D01*
G01*
X252961000Y-131036000D01*
G75*
G02*
X252721000Y-130796000I0J240000D01*
G01*
X252721000Y-130316000D01*
G75*
G02*
X252961000Y-130076000I240000J0D01*
G01*
G37*
G04 #@! TD*
G04 #@! TO.C,C10*
G36*
G01*
X259553000Y-128254000D02*
X259553000Y-128794000D01*
G75*
G02*
X259313000Y-129034000I-240000J0D01*
G01*
X258833000Y-129034000D01*
G75*
G02*
X258593000Y-128794000I0J240000D01*
G01*
X258593000Y-128254000D01*
G75*
G02*
X258833000Y-128014000I240000J0D01*
G01*
X259313000Y-128014000D01*
G75*
G02*
X259553000Y-128254000I0J-240000D01*
G01*
G37*
G36*
G01*
X260513000Y-128254000D02*
X260513000Y-128794000D01*
G75*
G02*
X260273000Y-129034000I-240000J0D01*
G01*
X259793000Y-129034000D01*
G75*
G02*
X259553000Y-128794000I0J240000D01*
G01*
X259553000Y-128254000D01*
G75*
G02*
X259793000Y-128014000I240000J0D01*
G01*
X260273000Y-128014000D01*
G75*
G02*
X260513000Y-128254000I0J-240000D01*
G01*
G37*
G04 #@! TD*
G04 #@! TO.C,C9*
G36*
G01*
X248904000Y-131036000D02*
X249444000Y-131036000D01*
G75*
G02*
X249684000Y-131276000I0J-240000D01*
G01*
X249684000Y-131756000D01*
G75*
G02*
X249444000Y-131996000I-240000J0D01*
G01*
X248904000Y-131996000D01*
G75*
G02*
X248664000Y-131756000I0J240000D01*
G01*
X248664000Y-131276000D01*
G75*
G02*
X248904000Y-131036000I240000J0D01*
G01*
G37*
G36*
G01*
X248904000Y-130076000D02*
X249444000Y-130076000D01*
G75*
G02*
X249684000Y-130316000I0J-240000D01*
G01*
X249684000Y-130796000D01*
G75*
G02*
X249444000Y-131036000I-240000J0D01*
G01*
X248904000Y-131036000D01*
G75*
G02*
X248664000Y-130796000I0J240000D01*
G01*
X248664000Y-130316000D01*
G75*
G02*
X248904000Y-130076000I240000J0D01*
G01*
G37*
G04 #@! TD*
G04 #@! TO.C,C8*
G36*
G01*
X247651045Y-132699000D02*
X246124955Y-132699000D01*
G75*
G02*
X245788000Y-132362045I0J336955D01*
G01*
X245788000Y-131485955D01*
G75*
G02*
X246124955Y-131149000I336955J0D01*
G01*
X247651045Y-131149000D01*
G75*
G02*
X247988000Y-131485955I0J-336955D01*
G01*
X247988000Y-132362045D01*
G75*
G02*
X247651045Y-132699000I-336955J0D01*
G01*
G37*
G36*
G01*
X247651045Y-135649000D02*
X246124955Y-135649000D01*
G75*
G02*
X245788000Y-135312045I0J336955D01*
G01*
X245788000Y-134435955D01*
G75*
G02*
X246124955Y-134099000I336955J0D01*
G01*
X247651045Y-134099000D01*
G75*
G02*
X247988000Y-134435955I0J-336955D01*
G01*
X247988000Y-135312045D01*
G75*
G02*
X247651045Y-135649000I-336955J0D01*
G01*
G37*
G04 #@! TD*
G04 #@! TO.C,C7*
G36*
G01*
X249963045Y-126825000D02*
X248436955Y-126825000D01*
G75*
G02*
X248100000Y-126488045I0J336955D01*
G01*
X248100000Y-125611955D01*
G75*
G02*
X248436955Y-125275000I336955J0D01*
G01*
X249963045Y-125275000D01*
G75*
G02*
X250300000Y-125611955I0J-336955D01*
G01*
X250300000Y-126488045D01*
G75*
G02*
X249963045Y-126825000I-336955J0D01*
G01*
G37*
G36*
G01*
X249963045Y-129775000D02*
X248436955Y-129775000D01*
G75*
G02*
X248100000Y-129438045I0J336955D01*
G01*
X248100000Y-128561955D01*
G75*
G02*
X248436955Y-128225000I336955J0D01*
G01*
X249963045Y-128225000D01*
G75*
G02*
X250300000Y-128561955I0J-336955D01*
G01*
X250300000Y-129438045D01*
G75*
G02*
X249963045Y-129775000I-336955J0D01*
G01*
G37*
G04 #@! TD*
G04 #@! TO.C,C6*
G36*
G01*
X206613000Y-143101000D02*
X207153000Y-143101000D01*
G75*
G02*
X207393000Y-143341000I0J-240000D01*
G01*
X207393000Y-143821000D01*
G75*
G02*
X207153000Y-144061000I-240000J0D01*
G01*
X206613000Y-144061000D01*
G75*
G02*
X206373000Y-143821000I0J240000D01*
G01*
X206373000Y-143341000D01*
G75*
G02*
X206613000Y-143101000I240000J0D01*
G01*
G37*
G36*
G01*
X206613000Y-142141000D02*
X207153000Y-142141000D01*
G75*
G02*
X207393000Y-142381000I0J-240000D01*
G01*
X207393000Y-142861000D01*
G75*
G02*
X207153000Y-143101000I-240000J0D01*
G01*
X206613000Y-143101000D01*
G75*
G02*
X206373000Y-142861000I0J240000D01*
G01*
X206373000Y-142381000D01*
G75*
G02*
X206613000Y-142141000I240000J0D01*
G01*
G37*
G04 #@! TD*
G04 #@! TO.C,C5*
G36*
G01*
X237125000Y-134846000D02*
X236585000Y-134846000D01*
G75*
G02*
X236345000Y-134606000I0J240000D01*
G01*
X236345000Y-134126000D01*
G75*
G02*
X236585000Y-133886000I240000J0D01*
G01*
X237125000Y-133886000D01*
G75*
G02*
X237365000Y-134126000I0J-240000D01*
G01*
X237365000Y-134606000D01*
G75*
G02*
X237125000Y-134846000I-240000J0D01*
G01*
G37*
G36*
G01*
X237125000Y-135806000D02*
X236585000Y-135806000D01*
G75*
G02*
X236345000Y-135566000I0J240000D01*
G01*
X236345000Y-135086000D01*
G75*
G02*
X236585000Y-134846000I240000J0D01*
G01*
X237125000Y-134846000D01*
G75*
G02*
X237365000Y-135086000I0J-240000D01*
G01*
X237365000Y-135566000D01*
G75*
G02*
X237125000Y-135806000I-240000J0D01*
G01*
G37*
G04 #@! TD*
G04 #@! TO.C,C2*
G36*
G01*
X258937000Y-125728955D02*
X258937000Y-127255045D01*
G75*
G02*
X258600045Y-127592000I-336955J0D01*
G01*
X257723955Y-127592000D01*
G75*
G02*
X257387000Y-127255045I0J336955D01*
G01*
X257387000Y-125728955D01*
G75*
G02*
X257723955Y-125392000I336955J0D01*
G01*
X258600045Y-125392000D01*
G75*
G02*
X258937000Y-125728955I0J-336955D01*
G01*
G37*
G36*
G01*
X261887000Y-125728955D02*
X261887000Y-127255045D01*
G75*
G02*
X261550045Y-127592000I-336955J0D01*
G01*
X260673955Y-127592000D01*
G75*
G02*
X260337000Y-127255045I0J336955D01*
G01*
X260337000Y-125728955D01*
G75*
G02*
X260673955Y-125392000I336955J0D01*
G01*
X261550045Y-125392000D01*
G75*
G02*
X261887000Y-125728955I0J-336955D01*
G01*
G37*
G04 #@! TD*
G04 #@! TO.C,C1*
G36*
G01*
X260703000Y-135366000D02*
X260703000Y-135906000D01*
G75*
G02*
X260463000Y-136146000I-240000J0D01*
G01*
X259983000Y-136146000D01*
G75*
G02*
X259743000Y-135906000I0J240000D01*
G01*
X259743000Y-135366000D01*
G75*
G02*
X259983000Y-135126000I240000J0D01*
G01*
X260463000Y-135126000D01*
G75*
G02*
X260703000Y-135366000I0J-240000D01*
G01*
G37*
G36*
G01*
X261663000Y-135366000D02*
X261663000Y-135906000D01*
G75*
G02*
X261423000Y-136146000I-240000J0D01*
G01*
X260943000Y-136146000D01*
G75*
G02*
X260703000Y-135906000I0J240000D01*
G01*
X260703000Y-135366000D01*
G75*
G02*
X260943000Y-135126000I240000J0D01*
G01*
X261423000Y-135126000D01*
G75*
G02*
X261663000Y-135366000I0J-240000D01*
G01*
G37*
G04 #@! TD*
G04 #@! TO.C,U8*
G36*
G01*
X214409000Y-115566000D02*
X214409000Y-115066000D01*
G75*
G02*
X214659000Y-114816000I250000J0D01*
G01*
X216509000Y-114816000D01*
G75*
G02*
X216759000Y-115066000I0J-250000D01*
G01*
X216759000Y-115566000D01*
G75*
G02*
X216509000Y-115816000I-250000J0D01*
G01*
X214659000Y-115816000D01*
G75*
G02*
X214409000Y-115566000I0J250000D01*
G01*
G37*
G36*
G01*
X214409000Y-116836000D02*
X214409000Y-116336000D01*
G75*
G02*
X214659000Y-116086000I250000J0D01*
G01*
X216509000Y-116086000D01*
G75*
G02*
X216759000Y-116336000I0J-250000D01*
G01*
X216759000Y-116836000D01*
G75*
G02*
X216509000Y-117086000I-250000J0D01*
G01*
X214659000Y-117086000D01*
G75*
G02*
X214409000Y-116836000I0J250000D01*
G01*
G37*
G36*
G01*
X214409000Y-118106000D02*
X214409000Y-117606000D01*
G75*
G02*
X214659000Y-117356000I250000J0D01*
G01*
X216509000Y-117356000D01*
G75*
G02*
X216759000Y-117606000I0J-250000D01*
G01*
X216759000Y-118106000D01*
G75*
G02*
X216509000Y-118356000I-250000J0D01*
G01*
X214659000Y-118356000D01*
G75*
G02*
X214409000Y-118106000I0J250000D01*
G01*
G37*
G36*
G01*
X214409000Y-119376000D02*
X214409000Y-118876000D01*
G75*
G02*
X214659000Y-118626000I250000J0D01*
G01*
X216509000Y-118626000D01*
G75*
G02*
X216759000Y-118876000I0J-250000D01*
G01*
X216759000Y-119376000D01*
G75*
G02*
X216509000Y-119626000I-250000J0D01*
G01*
X214659000Y-119626000D01*
G75*
G02*
X214409000Y-119376000I0J250000D01*
G01*
G37*
G36*
G01*
X214409000Y-120646000D02*
X214409000Y-120146000D01*
G75*
G02*
X214659000Y-119896000I250000J0D01*
G01*
X216509000Y-119896000D01*
G75*
G02*
X216759000Y-120146000I0J-250000D01*
G01*
X216759000Y-120646000D01*
G75*
G02*
X216509000Y-120896000I-250000J0D01*
G01*
X214659000Y-120896000D01*
G75*
G02*
X214409000Y-120646000I0J250000D01*
G01*
G37*
G36*
G01*
X214409000Y-121916000D02*
X214409000Y-121416000D01*
G75*
G02*
X214659000Y-121166000I250000J0D01*
G01*
X216509000Y-121166000D01*
G75*
G02*
X216759000Y-121416000I0J-250000D01*
G01*
X216759000Y-121916000D01*
G75*
G02*
X216509000Y-122166000I-250000J0D01*
G01*
X214659000Y-122166000D01*
G75*
G02*
X214409000Y-121916000I0J250000D01*
G01*
G37*
G36*
G01*
X214409000Y-123186000D02*
X214409000Y-122686000D01*
G75*
G02*
X214659000Y-122436000I250000J0D01*
G01*
X216509000Y-122436000D01*
G75*
G02*
X216759000Y-122686000I0J-250000D01*
G01*
X216759000Y-123186000D01*
G75*
G02*
X216509000Y-123436000I-250000J0D01*
G01*
X214659000Y-123436000D01*
G75*
G02*
X214409000Y-123186000I0J250000D01*
G01*
G37*
G36*
G01*
X214409000Y-124456000D02*
X214409000Y-123956000D01*
G75*
G02*
X214659000Y-123706000I250000J0D01*
G01*
X216509000Y-123706000D01*
G75*
G02*
X216759000Y-123956000I0J-250000D01*
G01*
X216759000Y-124456000D01*
G75*
G02*
X216509000Y-124706000I-250000J0D01*
G01*
X214659000Y-124706000D01*
G75*
G02*
X214409000Y-124456000I0J250000D01*
G01*
G37*
G36*
G01*
X219359000Y-124456000D02*
X219359000Y-123956000D01*
G75*
G02*
X219609000Y-123706000I250000J0D01*
G01*
X221459000Y-123706000D01*
G75*
G02*
X221709000Y-123956000I0J-250000D01*
G01*
X221709000Y-124456000D01*
G75*
G02*
X221459000Y-124706000I-250000J0D01*
G01*
X219609000Y-124706000D01*
G75*
G02*
X219359000Y-124456000I0J250000D01*
G01*
G37*
G36*
G01*
X219359000Y-123186000D02*
X219359000Y-122686000D01*
G75*
G02*
X219609000Y-122436000I250000J0D01*
G01*
X221459000Y-122436000D01*
G75*
G02*
X221709000Y-122686000I0J-250000D01*
G01*
X221709000Y-123186000D01*
G75*
G02*
X221459000Y-123436000I-250000J0D01*
G01*
X219609000Y-123436000D01*
G75*
G02*
X219359000Y-123186000I0J250000D01*
G01*
G37*
G36*
G01*
X219359000Y-121916000D02*
X219359000Y-121416000D01*
G75*
G02*
X219609000Y-121166000I250000J0D01*
G01*
X221459000Y-121166000D01*
G75*
G02*
X221709000Y-121416000I0J-250000D01*
G01*
X221709000Y-121916000D01*
G75*
G02*
X221459000Y-122166000I-250000J0D01*
G01*
X219609000Y-122166000D01*
G75*
G02*
X219359000Y-121916000I0J250000D01*
G01*
G37*
G36*
G01*
X219359000Y-120646000D02*
X219359000Y-120146000D01*
G75*
G02*
X219609000Y-119896000I250000J0D01*
G01*
X221459000Y-119896000D01*
G75*
G02*
X221709000Y-120146000I0J-250000D01*
G01*
X221709000Y-120646000D01*
G75*
G02*
X221459000Y-120896000I-250000J0D01*
G01*
X219609000Y-120896000D01*
G75*
G02*
X219359000Y-120646000I0J250000D01*
G01*
G37*
G36*
G01*
X219359000Y-119376000D02*
X219359000Y-118876000D01*
G75*
G02*
X219609000Y-118626000I250000J0D01*
G01*
X221459000Y-118626000D01*
G75*
G02*
X221709000Y-118876000I0J-250000D01*
G01*
X221709000Y-119376000D01*
G75*
G02*
X221459000Y-119626000I-250000J0D01*
G01*
X219609000Y-119626000D01*
G75*
G02*
X219359000Y-119376000I0J250000D01*
G01*
G37*
G36*
G01*
X219359000Y-118106000D02*
X219359000Y-117606000D01*
G75*
G02*
X219609000Y-117356000I250000J0D01*
G01*
X221459000Y-117356000D01*
G75*
G02*
X221709000Y-117606000I0J-250000D01*
G01*
X221709000Y-118106000D01*
G75*
G02*
X221459000Y-118356000I-250000J0D01*
G01*
X219609000Y-118356000D01*
G75*
G02*
X219359000Y-118106000I0J250000D01*
G01*
G37*
G36*
G01*
X219359000Y-116836000D02*
X219359000Y-116336000D01*
G75*
G02*
X219609000Y-116086000I250000J0D01*
G01*
X221459000Y-116086000D01*
G75*
G02*
X221709000Y-116336000I0J-250000D01*
G01*
X221709000Y-116836000D01*
G75*
G02*
X221459000Y-117086000I-250000J0D01*
G01*
X219609000Y-117086000D01*
G75*
G02*
X219359000Y-116836000I0J250000D01*
G01*
G37*
G36*
G01*
X219359000Y-115566000D02*
X219359000Y-115066000D01*
G75*
G02*
X219609000Y-114816000I250000J0D01*
G01*
X221459000Y-114816000D01*
G75*
G02*
X221709000Y-115066000I0J-250000D01*
G01*
X221709000Y-115566000D01*
G75*
G02*
X221459000Y-115816000I-250000J0D01*
G01*
X219609000Y-115816000D01*
G75*
G02*
X219359000Y-115566000I0J250000D01*
G01*
G37*
G04 #@! TD*
G04 #@! TO.C,D5*
G36*
G01*
X198318000Y-147628000D02*
X197668000Y-147628000D01*
G75*
G02*
X197468000Y-147428000I0J200000D01*
G01*
X197468000Y-146368000D01*
G75*
G02*
X197668000Y-146168000I200000J0D01*
G01*
X198318000Y-146168000D01*
G75*
G02*
X198518000Y-146368000I0J-200000D01*
G01*
X198518000Y-147428000D01*
G75*
G02*
X198318000Y-147628000I-200000J0D01*
G01*
G37*
G36*
G01*
X197368000Y-147628000D02*
X196718000Y-147628000D01*
G75*
G02*
X196518000Y-147428000I0J200000D01*
G01*
X196518000Y-146368000D01*
G75*
G02*
X196718000Y-146168000I200000J0D01*
G01*
X197368000Y-146168000D01*
G75*
G02*
X197568000Y-146368000I0J-200000D01*
G01*
X197568000Y-147428000D01*
G75*
G02*
X197368000Y-147628000I-200000J0D01*
G01*
G37*
G36*
G01*
X199268000Y-147628000D02*
X198618000Y-147628000D01*
G75*
G02*
X198418000Y-147428000I0J200000D01*
G01*
X198418000Y-146368000D01*
G75*
G02*
X198618000Y-146168000I200000J0D01*
G01*
X199268000Y-146168000D01*
G75*
G02*
X199468000Y-146368000I0J-200000D01*
G01*
X199468000Y-147428000D01*
G75*
G02*
X199268000Y-147628000I-200000J0D01*
G01*
G37*
G36*
G01*
X199268000Y-149828000D02*
X198618000Y-149828000D01*
G75*
G02*
X198418000Y-149628000I0J200000D01*
G01*
X198418000Y-148568000D01*
G75*
G02*
X198618000Y-148368000I200000J0D01*
G01*
X199268000Y-148368000D01*
G75*
G02*
X199468000Y-148568000I0J-200000D01*
G01*
X199468000Y-149628000D01*
G75*
G02*
X199268000Y-149828000I-200000J0D01*
G01*
G37*
G36*
G01*
X198318000Y-149828000D02*
X197668000Y-149828000D01*
G75*
G02*
X197468000Y-149628000I0J200000D01*
G01*
X197468000Y-148568000D01*
G75*
G02*
X197668000Y-148368000I200000J0D01*
G01*
X198318000Y-148368000D01*
G75*
G02*
X198518000Y-148568000I0J-200000D01*
G01*
X198518000Y-149628000D01*
G75*
G02*
X198318000Y-149828000I-200000J0D01*
G01*
G37*
G36*
G01*
X197368000Y-149828000D02*
X196718000Y-149828000D01*
G75*
G02*
X196518000Y-149628000I0J200000D01*
G01*
X196518000Y-148568000D01*
G75*
G02*
X196718000Y-148368000I200000J0D01*
G01*
X197368000Y-148368000D01*
G75*
G02*
X197568000Y-148568000I0J-200000D01*
G01*
X197568000Y-149628000D01*
G75*
G02*
X197368000Y-149828000I-200000J0D01*
G01*
G37*
G04 #@! TD*
G04 #@! TO.C,J1*
G36*
G01*
X187705000Y-150429000D02*
X187705000Y-148529000D01*
G75*
G02*
X187905000Y-148329000I200000J0D01*
G01*
X189105000Y-148329000D01*
G75*
G02*
X189305000Y-148529000I0J-200000D01*
G01*
X189305000Y-150429000D01*
G75*
G02*
X189105000Y-150629000I-200000J0D01*
G01*
X187905000Y-150629000D01*
G75*
G02*
X187705000Y-150429000I0J200000D01*
G01*
G37*
G36*
G01*
X193505000Y-150429000D02*
X193505000Y-148529000D01*
G75*
G02*
X193705000Y-148329000I200000J0D01*
G01*
X194905000Y-148329000D01*
G75*
G02*
X195105000Y-148529000I0J-200000D01*
G01*
X195105000Y-150429000D01*
G75*
G02*
X194905000Y-150629000I-200000J0D01*
G01*
X193705000Y-150629000D01*
G75*
G02*
X193505000Y-150429000I0J200000D01*
G01*
G37*
D18*
X194905000Y-149479000D03*
X187905000Y-149479000D03*
G36*
G01*
X189455000Y-150429000D02*
X189455000Y-148529000D01*
G75*
G02*
X189655000Y-148329000I200000J0D01*
G01*
X191155000Y-148329000D01*
G75*
G02*
X191355000Y-148529000I0J-200000D01*
G01*
X191355000Y-150429000D01*
G75*
G02*
X191155000Y-150629000I-200000J0D01*
G01*
X189655000Y-150629000D01*
G75*
G02*
X189455000Y-150429000I0J200000D01*
G01*
G37*
D19*
X193905000Y-146779000D03*
G36*
G01*
X191005000Y-147454000D02*
X191005000Y-146104000D01*
G75*
G02*
X191205000Y-145904000I200000J0D01*
G01*
X191605000Y-145904000D01*
G75*
G02*
X191805000Y-146104000I0J-200000D01*
G01*
X191805000Y-147454000D01*
G75*
G02*
X191605000Y-147654000I-200000J0D01*
G01*
X191205000Y-147654000D01*
G75*
G02*
X191005000Y-147454000I0J200000D01*
G01*
G37*
G36*
G01*
X191655000Y-147454000D02*
X191655000Y-146104000D01*
G75*
G02*
X191855000Y-145904000I200000J0D01*
G01*
X192255000Y-145904000D01*
G75*
G02*
X192455000Y-146104000I0J-200000D01*
G01*
X192455000Y-147454000D01*
G75*
G02*
X192255000Y-147654000I-200000J0D01*
G01*
X191855000Y-147654000D01*
G75*
G02*
X191655000Y-147454000I0J200000D01*
G01*
G37*
G36*
G01*
X192305000Y-147454000D02*
X192305000Y-146104000D01*
G75*
G02*
X192505000Y-145904000I200000J0D01*
G01*
X192905000Y-145904000D01*
G75*
G02*
X193105000Y-146104000I0J-200000D01*
G01*
X193105000Y-147454000D01*
G75*
G02*
X192905000Y-147654000I-200000J0D01*
G01*
X192505000Y-147654000D01*
G75*
G02*
X192305000Y-147454000I0J200000D01*
G01*
G37*
G36*
G01*
X189705000Y-147454000D02*
X189705000Y-146104000D01*
G75*
G02*
X189905000Y-145904000I200000J0D01*
G01*
X190305000Y-145904000D01*
G75*
G02*
X190505000Y-146104000I0J-200000D01*
G01*
X190505000Y-147454000D01*
G75*
G02*
X190305000Y-147654000I-200000J0D01*
G01*
X189905000Y-147654000D01*
G75*
G02*
X189705000Y-147454000I0J200000D01*
G01*
G37*
G36*
G01*
X190355000Y-147454000D02*
X190355000Y-146104000D01*
G75*
G02*
X190555000Y-145904000I200000J0D01*
G01*
X190955000Y-145904000D01*
G75*
G02*
X191155000Y-146104000I0J-200000D01*
G01*
X191155000Y-147454000D01*
G75*
G02*
X190955000Y-147654000I-200000J0D01*
G01*
X190555000Y-147654000D01*
G75*
G02*
X190355000Y-147454000I0J200000D01*
G01*
G37*
X188905000Y-146779000D03*
G36*
G01*
X191455000Y-150429000D02*
X191455000Y-148529000D01*
G75*
G02*
X191655000Y-148329000I200000J0D01*
G01*
X193155000Y-148329000D01*
G75*
G02*
X193355000Y-148529000I0J-200000D01*
G01*
X193355000Y-150429000D01*
G75*
G02*
X193155000Y-150629000I-200000J0D01*
G01*
X191655000Y-150629000D01*
G75*
G02*
X191455000Y-150429000I0J200000D01*
G01*
G37*
G04 #@! TD*
M02*
