G04 #@! TF.GenerationSoftware,KiCad,Pcbnew,(5.1.9)-1*
G04 #@! TF.CreationDate,2021-06-02T17:30:40-04:00*
G04 #@! TF.ProjectId,esp32 Core  V-0.1,65737033-3220-4436-9f72-652020562d30,rev?*
G04 #@! TF.SameCoordinates,Original*
G04 #@! TF.FileFunction,Soldermask,Bot*
G04 #@! TF.FilePolarity,Negative*
%FSLAX46Y46*%
G04 Gerber Fmt 4.6, Leading zero omitted, Abs format (unit mm)*
G04 Created by KiCad (PCBNEW (5.1.9)-1) date 2021-06-02 17:30:40*
%MOMM*%
%LPD*%
G01*
G04 APERTURE LIST*
%ADD10O,2.000000X2.000000*%
%ADD11O,2.400000X4.000000*%
%ADD12C,3.400000*%
%ADD13O,2.400000X2.100000*%
%ADD14C,3.600000*%
%ADD15O,2.100000X2.100000*%
%ADD16O,1.600000X2.300000*%
%ADD17C,1.850000*%
G04 APERTURE END LIST*
D10*
G04 #@! TO.C,JP4*
X234520000Y-107900000D03*
G36*
G01*
X225900000Y-108700000D02*
X225900000Y-107100000D01*
G75*
G02*
X226100000Y-106900000I200000J0D01*
G01*
X227700000Y-106900000D01*
G75*
G02*
X227900000Y-107100000I0J-200000D01*
G01*
X227900000Y-108700000D01*
G75*
G02*
X227700000Y-108900000I-200000J0D01*
G01*
X226100000Y-108900000D01*
G75*
G02*
X225900000Y-108700000I0J200000D01*
G01*
G37*
G04 #@! TD*
G04 #@! TO.C,JP3*
X234520000Y-114000000D03*
G36*
G01*
X225900000Y-114800000D02*
X225900000Y-113200000D01*
G75*
G02*
X226100000Y-113000000I200000J0D01*
G01*
X227700000Y-113000000D01*
G75*
G02*
X227900000Y-113200000I0J-200000D01*
G01*
X227900000Y-114800000D01*
G75*
G02*
X227700000Y-115000000I-200000J0D01*
G01*
X226100000Y-115000000D01*
G75*
G02*
X225900000Y-114800000I0J200000D01*
G01*
G37*
G04 #@! TD*
G04 #@! TO.C,JP2*
X246600000Y-109200000D03*
G36*
G01*
X245800000Y-100580000D02*
X247400000Y-100580000D01*
G75*
G02*
X247600000Y-100780000I0J-200000D01*
G01*
X247600000Y-102380000D01*
G75*
G02*
X247400000Y-102580000I-200000J0D01*
G01*
X245800000Y-102580000D01*
G75*
G02*
X245600000Y-102380000I0J200000D01*
G01*
X245600000Y-100780000D01*
G75*
G02*
X245800000Y-100580000I200000J0D01*
G01*
G37*
G04 #@! TD*
G04 #@! TO.C,JP1*
X246600000Y-111580000D03*
G36*
G01*
X247400000Y-120200000D02*
X245800000Y-120200000D01*
G75*
G02*
X245600000Y-120000000I0J200000D01*
G01*
X245600000Y-118400000D01*
G75*
G02*
X245800000Y-118200000I200000J0D01*
G01*
X247400000Y-118200000D01*
G75*
G02*
X247600000Y-118400000I0J-200000D01*
G01*
X247600000Y-120000000D01*
G75*
G02*
X247400000Y-120200000I-200000J0D01*
G01*
G37*
G04 #@! TD*
D11*
G04 #@! TO.C,J5*
X251305000Y-148590000D03*
X256305000Y-148590000D03*
G36*
G01*
X262505000Y-146890000D02*
X262505000Y-150290000D01*
G75*
G02*
X262205000Y-150590000I-300000J0D01*
G01*
X260405000Y-150590000D01*
G75*
G02*
X260105000Y-150290000I0J300000D01*
G01*
X260105000Y-146890000D01*
G75*
G02*
X260405000Y-146590000I300000J0D01*
G01*
X262205000Y-146590000D01*
G75*
G02*
X262505000Y-146890000I0J-300000D01*
G01*
G37*
G04 #@! TD*
G04 #@! TO.C,J4*
X261500000Y-98425000D03*
G36*
G01*
X255300000Y-100125000D02*
X255300000Y-96725000D01*
G75*
G02*
X255600000Y-96425000I300000J0D01*
G01*
X257400000Y-96425000D01*
G75*
G02*
X257700000Y-96725000I0J-300000D01*
G01*
X257700000Y-100125000D01*
G75*
G02*
X257400000Y-100425000I-300000J0D01*
G01*
X255600000Y-100425000D01*
G75*
G02*
X255300000Y-100125000I0J300000D01*
G01*
G37*
G04 #@! TD*
G04 #@! TO.C,J13*
X204343000Y-148590000D03*
X209343000Y-148590000D03*
X214343000Y-148590000D03*
G36*
G01*
X220543000Y-146890000D02*
X220543000Y-150290000D01*
G75*
G02*
X220243000Y-150590000I-300000J0D01*
G01*
X218443000Y-150590000D01*
G75*
G02*
X218143000Y-150290000I0J300000D01*
G01*
X218143000Y-146890000D01*
G75*
G02*
X218443000Y-146590000I300000J0D01*
G01*
X220243000Y-146590000D01*
G75*
G02*
X220543000Y-146890000I0J-300000D01*
G01*
G37*
G04 #@! TD*
G04 #@! TO.C,J2*
X229743000Y-148590000D03*
G36*
G01*
X235943000Y-146890000D02*
X235943000Y-150290000D01*
G75*
G02*
X235643000Y-150590000I-300000J0D01*
G01*
X233843000Y-150590000D01*
G75*
G02*
X233543000Y-150290000I0J300000D01*
G01*
X233543000Y-146890000D01*
G75*
G02*
X233843000Y-146590000I300000J0D01*
G01*
X235643000Y-146590000D01*
G75*
G02*
X235943000Y-146890000I0J-300000D01*
G01*
G37*
G04 #@! TD*
G04 #@! TO.C,BT1*
G36*
G01*
X242238000Y-125754000D02*
X242238000Y-128754000D01*
G75*
G02*
X242038000Y-128954000I-200000J0D01*
G01*
X239038000Y-128954000D01*
G75*
G02*
X238838000Y-128754000I0J200000D01*
G01*
X238838000Y-125754000D01*
G75*
G02*
X239038000Y-125554000I200000J0D01*
G01*
X242038000Y-125554000D01*
G75*
G02*
X242238000Y-125754000I0J-200000D01*
G01*
G37*
D12*
X220048000Y-127254000D03*
G04 #@! TD*
G04 #@! TO.C,BT2*
G36*
G01*
X181372000Y-140388000D02*
X183372000Y-140388000D01*
G75*
G02*
X183572000Y-140588000I0J-200000D01*
G01*
X183572000Y-142288000D01*
G75*
G02*
X183372000Y-142488000I-200000J0D01*
G01*
X181372000Y-142488000D01*
G75*
G02*
X181172000Y-142288000I0J200000D01*
G01*
X181172000Y-140588000D01*
G75*
G02*
X181372000Y-140388000I200000J0D01*
G01*
G37*
D13*
X182372000Y-138938000D03*
G04 #@! TD*
D14*
G04 #@! TO.C,MH4*
X183500000Y-98500000D03*
G04 #@! TD*
G04 #@! TO.C,MH3*
X242500000Y-147500000D03*
G04 #@! TD*
G04 #@! TO.C,MH2*
X183500000Y-147500000D03*
G04 #@! TD*
G04 #@! TO.C,MH1*
X241500000Y-98500000D03*
G04 #@! TD*
D15*
G04 #@! TO.C,J3*
X236632600Y-97232300D03*
X236632600Y-99772300D03*
X234092600Y-97232300D03*
X234092600Y-99772300D03*
X231552600Y-97232300D03*
X231552600Y-99772300D03*
X229012600Y-97232300D03*
X229012600Y-99772300D03*
X226472600Y-97232300D03*
X226472600Y-99772300D03*
X223932600Y-97232300D03*
X223932600Y-99772300D03*
X221392600Y-97232300D03*
X221392600Y-99772300D03*
X218852600Y-97232300D03*
X218852600Y-99772300D03*
X216312600Y-97232300D03*
X216312600Y-99772300D03*
X213772600Y-97232300D03*
X213772600Y-99772300D03*
X211232600Y-97232300D03*
X211232600Y-99772300D03*
X208692600Y-97232300D03*
X208692600Y-99772300D03*
X206152600Y-97232300D03*
X206152600Y-99772300D03*
X203612600Y-97232300D03*
X203612600Y-99772300D03*
X201072600Y-97232300D03*
X201072600Y-99772300D03*
X198532600Y-97232300D03*
X198532600Y-99772300D03*
X195992600Y-97232300D03*
X195992600Y-99772300D03*
X193452600Y-97232300D03*
X193452600Y-99772300D03*
X190912600Y-97232300D03*
X190912600Y-99772300D03*
X188372600Y-97232300D03*
G36*
G01*
X189222600Y-100822300D02*
X187522600Y-100822300D01*
G75*
G02*
X187322600Y-100622300I0J200000D01*
G01*
X187322600Y-98922300D01*
G75*
G02*
X187522600Y-98722300I200000J0D01*
G01*
X189222600Y-98722300D01*
G75*
G02*
X189422600Y-98922300I0J-200000D01*
G01*
X189422600Y-100622300D01*
G75*
G02*
X189222600Y-100822300I-200000J0D01*
G01*
G37*
G04 #@! TD*
D16*
G04 #@! TO.C,J1*
X194905000Y-149479000D03*
X187905000Y-149479000D03*
D17*
X193905000Y-146779000D03*
X188905000Y-146779000D03*
G04 #@! TD*
M02*
