M48
; DRILL file {KiCad (5.1.9)-1} date 06/02/21 17:30:35
; FORMAT={-:-/ absolute / inch / decimal}
; #@! TF.CreationDate,2021-06-02T17:30:35-04:00
; #@! TF.GenerationSoftware,Kicad,Pcbnew,(5.1.9)-1
; #@! TF.FileFunction,Plated,1,4,PTH
FMAT,2
INCH
T1C0.0079
T2C0.0157
T3C0.0236
T4C0.0315
T5C0.0335
T6C0.0394
T7C0.0551
T8C0.0591
%
G90
G05
T1
X8.2556Y-5.4606
X8.2556Y-5.5
X8.2556Y-5.5394
X8.295Y-5.4606
X8.295Y-5.5
X8.295Y-5.5394
X8.3344Y-5.4606
X8.3344Y-5.5
X8.3344Y-5.5394
X10.1416Y-5.1565
X10.1416Y-5.1959
X10.1416Y-5.2353
X10.1681Y-4.5057
X10.1681Y-4.5569
X10.1928Y-5.1565
X10.1928Y-5.1959
X10.1928Y-5.2353
X10.2075Y-4.5057
X10.2075Y-4.5569
X10.2469Y-4.5057
X10.2469Y-4.5569
T2
X7.185Y-5.22
X7.2625Y-5.3375
X7.365Y-5.255
X7.43Y-4.94
X7.435Y-5.435
X7.4409Y-4.2697
X7.48Y-4.93
X7.54Y-4.47
X7.585Y-5.1425
X7.6075Y-5.5175
X7.615Y-5.7185
X7.6181Y-4.0
X7.63Y-4.51
X7.6414Y-4.2713
X7.642Y-4.12
X7.68Y-4.49
X7.7Y-4.44
X7.7198Y-4.2098
X7.7382Y-4.2717
X7.77Y-5.605
X7.79Y-4.275
X7.8002Y-5.7202
X7.845Y-4.275
X7.8825Y-5.265
X7.915Y-4.51
X7.92Y-5.69
X7.934Y-4.19
X7.95Y-4.49
X7.965Y-5.31
X7.995Y-4.445
X8.0Y-5.46
X8.004Y-4.1217
X8.0177Y-5.6877
X8.02Y-5.585
X8.0725Y-5.14
X8.1425Y-4.5775
X8.18Y-5.685
X8.185Y-5.095
X8.26Y-4.104
X8.27Y-4.32
X8.3837Y-5.14
X8.406Y-4.106
X8.41Y-4.32
X8.4387Y-5.375
X8.4961Y-5.5039
X8.5Y-5.18
X8.5145Y-5.4112
X8.53Y-5.375
X8.535Y-4.975
X8.538Y-4.104
X8.56Y-4.33
X8.626Y-5.242
X8.6614Y-4.3701
X8.704Y-4.102
X8.71Y-4.33
X8.845Y-5.415
X8.88Y-4.7
X8.8825Y-5.575
X8.89Y-4.61
X8.895Y-5.135
X8.9213Y-4.72
X8.98Y-5.6
X8.9889Y-5.2911
X9.063Y-4.8248
X9.07Y-4.755
X9.0925Y-5.27
X9.17Y-4.41
X9.19Y-4.1133
X9.2224Y-4.6496
X9.2343Y-4.872
X9.24Y-5.03
X9.295Y-5.63
X9.36Y-5.39
X9.3937Y-4.8386
X9.41Y-4.445
X9.455Y-5.355
X9.4685Y-4.5472
X9.5335Y-4.8465
X9.545Y-4.67
X9.57Y-4.09
X9.5846Y-4.7697
X9.59Y-5.09
X9.605Y-4.375
X9.6335Y-4.9861
X9.6335Y-5.0161
X9.655Y-5.66
X9.7035Y-4.9861
X9.7035Y-5.0161
X9.7768Y-3.8182
X9.795Y-5.25
X9.8622Y-4.9016
X9.9075Y-4.5925
X9.9875Y-5.2925
X10.03Y-4.635
X10.07Y-4.47
X10.2225Y-5.315
X10.2425Y-5.4025
X10.36Y-4.75
T4
X8.9331Y-4.248
X8.9331Y-4.4882
X9.2331Y-4.248
X9.2331Y-4.4882
X9.7087Y-3.9992
X9.7087Y-4.2992
X9.7087Y-4.3929
X9.7087Y-4.6929
T5
X7.4372Y-5.7787
X7.6341Y-5.7787
T6
X7.18Y-5.47
X7.18Y-5.5684
X7.4162Y-3.828
X7.4162Y-3.928
X7.5162Y-3.828
X7.5162Y-3.928
X7.6162Y-3.828
X7.6162Y-3.928
X7.7162Y-3.828
X7.7162Y-3.928
X7.8162Y-3.828
X7.8162Y-3.928
X7.9162Y-3.828
X7.9162Y-3.928
X8.0162Y-3.828
X8.0162Y-3.928
X8.1162Y-3.828
X8.1162Y-3.928
X8.2162Y-3.828
X8.2162Y-3.928
X8.3162Y-3.828
X8.3162Y-3.928
X8.4162Y-3.828
X8.4162Y-3.928
X8.5162Y-3.828
X8.5162Y-3.928
X8.6162Y-3.828
X8.6162Y-3.928
X8.7162Y-3.828
X8.7162Y-3.928
X8.8162Y-3.828
X8.8162Y-3.928
X8.9162Y-3.828
X8.9162Y-3.928
X9.0162Y-3.828
X9.0162Y-3.928
X9.1162Y-3.828
X9.1162Y-3.928
X9.2162Y-3.828
X9.2162Y-3.928
X9.3162Y-3.828
X9.3162Y-3.928
T7
X8.045Y-5.85
X8.2419Y-5.85
X8.4387Y-5.85
X8.6356Y-5.85
X9.045Y-5.85
X9.2419Y-5.85
X9.8939Y-5.85
X10.0907Y-5.85
X10.0984Y-3.875
X10.2876Y-5.85
X10.2953Y-3.875
T8
X8.6633Y-5.01
X9.47Y-5.01
T3
G00X7.3978Y-5.8988
M15
G01X7.3978Y-5.8712
M16
G05
G00X7.6734Y-5.8712
M15
G01X7.6734Y-5.8988
M16
G05
T0
M30
