M48
; DRILL file {KiCad 9.0.0} date 2025-10-19T17:53:06+0200
; FORMAT={-:-/ absolute / metric / decimal}
; #@! TF.CreationDate,2025-10-19T17:53:06+02:00
; #@! TF.GenerationSoftware,Kicad,Pcbnew,9.0.0
; #@! TF.FileFunction,Plated,1,4,PTH
FMAT,2
METRIC
; #@! TA.AperFunction,Plated,PTH,ComponentDrill
T1C0.200
; #@! TA.AperFunction,Plated,PTH,ViaDrill
T2C0.300
; #@! TA.AperFunction,Plated,PTH,ComponentDrill
T3C0.300
; #@! TA.AperFunction,Plated,PTH,ComponentDrill
T4C0.400
; #@! TA.AperFunction,Plated,PTH,ComponentDrill
T5C0.600
; #@! TA.AperFunction,Plated,PTH,ComponentDrill
T6C0.800
; #@! TA.AperFunction,Plated,PTH,ComponentDrill
T7C1.000
; #@! TA.AperFunction,Plated,PTH,ComponentDrill
T8C1.600
%
G90
G05
T1
X193.71Y-120.7
X193.71Y-122.1
X194.41Y-120.0
X194.41Y-121.4
X194.41Y-122.8
X195.11Y-120.7
X195.11Y-122.1
X195.81Y-120.0
X195.81Y-121.4
X195.81Y-122.8
X196.51Y-120.7
X196.51Y-122.1
X231.46Y-136.25
X231.46Y-137.25
X232.4Y-136.25
X232.4Y-137.25
X233.34Y-136.25
X233.34Y-137.25
X236.5Y-120.7
X236.5Y-121.7
X237.5Y-120.7
X237.5Y-121.7
X242.2Y-137.7
X242.2Y-139.1
X243.0Y-137.7
X243.0Y-139.1
T2
X180.4Y-105.0
X180.5Y-130.0
X180.5Y-132.0
X180.5Y-134.0
X180.5Y-136.0
X180.5Y-138.0
X180.5Y-140.0
X180.5Y-142.0
X180.5Y-144.0
X180.5Y-146.5
X181.2Y-106.3
X181.2Y-143.0
X181.5Y-149.0
X182.4Y-105.4
X182.6Y-107.5
X183.0Y-130.0
X183.0Y-132.0
X183.0Y-134.0
X183.0Y-136.0
X183.0Y-138.0
X183.0Y-140.0
X183.0Y-142.0
X183.0Y-143.0
X183.0Y-150.5
X184.4Y-132.7
X185.0Y-130.0
X185.0Y-136.0
X185.0Y-138.0
X185.0Y-140.0
X185.0Y-142.0
X185.0Y-150.5
X185.3Y-131.2
X185.5Y-134.1
X186.0Y-95.4
X186.0Y-103.15
X186.0Y-109.35
X186.05Y-130.75
X186.1Y-106.3
X186.9Y-140.0
X187.0Y-117.5
X187.0Y-119.5
X187.0Y-121.5
X187.0Y-123.5
X187.0Y-125.5
X187.0Y-146.2
X187.0Y-150.5
X187.037Y-114.587
X187.1Y-140.875
X187.3Y-108.3
X187.4Y-112.65
X187.4Y-127.05
X188.3Y-104.1
X188.4Y-95.4
X188.5Y-134.9
X188.5Y-140.9
X188.9Y-101.4
X189.0Y-147.975
X189.05Y-112.75
X189.2Y-108.125
X189.5Y-143.7
X189.725Y-118.275
X189.725Y-120.1
X189.725Y-122.1
X189.8Y-124.2
X189.9Y-105.5
X189.9Y-133.1
X190.2Y-132.15
X190.75Y-135.15
X190.8Y-143.6
X190.85Y-103.6
X190.95Y-149.65
X191.0Y-95.4
X191.2Y-112.85
X191.2Y-126.35
X191.25Y-106.25
X191.35Y-123.55
X191.55Y-136.85
X191.8Y-130.1
X191.8Y-140.9
X191.962Y-117.0
X192.0Y-118.3
X192.0Y-120.1
X192.0Y-122.0
X192.2Y-105.15
X192.375Y-141.325
X192.5Y-125.0
X192.5Y-127.0
X192.5Y-143.2
X192.619Y-101.419
X192.7Y-103.4
X192.85Y-106.4
X193.05Y-136.95
X193.075Y-133.08
X193.1Y-146.55
X193.3Y-126.0
X193.3Y-149.7
X193.4Y-95.4
X193.537Y-140.942
X193.537Y-143.126
X193.7Y-108.1
X193.7Y-112.975
X193.75Y-145.85
X193.8Y-147.25
X194.0Y-125.0
X194.07Y-134.33
X194.08Y-133.28
X194.2Y-103.4
X194.387Y-140.942
X194.387Y-143.126
X194.765Y-135.175
X194.9Y-143.7
X194.9Y-146.35
X195.3Y-108.1
X195.314Y-112.986
X195.45Y-137.3
X195.45Y-138.75
X195.55Y-141.25
X195.701Y-143.642
X195.925Y-115.725
X196.0Y-95.4
X196.3Y-103.4
X196.7Y-149.65
X196.8Y-106.3
X196.8Y-112.85
X197.056Y-114.1
X197.1Y-141.3
X197.35Y-140.5
X197.59Y-133.954
X197.7Y-106.25
X198.0Y-120.9
X198.137Y-118.938
X198.15Y-134.65
X198.22Y-133.38
X198.58Y-138.27
X198.6Y-95.4
X199.6Y-141.9
X199.775Y-113.625
X199.818Y-133.4
X199.83Y-134.29
X199.865Y-135.11
X199.95Y-101.3
X199.95Y-104.45
X200.125Y-106.425
X200.15Y-108.15
X200.25Y-109.7
X200.39Y-138.679
X200.7Y-143.7
X200.8Y-125.8
X200.9Y-148.1
X201.0Y-95.4
X201.0Y-141.9
X201.0Y-146.2
X201.0Y-150.5
X201.014Y-133.45
X201.05Y-106.35
X201.75Y-133.22
X201.85Y-103.6
X201.93Y-147.32
X202.0Y-117.65
X202.2Y-121.5
X202.25Y-104.55
X202.7Y-122.9
X202.7Y-140.35
X202.9Y-101.55
X202.9Y-120.45
X202.9Y-144.4
X203.0Y-150.5
X203.05Y-142.1
X203.11Y-135.79
X203.181Y-126.631
X203.294Y-133.206
X203.5Y-113.6
X203.55Y-115.7
X203.6Y-95.4
X203.65Y-124.25
X203.672Y-103.416
X203.69Y-138.71
X203.85Y-125.5
X203.86Y-136.46
X204.396Y-100.85
X204.694Y-141.656
X204.7Y-133.46
X205.0Y-150.5
X205.01Y-135.73
X205.15Y-138.85
X205.211Y-134.189
X205.7Y-110.65
X206.2Y-95.4
X206.3Y-140.0
X206.31Y-133.81
X206.502Y-147.32
X206.9Y-129.65
X207.0Y-150.5
X207.05Y-126.5
X207.35Y-143.45
X207.4Y-116.75
X207.55Y-119.84
X207.65Y-110.9
X207.65Y-125.45
X207.7Y-117.8
X207.75Y-116.0
X207.8Y-103.4
X207.8Y-106.25
X207.8Y-118.55
X207.827Y-133.31
X207.85Y-114.55
X208.0Y-112.45
X208.0Y-123.1
X208.05Y-113.6
X208.2Y-145.5
X208.5Y-110.2
X208.5Y-143.4
X208.525Y-133.874
X208.8Y-95.4
X209.0Y-150.5
X209.1Y-101.3
X209.2Y-116.0
X209.45Y-118.55
X210.0Y-143.35
X210.1Y-121.0
X210.1Y-134.0
X210.3Y-129.8
X210.35Y-103.45
X210.45Y-134.95
X210.6Y-115.8
X210.6Y-138.9
X210.65Y-108.35
X211.0Y-150.5
X211.2Y-95.4
X211.45Y-130.05
X211.65Y-104.5
X211.7Y-115.05
X211.75Y-126.2
X211.8Y-101.3
X211.836Y-147.32
X211.95Y-144.5
X212.0Y-117.0
X212.35Y-110.35
X212.575Y-136.325
X212.75Y-102.5
X213.0Y-122.05
X213.0Y-143.8
X213.0Y-150.5
X213.05Y-123.3
X213.625Y-115.425
X213.625Y-117.075
X213.65Y-124.65
X214.4Y-119.0
X214.7Y-104.7
X215.0Y-116.4
X215.0Y-150.5
X215.101Y-108.349
X215.65Y-101.45
X216.1Y-115.425
X216.35Y-117.65
X216.6Y-101.3
X216.662Y-147.32
X216.7Y-110.3
X216.7Y-125.86
X216.7Y-128.4
X216.7Y-129.7
X216.75Y-127.13
X217.0Y-150.5
X217.3Y-134.0
X217.7Y-133.1
X217.75Y-104.9
X217.9Y-105.85
X217.95Y-111.55
X218.0Y-116.2
X218.0Y-117.825
X218.0Y-119.025
X218.8Y-123.32
X218.85Y-125.9
X218.925Y-122.05
X218.975Y-127.1
X219.0Y-124.6
X219.0Y-150.5
X219.025Y-120.775
X219.55Y-104.45
X219.6Y-101.4
X219.7Y-130.6
X219.825Y-108.286
X220.1Y-140.0
X220.45Y-116.15
X220.494Y-130.856
X220.55Y-142.8
X220.85Y-114.675
X221.0Y-150.5
X221.4Y-141.85
X221.45Y-103.45
X221.488Y-147.32
X221.55Y-104.6
X221.55Y-133.85
X221.7Y-110.2
X221.95Y-129.425
X222.2Y-106.5
X222.2Y-142.8
X222.35Y-102.35
X222.7Y-128.4
X222.731Y-124.669
X222.794Y-105.956
X222.83Y-104.2
X222.875Y-111.7
X223.0Y-141.0
X223.0Y-150.5
X223.144Y-118.44
X223.144Y-119.59
X223.144Y-120.39
X223.4Y-124.1
X223.5Y-101.5
X223.7Y-122.0
X223.7Y-132.5
X223.75Y-139.3
X223.8Y-125.575
X224.05Y-105.956
X224.7Y-135.2
X224.998Y-106.547
X225.0Y-140.0
X225.0Y-142.1
X225.0Y-144.0
X225.0Y-150.5
X225.4Y-103.4
X225.4Y-132.65
X226.15Y-108.55
X226.2Y-128.4
X226.2Y-129.9
X226.314Y-147.32
X226.4Y-95.4
X226.6Y-101.4
X227.0Y-141.2
X227.0Y-150.5
X227.175Y-138.2
X227.2Y-139.7
X227.375Y-122.125
X227.943Y-126.075
X228.0Y-135.0
X228.0Y-136.5
X228.0Y-144.0
X228.106Y-106.744
X228.35Y-123.6
X228.6Y-121.9
X228.75Y-148.0
X228.925Y-109.5
X229.0Y-95.4
X229.0Y-150.5
X229.3Y-127.4
X229.3Y-128.7
X229.35Y-133.4
X229.5Y-108.55
X229.55Y-142.55
X229.95Y-105.95
X230.05Y-144.725
X230.1Y-121.85
X230.25Y-124.425
X230.25Y-128.0
X230.3Y-130.7
X230.825Y-135.3
X231.0Y-101.4
X231.0Y-150.5
X231.075Y-116.45
X231.21Y-127.39
X231.4Y-133.4
X231.6Y-95.4
X231.6Y-105.3
X231.75Y-124.45
X231.925Y-115.75
X232.15Y-142.375
X232.175Y-113.375
X233.0Y-150.5
X233.5Y-113.0
X233.8Y-106.9
X233.85Y-104.125
X234.2Y-95.4
X234.55Y-136.4
X234.75Y-108.8
X234.924Y-123.7
X235.0Y-112.0
X235.0Y-113.6
X235.0Y-150.5
X235.35Y-110.4
X235.4Y-103.65
X235.425Y-107.4
X236.33Y-105.38
X236.4Y-107.5
X236.4Y-138.8
X236.6Y-95.4
X236.6Y-141.0
X236.65Y-123.95
X236.65Y-126.075
X236.85Y-142.95
X237.0Y-110.0
X237.0Y-112.0
X237.0Y-113.6
X237.0Y-118.8
X237.0Y-150.5
X237.65Y-124.1
X237.8Y-104.38
X237.9Y-131.1
X238.15Y-136.2
X238.5Y-128.3
X238.65Y-129.8
X238.7Y-132.5
X238.75Y-119.45
X238.9Y-118.6
X238.9Y-134.5
X239.091Y-120.082
X239.1Y-110.0
X239.1Y-111.5
X239.55Y-135.25
X240.0Y-118.2
X240.2Y-106.0
X240.2Y-126.85
X240.725Y-102.625
X240.8Y-129.1
X240.9Y-110.0
X240.9Y-111.5
X240.9Y-115.2
X241.025Y-123.625
X241.2Y-132.3
X241.225Y-136.825
X241.4Y-118.2
X242.05Y-129.0
X244.094Y-106.934
X244.5Y-133.3
X244.7Y-139.35
X245.0Y-117.6
X245.8Y-117.6
X246.0Y-96.0
X246.0Y-98.0
X246.0Y-100.0
X246.888Y-147.32
X246.888Y-149.606
X246.9Y-115.2
X247.4Y-127.0
X247.75Y-125.0
X247.904Y-107.188
X247.95Y-146.25
X248.0Y-96.0
X248.0Y-98.0
X248.0Y-100.0
X248.9Y-145.25
X248.92Y-118.872
X248.95Y-129.8
X249.275Y-101.525
X250.2Y-102.65
X250.25Y-128.874
X250.65Y-106.9
X250.65Y-109.0
X251.206Y-112.522
X251.5Y-95.5
X252.222Y-116.078
X252.222Y-118.872
X252.222Y-120.904
X252.3Y-129.6
X252.3Y-132.4
X252.5Y-145.4
X252.95Y-96.2
X253.0Y-125.5
X253.05Y-138.45
X253.05Y-141.7
X253.1Y-136.0
X253.6Y-131.4
X253.746Y-116.078
X253.746Y-118.872
X253.746Y-120.904
X254.5Y-95.5
X254.5Y-149.7
X254.55Y-134.2
X254.55Y-135.45
X254.55Y-141.2
X254.55Y-143.2
X254.55Y-145.2
X254.6Y-146.2
X254.6Y-147.9
X255.45Y-96.2
X255.6Y-118.2
X255.6Y-138.2
X255.625Y-107.475
X255.778Y-120.904
X255.8Y-125.6
X256.5Y-95.5
X257.2Y-134.2
X257.2Y-135.45
X257.5Y-146.1
X257.6Y-118.6
X257.8Y-107.475
X257.8Y-143.2
X258.425Y-121.375
X258.975Y-112.175
X259.1Y-114.3
X259.3Y-146.0
X259.425Y-111.675
X259.5Y-95.5
X260.4Y-146.0
X260.5Y-141.0
X260.6Y-124.7
X260.7Y-139.0
X261.0Y-115.2
X261.0Y-127.0
X261.0Y-129.0
X261.0Y-131.0
X261.125Y-133.0
X261.125Y-134.975
X261.4Y-146.0
X262.0Y-95.5
X262.875Y-127.0
X262.875Y-129.0
X262.875Y-131.0
X263.0Y-133.0
X263.0Y-134.975
X263.2Y-125.5
X263.8Y-124.5
X264.0Y-97.0
X264.0Y-99.0
X264.0Y-101.0
X264.0Y-103.0
X264.0Y-105.0
X264.0Y-107.0
T3
X225.3Y-123.3
X225.3Y-124.3
X225.8Y-123.8
X226.3Y-123.3
X226.3Y-124.3
T4
X260.1Y-118.25
X260.1Y-119.55
X261.1Y-118.25
X261.1Y-119.55
X262.1Y-118.25
X262.1Y-119.55
T6
X252.93Y-101.15
X252.93Y-103.69
X255.47Y-101.15
X255.47Y-103.69
X258.01Y-101.15
X258.01Y-103.69
X260.55Y-101.15
X260.55Y-103.69
T7
X188.373Y-97.232
X188.373Y-99.772
X190.913Y-97.232
X190.913Y-99.772
X193.453Y-97.232
X193.453Y-99.772
X195.993Y-97.232
X195.993Y-99.772
X198.533Y-97.232
X198.533Y-99.772
X201.073Y-97.232
X201.073Y-99.772
X203.613Y-97.232
X203.613Y-99.772
X206.153Y-97.232
X206.153Y-99.772
X208.693Y-97.232
X208.693Y-99.772
X211.233Y-97.232
X211.233Y-99.772
X213.773Y-97.232
X213.773Y-99.772
X216.313Y-97.232
X216.313Y-99.772
X218.853Y-97.232
X218.853Y-99.772
X221.393Y-97.232
X221.393Y-99.772
X223.933Y-97.232
X223.933Y-99.772
X226.473Y-97.232
X226.473Y-99.772
X229.013Y-97.232
X229.013Y-99.772
X231.553Y-97.232
X231.553Y-99.772
X234.093Y-97.232
X234.093Y-99.772
X236.633Y-97.232
X236.633Y-99.772
T8
X204.0Y-148.0
X209.08Y-148.0
X214.16Y-148.0
X219.24Y-148.0
X224.32Y-148.0
X230.365Y-148.0
X235.445Y-148.0
X251.3Y-148.0
X256.38Y-148.0
X261.46Y-148.0
T5
G00X189.68Y-145.87
M15
G01X189.68Y-144.77
M16
G05
G00X189.68Y-149.9
M15
G01X189.68Y-149.1
M16
G05
G00X198.32Y-145.87
M15
G01X198.32Y-144.77
M16
G05
G00X198.32Y-149.9
M15
G01X198.32Y-149.1
M16
G05
M30
