G04 #@! TF.GenerationSoftware,KiCad,Pcbnew,9.0.0*
G04 #@! TF.CreationDate,2025-10-19T17:53:15+02:00*
G04 #@! TF.ProjectId,AnthC,416e7468-432e-46b6-9963-61645f706362,M2-R5*
G04 #@! TF.SameCoordinates,Original*
G04 #@! TF.FileFunction,Other,ECO1*
%FSLAX46Y46*%
G04 Gerber Fmt 4.6, Leading zero omitted, Abs format (unit mm)*
G04 Created by KiCad (PCBNEW 9.0.0) date 2025-10-19 17:53:15*
%MOMM*%
%LPD*%
G01*
G04 APERTURE LIST*
%ADD10C,0.150000*%
%ADD11C,0.100000*%
G04 APERTURE END LIST*
D10*
X150284432Y-126076314D02*
X150283582Y-126552504D01*
X150283582Y-126552504D02*
X150759687Y-126600973D01*
X150759687Y-126600973D02*
X150712153Y-126553269D01*
X150712153Y-126553269D02*
X150664704Y-126457946D01*
X150664704Y-126457946D02*
X150665129Y-126219851D01*
X150665129Y-126219851D02*
X150712918Y-126124699D01*
X150712918Y-126124699D02*
X150760622Y-126077165D01*
X150760622Y-126077165D02*
X150855945Y-126029716D01*
X150855945Y-126029716D02*
X151094040Y-126030141D01*
X151094040Y-126030141D02*
X151189193Y-126077930D01*
X151189193Y-126077930D02*
X151236727Y-126125634D01*
X151236727Y-126125634D02*
X151284175Y-126220957D01*
X151284175Y-126220957D02*
X151283750Y-126459052D01*
X151283750Y-126459052D02*
X151235961Y-126554205D01*
X151235961Y-126554205D02*
X151188257Y-126601739D01*
X150286048Y-125171554D02*
X150285708Y-125362030D01*
X150285708Y-125362030D02*
X150333157Y-125457353D01*
X150333157Y-125457353D02*
X150380691Y-125505057D01*
X150380691Y-125505057D02*
X150523377Y-125600550D01*
X150523377Y-125600550D02*
X150713768Y-125648509D01*
X150713768Y-125648509D02*
X151094720Y-125649189D01*
X151094720Y-125649189D02*
X151190043Y-125601740D01*
X151190043Y-125601740D02*
X151237747Y-125554206D01*
X151237747Y-125554206D02*
X151285536Y-125459053D01*
X151285536Y-125459053D02*
X151285876Y-125268577D01*
X151285876Y-125268577D02*
X151238427Y-125173254D01*
X151238427Y-125173254D02*
X151190893Y-125125550D01*
X151190893Y-125125550D02*
X151095740Y-125077761D01*
X151095740Y-125077761D02*
X150857646Y-125077336D01*
X150857646Y-125077336D02*
X150762323Y-125124785D01*
X150762323Y-125124785D02*
X150714619Y-125172319D01*
X150714619Y-125172319D02*
X150666830Y-125267472D01*
X150666830Y-125267472D02*
X150666489Y-125457948D01*
X150666489Y-125457948D02*
X150713938Y-125553271D01*
X150713938Y-125553271D02*
X150761472Y-125600975D01*
X150761472Y-125600975D02*
X150856625Y-125648764D01*
X151191744Y-124649361D02*
X151239448Y-124601827D01*
X151239448Y-124601827D02*
X151286982Y-124649531D01*
X151286982Y-124649531D02*
X151239278Y-124697065D01*
X151239278Y-124697065D02*
X151191744Y-124649361D01*
X151191744Y-124649361D02*
X151286982Y-124649531D01*
X150288174Y-123981080D02*
X150288344Y-123885842D01*
X150288344Y-123885842D02*
X150336133Y-123790689D01*
X150336133Y-123790689D02*
X150383837Y-123743155D01*
X150383837Y-123743155D02*
X150479160Y-123695706D01*
X150479160Y-123695706D02*
X150669721Y-123648427D01*
X150669721Y-123648427D02*
X150907816Y-123648853D01*
X150907816Y-123648853D02*
X151098206Y-123696812D01*
X151098206Y-123696812D02*
X151193359Y-123744601D01*
X151193359Y-123744601D02*
X151240893Y-123792305D01*
X151240893Y-123792305D02*
X151288342Y-123887628D01*
X151288342Y-123887628D02*
X151288172Y-123982866D01*
X151288172Y-123982866D02*
X151240383Y-124078018D01*
X151240383Y-124078018D02*
X151192679Y-124125552D01*
X151192679Y-124125552D02*
X151097356Y-124173001D01*
X151097356Y-124173001D02*
X150906795Y-124220280D01*
X150906795Y-124220280D02*
X150668700Y-124219855D01*
X150668700Y-124219855D02*
X150478309Y-124171896D01*
X150478309Y-124171896D02*
X150383157Y-124124107D01*
X150383157Y-124124107D02*
X150335623Y-124076403D01*
X150335623Y-124076403D02*
X150288174Y-123981080D01*
X150289874Y-123028700D02*
X150290044Y-122933462D01*
X150290044Y-122933462D02*
X150337833Y-122838310D01*
X150337833Y-122838310D02*
X150385537Y-122790776D01*
X150385537Y-122790776D02*
X150480860Y-122743327D01*
X150480860Y-122743327D02*
X150671421Y-122696048D01*
X150671421Y-122696048D02*
X150909516Y-122696473D01*
X150909516Y-122696473D02*
X151099907Y-122744432D01*
X151099907Y-122744432D02*
X151195060Y-122792221D01*
X151195060Y-122792221D02*
X151242594Y-122839925D01*
X151242594Y-122839925D02*
X151290043Y-122935248D01*
X151290043Y-122935248D02*
X151289873Y-123030486D01*
X151289873Y-123030486D02*
X151242084Y-123125639D01*
X151242084Y-123125639D02*
X151194380Y-123173173D01*
X151194380Y-123173173D02*
X151099057Y-123220622D01*
X151099057Y-123220622D02*
X150908496Y-123267901D01*
X150908496Y-123267901D02*
X150670401Y-123267476D01*
X150670401Y-123267476D02*
X150480010Y-123219516D01*
X150480010Y-123219516D02*
X150384857Y-123171727D01*
X150384857Y-123171727D02*
X150337323Y-123124023D01*
X150337323Y-123124023D02*
X150289874Y-123028700D01*
X151292594Y-121506679D02*
X150625928Y-121505488D01*
X150721166Y-121505658D02*
X150673632Y-121457954D01*
X150673632Y-121457954D02*
X150626183Y-121362631D01*
X150626183Y-121362631D02*
X150626438Y-121219774D01*
X150626438Y-121219774D02*
X150674227Y-121124622D01*
X150674227Y-121124622D02*
X150769550Y-121077173D01*
X150769550Y-121077173D02*
X151293359Y-121078108D01*
X150769550Y-121077173D02*
X150674398Y-121029384D01*
X150674398Y-121029384D02*
X150626949Y-120934061D01*
X150626949Y-120934061D02*
X150627204Y-120791204D01*
X150627204Y-120791204D02*
X150674993Y-120696051D01*
X150674993Y-120696051D02*
X150770316Y-120648602D01*
X150770316Y-120648602D02*
X151294124Y-120649537D01*
X151294975Y-120173348D02*
X150628309Y-120172157D01*
X150723547Y-120172327D02*
X150676013Y-120124623D01*
X150676013Y-120124623D02*
X150628564Y-120029300D01*
X150628564Y-120029300D02*
X150628819Y-119886444D01*
X150628819Y-119886444D02*
X150676608Y-119791291D01*
X150676608Y-119791291D02*
X150771931Y-119743842D01*
X150771931Y-119743842D02*
X151295740Y-119744777D01*
X150771931Y-119743842D02*
X150676778Y-119696053D01*
X150676778Y-119696053D02*
X150629330Y-119600730D01*
X150629330Y-119600730D02*
X150629585Y-119457873D01*
X150629585Y-119457873D02*
X150677374Y-119362720D01*
X150677374Y-119362720D02*
X150772697Y-119315271D01*
X150772697Y-119315271D02*
X151296505Y-119316206D01*
D11*
X187100001Y-94999107D02*
X151448804Y-94935444D01*
X187000001Y-150999107D02*
X151348804Y-150935444D01*
X152035223Y-94936491D02*
X151935223Y-150936491D01*
X152035223Y-94936491D02*
X151935223Y-150936491D01*
X152035223Y-94936491D02*
X152619631Y-96064040D01*
X152035223Y-94936491D02*
X151446792Y-96061946D01*
X151935223Y-150936491D02*
X151350815Y-149808942D01*
X151935223Y-150936491D02*
X152523654Y-149811036D01*
X152035223Y-94936491D02*
X151935223Y-150936491D01*
X152035223Y-94936491D02*
X151935223Y-150936491D01*
X152035223Y-94936491D02*
X152619631Y-96064040D01*
X152035223Y-94936491D02*
X151446792Y-96061946D01*
X151935223Y-150936491D02*
X151350815Y-149808942D01*
X151935223Y-150936491D02*
X152523654Y-149811036D01*
D10*
X218995336Y-78349038D02*
X218900042Y-78301531D01*
X218900042Y-78301531D02*
X218852367Y-78253968D01*
X218852367Y-78253968D02*
X218804636Y-78158786D01*
X218804636Y-78158786D02*
X218804580Y-78111167D01*
X218804580Y-78111167D02*
X218852087Y-78015873D01*
X218852087Y-78015873D02*
X218899650Y-77968198D01*
X218899650Y-77968198D02*
X218994832Y-77920467D01*
X218994832Y-77920467D02*
X219185308Y-77920242D01*
X219185308Y-77920242D02*
X219280602Y-77967749D01*
X219280602Y-77967749D02*
X219328277Y-78015312D01*
X219328277Y-78015312D02*
X219376008Y-78110494D01*
X219376008Y-78110494D02*
X219376064Y-78158113D01*
X219376064Y-78158113D02*
X219328557Y-78253408D01*
X219328557Y-78253408D02*
X219280994Y-78301083D01*
X219280994Y-78301083D02*
X219185812Y-78348814D01*
X219185812Y-78348814D02*
X218995336Y-78349038D01*
X218995336Y-78349038D02*
X218900154Y-78396769D01*
X218900154Y-78396769D02*
X218852591Y-78444444D01*
X218852591Y-78444444D02*
X218805084Y-78539738D01*
X218805084Y-78539738D02*
X218805308Y-78730214D01*
X218805308Y-78730214D02*
X218853039Y-78825396D01*
X218853039Y-78825396D02*
X218900714Y-78872959D01*
X218900714Y-78872959D02*
X218996008Y-78920466D01*
X218996008Y-78920466D02*
X219186484Y-78920242D01*
X219186484Y-78920242D02*
X219281666Y-78872511D01*
X219281666Y-78872511D02*
X219329229Y-78824836D01*
X219329229Y-78824836D02*
X219376736Y-78729542D01*
X219376736Y-78729542D02*
X219376512Y-78539066D01*
X219376512Y-78539066D02*
X219328781Y-78443884D01*
X219328781Y-78443884D02*
X219281106Y-78396321D01*
X219281106Y-78396321D02*
X219185812Y-78348814D01*
X220280545Y-77918954D02*
X219804355Y-77919514D01*
X219804355Y-77919514D02*
X219757296Y-78395760D01*
X219757296Y-78395760D02*
X219804859Y-78348085D01*
X219804859Y-78348085D02*
X219900041Y-78300354D01*
X219900041Y-78300354D02*
X220138136Y-78300074D01*
X220138136Y-78300074D02*
X220233431Y-78347581D01*
X220233431Y-78347581D02*
X220281106Y-78395144D01*
X220281106Y-78395144D02*
X220328837Y-78490326D01*
X220328837Y-78490326D02*
X220329117Y-78728421D01*
X220329117Y-78728421D02*
X220281610Y-78823715D01*
X220281610Y-78823715D02*
X220234047Y-78871390D01*
X220234047Y-78871390D02*
X220138865Y-78919121D01*
X220138865Y-78919121D02*
X219900770Y-78919401D01*
X219900770Y-78919401D02*
X219805476Y-78871894D01*
X219805476Y-78871894D02*
X219757801Y-78824331D01*
X220757800Y-78823155D02*
X220805475Y-78870718D01*
X220805475Y-78870718D02*
X220757912Y-78918393D01*
X220757912Y-78918393D02*
X220710237Y-78870830D01*
X220710237Y-78870830D02*
X220757800Y-78823155D01*
X220757800Y-78823155D02*
X220757912Y-78918393D01*
X221423401Y-77917609D02*
X221518639Y-77917497D01*
X221518639Y-77917497D02*
X221613933Y-77965004D01*
X221613933Y-77965004D02*
X221661608Y-78012567D01*
X221661608Y-78012567D02*
X221709339Y-78107749D01*
X221709339Y-78107749D02*
X221757183Y-78298169D01*
X221757183Y-78298169D02*
X221757463Y-78536264D01*
X221757463Y-78536264D02*
X221710068Y-78726797D01*
X221710068Y-78726797D02*
X221662561Y-78822091D01*
X221662561Y-78822091D02*
X221614998Y-78869766D01*
X221614998Y-78869766D02*
X221519816Y-78917497D01*
X221519816Y-78917497D02*
X221424578Y-78917609D01*
X221424578Y-78917609D02*
X221329284Y-78870102D01*
X221329284Y-78870102D02*
X221281609Y-78822539D01*
X221281609Y-78822539D02*
X221233878Y-78727357D01*
X221233878Y-78727357D02*
X221186034Y-78536937D01*
X221186034Y-78536937D02*
X221185754Y-78298842D01*
X221185754Y-78298842D02*
X221233149Y-78108310D01*
X221233149Y-78108310D02*
X221280656Y-78013016D01*
X221280656Y-78013016D02*
X221328219Y-77965340D01*
X221328219Y-77965340D02*
X221423401Y-77917609D01*
X222375782Y-77916489D02*
X222471020Y-77916377D01*
X222471020Y-77916377D02*
X222566314Y-77963884D01*
X222566314Y-77963884D02*
X222613989Y-78011447D01*
X222613989Y-78011447D02*
X222661720Y-78106629D01*
X222661720Y-78106629D02*
X222709563Y-78297049D01*
X222709563Y-78297049D02*
X222709843Y-78535144D01*
X222709843Y-78535144D02*
X222662448Y-78725676D01*
X222662448Y-78725676D02*
X222614941Y-78820970D01*
X222614941Y-78820970D02*
X222567378Y-78868645D01*
X222567378Y-78868645D02*
X222472196Y-78916376D01*
X222472196Y-78916376D02*
X222376958Y-78916488D01*
X222376958Y-78916488D02*
X222281664Y-78868981D01*
X222281664Y-78868981D02*
X222233989Y-78821418D01*
X222233989Y-78821418D02*
X222186258Y-78726236D01*
X222186258Y-78726236D02*
X222138415Y-78535816D01*
X222138415Y-78535816D02*
X222138135Y-78297721D01*
X222138135Y-78297721D02*
X222185530Y-78107189D01*
X222185530Y-78107189D02*
X222233037Y-78011895D01*
X222233037Y-78011895D02*
X222280600Y-77964220D01*
X222280600Y-77964220D02*
X222375782Y-77916489D01*
X223900767Y-78914696D02*
X223899983Y-78248029D01*
X223900095Y-78343267D02*
X223947658Y-78295592D01*
X223947658Y-78295592D02*
X224042840Y-78247861D01*
X224042840Y-78247861D02*
X224185697Y-78247693D01*
X224185697Y-78247693D02*
X224280991Y-78295200D01*
X224280991Y-78295200D02*
X224328722Y-78390382D01*
X224328722Y-78390382D02*
X224329338Y-78914191D01*
X224328722Y-78390382D02*
X224376229Y-78295088D01*
X224376229Y-78295088D02*
X224471411Y-78247357D01*
X224471411Y-78247357D02*
X224614268Y-78247189D01*
X224614268Y-78247189D02*
X224709562Y-78294696D01*
X224709562Y-78294696D02*
X224757293Y-78389878D01*
X224757293Y-78389878D02*
X224757909Y-78913687D01*
X225234099Y-78913127D02*
X225233315Y-78246461D01*
X225233427Y-78341699D02*
X225280990Y-78294024D01*
X225280990Y-78294024D02*
X225376172Y-78246293D01*
X225376172Y-78246293D02*
X225519029Y-78246125D01*
X225519029Y-78246125D02*
X225614323Y-78293632D01*
X225614323Y-78293632D02*
X225662054Y-78388814D01*
X225662054Y-78388814D02*
X225662670Y-78912623D01*
X225662054Y-78388814D02*
X225709561Y-78293520D01*
X225709561Y-78293520D02*
X225804743Y-78245788D01*
X225804743Y-78245788D02*
X225947600Y-78245620D01*
X225947600Y-78245620D02*
X226042894Y-78293127D01*
X226042894Y-78293127D02*
X226090625Y-78388309D01*
X226090625Y-78388309D02*
X226091241Y-78912119D01*
D11*
X179999412Y-102100000D02*
X179972324Y-79075137D01*
X264999412Y-102000000D02*
X264972324Y-78975137D01*
X179973014Y-79661557D02*
X264973014Y-79561557D01*
X179973014Y-79661557D02*
X264973014Y-79561557D01*
X179973014Y-79661557D02*
X181098827Y-79073811D01*
X179973014Y-79661557D02*
X181100207Y-80246652D01*
X264973014Y-79561557D02*
X263847201Y-80149303D01*
X264973014Y-79561557D02*
X263845821Y-78976462D01*
X179973014Y-79661557D02*
X264973014Y-79561557D01*
X179973014Y-79661557D02*
X264973014Y-79561557D01*
X179973014Y-79661557D02*
X181098827Y-79073811D01*
X179973014Y-79661557D02*
X181100207Y-80246652D01*
X264973014Y-79561557D02*
X263847201Y-80149303D01*
X264973014Y-79561557D02*
X263845821Y-78976462D01*
D10*
X158688152Y-126190475D02*
X159354819Y-126190475D01*
X158307200Y-126428570D02*
X159021485Y-126666665D01*
X159021485Y-126666665D02*
X159021485Y-126047618D01*
X159354819Y-125619046D02*
X159354819Y-125428570D01*
X159354819Y-125428570D02*
X159307200Y-125333332D01*
X159307200Y-125333332D02*
X159259580Y-125285713D01*
X159259580Y-125285713D02*
X159116723Y-125190475D01*
X159116723Y-125190475D02*
X158926247Y-125142856D01*
X158926247Y-125142856D02*
X158545295Y-125142856D01*
X158545295Y-125142856D02*
X158450057Y-125190475D01*
X158450057Y-125190475D02*
X158402438Y-125238094D01*
X158402438Y-125238094D02*
X158354819Y-125333332D01*
X158354819Y-125333332D02*
X158354819Y-125523808D01*
X158354819Y-125523808D02*
X158402438Y-125619046D01*
X158402438Y-125619046D02*
X158450057Y-125666665D01*
X158450057Y-125666665D02*
X158545295Y-125714284D01*
X158545295Y-125714284D02*
X158783390Y-125714284D01*
X158783390Y-125714284D02*
X158878628Y-125666665D01*
X158878628Y-125666665D02*
X158926247Y-125619046D01*
X158926247Y-125619046D02*
X158973866Y-125523808D01*
X158973866Y-125523808D02*
X158973866Y-125333332D01*
X158973866Y-125333332D02*
X158926247Y-125238094D01*
X158926247Y-125238094D02*
X158878628Y-125190475D01*
X158878628Y-125190475D02*
X158783390Y-125142856D01*
X159259580Y-124714284D02*
X159307200Y-124666665D01*
X159307200Y-124666665D02*
X159354819Y-124714284D01*
X159354819Y-124714284D02*
X159307200Y-124761903D01*
X159307200Y-124761903D02*
X159259580Y-124714284D01*
X159259580Y-124714284D02*
X159354819Y-124714284D01*
X158354819Y-124047618D02*
X158354819Y-123952380D01*
X158354819Y-123952380D02*
X158402438Y-123857142D01*
X158402438Y-123857142D02*
X158450057Y-123809523D01*
X158450057Y-123809523D02*
X158545295Y-123761904D01*
X158545295Y-123761904D02*
X158735771Y-123714285D01*
X158735771Y-123714285D02*
X158973866Y-123714285D01*
X158973866Y-123714285D02*
X159164342Y-123761904D01*
X159164342Y-123761904D02*
X159259580Y-123809523D01*
X159259580Y-123809523D02*
X159307200Y-123857142D01*
X159307200Y-123857142D02*
X159354819Y-123952380D01*
X159354819Y-123952380D02*
X159354819Y-124047618D01*
X159354819Y-124047618D02*
X159307200Y-124142856D01*
X159307200Y-124142856D02*
X159259580Y-124190475D01*
X159259580Y-124190475D02*
X159164342Y-124238094D01*
X159164342Y-124238094D02*
X158973866Y-124285713D01*
X158973866Y-124285713D02*
X158735771Y-124285713D01*
X158735771Y-124285713D02*
X158545295Y-124238094D01*
X158545295Y-124238094D02*
X158450057Y-124190475D01*
X158450057Y-124190475D02*
X158402438Y-124142856D01*
X158402438Y-124142856D02*
X158354819Y-124047618D01*
X158354819Y-123095237D02*
X158354819Y-122999999D01*
X158354819Y-122999999D02*
X158402438Y-122904761D01*
X158402438Y-122904761D02*
X158450057Y-122857142D01*
X158450057Y-122857142D02*
X158545295Y-122809523D01*
X158545295Y-122809523D02*
X158735771Y-122761904D01*
X158735771Y-122761904D02*
X158973866Y-122761904D01*
X158973866Y-122761904D02*
X159164342Y-122809523D01*
X159164342Y-122809523D02*
X159259580Y-122857142D01*
X159259580Y-122857142D02*
X159307200Y-122904761D01*
X159307200Y-122904761D02*
X159354819Y-122999999D01*
X159354819Y-122999999D02*
X159354819Y-123095237D01*
X159354819Y-123095237D02*
X159307200Y-123190475D01*
X159307200Y-123190475D02*
X159259580Y-123238094D01*
X159259580Y-123238094D02*
X159164342Y-123285713D01*
X159164342Y-123285713D02*
X158973866Y-123333332D01*
X158973866Y-123333332D02*
X158735771Y-123333332D01*
X158735771Y-123333332D02*
X158545295Y-123285713D01*
X158545295Y-123285713D02*
X158450057Y-123238094D01*
X158450057Y-123238094D02*
X158402438Y-123190475D01*
X158402438Y-123190475D02*
X158354819Y-123095237D01*
X159354819Y-121571427D02*
X158688152Y-121571427D01*
X158783390Y-121571427D02*
X158735771Y-121523808D01*
X158735771Y-121523808D02*
X158688152Y-121428570D01*
X158688152Y-121428570D02*
X158688152Y-121285713D01*
X158688152Y-121285713D02*
X158735771Y-121190475D01*
X158735771Y-121190475D02*
X158831009Y-121142856D01*
X158831009Y-121142856D02*
X159354819Y-121142856D01*
X158831009Y-121142856D02*
X158735771Y-121095237D01*
X158735771Y-121095237D02*
X158688152Y-120999999D01*
X158688152Y-120999999D02*
X158688152Y-120857142D01*
X158688152Y-120857142D02*
X158735771Y-120761903D01*
X158735771Y-120761903D02*
X158831009Y-120714284D01*
X158831009Y-120714284D02*
X159354819Y-120714284D01*
X159354819Y-120238094D02*
X158688152Y-120238094D01*
X158783390Y-120238094D02*
X158735771Y-120190475D01*
X158735771Y-120190475D02*
X158688152Y-120095237D01*
X158688152Y-120095237D02*
X158688152Y-119952380D01*
X158688152Y-119952380D02*
X158735771Y-119857142D01*
X158735771Y-119857142D02*
X158831009Y-119809523D01*
X158831009Y-119809523D02*
X159354819Y-119809523D01*
X158831009Y-119809523D02*
X158735771Y-119761904D01*
X158735771Y-119761904D02*
X158688152Y-119666666D01*
X158688152Y-119666666D02*
X158688152Y-119523809D01*
X158688152Y-119523809D02*
X158735771Y-119428570D01*
X158735771Y-119428570D02*
X158831009Y-119380951D01*
X158831009Y-119380951D02*
X159354819Y-119380951D01*
X183500000Y-98500000D02*
X159463580Y-98500000D01*
X183500000Y-147500000D02*
X159463580Y-147500000D01*
X160050000Y-98500000D02*
X160050000Y-147500000D01*
X160050000Y-98500000D02*
X160050000Y-147500000D01*
X160050000Y-98500000D02*
X160636421Y-99626504D01*
X160050000Y-98500000D02*
X159463579Y-99626504D01*
X160050000Y-147500000D02*
X159463579Y-146373496D01*
X160050000Y-147500000D02*
X160636421Y-146373496D01*
X160050000Y-98500000D02*
X160050000Y-147500000D01*
X160050000Y-98500000D02*
X160050000Y-147500000D01*
X160050000Y-98500000D02*
X160636421Y-99626504D01*
X160050000Y-98500000D02*
X159463579Y-99626504D01*
X160050000Y-147500000D02*
X159463579Y-146373496D01*
X160050000Y-147500000D02*
X160636421Y-146373496D01*
X209357143Y-85004819D02*
X208880953Y-85004819D01*
X208880953Y-85004819D02*
X208833334Y-85481009D01*
X208833334Y-85481009D02*
X208880953Y-85433390D01*
X208880953Y-85433390D02*
X208976191Y-85385771D01*
X208976191Y-85385771D02*
X209214286Y-85385771D01*
X209214286Y-85385771D02*
X209309524Y-85433390D01*
X209309524Y-85433390D02*
X209357143Y-85481009D01*
X209357143Y-85481009D02*
X209404762Y-85576247D01*
X209404762Y-85576247D02*
X209404762Y-85814342D01*
X209404762Y-85814342D02*
X209357143Y-85909580D01*
X209357143Y-85909580D02*
X209309524Y-85957200D01*
X209309524Y-85957200D02*
X209214286Y-86004819D01*
X209214286Y-86004819D02*
X208976191Y-86004819D01*
X208976191Y-86004819D02*
X208880953Y-85957200D01*
X208880953Y-85957200D02*
X208833334Y-85909580D01*
X209976191Y-85433390D02*
X209880953Y-85385771D01*
X209880953Y-85385771D02*
X209833334Y-85338152D01*
X209833334Y-85338152D02*
X209785715Y-85242914D01*
X209785715Y-85242914D02*
X209785715Y-85195295D01*
X209785715Y-85195295D02*
X209833334Y-85100057D01*
X209833334Y-85100057D02*
X209880953Y-85052438D01*
X209880953Y-85052438D02*
X209976191Y-85004819D01*
X209976191Y-85004819D02*
X210166667Y-85004819D01*
X210166667Y-85004819D02*
X210261905Y-85052438D01*
X210261905Y-85052438D02*
X210309524Y-85100057D01*
X210309524Y-85100057D02*
X210357143Y-85195295D01*
X210357143Y-85195295D02*
X210357143Y-85242914D01*
X210357143Y-85242914D02*
X210309524Y-85338152D01*
X210309524Y-85338152D02*
X210261905Y-85385771D01*
X210261905Y-85385771D02*
X210166667Y-85433390D01*
X210166667Y-85433390D02*
X209976191Y-85433390D01*
X209976191Y-85433390D02*
X209880953Y-85481009D01*
X209880953Y-85481009D02*
X209833334Y-85528628D01*
X209833334Y-85528628D02*
X209785715Y-85623866D01*
X209785715Y-85623866D02*
X209785715Y-85814342D01*
X209785715Y-85814342D02*
X209833334Y-85909580D01*
X209833334Y-85909580D02*
X209880953Y-85957200D01*
X209880953Y-85957200D02*
X209976191Y-86004819D01*
X209976191Y-86004819D02*
X210166667Y-86004819D01*
X210166667Y-86004819D02*
X210261905Y-85957200D01*
X210261905Y-85957200D02*
X210309524Y-85909580D01*
X210309524Y-85909580D02*
X210357143Y-85814342D01*
X210357143Y-85814342D02*
X210357143Y-85623866D01*
X210357143Y-85623866D02*
X210309524Y-85528628D01*
X210309524Y-85528628D02*
X210261905Y-85481009D01*
X210261905Y-85481009D02*
X210166667Y-85433390D01*
X210785715Y-85909580D02*
X210833334Y-85957200D01*
X210833334Y-85957200D02*
X210785715Y-86004819D01*
X210785715Y-86004819D02*
X210738096Y-85957200D01*
X210738096Y-85957200D02*
X210785715Y-85909580D01*
X210785715Y-85909580D02*
X210785715Y-86004819D01*
X211452381Y-85004819D02*
X211547619Y-85004819D01*
X211547619Y-85004819D02*
X211642857Y-85052438D01*
X211642857Y-85052438D02*
X211690476Y-85100057D01*
X211690476Y-85100057D02*
X211738095Y-85195295D01*
X211738095Y-85195295D02*
X211785714Y-85385771D01*
X211785714Y-85385771D02*
X211785714Y-85623866D01*
X211785714Y-85623866D02*
X211738095Y-85814342D01*
X211738095Y-85814342D02*
X211690476Y-85909580D01*
X211690476Y-85909580D02*
X211642857Y-85957200D01*
X211642857Y-85957200D02*
X211547619Y-86004819D01*
X211547619Y-86004819D02*
X211452381Y-86004819D01*
X211452381Y-86004819D02*
X211357143Y-85957200D01*
X211357143Y-85957200D02*
X211309524Y-85909580D01*
X211309524Y-85909580D02*
X211261905Y-85814342D01*
X211261905Y-85814342D02*
X211214286Y-85623866D01*
X211214286Y-85623866D02*
X211214286Y-85385771D01*
X211214286Y-85385771D02*
X211261905Y-85195295D01*
X211261905Y-85195295D02*
X211309524Y-85100057D01*
X211309524Y-85100057D02*
X211357143Y-85052438D01*
X211357143Y-85052438D02*
X211452381Y-85004819D01*
X212404762Y-85004819D02*
X212500000Y-85004819D01*
X212500000Y-85004819D02*
X212595238Y-85052438D01*
X212595238Y-85052438D02*
X212642857Y-85100057D01*
X212642857Y-85100057D02*
X212690476Y-85195295D01*
X212690476Y-85195295D02*
X212738095Y-85385771D01*
X212738095Y-85385771D02*
X212738095Y-85623866D01*
X212738095Y-85623866D02*
X212690476Y-85814342D01*
X212690476Y-85814342D02*
X212642857Y-85909580D01*
X212642857Y-85909580D02*
X212595238Y-85957200D01*
X212595238Y-85957200D02*
X212500000Y-86004819D01*
X212500000Y-86004819D02*
X212404762Y-86004819D01*
X212404762Y-86004819D02*
X212309524Y-85957200D01*
X212309524Y-85957200D02*
X212261905Y-85909580D01*
X212261905Y-85909580D02*
X212214286Y-85814342D01*
X212214286Y-85814342D02*
X212166667Y-85623866D01*
X212166667Y-85623866D02*
X212166667Y-85385771D01*
X212166667Y-85385771D02*
X212214286Y-85195295D01*
X212214286Y-85195295D02*
X212261905Y-85100057D01*
X212261905Y-85100057D02*
X212309524Y-85052438D01*
X212309524Y-85052438D02*
X212404762Y-85004819D01*
X213928572Y-86004819D02*
X213928572Y-85338152D01*
X213928572Y-85433390D02*
X213976191Y-85385771D01*
X213976191Y-85385771D02*
X214071429Y-85338152D01*
X214071429Y-85338152D02*
X214214286Y-85338152D01*
X214214286Y-85338152D02*
X214309524Y-85385771D01*
X214309524Y-85385771D02*
X214357143Y-85481009D01*
X214357143Y-85481009D02*
X214357143Y-86004819D01*
X214357143Y-85481009D02*
X214404762Y-85385771D01*
X214404762Y-85385771D02*
X214500000Y-85338152D01*
X214500000Y-85338152D02*
X214642857Y-85338152D01*
X214642857Y-85338152D02*
X214738096Y-85385771D01*
X214738096Y-85385771D02*
X214785715Y-85481009D01*
X214785715Y-85481009D02*
X214785715Y-86004819D01*
X215261905Y-86004819D02*
X215261905Y-85338152D01*
X215261905Y-85433390D02*
X215309524Y-85385771D01*
X215309524Y-85385771D02*
X215404762Y-85338152D01*
X215404762Y-85338152D02*
X215547619Y-85338152D01*
X215547619Y-85338152D02*
X215642857Y-85385771D01*
X215642857Y-85385771D02*
X215690476Y-85481009D01*
X215690476Y-85481009D02*
X215690476Y-86004819D01*
X215690476Y-85481009D02*
X215738095Y-85385771D01*
X215738095Y-85385771D02*
X215833333Y-85338152D01*
X215833333Y-85338152D02*
X215976190Y-85338152D01*
X215976190Y-85338152D02*
X216071429Y-85385771D01*
X216071429Y-85385771D02*
X216119048Y-85481009D01*
X216119048Y-85481009D02*
X216119048Y-86004819D01*
X241500000Y-98500000D02*
X241500000Y-86113580D01*
X183500000Y-98500000D02*
X183500000Y-86113580D01*
X241500000Y-86700000D02*
X183500000Y-86700000D01*
X241500000Y-86700000D02*
X183500000Y-86700000D01*
X241500000Y-86700000D02*
X240373496Y-87286421D01*
X241500000Y-86700000D02*
X240373496Y-86113579D01*
X183500000Y-86700000D02*
X184626504Y-86113579D01*
X183500000Y-86700000D02*
X184626504Y-87286421D01*
X241500000Y-86700000D02*
X183500000Y-86700000D01*
X241500000Y-86700000D02*
X183500000Y-86700000D01*
X241500000Y-86700000D02*
X240373496Y-87286421D01*
X241500000Y-86700000D02*
X240373496Y-86113579D01*
X183500000Y-86700000D02*
X184626504Y-86113579D01*
X183500000Y-86700000D02*
X184626504Y-87286421D01*
X209357143Y-162004818D02*
X208880953Y-162004818D01*
X208880953Y-162004818D02*
X208833334Y-162481008D01*
X208833334Y-162481008D02*
X208880953Y-162433389D01*
X208880953Y-162433389D02*
X208976191Y-162385770D01*
X208976191Y-162385770D02*
X209214286Y-162385770D01*
X209214286Y-162385770D02*
X209309524Y-162433389D01*
X209309524Y-162433389D02*
X209357143Y-162481008D01*
X209357143Y-162481008D02*
X209404762Y-162576246D01*
X209404762Y-162576246D02*
X209404762Y-162814341D01*
X209404762Y-162814341D02*
X209357143Y-162909579D01*
X209357143Y-162909579D02*
X209309524Y-162957199D01*
X209309524Y-162957199D02*
X209214286Y-163004818D01*
X209214286Y-163004818D02*
X208976191Y-163004818D01*
X208976191Y-163004818D02*
X208880953Y-162957199D01*
X208880953Y-162957199D02*
X208833334Y-162909579D01*
X209976191Y-162433389D02*
X209880953Y-162385770D01*
X209880953Y-162385770D02*
X209833334Y-162338151D01*
X209833334Y-162338151D02*
X209785715Y-162242913D01*
X209785715Y-162242913D02*
X209785715Y-162195294D01*
X209785715Y-162195294D02*
X209833334Y-162100056D01*
X209833334Y-162100056D02*
X209880953Y-162052437D01*
X209880953Y-162052437D02*
X209976191Y-162004818D01*
X209976191Y-162004818D02*
X210166667Y-162004818D01*
X210166667Y-162004818D02*
X210261905Y-162052437D01*
X210261905Y-162052437D02*
X210309524Y-162100056D01*
X210309524Y-162100056D02*
X210357143Y-162195294D01*
X210357143Y-162195294D02*
X210357143Y-162242913D01*
X210357143Y-162242913D02*
X210309524Y-162338151D01*
X210309524Y-162338151D02*
X210261905Y-162385770D01*
X210261905Y-162385770D02*
X210166667Y-162433389D01*
X210166667Y-162433389D02*
X209976191Y-162433389D01*
X209976191Y-162433389D02*
X209880953Y-162481008D01*
X209880953Y-162481008D02*
X209833334Y-162528627D01*
X209833334Y-162528627D02*
X209785715Y-162623865D01*
X209785715Y-162623865D02*
X209785715Y-162814341D01*
X209785715Y-162814341D02*
X209833334Y-162909579D01*
X209833334Y-162909579D02*
X209880953Y-162957199D01*
X209880953Y-162957199D02*
X209976191Y-163004818D01*
X209976191Y-163004818D02*
X210166667Y-163004818D01*
X210166667Y-163004818D02*
X210261905Y-162957199D01*
X210261905Y-162957199D02*
X210309524Y-162909579D01*
X210309524Y-162909579D02*
X210357143Y-162814341D01*
X210357143Y-162814341D02*
X210357143Y-162623865D01*
X210357143Y-162623865D02*
X210309524Y-162528627D01*
X210309524Y-162528627D02*
X210261905Y-162481008D01*
X210261905Y-162481008D02*
X210166667Y-162433389D01*
X210785715Y-162909579D02*
X210833334Y-162957199D01*
X210833334Y-162957199D02*
X210785715Y-163004818D01*
X210785715Y-163004818D02*
X210738096Y-162957199D01*
X210738096Y-162957199D02*
X210785715Y-162909579D01*
X210785715Y-162909579D02*
X210785715Y-163004818D01*
X211452381Y-162004818D02*
X211547619Y-162004818D01*
X211547619Y-162004818D02*
X211642857Y-162052437D01*
X211642857Y-162052437D02*
X211690476Y-162100056D01*
X211690476Y-162100056D02*
X211738095Y-162195294D01*
X211738095Y-162195294D02*
X211785714Y-162385770D01*
X211785714Y-162385770D02*
X211785714Y-162623865D01*
X211785714Y-162623865D02*
X211738095Y-162814341D01*
X211738095Y-162814341D02*
X211690476Y-162909579D01*
X211690476Y-162909579D02*
X211642857Y-162957199D01*
X211642857Y-162957199D02*
X211547619Y-163004818D01*
X211547619Y-163004818D02*
X211452381Y-163004818D01*
X211452381Y-163004818D02*
X211357143Y-162957199D01*
X211357143Y-162957199D02*
X211309524Y-162909579D01*
X211309524Y-162909579D02*
X211261905Y-162814341D01*
X211261905Y-162814341D02*
X211214286Y-162623865D01*
X211214286Y-162623865D02*
X211214286Y-162385770D01*
X211214286Y-162385770D02*
X211261905Y-162195294D01*
X211261905Y-162195294D02*
X211309524Y-162100056D01*
X211309524Y-162100056D02*
X211357143Y-162052437D01*
X211357143Y-162052437D02*
X211452381Y-162004818D01*
X212404762Y-162004818D02*
X212500000Y-162004818D01*
X212500000Y-162004818D02*
X212595238Y-162052437D01*
X212595238Y-162052437D02*
X212642857Y-162100056D01*
X212642857Y-162100056D02*
X212690476Y-162195294D01*
X212690476Y-162195294D02*
X212738095Y-162385770D01*
X212738095Y-162385770D02*
X212738095Y-162623865D01*
X212738095Y-162623865D02*
X212690476Y-162814341D01*
X212690476Y-162814341D02*
X212642857Y-162909579D01*
X212642857Y-162909579D02*
X212595238Y-162957199D01*
X212595238Y-162957199D02*
X212500000Y-163004818D01*
X212500000Y-163004818D02*
X212404762Y-163004818D01*
X212404762Y-163004818D02*
X212309524Y-162957199D01*
X212309524Y-162957199D02*
X212261905Y-162909579D01*
X212261905Y-162909579D02*
X212214286Y-162814341D01*
X212214286Y-162814341D02*
X212166667Y-162623865D01*
X212166667Y-162623865D02*
X212166667Y-162385770D01*
X212166667Y-162385770D02*
X212214286Y-162195294D01*
X212214286Y-162195294D02*
X212261905Y-162100056D01*
X212261905Y-162100056D02*
X212309524Y-162052437D01*
X212309524Y-162052437D02*
X212404762Y-162004818D01*
X213928572Y-163004818D02*
X213928572Y-162338151D01*
X213928572Y-162433389D02*
X213976191Y-162385770D01*
X213976191Y-162385770D02*
X214071429Y-162338151D01*
X214071429Y-162338151D02*
X214214286Y-162338151D01*
X214214286Y-162338151D02*
X214309524Y-162385770D01*
X214309524Y-162385770D02*
X214357143Y-162481008D01*
X214357143Y-162481008D02*
X214357143Y-163004818D01*
X214357143Y-162481008D02*
X214404762Y-162385770D01*
X214404762Y-162385770D02*
X214500000Y-162338151D01*
X214500000Y-162338151D02*
X214642857Y-162338151D01*
X214642857Y-162338151D02*
X214738096Y-162385770D01*
X214738096Y-162385770D02*
X214785715Y-162481008D01*
X214785715Y-162481008D02*
X214785715Y-163004818D01*
X215261905Y-163004818D02*
X215261905Y-162338151D01*
X215261905Y-162433389D02*
X215309524Y-162385770D01*
X215309524Y-162385770D02*
X215404762Y-162338151D01*
X215404762Y-162338151D02*
X215547619Y-162338151D01*
X215547619Y-162338151D02*
X215642857Y-162385770D01*
X215642857Y-162385770D02*
X215690476Y-162481008D01*
X215690476Y-162481008D02*
X215690476Y-163004818D01*
X215690476Y-162481008D02*
X215738095Y-162385770D01*
X215738095Y-162385770D02*
X215833333Y-162338151D01*
X215833333Y-162338151D02*
X215976190Y-162338151D01*
X215976190Y-162338151D02*
X216071429Y-162385770D01*
X216071429Y-162385770D02*
X216119048Y-162481008D01*
X216119048Y-162481008D02*
X216119048Y-163004818D01*
X241500000Y-147500000D02*
X241500000Y-164286419D01*
X183500000Y-147500000D02*
X183500000Y-164286419D01*
X241500000Y-163699999D02*
X183500000Y-163699999D01*
X241500000Y-163699999D02*
X183500000Y-163699999D01*
X241500000Y-163699999D02*
X240373496Y-164286420D01*
X241500000Y-163699999D02*
X240373496Y-163113578D01*
X183500000Y-163699999D02*
X184626504Y-163113578D01*
X183500000Y-163699999D02*
X184626504Y-164286420D01*
X241500000Y-163699999D02*
X183500000Y-163699999D01*
X241500000Y-163699999D02*
X183500000Y-163699999D01*
X241500000Y-163699999D02*
X240373496Y-164286420D01*
X241500000Y-163699999D02*
X240373496Y-163113578D01*
X183500000Y-163699999D02*
X184626504Y-163113578D01*
X183500000Y-163699999D02*
X184626504Y-164286420D01*
X163769912Y-151684404D02*
X163436579Y-151208213D01*
X163198484Y-151684404D02*
X163198484Y-150684404D01*
X163198484Y-150684404D02*
X163579436Y-150684404D01*
X163579436Y-150684404D02*
X163674674Y-150732023D01*
X163674674Y-150732023D02*
X163722293Y-150779642D01*
X163722293Y-150779642D02*
X163769912Y-150874880D01*
X163769912Y-150874880D02*
X163769912Y-151017737D01*
X163769912Y-151017737D02*
X163722293Y-151112975D01*
X163722293Y-151112975D02*
X163674674Y-151160594D01*
X163674674Y-151160594D02*
X163579436Y-151208213D01*
X163579436Y-151208213D02*
X163198484Y-151208213D01*
X165484198Y-151684404D02*
X164912770Y-151684404D01*
X165198484Y-151684404D02*
X165198484Y-150684404D01*
X165198484Y-150684404D02*
X165103246Y-150827261D01*
X165103246Y-150827261D02*
X165008008Y-150922499D01*
X165008008Y-150922499D02*
X164912770Y-150970118D01*
X165912770Y-151589165D02*
X165960389Y-151636785D01*
X165960389Y-151636785D02*
X165912770Y-151684404D01*
X165912770Y-151684404D02*
X165865151Y-151636785D01*
X165865151Y-151636785D02*
X165912770Y-151589165D01*
X165912770Y-151589165D02*
X165912770Y-151684404D01*
X166817531Y-150684404D02*
X166627055Y-150684404D01*
X166627055Y-150684404D02*
X166531817Y-150732023D01*
X166531817Y-150732023D02*
X166484198Y-150779642D01*
X166484198Y-150779642D02*
X166388960Y-150922499D01*
X166388960Y-150922499D02*
X166341341Y-151112975D01*
X166341341Y-151112975D02*
X166341341Y-151493927D01*
X166341341Y-151493927D02*
X166388960Y-151589165D01*
X166388960Y-151589165D02*
X166436579Y-151636785D01*
X166436579Y-151636785D02*
X166531817Y-151684404D01*
X166531817Y-151684404D02*
X166722293Y-151684404D01*
X166722293Y-151684404D02*
X166817531Y-151636785D01*
X166817531Y-151636785D02*
X166865150Y-151589165D01*
X166865150Y-151589165D02*
X166912769Y-151493927D01*
X166912769Y-151493927D02*
X166912769Y-151255832D01*
X166912769Y-151255832D02*
X166865150Y-151160594D01*
X166865150Y-151160594D02*
X166817531Y-151112975D01*
X166817531Y-151112975D02*
X166722293Y-151065356D01*
X166722293Y-151065356D02*
X166531817Y-151065356D01*
X166531817Y-151065356D02*
X166436579Y-151112975D01*
X166436579Y-151112975D02*
X166388960Y-151160594D01*
X166388960Y-151160594D02*
X166341341Y-151255832D01*
X168103246Y-151684404D02*
X168103246Y-151017737D01*
X168103246Y-151112975D02*
X168150865Y-151065356D01*
X168150865Y-151065356D02*
X168246103Y-151017737D01*
X168246103Y-151017737D02*
X168388960Y-151017737D01*
X168388960Y-151017737D02*
X168484198Y-151065356D01*
X168484198Y-151065356D02*
X168531817Y-151160594D01*
X168531817Y-151160594D02*
X168531817Y-151684404D01*
X168531817Y-151160594D02*
X168579436Y-151065356D01*
X168579436Y-151065356D02*
X168674674Y-151017737D01*
X168674674Y-151017737D02*
X168817531Y-151017737D01*
X168817531Y-151017737D02*
X168912770Y-151065356D01*
X168912770Y-151065356D02*
X168960389Y-151160594D01*
X168960389Y-151160594D02*
X168960389Y-151684404D01*
X169436579Y-151684404D02*
X169436579Y-151017737D01*
X169436579Y-151112975D02*
X169484198Y-151065356D01*
X169484198Y-151065356D02*
X169579436Y-151017737D01*
X169579436Y-151017737D02*
X169722293Y-151017737D01*
X169722293Y-151017737D02*
X169817531Y-151065356D01*
X169817531Y-151065356D02*
X169865150Y-151160594D01*
X169865150Y-151160594D02*
X169865150Y-151684404D01*
X169865150Y-151160594D02*
X169912769Y-151065356D01*
X169912769Y-151065356D02*
X170008007Y-151017737D01*
X170008007Y-151017737D02*
X170150864Y-151017737D01*
X170150864Y-151017737D02*
X170246103Y-151065356D01*
X170246103Y-151065356D02*
X170293722Y-151160594D01*
X170293722Y-151160594D02*
X170293722Y-151684404D01*
D11*
X183500000Y-146230000D02*
X183500000Y-148770000D01*
X184770000Y-147500000D02*
X182230000Y-147500000D01*
X182250000Y-148650000D02*
X179446103Y-151229585D01*
X182250000Y-148650000D02*
X179446103Y-151229585D01*
X179446103Y-151229585D02*
X171156817Y-151229585D01*
X182250000Y-148650000D02*
X181818011Y-149844272D01*
X182250000Y-148650000D02*
X181023931Y-148981141D01*
X182250000Y-148650000D02*
X179446103Y-151229585D01*
X182250000Y-148650000D02*
X179446103Y-151229585D01*
X179446103Y-151229585D02*
X171156817Y-151229585D01*
X182250000Y-148650000D02*
X181818011Y-149844272D01*
X182250000Y-148650000D02*
X181023931Y-148981141D01*
M02*
