G04 #@! TF.GenerationSoftware,KiCad,Pcbnew,(5.1.9)-1*
G04 #@! TF.CreationDate,2021-08-04T09:34:38-04:00*
G04 #@! TF.ProjectId,esp32 Core  V-0.1,65737033-3220-4436-9f72-652020562d30,rev?*
G04 #@! TF.SameCoordinates,Original*
G04 #@! TF.FileFunction,Paste,Top*
G04 #@! TF.FilePolarity,Positive*
%FSLAX46Y46*%
G04 Gerber Fmt 4.6, Leading zero omitted, Abs format (unit mm)*
G04 Created by KiCad (PCBNEW (5.1.9)-1) date 2021-08-04 09:34:38*
%MOMM*%
%LPD*%
G01*
G04 APERTURE LIST*
%ADD10R,0.900000X1.200000*%
%ADD11R,1.800000X1.000000*%
%ADD12R,0.650000X1.220000*%
%ADD13R,1.200000X0.900000*%
%ADD14R,0.400000X0.600000*%
%ADD15R,2.400000X1.500000*%
%ADD16R,1.500000X2.500000*%
%ADD17R,2.500000X1.500000*%
%ADD18R,0.900000X0.800000*%
%ADD19O,0.900000X2.500000*%
%ADD20R,6.000000X6.000000*%
%ADD21O,2.500000X0.900000*%
%ADD22R,0.650000X1.060000*%
%ADD23R,1.100000X0.250000*%
%ADD24R,1.500000X1.000000*%
%ADD25R,1.800000X2.500000*%
%ADD26R,2.000000X1.500000*%
%ADD27R,2.000000X3.800000*%
%ADD28C,0.100000*%
%ADD29R,1.220000X0.650000*%
%ADD30R,1.500000X1.900000*%
%ADD31R,0.400000X1.350000*%
G04 APERTURE END LIST*
G04 #@! TO.C,C41*
G36*
G01*
X197795000Y-141020000D02*
X197795000Y-140680000D01*
G75*
G02*
X197935000Y-140540000I140000J0D01*
G01*
X198215000Y-140540000D01*
G75*
G02*
X198355000Y-140680000I0J-140000D01*
G01*
X198355000Y-141020000D01*
G75*
G02*
X198215000Y-141160000I-140000J0D01*
G01*
X197935000Y-141160000D01*
G75*
G02*
X197795000Y-141020000I0J140000D01*
G01*
G37*
G36*
G01*
X196835000Y-141020000D02*
X196835000Y-140680000D01*
G75*
G02*
X196975000Y-140540000I140000J0D01*
G01*
X197255000Y-140540000D01*
G75*
G02*
X197395000Y-140680000I0J-140000D01*
G01*
X197395000Y-141020000D01*
G75*
G02*
X197255000Y-141160000I-140000J0D01*
G01*
X196975000Y-141160000D01*
G75*
G02*
X196835000Y-141020000I0J140000D01*
G01*
G37*
G04 #@! TD*
G04 #@! TO.C,C40*
G36*
G01*
X241570000Y-130000000D02*
X241230000Y-130000000D01*
G75*
G02*
X241090000Y-129860000I0J140000D01*
G01*
X241090000Y-129580000D01*
G75*
G02*
X241230000Y-129440000I140000J0D01*
G01*
X241570000Y-129440000D01*
G75*
G02*
X241710000Y-129580000I0J-140000D01*
G01*
X241710000Y-129860000D01*
G75*
G02*
X241570000Y-130000000I-140000J0D01*
G01*
G37*
G36*
G01*
X241570000Y-130960000D02*
X241230000Y-130960000D01*
G75*
G02*
X241090000Y-130820000I0J140000D01*
G01*
X241090000Y-130540000D01*
G75*
G02*
X241230000Y-130400000I140000J0D01*
G01*
X241570000Y-130400000D01*
G75*
G02*
X241710000Y-130540000I0J-140000D01*
G01*
X241710000Y-130820000D01*
G75*
G02*
X241570000Y-130960000I-140000J0D01*
G01*
G37*
G04 #@! TD*
G04 #@! TO.C,C39*
G36*
G01*
X241230000Y-133320000D02*
X241570000Y-133320000D01*
G75*
G02*
X241710000Y-133460000I0J-140000D01*
G01*
X241710000Y-133740000D01*
G75*
G02*
X241570000Y-133880000I-140000J0D01*
G01*
X241230000Y-133880000D01*
G75*
G02*
X241090000Y-133740000I0J140000D01*
G01*
X241090000Y-133460000D01*
G75*
G02*
X241230000Y-133320000I140000J0D01*
G01*
G37*
G36*
G01*
X241230000Y-132360000D02*
X241570000Y-132360000D01*
G75*
G02*
X241710000Y-132500000I0J-140000D01*
G01*
X241710000Y-132780000D01*
G75*
G02*
X241570000Y-132920000I-140000J0D01*
G01*
X241230000Y-132920000D01*
G75*
G02*
X241090000Y-132780000I0J140000D01*
G01*
X241090000Y-132500000D01*
G75*
G02*
X241230000Y-132360000I140000J0D01*
G01*
G37*
G04 #@! TD*
D10*
G04 #@! TO.C,D20*
X257555000Y-123444000D03*
X254255000Y-123444000D03*
G04 #@! TD*
G04 #@! TO.C,U13*
G36*
G01*
X260405000Y-115006000D02*
X259635000Y-115006000D01*
G75*
G02*
X259395000Y-114766000I0J240000D01*
G01*
X259395000Y-114286000D01*
G75*
G02*
X259635000Y-114046000I240000J0D01*
G01*
X260405000Y-114046000D01*
G75*
G02*
X260645000Y-114286000I0J-240000D01*
G01*
X260645000Y-114766000D01*
G75*
G02*
X260405000Y-115006000I-240000J0D01*
G01*
G37*
G36*
G01*
X258905000Y-115006000D02*
X258135000Y-115006000D01*
G75*
G02*
X257895000Y-114766000I0J240000D01*
G01*
X257895000Y-114286000D01*
G75*
G02*
X258135000Y-114046000I240000J0D01*
G01*
X258905000Y-114046000D01*
G75*
G02*
X259145000Y-114286000I0J-240000D01*
G01*
X259145000Y-114766000D01*
G75*
G02*
X258905000Y-115006000I-240000J0D01*
G01*
G37*
G36*
G01*
X260405000Y-116146000D02*
X259635000Y-116146000D01*
G75*
G02*
X259395000Y-115906000I0J240000D01*
G01*
X259395000Y-115426000D01*
G75*
G02*
X259635000Y-115186000I240000J0D01*
G01*
X260405000Y-115186000D01*
G75*
G02*
X260645000Y-115426000I0J-240000D01*
G01*
X260645000Y-115906000D01*
G75*
G02*
X260405000Y-116146000I-240000J0D01*
G01*
G37*
G36*
G01*
X258905000Y-116146000D02*
X258135000Y-116146000D01*
G75*
G02*
X257895000Y-115906000I0J240000D01*
G01*
X257895000Y-115426000D01*
G75*
G02*
X258135000Y-115186000I240000J0D01*
G01*
X258905000Y-115186000D01*
G75*
G02*
X259145000Y-115426000I0J-240000D01*
G01*
X259145000Y-115906000D01*
G75*
G02*
X258905000Y-116146000I-240000J0D01*
G01*
G37*
G36*
G01*
X257515000Y-113596000D02*
X257215000Y-113596000D01*
G75*
G02*
X257065000Y-113446000I0J150000D01*
G01*
X257065000Y-111796000D01*
G75*
G02*
X257215000Y-111646000I150000J0D01*
G01*
X257515000Y-111646000D01*
G75*
G02*
X257665000Y-111796000I0J-150000D01*
G01*
X257665000Y-113446000D01*
G75*
G02*
X257515000Y-113596000I-150000J0D01*
G01*
G37*
G36*
G01*
X258785000Y-113596000D02*
X258485000Y-113596000D01*
G75*
G02*
X258335000Y-113446000I0J150000D01*
G01*
X258335000Y-111796000D01*
G75*
G02*
X258485000Y-111646000I150000J0D01*
G01*
X258785000Y-111646000D01*
G75*
G02*
X258935000Y-111796000I0J-150000D01*
G01*
X258935000Y-113446000D01*
G75*
G02*
X258785000Y-113596000I-150000J0D01*
G01*
G37*
G36*
G01*
X260055000Y-113596000D02*
X259755000Y-113596000D01*
G75*
G02*
X259605000Y-113446000I0J150000D01*
G01*
X259605000Y-111796000D01*
G75*
G02*
X259755000Y-111646000I150000J0D01*
G01*
X260055000Y-111646000D01*
G75*
G02*
X260205000Y-111796000I0J-150000D01*
G01*
X260205000Y-113446000D01*
G75*
G02*
X260055000Y-113596000I-150000J0D01*
G01*
G37*
G36*
G01*
X261325000Y-113596000D02*
X261025000Y-113596000D01*
G75*
G02*
X260875000Y-113446000I0J150000D01*
G01*
X260875000Y-111796000D01*
G75*
G02*
X261025000Y-111646000I150000J0D01*
G01*
X261325000Y-111646000D01*
G75*
G02*
X261475000Y-111796000I0J-150000D01*
G01*
X261475000Y-113446000D01*
G75*
G02*
X261325000Y-113596000I-150000J0D01*
G01*
G37*
G36*
G01*
X261325000Y-118546000D02*
X261025000Y-118546000D01*
G75*
G02*
X260875000Y-118396000I0J150000D01*
G01*
X260875000Y-116746000D01*
G75*
G02*
X261025000Y-116596000I150000J0D01*
G01*
X261325000Y-116596000D01*
G75*
G02*
X261475000Y-116746000I0J-150000D01*
G01*
X261475000Y-118396000D01*
G75*
G02*
X261325000Y-118546000I-150000J0D01*
G01*
G37*
G36*
G01*
X260055000Y-118546000D02*
X259755000Y-118546000D01*
G75*
G02*
X259605000Y-118396000I0J150000D01*
G01*
X259605000Y-116746000D01*
G75*
G02*
X259755000Y-116596000I150000J0D01*
G01*
X260055000Y-116596000D01*
G75*
G02*
X260205000Y-116746000I0J-150000D01*
G01*
X260205000Y-118396000D01*
G75*
G02*
X260055000Y-118546000I-150000J0D01*
G01*
G37*
G36*
G01*
X258785000Y-118546000D02*
X258485000Y-118546000D01*
G75*
G02*
X258335000Y-118396000I0J150000D01*
G01*
X258335000Y-116746000D01*
G75*
G02*
X258485000Y-116596000I150000J0D01*
G01*
X258785000Y-116596000D01*
G75*
G02*
X258935000Y-116746000I0J-150000D01*
G01*
X258935000Y-118396000D01*
G75*
G02*
X258785000Y-118546000I-150000J0D01*
G01*
G37*
G36*
G01*
X257515000Y-118546000D02*
X257215000Y-118546000D01*
G75*
G02*
X257065000Y-118396000I0J150000D01*
G01*
X257065000Y-116746000D01*
G75*
G02*
X257215000Y-116596000I150000J0D01*
G01*
X257515000Y-116596000D01*
G75*
G02*
X257665000Y-116746000I0J-150000D01*
G01*
X257665000Y-118396000D01*
G75*
G02*
X257515000Y-118546000I-150000J0D01*
G01*
G37*
G04 #@! TD*
G04 #@! TO.C,U1*
G36*
G01*
X258156000Y-130841000D02*
X258156000Y-131611000D01*
G75*
G02*
X257916000Y-131851000I-240000J0D01*
G01*
X257436000Y-131851000D01*
G75*
G02*
X257196000Y-131611000I0J240000D01*
G01*
X257196000Y-130841000D01*
G75*
G02*
X257436000Y-130601000I240000J0D01*
G01*
X257916000Y-130601000D01*
G75*
G02*
X258156000Y-130841000I0J-240000D01*
G01*
G37*
G36*
G01*
X258156000Y-132341000D02*
X258156000Y-133111000D01*
G75*
G02*
X257916000Y-133351000I-240000J0D01*
G01*
X257436000Y-133351000D01*
G75*
G02*
X257196000Y-133111000I0J240000D01*
G01*
X257196000Y-132341000D01*
G75*
G02*
X257436000Y-132101000I240000J0D01*
G01*
X257916000Y-132101000D01*
G75*
G02*
X258156000Y-132341000I0J-240000D01*
G01*
G37*
G36*
G01*
X259296000Y-130841000D02*
X259296000Y-131611000D01*
G75*
G02*
X259056000Y-131851000I-240000J0D01*
G01*
X258576000Y-131851000D01*
G75*
G02*
X258336000Y-131611000I0J240000D01*
G01*
X258336000Y-130841000D01*
G75*
G02*
X258576000Y-130601000I240000J0D01*
G01*
X259056000Y-130601000D01*
G75*
G02*
X259296000Y-130841000I0J-240000D01*
G01*
G37*
G36*
G01*
X259296000Y-132341000D02*
X259296000Y-133111000D01*
G75*
G02*
X259056000Y-133351000I-240000J0D01*
G01*
X258576000Y-133351000D01*
G75*
G02*
X258336000Y-133111000I0J240000D01*
G01*
X258336000Y-132341000D01*
G75*
G02*
X258576000Y-132101000I240000J0D01*
G01*
X259056000Y-132101000D01*
G75*
G02*
X259296000Y-132341000I0J-240000D01*
G01*
G37*
G36*
G01*
X256746000Y-133731000D02*
X256746000Y-134031000D01*
G75*
G02*
X256596000Y-134181000I-150000J0D01*
G01*
X254946000Y-134181000D01*
G75*
G02*
X254796000Y-134031000I0J150000D01*
G01*
X254796000Y-133731000D01*
G75*
G02*
X254946000Y-133581000I150000J0D01*
G01*
X256596000Y-133581000D01*
G75*
G02*
X256746000Y-133731000I0J-150000D01*
G01*
G37*
G36*
G01*
X256746000Y-132461000D02*
X256746000Y-132761000D01*
G75*
G02*
X256596000Y-132911000I-150000J0D01*
G01*
X254946000Y-132911000D01*
G75*
G02*
X254796000Y-132761000I0J150000D01*
G01*
X254796000Y-132461000D01*
G75*
G02*
X254946000Y-132311000I150000J0D01*
G01*
X256596000Y-132311000D01*
G75*
G02*
X256746000Y-132461000I0J-150000D01*
G01*
G37*
G36*
G01*
X256746000Y-131191000D02*
X256746000Y-131491000D01*
G75*
G02*
X256596000Y-131641000I-150000J0D01*
G01*
X254946000Y-131641000D01*
G75*
G02*
X254796000Y-131491000I0J150000D01*
G01*
X254796000Y-131191000D01*
G75*
G02*
X254946000Y-131041000I150000J0D01*
G01*
X256596000Y-131041000D01*
G75*
G02*
X256746000Y-131191000I0J-150000D01*
G01*
G37*
G36*
G01*
X256746000Y-129921000D02*
X256746000Y-130221000D01*
G75*
G02*
X256596000Y-130371000I-150000J0D01*
G01*
X254946000Y-130371000D01*
G75*
G02*
X254796000Y-130221000I0J150000D01*
G01*
X254796000Y-129921000D01*
G75*
G02*
X254946000Y-129771000I150000J0D01*
G01*
X256596000Y-129771000D01*
G75*
G02*
X256746000Y-129921000I0J-150000D01*
G01*
G37*
G36*
G01*
X261696000Y-129921000D02*
X261696000Y-130221000D01*
G75*
G02*
X261546000Y-130371000I-150000J0D01*
G01*
X259896000Y-130371000D01*
G75*
G02*
X259746000Y-130221000I0J150000D01*
G01*
X259746000Y-129921000D01*
G75*
G02*
X259896000Y-129771000I150000J0D01*
G01*
X261546000Y-129771000D01*
G75*
G02*
X261696000Y-129921000I0J-150000D01*
G01*
G37*
G36*
G01*
X261696000Y-131191000D02*
X261696000Y-131491000D01*
G75*
G02*
X261546000Y-131641000I-150000J0D01*
G01*
X259896000Y-131641000D01*
G75*
G02*
X259746000Y-131491000I0J150000D01*
G01*
X259746000Y-131191000D01*
G75*
G02*
X259896000Y-131041000I150000J0D01*
G01*
X261546000Y-131041000D01*
G75*
G02*
X261696000Y-131191000I0J-150000D01*
G01*
G37*
G36*
G01*
X261696000Y-132461000D02*
X261696000Y-132761000D01*
G75*
G02*
X261546000Y-132911000I-150000J0D01*
G01*
X259896000Y-132911000D01*
G75*
G02*
X259746000Y-132761000I0J150000D01*
G01*
X259746000Y-132461000D01*
G75*
G02*
X259896000Y-132311000I150000J0D01*
G01*
X261546000Y-132311000D01*
G75*
G02*
X261696000Y-132461000I0J-150000D01*
G01*
G37*
G36*
G01*
X261696000Y-133731000D02*
X261696000Y-134031000D01*
G75*
G02*
X261546000Y-134181000I-150000J0D01*
G01*
X259896000Y-134181000D01*
G75*
G02*
X259746000Y-134031000I0J150000D01*
G01*
X259746000Y-133731000D01*
G75*
G02*
X259896000Y-133581000I150000J0D01*
G01*
X261546000Y-133581000D01*
G75*
G02*
X261696000Y-133731000I0J-150000D01*
G01*
G37*
G04 #@! TD*
G04 #@! TO.C,R52*
G36*
G01*
X214699000Y-111744000D02*
X215069000Y-111744000D01*
G75*
G02*
X215204000Y-111879000I0J-135000D01*
G01*
X215204000Y-112149000D01*
G75*
G02*
X215069000Y-112284000I-135000J0D01*
G01*
X214699000Y-112284000D01*
G75*
G02*
X214564000Y-112149000I0J135000D01*
G01*
X214564000Y-111879000D01*
G75*
G02*
X214699000Y-111744000I135000J0D01*
G01*
G37*
G36*
G01*
X214699000Y-110724000D02*
X215069000Y-110724000D01*
G75*
G02*
X215204000Y-110859000I0J-135000D01*
G01*
X215204000Y-111129000D01*
G75*
G02*
X215069000Y-111264000I-135000J0D01*
G01*
X214699000Y-111264000D01*
G75*
G02*
X214564000Y-111129000I0J135000D01*
G01*
X214564000Y-110859000D01*
G75*
G02*
X214699000Y-110724000I135000J0D01*
G01*
G37*
G04 #@! TD*
G04 #@! TO.C,R51*
G36*
G01*
X215969000Y-111744000D02*
X216339000Y-111744000D01*
G75*
G02*
X216474000Y-111879000I0J-135000D01*
G01*
X216474000Y-112149000D01*
G75*
G02*
X216339000Y-112284000I-135000J0D01*
G01*
X215969000Y-112284000D01*
G75*
G02*
X215834000Y-112149000I0J135000D01*
G01*
X215834000Y-111879000D01*
G75*
G02*
X215969000Y-111744000I135000J0D01*
G01*
G37*
G36*
G01*
X215969000Y-110724000D02*
X216339000Y-110724000D01*
G75*
G02*
X216474000Y-110859000I0J-135000D01*
G01*
X216474000Y-111129000D01*
G75*
G02*
X216339000Y-111264000I-135000J0D01*
G01*
X215969000Y-111264000D01*
G75*
G02*
X215834000Y-111129000I0J135000D01*
G01*
X215834000Y-110859000D01*
G75*
G02*
X215969000Y-110724000I135000J0D01*
G01*
G37*
G04 #@! TD*
G04 #@! TO.C,R50*
G36*
G01*
X213175000Y-111744000D02*
X213545000Y-111744000D01*
G75*
G02*
X213680000Y-111879000I0J-135000D01*
G01*
X213680000Y-112149000D01*
G75*
G02*
X213545000Y-112284000I-135000J0D01*
G01*
X213175000Y-112284000D01*
G75*
G02*
X213040000Y-112149000I0J135000D01*
G01*
X213040000Y-111879000D01*
G75*
G02*
X213175000Y-111744000I135000J0D01*
G01*
G37*
G36*
G01*
X213175000Y-110724000D02*
X213545000Y-110724000D01*
G75*
G02*
X213680000Y-110859000I0J-135000D01*
G01*
X213680000Y-111129000D01*
G75*
G02*
X213545000Y-111264000I-135000J0D01*
G01*
X213175000Y-111264000D01*
G75*
G02*
X213040000Y-111129000I0J135000D01*
G01*
X213040000Y-110859000D01*
G75*
G02*
X213175000Y-110724000I135000J0D01*
G01*
G37*
G04 #@! TD*
G04 #@! TO.C,R49*
G36*
G01*
X211905000Y-111744000D02*
X212275000Y-111744000D01*
G75*
G02*
X212410000Y-111879000I0J-135000D01*
G01*
X212410000Y-112149000D01*
G75*
G02*
X212275000Y-112284000I-135000J0D01*
G01*
X211905000Y-112284000D01*
G75*
G02*
X211770000Y-112149000I0J135000D01*
G01*
X211770000Y-111879000D01*
G75*
G02*
X211905000Y-111744000I135000J0D01*
G01*
G37*
G36*
G01*
X211905000Y-110724000D02*
X212275000Y-110724000D01*
G75*
G02*
X212410000Y-110859000I0J-135000D01*
G01*
X212410000Y-111129000D01*
G75*
G02*
X212275000Y-111264000I-135000J0D01*
G01*
X211905000Y-111264000D01*
G75*
G02*
X211770000Y-111129000I0J135000D01*
G01*
X211770000Y-110859000D01*
G75*
G02*
X211905000Y-110724000I135000J0D01*
G01*
G37*
G04 #@! TD*
G04 #@! TO.C,C38*
G36*
G01*
X216128000Y-109136000D02*
X216128000Y-108796000D01*
G75*
G02*
X216268000Y-108656000I140000J0D01*
G01*
X216548000Y-108656000D01*
G75*
G02*
X216688000Y-108796000I0J-140000D01*
G01*
X216688000Y-109136000D01*
G75*
G02*
X216548000Y-109276000I-140000J0D01*
G01*
X216268000Y-109276000D01*
G75*
G02*
X216128000Y-109136000I0J140000D01*
G01*
G37*
G36*
G01*
X215168000Y-109136000D02*
X215168000Y-108796000D01*
G75*
G02*
X215308000Y-108656000I140000J0D01*
G01*
X215588000Y-108656000D01*
G75*
G02*
X215728000Y-108796000I0J-140000D01*
G01*
X215728000Y-109136000D01*
G75*
G02*
X215588000Y-109276000I-140000J0D01*
G01*
X215308000Y-109276000D01*
G75*
G02*
X215168000Y-109136000I0J140000D01*
G01*
G37*
G04 #@! TD*
G04 #@! TO.C,C37*
G36*
G01*
X220164000Y-109136000D02*
X220164000Y-108796000D01*
G75*
G02*
X220304000Y-108656000I140000J0D01*
G01*
X220584000Y-108656000D01*
G75*
G02*
X220724000Y-108796000I0J-140000D01*
G01*
X220724000Y-109136000D01*
G75*
G02*
X220584000Y-109276000I-140000J0D01*
G01*
X220304000Y-109276000D01*
G75*
G02*
X220164000Y-109136000I0J140000D01*
G01*
G37*
G36*
G01*
X219204000Y-109136000D02*
X219204000Y-108796000D01*
G75*
G02*
X219344000Y-108656000I140000J0D01*
G01*
X219624000Y-108656000D01*
G75*
G02*
X219764000Y-108796000I0J-140000D01*
G01*
X219764000Y-109136000D01*
G75*
G02*
X219624000Y-109276000I-140000J0D01*
G01*
X219344000Y-109276000D01*
G75*
G02*
X219204000Y-109136000I0J140000D01*
G01*
G37*
G04 #@! TD*
G04 #@! TO.C,C36*
G36*
G01*
X212318000Y-109136000D02*
X212318000Y-108796000D01*
G75*
G02*
X212458000Y-108656000I140000J0D01*
G01*
X212738000Y-108656000D01*
G75*
G02*
X212878000Y-108796000I0J-140000D01*
G01*
X212878000Y-109136000D01*
G75*
G02*
X212738000Y-109276000I-140000J0D01*
G01*
X212458000Y-109276000D01*
G75*
G02*
X212318000Y-109136000I0J140000D01*
G01*
G37*
G36*
G01*
X211358000Y-109136000D02*
X211358000Y-108796000D01*
G75*
G02*
X211498000Y-108656000I140000J0D01*
G01*
X211778000Y-108656000D01*
G75*
G02*
X211918000Y-108796000I0J-140000D01*
G01*
X211918000Y-109136000D01*
G75*
G02*
X211778000Y-109276000I-140000J0D01*
G01*
X211498000Y-109276000D01*
G75*
G02*
X211358000Y-109136000I0J140000D01*
G01*
G37*
G04 #@! TD*
G04 #@! TO.C,C35*
G36*
G01*
X208508000Y-108945500D02*
X208508000Y-108605500D01*
G75*
G02*
X208648000Y-108465500I140000J0D01*
G01*
X208928000Y-108465500D01*
G75*
G02*
X209068000Y-108605500I0J-140000D01*
G01*
X209068000Y-108945500D01*
G75*
G02*
X208928000Y-109085500I-140000J0D01*
G01*
X208648000Y-109085500D01*
G75*
G02*
X208508000Y-108945500I0J140000D01*
G01*
G37*
G36*
G01*
X207548000Y-108945500D02*
X207548000Y-108605500D01*
G75*
G02*
X207688000Y-108465500I140000J0D01*
G01*
X207968000Y-108465500D01*
G75*
G02*
X208108000Y-108605500I0J-140000D01*
G01*
X208108000Y-108945500D01*
G75*
G02*
X207968000Y-109085500I-140000J0D01*
G01*
X207688000Y-109085500D01*
G75*
G02*
X207548000Y-108945500I0J140000D01*
G01*
G37*
G04 #@! TD*
G04 #@! TO.C,C34*
G36*
G01*
X227800000Y-131430000D02*
X227800000Y-131770000D01*
G75*
G02*
X227660000Y-131910000I-140000J0D01*
G01*
X227380000Y-131910000D01*
G75*
G02*
X227240000Y-131770000I0J140000D01*
G01*
X227240000Y-131430000D01*
G75*
G02*
X227380000Y-131290000I140000J0D01*
G01*
X227660000Y-131290000D01*
G75*
G02*
X227800000Y-131430000I0J-140000D01*
G01*
G37*
G36*
G01*
X228760000Y-131430000D02*
X228760000Y-131770000D01*
G75*
G02*
X228620000Y-131910000I-140000J0D01*
G01*
X228340000Y-131910000D01*
G75*
G02*
X228200000Y-131770000I0J140000D01*
G01*
X228200000Y-131430000D01*
G75*
G02*
X228340000Y-131290000I140000J0D01*
G01*
X228620000Y-131290000D01*
G75*
G02*
X228760000Y-131430000I0J-140000D01*
G01*
G37*
G04 #@! TD*
G04 #@! TO.C,U2*
G36*
G01*
X232180000Y-132311000D02*
X232180000Y-132611000D01*
G75*
G02*
X232030000Y-132761000I-150000J0D01*
G01*
X230380000Y-132761000D01*
G75*
G02*
X230230000Y-132611000I0J150000D01*
G01*
X230230000Y-132311000D01*
G75*
G02*
X230380000Y-132161000I150000J0D01*
G01*
X232030000Y-132161000D01*
G75*
G02*
X232180000Y-132311000I0J-150000D01*
G01*
G37*
G36*
G01*
X232180000Y-131041000D02*
X232180000Y-131341000D01*
G75*
G02*
X232030000Y-131491000I-150000J0D01*
G01*
X230380000Y-131491000D01*
G75*
G02*
X230230000Y-131341000I0J150000D01*
G01*
X230230000Y-131041000D01*
G75*
G02*
X230380000Y-130891000I150000J0D01*
G01*
X232030000Y-130891000D01*
G75*
G02*
X232180000Y-131041000I0J-150000D01*
G01*
G37*
G36*
G01*
X232180000Y-129771000D02*
X232180000Y-130071000D01*
G75*
G02*
X232030000Y-130221000I-150000J0D01*
G01*
X230380000Y-130221000D01*
G75*
G02*
X230230000Y-130071000I0J150000D01*
G01*
X230230000Y-129771000D01*
G75*
G02*
X230380000Y-129621000I150000J0D01*
G01*
X232030000Y-129621000D01*
G75*
G02*
X232180000Y-129771000I0J-150000D01*
G01*
G37*
G36*
G01*
X232180000Y-128501000D02*
X232180000Y-128801000D01*
G75*
G02*
X232030000Y-128951000I-150000J0D01*
G01*
X230380000Y-128951000D01*
G75*
G02*
X230230000Y-128801000I0J150000D01*
G01*
X230230000Y-128501000D01*
G75*
G02*
X230380000Y-128351000I150000J0D01*
G01*
X232030000Y-128351000D01*
G75*
G02*
X232180000Y-128501000I0J-150000D01*
G01*
G37*
G36*
G01*
X237130000Y-128501000D02*
X237130000Y-128801000D01*
G75*
G02*
X236980000Y-128951000I-150000J0D01*
G01*
X235330000Y-128951000D01*
G75*
G02*
X235180000Y-128801000I0J150000D01*
G01*
X235180000Y-128501000D01*
G75*
G02*
X235330000Y-128351000I150000J0D01*
G01*
X236980000Y-128351000D01*
G75*
G02*
X237130000Y-128501000I0J-150000D01*
G01*
G37*
G36*
G01*
X237130000Y-129771000D02*
X237130000Y-130071000D01*
G75*
G02*
X236980000Y-130221000I-150000J0D01*
G01*
X235330000Y-130221000D01*
G75*
G02*
X235180000Y-130071000I0J150000D01*
G01*
X235180000Y-129771000D01*
G75*
G02*
X235330000Y-129621000I150000J0D01*
G01*
X236980000Y-129621000D01*
G75*
G02*
X237130000Y-129771000I0J-150000D01*
G01*
G37*
G36*
G01*
X237130000Y-131041000D02*
X237130000Y-131341000D01*
G75*
G02*
X236980000Y-131491000I-150000J0D01*
G01*
X235330000Y-131491000D01*
G75*
G02*
X235180000Y-131341000I0J150000D01*
G01*
X235180000Y-131041000D01*
G75*
G02*
X235330000Y-130891000I150000J0D01*
G01*
X236980000Y-130891000D01*
G75*
G02*
X237130000Y-131041000I0J-150000D01*
G01*
G37*
G36*
G01*
X237130000Y-132311000D02*
X237130000Y-132611000D01*
G75*
G02*
X236980000Y-132761000I-150000J0D01*
G01*
X235330000Y-132761000D01*
G75*
G02*
X235180000Y-132611000I0J150000D01*
G01*
X235180000Y-132311000D01*
G75*
G02*
X235330000Y-132161000I150000J0D01*
G01*
X236980000Y-132161000D01*
G75*
G02*
X237130000Y-132311000I0J-150000D01*
G01*
G37*
G04 #@! TD*
D11*
G04 #@! TO.C,Y2*
X239500000Y-133000000D03*
X239500000Y-130500000D03*
G04 #@! TD*
G04 #@! TO.C,R48*
G36*
G01*
X228186000Y-127963000D02*
X228186000Y-127593000D01*
G75*
G02*
X228321000Y-127458000I135000J0D01*
G01*
X228591000Y-127458000D01*
G75*
G02*
X228726000Y-127593000I0J-135000D01*
G01*
X228726000Y-127963000D01*
G75*
G02*
X228591000Y-128098000I-135000J0D01*
G01*
X228321000Y-128098000D01*
G75*
G02*
X228186000Y-127963000I0J135000D01*
G01*
G37*
G36*
G01*
X227166000Y-127963000D02*
X227166000Y-127593000D01*
G75*
G02*
X227301000Y-127458000I135000J0D01*
G01*
X227571000Y-127458000D01*
G75*
G02*
X227706000Y-127593000I0J-135000D01*
G01*
X227706000Y-127963000D01*
G75*
G02*
X227571000Y-128098000I-135000J0D01*
G01*
X227301000Y-128098000D01*
G75*
G02*
X227166000Y-127963000I0J135000D01*
G01*
G37*
G04 #@! TD*
G04 #@! TO.C,R47*
G36*
G01*
X228184000Y-129233000D02*
X228184000Y-128863000D01*
G75*
G02*
X228319000Y-128728000I135000J0D01*
G01*
X228589000Y-128728000D01*
G75*
G02*
X228724000Y-128863000I0J-135000D01*
G01*
X228724000Y-129233000D01*
G75*
G02*
X228589000Y-129368000I-135000J0D01*
G01*
X228319000Y-129368000D01*
G75*
G02*
X228184000Y-129233000I0J135000D01*
G01*
G37*
G36*
G01*
X227164000Y-129233000D02*
X227164000Y-128863000D01*
G75*
G02*
X227299000Y-128728000I135000J0D01*
G01*
X227569000Y-128728000D01*
G75*
G02*
X227704000Y-128863000I0J-135000D01*
G01*
X227704000Y-129233000D01*
G75*
G02*
X227569000Y-129368000I-135000J0D01*
G01*
X227299000Y-129368000D01*
G75*
G02*
X227164000Y-129233000I0J135000D01*
G01*
G37*
G04 #@! TD*
G04 #@! TO.C,R17*
G36*
G01*
X227596000Y-121481000D02*
X227596000Y-121851000D01*
G75*
G02*
X227461000Y-121986000I-135000J0D01*
G01*
X227191000Y-121986000D01*
G75*
G02*
X227056000Y-121851000I0J135000D01*
G01*
X227056000Y-121481000D01*
G75*
G02*
X227191000Y-121346000I135000J0D01*
G01*
X227461000Y-121346000D01*
G75*
G02*
X227596000Y-121481000I0J-135000D01*
G01*
G37*
G36*
G01*
X228616000Y-121481000D02*
X228616000Y-121851000D01*
G75*
G02*
X228481000Y-121986000I-135000J0D01*
G01*
X228211000Y-121986000D01*
G75*
G02*
X228076000Y-121851000I0J135000D01*
G01*
X228076000Y-121481000D01*
G75*
G02*
X228211000Y-121346000I135000J0D01*
G01*
X228481000Y-121346000D01*
G75*
G02*
X228616000Y-121481000I0J-135000D01*
G01*
G37*
G04 #@! TD*
G04 #@! TO.C,R15*
G36*
G01*
X232170000Y-121735000D02*
X232170000Y-122105000D01*
G75*
G02*
X232035000Y-122240000I-135000J0D01*
G01*
X231765000Y-122240000D01*
G75*
G02*
X231630000Y-122105000I0J135000D01*
G01*
X231630000Y-121735000D01*
G75*
G02*
X231765000Y-121600000I135000J0D01*
G01*
X232035000Y-121600000D01*
G75*
G02*
X232170000Y-121735000I0J-135000D01*
G01*
G37*
G36*
G01*
X233190000Y-121735000D02*
X233190000Y-122105000D01*
G75*
G02*
X233055000Y-122240000I-135000J0D01*
G01*
X232785000Y-122240000D01*
G75*
G02*
X232650000Y-122105000I0J135000D01*
G01*
X232650000Y-121735000D01*
G75*
G02*
X232785000Y-121600000I135000J0D01*
G01*
X233055000Y-121600000D01*
G75*
G02*
X233190000Y-121735000I0J-135000D01*
G01*
G37*
G04 #@! TD*
D12*
G04 #@! TO.C,Q2*
X227960000Y-126278000D03*
X227010000Y-123658000D03*
X228910000Y-123658000D03*
G04 #@! TD*
G04 #@! TO.C,Q1*
X232410000Y-126278000D03*
X231460000Y-123658000D03*
X233360000Y-123658000D03*
G04 #@! TD*
D13*
G04 #@! TO.C,D19*
X252095000Y-143000000D03*
X252095000Y-139700000D03*
G04 #@! TD*
G04 #@! TO.C,D18*
X246888000Y-142238000D03*
X246888000Y-138938000D03*
G04 #@! TD*
G04 #@! TO.C,C33*
G36*
G01*
X181528000Y-130218000D02*
X181528000Y-129878000D01*
G75*
G02*
X181668000Y-129738000I140000J0D01*
G01*
X181948000Y-129738000D01*
G75*
G02*
X182088000Y-129878000I0J-140000D01*
G01*
X182088000Y-130218000D01*
G75*
G02*
X181948000Y-130358000I-140000J0D01*
G01*
X181668000Y-130358000D01*
G75*
G02*
X181528000Y-130218000I0J140000D01*
G01*
G37*
G36*
G01*
X180568000Y-130218000D02*
X180568000Y-129878000D01*
G75*
G02*
X180708000Y-129738000I140000J0D01*
G01*
X180988000Y-129738000D01*
G75*
G02*
X181128000Y-129878000I0J-140000D01*
G01*
X181128000Y-130218000D01*
G75*
G02*
X180988000Y-130358000I-140000J0D01*
G01*
X180708000Y-130358000D01*
G75*
G02*
X180568000Y-130218000I0J140000D01*
G01*
G37*
G04 #@! TD*
G04 #@! TO.C,C32*
G36*
G01*
X246287000Y-124403000D02*
X246287000Y-124063000D01*
G75*
G02*
X246427000Y-123923000I140000J0D01*
G01*
X246707000Y-123923000D01*
G75*
G02*
X246847000Y-124063000I0J-140000D01*
G01*
X246847000Y-124403000D01*
G75*
G02*
X246707000Y-124543000I-140000J0D01*
G01*
X246427000Y-124543000D01*
G75*
G02*
X246287000Y-124403000I0J140000D01*
G01*
G37*
G36*
G01*
X245327000Y-124403000D02*
X245327000Y-124063000D01*
G75*
G02*
X245467000Y-123923000I140000J0D01*
G01*
X245747000Y-123923000D01*
G75*
G02*
X245887000Y-124063000I0J-140000D01*
G01*
X245887000Y-124403000D01*
G75*
G02*
X245747000Y-124543000I-140000J0D01*
G01*
X245467000Y-124543000D01*
G75*
G02*
X245327000Y-124403000I0J140000D01*
G01*
G37*
G04 #@! TD*
D14*
G04 #@! TO.C,U7*
X244629000Y-125627000D03*
X245579000Y-125627000D03*
X246529000Y-125627000D03*
X246529000Y-128427000D03*
X245579000Y-128427000D03*
X244629000Y-128427000D03*
D15*
X245579000Y-127027000D03*
G04 #@! TD*
D16*
G04 #@! TO.C,L1*
X253545000Y-136144000D03*
X249845000Y-136144000D03*
G04 #@! TD*
D17*
G04 #@! TO.C,L3*
X254825000Y-110651000D03*
X254825000Y-106951000D03*
G04 #@! TD*
G04 #@! TO.C,C23*
G36*
G01*
X234016000Y-110828000D02*
X234016000Y-111168000D01*
G75*
G02*
X233876000Y-111308000I-140000J0D01*
G01*
X233596000Y-111308000D01*
G75*
G02*
X233456000Y-111168000I0J140000D01*
G01*
X233456000Y-110828000D01*
G75*
G02*
X233596000Y-110688000I140000J0D01*
G01*
X233876000Y-110688000D01*
G75*
G02*
X234016000Y-110828000I0J-140000D01*
G01*
G37*
G36*
G01*
X234976000Y-110828000D02*
X234976000Y-111168000D01*
G75*
G02*
X234836000Y-111308000I-140000J0D01*
G01*
X234556000Y-111308000D01*
G75*
G02*
X234416000Y-111168000I0J140000D01*
G01*
X234416000Y-110828000D01*
G75*
G02*
X234556000Y-110688000I140000J0D01*
G01*
X234836000Y-110688000D01*
G75*
G02*
X234976000Y-110828000I0J-140000D01*
G01*
G37*
G04 #@! TD*
G04 #@! TO.C,R46*
G36*
G01*
X217747000Y-103362000D02*
X218117000Y-103362000D01*
G75*
G02*
X218252000Y-103497000I0J-135000D01*
G01*
X218252000Y-103767000D01*
G75*
G02*
X218117000Y-103902000I-135000J0D01*
G01*
X217747000Y-103902000D01*
G75*
G02*
X217612000Y-103767000I0J135000D01*
G01*
X217612000Y-103497000D01*
G75*
G02*
X217747000Y-103362000I135000J0D01*
G01*
G37*
G36*
G01*
X217747000Y-102342000D02*
X218117000Y-102342000D01*
G75*
G02*
X218252000Y-102477000I0J-135000D01*
G01*
X218252000Y-102747000D01*
G75*
G02*
X218117000Y-102882000I-135000J0D01*
G01*
X217747000Y-102882000D01*
G75*
G02*
X217612000Y-102747000I0J135000D01*
G01*
X217612000Y-102477000D01*
G75*
G02*
X217747000Y-102342000I135000J0D01*
G01*
G37*
G04 #@! TD*
G04 #@! TO.C,R45*
G36*
G01*
X214953000Y-103362000D02*
X215323000Y-103362000D01*
G75*
G02*
X215458000Y-103497000I0J-135000D01*
G01*
X215458000Y-103767000D01*
G75*
G02*
X215323000Y-103902000I-135000J0D01*
G01*
X214953000Y-103902000D01*
G75*
G02*
X214818000Y-103767000I0J135000D01*
G01*
X214818000Y-103497000D01*
G75*
G02*
X214953000Y-103362000I135000J0D01*
G01*
G37*
G36*
G01*
X214953000Y-102342000D02*
X215323000Y-102342000D01*
G75*
G02*
X215458000Y-102477000I0J-135000D01*
G01*
X215458000Y-102747000D01*
G75*
G02*
X215323000Y-102882000I-135000J0D01*
G01*
X214953000Y-102882000D01*
G75*
G02*
X214818000Y-102747000I0J135000D01*
G01*
X214818000Y-102477000D01*
G75*
G02*
X214953000Y-102342000I135000J0D01*
G01*
G37*
G04 #@! TD*
G04 #@! TO.C,R44*
G36*
G01*
X210889000Y-103362000D02*
X211259000Y-103362000D01*
G75*
G02*
X211394000Y-103497000I0J-135000D01*
G01*
X211394000Y-103767000D01*
G75*
G02*
X211259000Y-103902000I-135000J0D01*
G01*
X210889000Y-103902000D01*
G75*
G02*
X210754000Y-103767000I0J135000D01*
G01*
X210754000Y-103497000D01*
G75*
G02*
X210889000Y-103362000I135000J0D01*
G01*
G37*
G36*
G01*
X210889000Y-102342000D02*
X211259000Y-102342000D01*
G75*
G02*
X211394000Y-102477000I0J-135000D01*
G01*
X211394000Y-102747000D01*
G75*
G02*
X211259000Y-102882000I-135000J0D01*
G01*
X210889000Y-102882000D01*
G75*
G02*
X210754000Y-102747000I0J135000D01*
G01*
X210754000Y-102477000D01*
G75*
G02*
X210889000Y-102342000I135000J0D01*
G01*
G37*
G04 #@! TD*
G04 #@! TO.C,R40*
G36*
G01*
X206571000Y-103366000D02*
X206941000Y-103366000D01*
G75*
G02*
X207076000Y-103501000I0J-135000D01*
G01*
X207076000Y-103771000D01*
G75*
G02*
X206941000Y-103906000I-135000J0D01*
G01*
X206571000Y-103906000D01*
G75*
G02*
X206436000Y-103771000I0J135000D01*
G01*
X206436000Y-103501000D01*
G75*
G02*
X206571000Y-103366000I135000J0D01*
G01*
G37*
G36*
G01*
X206571000Y-102346000D02*
X206941000Y-102346000D01*
G75*
G02*
X207076000Y-102481000I0J-135000D01*
G01*
X207076000Y-102751000D01*
G75*
G02*
X206941000Y-102886000I-135000J0D01*
G01*
X206571000Y-102886000D01*
G75*
G02*
X206436000Y-102751000I0J135000D01*
G01*
X206436000Y-102481000D01*
G75*
G02*
X206571000Y-102346000I135000J0D01*
G01*
G37*
G04 #@! TD*
D18*
G04 #@! TO.C,D16*
X219202000Y-106426000D03*
X221202000Y-105476000D03*
X221202000Y-107376000D03*
G04 #@! TD*
G04 #@! TO.C,D11*
X214884000Y-106426000D03*
X216884000Y-105476000D03*
X216884000Y-107376000D03*
G04 #@! TD*
G04 #@! TO.C,D10*
X210820000Y-106426000D03*
X212820000Y-105476000D03*
X212820000Y-107376000D03*
G04 #@! TD*
G04 #@! TO.C,D6*
X206756000Y-106426000D03*
X208756000Y-105476000D03*
X208756000Y-107376000D03*
G04 #@! TD*
G04 #@! TO.C,R34*
G36*
G01*
X229587500Y-103549998D02*
X229587500Y-104450002D01*
G75*
G02*
X229337502Y-104700000I-249998J0D01*
G01*
X228812498Y-104700000D01*
G75*
G02*
X228562500Y-104450002I0J249998D01*
G01*
X228562500Y-103549998D01*
G75*
G02*
X228812498Y-103300000I249998J0D01*
G01*
X229337502Y-103300000D01*
G75*
G02*
X229587500Y-103549998I0J-249998D01*
G01*
G37*
G36*
G01*
X231412500Y-103549998D02*
X231412500Y-104450002D01*
G75*
G02*
X231162502Y-104700000I-249998J0D01*
G01*
X230637498Y-104700000D01*
G75*
G02*
X230387500Y-104450002I0J249998D01*
G01*
X230387500Y-103549998D01*
G75*
G02*
X230637498Y-103300000I249998J0D01*
G01*
X231162502Y-103300000D01*
G75*
G02*
X231412500Y-103549998I0J-249998D01*
G01*
G37*
G04 #@! TD*
G04 #@! TO.C,R28*
G36*
G01*
X229687500Y-117049998D02*
X229687500Y-117950002D01*
G75*
G02*
X229437502Y-118200000I-249998J0D01*
G01*
X228912498Y-118200000D01*
G75*
G02*
X228662500Y-117950002I0J249998D01*
G01*
X228662500Y-117049998D01*
G75*
G02*
X228912498Y-116800000I249998J0D01*
G01*
X229437502Y-116800000D01*
G75*
G02*
X229687500Y-117049998I0J-249998D01*
G01*
G37*
G36*
G01*
X231512500Y-117049998D02*
X231512500Y-117950002D01*
G75*
G02*
X231262502Y-118200000I-249998J0D01*
G01*
X230737498Y-118200000D01*
G75*
G02*
X230487500Y-117950002I0J249998D01*
G01*
X230487500Y-117049998D01*
G75*
G02*
X230737498Y-116800000I249998J0D01*
G01*
X231262502Y-116800000D01*
G75*
G02*
X231512500Y-117049998I0J-249998D01*
G01*
G37*
G04 #@! TD*
G04 #@! TO.C,R26*
G36*
G01*
X246337500Y-98849998D02*
X246337500Y-99750002D01*
G75*
G02*
X246087502Y-100000000I-249998J0D01*
G01*
X245562498Y-100000000D01*
G75*
G02*
X245312500Y-99750002I0J249998D01*
G01*
X245312500Y-98849998D01*
G75*
G02*
X245562498Y-98600000I249998J0D01*
G01*
X246087502Y-98600000D01*
G75*
G02*
X246337500Y-98849998I0J-249998D01*
G01*
G37*
G36*
G01*
X248162500Y-98849998D02*
X248162500Y-99750002D01*
G75*
G02*
X247912502Y-100000000I-249998J0D01*
G01*
X247387498Y-100000000D01*
G75*
G02*
X247137500Y-99750002I0J249998D01*
G01*
X247137500Y-98849998D01*
G75*
G02*
X247387498Y-98600000I249998J0D01*
G01*
X247912502Y-98600000D01*
G75*
G02*
X248162500Y-98849998I0J-249998D01*
G01*
G37*
G04 #@! TD*
G04 #@! TO.C,R25*
G36*
G01*
X246887500Y-121950002D02*
X246887500Y-121049998D01*
G75*
G02*
X247137498Y-120800000I249998J0D01*
G01*
X247662502Y-120800000D01*
G75*
G02*
X247912500Y-121049998I0J-249998D01*
G01*
X247912500Y-121950002D01*
G75*
G02*
X247662502Y-122200000I-249998J0D01*
G01*
X247137498Y-122200000D01*
G75*
G02*
X246887500Y-121950002I0J249998D01*
G01*
G37*
G36*
G01*
X245062500Y-121950002D02*
X245062500Y-121049998D01*
G75*
G02*
X245312498Y-120800000I249998J0D01*
G01*
X245837502Y-120800000D01*
G75*
G02*
X246087500Y-121049998I0J-249998D01*
G01*
X246087500Y-121950002D01*
G75*
G02*
X245837502Y-122200000I-249998J0D01*
G01*
X245312498Y-122200000D01*
G75*
G02*
X245062500Y-121950002I0J249998D01*
G01*
G37*
G04 #@! TD*
G04 #@! TO.C,C31*
G36*
G01*
X258107000Y-140847000D02*
X258107000Y-141347000D01*
G75*
G02*
X257882000Y-141572000I-225000J0D01*
G01*
X257432000Y-141572000D01*
G75*
G02*
X257207000Y-141347000I0J225000D01*
G01*
X257207000Y-140847000D01*
G75*
G02*
X257432000Y-140622000I225000J0D01*
G01*
X257882000Y-140622000D01*
G75*
G02*
X258107000Y-140847000I0J-225000D01*
G01*
G37*
G36*
G01*
X259657000Y-140847000D02*
X259657000Y-141347000D01*
G75*
G02*
X259432000Y-141572000I-225000J0D01*
G01*
X258982000Y-141572000D01*
G75*
G02*
X258757000Y-141347000I0J225000D01*
G01*
X258757000Y-140847000D01*
G75*
G02*
X258982000Y-140622000I225000J0D01*
G01*
X259432000Y-140622000D01*
G75*
G02*
X259657000Y-140847000I0J-225000D01*
G01*
G37*
G04 #@! TD*
G04 #@! TO.C,C24*
G36*
G01*
X256910000Y-138414999D02*
X256910000Y-139715001D01*
G75*
G02*
X256660001Y-139965000I-249999J0D01*
G01*
X256009999Y-139965000D01*
G75*
G02*
X255760000Y-139715001I0J249999D01*
G01*
X255760000Y-138414999D01*
G75*
G02*
X256009999Y-138165000I249999J0D01*
G01*
X256660001Y-138165000D01*
G75*
G02*
X256910000Y-138414999I0J-249999D01*
G01*
G37*
G36*
G01*
X259860000Y-138414999D02*
X259860000Y-139715001D01*
G75*
G02*
X259610001Y-139965000I-249999J0D01*
G01*
X258959999Y-139965000D01*
G75*
G02*
X258710000Y-139715001I0J249999D01*
G01*
X258710000Y-138414999D01*
G75*
G02*
X258959999Y-138165000I249999J0D01*
G01*
X259610001Y-138165000D01*
G75*
G02*
X259860000Y-138414999I0J-249999D01*
G01*
G37*
G04 #@! TD*
G04 #@! TO.C,C30*
G36*
G01*
X189058000Y-131148000D02*
X189058000Y-131488000D01*
G75*
G02*
X188918000Y-131628000I-140000J0D01*
G01*
X188638000Y-131628000D01*
G75*
G02*
X188498000Y-131488000I0J140000D01*
G01*
X188498000Y-131148000D01*
G75*
G02*
X188638000Y-131008000I140000J0D01*
G01*
X188918000Y-131008000D01*
G75*
G02*
X189058000Y-131148000I0J-140000D01*
G01*
G37*
G36*
G01*
X190018000Y-131148000D02*
X190018000Y-131488000D01*
G75*
G02*
X189878000Y-131628000I-140000J0D01*
G01*
X189598000Y-131628000D01*
G75*
G02*
X189458000Y-131488000I0J140000D01*
G01*
X189458000Y-131148000D01*
G75*
G02*
X189598000Y-131008000I140000J0D01*
G01*
X189878000Y-131008000D01*
G75*
G02*
X190018000Y-131148000I0J-140000D01*
G01*
G37*
G04 #@! TD*
G04 #@! TO.C,C14*
G36*
G01*
X189185000Y-132672000D02*
X189185000Y-133012000D01*
G75*
G02*
X189045000Y-133152000I-140000J0D01*
G01*
X188765000Y-133152000D01*
G75*
G02*
X188625000Y-133012000I0J140000D01*
G01*
X188625000Y-132672000D01*
G75*
G02*
X188765000Y-132532000I140000J0D01*
G01*
X189045000Y-132532000D01*
G75*
G02*
X189185000Y-132672000I0J-140000D01*
G01*
G37*
G36*
G01*
X190145000Y-132672000D02*
X190145000Y-133012000D01*
G75*
G02*
X190005000Y-133152000I-140000J0D01*
G01*
X189725000Y-133152000D01*
G75*
G02*
X189585000Y-133012000I0J140000D01*
G01*
X189585000Y-132672000D01*
G75*
G02*
X189725000Y-132532000I140000J0D01*
G01*
X190005000Y-132532000D01*
G75*
G02*
X190145000Y-132672000I0J-140000D01*
G01*
G37*
G04 #@! TD*
G04 #@! TO.C,C4*
G36*
G01*
X235679000Y-135125000D02*
X234729000Y-135125000D01*
G75*
G02*
X234479000Y-134875000I0J250000D01*
G01*
X234479000Y-134375000D01*
G75*
G02*
X234729000Y-134125000I250000J0D01*
G01*
X235679000Y-134125000D01*
G75*
G02*
X235929000Y-134375000I0J-250000D01*
G01*
X235929000Y-134875000D01*
G75*
G02*
X235679000Y-135125000I-250000J0D01*
G01*
G37*
G36*
G01*
X235679000Y-137025000D02*
X234729000Y-137025000D01*
G75*
G02*
X234479000Y-136775000I0J250000D01*
G01*
X234479000Y-136275000D01*
G75*
G02*
X234729000Y-136025000I250000J0D01*
G01*
X235679000Y-136025000D01*
G75*
G02*
X235929000Y-136275000I0J-250000D01*
G01*
X235929000Y-136775000D01*
G75*
G02*
X235679000Y-137025000I-250000J0D01*
G01*
G37*
G04 #@! TD*
G04 #@! TO.C,C3*
G36*
G01*
X248953000Y-141100000D02*
X249903000Y-141100000D01*
G75*
G02*
X250153000Y-141350000I0J-250000D01*
G01*
X250153000Y-141850000D01*
G75*
G02*
X249903000Y-142100000I-250000J0D01*
G01*
X248953000Y-142100000D01*
G75*
G02*
X248703000Y-141850000I0J250000D01*
G01*
X248703000Y-141350000D01*
G75*
G02*
X248953000Y-141100000I250000J0D01*
G01*
G37*
G36*
G01*
X248953000Y-139200000D02*
X249903000Y-139200000D01*
G75*
G02*
X250153000Y-139450000I0J-250000D01*
G01*
X250153000Y-139950000D01*
G75*
G02*
X249903000Y-140200000I-250000J0D01*
G01*
X248953000Y-140200000D01*
G75*
G02*
X248703000Y-139950000I0J250000D01*
G01*
X248703000Y-139450000D01*
G75*
G02*
X248953000Y-139200000I250000J0D01*
G01*
G37*
G04 #@! TD*
D19*
G04 #@! TO.C,U6*
X206502000Y-110524000D03*
X205232000Y-110524000D03*
X206502000Y-128524000D03*
X205232000Y-128524000D03*
D20*
X195152000Y-119824000D03*
D19*
X187452000Y-128524000D03*
X188722000Y-128524000D03*
X189992000Y-128524000D03*
X191262000Y-128524000D03*
X192532000Y-128524000D03*
X193802000Y-128524000D03*
X195072000Y-128524000D03*
X196342000Y-128524000D03*
X197612000Y-128524000D03*
X198882000Y-128524000D03*
X200152000Y-128524000D03*
X201422000Y-128524000D03*
X202692000Y-128524000D03*
X203962000Y-128524000D03*
D21*
X205452000Y-125239000D03*
X205452000Y-123969000D03*
X205452000Y-115079000D03*
X205452000Y-113809000D03*
D19*
X203962000Y-110524000D03*
X202692000Y-110524000D03*
X201422000Y-110524000D03*
X200152000Y-110524000D03*
X198882000Y-110524000D03*
X197612000Y-110524000D03*
X196342000Y-110524000D03*
X195072000Y-110524000D03*
X193802000Y-110524000D03*
X192532000Y-110524000D03*
X191262000Y-110524000D03*
X189992000Y-110524000D03*
X188722000Y-110524000D03*
X187452000Y-110524000D03*
G04 #@! TD*
G04 #@! TO.C,R43*
G36*
G01*
X263075000Y-112441000D02*
X262705000Y-112441000D01*
G75*
G02*
X262570000Y-112306000I0J135000D01*
G01*
X262570000Y-112036000D01*
G75*
G02*
X262705000Y-111901000I135000J0D01*
G01*
X263075000Y-111901000D01*
G75*
G02*
X263210000Y-112036000I0J-135000D01*
G01*
X263210000Y-112306000D01*
G75*
G02*
X263075000Y-112441000I-135000J0D01*
G01*
G37*
G36*
G01*
X263075000Y-113461000D02*
X262705000Y-113461000D01*
G75*
G02*
X262570000Y-113326000I0J135000D01*
G01*
X262570000Y-113056000D01*
G75*
G02*
X262705000Y-112921000I135000J0D01*
G01*
X263075000Y-112921000D01*
G75*
G02*
X263210000Y-113056000I0J-135000D01*
G01*
X263210000Y-113326000D01*
G75*
G02*
X263075000Y-113461000I-135000J0D01*
G01*
G37*
G04 #@! TD*
G04 #@! TO.C,R42*
G36*
G01*
X259346000Y-107003000D02*
X259346000Y-107373000D01*
G75*
G02*
X259211000Y-107508000I-135000J0D01*
G01*
X258941000Y-107508000D01*
G75*
G02*
X258806000Y-107373000I0J135000D01*
G01*
X258806000Y-107003000D01*
G75*
G02*
X258941000Y-106868000I135000J0D01*
G01*
X259211000Y-106868000D01*
G75*
G02*
X259346000Y-107003000I0J-135000D01*
G01*
G37*
G36*
G01*
X260366000Y-107003000D02*
X260366000Y-107373000D01*
G75*
G02*
X260231000Y-107508000I-135000J0D01*
G01*
X259961000Y-107508000D01*
G75*
G02*
X259826000Y-107373000I0J135000D01*
G01*
X259826000Y-107003000D01*
G75*
G02*
X259961000Y-106868000I135000J0D01*
G01*
X260231000Y-106868000D01*
G75*
G02*
X260366000Y-107003000I0J-135000D01*
G01*
G37*
G04 #@! TD*
G04 #@! TO.C,R41*
G36*
G01*
X262403000Y-109240000D02*
X261853000Y-109240000D01*
G75*
G02*
X261653000Y-109040000I0J200000D01*
G01*
X261653000Y-108640000D01*
G75*
G02*
X261853000Y-108440000I200000J0D01*
G01*
X262403000Y-108440000D01*
G75*
G02*
X262603000Y-108640000I0J-200000D01*
G01*
X262603000Y-109040000D01*
G75*
G02*
X262403000Y-109240000I-200000J0D01*
G01*
G37*
G36*
G01*
X262403000Y-110890000D02*
X261853000Y-110890000D01*
G75*
G02*
X261653000Y-110690000I0J200000D01*
G01*
X261653000Y-110290000D01*
G75*
G02*
X261853000Y-110090000I200000J0D01*
G01*
X262403000Y-110090000D01*
G75*
G02*
X262603000Y-110290000I0J-200000D01*
G01*
X262603000Y-110690000D01*
G75*
G02*
X262403000Y-110890000I-200000J0D01*
G01*
G37*
G04 #@! TD*
D13*
G04 #@! TO.C,D17*
X253492000Y-115985000D03*
X253492000Y-112685000D03*
G04 #@! TD*
G04 #@! TO.C,C29*
G36*
G01*
X251630000Y-106000000D02*
X251290000Y-106000000D01*
G75*
G02*
X251150000Y-105860000I0J140000D01*
G01*
X251150000Y-105580000D01*
G75*
G02*
X251290000Y-105440000I140000J0D01*
G01*
X251630000Y-105440000D01*
G75*
G02*
X251770000Y-105580000I0J-140000D01*
G01*
X251770000Y-105860000D01*
G75*
G02*
X251630000Y-106000000I-140000J0D01*
G01*
G37*
G36*
G01*
X251630000Y-106960000D02*
X251290000Y-106960000D01*
G75*
G02*
X251150000Y-106820000I0J140000D01*
G01*
X251150000Y-106540000D01*
G75*
G02*
X251290000Y-106400000I140000J0D01*
G01*
X251630000Y-106400000D01*
G75*
G02*
X251770000Y-106540000I0J-140000D01*
G01*
X251770000Y-106820000D01*
G75*
G02*
X251630000Y-106960000I-140000J0D01*
G01*
G37*
G04 #@! TD*
G04 #@! TO.C,C28*
G36*
G01*
X253530000Y-103039999D02*
X253530000Y-105240001D01*
G75*
G02*
X253280001Y-105490000I-249999J0D01*
G01*
X252629999Y-105490000D01*
G75*
G02*
X252380000Y-105240001I0J249999D01*
G01*
X252380000Y-103039999D01*
G75*
G02*
X252629999Y-102790000I249999J0D01*
G01*
X253280001Y-102790000D01*
G75*
G02*
X253530000Y-103039999I0J-249999D01*
G01*
G37*
G36*
G01*
X256480000Y-103039999D02*
X256480000Y-105240001D01*
G75*
G02*
X256230001Y-105490000I-249999J0D01*
G01*
X255579999Y-105490000D01*
G75*
G02*
X255330000Y-105240001I0J249999D01*
G01*
X255330000Y-103039999D01*
G75*
G02*
X255579999Y-102790000I249999J0D01*
G01*
X256230001Y-102790000D01*
G75*
G02*
X256480000Y-103039999I0J-249999D01*
G01*
G37*
G04 #@! TD*
G04 #@! TO.C,C27*
G36*
G01*
X260185000Y-105240001D02*
X260185000Y-103039999D01*
G75*
G02*
X260434999Y-102790000I249999J0D01*
G01*
X261085001Y-102790000D01*
G75*
G02*
X261335000Y-103039999I0J-249999D01*
G01*
X261335000Y-105240001D01*
G75*
G02*
X261085001Y-105490000I-249999J0D01*
G01*
X260434999Y-105490000D01*
G75*
G02*
X260185000Y-105240001I0J249999D01*
G01*
G37*
G36*
G01*
X257235000Y-105240001D02*
X257235000Y-103039999D01*
G75*
G02*
X257484999Y-102790000I249999J0D01*
G01*
X258135001Y-102790000D01*
G75*
G02*
X258385000Y-103039999I0J-249999D01*
G01*
X258385000Y-105240001D01*
G75*
G02*
X258135001Y-105490000I-249999J0D01*
G01*
X257484999Y-105490000D01*
G75*
G02*
X257235000Y-105240001I0J249999D01*
G01*
G37*
G04 #@! TD*
G04 #@! TO.C,C26*
G36*
G01*
X255884000Y-118043000D02*
X255544000Y-118043000D01*
G75*
G02*
X255404000Y-117903000I0J140000D01*
G01*
X255404000Y-117623000D01*
G75*
G02*
X255544000Y-117483000I140000J0D01*
G01*
X255884000Y-117483000D01*
G75*
G02*
X256024000Y-117623000I0J-140000D01*
G01*
X256024000Y-117903000D01*
G75*
G02*
X255884000Y-118043000I-140000J0D01*
G01*
G37*
G36*
G01*
X255884000Y-119003000D02*
X255544000Y-119003000D01*
G75*
G02*
X255404000Y-118863000I0J140000D01*
G01*
X255404000Y-118583000D01*
G75*
G02*
X255544000Y-118443000I140000J0D01*
G01*
X255884000Y-118443000D01*
G75*
G02*
X256024000Y-118583000I0J-140000D01*
G01*
X256024000Y-118863000D01*
G75*
G02*
X255884000Y-119003000I-140000J0D01*
G01*
G37*
G04 #@! TD*
G04 #@! TO.C,C25*
G36*
G01*
X259416000Y-108288000D02*
X259416000Y-108628000D01*
G75*
G02*
X259276000Y-108768000I-140000J0D01*
G01*
X258996000Y-108768000D01*
G75*
G02*
X258856000Y-108628000I0J140000D01*
G01*
X258856000Y-108288000D01*
G75*
G02*
X258996000Y-108148000I140000J0D01*
G01*
X259276000Y-108148000D01*
G75*
G02*
X259416000Y-108288000I0J-140000D01*
G01*
G37*
G36*
G01*
X260376000Y-108288000D02*
X260376000Y-108628000D01*
G75*
G02*
X260236000Y-108768000I-140000J0D01*
G01*
X259956000Y-108768000D01*
G75*
G02*
X259816000Y-108628000I0J140000D01*
G01*
X259816000Y-108288000D01*
G75*
G02*
X259956000Y-108148000I140000J0D01*
G01*
X260236000Y-108148000D01*
G75*
G02*
X260376000Y-108288000I0J-140000D01*
G01*
G37*
G04 #@! TD*
G04 #@! TO.C,C21*
G36*
G01*
X259225000Y-109558000D02*
X259225000Y-109898000D01*
G75*
G02*
X259085000Y-110038000I-140000J0D01*
G01*
X258805000Y-110038000D01*
G75*
G02*
X258665000Y-109898000I0J140000D01*
G01*
X258665000Y-109558000D01*
G75*
G02*
X258805000Y-109418000I140000J0D01*
G01*
X259085000Y-109418000D01*
G75*
G02*
X259225000Y-109558000I0J-140000D01*
G01*
G37*
G36*
G01*
X260185000Y-109558000D02*
X260185000Y-109898000D01*
G75*
G02*
X260045000Y-110038000I-140000J0D01*
G01*
X259765000Y-110038000D01*
G75*
G02*
X259625000Y-109898000I0J140000D01*
G01*
X259625000Y-109558000D01*
G75*
G02*
X259765000Y-109418000I140000J0D01*
G01*
X260045000Y-109418000D01*
G75*
G02*
X260185000Y-109558000I0J-140000D01*
G01*
G37*
G04 #@! TD*
G04 #@! TO.C,C20*
G36*
G01*
X261455000Y-120826001D02*
X261455000Y-119525999D01*
G75*
G02*
X261704999Y-119276000I249999J0D01*
G01*
X262355001Y-119276000D01*
G75*
G02*
X262605000Y-119525999I0J-249999D01*
G01*
X262605000Y-120826001D01*
G75*
G02*
X262355001Y-121076000I-249999J0D01*
G01*
X261704999Y-121076000D01*
G75*
G02*
X261455000Y-120826001I0J249999D01*
G01*
G37*
G36*
G01*
X258505000Y-120826001D02*
X258505000Y-119525999D01*
G75*
G02*
X258754999Y-119276000I249999J0D01*
G01*
X259405001Y-119276000D01*
G75*
G02*
X259655000Y-119525999I0J-249999D01*
G01*
X259655000Y-120826001D01*
G75*
G02*
X259405001Y-121076000I-249999J0D01*
G01*
X258754999Y-121076000D01*
G75*
G02*
X258505000Y-120826001I0J249999D01*
G01*
G37*
G04 #@! TD*
G04 #@! TO.C,C19*
G36*
G01*
X263060000Y-117281000D02*
X262720000Y-117281000D01*
G75*
G02*
X262580000Y-117141000I0J140000D01*
G01*
X262580000Y-116861000D01*
G75*
G02*
X262720000Y-116721000I140000J0D01*
G01*
X263060000Y-116721000D01*
G75*
G02*
X263200000Y-116861000I0J-140000D01*
G01*
X263200000Y-117141000D01*
G75*
G02*
X263060000Y-117281000I-140000J0D01*
G01*
G37*
G36*
G01*
X263060000Y-118241000D02*
X262720000Y-118241000D01*
G75*
G02*
X262580000Y-118101000I0J140000D01*
G01*
X262580000Y-117821000D01*
G75*
G02*
X262720000Y-117681000I140000J0D01*
G01*
X263060000Y-117681000D01*
G75*
G02*
X263200000Y-117821000I0J-140000D01*
G01*
X263200000Y-118101000D01*
G75*
G02*
X263060000Y-118241000I-140000J0D01*
G01*
G37*
G04 #@! TD*
D10*
G04 #@! TO.C,D9*
X255145000Y-143129000D03*
X258445000Y-143129000D03*
G04 #@! TD*
D22*
G04 #@! TO.C,U12*
X194122000Y-135425000D03*
X196022000Y-135425000D03*
X196022000Y-137625000D03*
X195072000Y-137625000D03*
X194122000Y-137625000D03*
G04 #@! TD*
G04 #@! TO.C,U11*
X189037000Y-141646000D03*
X187137000Y-141646000D03*
X187137000Y-139446000D03*
X188087000Y-139446000D03*
X189037000Y-139446000D03*
G04 #@! TD*
G04 #@! TO.C,R39*
G36*
G01*
X194675000Y-131630000D02*
X194675000Y-131260000D01*
G75*
G02*
X194810000Y-131125000I135000J0D01*
G01*
X195080000Y-131125000D01*
G75*
G02*
X195215000Y-131260000I0J-135000D01*
G01*
X195215000Y-131630000D01*
G75*
G02*
X195080000Y-131765000I-135000J0D01*
G01*
X194810000Y-131765000D01*
G75*
G02*
X194675000Y-131630000I0J135000D01*
G01*
G37*
G36*
G01*
X193655000Y-131630000D02*
X193655000Y-131260000D01*
G75*
G02*
X193790000Y-131125000I135000J0D01*
G01*
X194060000Y-131125000D01*
G75*
G02*
X194195000Y-131260000I0J-135000D01*
G01*
X194195000Y-131630000D01*
G75*
G02*
X194060000Y-131765000I-135000J0D01*
G01*
X193790000Y-131765000D01*
G75*
G02*
X193655000Y-131630000I0J135000D01*
G01*
G37*
G04 #@! TD*
G04 #@! TO.C,R38*
G36*
G01*
X194199000Y-132530000D02*
X194199000Y-132900000D01*
G75*
G02*
X194064000Y-133035000I-135000J0D01*
G01*
X193794000Y-133035000D01*
G75*
G02*
X193659000Y-132900000I0J135000D01*
G01*
X193659000Y-132530000D01*
G75*
G02*
X193794000Y-132395000I135000J0D01*
G01*
X194064000Y-132395000D01*
G75*
G02*
X194199000Y-132530000I0J-135000D01*
G01*
G37*
G36*
G01*
X195219000Y-132530000D02*
X195219000Y-132900000D01*
G75*
G02*
X195084000Y-133035000I-135000J0D01*
G01*
X194814000Y-133035000D01*
G75*
G02*
X194679000Y-132900000I0J135000D01*
G01*
X194679000Y-132530000D01*
G75*
G02*
X194814000Y-132395000I135000J0D01*
G01*
X195084000Y-132395000D01*
G75*
G02*
X195219000Y-132530000I0J-135000D01*
G01*
G37*
G04 #@! TD*
G04 #@! TO.C,R37*
G36*
G01*
X195310000Y-139504000D02*
X195310000Y-139134000D01*
G75*
G02*
X195445000Y-138999000I135000J0D01*
G01*
X195715000Y-138999000D01*
G75*
G02*
X195850000Y-139134000I0J-135000D01*
G01*
X195850000Y-139504000D01*
G75*
G02*
X195715000Y-139639000I-135000J0D01*
G01*
X195445000Y-139639000D01*
G75*
G02*
X195310000Y-139504000I0J135000D01*
G01*
G37*
G36*
G01*
X194290000Y-139504000D02*
X194290000Y-139134000D01*
G75*
G02*
X194425000Y-138999000I135000J0D01*
G01*
X194695000Y-138999000D01*
G75*
G02*
X194830000Y-139134000I0J-135000D01*
G01*
X194830000Y-139504000D01*
G75*
G02*
X194695000Y-139639000I-135000J0D01*
G01*
X194425000Y-139639000D01*
G75*
G02*
X194290000Y-139504000I0J135000D01*
G01*
G37*
G04 #@! TD*
G04 #@! TO.C,R36*
G36*
G01*
X197315000Y-139315000D02*
X197685000Y-139315000D01*
G75*
G02*
X197820000Y-139450000I0J-135000D01*
G01*
X197820000Y-139720000D01*
G75*
G02*
X197685000Y-139855000I-135000J0D01*
G01*
X197315000Y-139855000D01*
G75*
G02*
X197180000Y-139720000I0J135000D01*
G01*
X197180000Y-139450000D01*
G75*
G02*
X197315000Y-139315000I135000J0D01*
G01*
G37*
G36*
G01*
X197315000Y-138295000D02*
X197685000Y-138295000D01*
G75*
G02*
X197820000Y-138430000I0J-135000D01*
G01*
X197820000Y-138700000D01*
G75*
G02*
X197685000Y-138835000I-135000J0D01*
G01*
X197315000Y-138835000D01*
G75*
G02*
X197180000Y-138700000I0J135000D01*
G01*
X197180000Y-138430000D01*
G75*
G02*
X197315000Y-138295000I135000J0D01*
G01*
G37*
G04 #@! TD*
G04 #@! TO.C,R35*
G36*
G01*
X195219000Y-133800000D02*
X195219000Y-134170000D01*
G75*
G02*
X195084000Y-134305000I-135000J0D01*
G01*
X194814000Y-134305000D01*
G75*
G02*
X194679000Y-134170000I0J135000D01*
G01*
X194679000Y-133800000D01*
G75*
G02*
X194814000Y-133665000I135000J0D01*
G01*
X195084000Y-133665000D01*
G75*
G02*
X195219000Y-133800000I0J-135000D01*
G01*
G37*
G36*
G01*
X194199000Y-133800000D02*
X194199000Y-134170000D01*
G75*
G02*
X194064000Y-134305000I-135000J0D01*
G01*
X193794000Y-134305000D01*
G75*
G02*
X193659000Y-134170000I0J135000D01*
G01*
X193659000Y-133800000D01*
G75*
G02*
X193794000Y-133665000I135000J0D01*
G01*
X194064000Y-133665000D01*
G75*
G02*
X194199000Y-133800000I0J-135000D01*
G01*
G37*
G04 #@! TD*
G04 #@! TO.C,R30*
G36*
G01*
X201353000Y-135648000D02*
X200983000Y-135648000D01*
G75*
G02*
X200848000Y-135513000I0J135000D01*
G01*
X200848000Y-135243000D01*
G75*
G02*
X200983000Y-135108000I135000J0D01*
G01*
X201353000Y-135108000D01*
G75*
G02*
X201488000Y-135243000I0J-135000D01*
G01*
X201488000Y-135513000D01*
G75*
G02*
X201353000Y-135648000I-135000J0D01*
G01*
G37*
G36*
G01*
X201353000Y-136668000D02*
X200983000Y-136668000D01*
G75*
G02*
X200848000Y-136533000I0J135000D01*
G01*
X200848000Y-136263000D01*
G75*
G02*
X200983000Y-136128000I135000J0D01*
G01*
X201353000Y-136128000D01*
G75*
G02*
X201488000Y-136263000I0J-135000D01*
G01*
X201488000Y-136533000D01*
G75*
G02*
X201353000Y-136668000I-135000J0D01*
G01*
G37*
G04 #@! TD*
D18*
G04 #@! TO.C,Q6*
X197771000Y-135829000D03*
X199771000Y-134879000D03*
X199771000Y-136779000D03*
G04 #@! TD*
G04 #@! TO.C,L2*
G36*
G01*
X190412000Y-136975000D02*
X192112000Y-136975000D01*
G75*
G02*
X192362000Y-137225000I0J-250000D01*
G01*
X192362000Y-137975000D01*
G75*
G02*
X192112000Y-138225000I-250000J0D01*
G01*
X190412000Y-138225000D01*
G75*
G02*
X190162000Y-137975000I0J250000D01*
G01*
X190162000Y-137225000D01*
G75*
G02*
X190412000Y-136975000I250000J0D01*
G01*
G37*
G36*
G01*
X190412000Y-134825000D02*
X192112000Y-134825000D01*
G75*
G02*
X192362000Y-135075000I0J-250000D01*
G01*
X192362000Y-135825000D01*
G75*
G02*
X192112000Y-136075000I-250000J0D01*
G01*
X190412000Y-136075000D01*
G75*
G02*
X190162000Y-135825000I0J250000D01*
G01*
X190162000Y-135075000D01*
G75*
G02*
X190412000Y-134825000I250000J0D01*
G01*
G37*
G04 #@! TD*
G04 #@! TO.C,D15*
G36*
G01*
X251502750Y-123131500D02*
X252015250Y-123131500D01*
G75*
G02*
X252234000Y-123350250I0J-218750D01*
G01*
X252234000Y-123787750D01*
G75*
G02*
X252015250Y-124006500I-218750J0D01*
G01*
X251502750Y-124006500D01*
G75*
G02*
X251284000Y-123787750I0J218750D01*
G01*
X251284000Y-123350250D01*
G75*
G02*
X251502750Y-123131500I218750J0D01*
G01*
G37*
G36*
G01*
X251502750Y-121556500D02*
X252015250Y-121556500D01*
G75*
G02*
X252234000Y-121775250I0J-218750D01*
G01*
X252234000Y-122212750D01*
G75*
G02*
X252015250Y-122431500I-218750J0D01*
G01*
X251502750Y-122431500D01*
G75*
G02*
X251284000Y-122212750I0J218750D01*
G01*
X251284000Y-121775250D01*
G75*
G02*
X251502750Y-121556500I218750J0D01*
G01*
G37*
G04 #@! TD*
D13*
G04 #@! TO.C,D14*
X243100000Y-131450000D03*
X243100000Y-134750000D03*
G04 #@! TD*
G04 #@! TO.C,D13*
X199863000Y-141884000D03*
X199863000Y-138584000D03*
G04 #@! TD*
D10*
G04 #@! TO.C,D7*
X191772000Y-141478000D03*
X195072000Y-141478000D03*
G04 #@! TD*
G04 #@! TO.C,C18*
G36*
G01*
X186580000Y-136730000D02*
X186580000Y-137070000D01*
G75*
G02*
X186440000Y-137210000I-140000J0D01*
G01*
X186160000Y-137210000D01*
G75*
G02*
X186020000Y-137070000I0J140000D01*
G01*
X186020000Y-136730000D01*
G75*
G02*
X186160000Y-136590000I140000J0D01*
G01*
X186440000Y-136590000D01*
G75*
G02*
X186580000Y-136730000I0J-140000D01*
G01*
G37*
G36*
G01*
X187540000Y-136730000D02*
X187540000Y-137070000D01*
G75*
G02*
X187400000Y-137210000I-140000J0D01*
G01*
X187120000Y-137210000D01*
G75*
G02*
X186980000Y-137070000I0J140000D01*
G01*
X186980000Y-136730000D01*
G75*
G02*
X187120000Y-136590000I140000J0D01*
G01*
X187400000Y-136590000D01*
G75*
G02*
X187540000Y-136730000I0J-140000D01*
G01*
G37*
G04 #@! TD*
G04 #@! TO.C,C17*
G36*
G01*
X186580000Y-137930000D02*
X186580000Y-138270000D01*
G75*
G02*
X186440000Y-138410000I-140000J0D01*
G01*
X186160000Y-138410000D01*
G75*
G02*
X186020000Y-138270000I0J140000D01*
G01*
X186020000Y-137930000D01*
G75*
G02*
X186160000Y-137790000I140000J0D01*
G01*
X186440000Y-137790000D01*
G75*
G02*
X186580000Y-137930000I0J-140000D01*
G01*
G37*
G36*
G01*
X187540000Y-137930000D02*
X187540000Y-138270000D01*
G75*
G02*
X187400000Y-138410000I-140000J0D01*
G01*
X187120000Y-138410000D01*
G75*
G02*
X186980000Y-138270000I0J140000D01*
G01*
X186980000Y-137930000D01*
G75*
G02*
X187120000Y-137790000I140000J0D01*
G01*
X187400000Y-137790000D01*
G75*
G02*
X187540000Y-137930000I0J-140000D01*
G01*
G37*
G04 #@! TD*
G04 #@! TO.C,C16*
G36*
G01*
X187751000Y-143426000D02*
X187751000Y-143086000D01*
G75*
G02*
X187891000Y-142946000I140000J0D01*
G01*
X188171000Y-142946000D01*
G75*
G02*
X188311000Y-143086000I0J-140000D01*
G01*
X188311000Y-143426000D01*
G75*
G02*
X188171000Y-143566000I-140000J0D01*
G01*
X187891000Y-143566000D01*
G75*
G02*
X187751000Y-143426000I0J140000D01*
G01*
G37*
G36*
G01*
X186791000Y-143426000D02*
X186791000Y-143086000D01*
G75*
G02*
X186931000Y-142946000I140000J0D01*
G01*
X187211000Y-142946000D01*
G75*
G02*
X187351000Y-143086000I0J-140000D01*
G01*
X187351000Y-143426000D01*
G75*
G02*
X187211000Y-143566000I-140000J0D01*
G01*
X186931000Y-143566000D01*
G75*
G02*
X186791000Y-143426000I0J140000D01*
G01*
G37*
G04 #@! TD*
D23*
G04 #@! TO.C,U10*
X237783000Y-121904000D03*
X237783000Y-121404000D03*
X237783000Y-120904000D03*
X237783000Y-120404000D03*
X237783000Y-119904000D03*
X242083000Y-119904000D03*
X242083000Y-120404000D03*
X242083000Y-120904000D03*
X242083000Y-121404000D03*
X242083000Y-121904000D03*
G04 #@! TD*
D24*
G04 #@! TO.C,D12*
X181446000Y-131877000D03*
X181446000Y-135077000D03*
X186346000Y-131877000D03*
X186346000Y-135077000D03*
G04 #@! TD*
G04 #@! TO.C,C15*
G36*
G01*
X235300000Y-121230000D02*
X235300000Y-121570000D01*
G75*
G02*
X235160000Y-121710000I-140000J0D01*
G01*
X234880000Y-121710000D01*
G75*
G02*
X234740000Y-121570000I0J140000D01*
G01*
X234740000Y-121230000D01*
G75*
G02*
X234880000Y-121090000I140000J0D01*
G01*
X235160000Y-121090000D01*
G75*
G02*
X235300000Y-121230000I0J-140000D01*
G01*
G37*
G36*
G01*
X236260000Y-121230000D02*
X236260000Y-121570000D01*
G75*
G02*
X236120000Y-121710000I-140000J0D01*
G01*
X235840000Y-121710000D01*
G75*
G02*
X235700000Y-121570000I0J140000D01*
G01*
X235700000Y-121230000D01*
G75*
G02*
X235840000Y-121090000I140000J0D01*
G01*
X236120000Y-121090000D01*
G75*
G02*
X236260000Y-121230000I0J-140000D01*
G01*
G37*
G04 #@! TD*
G04 #@! TO.C,R23*
G36*
G01*
X235140000Y-104635000D02*
X235140000Y-104265000D01*
G75*
G02*
X235275000Y-104130000I135000J0D01*
G01*
X235545000Y-104130000D01*
G75*
G02*
X235680000Y-104265000I0J-135000D01*
G01*
X235680000Y-104635000D01*
G75*
G02*
X235545000Y-104770000I-135000J0D01*
G01*
X235275000Y-104770000D01*
G75*
G02*
X235140000Y-104635000I0J135000D01*
G01*
G37*
G36*
G01*
X234120000Y-104635000D02*
X234120000Y-104265000D01*
G75*
G02*
X234255000Y-104130000I135000J0D01*
G01*
X234525000Y-104130000D01*
G75*
G02*
X234660000Y-104265000I0J-135000D01*
G01*
X234660000Y-104635000D01*
G75*
G02*
X234525000Y-104770000I-135000J0D01*
G01*
X234255000Y-104770000D01*
G75*
G02*
X234120000Y-104635000I0J135000D01*
G01*
G37*
G04 #@! TD*
G04 #@! TO.C,R10*
G36*
G01*
X236585000Y-116602000D02*
X236215000Y-116602000D01*
G75*
G02*
X236080000Y-116467000I0J135000D01*
G01*
X236080000Y-116197000D01*
G75*
G02*
X236215000Y-116062000I135000J0D01*
G01*
X236585000Y-116062000D01*
G75*
G02*
X236720000Y-116197000I0J-135000D01*
G01*
X236720000Y-116467000D01*
G75*
G02*
X236585000Y-116602000I-135000J0D01*
G01*
G37*
G36*
G01*
X236585000Y-117622000D02*
X236215000Y-117622000D01*
G75*
G02*
X236080000Y-117487000I0J135000D01*
G01*
X236080000Y-117217000D01*
G75*
G02*
X236215000Y-117082000I135000J0D01*
G01*
X236585000Y-117082000D01*
G75*
G02*
X236720000Y-117217000I0J-135000D01*
G01*
X236720000Y-117487000D01*
G75*
G02*
X236585000Y-117622000I-135000J0D01*
G01*
G37*
G04 #@! TD*
G04 #@! TO.C,R33*
G36*
G01*
X228184000Y-130503000D02*
X228184000Y-130133000D01*
G75*
G02*
X228319000Y-129998000I135000J0D01*
G01*
X228589000Y-129998000D01*
G75*
G02*
X228724000Y-130133000I0J-135000D01*
G01*
X228724000Y-130503000D01*
G75*
G02*
X228589000Y-130638000I-135000J0D01*
G01*
X228319000Y-130638000D01*
G75*
G02*
X228184000Y-130503000I0J135000D01*
G01*
G37*
G36*
G01*
X227164000Y-130503000D02*
X227164000Y-130133000D01*
G75*
G02*
X227299000Y-129998000I135000J0D01*
G01*
X227569000Y-129998000D01*
G75*
G02*
X227704000Y-130133000I0J-135000D01*
G01*
X227704000Y-130503000D01*
G75*
G02*
X227569000Y-130638000I-135000J0D01*
G01*
X227299000Y-130638000D01*
G75*
G02*
X227164000Y-130503000I0J135000D01*
G01*
G37*
G04 #@! TD*
D13*
G04 #@! TO.C,D2*
X202403000Y-141884000D03*
X202403000Y-138584000D03*
G04 #@! TD*
G04 #@! TO.C,U9*
G36*
G01*
X241179000Y-107338000D02*
X241179000Y-107038000D01*
G75*
G02*
X241329000Y-106888000I150000J0D01*
G01*
X242979000Y-106888000D01*
G75*
G02*
X243129000Y-107038000I0J-150000D01*
G01*
X243129000Y-107338000D01*
G75*
G02*
X242979000Y-107488000I-150000J0D01*
G01*
X241329000Y-107488000D01*
G75*
G02*
X241179000Y-107338000I0J150000D01*
G01*
G37*
G36*
G01*
X241179000Y-108608000D02*
X241179000Y-108308000D01*
G75*
G02*
X241329000Y-108158000I150000J0D01*
G01*
X242979000Y-108158000D01*
G75*
G02*
X243129000Y-108308000I0J-150000D01*
G01*
X243129000Y-108608000D01*
G75*
G02*
X242979000Y-108758000I-150000J0D01*
G01*
X241329000Y-108758000D01*
G75*
G02*
X241179000Y-108608000I0J150000D01*
G01*
G37*
G36*
G01*
X241179000Y-109878000D02*
X241179000Y-109578000D01*
G75*
G02*
X241329000Y-109428000I150000J0D01*
G01*
X242979000Y-109428000D01*
G75*
G02*
X243129000Y-109578000I0J-150000D01*
G01*
X243129000Y-109878000D01*
G75*
G02*
X242979000Y-110028000I-150000J0D01*
G01*
X241329000Y-110028000D01*
G75*
G02*
X241179000Y-109878000I0J150000D01*
G01*
G37*
G36*
G01*
X241179000Y-111148000D02*
X241179000Y-110848000D01*
G75*
G02*
X241329000Y-110698000I150000J0D01*
G01*
X242979000Y-110698000D01*
G75*
G02*
X243129000Y-110848000I0J-150000D01*
G01*
X243129000Y-111148000D01*
G75*
G02*
X242979000Y-111298000I-150000J0D01*
G01*
X241329000Y-111298000D01*
G75*
G02*
X241179000Y-111148000I0J150000D01*
G01*
G37*
G36*
G01*
X241179000Y-112418000D02*
X241179000Y-112118000D01*
G75*
G02*
X241329000Y-111968000I150000J0D01*
G01*
X242979000Y-111968000D01*
G75*
G02*
X243129000Y-112118000I0J-150000D01*
G01*
X243129000Y-112418000D01*
G75*
G02*
X242979000Y-112568000I-150000J0D01*
G01*
X241329000Y-112568000D01*
G75*
G02*
X241179000Y-112418000I0J150000D01*
G01*
G37*
G36*
G01*
X241179000Y-113688000D02*
X241179000Y-113388000D01*
G75*
G02*
X241329000Y-113238000I150000J0D01*
G01*
X242979000Y-113238000D01*
G75*
G02*
X243129000Y-113388000I0J-150000D01*
G01*
X243129000Y-113688000D01*
G75*
G02*
X242979000Y-113838000I-150000J0D01*
G01*
X241329000Y-113838000D01*
G75*
G02*
X241179000Y-113688000I0J150000D01*
G01*
G37*
G36*
G01*
X241179000Y-114958000D02*
X241179000Y-114658000D01*
G75*
G02*
X241329000Y-114508000I150000J0D01*
G01*
X242979000Y-114508000D01*
G75*
G02*
X243129000Y-114658000I0J-150000D01*
G01*
X243129000Y-114958000D01*
G75*
G02*
X242979000Y-115108000I-150000J0D01*
G01*
X241329000Y-115108000D01*
G75*
G02*
X241179000Y-114958000I0J150000D01*
G01*
G37*
G36*
G01*
X236229000Y-114958000D02*
X236229000Y-114658000D01*
G75*
G02*
X236379000Y-114508000I150000J0D01*
G01*
X238029000Y-114508000D01*
G75*
G02*
X238179000Y-114658000I0J-150000D01*
G01*
X238179000Y-114958000D01*
G75*
G02*
X238029000Y-115108000I-150000J0D01*
G01*
X236379000Y-115108000D01*
G75*
G02*
X236229000Y-114958000I0J150000D01*
G01*
G37*
G36*
G01*
X236229000Y-113688000D02*
X236229000Y-113388000D01*
G75*
G02*
X236379000Y-113238000I150000J0D01*
G01*
X238029000Y-113238000D01*
G75*
G02*
X238179000Y-113388000I0J-150000D01*
G01*
X238179000Y-113688000D01*
G75*
G02*
X238029000Y-113838000I-150000J0D01*
G01*
X236379000Y-113838000D01*
G75*
G02*
X236229000Y-113688000I0J150000D01*
G01*
G37*
G36*
G01*
X236229000Y-112418000D02*
X236229000Y-112118000D01*
G75*
G02*
X236379000Y-111968000I150000J0D01*
G01*
X238029000Y-111968000D01*
G75*
G02*
X238179000Y-112118000I0J-150000D01*
G01*
X238179000Y-112418000D01*
G75*
G02*
X238029000Y-112568000I-150000J0D01*
G01*
X236379000Y-112568000D01*
G75*
G02*
X236229000Y-112418000I0J150000D01*
G01*
G37*
G36*
G01*
X236229000Y-111148000D02*
X236229000Y-110848000D01*
G75*
G02*
X236379000Y-110698000I150000J0D01*
G01*
X238029000Y-110698000D01*
G75*
G02*
X238179000Y-110848000I0J-150000D01*
G01*
X238179000Y-111148000D01*
G75*
G02*
X238029000Y-111298000I-150000J0D01*
G01*
X236379000Y-111298000D01*
G75*
G02*
X236229000Y-111148000I0J150000D01*
G01*
G37*
G36*
G01*
X236229000Y-109878000D02*
X236229000Y-109578000D01*
G75*
G02*
X236379000Y-109428000I150000J0D01*
G01*
X238029000Y-109428000D01*
G75*
G02*
X238179000Y-109578000I0J-150000D01*
G01*
X238179000Y-109878000D01*
G75*
G02*
X238029000Y-110028000I-150000J0D01*
G01*
X236379000Y-110028000D01*
G75*
G02*
X236229000Y-109878000I0J150000D01*
G01*
G37*
G36*
G01*
X236229000Y-108608000D02*
X236229000Y-108308000D01*
G75*
G02*
X236379000Y-108158000I150000J0D01*
G01*
X238029000Y-108158000D01*
G75*
G02*
X238179000Y-108308000I0J-150000D01*
G01*
X238179000Y-108608000D01*
G75*
G02*
X238029000Y-108758000I-150000J0D01*
G01*
X236379000Y-108758000D01*
G75*
G02*
X236229000Y-108608000I0J150000D01*
G01*
G37*
G36*
G01*
X236229000Y-107338000D02*
X236229000Y-107038000D01*
G75*
G02*
X236379000Y-106888000I150000J0D01*
G01*
X238029000Y-106888000D01*
G75*
G02*
X238179000Y-107038000I0J-150000D01*
G01*
X238179000Y-107338000D01*
G75*
G02*
X238029000Y-107488000I-150000J0D01*
G01*
X236379000Y-107488000D01*
G75*
G02*
X236229000Y-107338000I0J150000D01*
G01*
G37*
G04 #@! TD*
G04 #@! TO.C,R32*
G36*
G01*
X235730000Y-119292000D02*
X235730000Y-118922000D01*
G75*
G02*
X235865000Y-118787000I135000J0D01*
G01*
X236135000Y-118787000D01*
G75*
G02*
X236270000Y-118922000I0J-135000D01*
G01*
X236270000Y-119292000D01*
G75*
G02*
X236135000Y-119427000I-135000J0D01*
G01*
X235865000Y-119427000D01*
G75*
G02*
X235730000Y-119292000I0J135000D01*
G01*
G37*
G36*
G01*
X234710000Y-119292000D02*
X234710000Y-118922000D01*
G75*
G02*
X234845000Y-118787000I135000J0D01*
G01*
X235115000Y-118787000D01*
G75*
G02*
X235250000Y-118922000I0J-135000D01*
G01*
X235250000Y-119292000D01*
G75*
G02*
X235115000Y-119427000I-135000J0D01*
G01*
X234845000Y-119427000D01*
G75*
G02*
X234710000Y-119292000I0J135000D01*
G01*
G37*
G04 #@! TD*
G04 #@! TO.C,R29*
G36*
G01*
X235734000Y-120435000D02*
X235734000Y-120065000D01*
G75*
G02*
X235869000Y-119930000I135000J0D01*
G01*
X236139000Y-119930000D01*
G75*
G02*
X236274000Y-120065000I0J-135000D01*
G01*
X236274000Y-120435000D01*
G75*
G02*
X236139000Y-120570000I-135000J0D01*
G01*
X235869000Y-120570000D01*
G75*
G02*
X235734000Y-120435000I0J135000D01*
G01*
G37*
G36*
G01*
X234714000Y-120435000D02*
X234714000Y-120065000D01*
G75*
G02*
X234849000Y-119930000I135000J0D01*
G01*
X235119000Y-119930000D01*
G75*
G02*
X235254000Y-120065000I0J-135000D01*
G01*
X235254000Y-120435000D01*
G75*
G02*
X235119000Y-120570000I-135000J0D01*
G01*
X234849000Y-120570000D01*
G75*
G02*
X234714000Y-120435000I0J135000D01*
G01*
G37*
G04 #@! TD*
D25*
G04 #@! TO.C,D8*
X262255000Y-142240000D03*
X262255000Y-138240000D03*
G04 #@! TD*
D10*
G04 #@! TO.C,D1*
X258824000Y-136144000D03*
X255524000Y-136144000D03*
G04 #@! TD*
D26*
G04 #@! TO.C,U3*
X243840000Y-141986000D03*
X243840000Y-137386000D03*
X243840000Y-139686000D03*
D27*
X237540000Y-139686000D03*
G04 #@! TD*
G04 #@! TO.C,U5*
G36*
G01*
X207843000Y-138262500D02*
X207843000Y-138137500D01*
G75*
G02*
X207905500Y-138075000I62500J0D01*
G01*
X208580500Y-138075000D01*
G75*
G02*
X208643000Y-138137500I0J-62500D01*
G01*
X208643000Y-138262500D01*
G75*
G02*
X208580500Y-138325000I-62500J0D01*
G01*
X207905500Y-138325000D01*
G75*
G02*
X207843000Y-138262500I0J62500D01*
G01*
G37*
G36*
G01*
X207843000Y-138762500D02*
X207843000Y-138637500D01*
G75*
G02*
X207905500Y-138575000I62500J0D01*
G01*
X208580500Y-138575000D01*
G75*
G02*
X208643000Y-138637500I0J-62500D01*
G01*
X208643000Y-138762500D01*
G75*
G02*
X208580500Y-138825000I-62500J0D01*
G01*
X207905500Y-138825000D01*
G75*
G02*
X207843000Y-138762500I0J62500D01*
G01*
G37*
G36*
G01*
X207843000Y-139262500D02*
X207843000Y-139137500D01*
G75*
G02*
X207905500Y-139075000I62500J0D01*
G01*
X208580500Y-139075000D01*
G75*
G02*
X208643000Y-139137500I0J-62500D01*
G01*
X208643000Y-139262500D01*
G75*
G02*
X208580500Y-139325000I-62500J0D01*
G01*
X207905500Y-139325000D01*
G75*
G02*
X207843000Y-139262500I0J62500D01*
G01*
G37*
G36*
G01*
X207843000Y-139762500D02*
X207843000Y-139637500D01*
G75*
G02*
X207905500Y-139575000I62500J0D01*
G01*
X208580500Y-139575000D01*
G75*
G02*
X208643000Y-139637500I0J-62500D01*
G01*
X208643000Y-139762500D01*
G75*
G02*
X208580500Y-139825000I-62500J0D01*
G01*
X207905500Y-139825000D01*
G75*
G02*
X207843000Y-139762500I0J62500D01*
G01*
G37*
G36*
G01*
X207843000Y-140262500D02*
X207843000Y-140137500D01*
G75*
G02*
X207905500Y-140075000I62500J0D01*
G01*
X208580500Y-140075000D01*
G75*
G02*
X208643000Y-140137500I0J-62500D01*
G01*
X208643000Y-140262500D01*
G75*
G02*
X208580500Y-140325000I-62500J0D01*
G01*
X207905500Y-140325000D01*
G75*
G02*
X207843000Y-140262500I0J62500D01*
G01*
G37*
G36*
G01*
X207843000Y-140762500D02*
X207843000Y-140637500D01*
G75*
G02*
X207905500Y-140575000I62500J0D01*
G01*
X208580500Y-140575000D01*
G75*
G02*
X208643000Y-140637500I0J-62500D01*
G01*
X208643000Y-140762500D01*
G75*
G02*
X208580500Y-140825000I-62500J0D01*
G01*
X207905500Y-140825000D01*
G75*
G02*
X207843000Y-140762500I0J62500D01*
G01*
G37*
G36*
G01*
X207843000Y-141262500D02*
X207843000Y-141137500D01*
G75*
G02*
X207905500Y-141075000I62500J0D01*
G01*
X208580500Y-141075000D01*
G75*
G02*
X208643000Y-141137500I0J-62500D01*
G01*
X208643000Y-141262500D01*
G75*
G02*
X208580500Y-141325000I-62500J0D01*
G01*
X207905500Y-141325000D01*
G75*
G02*
X207843000Y-141262500I0J62500D01*
G01*
G37*
G36*
G01*
X209068000Y-142487500D02*
X209068000Y-141812500D01*
G75*
G02*
X209130500Y-141750000I62500J0D01*
G01*
X209255500Y-141750000D01*
G75*
G02*
X209318000Y-141812500I0J-62500D01*
G01*
X209318000Y-142487500D01*
G75*
G02*
X209255500Y-142550000I-62500J0D01*
G01*
X209130500Y-142550000D01*
G75*
G02*
X209068000Y-142487500I0J62500D01*
G01*
G37*
G36*
G01*
X209568000Y-142487500D02*
X209568000Y-141812500D01*
G75*
G02*
X209630500Y-141750000I62500J0D01*
G01*
X209755500Y-141750000D01*
G75*
G02*
X209818000Y-141812500I0J-62500D01*
G01*
X209818000Y-142487500D01*
G75*
G02*
X209755500Y-142550000I-62500J0D01*
G01*
X209630500Y-142550000D01*
G75*
G02*
X209568000Y-142487500I0J62500D01*
G01*
G37*
G36*
G01*
X210068000Y-142487500D02*
X210068000Y-141812500D01*
G75*
G02*
X210130500Y-141750000I62500J0D01*
G01*
X210255500Y-141750000D01*
G75*
G02*
X210318000Y-141812500I0J-62500D01*
G01*
X210318000Y-142487500D01*
G75*
G02*
X210255500Y-142550000I-62500J0D01*
G01*
X210130500Y-142550000D01*
G75*
G02*
X210068000Y-142487500I0J62500D01*
G01*
G37*
G36*
G01*
X210568000Y-142487500D02*
X210568000Y-141812500D01*
G75*
G02*
X210630500Y-141750000I62500J0D01*
G01*
X210755500Y-141750000D01*
G75*
G02*
X210818000Y-141812500I0J-62500D01*
G01*
X210818000Y-142487500D01*
G75*
G02*
X210755500Y-142550000I-62500J0D01*
G01*
X210630500Y-142550000D01*
G75*
G02*
X210568000Y-142487500I0J62500D01*
G01*
G37*
G36*
G01*
X211068000Y-142487500D02*
X211068000Y-141812500D01*
G75*
G02*
X211130500Y-141750000I62500J0D01*
G01*
X211255500Y-141750000D01*
G75*
G02*
X211318000Y-141812500I0J-62500D01*
G01*
X211318000Y-142487500D01*
G75*
G02*
X211255500Y-142550000I-62500J0D01*
G01*
X211130500Y-142550000D01*
G75*
G02*
X211068000Y-142487500I0J62500D01*
G01*
G37*
G36*
G01*
X211568000Y-142487500D02*
X211568000Y-141812500D01*
G75*
G02*
X211630500Y-141750000I62500J0D01*
G01*
X211755500Y-141750000D01*
G75*
G02*
X211818000Y-141812500I0J-62500D01*
G01*
X211818000Y-142487500D01*
G75*
G02*
X211755500Y-142550000I-62500J0D01*
G01*
X211630500Y-142550000D01*
G75*
G02*
X211568000Y-142487500I0J62500D01*
G01*
G37*
G36*
G01*
X212068000Y-142487500D02*
X212068000Y-141812500D01*
G75*
G02*
X212130500Y-141750000I62500J0D01*
G01*
X212255500Y-141750000D01*
G75*
G02*
X212318000Y-141812500I0J-62500D01*
G01*
X212318000Y-142487500D01*
G75*
G02*
X212255500Y-142550000I-62500J0D01*
G01*
X212130500Y-142550000D01*
G75*
G02*
X212068000Y-142487500I0J62500D01*
G01*
G37*
G36*
G01*
X212743000Y-141262500D02*
X212743000Y-141137500D01*
G75*
G02*
X212805500Y-141075000I62500J0D01*
G01*
X213480500Y-141075000D01*
G75*
G02*
X213543000Y-141137500I0J-62500D01*
G01*
X213543000Y-141262500D01*
G75*
G02*
X213480500Y-141325000I-62500J0D01*
G01*
X212805500Y-141325000D01*
G75*
G02*
X212743000Y-141262500I0J62500D01*
G01*
G37*
G36*
G01*
X212743000Y-140762500D02*
X212743000Y-140637500D01*
G75*
G02*
X212805500Y-140575000I62500J0D01*
G01*
X213480500Y-140575000D01*
G75*
G02*
X213543000Y-140637500I0J-62500D01*
G01*
X213543000Y-140762500D01*
G75*
G02*
X213480500Y-140825000I-62500J0D01*
G01*
X212805500Y-140825000D01*
G75*
G02*
X212743000Y-140762500I0J62500D01*
G01*
G37*
G36*
G01*
X212743000Y-140262500D02*
X212743000Y-140137500D01*
G75*
G02*
X212805500Y-140075000I62500J0D01*
G01*
X213480500Y-140075000D01*
G75*
G02*
X213543000Y-140137500I0J-62500D01*
G01*
X213543000Y-140262500D01*
G75*
G02*
X213480500Y-140325000I-62500J0D01*
G01*
X212805500Y-140325000D01*
G75*
G02*
X212743000Y-140262500I0J62500D01*
G01*
G37*
G36*
G01*
X212743000Y-139762500D02*
X212743000Y-139637500D01*
G75*
G02*
X212805500Y-139575000I62500J0D01*
G01*
X213480500Y-139575000D01*
G75*
G02*
X213543000Y-139637500I0J-62500D01*
G01*
X213543000Y-139762500D01*
G75*
G02*
X213480500Y-139825000I-62500J0D01*
G01*
X212805500Y-139825000D01*
G75*
G02*
X212743000Y-139762500I0J62500D01*
G01*
G37*
G36*
G01*
X212743000Y-139262500D02*
X212743000Y-139137500D01*
G75*
G02*
X212805500Y-139075000I62500J0D01*
G01*
X213480500Y-139075000D01*
G75*
G02*
X213543000Y-139137500I0J-62500D01*
G01*
X213543000Y-139262500D01*
G75*
G02*
X213480500Y-139325000I-62500J0D01*
G01*
X212805500Y-139325000D01*
G75*
G02*
X212743000Y-139262500I0J62500D01*
G01*
G37*
G36*
G01*
X212743000Y-138762500D02*
X212743000Y-138637500D01*
G75*
G02*
X212805500Y-138575000I62500J0D01*
G01*
X213480500Y-138575000D01*
G75*
G02*
X213543000Y-138637500I0J-62500D01*
G01*
X213543000Y-138762500D01*
G75*
G02*
X213480500Y-138825000I-62500J0D01*
G01*
X212805500Y-138825000D01*
G75*
G02*
X212743000Y-138762500I0J62500D01*
G01*
G37*
G36*
G01*
X212743000Y-138262500D02*
X212743000Y-138137500D01*
G75*
G02*
X212805500Y-138075000I62500J0D01*
G01*
X213480500Y-138075000D01*
G75*
G02*
X213543000Y-138137500I0J-62500D01*
G01*
X213543000Y-138262500D01*
G75*
G02*
X213480500Y-138325000I-62500J0D01*
G01*
X212805500Y-138325000D01*
G75*
G02*
X212743000Y-138262500I0J62500D01*
G01*
G37*
G36*
G01*
X212068000Y-137587500D02*
X212068000Y-136912500D01*
G75*
G02*
X212130500Y-136850000I62500J0D01*
G01*
X212255500Y-136850000D01*
G75*
G02*
X212318000Y-136912500I0J-62500D01*
G01*
X212318000Y-137587500D01*
G75*
G02*
X212255500Y-137650000I-62500J0D01*
G01*
X212130500Y-137650000D01*
G75*
G02*
X212068000Y-137587500I0J62500D01*
G01*
G37*
G36*
G01*
X211568000Y-137587500D02*
X211568000Y-136912500D01*
G75*
G02*
X211630500Y-136850000I62500J0D01*
G01*
X211755500Y-136850000D01*
G75*
G02*
X211818000Y-136912500I0J-62500D01*
G01*
X211818000Y-137587500D01*
G75*
G02*
X211755500Y-137650000I-62500J0D01*
G01*
X211630500Y-137650000D01*
G75*
G02*
X211568000Y-137587500I0J62500D01*
G01*
G37*
G36*
G01*
X211068000Y-137587500D02*
X211068000Y-136912500D01*
G75*
G02*
X211130500Y-136850000I62500J0D01*
G01*
X211255500Y-136850000D01*
G75*
G02*
X211318000Y-136912500I0J-62500D01*
G01*
X211318000Y-137587500D01*
G75*
G02*
X211255500Y-137650000I-62500J0D01*
G01*
X211130500Y-137650000D01*
G75*
G02*
X211068000Y-137587500I0J62500D01*
G01*
G37*
G36*
G01*
X210568000Y-137587500D02*
X210568000Y-136912500D01*
G75*
G02*
X210630500Y-136850000I62500J0D01*
G01*
X210755500Y-136850000D01*
G75*
G02*
X210818000Y-136912500I0J-62500D01*
G01*
X210818000Y-137587500D01*
G75*
G02*
X210755500Y-137650000I-62500J0D01*
G01*
X210630500Y-137650000D01*
G75*
G02*
X210568000Y-137587500I0J62500D01*
G01*
G37*
G36*
G01*
X210068000Y-137587500D02*
X210068000Y-136912500D01*
G75*
G02*
X210130500Y-136850000I62500J0D01*
G01*
X210255500Y-136850000D01*
G75*
G02*
X210318000Y-136912500I0J-62500D01*
G01*
X210318000Y-137587500D01*
G75*
G02*
X210255500Y-137650000I-62500J0D01*
G01*
X210130500Y-137650000D01*
G75*
G02*
X210068000Y-137587500I0J62500D01*
G01*
G37*
G36*
G01*
X209568000Y-137587500D02*
X209568000Y-136912500D01*
G75*
G02*
X209630500Y-136850000I62500J0D01*
G01*
X209755500Y-136850000D01*
G75*
G02*
X209818000Y-136912500I0J-62500D01*
G01*
X209818000Y-137587500D01*
G75*
G02*
X209755500Y-137650000I-62500J0D01*
G01*
X209630500Y-137650000D01*
G75*
G02*
X209568000Y-137587500I0J62500D01*
G01*
G37*
G36*
G01*
X209068000Y-137587500D02*
X209068000Y-136912500D01*
G75*
G02*
X209130500Y-136850000I62500J0D01*
G01*
X209255500Y-136850000D01*
G75*
G02*
X209318000Y-136912500I0J-62500D01*
G01*
X209318000Y-137587500D01*
G75*
G02*
X209255500Y-137650000I-62500J0D01*
G01*
X209130500Y-137650000D01*
G75*
G02*
X209068000Y-137587500I0J62500D01*
G01*
G37*
G36*
G01*
X209789887Y-139401557D02*
X209789887Y-138998443D01*
G75*
G02*
X209991443Y-138796887I201556J0D01*
G01*
X210394557Y-138796887D01*
G75*
G02*
X210596113Y-138998443I0J-201556D01*
G01*
X210596113Y-139401557D01*
G75*
G02*
X210394557Y-139603113I-201556J0D01*
G01*
X209991443Y-139603113D01*
G75*
G02*
X209789887Y-139401557I0J201556D01*
G01*
G37*
G36*
G01*
X209789887Y-140401557D02*
X209789887Y-139998443D01*
G75*
G02*
X209991443Y-139796887I201556J0D01*
G01*
X210394557Y-139796887D01*
G75*
G02*
X210596113Y-139998443I0J-201556D01*
G01*
X210596113Y-140401557D01*
G75*
G02*
X210394557Y-140603113I-201556J0D01*
G01*
X209991443Y-140603113D01*
G75*
G02*
X209789887Y-140401557I0J201556D01*
G01*
G37*
G36*
G01*
X210789887Y-139401557D02*
X210789887Y-138998443D01*
G75*
G02*
X210991443Y-138796887I201556J0D01*
G01*
X211394557Y-138796887D01*
G75*
G02*
X211596113Y-138998443I0J-201556D01*
G01*
X211596113Y-139401557D01*
G75*
G02*
X211394557Y-139603113I-201556J0D01*
G01*
X210991443Y-139603113D01*
G75*
G02*
X210789887Y-139401557I0J201556D01*
G01*
G37*
G36*
G01*
X210789887Y-140401557D02*
X210789887Y-139998443D01*
G75*
G02*
X210991443Y-139796887I201556J0D01*
G01*
X211394557Y-139796887D01*
G75*
G02*
X211596113Y-139998443I0J-201556D01*
G01*
X211596113Y-140401557D01*
G75*
G02*
X211394557Y-140603113I-201556J0D01*
G01*
X210991443Y-140603113D01*
G75*
G02*
X210789887Y-140401557I0J201556D01*
G01*
G37*
D28*
G36*
X209488365Y-138798526D02*
G01*
X209504356Y-138803377D01*
X209519094Y-138811255D01*
X209532012Y-138821856D01*
X209602633Y-138892476D01*
X209613234Y-138905393D01*
X209621112Y-138920131D01*
X209625963Y-138936123D01*
X209627601Y-138952754D01*
X209627601Y-139447246D01*
X209625963Y-139463877D01*
X209621112Y-139479868D01*
X209613234Y-139494606D01*
X209602633Y-139507524D01*
X209532012Y-139578144D01*
X209519094Y-139588746D01*
X209504356Y-139596623D01*
X209488364Y-139601474D01*
X209471734Y-139603112D01*
X209168645Y-139603112D01*
X209152014Y-139601474D01*
X209136023Y-139596623D01*
X209121285Y-139588745D01*
X209108367Y-139578144D01*
X209097766Y-139565226D01*
X209089888Y-139550488D01*
X209085037Y-139534497D01*
X209083399Y-139517866D01*
X209083399Y-138882134D01*
X209085037Y-138865503D01*
X209089888Y-138849512D01*
X209097766Y-138834774D01*
X209108367Y-138821856D01*
X209121285Y-138811255D01*
X209136023Y-138803377D01*
X209152014Y-138798526D01*
X209168645Y-138796888D01*
X209471734Y-138796888D01*
X209488365Y-138798526D01*
G37*
G36*
X209488365Y-139798526D02*
G01*
X209504356Y-139803377D01*
X209519094Y-139811255D01*
X209532012Y-139821856D01*
X209602633Y-139892476D01*
X209613234Y-139905393D01*
X209621112Y-139920131D01*
X209625963Y-139936123D01*
X209627601Y-139952754D01*
X209627601Y-140447246D01*
X209625963Y-140463877D01*
X209621112Y-140479868D01*
X209613234Y-140494606D01*
X209602633Y-140507524D01*
X209532012Y-140578144D01*
X209519094Y-140588746D01*
X209504356Y-140596623D01*
X209488364Y-140601474D01*
X209471734Y-140603112D01*
X209168645Y-140603112D01*
X209152014Y-140601474D01*
X209136023Y-140596623D01*
X209121285Y-140588745D01*
X209108367Y-140578144D01*
X209097766Y-140565226D01*
X209089888Y-140550488D01*
X209085037Y-140534497D01*
X209083399Y-140517866D01*
X209083399Y-139882134D01*
X209085037Y-139865503D01*
X209089888Y-139849512D01*
X209097766Y-139834774D01*
X209108367Y-139821856D01*
X209121285Y-139811255D01*
X209136023Y-139803377D01*
X209152014Y-139798526D01*
X209168645Y-139796888D01*
X209471734Y-139796888D01*
X209488365Y-139798526D01*
G37*
G36*
X212233986Y-138798526D02*
G01*
X212249977Y-138803377D01*
X212264715Y-138811255D01*
X212277633Y-138821856D01*
X212288234Y-138834774D01*
X212296112Y-138849512D01*
X212300963Y-138865503D01*
X212302601Y-138882134D01*
X212302601Y-139517866D01*
X212300963Y-139534497D01*
X212296112Y-139550488D01*
X212288234Y-139565226D01*
X212277633Y-139578144D01*
X212264715Y-139588745D01*
X212249977Y-139596623D01*
X212233986Y-139601474D01*
X212217355Y-139603112D01*
X211914266Y-139603112D01*
X211897635Y-139601474D01*
X211881644Y-139596623D01*
X211866906Y-139588745D01*
X211853988Y-139578144D01*
X211783367Y-139507524D01*
X211772766Y-139494607D01*
X211764888Y-139479869D01*
X211760037Y-139463877D01*
X211758399Y-139447246D01*
X211758399Y-138952754D01*
X211760037Y-138936123D01*
X211764888Y-138920132D01*
X211772766Y-138905394D01*
X211783367Y-138892476D01*
X211853988Y-138821856D01*
X211866906Y-138811254D01*
X211881644Y-138803377D01*
X211897636Y-138798526D01*
X211914266Y-138796888D01*
X212217355Y-138796888D01*
X212233986Y-138798526D01*
G37*
G36*
X212233986Y-139798526D02*
G01*
X212249977Y-139803377D01*
X212264715Y-139811255D01*
X212277633Y-139821856D01*
X212288234Y-139834774D01*
X212296112Y-139849512D01*
X212300963Y-139865503D01*
X212302601Y-139882134D01*
X212302601Y-140517866D01*
X212300963Y-140534497D01*
X212296112Y-140550488D01*
X212288234Y-140565226D01*
X212277633Y-140578144D01*
X212264715Y-140588745D01*
X212249977Y-140596623D01*
X212233986Y-140601474D01*
X212217355Y-140603112D01*
X211914266Y-140603112D01*
X211897635Y-140601474D01*
X211881644Y-140596623D01*
X211866906Y-140588745D01*
X211853988Y-140578144D01*
X211783367Y-140507524D01*
X211772766Y-140494607D01*
X211764888Y-140479869D01*
X211760037Y-140463877D01*
X211758399Y-140447246D01*
X211758399Y-139952754D01*
X211760037Y-139936123D01*
X211764888Y-139920132D01*
X211772766Y-139905394D01*
X211783367Y-139892476D01*
X211853988Y-139821856D01*
X211866906Y-139811254D01*
X211881644Y-139803377D01*
X211897636Y-139798526D01*
X211914266Y-139796888D01*
X212217355Y-139796888D01*
X212233986Y-139798526D01*
G37*
G36*
X210527497Y-138092037D02*
G01*
X210543488Y-138096888D01*
X210558226Y-138104766D01*
X210571144Y-138115367D01*
X210581745Y-138128285D01*
X210589623Y-138143023D01*
X210594474Y-138159014D01*
X210596112Y-138175645D01*
X210596112Y-138478734D01*
X210594474Y-138495365D01*
X210589623Y-138511356D01*
X210581745Y-138526094D01*
X210571144Y-138539012D01*
X210500524Y-138609633D01*
X210487607Y-138620234D01*
X210472869Y-138628112D01*
X210456877Y-138632963D01*
X210440246Y-138634601D01*
X209945754Y-138634601D01*
X209929123Y-138632963D01*
X209913132Y-138628112D01*
X209898394Y-138620234D01*
X209885476Y-138609633D01*
X209814856Y-138539012D01*
X209804254Y-138526094D01*
X209796377Y-138511356D01*
X209791526Y-138495364D01*
X209789888Y-138478734D01*
X209789888Y-138175645D01*
X209791526Y-138159014D01*
X209796377Y-138143023D01*
X209804255Y-138128285D01*
X209814856Y-138115367D01*
X209827774Y-138104766D01*
X209842512Y-138096888D01*
X209858503Y-138092037D01*
X209875134Y-138090399D01*
X210510866Y-138090399D01*
X210527497Y-138092037D01*
G37*
G36*
X211527497Y-138092037D02*
G01*
X211543488Y-138096888D01*
X211558226Y-138104766D01*
X211571144Y-138115367D01*
X211581745Y-138128285D01*
X211589623Y-138143023D01*
X211594474Y-138159014D01*
X211596112Y-138175645D01*
X211596112Y-138478734D01*
X211594474Y-138495365D01*
X211589623Y-138511356D01*
X211581745Y-138526094D01*
X211571144Y-138539012D01*
X211500524Y-138609633D01*
X211487607Y-138620234D01*
X211472869Y-138628112D01*
X211456877Y-138632963D01*
X211440246Y-138634601D01*
X210945754Y-138634601D01*
X210929123Y-138632963D01*
X210913132Y-138628112D01*
X210898394Y-138620234D01*
X210885476Y-138609633D01*
X210814856Y-138539012D01*
X210804254Y-138526094D01*
X210796377Y-138511356D01*
X210791526Y-138495364D01*
X210789888Y-138478734D01*
X210789888Y-138175645D01*
X210791526Y-138159014D01*
X210796377Y-138143023D01*
X210804255Y-138128285D01*
X210814856Y-138115367D01*
X210827774Y-138104766D01*
X210842512Y-138096888D01*
X210858503Y-138092037D01*
X210875134Y-138090399D01*
X211510866Y-138090399D01*
X211527497Y-138092037D01*
G37*
G36*
X210456877Y-140767037D02*
G01*
X210472868Y-140771888D01*
X210487606Y-140779766D01*
X210500524Y-140790367D01*
X210571144Y-140860988D01*
X210581746Y-140873906D01*
X210589623Y-140888644D01*
X210594474Y-140904636D01*
X210596112Y-140921266D01*
X210596112Y-141224355D01*
X210594474Y-141240986D01*
X210589623Y-141256977D01*
X210581745Y-141271715D01*
X210571144Y-141284633D01*
X210558226Y-141295234D01*
X210543488Y-141303112D01*
X210527497Y-141307963D01*
X210510866Y-141309601D01*
X209875134Y-141309601D01*
X209858503Y-141307963D01*
X209842512Y-141303112D01*
X209827774Y-141295234D01*
X209814856Y-141284633D01*
X209804255Y-141271715D01*
X209796377Y-141256977D01*
X209791526Y-141240986D01*
X209789888Y-141224355D01*
X209789888Y-140921266D01*
X209791526Y-140904635D01*
X209796377Y-140888644D01*
X209804255Y-140873906D01*
X209814856Y-140860988D01*
X209885476Y-140790367D01*
X209898393Y-140779766D01*
X209913131Y-140771888D01*
X209929123Y-140767037D01*
X209945754Y-140765399D01*
X210440246Y-140765399D01*
X210456877Y-140767037D01*
G37*
G36*
X211456877Y-140767037D02*
G01*
X211472868Y-140771888D01*
X211487606Y-140779766D01*
X211500524Y-140790367D01*
X211571144Y-140860988D01*
X211581746Y-140873906D01*
X211589623Y-140888644D01*
X211594474Y-140904636D01*
X211596112Y-140921266D01*
X211596112Y-141224355D01*
X211594474Y-141240986D01*
X211589623Y-141256977D01*
X211581745Y-141271715D01*
X211571144Y-141284633D01*
X211558226Y-141295234D01*
X211543488Y-141303112D01*
X211527497Y-141307963D01*
X211510866Y-141309601D01*
X210875134Y-141309601D01*
X210858503Y-141307963D01*
X210842512Y-141303112D01*
X210827774Y-141295234D01*
X210814856Y-141284633D01*
X210804255Y-141271715D01*
X210796377Y-141256977D01*
X210791526Y-141240986D01*
X210789888Y-141224355D01*
X210789888Y-140921266D01*
X210791526Y-140904635D01*
X210796377Y-140888644D01*
X210804255Y-140873906D01*
X210814856Y-140860988D01*
X210885476Y-140790367D01*
X210898393Y-140779766D01*
X210913131Y-140771888D01*
X210929123Y-140767037D01*
X210945754Y-140765399D01*
X211440246Y-140765399D01*
X211456877Y-140767037D01*
G37*
G36*
X209541064Y-138092465D02*
G01*
X209561232Y-138098583D01*
X209579819Y-138108518D01*
X209596111Y-138121889D01*
X209609482Y-138138181D01*
X209619417Y-138156768D01*
X209625535Y-138176936D01*
X209627601Y-138197911D01*
X209627601Y-138438023D01*
X209625535Y-138458998D01*
X209619417Y-138479166D01*
X209609482Y-138497753D01*
X209596111Y-138514045D01*
X209507045Y-138603111D01*
X209490753Y-138616482D01*
X209472166Y-138626417D01*
X209451998Y-138632535D01*
X209431023Y-138634601D01*
X209190911Y-138634601D01*
X209169936Y-138632535D01*
X209149768Y-138626417D01*
X209131181Y-138616482D01*
X209114889Y-138603111D01*
X209101518Y-138586819D01*
X209091583Y-138568232D01*
X209085465Y-138548064D01*
X209083399Y-138527089D01*
X209083399Y-138197911D01*
X209085465Y-138176936D01*
X209091583Y-138156768D01*
X209101518Y-138138181D01*
X209114889Y-138121889D01*
X209131181Y-138108518D01*
X209149768Y-138098583D01*
X209169936Y-138092465D01*
X209190911Y-138090399D01*
X209520089Y-138090399D01*
X209541064Y-138092465D01*
G37*
G36*
X209451998Y-140767465D02*
G01*
X209472166Y-140773583D01*
X209490753Y-140783518D01*
X209507045Y-140796889D01*
X209596111Y-140885955D01*
X209609482Y-140902247D01*
X209619417Y-140920834D01*
X209625535Y-140941002D01*
X209627601Y-140961977D01*
X209627601Y-141202089D01*
X209625535Y-141223064D01*
X209619417Y-141243232D01*
X209609482Y-141261819D01*
X209596111Y-141278111D01*
X209579819Y-141291482D01*
X209561232Y-141301417D01*
X209541064Y-141307535D01*
X209520089Y-141309601D01*
X209190911Y-141309601D01*
X209169936Y-141307535D01*
X209149768Y-141301417D01*
X209131181Y-141291482D01*
X209114889Y-141278111D01*
X209101518Y-141261819D01*
X209091583Y-141243232D01*
X209085465Y-141223064D01*
X209083399Y-141202089D01*
X209083399Y-140872911D01*
X209085465Y-140851936D01*
X209091583Y-140831768D01*
X209101518Y-140813181D01*
X209114889Y-140796889D01*
X209131181Y-140783518D01*
X209149768Y-140773583D01*
X209169936Y-140767465D01*
X209190911Y-140765399D01*
X209431023Y-140765399D01*
X209451998Y-140767465D01*
G37*
G36*
X212216064Y-138092465D02*
G01*
X212236232Y-138098583D01*
X212254819Y-138108518D01*
X212271111Y-138121889D01*
X212284482Y-138138181D01*
X212294417Y-138156768D01*
X212300535Y-138176936D01*
X212302601Y-138197911D01*
X212302601Y-138527089D01*
X212300535Y-138548064D01*
X212294417Y-138568232D01*
X212284482Y-138586819D01*
X212271111Y-138603111D01*
X212254819Y-138616482D01*
X212236232Y-138626417D01*
X212216064Y-138632535D01*
X212195089Y-138634601D01*
X211954977Y-138634601D01*
X211934002Y-138632535D01*
X211913834Y-138626417D01*
X211895247Y-138616482D01*
X211878955Y-138603111D01*
X211789889Y-138514045D01*
X211776518Y-138497753D01*
X211766583Y-138479166D01*
X211760465Y-138458998D01*
X211758399Y-138438023D01*
X211758399Y-138197911D01*
X211760465Y-138176936D01*
X211766583Y-138156768D01*
X211776518Y-138138181D01*
X211789889Y-138121889D01*
X211806181Y-138108518D01*
X211824768Y-138098583D01*
X211844936Y-138092465D01*
X211865911Y-138090399D01*
X212195089Y-138090399D01*
X212216064Y-138092465D01*
G37*
G36*
X212216064Y-140767465D02*
G01*
X212236232Y-140773583D01*
X212254819Y-140783518D01*
X212271111Y-140796889D01*
X212284482Y-140813181D01*
X212294417Y-140831768D01*
X212300535Y-140851936D01*
X212302601Y-140872911D01*
X212302601Y-141202089D01*
X212300535Y-141223064D01*
X212294417Y-141243232D01*
X212284482Y-141261819D01*
X212271111Y-141278111D01*
X212254819Y-141291482D01*
X212236232Y-141301417D01*
X212216064Y-141307535D01*
X212195089Y-141309601D01*
X211865911Y-141309601D01*
X211844936Y-141307535D01*
X211824768Y-141301417D01*
X211806181Y-141291482D01*
X211789889Y-141278111D01*
X211776518Y-141261819D01*
X211766583Y-141243232D01*
X211760465Y-141223064D01*
X211758399Y-141202089D01*
X211758399Y-140961977D01*
X211760465Y-140941002D01*
X211766583Y-140920834D01*
X211776518Y-140902247D01*
X211789889Y-140885955D01*
X211878955Y-140796889D01*
X211895247Y-140783518D01*
X211913834Y-140773583D01*
X211934002Y-140767465D01*
X211954977Y-140765399D01*
X212195089Y-140765399D01*
X212216064Y-140767465D01*
G37*
G04 #@! TD*
G04 #@! TO.C,U4*
G36*
G01*
X233022000Y-140438000D02*
X233322000Y-140438000D01*
G75*
G02*
X233472000Y-140588000I0J-150000D01*
G01*
X233472000Y-142238000D01*
G75*
G02*
X233322000Y-142388000I-150000J0D01*
G01*
X233022000Y-142388000D01*
G75*
G02*
X232872000Y-142238000I0J150000D01*
G01*
X232872000Y-140588000D01*
G75*
G02*
X233022000Y-140438000I150000J0D01*
G01*
G37*
G36*
G01*
X231752000Y-140438000D02*
X232052000Y-140438000D01*
G75*
G02*
X232202000Y-140588000I0J-150000D01*
G01*
X232202000Y-142238000D01*
G75*
G02*
X232052000Y-142388000I-150000J0D01*
G01*
X231752000Y-142388000D01*
G75*
G02*
X231602000Y-142238000I0J150000D01*
G01*
X231602000Y-140588000D01*
G75*
G02*
X231752000Y-140438000I150000J0D01*
G01*
G37*
G36*
G01*
X230482000Y-140438000D02*
X230782000Y-140438000D01*
G75*
G02*
X230932000Y-140588000I0J-150000D01*
G01*
X230932000Y-142238000D01*
G75*
G02*
X230782000Y-142388000I-150000J0D01*
G01*
X230482000Y-142388000D01*
G75*
G02*
X230332000Y-142238000I0J150000D01*
G01*
X230332000Y-140588000D01*
G75*
G02*
X230482000Y-140438000I150000J0D01*
G01*
G37*
G36*
G01*
X229212000Y-140438000D02*
X229512000Y-140438000D01*
G75*
G02*
X229662000Y-140588000I0J-150000D01*
G01*
X229662000Y-142238000D01*
G75*
G02*
X229512000Y-142388000I-150000J0D01*
G01*
X229212000Y-142388000D01*
G75*
G02*
X229062000Y-142238000I0J150000D01*
G01*
X229062000Y-140588000D01*
G75*
G02*
X229212000Y-140438000I150000J0D01*
G01*
G37*
G36*
G01*
X229212000Y-135488000D02*
X229512000Y-135488000D01*
G75*
G02*
X229662000Y-135638000I0J-150000D01*
G01*
X229662000Y-137288000D01*
G75*
G02*
X229512000Y-137438000I-150000J0D01*
G01*
X229212000Y-137438000D01*
G75*
G02*
X229062000Y-137288000I0J150000D01*
G01*
X229062000Y-135638000D01*
G75*
G02*
X229212000Y-135488000I150000J0D01*
G01*
G37*
G36*
G01*
X230482000Y-135488000D02*
X230782000Y-135488000D01*
G75*
G02*
X230932000Y-135638000I0J-150000D01*
G01*
X230932000Y-137288000D01*
G75*
G02*
X230782000Y-137438000I-150000J0D01*
G01*
X230482000Y-137438000D01*
G75*
G02*
X230332000Y-137288000I0J150000D01*
G01*
X230332000Y-135638000D01*
G75*
G02*
X230482000Y-135488000I150000J0D01*
G01*
G37*
G36*
G01*
X231752000Y-135488000D02*
X232052000Y-135488000D01*
G75*
G02*
X232202000Y-135638000I0J-150000D01*
G01*
X232202000Y-137288000D01*
G75*
G02*
X232052000Y-137438000I-150000J0D01*
G01*
X231752000Y-137438000D01*
G75*
G02*
X231602000Y-137288000I0J150000D01*
G01*
X231602000Y-135638000D01*
G75*
G02*
X231752000Y-135488000I150000J0D01*
G01*
G37*
G36*
G01*
X233022000Y-135488000D02*
X233322000Y-135488000D01*
G75*
G02*
X233472000Y-135638000I0J-150000D01*
G01*
X233472000Y-137288000D01*
G75*
G02*
X233322000Y-137438000I-150000J0D01*
G01*
X233022000Y-137438000D01*
G75*
G02*
X232872000Y-137288000I0J150000D01*
G01*
X232872000Y-135638000D01*
G75*
G02*
X233022000Y-135488000I150000J0D01*
G01*
G37*
G04 #@! TD*
D29*
G04 #@! TO.C,Q4*
X217386000Y-135255000D03*
X220006000Y-134305000D03*
X220006000Y-136205000D03*
G04 #@! TD*
G04 #@! TO.C,Q3*
X226491000Y-135255000D03*
X223871000Y-136205000D03*
X223871000Y-134305000D03*
G04 #@! TD*
G04 #@! TO.C,D4*
G36*
G01*
X200362500Y-103656250D02*
X200362500Y-103143750D01*
G75*
G02*
X200581250Y-102925000I218750J0D01*
G01*
X201018750Y-102925000D01*
G75*
G02*
X201237500Y-103143750I0J-218750D01*
G01*
X201237500Y-103656250D01*
G75*
G02*
X201018750Y-103875000I-218750J0D01*
G01*
X200581250Y-103875000D01*
G75*
G02*
X200362500Y-103656250I0J218750D01*
G01*
G37*
G36*
G01*
X198787500Y-103656250D02*
X198787500Y-103143750D01*
G75*
G02*
X199006250Y-102925000I218750J0D01*
G01*
X199443750Y-102925000D01*
G75*
G02*
X199662500Y-103143750I0J-218750D01*
G01*
X199662500Y-103656250D01*
G75*
G02*
X199443750Y-103875000I-218750J0D01*
G01*
X199006250Y-103875000D01*
G75*
G02*
X198787500Y-103656250I0J218750D01*
G01*
G37*
G04 #@! TD*
G04 #@! TO.C,D3*
G36*
G01*
X194887500Y-103606250D02*
X194887500Y-103093750D01*
G75*
G02*
X195106250Y-102875000I218750J0D01*
G01*
X195543750Y-102875000D01*
G75*
G02*
X195762500Y-103093750I0J-218750D01*
G01*
X195762500Y-103606250D01*
G75*
G02*
X195543750Y-103825000I-218750J0D01*
G01*
X195106250Y-103825000D01*
G75*
G02*
X194887500Y-103606250I0J218750D01*
G01*
G37*
G36*
G01*
X196462500Y-103606250D02*
X196462500Y-103093750D01*
G75*
G02*
X196681250Y-102875000I218750J0D01*
G01*
X197118750Y-102875000D01*
G75*
G02*
X197337500Y-103093750I0J-218750D01*
G01*
X197337500Y-103606250D01*
G75*
G02*
X197118750Y-103825000I-218750J0D01*
G01*
X196681250Y-103825000D01*
G75*
G02*
X196462500Y-103606250I0J218750D01*
G01*
G37*
G04 #@! TD*
D12*
G04 #@! TO.C,Q5*
X218059000Y-143764000D03*
X217109000Y-141144000D03*
X219009000Y-141144000D03*
G04 #@! TD*
G04 #@! TO.C,R31*
G36*
G01*
X214737000Y-135530000D02*
X214737000Y-134980000D01*
G75*
G02*
X214937000Y-134780000I200000J0D01*
G01*
X215337000Y-134780000D01*
G75*
G02*
X215537000Y-134980000I0J-200000D01*
G01*
X215537000Y-135530000D01*
G75*
G02*
X215337000Y-135730000I-200000J0D01*
G01*
X214937000Y-135730000D01*
G75*
G02*
X214737000Y-135530000I0J200000D01*
G01*
G37*
G36*
G01*
X213087000Y-135530000D02*
X213087000Y-134980000D01*
G75*
G02*
X213287000Y-134780000I200000J0D01*
G01*
X213687000Y-134780000D01*
G75*
G02*
X213887000Y-134980000I0J-200000D01*
G01*
X213887000Y-135530000D01*
G75*
G02*
X213687000Y-135730000I-200000J0D01*
G01*
X213287000Y-135730000D01*
G75*
G02*
X213087000Y-135530000I0J200000D01*
G01*
G37*
G04 #@! TD*
G04 #@! TO.C,R27*
G36*
G01*
X240540000Y-118085000D02*
X240540000Y-117715000D01*
G75*
G02*
X240675000Y-117580000I135000J0D01*
G01*
X240945000Y-117580000D01*
G75*
G02*
X241080000Y-117715000I0J-135000D01*
G01*
X241080000Y-118085000D01*
G75*
G02*
X240945000Y-118220000I-135000J0D01*
G01*
X240675000Y-118220000D01*
G75*
G02*
X240540000Y-118085000I0J135000D01*
G01*
G37*
G36*
G01*
X239520000Y-118085000D02*
X239520000Y-117715000D01*
G75*
G02*
X239655000Y-117580000I135000J0D01*
G01*
X239925000Y-117580000D01*
G75*
G02*
X240060000Y-117715000I0J-135000D01*
G01*
X240060000Y-118085000D01*
G75*
G02*
X239925000Y-118220000I-135000J0D01*
G01*
X239655000Y-118220000D01*
G75*
G02*
X239520000Y-118085000I0J135000D01*
G01*
G37*
G04 #@! TD*
G04 #@! TO.C,R24*
G36*
G01*
X240540000Y-116685000D02*
X240540000Y-116315000D01*
G75*
G02*
X240675000Y-116180000I135000J0D01*
G01*
X240945000Y-116180000D01*
G75*
G02*
X241080000Y-116315000I0J-135000D01*
G01*
X241080000Y-116685000D01*
G75*
G02*
X240945000Y-116820000I-135000J0D01*
G01*
X240675000Y-116820000D01*
G75*
G02*
X240540000Y-116685000I0J135000D01*
G01*
G37*
G36*
G01*
X239520000Y-116685000D02*
X239520000Y-116315000D01*
G75*
G02*
X239655000Y-116180000I135000J0D01*
G01*
X239925000Y-116180000D01*
G75*
G02*
X240060000Y-116315000I0J-135000D01*
G01*
X240060000Y-116685000D01*
G75*
G02*
X239925000Y-116820000I-135000J0D01*
G01*
X239655000Y-116820000D01*
G75*
G02*
X239520000Y-116685000I0J135000D01*
G01*
G37*
G04 #@! TD*
G04 #@! TO.C,R22*
G36*
G01*
X243066000Y-105341000D02*
X243066000Y-104971000D01*
G75*
G02*
X243201000Y-104836000I135000J0D01*
G01*
X243471000Y-104836000D01*
G75*
G02*
X243606000Y-104971000I0J-135000D01*
G01*
X243606000Y-105341000D01*
G75*
G02*
X243471000Y-105476000I-135000J0D01*
G01*
X243201000Y-105476000D01*
G75*
G02*
X243066000Y-105341000I0J135000D01*
G01*
G37*
G36*
G01*
X242046000Y-105341000D02*
X242046000Y-104971000D01*
G75*
G02*
X242181000Y-104836000I135000J0D01*
G01*
X242451000Y-104836000D01*
G75*
G02*
X242586000Y-104971000I0J-135000D01*
G01*
X242586000Y-105341000D01*
G75*
G02*
X242451000Y-105476000I-135000J0D01*
G01*
X242181000Y-105476000D01*
G75*
G02*
X242046000Y-105341000I0J135000D01*
G01*
G37*
G04 #@! TD*
G04 #@! TO.C,R21*
G36*
G01*
X221728000Y-136025000D02*
X221728000Y-136395000D01*
G75*
G02*
X221593000Y-136530000I-135000J0D01*
G01*
X221323000Y-136530000D01*
G75*
G02*
X221188000Y-136395000I0J135000D01*
G01*
X221188000Y-136025000D01*
G75*
G02*
X221323000Y-135890000I135000J0D01*
G01*
X221593000Y-135890000D01*
G75*
G02*
X221728000Y-136025000I0J-135000D01*
G01*
G37*
G36*
G01*
X222748000Y-136025000D02*
X222748000Y-136395000D01*
G75*
G02*
X222613000Y-136530000I-135000J0D01*
G01*
X222343000Y-136530000D01*
G75*
G02*
X222208000Y-136395000I0J135000D01*
G01*
X222208000Y-136025000D01*
G75*
G02*
X222343000Y-135890000I135000J0D01*
G01*
X222613000Y-135890000D01*
G75*
G02*
X222748000Y-136025000I0J-135000D01*
G01*
G37*
G04 #@! TD*
G04 #@! TO.C,R20*
G36*
G01*
X214014000Y-132694000D02*
X214014000Y-133244000D01*
G75*
G02*
X213814000Y-133444000I-200000J0D01*
G01*
X213414000Y-133444000D01*
G75*
G02*
X213214000Y-133244000I0J200000D01*
G01*
X213214000Y-132694000D01*
G75*
G02*
X213414000Y-132494000I200000J0D01*
G01*
X213814000Y-132494000D01*
G75*
G02*
X214014000Y-132694000I0J-200000D01*
G01*
G37*
G36*
G01*
X215664000Y-132694000D02*
X215664000Y-133244000D01*
G75*
G02*
X215464000Y-133444000I-200000J0D01*
G01*
X215064000Y-133444000D01*
G75*
G02*
X214864000Y-133244000I0J200000D01*
G01*
X214864000Y-132694000D01*
G75*
G02*
X215064000Y-132494000I200000J0D01*
G01*
X215464000Y-132494000D01*
G75*
G02*
X215664000Y-132694000I0J-200000D01*
G01*
G37*
G04 #@! TD*
G04 #@! TO.C,R19*
G36*
G01*
X208804000Y-143325000D02*
X208804000Y-143695000D01*
G75*
G02*
X208669000Y-143830000I-135000J0D01*
G01*
X208399000Y-143830000D01*
G75*
G02*
X208264000Y-143695000I0J135000D01*
G01*
X208264000Y-143325000D01*
G75*
G02*
X208399000Y-143190000I135000J0D01*
G01*
X208669000Y-143190000D01*
G75*
G02*
X208804000Y-143325000I0J-135000D01*
G01*
G37*
G36*
G01*
X209824000Y-143325000D02*
X209824000Y-143695000D01*
G75*
G02*
X209689000Y-143830000I-135000J0D01*
G01*
X209419000Y-143830000D01*
G75*
G02*
X209284000Y-143695000I0J135000D01*
G01*
X209284000Y-143325000D01*
G75*
G02*
X209419000Y-143190000I135000J0D01*
G01*
X209689000Y-143190000D01*
G75*
G02*
X209824000Y-143325000I0J-135000D01*
G01*
G37*
G04 #@! TD*
G04 #@! TO.C,R18*
G36*
G01*
X222208000Y-134490000D02*
X222208000Y-134120000D01*
G75*
G02*
X222343000Y-133985000I135000J0D01*
G01*
X222613000Y-133985000D01*
G75*
G02*
X222748000Y-134120000I0J-135000D01*
G01*
X222748000Y-134490000D01*
G75*
G02*
X222613000Y-134625000I-135000J0D01*
G01*
X222343000Y-134625000D01*
G75*
G02*
X222208000Y-134490000I0J135000D01*
G01*
G37*
G36*
G01*
X221188000Y-134490000D02*
X221188000Y-134120000D01*
G75*
G02*
X221323000Y-133985000I135000J0D01*
G01*
X221593000Y-133985000D01*
G75*
G02*
X221728000Y-134120000I0J-135000D01*
G01*
X221728000Y-134490000D01*
G75*
G02*
X221593000Y-134625000I-135000J0D01*
G01*
X221323000Y-134625000D01*
G75*
G02*
X221188000Y-134490000I0J135000D01*
G01*
G37*
G04 #@! TD*
G04 #@! TO.C,R16*
G36*
G01*
X192927000Y-102431000D02*
X192927000Y-102801000D01*
G75*
G02*
X192792000Y-102936000I-135000J0D01*
G01*
X192522000Y-102936000D01*
G75*
G02*
X192387000Y-102801000I0J135000D01*
G01*
X192387000Y-102431000D01*
G75*
G02*
X192522000Y-102296000I135000J0D01*
G01*
X192792000Y-102296000D01*
G75*
G02*
X192927000Y-102431000I0J-135000D01*
G01*
G37*
G36*
G01*
X193947000Y-102431000D02*
X193947000Y-102801000D01*
G75*
G02*
X193812000Y-102936000I-135000J0D01*
G01*
X193542000Y-102936000D01*
G75*
G02*
X193407000Y-102801000I0J135000D01*
G01*
X193407000Y-102431000D01*
G75*
G02*
X193542000Y-102296000I135000J0D01*
G01*
X193812000Y-102296000D01*
G75*
G02*
X193947000Y-102431000I0J-135000D01*
G01*
G37*
G04 #@! TD*
G04 #@! TO.C,R14*
G36*
G01*
X189722000Y-102801000D02*
X189722000Y-102431000D01*
G75*
G02*
X189857000Y-102296000I135000J0D01*
G01*
X190127000Y-102296000D01*
G75*
G02*
X190262000Y-102431000I0J-135000D01*
G01*
X190262000Y-102801000D01*
G75*
G02*
X190127000Y-102936000I-135000J0D01*
G01*
X189857000Y-102936000D01*
G75*
G02*
X189722000Y-102801000I0J135000D01*
G01*
G37*
G36*
G01*
X188702000Y-102801000D02*
X188702000Y-102431000D01*
G75*
G02*
X188837000Y-102296000I135000J0D01*
G01*
X189107000Y-102296000D01*
G75*
G02*
X189242000Y-102431000I0J-135000D01*
G01*
X189242000Y-102801000D01*
G75*
G02*
X189107000Y-102936000I-135000J0D01*
G01*
X188837000Y-102936000D01*
G75*
G02*
X188702000Y-102801000I0J135000D01*
G01*
G37*
G04 #@! TD*
G04 #@! TO.C,R13*
G36*
G01*
X242131000Y-117336000D02*
X242501000Y-117336000D01*
G75*
G02*
X242636000Y-117471000I0J-135000D01*
G01*
X242636000Y-117741000D01*
G75*
G02*
X242501000Y-117876000I-135000J0D01*
G01*
X242131000Y-117876000D01*
G75*
G02*
X241996000Y-117741000I0J135000D01*
G01*
X241996000Y-117471000D01*
G75*
G02*
X242131000Y-117336000I135000J0D01*
G01*
G37*
G36*
G01*
X242131000Y-116316000D02*
X242501000Y-116316000D01*
G75*
G02*
X242636000Y-116451000I0J-135000D01*
G01*
X242636000Y-116721000D01*
G75*
G02*
X242501000Y-116856000I-135000J0D01*
G01*
X242131000Y-116856000D01*
G75*
G02*
X241996000Y-116721000I0J135000D01*
G01*
X241996000Y-116451000D01*
G75*
G02*
X242131000Y-116316000I135000J0D01*
G01*
G37*
G04 #@! TD*
G04 #@! TO.C,R12*
G36*
G01*
X203819000Y-102547000D02*
X203819000Y-102177000D01*
G75*
G02*
X203954000Y-102042000I135000J0D01*
G01*
X204224000Y-102042000D01*
G75*
G02*
X204359000Y-102177000I0J-135000D01*
G01*
X204359000Y-102547000D01*
G75*
G02*
X204224000Y-102682000I-135000J0D01*
G01*
X203954000Y-102682000D01*
G75*
G02*
X203819000Y-102547000I0J135000D01*
G01*
G37*
G36*
G01*
X202799000Y-102547000D02*
X202799000Y-102177000D01*
G75*
G02*
X202934000Y-102042000I135000J0D01*
G01*
X203204000Y-102042000D01*
G75*
G02*
X203339000Y-102177000I0J-135000D01*
G01*
X203339000Y-102547000D01*
G75*
G02*
X203204000Y-102682000I-135000J0D01*
G01*
X202934000Y-102682000D01*
G75*
G02*
X202799000Y-102547000I0J135000D01*
G01*
G37*
G04 #@! TD*
G04 #@! TO.C,R11*
G36*
G01*
X221885000Y-142570000D02*
X221515000Y-142570000D01*
G75*
G02*
X221380000Y-142435000I0J135000D01*
G01*
X221380000Y-142165000D01*
G75*
G02*
X221515000Y-142030000I135000J0D01*
G01*
X221885000Y-142030000D01*
G75*
G02*
X222020000Y-142165000I0J-135000D01*
G01*
X222020000Y-142435000D01*
G75*
G02*
X221885000Y-142570000I-135000J0D01*
G01*
G37*
G36*
G01*
X221885000Y-143590000D02*
X221515000Y-143590000D01*
G75*
G02*
X221380000Y-143455000I0J135000D01*
G01*
X221380000Y-143185000D01*
G75*
G02*
X221515000Y-143050000I135000J0D01*
G01*
X221885000Y-143050000D01*
G75*
G02*
X222020000Y-143185000I0J-135000D01*
G01*
X222020000Y-143455000D01*
G75*
G02*
X221885000Y-143590000I-135000J0D01*
G01*
G37*
G04 #@! TD*
G04 #@! TO.C,R9*
G36*
G01*
X217450000Y-139315000D02*
X217450000Y-139685000D01*
G75*
G02*
X217315000Y-139820000I-135000J0D01*
G01*
X217045000Y-139820000D01*
G75*
G02*
X216910000Y-139685000I0J135000D01*
G01*
X216910000Y-139315000D01*
G75*
G02*
X217045000Y-139180000I135000J0D01*
G01*
X217315000Y-139180000D01*
G75*
G02*
X217450000Y-139315000I0J-135000D01*
G01*
G37*
G36*
G01*
X218470000Y-139315000D02*
X218470000Y-139685000D01*
G75*
G02*
X218335000Y-139820000I-135000J0D01*
G01*
X218065000Y-139820000D01*
G75*
G02*
X217930000Y-139685000I0J135000D01*
G01*
X217930000Y-139315000D01*
G75*
G02*
X218065000Y-139180000I135000J0D01*
G01*
X218335000Y-139180000D01*
G75*
G02*
X218470000Y-139315000I0J-135000D01*
G01*
G37*
G04 #@! TD*
G04 #@! TO.C,R8*
G36*
G01*
X250629000Y-130826000D02*
X250259000Y-130826000D01*
G75*
G02*
X250124000Y-130691000I0J135000D01*
G01*
X250124000Y-130421000D01*
G75*
G02*
X250259000Y-130286000I135000J0D01*
G01*
X250629000Y-130286000D01*
G75*
G02*
X250764000Y-130421000I0J-135000D01*
G01*
X250764000Y-130691000D01*
G75*
G02*
X250629000Y-130826000I-135000J0D01*
G01*
G37*
G36*
G01*
X250629000Y-131846000D02*
X250259000Y-131846000D01*
G75*
G02*
X250124000Y-131711000I0J135000D01*
G01*
X250124000Y-131441000D01*
G75*
G02*
X250259000Y-131306000I135000J0D01*
G01*
X250629000Y-131306000D01*
G75*
G02*
X250764000Y-131441000I0J-135000D01*
G01*
X250764000Y-131711000D01*
G75*
G02*
X250629000Y-131846000I-135000J0D01*
G01*
G37*
G04 #@! TD*
G04 #@! TO.C,R7*
G36*
G01*
X226985000Y-138460000D02*
X226615000Y-138460000D01*
G75*
G02*
X226480000Y-138325000I0J135000D01*
G01*
X226480000Y-138055000D01*
G75*
G02*
X226615000Y-137920000I135000J0D01*
G01*
X226985000Y-137920000D01*
G75*
G02*
X227120000Y-138055000I0J-135000D01*
G01*
X227120000Y-138325000D01*
G75*
G02*
X226985000Y-138460000I-135000J0D01*
G01*
G37*
G36*
G01*
X226985000Y-139480000D02*
X226615000Y-139480000D01*
G75*
G02*
X226480000Y-139345000I0J135000D01*
G01*
X226480000Y-139075000D01*
G75*
G02*
X226615000Y-138940000I135000J0D01*
G01*
X226985000Y-138940000D01*
G75*
G02*
X227120000Y-139075000I0J-135000D01*
G01*
X227120000Y-139345000D01*
G75*
G02*
X226985000Y-139480000I-135000J0D01*
G01*
G37*
G04 #@! TD*
G04 #@! TO.C,R6*
G36*
G01*
X252034000Y-119093000D02*
X251484000Y-119093000D01*
G75*
G02*
X251284000Y-118893000I0J200000D01*
G01*
X251284000Y-118493000D01*
G75*
G02*
X251484000Y-118293000I200000J0D01*
G01*
X252034000Y-118293000D01*
G75*
G02*
X252234000Y-118493000I0J-200000D01*
G01*
X252234000Y-118893000D01*
G75*
G02*
X252034000Y-119093000I-200000J0D01*
G01*
G37*
G36*
G01*
X252034000Y-120743000D02*
X251484000Y-120743000D01*
G75*
G02*
X251284000Y-120543000I0J200000D01*
G01*
X251284000Y-120143000D01*
G75*
G02*
X251484000Y-119943000I200000J0D01*
G01*
X252034000Y-119943000D01*
G75*
G02*
X252234000Y-120143000I0J-200000D01*
G01*
X252234000Y-120543000D01*
G75*
G02*
X252034000Y-120743000I-200000J0D01*
G01*
G37*
G04 #@! TD*
G04 #@! TO.C,R5*
G36*
G01*
X231859500Y-143694998D02*
X231859500Y-144595002D01*
G75*
G02*
X231609502Y-144845000I-249998J0D01*
G01*
X231084498Y-144845000D01*
G75*
G02*
X230834500Y-144595002I0J249998D01*
G01*
X230834500Y-143694998D01*
G75*
G02*
X231084498Y-143445000I249998J0D01*
G01*
X231609502Y-143445000D01*
G75*
G02*
X231859500Y-143694998I0J-249998D01*
G01*
G37*
G36*
G01*
X233684500Y-143694998D02*
X233684500Y-144595002D01*
G75*
G02*
X233434502Y-144845000I-249998J0D01*
G01*
X232909498Y-144845000D01*
G75*
G02*
X232659500Y-144595002I0J249998D01*
G01*
X232659500Y-143694998D01*
G75*
G02*
X232909498Y-143445000I249998J0D01*
G01*
X233434502Y-143445000D01*
G75*
G02*
X233684500Y-143694998I0J-249998D01*
G01*
G37*
G04 #@! TD*
G04 #@! TO.C,R4*
G36*
G01*
X199550000Y-104975000D02*
X199550000Y-105525000D01*
G75*
G02*
X199350000Y-105725000I-200000J0D01*
G01*
X198950000Y-105725000D01*
G75*
G02*
X198750000Y-105525000I0J200000D01*
G01*
X198750000Y-104975000D01*
G75*
G02*
X198950000Y-104775000I200000J0D01*
G01*
X199350000Y-104775000D01*
G75*
G02*
X199550000Y-104975000I0J-200000D01*
G01*
G37*
G36*
G01*
X201200000Y-104975000D02*
X201200000Y-105525000D01*
G75*
G02*
X201000000Y-105725000I-200000J0D01*
G01*
X200600000Y-105725000D01*
G75*
G02*
X200400000Y-105525000I0J200000D01*
G01*
X200400000Y-104975000D01*
G75*
G02*
X200600000Y-104775000I200000J0D01*
G01*
X201000000Y-104775000D01*
G75*
G02*
X201200000Y-104975000I0J-200000D01*
G01*
G37*
G04 #@! TD*
G04 #@! TO.C,R3*
G36*
G01*
X197300000Y-105125000D02*
X197300000Y-105675000D01*
G75*
G02*
X197100000Y-105875000I-200000J0D01*
G01*
X196700000Y-105875000D01*
G75*
G02*
X196500000Y-105675000I0J200000D01*
G01*
X196500000Y-105125000D01*
G75*
G02*
X196700000Y-104925000I200000J0D01*
G01*
X197100000Y-104925000D01*
G75*
G02*
X197300000Y-105125000I0J-200000D01*
G01*
G37*
G36*
G01*
X195650000Y-105125000D02*
X195650000Y-105675000D01*
G75*
G02*
X195450000Y-105875000I-200000J0D01*
G01*
X195050000Y-105875000D01*
G75*
G02*
X194850000Y-105675000I0J200000D01*
G01*
X194850000Y-105125000D01*
G75*
G02*
X195050000Y-104925000I200000J0D01*
G01*
X195450000Y-104925000D01*
G75*
G02*
X195650000Y-105125000I0J-200000D01*
G01*
G37*
G04 #@! TD*
G04 #@! TO.C,R2*
G36*
G01*
X252114000Y-128312000D02*
X252114000Y-128862000D01*
G75*
G02*
X251914000Y-129062000I-200000J0D01*
G01*
X251514000Y-129062000D01*
G75*
G02*
X251314000Y-128862000I0J200000D01*
G01*
X251314000Y-128312000D01*
G75*
G02*
X251514000Y-128112000I200000J0D01*
G01*
X251914000Y-128112000D01*
G75*
G02*
X252114000Y-128312000I0J-200000D01*
G01*
G37*
G36*
G01*
X253764000Y-128312000D02*
X253764000Y-128862000D01*
G75*
G02*
X253564000Y-129062000I-200000J0D01*
G01*
X253164000Y-129062000D01*
G75*
G02*
X252964000Y-128862000I0J200000D01*
G01*
X252964000Y-128312000D01*
G75*
G02*
X253164000Y-128112000I200000J0D01*
G01*
X253564000Y-128112000D01*
G75*
G02*
X253764000Y-128312000I0J-200000D01*
G01*
G37*
G04 #@! TD*
G04 #@! TO.C,R1*
G36*
G01*
X252368000Y-126217000D02*
X252368000Y-126767000D01*
G75*
G02*
X252168000Y-126967000I-200000J0D01*
G01*
X251768000Y-126967000D01*
G75*
G02*
X251568000Y-126767000I0J200000D01*
G01*
X251568000Y-126217000D01*
G75*
G02*
X251768000Y-126017000I200000J0D01*
G01*
X252168000Y-126017000D01*
G75*
G02*
X252368000Y-126217000I0J-200000D01*
G01*
G37*
G36*
G01*
X254018000Y-126217000D02*
X254018000Y-126767000D01*
G75*
G02*
X253818000Y-126967000I-200000J0D01*
G01*
X253418000Y-126967000D01*
G75*
G02*
X253218000Y-126767000I0J200000D01*
G01*
X253218000Y-126217000D01*
G75*
G02*
X253418000Y-126017000I200000J0D01*
G01*
X253818000Y-126017000D01*
G75*
G02*
X254018000Y-126217000I0J-200000D01*
G01*
G37*
G04 #@! TD*
G04 #@! TO.C,C22*
G36*
G01*
X247088000Y-137584000D02*
X247088000Y-137244000D01*
G75*
G02*
X247228000Y-137104000I140000J0D01*
G01*
X247508000Y-137104000D01*
G75*
G02*
X247648000Y-137244000I0J-140000D01*
G01*
X247648000Y-137584000D01*
G75*
G02*
X247508000Y-137724000I-140000J0D01*
G01*
X247228000Y-137724000D01*
G75*
G02*
X247088000Y-137584000I0J140000D01*
G01*
G37*
G36*
G01*
X246128000Y-137584000D02*
X246128000Y-137244000D01*
G75*
G02*
X246268000Y-137104000I140000J0D01*
G01*
X246548000Y-137104000D01*
G75*
G02*
X246688000Y-137244000I0J-140000D01*
G01*
X246688000Y-137584000D01*
G75*
G02*
X246548000Y-137724000I-140000J0D01*
G01*
X246268000Y-137724000D01*
G75*
G02*
X246128000Y-137584000I0J140000D01*
G01*
G37*
G04 #@! TD*
G04 #@! TO.C,C13*
G36*
G01*
X234907000Y-141396000D02*
X235247000Y-141396000D01*
G75*
G02*
X235387000Y-141536000I0J-140000D01*
G01*
X235387000Y-141816000D01*
G75*
G02*
X235247000Y-141956000I-140000J0D01*
G01*
X234907000Y-141956000D01*
G75*
G02*
X234767000Y-141816000I0J140000D01*
G01*
X234767000Y-141536000D01*
G75*
G02*
X234907000Y-141396000I140000J0D01*
G01*
G37*
G36*
G01*
X234907000Y-140436000D02*
X235247000Y-140436000D01*
G75*
G02*
X235387000Y-140576000I0J-140000D01*
G01*
X235387000Y-140856000D01*
G75*
G02*
X235247000Y-140996000I-140000J0D01*
G01*
X234907000Y-140996000D01*
G75*
G02*
X234767000Y-140856000I0J140000D01*
G01*
X234767000Y-140576000D01*
G75*
G02*
X234907000Y-140436000I140000J0D01*
G01*
G37*
G04 #@! TD*
G04 #@! TO.C,C12*
G36*
G01*
X251544000Y-131292000D02*
X251884000Y-131292000D01*
G75*
G02*
X252024000Y-131432000I0J-140000D01*
G01*
X252024000Y-131712000D01*
G75*
G02*
X251884000Y-131852000I-140000J0D01*
G01*
X251544000Y-131852000D01*
G75*
G02*
X251404000Y-131712000I0J140000D01*
G01*
X251404000Y-131432000D01*
G75*
G02*
X251544000Y-131292000I140000J0D01*
G01*
G37*
G36*
G01*
X251544000Y-130332000D02*
X251884000Y-130332000D01*
G75*
G02*
X252024000Y-130472000I0J-140000D01*
G01*
X252024000Y-130752000D01*
G75*
G02*
X251884000Y-130892000I-140000J0D01*
G01*
X251544000Y-130892000D01*
G75*
G02*
X251404000Y-130752000I0J140000D01*
G01*
X251404000Y-130472000D01*
G75*
G02*
X251544000Y-130332000I140000J0D01*
G01*
G37*
G04 #@! TD*
G04 #@! TO.C,C11*
G36*
G01*
X253061000Y-131236000D02*
X253401000Y-131236000D01*
G75*
G02*
X253541000Y-131376000I0J-140000D01*
G01*
X253541000Y-131656000D01*
G75*
G02*
X253401000Y-131796000I-140000J0D01*
G01*
X253061000Y-131796000D01*
G75*
G02*
X252921000Y-131656000I0J140000D01*
G01*
X252921000Y-131376000D01*
G75*
G02*
X253061000Y-131236000I140000J0D01*
G01*
G37*
G36*
G01*
X253061000Y-130276000D02*
X253401000Y-130276000D01*
G75*
G02*
X253541000Y-130416000I0J-140000D01*
G01*
X253541000Y-130696000D01*
G75*
G02*
X253401000Y-130836000I-140000J0D01*
G01*
X253061000Y-130836000D01*
G75*
G02*
X252921000Y-130696000I0J140000D01*
G01*
X252921000Y-130416000D01*
G75*
G02*
X253061000Y-130276000I140000J0D01*
G01*
G37*
G04 #@! TD*
G04 #@! TO.C,C10*
G36*
G01*
X259353000Y-128354000D02*
X259353000Y-128694000D01*
G75*
G02*
X259213000Y-128834000I-140000J0D01*
G01*
X258933000Y-128834000D01*
G75*
G02*
X258793000Y-128694000I0J140000D01*
G01*
X258793000Y-128354000D01*
G75*
G02*
X258933000Y-128214000I140000J0D01*
G01*
X259213000Y-128214000D01*
G75*
G02*
X259353000Y-128354000I0J-140000D01*
G01*
G37*
G36*
G01*
X260313000Y-128354000D02*
X260313000Y-128694000D01*
G75*
G02*
X260173000Y-128834000I-140000J0D01*
G01*
X259893000Y-128834000D01*
G75*
G02*
X259753000Y-128694000I0J140000D01*
G01*
X259753000Y-128354000D01*
G75*
G02*
X259893000Y-128214000I140000J0D01*
G01*
X260173000Y-128214000D01*
G75*
G02*
X260313000Y-128354000I0J-140000D01*
G01*
G37*
G04 #@! TD*
G04 #@! TO.C,C9*
G36*
G01*
X249004000Y-131236000D02*
X249344000Y-131236000D01*
G75*
G02*
X249484000Y-131376000I0J-140000D01*
G01*
X249484000Y-131656000D01*
G75*
G02*
X249344000Y-131796000I-140000J0D01*
G01*
X249004000Y-131796000D01*
G75*
G02*
X248864000Y-131656000I0J140000D01*
G01*
X248864000Y-131376000D01*
G75*
G02*
X249004000Y-131236000I140000J0D01*
G01*
G37*
G36*
G01*
X249004000Y-130276000D02*
X249344000Y-130276000D01*
G75*
G02*
X249484000Y-130416000I0J-140000D01*
G01*
X249484000Y-130696000D01*
G75*
G02*
X249344000Y-130836000I-140000J0D01*
G01*
X249004000Y-130836000D01*
G75*
G02*
X248864000Y-130696000I0J140000D01*
G01*
X248864000Y-130416000D01*
G75*
G02*
X249004000Y-130276000I140000J0D01*
G01*
G37*
G04 #@! TD*
G04 #@! TO.C,C8*
G36*
G01*
X247538001Y-132499000D02*
X246237999Y-132499000D01*
G75*
G02*
X245988000Y-132249001I0J249999D01*
G01*
X245988000Y-131598999D01*
G75*
G02*
X246237999Y-131349000I249999J0D01*
G01*
X247538001Y-131349000D01*
G75*
G02*
X247788000Y-131598999I0J-249999D01*
G01*
X247788000Y-132249001D01*
G75*
G02*
X247538001Y-132499000I-249999J0D01*
G01*
G37*
G36*
G01*
X247538001Y-135449000D02*
X246237999Y-135449000D01*
G75*
G02*
X245988000Y-135199001I0J249999D01*
G01*
X245988000Y-134548999D01*
G75*
G02*
X246237999Y-134299000I249999J0D01*
G01*
X247538001Y-134299000D01*
G75*
G02*
X247788000Y-134548999I0J-249999D01*
G01*
X247788000Y-135199001D01*
G75*
G02*
X247538001Y-135449000I-249999J0D01*
G01*
G37*
G04 #@! TD*
G04 #@! TO.C,C7*
G36*
G01*
X249850001Y-126625000D02*
X248549999Y-126625000D01*
G75*
G02*
X248300000Y-126375001I0J249999D01*
G01*
X248300000Y-125724999D01*
G75*
G02*
X248549999Y-125475000I249999J0D01*
G01*
X249850001Y-125475000D01*
G75*
G02*
X250100000Y-125724999I0J-249999D01*
G01*
X250100000Y-126375001D01*
G75*
G02*
X249850001Y-126625000I-249999J0D01*
G01*
G37*
G36*
G01*
X249850001Y-129575000D02*
X248549999Y-129575000D01*
G75*
G02*
X248300000Y-129325001I0J249999D01*
G01*
X248300000Y-128674999D01*
G75*
G02*
X248549999Y-128425000I249999J0D01*
G01*
X249850001Y-128425000D01*
G75*
G02*
X250100000Y-128674999I0J-249999D01*
G01*
X250100000Y-129325001D01*
G75*
G02*
X249850001Y-129575000I-249999J0D01*
G01*
G37*
G04 #@! TD*
G04 #@! TO.C,C6*
G36*
G01*
X206713000Y-143301000D02*
X207053000Y-143301000D01*
G75*
G02*
X207193000Y-143441000I0J-140000D01*
G01*
X207193000Y-143721000D01*
G75*
G02*
X207053000Y-143861000I-140000J0D01*
G01*
X206713000Y-143861000D01*
G75*
G02*
X206573000Y-143721000I0J140000D01*
G01*
X206573000Y-143441000D01*
G75*
G02*
X206713000Y-143301000I140000J0D01*
G01*
G37*
G36*
G01*
X206713000Y-142341000D02*
X207053000Y-142341000D01*
G75*
G02*
X207193000Y-142481000I0J-140000D01*
G01*
X207193000Y-142761000D01*
G75*
G02*
X207053000Y-142901000I-140000J0D01*
G01*
X206713000Y-142901000D01*
G75*
G02*
X206573000Y-142761000I0J140000D01*
G01*
X206573000Y-142481000D01*
G75*
G02*
X206713000Y-142341000I140000J0D01*
G01*
G37*
G04 #@! TD*
G04 #@! TO.C,C5*
G36*
G01*
X237025000Y-134646000D02*
X236685000Y-134646000D01*
G75*
G02*
X236545000Y-134506000I0J140000D01*
G01*
X236545000Y-134226000D01*
G75*
G02*
X236685000Y-134086000I140000J0D01*
G01*
X237025000Y-134086000D01*
G75*
G02*
X237165000Y-134226000I0J-140000D01*
G01*
X237165000Y-134506000D01*
G75*
G02*
X237025000Y-134646000I-140000J0D01*
G01*
G37*
G36*
G01*
X237025000Y-135606000D02*
X236685000Y-135606000D01*
G75*
G02*
X236545000Y-135466000I0J140000D01*
G01*
X236545000Y-135186000D01*
G75*
G02*
X236685000Y-135046000I140000J0D01*
G01*
X237025000Y-135046000D01*
G75*
G02*
X237165000Y-135186000I0J-140000D01*
G01*
X237165000Y-135466000D01*
G75*
G02*
X237025000Y-135606000I-140000J0D01*
G01*
G37*
G04 #@! TD*
G04 #@! TO.C,C2*
G36*
G01*
X258737000Y-125841999D02*
X258737000Y-127142001D01*
G75*
G02*
X258487001Y-127392000I-249999J0D01*
G01*
X257836999Y-127392000D01*
G75*
G02*
X257587000Y-127142001I0J249999D01*
G01*
X257587000Y-125841999D01*
G75*
G02*
X257836999Y-125592000I249999J0D01*
G01*
X258487001Y-125592000D01*
G75*
G02*
X258737000Y-125841999I0J-249999D01*
G01*
G37*
G36*
G01*
X261687000Y-125841999D02*
X261687000Y-127142001D01*
G75*
G02*
X261437001Y-127392000I-249999J0D01*
G01*
X260786999Y-127392000D01*
G75*
G02*
X260537000Y-127142001I0J249999D01*
G01*
X260537000Y-125841999D01*
G75*
G02*
X260786999Y-125592000I249999J0D01*
G01*
X261437001Y-125592000D01*
G75*
G02*
X261687000Y-125841999I0J-249999D01*
G01*
G37*
G04 #@! TD*
G04 #@! TO.C,C1*
G36*
G01*
X260503000Y-135466000D02*
X260503000Y-135806000D01*
G75*
G02*
X260363000Y-135946000I-140000J0D01*
G01*
X260083000Y-135946000D01*
G75*
G02*
X259943000Y-135806000I0J140000D01*
G01*
X259943000Y-135466000D01*
G75*
G02*
X260083000Y-135326000I140000J0D01*
G01*
X260363000Y-135326000D01*
G75*
G02*
X260503000Y-135466000I0J-140000D01*
G01*
G37*
G36*
G01*
X261463000Y-135466000D02*
X261463000Y-135806000D01*
G75*
G02*
X261323000Y-135946000I-140000J0D01*
G01*
X261043000Y-135946000D01*
G75*
G02*
X260903000Y-135806000I0J140000D01*
G01*
X260903000Y-135466000D01*
G75*
G02*
X261043000Y-135326000I140000J0D01*
G01*
X261323000Y-135326000D01*
G75*
G02*
X261463000Y-135466000I0J-140000D01*
G01*
G37*
G04 #@! TD*
G04 #@! TO.C,U8*
G36*
G01*
X214609000Y-115466000D02*
X214609000Y-115166000D01*
G75*
G02*
X214759000Y-115016000I150000J0D01*
G01*
X216409000Y-115016000D01*
G75*
G02*
X216559000Y-115166000I0J-150000D01*
G01*
X216559000Y-115466000D01*
G75*
G02*
X216409000Y-115616000I-150000J0D01*
G01*
X214759000Y-115616000D01*
G75*
G02*
X214609000Y-115466000I0J150000D01*
G01*
G37*
G36*
G01*
X214609000Y-116736000D02*
X214609000Y-116436000D01*
G75*
G02*
X214759000Y-116286000I150000J0D01*
G01*
X216409000Y-116286000D01*
G75*
G02*
X216559000Y-116436000I0J-150000D01*
G01*
X216559000Y-116736000D01*
G75*
G02*
X216409000Y-116886000I-150000J0D01*
G01*
X214759000Y-116886000D01*
G75*
G02*
X214609000Y-116736000I0J150000D01*
G01*
G37*
G36*
G01*
X214609000Y-118006000D02*
X214609000Y-117706000D01*
G75*
G02*
X214759000Y-117556000I150000J0D01*
G01*
X216409000Y-117556000D01*
G75*
G02*
X216559000Y-117706000I0J-150000D01*
G01*
X216559000Y-118006000D01*
G75*
G02*
X216409000Y-118156000I-150000J0D01*
G01*
X214759000Y-118156000D01*
G75*
G02*
X214609000Y-118006000I0J150000D01*
G01*
G37*
G36*
G01*
X214609000Y-119276000D02*
X214609000Y-118976000D01*
G75*
G02*
X214759000Y-118826000I150000J0D01*
G01*
X216409000Y-118826000D01*
G75*
G02*
X216559000Y-118976000I0J-150000D01*
G01*
X216559000Y-119276000D01*
G75*
G02*
X216409000Y-119426000I-150000J0D01*
G01*
X214759000Y-119426000D01*
G75*
G02*
X214609000Y-119276000I0J150000D01*
G01*
G37*
G36*
G01*
X214609000Y-120546000D02*
X214609000Y-120246000D01*
G75*
G02*
X214759000Y-120096000I150000J0D01*
G01*
X216409000Y-120096000D01*
G75*
G02*
X216559000Y-120246000I0J-150000D01*
G01*
X216559000Y-120546000D01*
G75*
G02*
X216409000Y-120696000I-150000J0D01*
G01*
X214759000Y-120696000D01*
G75*
G02*
X214609000Y-120546000I0J150000D01*
G01*
G37*
G36*
G01*
X214609000Y-121816000D02*
X214609000Y-121516000D01*
G75*
G02*
X214759000Y-121366000I150000J0D01*
G01*
X216409000Y-121366000D01*
G75*
G02*
X216559000Y-121516000I0J-150000D01*
G01*
X216559000Y-121816000D01*
G75*
G02*
X216409000Y-121966000I-150000J0D01*
G01*
X214759000Y-121966000D01*
G75*
G02*
X214609000Y-121816000I0J150000D01*
G01*
G37*
G36*
G01*
X214609000Y-123086000D02*
X214609000Y-122786000D01*
G75*
G02*
X214759000Y-122636000I150000J0D01*
G01*
X216409000Y-122636000D01*
G75*
G02*
X216559000Y-122786000I0J-150000D01*
G01*
X216559000Y-123086000D01*
G75*
G02*
X216409000Y-123236000I-150000J0D01*
G01*
X214759000Y-123236000D01*
G75*
G02*
X214609000Y-123086000I0J150000D01*
G01*
G37*
G36*
G01*
X214609000Y-124356000D02*
X214609000Y-124056000D01*
G75*
G02*
X214759000Y-123906000I150000J0D01*
G01*
X216409000Y-123906000D01*
G75*
G02*
X216559000Y-124056000I0J-150000D01*
G01*
X216559000Y-124356000D01*
G75*
G02*
X216409000Y-124506000I-150000J0D01*
G01*
X214759000Y-124506000D01*
G75*
G02*
X214609000Y-124356000I0J150000D01*
G01*
G37*
G36*
G01*
X219559000Y-124356000D02*
X219559000Y-124056000D01*
G75*
G02*
X219709000Y-123906000I150000J0D01*
G01*
X221359000Y-123906000D01*
G75*
G02*
X221509000Y-124056000I0J-150000D01*
G01*
X221509000Y-124356000D01*
G75*
G02*
X221359000Y-124506000I-150000J0D01*
G01*
X219709000Y-124506000D01*
G75*
G02*
X219559000Y-124356000I0J150000D01*
G01*
G37*
G36*
G01*
X219559000Y-123086000D02*
X219559000Y-122786000D01*
G75*
G02*
X219709000Y-122636000I150000J0D01*
G01*
X221359000Y-122636000D01*
G75*
G02*
X221509000Y-122786000I0J-150000D01*
G01*
X221509000Y-123086000D01*
G75*
G02*
X221359000Y-123236000I-150000J0D01*
G01*
X219709000Y-123236000D01*
G75*
G02*
X219559000Y-123086000I0J150000D01*
G01*
G37*
G36*
G01*
X219559000Y-121816000D02*
X219559000Y-121516000D01*
G75*
G02*
X219709000Y-121366000I150000J0D01*
G01*
X221359000Y-121366000D01*
G75*
G02*
X221509000Y-121516000I0J-150000D01*
G01*
X221509000Y-121816000D01*
G75*
G02*
X221359000Y-121966000I-150000J0D01*
G01*
X219709000Y-121966000D01*
G75*
G02*
X219559000Y-121816000I0J150000D01*
G01*
G37*
G36*
G01*
X219559000Y-120546000D02*
X219559000Y-120246000D01*
G75*
G02*
X219709000Y-120096000I150000J0D01*
G01*
X221359000Y-120096000D01*
G75*
G02*
X221509000Y-120246000I0J-150000D01*
G01*
X221509000Y-120546000D01*
G75*
G02*
X221359000Y-120696000I-150000J0D01*
G01*
X219709000Y-120696000D01*
G75*
G02*
X219559000Y-120546000I0J150000D01*
G01*
G37*
G36*
G01*
X219559000Y-119276000D02*
X219559000Y-118976000D01*
G75*
G02*
X219709000Y-118826000I150000J0D01*
G01*
X221359000Y-118826000D01*
G75*
G02*
X221509000Y-118976000I0J-150000D01*
G01*
X221509000Y-119276000D01*
G75*
G02*
X221359000Y-119426000I-150000J0D01*
G01*
X219709000Y-119426000D01*
G75*
G02*
X219559000Y-119276000I0J150000D01*
G01*
G37*
G36*
G01*
X219559000Y-118006000D02*
X219559000Y-117706000D01*
G75*
G02*
X219709000Y-117556000I150000J0D01*
G01*
X221359000Y-117556000D01*
G75*
G02*
X221509000Y-117706000I0J-150000D01*
G01*
X221509000Y-118006000D01*
G75*
G02*
X221359000Y-118156000I-150000J0D01*
G01*
X219709000Y-118156000D01*
G75*
G02*
X219559000Y-118006000I0J150000D01*
G01*
G37*
G36*
G01*
X219559000Y-116736000D02*
X219559000Y-116436000D01*
G75*
G02*
X219709000Y-116286000I150000J0D01*
G01*
X221359000Y-116286000D01*
G75*
G02*
X221509000Y-116436000I0J-150000D01*
G01*
X221509000Y-116736000D01*
G75*
G02*
X221359000Y-116886000I-150000J0D01*
G01*
X219709000Y-116886000D01*
G75*
G02*
X219559000Y-116736000I0J150000D01*
G01*
G37*
G36*
G01*
X219559000Y-115466000D02*
X219559000Y-115166000D01*
G75*
G02*
X219709000Y-115016000I150000J0D01*
G01*
X221359000Y-115016000D01*
G75*
G02*
X221509000Y-115166000I0J-150000D01*
G01*
X221509000Y-115466000D01*
G75*
G02*
X221359000Y-115616000I-150000J0D01*
G01*
X219709000Y-115616000D01*
G75*
G02*
X219559000Y-115466000I0J150000D01*
G01*
G37*
G04 #@! TD*
D22*
G04 #@! TO.C,D5*
X197993000Y-146898000D03*
X197043000Y-146898000D03*
X198943000Y-146898000D03*
X198943000Y-149098000D03*
X197993000Y-149098000D03*
X197043000Y-149098000D03*
G04 #@! TD*
D30*
G04 #@! TO.C,J1*
X190405000Y-149479000D03*
D31*
X191405000Y-146779000D03*
X192055000Y-146779000D03*
X192705000Y-146779000D03*
X190105000Y-146779000D03*
X190755000Y-146779000D03*
D30*
X192405000Y-149479000D03*
G04 #@! TD*
M02*
