G04 #@! TF.GenerationSoftware,KiCad,Pcbnew,(5.1.9)-1*
G04 #@! TF.CreationDate,2022-02-23T20:10:39+01:00*
G04 #@! TF.ProjectId,AnthC,416e7468-432e-46b6-9963-61645f706362,rev?*
G04 #@! TF.SameCoordinates,Original*
G04 #@! TF.FileFunction,Paste,Top*
G04 #@! TF.FilePolarity,Positive*
%FSLAX46Y46*%
G04 Gerber Fmt 4.6, Leading zero omitted, Abs format (unit mm)*
G04 Created by KiCad (PCBNEW (5.1.9)-1) date 2022-02-23 20:10:39*
%MOMM*%
%LPD*%
G01*
G04 APERTURE LIST*
%ADD10R,1.000000X1.500000*%
%ADD11R,0.800000X0.900000*%
%ADD12R,0.660000X0.500000*%
%ADD13R,0.900000X0.900000*%
%ADD14R,2.000000X0.900000*%
%ADD15R,0.900000X2.000000*%
%ADD16R,3.050000X2.750000*%
%ADD17R,2.200000X1.200000*%
%ADD18R,0.900000X0.800000*%
%ADD19R,0.480000X0.630000*%
%ADD20R,0.630000X0.450000*%
%ADD21R,2.500000X1.800000*%
%ADD22R,5.700000X1.800000*%
%ADD23R,0.800000X0.500000*%
%ADD24R,0.900000X1.200000*%
%ADD25R,1.450000X5.500000*%
%ADD26R,0.300000X1.150000*%
%ADD27R,0.600000X1.150000*%
%ADD28R,1.200000X0.900000*%
%ADD29R,2.500000X2.300000*%
G04 APERTURE END LIST*
D10*
G04 #@! TO.C,D12*
X263600000Y-99550000D03*
X260400000Y-99550000D03*
X263600000Y-104450000D03*
X260400000Y-104450000D03*
G04 #@! TD*
D11*
G04 #@! TO.C,D21*
X213750000Y-102400000D03*
X211850000Y-102400000D03*
X212800000Y-104400000D03*
G04 #@! TD*
G04 #@! TO.C,D32*
X194550000Y-102400000D03*
X192650000Y-102400000D03*
X193600000Y-104400000D03*
G04 #@! TD*
G04 #@! TO.C,D33*
X198250000Y-102400000D03*
X196350000Y-102400000D03*
X197300000Y-104400000D03*
G04 #@! TD*
G04 #@! TO.C,D17*
X209750000Y-102400000D03*
X207850000Y-102400000D03*
X208800000Y-104400000D03*
G04 #@! TD*
G04 #@! TO.C,D15*
X201850000Y-102400000D03*
X199950000Y-102400000D03*
X200900000Y-104400000D03*
G04 #@! TD*
G04 #@! TO.C,D30*
X221350000Y-145950000D03*
X223250000Y-145950000D03*
X222300000Y-143950000D03*
G04 #@! TD*
G04 #@! TO.C,D29*
X233350000Y-102400000D03*
X231450000Y-102400000D03*
X232400000Y-104400000D03*
G04 #@! TD*
G04 #@! TO.C,D28*
X225350000Y-102400000D03*
X223450000Y-102400000D03*
X224400000Y-104400000D03*
G04 #@! TD*
G04 #@! TO.C,D27*
X217550000Y-102400000D03*
X215650000Y-102400000D03*
X216600000Y-104400000D03*
G04 #@! TD*
G04 #@! TO.C,D26*
X205950000Y-102400000D03*
X204050000Y-102400000D03*
X205000000Y-104400000D03*
G04 #@! TD*
G04 #@! TO.C,D25*
X229350000Y-102400000D03*
X227450000Y-102400000D03*
X228400000Y-104400000D03*
G04 #@! TD*
G04 #@! TO.C,D22*
X221450000Y-102400000D03*
X219550000Y-102400000D03*
X220500000Y-104400000D03*
G04 #@! TD*
G04 #@! TO.C,D2*
X190850000Y-102400000D03*
X188950000Y-102400000D03*
X189900000Y-104400000D03*
G04 #@! TD*
G04 #@! TO.C,U2*
G36*
G01*
X231825000Y-137657500D02*
X231825000Y-137032500D01*
G75*
G02*
X231992500Y-136865000I167500J0D01*
G01*
X232327500Y-136865000D01*
G75*
G02*
X232495000Y-137032500I0J-167500D01*
G01*
X232495000Y-137657500D01*
G75*
G02*
X232327500Y-137825000I-167500J0D01*
G01*
X231992500Y-137825000D01*
G75*
G02*
X231825000Y-137657500I0J167500D01*
G01*
G37*
G36*
G01*
X231825000Y-136467500D02*
X231825000Y-135842500D01*
G75*
G02*
X231992500Y-135675000I167500J0D01*
G01*
X232327500Y-135675000D01*
G75*
G02*
X232495000Y-135842500I0J-167500D01*
G01*
X232495000Y-136467500D01*
G75*
G02*
X232327500Y-136635000I-167500J0D01*
G01*
X231992500Y-136635000D01*
G75*
G02*
X231825000Y-136467500I0J167500D01*
G01*
G37*
G36*
G01*
X231005000Y-137657500D02*
X231005000Y-137032500D01*
G75*
G02*
X231172500Y-136865000I167500J0D01*
G01*
X231507500Y-136865000D01*
G75*
G02*
X231675000Y-137032500I0J-167500D01*
G01*
X231675000Y-137657500D01*
G75*
G02*
X231507500Y-137825000I-167500J0D01*
G01*
X231172500Y-137825000D01*
G75*
G02*
X231005000Y-137657500I0J167500D01*
G01*
G37*
G36*
G01*
X231005000Y-136467500D02*
X231005000Y-135842500D01*
G75*
G02*
X231172500Y-135675000I167500J0D01*
G01*
X231507500Y-135675000D01*
G75*
G02*
X231675000Y-135842500I0J-167500D01*
G01*
X231675000Y-136467500D01*
G75*
G02*
X231507500Y-136635000I-167500J0D01*
G01*
X231172500Y-136635000D01*
G75*
G02*
X231005000Y-136467500I0J167500D01*
G01*
G37*
G36*
G01*
X232775000Y-135812500D02*
X232775000Y-135687500D01*
G75*
G02*
X232837500Y-135625000I62500J0D01*
G01*
X233562500Y-135625000D01*
G75*
G02*
X233625000Y-135687500I0J-62500D01*
G01*
X233625000Y-135812500D01*
G75*
G02*
X233562500Y-135875000I-62500J0D01*
G01*
X232837500Y-135875000D01*
G75*
G02*
X232775000Y-135812500I0J62500D01*
G01*
G37*
G36*
G01*
X232775000Y-136312500D02*
X232775000Y-136187500D01*
G75*
G02*
X232837500Y-136125000I62500J0D01*
G01*
X233562500Y-136125000D01*
G75*
G02*
X233625000Y-136187500I0J-62500D01*
G01*
X233625000Y-136312500D01*
G75*
G02*
X233562500Y-136375000I-62500J0D01*
G01*
X232837500Y-136375000D01*
G75*
G02*
X232775000Y-136312500I0J62500D01*
G01*
G37*
G36*
G01*
X232775000Y-136812500D02*
X232775000Y-136687500D01*
G75*
G02*
X232837500Y-136625000I62500J0D01*
G01*
X233562500Y-136625000D01*
G75*
G02*
X233625000Y-136687500I0J-62500D01*
G01*
X233625000Y-136812500D01*
G75*
G02*
X233562500Y-136875000I-62500J0D01*
G01*
X232837500Y-136875000D01*
G75*
G02*
X232775000Y-136812500I0J62500D01*
G01*
G37*
G36*
G01*
X232775000Y-137312500D02*
X232775000Y-137187500D01*
G75*
G02*
X232837500Y-137125000I62500J0D01*
G01*
X233562500Y-137125000D01*
G75*
G02*
X233625000Y-137187500I0J-62500D01*
G01*
X233625000Y-137312500D01*
G75*
G02*
X233562500Y-137375000I-62500J0D01*
G01*
X232837500Y-137375000D01*
G75*
G02*
X232775000Y-137312500I0J62500D01*
G01*
G37*
G36*
G01*
X232775000Y-137812500D02*
X232775000Y-137687500D01*
G75*
G02*
X232837500Y-137625000I62500J0D01*
G01*
X233562500Y-137625000D01*
G75*
G02*
X233625000Y-137687500I0J-62500D01*
G01*
X233625000Y-137812500D01*
G75*
G02*
X233562500Y-137875000I-62500J0D01*
G01*
X232837500Y-137875000D01*
G75*
G02*
X232775000Y-137812500I0J62500D01*
G01*
G37*
G36*
G01*
X229875000Y-137812500D02*
X229875000Y-137687500D01*
G75*
G02*
X229937500Y-137625000I62500J0D01*
G01*
X230662500Y-137625000D01*
G75*
G02*
X230725000Y-137687500I0J-62500D01*
G01*
X230725000Y-137812500D01*
G75*
G02*
X230662500Y-137875000I-62500J0D01*
G01*
X229937500Y-137875000D01*
G75*
G02*
X229875000Y-137812500I0J62500D01*
G01*
G37*
G36*
G01*
X229875000Y-137312500D02*
X229875000Y-137187500D01*
G75*
G02*
X229937500Y-137125000I62500J0D01*
G01*
X230662500Y-137125000D01*
G75*
G02*
X230725000Y-137187500I0J-62500D01*
G01*
X230725000Y-137312500D01*
G75*
G02*
X230662500Y-137375000I-62500J0D01*
G01*
X229937500Y-137375000D01*
G75*
G02*
X229875000Y-137312500I0J62500D01*
G01*
G37*
G36*
G01*
X229875000Y-136812500D02*
X229875000Y-136687500D01*
G75*
G02*
X229937500Y-136625000I62500J0D01*
G01*
X230662500Y-136625000D01*
G75*
G02*
X230725000Y-136687500I0J-62500D01*
G01*
X230725000Y-136812500D01*
G75*
G02*
X230662500Y-136875000I-62500J0D01*
G01*
X229937500Y-136875000D01*
G75*
G02*
X229875000Y-136812500I0J62500D01*
G01*
G37*
G36*
G01*
X229875000Y-136312500D02*
X229875000Y-136187500D01*
G75*
G02*
X229937500Y-136125000I62500J0D01*
G01*
X230662500Y-136125000D01*
G75*
G02*
X230725000Y-136187500I0J-62500D01*
G01*
X230725000Y-136312500D01*
G75*
G02*
X230662500Y-136375000I-62500J0D01*
G01*
X229937500Y-136375000D01*
G75*
G02*
X229875000Y-136312500I0J62500D01*
G01*
G37*
G36*
G01*
X229875000Y-135812500D02*
X229875000Y-135687500D01*
G75*
G02*
X229937500Y-135625000I62500J0D01*
G01*
X230662500Y-135625000D01*
G75*
G02*
X230725000Y-135687500I0J-62500D01*
G01*
X230725000Y-135812500D01*
G75*
G02*
X230662500Y-135875000I-62500J0D01*
G01*
X229937500Y-135875000D01*
G75*
G02*
X229875000Y-135812500I0J62500D01*
G01*
G37*
G04 #@! TD*
D12*
G04 #@! TO.C,Q7*
X213480000Y-120550000D03*
X214620000Y-120050000D03*
X213480000Y-119550000D03*
G04 #@! TD*
G04 #@! TO.C,Q5*
X214620000Y-126700000D03*
X213480000Y-127200000D03*
X214620000Y-127700000D03*
G04 #@! TD*
G04 #@! TO.C,Q2*
X214620000Y-116050000D03*
X213480000Y-116550000D03*
X214620000Y-117050000D03*
G04 #@! TD*
G04 #@! TO.C,Q1*
X214770000Y-122900000D03*
X213630000Y-123400000D03*
X214770000Y-123900000D03*
G04 #@! TD*
G04 #@! TO.C,R2*
G36*
G01*
X260396500Y-110610000D02*
X260396500Y-110790000D01*
G75*
G02*
X260306500Y-110880000I-90000J0D01*
G01*
X260028500Y-110880000D01*
G75*
G02*
X259938500Y-110790000I0J90000D01*
G01*
X259938500Y-110610000D01*
G75*
G02*
X260028500Y-110520000I90000J0D01*
G01*
X260306500Y-110520000D01*
G75*
G02*
X260396500Y-110610000I0J-90000D01*
G01*
G37*
G36*
G01*
X261261500Y-110610000D02*
X261261500Y-110790000D01*
G75*
G02*
X261171500Y-110880000I-90000J0D01*
G01*
X260893500Y-110880000D01*
G75*
G02*
X260803500Y-110790000I0J90000D01*
G01*
X260803500Y-110610000D01*
G75*
G02*
X260893500Y-110520000I90000J0D01*
G01*
X261171500Y-110520000D01*
G75*
G02*
X261261500Y-110610000I0J-90000D01*
G01*
G37*
G04 #@! TD*
G04 #@! TO.C,U10*
G36*
G01*
X236340000Y-121260000D02*
X236740000Y-121260000D01*
G75*
G02*
X236940000Y-121460000I0J-200000D01*
G01*
X236940000Y-121860000D01*
G75*
G02*
X236740000Y-122060000I-200000J0D01*
G01*
X236340000Y-122060000D01*
G75*
G02*
X236140000Y-121860000I0J200000D01*
G01*
X236140000Y-121460000D01*
G75*
G02*
X236340000Y-121260000I200000J0D01*
G01*
G37*
G36*
G01*
X237260000Y-121260000D02*
X237660000Y-121260000D01*
G75*
G02*
X237860000Y-121460000I0J-200000D01*
G01*
X237860000Y-121860000D01*
G75*
G02*
X237660000Y-122060000I-200000J0D01*
G01*
X237260000Y-122060000D01*
G75*
G02*
X237060000Y-121860000I0J200000D01*
G01*
X237060000Y-121460000D01*
G75*
G02*
X237260000Y-121260000I200000J0D01*
G01*
G37*
G36*
G01*
X236340000Y-120340000D02*
X236740000Y-120340000D01*
G75*
G02*
X236940000Y-120540000I0J-200000D01*
G01*
X236940000Y-120940000D01*
G75*
G02*
X236740000Y-121140000I-200000J0D01*
G01*
X236340000Y-121140000D01*
G75*
G02*
X236140000Y-120940000I0J200000D01*
G01*
X236140000Y-120540000D01*
G75*
G02*
X236340000Y-120340000I200000J0D01*
G01*
G37*
G36*
G01*
X237260000Y-120340000D02*
X237660000Y-120340000D01*
G75*
G02*
X237860000Y-120540000I0J-200000D01*
G01*
X237860000Y-120940000D01*
G75*
G02*
X237660000Y-121140000I-200000J0D01*
G01*
X237260000Y-121140000D01*
G75*
G02*
X237060000Y-120940000I0J200000D01*
G01*
X237060000Y-120540000D01*
G75*
G02*
X237260000Y-120340000I200000J0D01*
G01*
G37*
G36*
G01*
X238175000Y-120300000D02*
X238800000Y-120300000D01*
G75*
G02*
X238850000Y-120350000I0J-50000D01*
G01*
X238850000Y-120450000D01*
G75*
G02*
X238800000Y-120500000I-50000J0D01*
G01*
X238175000Y-120500000D01*
G75*
G02*
X238125000Y-120450000I0J50000D01*
G01*
X238125000Y-120350000D01*
G75*
G02*
X238175000Y-120300000I50000J0D01*
G01*
G37*
G36*
G01*
X238175000Y-120700000D02*
X238800000Y-120700000D01*
G75*
G02*
X238850000Y-120750000I0J-50000D01*
G01*
X238850000Y-120850000D01*
G75*
G02*
X238800000Y-120900000I-50000J0D01*
G01*
X238175000Y-120900000D01*
G75*
G02*
X238125000Y-120850000I0J50000D01*
G01*
X238125000Y-120750000D01*
G75*
G02*
X238175000Y-120700000I50000J0D01*
G01*
G37*
G36*
G01*
X238175000Y-121100000D02*
X238800000Y-121100000D01*
G75*
G02*
X238850000Y-121150000I0J-50000D01*
G01*
X238850000Y-121250000D01*
G75*
G02*
X238800000Y-121300000I-50000J0D01*
G01*
X238175000Y-121300000D01*
G75*
G02*
X238125000Y-121250000I0J50000D01*
G01*
X238125000Y-121150000D01*
G75*
G02*
X238175000Y-121100000I50000J0D01*
G01*
G37*
G36*
G01*
X238175000Y-121500000D02*
X238800000Y-121500000D01*
G75*
G02*
X238850000Y-121550000I0J-50000D01*
G01*
X238850000Y-121650000D01*
G75*
G02*
X238800000Y-121700000I-50000J0D01*
G01*
X238175000Y-121700000D01*
G75*
G02*
X238125000Y-121650000I0J50000D01*
G01*
X238125000Y-121550000D01*
G75*
G02*
X238175000Y-121500000I50000J0D01*
G01*
G37*
G36*
G01*
X238175000Y-121900000D02*
X238800000Y-121900000D01*
G75*
G02*
X238850000Y-121950000I0J-50000D01*
G01*
X238850000Y-122050000D01*
G75*
G02*
X238800000Y-122100000I-50000J0D01*
G01*
X238175000Y-122100000D01*
G75*
G02*
X238125000Y-122050000I0J50000D01*
G01*
X238125000Y-121950000D01*
G75*
G02*
X238175000Y-121900000I50000J0D01*
G01*
G37*
G36*
G01*
X237750000Y-122325000D02*
X237850000Y-122325000D01*
G75*
G02*
X237900000Y-122375000I0J-50000D01*
G01*
X237900000Y-123000000D01*
G75*
G02*
X237850000Y-123050000I-50000J0D01*
G01*
X237750000Y-123050000D01*
G75*
G02*
X237700000Y-123000000I0J50000D01*
G01*
X237700000Y-122375000D01*
G75*
G02*
X237750000Y-122325000I50000J0D01*
G01*
G37*
G36*
G01*
X237350000Y-122325000D02*
X237450000Y-122325000D01*
G75*
G02*
X237500000Y-122375000I0J-50000D01*
G01*
X237500000Y-123000000D01*
G75*
G02*
X237450000Y-123050000I-50000J0D01*
G01*
X237350000Y-123050000D01*
G75*
G02*
X237300000Y-123000000I0J50000D01*
G01*
X237300000Y-122375000D01*
G75*
G02*
X237350000Y-122325000I50000J0D01*
G01*
G37*
G36*
G01*
X236950000Y-122325000D02*
X237050000Y-122325000D01*
G75*
G02*
X237100000Y-122375000I0J-50000D01*
G01*
X237100000Y-123000000D01*
G75*
G02*
X237050000Y-123050000I-50000J0D01*
G01*
X236950000Y-123050000D01*
G75*
G02*
X236900000Y-123000000I0J50000D01*
G01*
X236900000Y-122375000D01*
G75*
G02*
X236950000Y-122325000I50000J0D01*
G01*
G37*
G36*
G01*
X236550000Y-122325000D02*
X236650000Y-122325000D01*
G75*
G02*
X236700000Y-122375000I0J-50000D01*
G01*
X236700000Y-123000000D01*
G75*
G02*
X236650000Y-123050000I-50000J0D01*
G01*
X236550000Y-123050000D01*
G75*
G02*
X236500000Y-123000000I0J50000D01*
G01*
X236500000Y-122375000D01*
G75*
G02*
X236550000Y-122325000I50000J0D01*
G01*
G37*
G36*
G01*
X236150000Y-122325000D02*
X236250000Y-122325000D01*
G75*
G02*
X236300000Y-122375000I0J-50000D01*
G01*
X236300000Y-123000000D01*
G75*
G02*
X236250000Y-123050000I-50000J0D01*
G01*
X236150000Y-123050000D01*
G75*
G02*
X236100000Y-123000000I0J50000D01*
G01*
X236100000Y-122375000D01*
G75*
G02*
X236150000Y-122325000I50000J0D01*
G01*
G37*
G36*
G01*
X235200000Y-121900000D02*
X235825000Y-121900000D01*
G75*
G02*
X235875000Y-121950000I0J-50000D01*
G01*
X235875000Y-122050000D01*
G75*
G02*
X235825000Y-122100000I-50000J0D01*
G01*
X235200000Y-122100000D01*
G75*
G02*
X235150000Y-122050000I0J50000D01*
G01*
X235150000Y-121950000D01*
G75*
G02*
X235200000Y-121900000I50000J0D01*
G01*
G37*
G36*
G01*
X235200000Y-121500000D02*
X235825000Y-121500000D01*
G75*
G02*
X235875000Y-121550000I0J-50000D01*
G01*
X235875000Y-121650000D01*
G75*
G02*
X235825000Y-121700000I-50000J0D01*
G01*
X235200000Y-121700000D01*
G75*
G02*
X235150000Y-121650000I0J50000D01*
G01*
X235150000Y-121550000D01*
G75*
G02*
X235200000Y-121500000I50000J0D01*
G01*
G37*
G36*
G01*
X235200000Y-121100000D02*
X235825000Y-121100000D01*
G75*
G02*
X235875000Y-121150000I0J-50000D01*
G01*
X235875000Y-121250000D01*
G75*
G02*
X235825000Y-121300000I-50000J0D01*
G01*
X235200000Y-121300000D01*
G75*
G02*
X235150000Y-121250000I0J50000D01*
G01*
X235150000Y-121150000D01*
G75*
G02*
X235200000Y-121100000I50000J0D01*
G01*
G37*
G36*
G01*
X235200000Y-120700000D02*
X235825000Y-120700000D01*
G75*
G02*
X235875000Y-120750000I0J-50000D01*
G01*
X235875000Y-120850000D01*
G75*
G02*
X235825000Y-120900000I-50000J0D01*
G01*
X235200000Y-120900000D01*
G75*
G02*
X235150000Y-120850000I0J50000D01*
G01*
X235150000Y-120750000D01*
G75*
G02*
X235200000Y-120700000I50000J0D01*
G01*
G37*
G36*
G01*
X235200000Y-120300000D02*
X235825000Y-120300000D01*
G75*
G02*
X235875000Y-120350000I0J-50000D01*
G01*
X235875000Y-120450000D01*
G75*
G02*
X235825000Y-120500000I-50000J0D01*
G01*
X235200000Y-120500000D01*
G75*
G02*
X235150000Y-120450000I0J50000D01*
G01*
X235150000Y-120350000D01*
G75*
G02*
X235200000Y-120300000I50000J0D01*
G01*
G37*
G36*
G01*
X236150000Y-119350000D02*
X236250000Y-119350000D01*
G75*
G02*
X236300000Y-119400000I0J-50000D01*
G01*
X236300000Y-120025000D01*
G75*
G02*
X236250000Y-120075000I-50000J0D01*
G01*
X236150000Y-120075000D01*
G75*
G02*
X236100000Y-120025000I0J50000D01*
G01*
X236100000Y-119400000D01*
G75*
G02*
X236150000Y-119350000I50000J0D01*
G01*
G37*
G36*
G01*
X236550000Y-119350000D02*
X236650000Y-119350000D01*
G75*
G02*
X236700000Y-119400000I0J-50000D01*
G01*
X236700000Y-120025000D01*
G75*
G02*
X236650000Y-120075000I-50000J0D01*
G01*
X236550000Y-120075000D01*
G75*
G02*
X236500000Y-120025000I0J50000D01*
G01*
X236500000Y-119400000D01*
G75*
G02*
X236550000Y-119350000I50000J0D01*
G01*
G37*
G36*
G01*
X236950000Y-119350000D02*
X237050000Y-119350000D01*
G75*
G02*
X237100000Y-119400000I0J-50000D01*
G01*
X237100000Y-120025000D01*
G75*
G02*
X237050000Y-120075000I-50000J0D01*
G01*
X236950000Y-120075000D01*
G75*
G02*
X236900000Y-120025000I0J50000D01*
G01*
X236900000Y-119400000D01*
G75*
G02*
X236950000Y-119350000I50000J0D01*
G01*
G37*
G36*
G01*
X237350000Y-119350000D02*
X237450000Y-119350000D01*
G75*
G02*
X237500000Y-119400000I0J-50000D01*
G01*
X237500000Y-120025000D01*
G75*
G02*
X237450000Y-120075000I-50000J0D01*
G01*
X237350000Y-120075000D01*
G75*
G02*
X237300000Y-120025000I0J50000D01*
G01*
X237300000Y-119400000D01*
G75*
G02*
X237350000Y-119350000I50000J0D01*
G01*
G37*
G36*
G01*
X237750000Y-119350000D02*
X237850000Y-119350000D01*
G75*
G02*
X237900000Y-119400000I0J-50000D01*
G01*
X237900000Y-120025000D01*
G75*
G02*
X237850000Y-120075000I-50000J0D01*
G01*
X237750000Y-120075000D01*
G75*
G02*
X237700000Y-120025000I0J50000D01*
G01*
X237700000Y-119400000D01*
G75*
G02*
X237750000Y-119350000I50000J0D01*
G01*
G37*
G04 #@! TD*
G04 #@! TO.C,R83*
G36*
G01*
X240275000Y-122375000D02*
X239725000Y-122375000D01*
G75*
G02*
X239525000Y-122175000I0J200000D01*
G01*
X239525000Y-121775000D01*
G75*
G02*
X239725000Y-121575000I200000J0D01*
G01*
X240275000Y-121575000D01*
G75*
G02*
X240475000Y-121775000I0J-200000D01*
G01*
X240475000Y-122175000D01*
G75*
G02*
X240275000Y-122375000I-200000J0D01*
G01*
G37*
G36*
G01*
X240275000Y-124025000D02*
X239725000Y-124025000D01*
G75*
G02*
X239525000Y-123825000I0J200000D01*
G01*
X239525000Y-123425000D01*
G75*
G02*
X239725000Y-123225000I200000J0D01*
G01*
X240275000Y-123225000D01*
G75*
G02*
X240475000Y-123425000I0J-200000D01*
G01*
X240475000Y-123825000D01*
G75*
G02*
X240275000Y-124025000I-200000J0D01*
G01*
G37*
G04 #@! TD*
D13*
G04 #@! TO.C,U6*
X196510000Y-122800000D03*
X196510000Y-121400000D03*
X196510000Y-120000000D03*
X193710000Y-122800000D03*
X193710000Y-121400000D03*
X193710000Y-120000000D03*
X195110000Y-122800000D03*
X195110000Y-120000000D03*
D14*
X205400000Y-112915000D03*
X205400000Y-114185000D03*
D15*
X187390000Y-111150000D03*
X188660000Y-111150000D03*
X189930000Y-111150000D03*
X191200000Y-111150000D03*
X192470000Y-111150000D03*
X193740000Y-111150000D03*
X195010000Y-111150000D03*
X196280000Y-111150000D03*
X197550000Y-111150000D03*
X198820000Y-111150000D03*
X200090000Y-111150000D03*
X201360000Y-111150000D03*
X202630000Y-111150000D03*
X203900000Y-111150000D03*
D14*
X205400000Y-115455000D03*
X205400000Y-116725000D03*
X205400000Y-117995000D03*
X205400000Y-119265000D03*
X205400000Y-120535000D03*
X205400000Y-121805000D03*
X205400000Y-123075000D03*
X205400000Y-124345000D03*
X205400000Y-125615000D03*
X205400000Y-126885000D03*
D15*
X203900000Y-128650000D03*
X202630000Y-128650000D03*
X201360000Y-128650000D03*
X200090000Y-128650000D03*
X198820000Y-128650000D03*
X197550000Y-128650000D03*
X196280000Y-128650000D03*
X195010000Y-128650000D03*
X193740000Y-128650000D03*
X192470000Y-128650000D03*
X191200000Y-128650000D03*
X189930000Y-128650000D03*
X188660000Y-128650000D03*
X187390000Y-128650000D03*
D13*
X195110000Y-121400000D03*
G04 #@! TD*
G04 #@! TO.C,C9*
G36*
G01*
X256750001Y-105200000D02*
X255449999Y-105200000D01*
G75*
G02*
X255200000Y-104950001I0J249999D01*
G01*
X255200000Y-104299999D01*
G75*
G02*
X255449999Y-104050000I249999J0D01*
G01*
X256750001Y-104050000D01*
G75*
G02*
X257000000Y-104299999I0J-249999D01*
G01*
X257000000Y-104950001D01*
G75*
G02*
X256750001Y-105200000I-249999J0D01*
G01*
G37*
G36*
G01*
X256750001Y-108150000D02*
X255449999Y-108150000D01*
G75*
G02*
X255200000Y-107900001I0J249999D01*
G01*
X255200000Y-107249999D01*
G75*
G02*
X255449999Y-107000000I249999J0D01*
G01*
X256750001Y-107000000D01*
G75*
G02*
X257000000Y-107249999I0J-249999D01*
G01*
X257000000Y-107900001D01*
G75*
G02*
X256750001Y-108150000I-249999J0D01*
G01*
G37*
G04 #@! TD*
G04 #@! TO.C,R30*
G36*
G01*
X236075000Y-134225000D02*
X236075000Y-134775000D01*
G75*
G02*
X235875000Y-134975000I-200000J0D01*
G01*
X235475000Y-134975000D01*
G75*
G02*
X235275000Y-134775000I0J200000D01*
G01*
X235275000Y-134225000D01*
G75*
G02*
X235475000Y-134025000I200000J0D01*
G01*
X235875000Y-134025000D01*
G75*
G02*
X236075000Y-134225000I0J-200000D01*
G01*
G37*
G36*
G01*
X237725000Y-134225000D02*
X237725000Y-134775000D01*
G75*
G02*
X237525000Y-134975000I-200000J0D01*
G01*
X237125000Y-134975000D01*
G75*
G02*
X236925000Y-134775000I0J200000D01*
G01*
X236925000Y-134225000D01*
G75*
G02*
X237125000Y-134025000I200000J0D01*
G01*
X237525000Y-134025000D01*
G75*
G02*
X237725000Y-134225000I0J-200000D01*
G01*
G37*
G04 #@! TD*
G04 #@! TO.C,C20*
G36*
G01*
X241675000Y-105750000D02*
X241675000Y-106250000D01*
G75*
G02*
X241450000Y-106475000I-225000J0D01*
G01*
X241000000Y-106475000D01*
G75*
G02*
X240775000Y-106250000I0J225000D01*
G01*
X240775000Y-105750000D01*
G75*
G02*
X241000000Y-105525000I225000J0D01*
G01*
X241450000Y-105525000D01*
G75*
G02*
X241675000Y-105750000I0J-225000D01*
G01*
G37*
G36*
G01*
X243225000Y-105750000D02*
X243225000Y-106250000D01*
G75*
G02*
X243000000Y-106475000I-225000J0D01*
G01*
X242550000Y-106475000D01*
G75*
G02*
X242325000Y-106250000I0J225000D01*
G01*
X242325000Y-105750000D01*
G75*
G02*
X242550000Y-105525000I225000J0D01*
G01*
X243000000Y-105525000D01*
G75*
G02*
X243225000Y-105750000I0J-225000D01*
G01*
G37*
G04 #@! TD*
D16*
G04 #@! TO.C,U3*
X246425000Y-111925000D03*
X249775000Y-108875000D03*
X246425000Y-108875000D03*
X249775000Y-111925000D03*
D17*
X241800000Y-112680000D03*
X241800000Y-108120000D03*
G04 #@! TD*
D18*
G04 #@! TO.C,Q6*
X237700000Y-140000000D03*
X235700000Y-140950000D03*
X235700000Y-139050000D03*
G04 #@! TD*
D19*
G04 #@! TO.C,U12*
X242300000Y-138375000D03*
X242300000Y-139425000D03*
X243100000Y-138375000D03*
X243100000Y-139425000D03*
D20*
X244040000Y-137950000D03*
X244040000Y-138900000D03*
X244040000Y-139850000D03*
X241360000Y-139850000D03*
X241360000Y-138900000D03*
G36*
G01*
X241045000Y-138062500D02*
X241045000Y-137837500D01*
G75*
G02*
X241157500Y-137725000I112500J0D01*
G01*
X241562500Y-137725000D01*
G75*
G02*
X241675000Y-137837500I0J-112500D01*
G01*
X241675000Y-138062500D01*
G75*
G02*
X241562500Y-138175000I-112500J0D01*
G01*
X241157500Y-138175000D01*
G75*
G02*
X241045000Y-138062500I0J112500D01*
G01*
G37*
G04 #@! TD*
G04 #@! TO.C,R37*
G36*
G01*
X243725000Y-141775000D02*
X243725000Y-141225000D01*
G75*
G02*
X243925000Y-141025000I200000J0D01*
G01*
X244325000Y-141025000D01*
G75*
G02*
X244525000Y-141225000I0J-200000D01*
G01*
X244525000Y-141775000D01*
G75*
G02*
X244325000Y-141975000I-200000J0D01*
G01*
X243925000Y-141975000D01*
G75*
G02*
X243725000Y-141775000I0J200000D01*
G01*
G37*
G36*
G01*
X242075000Y-141775000D02*
X242075000Y-141225000D01*
G75*
G02*
X242275000Y-141025000I200000J0D01*
G01*
X242675000Y-141025000D01*
G75*
G02*
X242875000Y-141225000I0J-200000D01*
G01*
X242875000Y-141775000D01*
G75*
G02*
X242675000Y-141975000I-200000J0D01*
G01*
X242275000Y-141975000D01*
G75*
G02*
X242075000Y-141775000I0J200000D01*
G01*
G37*
G04 #@! TD*
D21*
G04 #@! TO.C,D7*
X247700000Y-135200000D03*
X243700000Y-135200000D03*
G04 #@! TD*
G04 #@! TO.C,L2*
G36*
G01*
X250300000Y-143500000D02*
X245500000Y-143500000D01*
G75*
G02*
X245050000Y-143050000I0J450000D01*
G01*
X245050000Y-142150000D01*
G75*
G02*
X245500000Y-141700000I450000J0D01*
G01*
X250300000Y-141700000D01*
G75*
G02*
X250750000Y-142150000I0J-450000D01*
G01*
X250750000Y-143050000D01*
G75*
G02*
X250300000Y-143500000I-450000J0D01*
G01*
G37*
D22*
X247900000Y-138000000D03*
G04 #@! TD*
D11*
G04 #@! TO.C,Q4*
X210550000Y-123950000D03*
X211500000Y-125950000D03*
X209600000Y-125950000D03*
G04 #@! TD*
G04 #@! TO.C,Q3*
X210550000Y-133450000D03*
X209600000Y-131450000D03*
X211500000Y-131450000D03*
G04 #@! TD*
G04 #@! TO.C,C43*
G36*
G01*
X240100001Y-136250000D02*
X238799999Y-136250000D01*
G75*
G02*
X238550000Y-136000001I0J249999D01*
G01*
X238550000Y-135349999D01*
G75*
G02*
X238799999Y-135100000I249999J0D01*
G01*
X240100001Y-135100000D01*
G75*
G02*
X240350000Y-135349999I0J-249999D01*
G01*
X240350000Y-136000001D01*
G75*
G02*
X240100001Y-136250000I-249999J0D01*
G01*
G37*
G36*
G01*
X240100001Y-139200000D02*
X238799999Y-139200000D01*
G75*
G02*
X238550000Y-138950001I0J249999D01*
G01*
X238550000Y-138299999D01*
G75*
G02*
X238799999Y-138050000I249999J0D01*
G01*
X240100001Y-138050000D01*
G75*
G02*
X240350000Y-138299999I0J-249999D01*
G01*
X240350000Y-138950001D01*
G75*
G02*
X240100001Y-139200000I-249999J0D01*
G01*
G37*
G04 #@! TD*
G04 #@! TO.C,U11*
G36*
G01*
X224250000Y-106905000D02*
X224250000Y-106605000D01*
G75*
G02*
X224400000Y-106455000I150000J0D01*
G01*
X225850000Y-106455000D01*
G75*
G02*
X226000000Y-106605000I0J-150000D01*
G01*
X226000000Y-106905000D01*
G75*
G02*
X225850000Y-107055000I-150000J0D01*
G01*
X224400000Y-107055000D01*
G75*
G02*
X224250000Y-106905000I0J150000D01*
G01*
G37*
G36*
G01*
X224250000Y-108175000D02*
X224250000Y-107875000D01*
G75*
G02*
X224400000Y-107725000I150000J0D01*
G01*
X225850000Y-107725000D01*
G75*
G02*
X226000000Y-107875000I0J-150000D01*
G01*
X226000000Y-108175000D01*
G75*
G02*
X225850000Y-108325000I-150000J0D01*
G01*
X224400000Y-108325000D01*
G75*
G02*
X224250000Y-108175000I0J150000D01*
G01*
G37*
G36*
G01*
X224250000Y-109445000D02*
X224250000Y-109145000D01*
G75*
G02*
X224400000Y-108995000I150000J0D01*
G01*
X225850000Y-108995000D01*
G75*
G02*
X226000000Y-109145000I0J-150000D01*
G01*
X226000000Y-109445000D01*
G75*
G02*
X225850000Y-109595000I-150000J0D01*
G01*
X224400000Y-109595000D01*
G75*
G02*
X224250000Y-109445000I0J150000D01*
G01*
G37*
G36*
G01*
X224250000Y-110715000D02*
X224250000Y-110415000D01*
G75*
G02*
X224400000Y-110265000I150000J0D01*
G01*
X225850000Y-110265000D01*
G75*
G02*
X226000000Y-110415000I0J-150000D01*
G01*
X226000000Y-110715000D01*
G75*
G02*
X225850000Y-110865000I-150000J0D01*
G01*
X224400000Y-110865000D01*
G75*
G02*
X224250000Y-110715000I0J150000D01*
G01*
G37*
G36*
G01*
X224250000Y-111985000D02*
X224250000Y-111685000D01*
G75*
G02*
X224400000Y-111535000I150000J0D01*
G01*
X225850000Y-111535000D01*
G75*
G02*
X226000000Y-111685000I0J-150000D01*
G01*
X226000000Y-111985000D01*
G75*
G02*
X225850000Y-112135000I-150000J0D01*
G01*
X224400000Y-112135000D01*
G75*
G02*
X224250000Y-111985000I0J150000D01*
G01*
G37*
G36*
G01*
X224250000Y-113255000D02*
X224250000Y-112955000D01*
G75*
G02*
X224400000Y-112805000I150000J0D01*
G01*
X225850000Y-112805000D01*
G75*
G02*
X226000000Y-112955000I0J-150000D01*
G01*
X226000000Y-113255000D01*
G75*
G02*
X225850000Y-113405000I-150000J0D01*
G01*
X224400000Y-113405000D01*
G75*
G02*
X224250000Y-113255000I0J150000D01*
G01*
G37*
G36*
G01*
X224250000Y-114525000D02*
X224250000Y-114225000D01*
G75*
G02*
X224400000Y-114075000I150000J0D01*
G01*
X225850000Y-114075000D01*
G75*
G02*
X226000000Y-114225000I0J-150000D01*
G01*
X226000000Y-114525000D01*
G75*
G02*
X225850000Y-114675000I-150000J0D01*
G01*
X224400000Y-114675000D01*
G75*
G02*
X224250000Y-114525000I0J150000D01*
G01*
G37*
G36*
G01*
X224250000Y-115795000D02*
X224250000Y-115495000D01*
G75*
G02*
X224400000Y-115345000I150000J0D01*
G01*
X225850000Y-115345000D01*
G75*
G02*
X226000000Y-115495000I0J-150000D01*
G01*
X226000000Y-115795000D01*
G75*
G02*
X225850000Y-115945000I-150000J0D01*
G01*
X224400000Y-115945000D01*
G75*
G02*
X224250000Y-115795000I0J150000D01*
G01*
G37*
G36*
G01*
X219100000Y-115795000D02*
X219100000Y-115495000D01*
G75*
G02*
X219250000Y-115345000I150000J0D01*
G01*
X220700000Y-115345000D01*
G75*
G02*
X220850000Y-115495000I0J-150000D01*
G01*
X220850000Y-115795000D01*
G75*
G02*
X220700000Y-115945000I-150000J0D01*
G01*
X219250000Y-115945000D01*
G75*
G02*
X219100000Y-115795000I0J150000D01*
G01*
G37*
G36*
G01*
X219100000Y-114525000D02*
X219100000Y-114225000D01*
G75*
G02*
X219250000Y-114075000I150000J0D01*
G01*
X220700000Y-114075000D01*
G75*
G02*
X220850000Y-114225000I0J-150000D01*
G01*
X220850000Y-114525000D01*
G75*
G02*
X220700000Y-114675000I-150000J0D01*
G01*
X219250000Y-114675000D01*
G75*
G02*
X219100000Y-114525000I0J150000D01*
G01*
G37*
G36*
G01*
X219100000Y-113255000D02*
X219100000Y-112955000D01*
G75*
G02*
X219250000Y-112805000I150000J0D01*
G01*
X220700000Y-112805000D01*
G75*
G02*
X220850000Y-112955000I0J-150000D01*
G01*
X220850000Y-113255000D01*
G75*
G02*
X220700000Y-113405000I-150000J0D01*
G01*
X219250000Y-113405000D01*
G75*
G02*
X219100000Y-113255000I0J150000D01*
G01*
G37*
G36*
G01*
X219100000Y-111985000D02*
X219100000Y-111685000D01*
G75*
G02*
X219250000Y-111535000I150000J0D01*
G01*
X220700000Y-111535000D01*
G75*
G02*
X220850000Y-111685000I0J-150000D01*
G01*
X220850000Y-111985000D01*
G75*
G02*
X220700000Y-112135000I-150000J0D01*
G01*
X219250000Y-112135000D01*
G75*
G02*
X219100000Y-111985000I0J150000D01*
G01*
G37*
G36*
G01*
X219100000Y-110715000D02*
X219100000Y-110415000D01*
G75*
G02*
X219250000Y-110265000I150000J0D01*
G01*
X220700000Y-110265000D01*
G75*
G02*
X220850000Y-110415000I0J-150000D01*
G01*
X220850000Y-110715000D01*
G75*
G02*
X220700000Y-110865000I-150000J0D01*
G01*
X219250000Y-110865000D01*
G75*
G02*
X219100000Y-110715000I0J150000D01*
G01*
G37*
G36*
G01*
X219100000Y-109445000D02*
X219100000Y-109145000D01*
G75*
G02*
X219250000Y-108995000I150000J0D01*
G01*
X220700000Y-108995000D01*
G75*
G02*
X220850000Y-109145000I0J-150000D01*
G01*
X220850000Y-109445000D01*
G75*
G02*
X220700000Y-109595000I-150000J0D01*
G01*
X219250000Y-109595000D01*
G75*
G02*
X219100000Y-109445000I0J150000D01*
G01*
G37*
G36*
G01*
X219100000Y-108175000D02*
X219100000Y-107875000D01*
G75*
G02*
X219250000Y-107725000I150000J0D01*
G01*
X220700000Y-107725000D01*
G75*
G02*
X220850000Y-107875000I0J-150000D01*
G01*
X220850000Y-108175000D01*
G75*
G02*
X220700000Y-108325000I-150000J0D01*
G01*
X219250000Y-108325000D01*
G75*
G02*
X219100000Y-108175000I0J150000D01*
G01*
G37*
G36*
G01*
X219100000Y-106905000D02*
X219100000Y-106605000D01*
G75*
G02*
X219250000Y-106455000I150000J0D01*
G01*
X220700000Y-106455000D01*
G75*
G02*
X220850000Y-106605000I0J-150000D01*
G01*
X220850000Y-106905000D01*
G75*
G02*
X220700000Y-107055000I-150000J0D01*
G01*
X219250000Y-107055000D01*
G75*
G02*
X219100000Y-106905000I0J150000D01*
G01*
G37*
G04 #@! TD*
G04 #@! TO.C,D5*
G36*
G01*
X193525000Y-140125000D02*
X193525000Y-139875000D01*
G75*
G02*
X193650000Y-139750000I125000J0D01*
G01*
X194825000Y-139750000D01*
G75*
G02*
X194950000Y-139875000I0J-125000D01*
G01*
X194950000Y-140125000D01*
G75*
G02*
X194825000Y-140250000I-125000J0D01*
G01*
X193650000Y-140250000D01*
G75*
G02*
X193525000Y-140125000I0J125000D01*
G01*
G37*
G36*
G01*
X193525000Y-141075000D02*
X193525000Y-140825000D01*
G75*
G02*
X193650000Y-140700000I125000J0D01*
G01*
X194825000Y-140700000D01*
G75*
G02*
X194950000Y-140825000I0J-125000D01*
G01*
X194950000Y-141075000D01*
G75*
G02*
X194825000Y-141200000I-125000J0D01*
G01*
X193650000Y-141200000D01*
G75*
G02*
X193525000Y-141075000I0J125000D01*
G01*
G37*
G36*
G01*
X193525000Y-142025000D02*
X193525000Y-141775000D01*
G75*
G02*
X193650000Y-141650000I125000J0D01*
G01*
X194825000Y-141650000D01*
G75*
G02*
X194950000Y-141775000I0J-125000D01*
G01*
X194950000Y-142025000D01*
G75*
G02*
X194825000Y-142150000I-125000J0D01*
G01*
X193650000Y-142150000D01*
G75*
G02*
X193525000Y-142025000I0J125000D01*
G01*
G37*
G36*
G01*
X191250000Y-142025000D02*
X191250000Y-141775000D01*
G75*
G02*
X191375000Y-141650000I125000J0D01*
G01*
X192550000Y-141650000D01*
G75*
G02*
X192675000Y-141775000I0J-125000D01*
G01*
X192675000Y-142025000D01*
G75*
G02*
X192550000Y-142150000I-125000J0D01*
G01*
X191375000Y-142150000D01*
G75*
G02*
X191250000Y-142025000I0J125000D01*
G01*
G37*
G36*
G01*
X191250000Y-141075000D02*
X191250000Y-140825000D01*
G75*
G02*
X191375000Y-140700000I125000J0D01*
G01*
X192550000Y-140700000D01*
G75*
G02*
X192675000Y-140825000I0J-125000D01*
G01*
X192675000Y-141075000D01*
G75*
G02*
X192550000Y-141200000I-125000J0D01*
G01*
X191375000Y-141200000D01*
G75*
G02*
X191250000Y-141075000I0J125000D01*
G01*
G37*
G36*
G01*
X191250000Y-140125000D02*
X191250000Y-139875000D01*
G75*
G02*
X191375000Y-139750000I125000J0D01*
G01*
X192550000Y-139750000D01*
G75*
G02*
X192675000Y-139875000I0J-125000D01*
G01*
X192675000Y-140125000D01*
G75*
G02*
X192550000Y-140250000I-125000J0D01*
G01*
X191375000Y-140250000D01*
G75*
G02*
X191250000Y-140125000I0J125000D01*
G01*
G37*
G04 #@! TD*
G04 #@! TO.C,R33*
G36*
G01*
X217725000Y-120975000D02*
X217725000Y-120425000D01*
G75*
G02*
X217925000Y-120225000I200000J0D01*
G01*
X218325000Y-120225000D01*
G75*
G02*
X218525000Y-120425000I0J-200000D01*
G01*
X218525000Y-120975000D01*
G75*
G02*
X218325000Y-121175000I-200000J0D01*
G01*
X217925000Y-121175000D01*
G75*
G02*
X217725000Y-120975000I0J200000D01*
G01*
G37*
G36*
G01*
X216075000Y-120975000D02*
X216075000Y-120425000D01*
G75*
G02*
X216275000Y-120225000I200000J0D01*
G01*
X216675000Y-120225000D01*
G75*
G02*
X216875000Y-120425000I0J-200000D01*
G01*
X216875000Y-120975000D01*
G75*
G02*
X216675000Y-121175000I-200000J0D01*
G01*
X216275000Y-121175000D01*
G75*
G02*
X216075000Y-120975000I0J200000D01*
G01*
G37*
G04 #@! TD*
G04 #@! TO.C,R6*
G36*
G01*
X202425000Y-136125000D02*
X202975000Y-136125000D01*
G75*
G02*
X203175000Y-136325000I0J-200000D01*
G01*
X203175000Y-136725000D01*
G75*
G02*
X202975000Y-136925000I-200000J0D01*
G01*
X202425000Y-136925000D01*
G75*
G02*
X202225000Y-136725000I0J200000D01*
G01*
X202225000Y-136325000D01*
G75*
G02*
X202425000Y-136125000I200000J0D01*
G01*
G37*
G36*
G01*
X202425000Y-134475000D02*
X202975000Y-134475000D01*
G75*
G02*
X203175000Y-134675000I0J-200000D01*
G01*
X203175000Y-135075000D01*
G75*
G02*
X202975000Y-135275000I-200000J0D01*
G01*
X202425000Y-135275000D01*
G75*
G02*
X202225000Y-135075000I0J200000D01*
G01*
X202225000Y-134675000D01*
G75*
G02*
X202425000Y-134475000I200000J0D01*
G01*
G37*
G04 #@! TD*
G04 #@! TO.C,TH1*
G36*
G01*
X233525000Y-140625000D02*
X234075000Y-140625000D01*
G75*
G02*
X234275000Y-140825000I0J-200000D01*
G01*
X234275000Y-141225000D01*
G75*
G02*
X234075000Y-141425000I-200000J0D01*
G01*
X233525000Y-141425000D01*
G75*
G02*
X233325000Y-141225000I0J200000D01*
G01*
X233325000Y-140825000D01*
G75*
G02*
X233525000Y-140625000I200000J0D01*
G01*
G37*
G36*
G01*
X233525000Y-138975000D02*
X234075000Y-138975000D01*
G75*
G02*
X234275000Y-139175000I0J-200000D01*
G01*
X234275000Y-139575000D01*
G75*
G02*
X234075000Y-139775000I-200000J0D01*
G01*
X233525000Y-139775000D01*
G75*
G02*
X233325000Y-139575000I0J200000D01*
G01*
X233325000Y-139175000D01*
G75*
G02*
X233525000Y-138975000I200000J0D01*
G01*
G37*
G04 #@! TD*
G04 #@! TO.C,R12*
G36*
G01*
X231925000Y-140625000D02*
X232475000Y-140625000D01*
G75*
G02*
X232675000Y-140825000I0J-200000D01*
G01*
X232675000Y-141225000D01*
G75*
G02*
X232475000Y-141425000I-200000J0D01*
G01*
X231925000Y-141425000D01*
G75*
G02*
X231725000Y-141225000I0J200000D01*
G01*
X231725000Y-140825000D01*
G75*
G02*
X231925000Y-140625000I200000J0D01*
G01*
G37*
G36*
G01*
X231925000Y-138975000D02*
X232475000Y-138975000D01*
G75*
G02*
X232675000Y-139175000I0J-200000D01*
G01*
X232675000Y-139575000D01*
G75*
G02*
X232475000Y-139775000I-200000J0D01*
G01*
X231925000Y-139775000D01*
G75*
G02*
X231725000Y-139575000I0J200000D01*
G01*
X231725000Y-139175000D01*
G75*
G02*
X231925000Y-138975000I200000J0D01*
G01*
G37*
G04 #@! TD*
G04 #@! TO.C,C42*
G36*
G01*
X241650000Y-119475000D02*
X241150000Y-119475000D01*
G75*
G02*
X240925000Y-119250000I0J225000D01*
G01*
X240925000Y-118800000D01*
G75*
G02*
X241150000Y-118575000I225000J0D01*
G01*
X241650000Y-118575000D01*
G75*
G02*
X241875000Y-118800000I0J-225000D01*
G01*
X241875000Y-119250000D01*
G75*
G02*
X241650000Y-119475000I-225000J0D01*
G01*
G37*
G36*
G01*
X241650000Y-121025000D02*
X241150000Y-121025000D01*
G75*
G02*
X240925000Y-120800000I0J225000D01*
G01*
X240925000Y-120350000D01*
G75*
G02*
X241150000Y-120125000I225000J0D01*
G01*
X241650000Y-120125000D01*
G75*
G02*
X241875000Y-120350000I0J-225000D01*
G01*
X241875000Y-120800000D01*
G75*
G02*
X241650000Y-121025000I-225000J0D01*
G01*
G37*
G04 #@! TD*
G04 #@! TO.C,C39*
G36*
G01*
X204050000Y-142500000D02*
X204550000Y-142500000D01*
G75*
G02*
X204775000Y-142725000I0J-225000D01*
G01*
X204775000Y-143175000D01*
G75*
G02*
X204550000Y-143400000I-225000J0D01*
G01*
X204050000Y-143400000D01*
G75*
G02*
X203825000Y-143175000I0J225000D01*
G01*
X203825000Y-142725000D01*
G75*
G02*
X204050000Y-142500000I225000J0D01*
G01*
G37*
G36*
G01*
X204050000Y-140950000D02*
X204550000Y-140950000D01*
G75*
G02*
X204775000Y-141175000I0J-225000D01*
G01*
X204775000Y-141625000D01*
G75*
G02*
X204550000Y-141850000I-225000J0D01*
G01*
X204050000Y-141850000D01*
G75*
G02*
X203825000Y-141625000I0J225000D01*
G01*
X203825000Y-141175000D01*
G75*
G02*
X204050000Y-140950000I225000J0D01*
G01*
G37*
G04 #@! TD*
G04 #@! TO.C,C19*
G36*
G01*
X201350000Y-138375000D02*
X200850000Y-138375000D01*
G75*
G02*
X200625000Y-138150000I0J225000D01*
G01*
X200625000Y-137700000D01*
G75*
G02*
X200850000Y-137475000I225000J0D01*
G01*
X201350000Y-137475000D01*
G75*
G02*
X201575000Y-137700000I0J-225000D01*
G01*
X201575000Y-138150000D01*
G75*
G02*
X201350000Y-138375000I-225000J0D01*
G01*
G37*
G36*
G01*
X201350000Y-139925000D02*
X200850000Y-139925000D01*
G75*
G02*
X200625000Y-139700000I0J225000D01*
G01*
X200625000Y-139250000D01*
G75*
G02*
X200850000Y-139025000I225000J0D01*
G01*
X201350000Y-139025000D01*
G75*
G02*
X201575000Y-139250000I0J-225000D01*
G01*
X201575000Y-139700000D01*
G75*
G02*
X201350000Y-139925000I-225000J0D01*
G01*
G37*
G04 #@! TD*
G04 #@! TO.C,U8*
G36*
G01*
X253100000Y-97275000D02*
X253100000Y-97425000D01*
G75*
G02*
X253025000Y-97500000I-75000J0D01*
G01*
X252675000Y-97500000D01*
G75*
G02*
X252600000Y-97425000I0J75000D01*
G01*
X252600000Y-97275000D01*
G75*
G02*
X252675000Y-97200000I75000J0D01*
G01*
X253025000Y-97200000D01*
G75*
G02*
X253100000Y-97275000I0J-75000D01*
G01*
G37*
G36*
G01*
X253100000Y-96475000D02*
X253100000Y-96625000D01*
G75*
G02*
X253025000Y-96700000I-75000J0D01*
G01*
X252675000Y-96700000D01*
G75*
G02*
X252600000Y-96625000I0J75000D01*
G01*
X252600000Y-96475000D01*
G75*
G02*
X252675000Y-96400000I75000J0D01*
G01*
X253025000Y-96400000D01*
G75*
G02*
X253100000Y-96475000I0J-75000D01*
G01*
G37*
G36*
G01*
X254500000Y-96475000D02*
X254500000Y-96625000D01*
G75*
G02*
X254425000Y-96700000I-75000J0D01*
G01*
X254075000Y-96700000D01*
G75*
G02*
X254000000Y-96625000I0J75000D01*
G01*
X254000000Y-96475000D01*
G75*
G02*
X254075000Y-96400000I75000J0D01*
G01*
X254425000Y-96400000D01*
G75*
G02*
X254500000Y-96475000I0J-75000D01*
G01*
G37*
G36*
G01*
X254500000Y-97275000D02*
X254500000Y-97425000D01*
G75*
G02*
X254425000Y-97500000I-75000J0D01*
G01*
X254075000Y-97500000D01*
G75*
G02*
X254000000Y-97425000I0J75000D01*
G01*
X254000000Y-97275000D01*
G75*
G02*
X254075000Y-97200000I75000J0D01*
G01*
X254425000Y-97200000D01*
G75*
G02*
X254500000Y-97275000I0J-75000D01*
G01*
G37*
G04 #@! TD*
D23*
G04 #@! TO.C,U7*
X233400000Y-133650000D03*
X231200000Y-133650000D03*
X233400000Y-130450000D03*
X233400000Y-131250000D03*
X233400000Y-132050000D03*
X233400000Y-132850000D03*
X231200000Y-132850000D03*
X231200000Y-132050000D03*
X231200000Y-131250000D03*
G36*
G01*
X230925000Y-130200000D02*
X231475000Y-130200000D01*
G75*
G02*
X231600000Y-130325000I0J-125000D01*
G01*
X231600000Y-130575000D01*
G75*
G02*
X231475000Y-130700000I-125000J0D01*
G01*
X230925000Y-130700000D01*
G75*
G02*
X230800000Y-130575000I0J125000D01*
G01*
X230800000Y-130325000D01*
G75*
G02*
X230925000Y-130200000I125000J0D01*
G01*
G37*
G04 #@! TD*
G04 #@! TO.C,U5*
G36*
G01*
X207575000Y-138375001D02*
X207575000Y-137824999D01*
G75*
G02*
X207824999Y-137575000I249999J0D01*
G01*
X208375001Y-137575000D01*
G75*
G02*
X208625000Y-137824999I0J-249999D01*
G01*
X208625000Y-138375001D01*
G75*
G02*
X208375001Y-138625000I-249999J0D01*
G01*
X207824999Y-138625000D01*
G75*
G02*
X207575000Y-138375001I0J249999D01*
G01*
G37*
G36*
G01*
X207575000Y-137075001D02*
X207575000Y-136524999D01*
G75*
G02*
X207824999Y-136275000I249999J0D01*
G01*
X208375001Y-136275000D01*
G75*
G02*
X208625000Y-136524999I0J-249999D01*
G01*
X208625000Y-137075001D01*
G75*
G02*
X208375001Y-137325000I-249999J0D01*
G01*
X207824999Y-137325000D01*
G75*
G02*
X207575000Y-137075001I0J249999D01*
G01*
G37*
G36*
G01*
X206275000Y-138375001D02*
X206275000Y-137824999D01*
G75*
G02*
X206524999Y-137575000I249999J0D01*
G01*
X207075001Y-137575000D01*
G75*
G02*
X207325000Y-137824999I0J-249999D01*
G01*
X207325000Y-138375001D01*
G75*
G02*
X207075001Y-138625000I-249999J0D01*
G01*
X206524999Y-138625000D01*
G75*
G02*
X206275000Y-138375001I0J249999D01*
G01*
G37*
G36*
G01*
X206275000Y-137075001D02*
X206275000Y-136524999D01*
G75*
G02*
X206524999Y-136275000I249999J0D01*
G01*
X207075001Y-136275000D01*
G75*
G02*
X207325000Y-136524999I0J-249999D01*
G01*
X207325000Y-137075001D01*
G75*
G02*
X207075001Y-137325000I-249999J0D01*
G01*
X206524999Y-137325000D01*
G75*
G02*
X206275000Y-137075001I0J249999D01*
G01*
G37*
G36*
G01*
X206075000Y-135862500D02*
X206075000Y-135162500D01*
G75*
G02*
X206137500Y-135100000I62500J0D01*
G01*
X206262500Y-135100000D01*
G75*
G02*
X206325000Y-135162500I0J-62500D01*
G01*
X206325000Y-135862500D01*
G75*
G02*
X206262500Y-135925000I-62500J0D01*
G01*
X206137500Y-135925000D01*
G75*
G02*
X206075000Y-135862500I0J62500D01*
G01*
G37*
G36*
G01*
X206575000Y-135862500D02*
X206575000Y-135162500D01*
G75*
G02*
X206637500Y-135100000I62500J0D01*
G01*
X206762500Y-135100000D01*
G75*
G02*
X206825000Y-135162500I0J-62500D01*
G01*
X206825000Y-135862500D01*
G75*
G02*
X206762500Y-135925000I-62500J0D01*
G01*
X206637500Y-135925000D01*
G75*
G02*
X206575000Y-135862500I0J62500D01*
G01*
G37*
G36*
G01*
X207075000Y-135862500D02*
X207075000Y-135162500D01*
G75*
G02*
X207137500Y-135100000I62500J0D01*
G01*
X207262500Y-135100000D01*
G75*
G02*
X207325000Y-135162500I0J-62500D01*
G01*
X207325000Y-135862500D01*
G75*
G02*
X207262500Y-135925000I-62500J0D01*
G01*
X207137500Y-135925000D01*
G75*
G02*
X207075000Y-135862500I0J62500D01*
G01*
G37*
G36*
G01*
X207575000Y-135862500D02*
X207575000Y-135162500D01*
G75*
G02*
X207637500Y-135100000I62500J0D01*
G01*
X207762500Y-135100000D01*
G75*
G02*
X207825000Y-135162500I0J-62500D01*
G01*
X207825000Y-135862500D01*
G75*
G02*
X207762500Y-135925000I-62500J0D01*
G01*
X207637500Y-135925000D01*
G75*
G02*
X207575000Y-135862500I0J62500D01*
G01*
G37*
G36*
G01*
X208075000Y-135862500D02*
X208075000Y-135162500D01*
G75*
G02*
X208137500Y-135100000I62500J0D01*
G01*
X208262500Y-135100000D01*
G75*
G02*
X208325000Y-135162500I0J-62500D01*
G01*
X208325000Y-135862500D01*
G75*
G02*
X208262500Y-135925000I-62500J0D01*
G01*
X208137500Y-135925000D01*
G75*
G02*
X208075000Y-135862500I0J62500D01*
G01*
G37*
G36*
G01*
X208575000Y-135862500D02*
X208575000Y-135162500D01*
G75*
G02*
X208637500Y-135100000I62500J0D01*
G01*
X208762500Y-135100000D01*
G75*
G02*
X208825000Y-135162500I0J-62500D01*
G01*
X208825000Y-135862500D01*
G75*
G02*
X208762500Y-135925000I-62500J0D01*
G01*
X208637500Y-135925000D01*
G75*
G02*
X208575000Y-135862500I0J62500D01*
G01*
G37*
G36*
G01*
X208975000Y-136262500D02*
X208975000Y-136137500D01*
G75*
G02*
X209037500Y-136075000I62500J0D01*
G01*
X209737500Y-136075000D01*
G75*
G02*
X209800000Y-136137500I0J-62500D01*
G01*
X209800000Y-136262500D01*
G75*
G02*
X209737500Y-136325000I-62500J0D01*
G01*
X209037500Y-136325000D01*
G75*
G02*
X208975000Y-136262500I0J62500D01*
G01*
G37*
G36*
G01*
X208975000Y-136762500D02*
X208975000Y-136637500D01*
G75*
G02*
X209037500Y-136575000I62500J0D01*
G01*
X209737500Y-136575000D01*
G75*
G02*
X209800000Y-136637500I0J-62500D01*
G01*
X209800000Y-136762500D01*
G75*
G02*
X209737500Y-136825000I-62500J0D01*
G01*
X209037500Y-136825000D01*
G75*
G02*
X208975000Y-136762500I0J62500D01*
G01*
G37*
G36*
G01*
X208975000Y-137262500D02*
X208975000Y-137137500D01*
G75*
G02*
X209037500Y-137075000I62500J0D01*
G01*
X209737500Y-137075000D01*
G75*
G02*
X209800000Y-137137500I0J-62500D01*
G01*
X209800000Y-137262500D01*
G75*
G02*
X209737500Y-137325000I-62500J0D01*
G01*
X209037500Y-137325000D01*
G75*
G02*
X208975000Y-137262500I0J62500D01*
G01*
G37*
G36*
G01*
X208975000Y-137762500D02*
X208975000Y-137637500D01*
G75*
G02*
X209037500Y-137575000I62500J0D01*
G01*
X209737500Y-137575000D01*
G75*
G02*
X209800000Y-137637500I0J-62500D01*
G01*
X209800000Y-137762500D01*
G75*
G02*
X209737500Y-137825000I-62500J0D01*
G01*
X209037500Y-137825000D01*
G75*
G02*
X208975000Y-137762500I0J62500D01*
G01*
G37*
G36*
G01*
X208975000Y-138262500D02*
X208975000Y-138137500D01*
G75*
G02*
X209037500Y-138075000I62500J0D01*
G01*
X209737500Y-138075000D01*
G75*
G02*
X209800000Y-138137500I0J-62500D01*
G01*
X209800000Y-138262500D01*
G75*
G02*
X209737500Y-138325000I-62500J0D01*
G01*
X209037500Y-138325000D01*
G75*
G02*
X208975000Y-138262500I0J62500D01*
G01*
G37*
G36*
G01*
X208975000Y-138762500D02*
X208975000Y-138637500D01*
G75*
G02*
X209037500Y-138575000I62500J0D01*
G01*
X209737500Y-138575000D01*
G75*
G02*
X209800000Y-138637500I0J-62500D01*
G01*
X209800000Y-138762500D01*
G75*
G02*
X209737500Y-138825000I-62500J0D01*
G01*
X209037500Y-138825000D01*
G75*
G02*
X208975000Y-138762500I0J62500D01*
G01*
G37*
G36*
G01*
X208575000Y-139737500D02*
X208575000Y-139037500D01*
G75*
G02*
X208637500Y-138975000I62500J0D01*
G01*
X208762500Y-138975000D01*
G75*
G02*
X208825000Y-139037500I0J-62500D01*
G01*
X208825000Y-139737500D01*
G75*
G02*
X208762500Y-139800000I-62500J0D01*
G01*
X208637500Y-139800000D01*
G75*
G02*
X208575000Y-139737500I0J62500D01*
G01*
G37*
G36*
G01*
X208075000Y-139737500D02*
X208075000Y-139037500D01*
G75*
G02*
X208137500Y-138975000I62500J0D01*
G01*
X208262500Y-138975000D01*
G75*
G02*
X208325000Y-139037500I0J-62500D01*
G01*
X208325000Y-139737500D01*
G75*
G02*
X208262500Y-139800000I-62500J0D01*
G01*
X208137500Y-139800000D01*
G75*
G02*
X208075000Y-139737500I0J62500D01*
G01*
G37*
G36*
G01*
X207575000Y-139737500D02*
X207575000Y-139037500D01*
G75*
G02*
X207637500Y-138975000I62500J0D01*
G01*
X207762500Y-138975000D01*
G75*
G02*
X207825000Y-139037500I0J-62500D01*
G01*
X207825000Y-139737500D01*
G75*
G02*
X207762500Y-139800000I-62500J0D01*
G01*
X207637500Y-139800000D01*
G75*
G02*
X207575000Y-139737500I0J62500D01*
G01*
G37*
G36*
G01*
X207075000Y-139737500D02*
X207075000Y-139037500D01*
G75*
G02*
X207137500Y-138975000I62500J0D01*
G01*
X207262500Y-138975000D01*
G75*
G02*
X207325000Y-139037500I0J-62500D01*
G01*
X207325000Y-139737500D01*
G75*
G02*
X207262500Y-139800000I-62500J0D01*
G01*
X207137500Y-139800000D01*
G75*
G02*
X207075000Y-139737500I0J62500D01*
G01*
G37*
G36*
G01*
X206575000Y-139737500D02*
X206575000Y-139037500D01*
G75*
G02*
X206637500Y-138975000I62500J0D01*
G01*
X206762500Y-138975000D01*
G75*
G02*
X206825000Y-139037500I0J-62500D01*
G01*
X206825000Y-139737500D01*
G75*
G02*
X206762500Y-139800000I-62500J0D01*
G01*
X206637500Y-139800000D01*
G75*
G02*
X206575000Y-139737500I0J62500D01*
G01*
G37*
G36*
G01*
X206075000Y-139737500D02*
X206075000Y-139037500D01*
G75*
G02*
X206137500Y-138975000I62500J0D01*
G01*
X206262500Y-138975000D01*
G75*
G02*
X206325000Y-139037500I0J-62500D01*
G01*
X206325000Y-139737500D01*
G75*
G02*
X206262500Y-139800000I-62500J0D01*
G01*
X206137500Y-139800000D01*
G75*
G02*
X206075000Y-139737500I0J62500D01*
G01*
G37*
G36*
G01*
X205100000Y-138762500D02*
X205100000Y-138637500D01*
G75*
G02*
X205162500Y-138575000I62500J0D01*
G01*
X205862500Y-138575000D01*
G75*
G02*
X205925000Y-138637500I0J-62500D01*
G01*
X205925000Y-138762500D01*
G75*
G02*
X205862500Y-138825000I-62500J0D01*
G01*
X205162500Y-138825000D01*
G75*
G02*
X205100000Y-138762500I0J62500D01*
G01*
G37*
G36*
G01*
X205100000Y-138262500D02*
X205100000Y-138137500D01*
G75*
G02*
X205162500Y-138075000I62500J0D01*
G01*
X205862500Y-138075000D01*
G75*
G02*
X205925000Y-138137500I0J-62500D01*
G01*
X205925000Y-138262500D01*
G75*
G02*
X205862500Y-138325000I-62500J0D01*
G01*
X205162500Y-138325000D01*
G75*
G02*
X205100000Y-138262500I0J62500D01*
G01*
G37*
G36*
G01*
X205100000Y-137762500D02*
X205100000Y-137637500D01*
G75*
G02*
X205162500Y-137575000I62500J0D01*
G01*
X205862500Y-137575000D01*
G75*
G02*
X205925000Y-137637500I0J-62500D01*
G01*
X205925000Y-137762500D01*
G75*
G02*
X205862500Y-137825000I-62500J0D01*
G01*
X205162500Y-137825000D01*
G75*
G02*
X205100000Y-137762500I0J62500D01*
G01*
G37*
G36*
G01*
X205100000Y-137262500D02*
X205100000Y-137137500D01*
G75*
G02*
X205162500Y-137075000I62500J0D01*
G01*
X205862500Y-137075000D01*
G75*
G02*
X205925000Y-137137500I0J-62500D01*
G01*
X205925000Y-137262500D01*
G75*
G02*
X205862500Y-137325000I-62500J0D01*
G01*
X205162500Y-137325000D01*
G75*
G02*
X205100000Y-137262500I0J62500D01*
G01*
G37*
G36*
G01*
X205100000Y-136762500D02*
X205100000Y-136637500D01*
G75*
G02*
X205162500Y-136575000I62500J0D01*
G01*
X205862500Y-136575000D01*
G75*
G02*
X205925000Y-136637500I0J-62500D01*
G01*
X205925000Y-136762500D01*
G75*
G02*
X205862500Y-136825000I-62500J0D01*
G01*
X205162500Y-136825000D01*
G75*
G02*
X205100000Y-136762500I0J62500D01*
G01*
G37*
G36*
G01*
X205100000Y-136262500D02*
X205100000Y-136137500D01*
G75*
G02*
X205162500Y-136075000I62500J0D01*
G01*
X205862500Y-136075000D01*
G75*
G02*
X205925000Y-136137500I0J-62500D01*
G01*
X205925000Y-136262500D01*
G75*
G02*
X205862500Y-136325000I-62500J0D01*
G01*
X205162500Y-136325000D01*
G75*
G02*
X205100000Y-136262500I0J62500D01*
G01*
G37*
G04 #@! TD*
G04 #@! TO.C,R92*
G36*
G01*
X212475000Y-137225000D02*
X212475000Y-136675000D01*
G75*
G02*
X212675000Y-136475000I200000J0D01*
G01*
X213075000Y-136475000D01*
G75*
G02*
X213275000Y-136675000I0J-200000D01*
G01*
X213275000Y-137225000D01*
G75*
G02*
X213075000Y-137425000I-200000J0D01*
G01*
X212675000Y-137425000D01*
G75*
G02*
X212475000Y-137225000I0J200000D01*
G01*
G37*
G36*
G01*
X210825000Y-137225000D02*
X210825000Y-136675000D01*
G75*
G02*
X211025000Y-136475000I200000J0D01*
G01*
X211425000Y-136475000D01*
G75*
G02*
X211625000Y-136675000I0J-200000D01*
G01*
X211625000Y-137225000D01*
G75*
G02*
X211425000Y-137425000I-200000J0D01*
G01*
X211025000Y-137425000D01*
G75*
G02*
X210825000Y-137225000I0J200000D01*
G01*
G37*
G04 #@! TD*
G04 #@! TO.C,R91*
G36*
G01*
X236225000Y-132525000D02*
X236775000Y-132525000D01*
G75*
G02*
X236975000Y-132725000I0J-200000D01*
G01*
X236975000Y-133125000D01*
G75*
G02*
X236775000Y-133325000I-200000J0D01*
G01*
X236225000Y-133325000D01*
G75*
G02*
X236025000Y-133125000I0J200000D01*
G01*
X236025000Y-132725000D01*
G75*
G02*
X236225000Y-132525000I200000J0D01*
G01*
G37*
G36*
G01*
X236225000Y-130875000D02*
X236775000Y-130875000D01*
G75*
G02*
X236975000Y-131075000I0J-200000D01*
G01*
X236975000Y-131475000D01*
G75*
G02*
X236775000Y-131675000I-200000J0D01*
G01*
X236225000Y-131675000D01*
G75*
G02*
X236025000Y-131475000I0J200000D01*
G01*
X236025000Y-131075000D01*
G75*
G02*
X236225000Y-130875000I200000J0D01*
G01*
G37*
G04 #@! TD*
G04 #@! TO.C,R90*
G36*
G01*
X234625000Y-132525000D02*
X235175000Y-132525000D01*
G75*
G02*
X235375000Y-132725000I0J-200000D01*
G01*
X235375000Y-133125000D01*
G75*
G02*
X235175000Y-133325000I-200000J0D01*
G01*
X234625000Y-133325000D01*
G75*
G02*
X234425000Y-133125000I0J200000D01*
G01*
X234425000Y-132725000D01*
G75*
G02*
X234625000Y-132525000I200000J0D01*
G01*
G37*
G36*
G01*
X234625000Y-130875000D02*
X235175000Y-130875000D01*
G75*
G02*
X235375000Y-131075000I0J-200000D01*
G01*
X235375000Y-131475000D01*
G75*
G02*
X235175000Y-131675000I-200000J0D01*
G01*
X234625000Y-131675000D01*
G75*
G02*
X234425000Y-131475000I0J200000D01*
G01*
X234425000Y-131075000D01*
G75*
G02*
X234625000Y-130875000I200000J0D01*
G01*
G37*
G04 #@! TD*
G04 #@! TO.C,R65*
G36*
G01*
X217525000Y-143625000D02*
X218075000Y-143625000D01*
G75*
G02*
X218275000Y-143825000I0J-200000D01*
G01*
X218275000Y-144225000D01*
G75*
G02*
X218075000Y-144425000I-200000J0D01*
G01*
X217525000Y-144425000D01*
G75*
G02*
X217325000Y-144225000I0J200000D01*
G01*
X217325000Y-143825000D01*
G75*
G02*
X217525000Y-143625000I200000J0D01*
G01*
G37*
G36*
G01*
X217525000Y-141975000D02*
X218075000Y-141975000D01*
G75*
G02*
X218275000Y-142175000I0J-200000D01*
G01*
X218275000Y-142575000D01*
G75*
G02*
X218075000Y-142775000I-200000J0D01*
G01*
X217525000Y-142775000D01*
G75*
G02*
X217325000Y-142575000I0J200000D01*
G01*
X217325000Y-142175000D01*
G75*
G02*
X217525000Y-141975000I200000J0D01*
G01*
G37*
G04 #@! TD*
G04 #@! TO.C,R64*
G36*
G01*
X219025000Y-143625000D02*
X219575000Y-143625000D01*
G75*
G02*
X219775000Y-143825000I0J-200000D01*
G01*
X219775000Y-144225000D01*
G75*
G02*
X219575000Y-144425000I-200000J0D01*
G01*
X219025000Y-144425000D01*
G75*
G02*
X218825000Y-144225000I0J200000D01*
G01*
X218825000Y-143825000D01*
G75*
G02*
X219025000Y-143625000I200000J0D01*
G01*
G37*
G36*
G01*
X219025000Y-141975000D02*
X219575000Y-141975000D01*
G75*
G02*
X219775000Y-142175000I0J-200000D01*
G01*
X219775000Y-142575000D01*
G75*
G02*
X219575000Y-142775000I-200000J0D01*
G01*
X219025000Y-142775000D01*
G75*
G02*
X218825000Y-142575000I0J200000D01*
G01*
X218825000Y-142175000D01*
G75*
G02*
X219025000Y-141975000I200000J0D01*
G01*
G37*
G04 #@! TD*
G04 #@! TO.C,R7*
G36*
G01*
X191825000Y-134725000D02*
X191275000Y-134725000D01*
G75*
G02*
X191075000Y-134525000I0J200000D01*
G01*
X191075000Y-134125000D01*
G75*
G02*
X191275000Y-133925000I200000J0D01*
G01*
X191825000Y-133925000D01*
G75*
G02*
X192025000Y-134125000I0J-200000D01*
G01*
X192025000Y-134525000D01*
G75*
G02*
X191825000Y-134725000I-200000J0D01*
G01*
G37*
G36*
G01*
X191825000Y-136375000D02*
X191275000Y-136375000D01*
G75*
G02*
X191075000Y-136175000I0J200000D01*
G01*
X191075000Y-135775000D01*
G75*
G02*
X191275000Y-135575000I200000J0D01*
G01*
X191825000Y-135575000D01*
G75*
G02*
X192025000Y-135775000I0J-200000D01*
G01*
X192025000Y-136175000D01*
G75*
G02*
X191825000Y-136375000I-200000J0D01*
G01*
G37*
G04 #@! TD*
G04 #@! TO.C,D34*
G36*
G01*
X200843750Y-136050000D02*
X201356250Y-136050000D01*
G75*
G02*
X201575000Y-136268750I0J-218750D01*
G01*
X201575000Y-136706250D01*
G75*
G02*
X201356250Y-136925000I-218750J0D01*
G01*
X200843750Y-136925000D01*
G75*
G02*
X200625000Y-136706250I0J218750D01*
G01*
X200625000Y-136268750D01*
G75*
G02*
X200843750Y-136050000I218750J0D01*
G01*
G37*
G36*
G01*
X200843750Y-134475000D02*
X201356250Y-134475000D01*
G75*
G02*
X201575000Y-134693750I0J-218750D01*
G01*
X201575000Y-135131250D01*
G75*
G02*
X201356250Y-135350000I-218750J0D01*
G01*
X200843750Y-135350000D01*
G75*
G02*
X200625000Y-135131250I0J218750D01*
G01*
X200625000Y-134693750D01*
G75*
G02*
X200843750Y-134475000I218750J0D01*
G01*
G37*
G04 #@! TD*
G04 #@! TO.C,C40*
G36*
G01*
X192800000Y-135475000D02*
X193300000Y-135475000D01*
G75*
G02*
X193525000Y-135700000I0J-225000D01*
G01*
X193525000Y-136150000D01*
G75*
G02*
X193300000Y-136375000I-225000J0D01*
G01*
X192800000Y-136375000D01*
G75*
G02*
X192575000Y-136150000I0J225000D01*
G01*
X192575000Y-135700000D01*
G75*
G02*
X192800000Y-135475000I225000J0D01*
G01*
G37*
G36*
G01*
X192800000Y-133925000D02*
X193300000Y-133925000D01*
G75*
G02*
X193525000Y-134150000I0J-225000D01*
G01*
X193525000Y-134600000D01*
G75*
G02*
X193300000Y-134825000I-225000J0D01*
G01*
X192800000Y-134825000D01*
G75*
G02*
X192575000Y-134600000I0J225000D01*
G01*
X192575000Y-134150000D01*
G75*
G02*
X192800000Y-133925000I225000J0D01*
G01*
G37*
G04 #@! TD*
G04 #@! TO.C,C31*
G36*
G01*
X202550000Y-142525000D02*
X203050000Y-142525000D01*
G75*
G02*
X203275000Y-142750000I0J-225000D01*
G01*
X203275000Y-143200000D01*
G75*
G02*
X203050000Y-143425000I-225000J0D01*
G01*
X202550000Y-143425000D01*
G75*
G02*
X202325000Y-143200000I0J225000D01*
G01*
X202325000Y-142750000D01*
G75*
G02*
X202550000Y-142525000I225000J0D01*
G01*
G37*
G36*
G01*
X202550000Y-140975000D02*
X203050000Y-140975000D01*
G75*
G02*
X203275000Y-141200000I0J-225000D01*
G01*
X203275000Y-141650000D01*
G75*
G02*
X203050000Y-141875000I-225000J0D01*
G01*
X202550000Y-141875000D01*
G75*
G02*
X202325000Y-141650000I0J225000D01*
G01*
X202325000Y-141200000D01*
G75*
G02*
X202550000Y-140975000I225000J0D01*
G01*
G37*
G04 #@! TD*
G04 #@! TO.C,C16*
G36*
G01*
X226599999Y-138400000D02*
X227900001Y-138400000D01*
G75*
G02*
X228150000Y-138649999I0J-249999D01*
G01*
X228150000Y-139300001D01*
G75*
G02*
X227900001Y-139550000I-249999J0D01*
G01*
X226599999Y-139550000D01*
G75*
G02*
X226350000Y-139300001I0J249999D01*
G01*
X226350000Y-138649999D01*
G75*
G02*
X226599999Y-138400000I249999J0D01*
G01*
G37*
G36*
G01*
X226599999Y-135450000D02*
X227900001Y-135450000D01*
G75*
G02*
X228150000Y-135699999I0J-249999D01*
G01*
X228150000Y-136350001D01*
G75*
G02*
X227900001Y-136600000I-249999J0D01*
G01*
X226599999Y-136600000D01*
G75*
G02*
X226350000Y-136350001I0J249999D01*
G01*
X226350000Y-135699999D01*
G75*
G02*
X226599999Y-135450000I249999J0D01*
G01*
G37*
G04 #@! TD*
G04 #@! TO.C,U1*
G36*
G01*
X262235000Y-118810000D02*
X261465000Y-118810000D01*
G75*
G02*
X261225000Y-118570000I0J240000D01*
G01*
X261225000Y-118090000D01*
G75*
G02*
X261465000Y-117850000I240000J0D01*
G01*
X262235000Y-117850000D01*
G75*
G02*
X262475000Y-118090000I0J-240000D01*
G01*
X262475000Y-118570000D01*
G75*
G02*
X262235000Y-118810000I-240000J0D01*
G01*
G37*
G36*
G01*
X260735000Y-118810000D02*
X259965000Y-118810000D01*
G75*
G02*
X259725000Y-118570000I0J240000D01*
G01*
X259725000Y-118090000D01*
G75*
G02*
X259965000Y-117850000I240000J0D01*
G01*
X260735000Y-117850000D01*
G75*
G02*
X260975000Y-118090000I0J-240000D01*
G01*
X260975000Y-118570000D01*
G75*
G02*
X260735000Y-118810000I-240000J0D01*
G01*
G37*
G36*
G01*
X262235000Y-119950000D02*
X261465000Y-119950000D01*
G75*
G02*
X261225000Y-119710000I0J240000D01*
G01*
X261225000Y-119230000D01*
G75*
G02*
X261465000Y-118990000I240000J0D01*
G01*
X262235000Y-118990000D01*
G75*
G02*
X262475000Y-119230000I0J-240000D01*
G01*
X262475000Y-119710000D01*
G75*
G02*
X262235000Y-119950000I-240000J0D01*
G01*
G37*
G36*
G01*
X260735000Y-119950000D02*
X259965000Y-119950000D01*
G75*
G02*
X259725000Y-119710000I0J240000D01*
G01*
X259725000Y-119230000D01*
G75*
G02*
X259965000Y-118990000I240000J0D01*
G01*
X260735000Y-118990000D01*
G75*
G02*
X260975000Y-119230000I0J-240000D01*
G01*
X260975000Y-119710000D01*
G75*
G02*
X260735000Y-119950000I-240000J0D01*
G01*
G37*
G36*
G01*
X259345000Y-117400000D02*
X259045000Y-117400000D01*
G75*
G02*
X258895000Y-117250000I0J150000D01*
G01*
X258895000Y-115600000D01*
G75*
G02*
X259045000Y-115450000I150000J0D01*
G01*
X259345000Y-115450000D01*
G75*
G02*
X259495000Y-115600000I0J-150000D01*
G01*
X259495000Y-117250000D01*
G75*
G02*
X259345000Y-117400000I-150000J0D01*
G01*
G37*
G36*
G01*
X260615000Y-117400000D02*
X260315000Y-117400000D01*
G75*
G02*
X260165000Y-117250000I0J150000D01*
G01*
X260165000Y-115600000D01*
G75*
G02*
X260315000Y-115450000I150000J0D01*
G01*
X260615000Y-115450000D01*
G75*
G02*
X260765000Y-115600000I0J-150000D01*
G01*
X260765000Y-117250000D01*
G75*
G02*
X260615000Y-117400000I-150000J0D01*
G01*
G37*
G36*
G01*
X261885000Y-117400000D02*
X261585000Y-117400000D01*
G75*
G02*
X261435000Y-117250000I0J150000D01*
G01*
X261435000Y-115600000D01*
G75*
G02*
X261585000Y-115450000I150000J0D01*
G01*
X261885000Y-115450000D01*
G75*
G02*
X262035000Y-115600000I0J-150000D01*
G01*
X262035000Y-117250000D01*
G75*
G02*
X261885000Y-117400000I-150000J0D01*
G01*
G37*
G36*
G01*
X263155000Y-117400000D02*
X262855000Y-117400000D01*
G75*
G02*
X262705000Y-117250000I0J150000D01*
G01*
X262705000Y-115600000D01*
G75*
G02*
X262855000Y-115450000I150000J0D01*
G01*
X263155000Y-115450000D01*
G75*
G02*
X263305000Y-115600000I0J-150000D01*
G01*
X263305000Y-117250000D01*
G75*
G02*
X263155000Y-117400000I-150000J0D01*
G01*
G37*
G36*
G01*
X263155000Y-122350000D02*
X262855000Y-122350000D01*
G75*
G02*
X262705000Y-122200000I0J150000D01*
G01*
X262705000Y-120550000D01*
G75*
G02*
X262855000Y-120400000I150000J0D01*
G01*
X263155000Y-120400000D01*
G75*
G02*
X263305000Y-120550000I0J-150000D01*
G01*
X263305000Y-122200000D01*
G75*
G02*
X263155000Y-122350000I-150000J0D01*
G01*
G37*
G36*
G01*
X261885000Y-122350000D02*
X261585000Y-122350000D01*
G75*
G02*
X261435000Y-122200000I0J150000D01*
G01*
X261435000Y-120550000D01*
G75*
G02*
X261585000Y-120400000I150000J0D01*
G01*
X261885000Y-120400000D01*
G75*
G02*
X262035000Y-120550000I0J-150000D01*
G01*
X262035000Y-122200000D01*
G75*
G02*
X261885000Y-122350000I-150000J0D01*
G01*
G37*
G36*
G01*
X260615000Y-122350000D02*
X260315000Y-122350000D01*
G75*
G02*
X260165000Y-122200000I0J150000D01*
G01*
X260165000Y-120550000D01*
G75*
G02*
X260315000Y-120400000I150000J0D01*
G01*
X260615000Y-120400000D01*
G75*
G02*
X260765000Y-120550000I0J-150000D01*
G01*
X260765000Y-122200000D01*
G75*
G02*
X260615000Y-122350000I-150000J0D01*
G01*
G37*
G36*
G01*
X259195000Y-122350000D02*
X259195000Y-122350000D01*
G75*
G02*
X258895000Y-122050000I0J300000D01*
G01*
X258895000Y-120700000D01*
G75*
G02*
X259195000Y-120400000I300000J0D01*
G01*
X259195000Y-120400000D01*
G75*
G02*
X259495000Y-120700000I0J-300000D01*
G01*
X259495000Y-122050000D01*
G75*
G02*
X259195000Y-122350000I-300000J0D01*
G01*
G37*
G04 #@! TD*
G04 #@! TO.C,R20*
G36*
G01*
X190375000Y-141475000D02*
X189825000Y-141475000D01*
G75*
G02*
X189625000Y-141275000I0J200000D01*
G01*
X189625000Y-140875000D01*
G75*
G02*
X189825000Y-140675000I200000J0D01*
G01*
X190375000Y-140675000D01*
G75*
G02*
X190575000Y-140875000I0J-200000D01*
G01*
X190575000Y-141275000D01*
G75*
G02*
X190375000Y-141475000I-200000J0D01*
G01*
G37*
G36*
G01*
X190375000Y-143125000D02*
X189825000Y-143125000D01*
G75*
G02*
X189625000Y-142925000I0J200000D01*
G01*
X189625000Y-142525000D01*
G75*
G02*
X189825000Y-142325000I200000J0D01*
G01*
X190375000Y-142325000D01*
G75*
G02*
X190575000Y-142525000I0J-200000D01*
G01*
X190575000Y-142925000D01*
G75*
G02*
X190375000Y-143125000I-200000J0D01*
G01*
G37*
G04 #@! TD*
G04 #@! TO.C,U4*
G36*
G01*
X220800000Y-140705000D02*
X220800000Y-141005000D01*
G75*
G02*
X220650000Y-141155000I-150000J0D01*
G01*
X219000000Y-141155000D01*
G75*
G02*
X218850000Y-141005000I0J150000D01*
G01*
X218850000Y-140705000D01*
G75*
G02*
X219000000Y-140555000I150000J0D01*
G01*
X220650000Y-140555000D01*
G75*
G02*
X220800000Y-140705000I0J-150000D01*
G01*
G37*
G36*
G01*
X220800000Y-139435000D02*
X220800000Y-139735000D01*
G75*
G02*
X220650000Y-139885000I-150000J0D01*
G01*
X219000000Y-139885000D01*
G75*
G02*
X218850000Y-139735000I0J150000D01*
G01*
X218850000Y-139435000D01*
G75*
G02*
X219000000Y-139285000I150000J0D01*
G01*
X220650000Y-139285000D01*
G75*
G02*
X220800000Y-139435000I0J-150000D01*
G01*
G37*
G36*
G01*
X220800000Y-138165000D02*
X220800000Y-138465000D01*
G75*
G02*
X220650000Y-138615000I-150000J0D01*
G01*
X219000000Y-138615000D01*
G75*
G02*
X218850000Y-138465000I0J150000D01*
G01*
X218850000Y-138165000D01*
G75*
G02*
X219000000Y-138015000I150000J0D01*
G01*
X220650000Y-138015000D01*
G75*
G02*
X220800000Y-138165000I0J-150000D01*
G01*
G37*
G36*
G01*
X220800000Y-136895000D02*
X220800000Y-137195000D01*
G75*
G02*
X220650000Y-137345000I-150000J0D01*
G01*
X219000000Y-137345000D01*
G75*
G02*
X218850000Y-137195000I0J150000D01*
G01*
X218850000Y-136895000D01*
G75*
G02*
X219000000Y-136745000I150000J0D01*
G01*
X220650000Y-136745000D01*
G75*
G02*
X220800000Y-136895000I0J-150000D01*
G01*
G37*
G36*
G01*
X225750000Y-136895000D02*
X225750000Y-137195000D01*
G75*
G02*
X225600000Y-137345000I-150000J0D01*
G01*
X223950000Y-137345000D01*
G75*
G02*
X223800000Y-137195000I0J150000D01*
G01*
X223800000Y-136895000D01*
G75*
G02*
X223950000Y-136745000I150000J0D01*
G01*
X225600000Y-136745000D01*
G75*
G02*
X225750000Y-136895000I0J-150000D01*
G01*
G37*
G36*
G01*
X225750000Y-138165000D02*
X225750000Y-138465000D01*
G75*
G02*
X225600000Y-138615000I-150000J0D01*
G01*
X223950000Y-138615000D01*
G75*
G02*
X223800000Y-138465000I0J150000D01*
G01*
X223800000Y-138165000D01*
G75*
G02*
X223950000Y-138015000I150000J0D01*
G01*
X225600000Y-138015000D01*
G75*
G02*
X225750000Y-138165000I0J-150000D01*
G01*
G37*
G36*
G01*
X225750000Y-139435000D02*
X225750000Y-139735000D01*
G75*
G02*
X225600000Y-139885000I-150000J0D01*
G01*
X223950000Y-139885000D01*
G75*
G02*
X223800000Y-139735000I0J150000D01*
G01*
X223800000Y-139435000D01*
G75*
G02*
X223950000Y-139285000I150000J0D01*
G01*
X225600000Y-139285000D01*
G75*
G02*
X225750000Y-139435000I0J-150000D01*
G01*
G37*
G36*
G01*
X225750000Y-140855000D02*
X225750000Y-140855000D01*
G75*
G02*
X225450000Y-141155000I-300000J0D01*
G01*
X224100000Y-141155000D01*
G75*
G02*
X223800000Y-140855000I0J300000D01*
G01*
X223800000Y-140855000D01*
G75*
G02*
X224100000Y-140555000I300000J0D01*
G01*
X225450000Y-140555000D01*
G75*
G02*
X225750000Y-140855000I0J-300000D01*
G01*
G37*
G04 #@! TD*
G04 #@! TO.C,U13*
G36*
G01*
X243245000Y-121000000D02*
X242945000Y-121000000D01*
G75*
G02*
X242795000Y-120850000I0J150000D01*
G01*
X242795000Y-119200000D01*
G75*
G02*
X242945000Y-119050000I150000J0D01*
G01*
X243245000Y-119050000D01*
G75*
G02*
X243395000Y-119200000I0J-150000D01*
G01*
X243395000Y-120850000D01*
G75*
G02*
X243245000Y-121000000I-150000J0D01*
G01*
G37*
G36*
G01*
X244515000Y-121000000D02*
X244215000Y-121000000D01*
G75*
G02*
X244065000Y-120850000I0J150000D01*
G01*
X244065000Y-119200000D01*
G75*
G02*
X244215000Y-119050000I150000J0D01*
G01*
X244515000Y-119050000D01*
G75*
G02*
X244665000Y-119200000I0J-150000D01*
G01*
X244665000Y-120850000D01*
G75*
G02*
X244515000Y-121000000I-150000J0D01*
G01*
G37*
G36*
G01*
X245785000Y-121000000D02*
X245485000Y-121000000D01*
G75*
G02*
X245335000Y-120850000I0J150000D01*
G01*
X245335000Y-119200000D01*
G75*
G02*
X245485000Y-119050000I150000J0D01*
G01*
X245785000Y-119050000D01*
G75*
G02*
X245935000Y-119200000I0J-150000D01*
G01*
X245935000Y-120850000D01*
G75*
G02*
X245785000Y-121000000I-150000J0D01*
G01*
G37*
G36*
G01*
X247055000Y-121000000D02*
X246755000Y-121000000D01*
G75*
G02*
X246605000Y-120850000I0J150000D01*
G01*
X246605000Y-119200000D01*
G75*
G02*
X246755000Y-119050000I150000J0D01*
G01*
X247055000Y-119050000D01*
G75*
G02*
X247205000Y-119200000I0J-150000D01*
G01*
X247205000Y-120850000D01*
G75*
G02*
X247055000Y-121000000I-150000J0D01*
G01*
G37*
G36*
G01*
X247055000Y-125950000D02*
X246755000Y-125950000D01*
G75*
G02*
X246605000Y-125800000I0J150000D01*
G01*
X246605000Y-124150000D01*
G75*
G02*
X246755000Y-124000000I150000J0D01*
G01*
X247055000Y-124000000D01*
G75*
G02*
X247205000Y-124150000I0J-150000D01*
G01*
X247205000Y-125800000D01*
G75*
G02*
X247055000Y-125950000I-150000J0D01*
G01*
G37*
G36*
G01*
X245785000Y-125950000D02*
X245485000Y-125950000D01*
G75*
G02*
X245335000Y-125800000I0J150000D01*
G01*
X245335000Y-124150000D01*
G75*
G02*
X245485000Y-124000000I150000J0D01*
G01*
X245785000Y-124000000D01*
G75*
G02*
X245935000Y-124150000I0J-150000D01*
G01*
X245935000Y-125800000D01*
G75*
G02*
X245785000Y-125950000I-150000J0D01*
G01*
G37*
G36*
G01*
X244515000Y-125950000D02*
X244215000Y-125950000D01*
G75*
G02*
X244065000Y-125800000I0J150000D01*
G01*
X244065000Y-124150000D01*
G75*
G02*
X244215000Y-124000000I150000J0D01*
G01*
X244515000Y-124000000D01*
G75*
G02*
X244665000Y-124150000I0J-150000D01*
G01*
X244665000Y-125800000D01*
G75*
G02*
X244515000Y-125950000I-150000J0D01*
G01*
G37*
G36*
G01*
X243095000Y-125950000D02*
X243095000Y-125950000D01*
G75*
G02*
X242795000Y-125650000I0J300000D01*
G01*
X242795000Y-124300000D01*
G75*
G02*
X243095000Y-124000000I300000J0D01*
G01*
X243095000Y-124000000D01*
G75*
G02*
X243395000Y-124300000I0J-300000D01*
G01*
X243395000Y-125650000D01*
G75*
G02*
X243095000Y-125950000I-300000J0D01*
G01*
G37*
G04 #@! TD*
G04 #@! TO.C,U9*
G36*
G01*
X225880000Y-124397500D02*
X225880000Y-124052500D01*
G75*
G02*
X226052500Y-123880000I172500J0D01*
G01*
X226397500Y-123880000D01*
G75*
G02*
X226570000Y-124052500I0J-172500D01*
G01*
X226570000Y-124397500D01*
G75*
G02*
X226397500Y-124570000I-172500J0D01*
G01*
X226052500Y-124570000D01*
G75*
G02*
X225880000Y-124397500I0J172500D01*
G01*
G37*
G36*
G01*
X225880000Y-123547500D02*
X225880000Y-123202500D01*
G75*
G02*
X226052500Y-123030000I172500J0D01*
G01*
X226397500Y-123030000D01*
G75*
G02*
X226570000Y-123202500I0J-172500D01*
G01*
X226570000Y-123547500D01*
G75*
G02*
X226397500Y-123720000I-172500J0D01*
G01*
X226052500Y-123720000D01*
G75*
G02*
X225880000Y-123547500I0J172500D01*
G01*
G37*
G36*
G01*
X225030000Y-124397500D02*
X225030000Y-124052500D01*
G75*
G02*
X225202500Y-123880000I172500J0D01*
G01*
X225547500Y-123880000D01*
G75*
G02*
X225720000Y-124052500I0J-172500D01*
G01*
X225720000Y-124397500D01*
G75*
G02*
X225547500Y-124570000I-172500J0D01*
G01*
X225202500Y-124570000D01*
G75*
G02*
X225030000Y-124397500I0J172500D01*
G01*
G37*
G36*
G01*
X225030000Y-123547500D02*
X225030000Y-123202500D01*
G75*
G02*
X225202500Y-123030000I172500J0D01*
G01*
X225547500Y-123030000D01*
G75*
G02*
X225720000Y-123202500I0J-172500D01*
G01*
X225720000Y-123547500D01*
G75*
G02*
X225547500Y-123720000I-172500J0D01*
G01*
X225202500Y-123720000D01*
G75*
G02*
X225030000Y-123547500I0J172500D01*
G01*
G37*
G36*
G01*
X224925000Y-122687500D02*
X224925000Y-121987500D01*
G75*
G02*
X224987500Y-121925000I62500J0D01*
G01*
X225112500Y-121925000D01*
G75*
G02*
X225175000Y-121987500I0J-62500D01*
G01*
X225175000Y-122687500D01*
G75*
G02*
X225112500Y-122750000I-62500J0D01*
G01*
X224987500Y-122750000D01*
G75*
G02*
X224925000Y-122687500I0J62500D01*
G01*
G37*
G36*
G01*
X225425000Y-122687500D02*
X225425000Y-121987500D01*
G75*
G02*
X225487500Y-121925000I62500J0D01*
G01*
X225612500Y-121925000D01*
G75*
G02*
X225675000Y-121987500I0J-62500D01*
G01*
X225675000Y-122687500D01*
G75*
G02*
X225612500Y-122750000I-62500J0D01*
G01*
X225487500Y-122750000D01*
G75*
G02*
X225425000Y-122687500I0J62500D01*
G01*
G37*
G36*
G01*
X225925000Y-122687500D02*
X225925000Y-121987500D01*
G75*
G02*
X225987500Y-121925000I62500J0D01*
G01*
X226112500Y-121925000D01*
G75*
G02*
X226175000Y-121987500I0J-62500D01*
G01*
X226175000Y-122687500D01*
G75*
G02*
X226112500Y-122750000I-62500J0D01*
G01*
X225987500Y-122750000D01*
G75*
G02*
X225925000Y-122687500I0J62500D01*
G01*
G37*
G36*
G01*
X226425000Y-122687500D02*
X226425000Y-121987500D01*
G75*
G02*
X226487500Y-121925000I62500J0D01*
G01*
X226612500Y-121925000D01*
G75*
G02*
X226675000Y-121987500I0J-62500D01*
G01*
X226675000Y-122687500D01*
G75*
G02*
X226612500Y-122750000I-62500J0D01*
G01*
X226487500Y-122750000D01*
G75*
G02*
X226425000Y-122687500I0J62500D01*
G01*
G37*
G36*
G01*
X226850000Y-123112500D02*
X226850000Y-122987500D01*
G75*
G02*
X226912500Y-122925000I62500J0D01*
G01*
X227612500Y-122925000D01*
G75*
G02*
X227675000Y-122987500I0J-62500D01*
G01*
X227675000Y-123112500D01*
G75*
G02*
X227612500Y-123175000I-62500J0D01*
G01*
X226912500Y-123175000D01*
G75*
G02*
X226850000Y-123112500I0J62500D01*
G01*
G37*
G36*
G01*
X226850000Y-123612500D02*
X226850000Y-123487500D01*
G75*
G02*
X226912500Y-123425000I62500J0D01*
G01*
X227612500Y-123425000D01*
G75*
G02*
X227675000Y-123487500I0J-62500D01*
G01*
X227675000Y-123612500D01*
G75*
G02*
X227612500Y-123675000I-62500J0D01*
G01*
X226912500Y-123675000D01*
G75*
G02*
X226850000Y-123612500I0J62500D01*
G01*
G37*
G36*
G01*
X226850000Y-124112500D02*
X226850000Y-123987500D01*
G75*
G02*
X226912500Y-123925000I62500J0D01*
G01*
X227612500Y-123925000D01*
G75*
G02*
X227675000Y-123987500I0J-62500D01*
G01*
X227675000Y-124112500D01*
G75*
G02*
X227612500Y-124175000I-62500J0D01*
G01*
X226912500Y-124175000D01*
G75*
G02*
X226850000Y-124112500I0J62500D01*
G01*
G37*
G36*
G01*
X226850000Y-124612500D02*
X226850000Y-124487500D01*
G75*
G02*
X226912500Y-124425000I62500J0D01*
G01*
X227612500Y-124425000D01*
G75*
G02*
X227675000Y-124487500I0J-62500D01*
G01*
X227675000Y-124612500D01*
G75*
G02*
X227612500Y-124675000I-62500J0D01*
G01*
X226912500Y-124675000D01*
G75*
G02*
X226850000Y-124612500I0J62500D01*
G01*
G37*
G36*
G01*
X226425000Y-125612500D02*
X226425000Y-124912500D01*
G75*
G02*
X226487500Y-124850000I62500J0D01*
G01*
X226612500Y-124850000D01*
G75*
G02*
X226675000Y-124912500I0J-62500D01*
G01*
X226675000Y-125612500D01*
G75*
G02*
X226612500Y-125675000I-62500J0D01*
G01*
X226487500Y-125675000D01*
G75*
G02*
X226425000Y-125612500I0J62500D01*
G01*
G37*
G36*
G01*
X225925000Y-125612500D02*
X225925000Y-124912500D01*
G75*
G02*
X225987500Y-124850000I62500J0D01*
G01*
X226112500Y-124850000D01*
G75*
G02*
X226175000Y-124912500I0J-62500D01*
G01*
X226175000Y-125612500D01*
G75*
G02*
X226112500Y-125675000I-62500J0D01*
G01*
X225987500Y-125675000D01*
G75*
G02*
X225925000Y-125612500I0J62500D01*
G01*
G37*
G36*
G01*
X225425000Y-125612500D02*
X225425000Y-124912500D01*
G75*
G02*
X225487500Y-124850000I62500J0D01*
G01*
X225612500Y-124850000D01*
G75*
G02*
X225675000Y-124912500I0J-62500D01*
G01*
X225675000Y-125612500D01*
G75*
G02*
X225612500Y-125675000I-62500J0D01*
G01*
X225487500Y-125675000D01*
G75*
G02*
X225425000Y-125612500I0J62500D01*
G01*
G37*
G36*
G01*
X224925000Y-125612500D02*
X224925000Y-124912500D01*
G75*
G02*
X224987500Y-124850000I62500J0D01*
G01*
X225112500Y-124850000D01*
G75*
G02*
X225175000Y-124912500I0J-62500D01*
G01*
X225175000Y-125612500D01*
G75*
G02*
X225112500Y-125675000I-62500J0D01*
G01*
X224987500Y-125675000D01*
G75*
G02*
X224925000Y-125612500I0J62500D01*
G01*
G37*
G36*
G01*
X223925000Y-124612500D02*
X223925000Y-124487500D01*
G75*
G02*
X223987500Y-124425000I62500J0D01*
G01*
X224687500Y-124425000D01*
G75*
G02*
X224750000Y-124487500I0J-62500D01*
G01*
X224750000Y-124612500D01*
G75*
G02*
X224687500Y-124675000I-62500J0D01*
G01*
X223987500Y-124675000D01*
G75*
G02*
X223925000Y-124612500I0J62500D01*
G01*
G37*
G36*
G01*
X223925000Y-124112500D02*
X223925000Y-123987500D01*
G75*
G02*
X223987500Y-123925000I62500J0D01*
G01*
X224687500Y-123925000D01*
G75*
G02*
X224750000Y-123987500I0J-62500D01*
G01*
X224750000Y-124112500D01*
G75*
G02*
X224687500Y-124175000I-62500J0D01*
G01*
X223987500Y-124175000D01*
G75*
G02*
X223925000Y-124112500I0J62500D01*
G01*
G37*
G36*
G01*
X223925000Y-123612500D02*
X223925000Y-123487500D01*
G75*
G02*
X223987500Y-123425000I62500J0D01*
G01*
X224687500Y-123425000D01*
G75*
G02*
X224750000Y-123487500I0J-62500D01*
G01*
X224750000Y-123612500D01*
G75*
G02*
X224687500Y-123675000I-62500J0D01*
G01*
X223987500Y-123675000D01*
G75*
G02*
X223925000Y-123612500I0J62500D01*
G01*
G37*
G36*
G01*
X223925000Y-123112500D02*
X223925000Y-122987500D01*
G75*
G02*
X223987500Y-122925000I62500J0D01*
G01*
X224687500Y-122925000D01*
G75*
G02*
X224750000Y-122987500I0J-62500D01*
G01*
X224750000Y-123112500D01*
G75*
G02*
X224687500Y-123175000I-62500J0D01*
G01*
X223987500Y-123175000D01*
G75*
G02*
X223925000Y-123112500I0J62500D01*
G01*
G37*
G04 #@! TD*
G04 #@! TO.C,R27*
G36*
G01*
X225275000Y-119725000D02*
X225275000Y-119175000D01*
G75*
G02*
X225475000Y-118975000I200000J0D01*
G01*
X225875000Y-118975000D01*
G75*
G02*
X226075000Y-119175000I0J-200000D01*
G01*
X226075000Y-119725000D01*
G75*
G02*
X225875000Y-119925000I-200000J0D01*
G01*
X225475000Y-119925000D01*
G75*
G02*
X225275000Y-119725000I0J200000D01*
G01*
G37*
G36*
G01*
X223625000Y-119725000D02*
X223625000Y-119175000D01*
G75*
G02*
X223825000Y-118975000I200000J0D01*
G01*
X224225000Y-118975000D01*
G75*
G02*
X224425000Y-119175000I0J-200000D01*
G01*
X224425000Y-119725000D01*
G75*
G02*
X224225000Y-119925000I-200000J0D01*
G01*
X223825000Y-119925000D01*
G75*
G02*
X223625000Y-119725000I0J200000D01*
G01*
G37*
G04 #@! TD*
G04 #@! TO.C,C41*
G36*
G01*
X247800000Y-132950001D02*
X247800000Y-131649999D01*
G75*
G02*
X248049999Y-131400000I249999J0D01*
G01*
X248700001Y-131400000D01*
G75*
G02*
X248950000Y-131649999I0J-249999D01*
G01*
X248950000Y-132950001D01*
G75*
G02*
X248700001Y-133200000I-249999J0D01*
G01*
X248049999Y-133200000D01*
G75*
G02*
X247800000Y-132950001I0J249999D01*
G01*
G37*
G36*
G01*
X244850000Y-132950001D02*
X244850000Y-131649999D01*
G75*
G02*
X245099999Y-131400000I249999J0D01*
G01*
X245750001Y-131400000D01*
G75*
G02*
X246000000Y-131649999I0J-249999D01*
G01*
X246000000Y-132950001D01*
G75*
G02*
X245750001Y-133200000I-249999J0D01*
G01*
X245099999Y-133200000D01*
G75*
G02*
X244850000Y-132950001I0J249999D01*
G01*
G37*
G04 #@! TD*
G04 #@! TO.C,R66*
G36*
G01*
X209225000Y-112775000D02*
X209225000Y-112225000D01*
G75*
G02*
X209425000Y-112025000I200000J0D01*
G01*
X209825000Y-112025000D01*
G75*
G02*
X210025000Y-112225000I0J-200000D01*
G01*
X210025000Y-112775000D01*
G75*
G02*
X209825000Y-112975000I-200000J0D01*
G01*
X209425000Y-112975000D01*
G75*
G02*
X209225000Y-112775000I0J200000D01*
G01*
G37*
G36*
G01*
X207575000Y-112775000D02*
X207575000Y-112225000D01*
G75*
G02*
X207775000Y-112025000I200000J0D01*
G01*
X208175000Y-112025000D01*
G75*
G02*
X208375000Y-112225000I0J-200000D01*
G01*
X208375000Y-112775000D01*
G75*
G02*
X208175000Y-112975000I-200000J0D01*
G01*
X207775000Y-112975000D01*
G75*
G02*
X207575000Y-112775000I0J200000D01*
G01*
G37*
G04 #@! TD*
D18*
G04 #@! TO.C,D16*
X216800000Y-108350000D03*
X216800000Y-106450000D03*
X214800000Y-107400000D03*
G04 #@! TD*
D24*
G04 #@! TO.C,D31*
X231850000Y-143000000D03*
X235150000Y-143000000D03*
G04 #@! TD*
G04 #@! TO.C,L1*
G36*
G01*
X258225000Y-109212500D02*
X258225000Y-113987500D01*
G75*
G02*
X257862500Y-114350000I-362500J0D01*
G01*
X257137500Y-114350000D01*
G75*
G02*
X256775000Y-113987500I0J362500D01*
G01*
X256775000Y-109212500D01*
G75*
G02*
X257137500Y-108850000I362500J0D01*
G01*
X257862500Y-108850000D01*
G75*
G02*
X258225000Y-109212500I0J-362500D01*
G01*
G37*
D25*
X253500000Y-111600000D03*
G04 #@! TD*
G04 #@! TO.C,C1*
G36*
G01*
X254900000Y-124849999D02*
X254900000Y-126150001D01*
G75*
G02*
X254650001Y-126400000I-249999J0D01*
G01*
X253999999Y-126400000D01*
G75*
G02*
X253750000Y-126150001I0J249999D01*
G01*
X253750000Y-124849999D01*
G75*
G02*
X253999999Y-124600000I249999J0D01*
G01*
X254650001Y-124600000D01*
G75*
G02*
X254900000Y-124849999I0J-249999D01*
G01*
G37*
G36*
G01*
X257850000Y-124849999D02*
X257850000Y-126150001D01*
G75*
G02*
X257600001Y-126400000I-249999J0D01*
G01*
X256949999Y-126400000D01*
G75*
G02*
X256700000Y-126150001I0J249999D01*
G01*
X256700000Y-124849999D01*
G75*
G02*
X256949999Y-124600000I249999J0D01*
G01*
X257600001Y-124600000D01*
G75*
G02*
X257850000Y-124849999I0J-249999D01*
G01*
G37*
G04 #@! TD*
G04 #@! TO.C,C29*
G36*
G01*
X245525000Y-127250000D02*
X245525000Y-126750000D01*
G75*
G02*
X245750000Y-126525000I225000J0D01*
G01*
X246200000Y-126525000D01*
G75*
G02*
X246425000Y-126750000I0J-225000D01*
G01*
X246425000Y-127250000D01*
G75*
G02*
X246200000Y-127475000I-225000J0D01*
G01*
X245750000Y-127475000D01*
G75*
G02*
X245525000Y-127250000I0J225000D01*
G01*
G37*
G36*
G01*
X243975000Y-127250000D02*
X243975000Y-126750000D01*
G75*
G02*
X244200000Y-126525000I225000J0D01*
G01*
X244650000Y-126525000D01*
G75*
G02*
X244875000Y-126750000I0J-225000D01*
G01*
X244875000Y-127250000D01*
G75*
G02*
X244650000Y-127475000I-225000J0D01*
G01*
X244200000Y-127475000D01*
G75*
G02*
X243975000Y-127250000I0J225000D01*
G01*
G37*
G04 #@! TD*
G04 #@! TO.C,R19*
G36*
G01*
X216875000Y-125925000D02*
X216875000Y-126475000D01*
G75*
G02*
X216675000Y-126675000I-200000J0D01*
G01*
X216275000Y-126675000D01*
G75*
G02*
X216075000Y-126475000I0J200000D01*
G01*
X216075000Y-125925000D01*
G75*
G02*
X216275000Y-125725000I200000J0D01*
G01*
X216675000Y-125725000D01*
G75*
G02*
X216875000Y-125925000I0J-200000D01*
G01*
G37*
G36*
G01*
X218525000Y-125925000D02*
X218525000Y-126475000D01*
G75*
G02*
X218325000Y-126675000I-200000J0D01*
G01*
X217925000Y-126675000D01*
G75*
G02*
X217725000Y-126475000I0J200000D01*
G01*
X217725000Y-125925000D01*
G75*
G02*
X217925000Y-125725000I200000J0D01*
G01*
X218325000Y-125725000D01*
G75*
G02*
X218525000Y-125925000I0J-200000D01*
G01*
G37*
G04 #@! TD*
G04 #@! TO.C,R63*
G36*
G01*
X207275000Y-142625000D02*
X207825000Y-142625000D01*
G75*
G02*
X208025000Y-142825000I0J-200000D01*
G01*
X208025000Y-143225000D01*
G75*
G02*
X207825000Y-143425000I-200000J0D01*
G01*
X207275000Y-143425000D01*
G75*
G02*
X207075000Y-143225000I0J200000D01*
G01*
X207075000Y-142825000D01*
G75*
G02*
X207275000Y-142625000I200000J0D01*
G01*
G37*
G36*
G01*
X207275000Y-140975000D02*
X207825000Y-140975000D01*
G75*
G02*
X208025000Y-141175000I0J-200000D01*
G01*
X208025000Y-141575000D01*
G75*
G02*
X207825000Y-141775000I-200000J0D01*
G01*
X207275000Y-141775000D01*
G75*
G02*
X207075000Y-141575000I0J200000D01*
G01*
X207075000Y-141175000D01*
G75*
G02*
X207275000Y-140975000I200000J0D01*
G01*
G37*
G04 #@! TD*
G04 #@! TO.C,R52*
G36*
G01*
X211775000Y-113325000D02*
X211775000Y-113875000D01*
G75*
G02*
X211575000Y-114075000I-200000J0D01*
G01*
X211175000Y-114075000D01*
G75*
G02*
X210975000Y-113875000I0J200000D01*
G01*
X210975000Y-113325000D01*
G75*
G02*
X211175000Y-113125000I200000J0D01*
G01*
X211575000Y-113125000D01*
G75*
G02*
X211775000Y-113325000I0J-200000D01*
G01*
G37*
G36*
G01*
X213425000Y-113325000D02*
X213425000Y-113875000D01*
G75*
G02*
X213225000Y-114075000I-200000J0D01*
G01*
X212825000Y-114075000D01*
G75*
G02*
X212625000Y-113875000I0J200000D01*
G01*
X212625000Y-113325000D01*
G75*
G02*
X212825000Y-113125000I200000J0D01*
G01*
X213225000Y-113125000D01*
G75*
G02*
X213425000Y-113325000I0J-200000D01*
G01*
G37*
G04 #@! TD*
G04 #@! TO.C,R51*
G36*
G01*
X213425000Y-108825000D02*
X213425000Y-109375000D01*
G75*
G02*
X213225000Y-109575000I-200000J0D01*
G01*
X212825000Y-109575000D01*
G75*
G02*
X212625000Y-109375000I0J200000D01*
G01*
X212625000Y-108825000D01*
G75*
G02*
X212825000Y-108625000I200000J0D01*
G01*
X213225000Y-108625000D01*
G75*
G02*
X213425000Y-108825000I0J-200000D01*
G01*
G37*
G36*
G01*
X211775000Y-108825000D02*
X211775000Y-109375000D01*
G75*
G02*
X211575000Y-109575000I-200000J0D01*
G01*
X211175000Y-109575000D01*
G75*
G02*
X210975000Y-109375000I0J200000D01*
G01*
X210975000Y-108825000D01*
G75*
G02*
X211175000Y-108625000I200000J0D01*
G01*
X211575000Y-108625000D01*
G75*
G02*
X211775000Y-108825000I0J-200000D01*
G01*
G37*
G04 #@! TD*
G04 #@! TO.C,R50*
G36*
G01*
X210125000Y-118675000D02*
X210125000Y-119225000D01*
G75*
G02*
X209925000Y-119425000I-200000J0D01*
G01*
X209525000Y-119425000D01*
G75*
G02*
X209325000Y-119225000I0J200000D01*
G01*
X209325000Y-118675000D01*
G75*
G02*
X209525000Y-118475000I200000J0D01*
G01*
X209925000Y-118475000D01*
G75*
G02*
X210125000Y-118675000I0J-200000D01*
G01*
G37*
G36*
G01*
X211775000Y-118675000D02*
X211775000Y-119225000D01*
G75*
G02*
X211575000Y-119425000I-200000J0D01*
G01*
X211175000Y-119425000D01*
G75*
G02*
X210975000Y-119225000I0J200000D01*
G01*
X210975000Y-118675000D01*
G75*
G02*
X211175000Y-118475000I200000J0D01*
G01*
X211575000Y-118475000D01*
G75*
G02*
X211775000Y-118675000I0J-200000D01*
G01*
G37*
G04 #@! TD*
G04 #@! TO.C,R49*
G36*
G01*
X209225000Y-109775000D02*
X209225000Y-109225000D01*
G75*
G02*
X209425000Y-109025000I200000J0D01*
G01*
X209825000Y-109025000D01*
G75*
G02*
X210025000Y-109225000I0J-200000D01*
G01*
X210025000Y-109775000D01*
G75*
G02*
X209825000Y-109975000I-200000J0D01*
G01*
X209425000Y-109975000D01*
G75*
G02*
X209225000Y-109775000I0J200000D01*
G01*
G37*
G36*
G01*
X207575000Y-109775000D02*
X207575000Y-109225000D01*
G75*
G02*
X207775000Y-109025000I200000J0D01*
G01*
X208175000Y-109025000D01*
G75*
G02*
X208375000Y-109225000I0J-200000D01*
G01*
X208375000Y-109775000D01*
G75*
G02*
X208175000Y-109975000I-200000J0D01*
G01*
X207775000Y-109975000D01*
G75*
G02*
X207575000Y-109775000I0J200000D01*
G01*
G37*
G04 #@! TD*
G04 #@! TO.C,R47*
G36*
G01*
X206325000Y-141775000D02*
X205775000Y-141775000D01*
G75*
G02*
X205575000Y-141575000I0J200000D01*
G01*
X205575000Y-141175000D01*
G75*
G02*
X205775000Y-140975000I200000J0D01*
G01*
X206325000Y-140975000D01*
G75*
G02*
X206525000Y-141175000I0J-200000D01*
G01*
X206525000Y-141575000D01*
G75*
G02*
X206325000Y-141775000I-200000J0D01*
G01*
G37*
G36*
G01*
X206325000Y-143425000D02*
X205775000Y-143425000D01*
G75*
G02*
X205575000Y-143225000I0J200000D01*
G01*
X205575000Y-142825000D01*
G75*
G02*
X205775000Y-142625000I200000J0D01*
G01*
X206325000Y-142625000D01*
G75*
G02*
X206525000Y-142825000I0J-200000D01*
G01*
X206525000Y-143225000D01*
G75*
G02*
X206325000Y-143425000I-200000J0D01*
G01*
G37*
G04 #@! TD*
G04 #@! TO.C,R46*
G36*
G01*
X210975000Y-106275000D02*
X210975000Y-105725000D01*
G75*
G02*
X211175000Y-105525000I200000J0D01*
G01*
X211575000Y-105525000D01*
G75*
G02*
X211775000Y-105725000I0J-200000D01*
G01*
X211775000Y-106275000D01*
G75*
G02*
X211575000Y-106475000I-200000J0D01*
G01*
X211175000Y-106475000D01*
G75*
G02*
X210975000Y-106275000I0J200000D01*
G01*
G37*
G36*
G01*
X212625000Y-106275000D02*
X212625000Y-105725000D01*
G75*
G02*
X212825000Y-105525000I200000J0D01*
G01*
X213225000Y-105525000D01*
G75*
G02*
X213425000Y-105725000I0J-200000D01*
G01*
X213425000Y-106275000D01*
G75*
G02*
X213225000Y-106475000I-200000J0D01*
G01*
X212825000Y-106475000D01*
G75*
G02*
X212625000Y-106275000I0J200000D01*
G01*
G37*
G04 #@! TD*
G04 #@! TO.C,R45*
G36*
G01*
X212625000Y-110875000D02*
X212625000Y-110325000D01*
G75*
G02*
X212825000Y-110125000I200000J0D01*
G01*
X213225000Y-110125000D01*
G75*
G02*
X213425000Y-110325000I0J-200000D01*
G01*
X213425000Y-110875000D01*
G75*
G02*
X213225000Y-111075000I-200000J0D01*
G01*
X212825000Y-111075000D01*
G75*
G02*
X212625000Y-110875000I0J200000D01*
G01*
G37*
G36*
G01*
X210975000Y-110875000D02*
X210975000Y-110325000D01*
G75*
G02*
X211175000Y-110125000I200000J0D01*
G01*
X211575000Y-110125000D01*
G75*
G02*
X211775000Y-110325000I0J-200000D01*
G01*
X211775000Y-110875000D01*
G75*
G02*
X211575000Y-111075000I-200000J0D01*
G01*
X211175000Y-111075000D01*
G75*
G02*
X210975000Y-110875000I0J200000D01*
G01*
G37*
G04 #@! TD*
G04 #@! TO.C,R44*
G36*
G01*
X210975000Y-122375000D02*
X210975000Y-121825000D01*
G75*
G02*
X211175000Y-121625000I200000J0D01*
G01*
X211575000Y-121625000D01*
G75*
G02*
X211775000Y-121825000I0J-200000D01*
G01*
X211775000Y-122375000D01*
G75*
G02*
X211575000Y-122575000I-200000J0D01*
G01*
X211175000Y-122575000D01*
G75*
G02*
X210975000Y-122375000I0J200000D01*
G01*
G37*
G36*
G01*
X209325000Y-122375000D02*
X209325000Y-121825000D01*
G75*
G02*
X209525000Y-121625000I200000J0D01*
G01*
X209925000Y-121625000D01*
G75*
G02*
X210125000Y-121825000I0J-200000D01*
G01*
X210125000Y-122375000D01*
G75*
G02*
X209925000Y-122575000I-200000J0D01*
G01*
X209525000Y-122575000D01*
G75*
G02*
X209325000Y-122375000I0J200000D01*
G01*
G37*
G04 #@! TD*
G04 #@! TO.C,R43*
G36*
G01*
X209325000Y-141775000D02*
X208775000Y-141775000D01*
G75*
G02*
X208575000Y-141575000I0J200000D01*
G01*
X208575000Y-141175000D01*
G75*
G02*
X208775000Y-140975000I200000J0D01*
G01*
X209325000Y-140975000D01*
G75*
G02*
X209525000Y-141175000I0J-200000D01*
G01*
X209525000Y-141575000D01*
G75*
G02*
X209325000Y-141775000I-200000J0D01*
G01*
G37*
G36*
G01*
X209325000Y-143425000D02*
X208775000Y-143425000D01*
G75*
G02*
X208575000Y-143225000I0J200000D01*
G01*
X208575000Y-142825000D01*
G75*
G02*
X208775000Y-142625000I200000J0D01*
G01*
X209325000Y-142625000D01*
G75*
G02*
X209525000Y-142825000I0J-200000D01*
G01*
X209525000Y-143225000D01*
G75*
G02*
X209325000Y-143425000I-200000J0D01*
G01*
G37*
G04 #@! TD*
G04 #@! TO.C,R40*
G36*
G01*
X205375000Y-105575000D02*
X205375000Y-106125000D01*
G75*
G02*
X205175000Y-106325000I-200000J0D01*
G01*
X204775000Y-106325000D01*
G75*
G02*
X204575000Y-106125000I0J200000D01*
G01*
X204575000Y-105575000D01*
G75*
G02*
X204775000Y-105375000I200000J0D01*
G01*
X205175000Y-105375000D01*
G75*
G02*
X205375000Y-105575000I0J-200000D01*
G01*
G37*
G36*
G01*
X207025000Y-105575000D02*
X207025000Y-106125000D01*
G75*
G02*
X206825000Y-106325000I-200000J0D01*
G01*
X206425000Y-106325000D01*
G75*
G02*
X206225000Y-106125000I0J200000D01*
G01*
X206225000Y-105575000D01*
G75*
G02*
X206425000Y-105375000I200000J0D01*
G01*
X206825000Y-105375000D01*
G75*
G02*
X207025000Y-105575000I0J-200000D01*
G01*
G37*
G04 #@! TD*
G04 #@! TO.C,R39*
G36*
G01*
X226575000Y-143725000D02*
X226575000Y-144275000D01*
G75*
G02*
X226375000Y-144475000I-200000J0D01*
G01*
X225975000Y-144475000D01*
G75*
G02*
X225775000Y-144275000I0J200000D01*
G01*
X225775000Y-143725000D01*
G75*
G02*
X225975000Y-143525000I200000J0D01*
G01*
X226375000Y-143525000D01*
G75*
G02*
X226575000Y-143725000I0J-200000D01*
G01*
G37*
G36*
G01*
X228225000Y-143725000D02*
X228225000Y-144275000D01*
G75*
G02*
X228025000Y-144475000I-200000J0D01*
G01*
X227625000Y-144475000D01*
G75*
G02*
X227425000Y-144275000I0J200000D01*
G01*
X227425000Y-143725000D01*
G75*
G02*
X227625000Y-143525000I200000J0D01*
G01*
X228025000Y-143525000D01*
G75*
G02*
X228225000Y-143725000I0J-200000D01*
G01*
G37*
G04 #@! TD*
G04 #@! TO.C,R38*
G36*
G01*
X227425000Y-142775000D02*
X227425000Y-142225000D01*
G75*
G02*
X227625000Y-142025000I200000J0D01*
G01*
X228025000Y-142025000D01*
G75*
G02*
X228225000Y-142225000I0J-200000D01*
G01*
X228225000Y-142775000D01*
G75*
G02*
X228025000Y-142975000I-200000J0D01*
G01*
X227625000Y-142975000D01*
G75*
G02*
X227425000Y-142775000I0J200000D01*
G01*
G37*
G36*
G01*
X225775000Y-142775000D02*
X225775000Y-142225000D01*
G75*
G02*
X225975000Y-142025000I200000J0D01*
G01*
X226375000Y-142025000D01*
G75*
G02*
X226575000Y-142225000I0J-200000D01*
G01*
X226575000Y-142775000D01*
G75*
G02*
X226375000Y-142975000I-200000J0D01*
G01*
X225975000Y-142975000D01*
G75*
G02*
X225775000Y-142775000I0J200000D01*
G01*
G37*
G04 #@! TD*
G04 #@! TO.C,R36*
G36*
G01*
X242875000Y-142875000D02*
X242875000Y-143425000D01*
G75*
G02*
X242675000Y-143625000I-200000J0D01*
G01*
X242275000Y-143625000D01*
G75*
G02*
X242075000Y-143425000I0J200000D01*
G01*
X242075000Y-142875000D01*
G75*
G02*
X242275000Y-142675000I200000J0D01*
G01*
X242675000Y-142675000D01*
G75*
G02*
X242875000Y-142875000I0J-200000D01*
G01*
G37*
G36*
G01*
X244525000Y-142875000D02*
X244525000Y-143425000D01*
G75*
G02*
X244325000Y-143625000I-200000J0D01*
G01*
X243925000Y-143625000D01*
G75*
G02*
X243725000Y-143425000I0J200000D01*
G01*
X243725000Y-142875000D01*
G75*
G02*
X243925000Y-142675000I200000J0D01*
G01*
X244325000Y-142675000D01*
G75*
G02*
X244525000Y-142875000I0J-200000D01*
G01*
G37*
G04 #@! TD*
G04 #@! TO.C,R35*
G36*
G01*
X216875000Y-123925000D02*
X216875000Y-124475000D01*
G75*
G02*
X216675000Y-124675000I-200000J0D01*
G01*
X216275000Y-124675000D01*
G75*
G02*
X216075000Y-124475000I0J200000D01*
G01*
X216075000Y-123925000D01*
G75*
G02*
X216275000Y-123725000I200000J0D01*
G01*
X216675000Y-123725000D01*
G75*
G02*
X216875000Y-123925000I0J-200000D01*
G01*
G37*
G36*
G01*
X218525000Y-123925000D02*
X218525000Y-124475000D01*
G75*
G02*
X218325000Y-124675000I-200000J0D01*
G01*
X217925000Y-124675000D01*
G75*
G02*
X217725000Y-124475000I0J200000D01*
G01*
X217725000Y-123925000D01*
G75*
G02*
X217925000Y-123725000I200000J0D01*
G01*
X218325000Y-123725000D01*
G75*
G02*
X218525000Y-123925000I0J-200000D01*
G01*
G37*
G04 #@! TD*
G04 #@! TO.C,R32*
G36*
G01*
X224575000Y-129625000D02*
X224575000Y-130175000D01*
G75*
G02*
X224375000Y-130375000I-200000J0D01*
G01*
X223975000Y-130375000D01*
G75*
G02*
X223775000Y-130175000I0J200000D01*
G01*
X223775000Y-129625000D01*
G75*
G02*
X223975000Y-129425000I200000J0D01*
G01*
X224375000Y-129425000D01*
G75*
G02*
X224575000Y-129625000I0J-200000D01*
G01*
G37*
G36*
G01*
X226225000Y-129625000D02*
X226225000Y-130175000D01*
G75*
G02*
X226025000Y-130375000I-200000J0D01*
G01*
X225625000Y-130375000D01*
G75*
G02*
X225425000Y-130175000I0J200000D01*
G01*
X225425000Y-129625000D01*
G75*
G02*
X225625000Y-129425000I200000J0D01*
G01*
X226025000Y-129425000D01*
G75*
G02*
X226225000Y-129625000I0J-200000D01*
G01*
G37*
G04 #@! TD*
G04 #@! TO.C,R29*
G36*
G01*
X229925000Y-120925000D02*
X230475000Y-120925000D01*
G75*
G02*
X230675000Y-121125000I0J-200000D01*
G01*
X230675000Y-121525000D01*
G75*
G02*
X230475000Y-121725000I-200000J0D01*
G01*
X229925000Y-121725000D01*
G75*
G02*
X229725000Y-121525000I0J200000D01*
G01*
X229725000Y-121125000D01*
G75*
G02*
X229925000Y-120925000I200000J0D01*
G01*
G37*
G36*
G01*
X229925000Y-119275000D02*
X230475000Y-119275000D01*
G75*
G02*
X230675000Y-119475000I0J-200000D01*
G01*
X230675000Y-119875000D01*
G75*
G02*
X230475000Y-120075000I-200000J0D01*
G01*
X229925000Y-120075000D01*
G75*
G02*
X229725000Y-119875000I0J200000D01*
G01*
X229725000Y-119475000D01*
G75*
G02*
X229925000Y-119275000I200000J0D01*
G01*
G37*
G04 #@! TD*
G04 #@! TO.C,R24*
G36*
G01*
X231275000Y-124075000D02*
X230725000Y-124075000D01*
G75*
G02*
X230525000Y-123875000I0J200000D01*
G01*
X230525000Y-123475000D01*
G75*
G02*
X230725000Y-123275000I200000J0D01*
G01*
X231275000Y-123275000D01*
G75*
G02*
X231475000Y-123475000I0J-200000D01*
G01*
X231475000Y-123875000D01*
G75*
G02*
X231275000Y-124075000I-200000J0D01*
G01*
G37*
G36*
G01*
X231275000Y-125725000D02*
X230725000Y-125725000D01*
G75*
G02*
X230525000Y-125525000I0J200000D01*
G01*
X230525000Y-125125000D01*
G75*
G02*
X230725000Y-124925000I200000J0D01*
G01*
X231275000Y-124925000D01*
G75*
G02*
X231475000Y-125125000I0J-200000D01*
G01*
X231475000Y-125525000D01*
G75*
G02*
X231275000Y-125725000I-200000J0D01*
G01*
G37*
G04 #@! TD*
G04 #@! TO.C,R23*
G36*
G01*
X228975000Y-120075000D02*
X228425000Y-120075000D01*
G75*
G02*
X228225000Y-119875000I0J200000D01*
G01*
X228225000Y-119475000D01*
G75*
G02*
X228425000Y-119275000I200000J0D01*
G01*
X228975000Y-119275000D01*
G75*
G02*
X229175000Y-119475000I0J-200000D01*
G01*
X229175000Y-119875000D01*
G75*
G02*
X228975000Y-120075000I-200000J0D01*
G01*
G37*
G36*
G01*
X228975000Y-121725000D02*
X228425000Y-121725000D01*
G75*
G02*
X228225000Y-121525000I0J200000D01*
G01*
X228225000Y-121125000D01*
G75*
G02*
X228425000Y-120925000I200000J0D01*
G01*
X228975000Y-120925000D01*
G75*
G02*
X229175000Y-121125000I0J-200000D01*
G01*
X229175000Y-121525000D01*
G75*
G02*
X228975000Y-121725000I-200000J0D01*
G01*
G37*
G04 #@! TD*
G04 #@! TO.C,R22*
G36*
G01*
X229775000Y-124075000D02*
X229225000Y-124075000D01*
G75*
G02*
X229025000Y-123875000I0J200000D01*
G01*
X229025000Y-123475000D01*
G75*
G02*
X229225000Y-123275000I200000J0D01*
G01*
X229775000Y-123275000D01*
G75*
G02*
X229975000Y-123475000I0J-200000D01*
G01*
X229975000Y-123875000D01*
G75*
G02*
X229775000Y-124075000I-200000J0D01*
G01*
G37*
G36*
G01*
X229775000Y-125725000D02*
X229225000Y-125725000D01*
G75*
G02*
X229025000Y-125525000I0J200000D01*
G01*
X229025000Y-125125000D01*
G75*
G02*
X229225000Y-124925000I200000J0D01*
G01*
X229775000Y-124925000D01*
G75*
G02*
X229975000Y-125125000I0J-200000D01*
G01*
X229975000Y-125525000D01*
G75*
G02*
X229775000Y-125725000I-200000J0D01*
G01*
G37*
G04 #@! TD*
G04 #@! TO.C,R21*
G36*
G01*
X209825000Y-128275000D02*
X209275000Y-128275000D01*
G75*
G02*
X209075000Y-128075000I0J200000D01*
G01*
X209075000Y-127675000D01*
G75*
G02*
X209275000Y-127475000I200000J0D01*
G01*
X209825000Y-127475000D01*
G75*
G02*
X210025000Y-127675000I0J-200000D01*
G01*
X210025000Y-128075000D01*
G75*
G02*
X209825000Y-128275000I-200000J0D01*
G01*
G37*
G36*
G01*
X209825000Y-129925000D02*
X209275000Y-129925000D01*
G75*
G02*
X209075000Y-129725000I0J200000D01*
G01*
X209075000Y-129325000D01*
G75*
G02*
X209275000Y-129125000I200000J0D01*
G01*
X209825000Y-129125000D01*
G75*
G02*
X210025000Y-129325000I0J-200000D01*
G01*
X210025000Y-129725000D01*
G75*
G02*
X209825000Y-129925000I-200000J0D01*
G01*
G37*
G04 #@! TD*
G04 #@! TO.C,R18*
G36*
G01*
X211275000Y-129125000D02*
X211825000Y-129125000D01*
G75*
G02*
X212025000Y-129325000I0J-200000D01*
G01*
X212025000Y-129725000D01*
G75*
G02*
X211825000Y-129925000I-200000J0D01*
G01*
X211275000Y-129925000D01*
G75*
G02*
X211075000Y-129725000I0J200000D01*
G01*
X211075000Y-129325000D01*
G75*
G02*
X211275000Y-129125000I200000J0D01*
G01*
G37*
G36*
G01*
X211275000Y-127475000D02*
X211825000Y-127475000D01*
G75*
G02*
X212025000Y-127675000I0J-200000D01*
G01*
X212025000Y-128075000D01*
G75*
G02*
X211825000Y-128275000I-200000J0D01*
G01*
X211275000Y-128275000D01*
G75*
G02*
X211075000Y-128075000I0J200000D01*
G01*
X211075000Y-127675000D01*
G75*
G02*
X211275000Y-127475000I200000J0D01*
G01*
G37*
G04 #@! TD*
G04 #@! TO.C,R16*
G36*
G01*
X190225000Y-106175000D02*
X190225000Y-105625000D01*
G75*
G02*
X190425000Y-105425000I200000J0D01*
G01*
X190825000Y-105425000D01*
G75*
G02*
X191025000Y-105625000I0J-200000D01*
G01*
X191025000Y-106175000D01*
G75*
G02*
X190825000Y-106375000I-200000J0D01*
G01*
X190425000Y-106375000D01*
G75*
G02*
X190225000Y-106175000I0J200000D01*
G01*
G37*
G36*
G01*
X188575000Y-106175000D02*
X188575000Y-105625000D01*
G75*
G02*
X188775000Y-105425000I200000J0D01*
G01*
X189175000Y-105425000D01*
G75*
G02*
X189375000Y-105625000I0J-200000D01*
G01*
X189375000Y-106175000D01*
G75*
G02*
X189175000Y-106375000I-200000J0D01*
G01*
X188775000Y-106375000D01*
G75*
G02*
X188575000Y-106175000I0J200000D01*
G01*
G37*
G04 #@! TD*
G04 #@! TO.C,R14*
G36*
G01*
X196325000Y-105625000D02*
X196325000Y-106175000D01*
G75*
G02*
X196125000Y-106375000I-200000J0D01*
G01*
X195725000Y-106375000D01*
G75*
G02*
X195525000Y-106175000I0J200000D01*
G01*
X195525000Y-105625000D01*
G75*
G02*
X195725000Y-105425000I200000J0D01*
G01*
X196125000Y-105425000D01*
G75*
G02*
X196325000Y-105625000I0J-200000D01*
G01*
G37*
G36*
G01*
X197975000Y-105625000D02*
X197975000Y-106175000D01*
G75*
G02*
X197775000Y-106375000I-200000J0D01*
G01*
X197375000Y-106375000D01*
G75*
G02*
X197175000Y-106175000I0J200000D01*
G01*
X197175000Y-105625000D01*
G75*
G02*
X197375000Y-105425000I200000J0D01*
G01*
X197775000Y-105425000D01*
G75*
G02*
X197975000Y-105625000I0J-200000D01*
G01*
G37*
G04 #@! TD*
G04 #@! TO.C,R13*
G36*
G01*
X225275000Y-121225000D02*
X225275000Y-120675000D01*
G75*
G02*
X225475000Y-120475000I200000J0D01*
G01*
X225875000Y-120475000D01*
G75*
G02*
X226075000Y-120675000I0J-200000D01*
G01*
X226075000Y-121225000D01*
G75*
G02*
X225875000Y-121425000I-200000J0D01*
G01*
X225475000Y-121425000D01*
G75*
G02*
X225275000Y-121225000I0J200000D01*
G01*
G37*
G36*
G01*
X223625000Y-121225000D02*
X223625000Y-120675000D01*
G75*
G02*
X223825000Y-120475000I200000J0D01*
G01*
X224225000Y-120475000D01*
G75*
G02*
X224425000Y-120675000I0J-200000D01*
G01*
X224425000Y-121225000D01*
G75*
G02*
X224225000Y-121425000I-200000J0D01*
G01*
X223825000Y-121425000D01*
G75*
G02*
X223625000Y-121225000I0J200000D01*
G01*
G37*
G04 #@! TD*
G04 #@! TO.C,R11*
G36*
G01*
X237525000Y-136325000D02*
X236975000Y-136325000D01*
G75*
G02*
X236775000Y-136125000I0J200000D01*
G01*
X236775000Y-135725000D01*
G75*
G02*
X236975000Y-135525000I200000J0D01*
G01*
X237525000Y-135525000D01*
G75*
G02*
X237725000Y-135725000I0J-200000D01*
G01*
X237725000Y-136125000D01*
G75*
G02*
X237525000Y-136325000I-200000J0D01*
G01*
G37*
G36*
G01*
X237525000Y-137975000D02*
X236975000Y-137975000D01*
G75*
G02*
X236775000Y-137775000I0J200000D01*
G01*
X236775000Y-137375000D01*
G75*
G02*
X236975000Y-137175000I200000J0D01*
G01*
X237525000Y-137175000D01*
G75*
G02*
X237725000Y-137375000I0J-200000D01*
G01*
X237725000Y-137775000D01*
G75*
G02*
X237525000Y-137975000I-200000J0D01*
G01*
G37*
G04 #@! TD*
G04 #@! TO.C,R10*
G36*
G01*
X224575000Y-126625000D02*
X224575000Y-127175000D01*
G75*
G02*
X224375000Y-127375000I-200000J0D01*
G01*
X223975000Y-127375000D01*
G75*
G02*
X223775000Y-127175000I0J200000D01*
G01*
X223775000Y-126625000D01*
G75*
G02*
X223975000Y-126425000I200000J0D01*
G01*
X224375000Y-126425000D01*
G75*
G02*
X224575000Y-126625000I0J-200000D01*
G01*
G37*
G36*
G01*
X226225000Y-126625000D02*
X226225000Y-127175000D01*
G75*
G02*
X226025000Y-127375000I-200000J0D01*
G01*
X225625000Y-127375000D01*
G75*
G02*
X225425000Y-127175000I0J200000D01*
G01*
X225425000Y-126625000D01*
G75*
G02*
X225625000Y-126425000I200000J0D01*
G01*
X226025000Y-126425000D01*
G75*
G02*
X226225000Y-126625000I0J-200000D01*
G01*
G37*
G04 #@! TD*
G04 #@! TO.C,R9*
G36*
G01*
X216875000Y-122175000D02*
X216875000Y-122725000D01*
G75*
G02*
X216675000Y-122925000I-200000J0D01*
G01*
X216275000Y-122925000D01*
G75*
G02*
X216075000Y-122725000I0J200000D01*
G01*
X216075000Y-122175000D01*
G75*
G02*
X216275000Y-121975000I200000J0D01*
G01*
X216675000Y-121975000D01*
G75*
G02*
X216875000Y-122175000I0J-200000D01*
G01*
G37*
G36*
G01*
X218525000Y-122175000D02*
X218525000Y-122725000D01*
G75*
G02*
X218325000Y-122925000I-200000J0D01*
G01*
X217925000Y-122925000D01*
G75*
G02*
X217725000Y-122725000I0J200000D01*
G01*
X217725000Y-122175000D01*
G75*
G02*
X217925000Y-121975000I200000J0D01*
G01*
X218325000Y-121975000D01*
G75*
G02*
X218525000Y-122175000I0J-200000D01*
G01*
G37*
G04 #@! TD*
G04 #@! TO.C,R5*
G36*
G01*
X221875000Y-142175000D02*
X221875000Y-142725000D01*
G75*
G02*
X221675000Y-142925000I-200000J0D01*
G01*
X221275000Y-142925000D01*
G75*
G02*
X221075000Y-142725000I0J200000D01*
G01*
X221075000Y-142175000D01*
G75*
G02*
X221275000Y-141975000I200000J0D01*
G01*
X221675000Y-141975000D01*
G75*
G02*
X221875000Y-142175000I0J-200000D01*
G01*
G37*
G36*
G01*
X223525000Y-142175000D02*
X223525000Y-142725000D01*
G75*
G02*
X223325000Y-142925000I-200000J0D01*
G01*
X222925000Y-142925000D01*
G75*
G02*
X222725000Y-142725000I0J200000D01*
G01*
X222725000Y-142175000D01*
G75*
G02*
X222925000Y-141975000I200000J0D01*
G01*
X223325000Y-141975000D01*
G75*
G02*
X223525000Y-142175000I0J-200000D01*
G01*
G37*
G04 #@! TD*
G04 #@! TO.C,C38*
G36*
G01*
X211875000Y-111850000D02*
X211875000Y-112350000D01*
G75*
G02*
X211650000Y-112575000I-225000J0D01*
G01*
X211200000Y-112575000D01*
G75*
G02*
X210975000Y-112350000I0J225000D01*
G01*
X210975000Y-111850000D01*
G75*
G02*
X211200000Y-111625000I225000J0D01*
G01*
X211650000Y-111625000D01*
G75*
G02*
X211875000Y-111850000I0J-225000D01*
G01*
G37*
G36*
G01*
X213425000Y-111850000D02*
X213425000Y-112350000D01*
G75*
G02*
X213200000Y-112575000I-225000J0D01*
G01*
X212750000Y-112575000D01*
G75*
G02*
X212525000Y-112350000I0J225000D01*
G01*
X212525000Y-111850000D01*
G75*
G02*
X212750000Y-111625000I225000J0D01*
G01*
X213200000Y-111625000D01*
G75*
G02*
X213425000Y-111850000I0J-225000D01*
G01*
G37*
G04 #@! TD*
G04 #@! TO.C,C37*
G36*
G01*
X213425000Y-107350000D02*
X213425000Y-107850000D01*
G75*
G02*
X213200000Y-108075000I-225000J0D01*
G01*
X212750000Y-108075000D01*
G75*
G02*
X212525000Y-107850000I0J225000D01*
G01*
X212525000Y-107350000D01*
G75*
G02*
X212750000Y-107125000I225000J0D01*
G01*
X213200000Y-107125000D01*
G75*
G02*
X213425000Y-107350000I0J-225000D01*
G01*
G37*
G36*
G01*
X211875000Y-107350000D02*
X211875000Y-107850000D01*
G75*
G02*
X211650000Y-108075000I-225000J0D01*
G01*
X211200000Y-108075000D01*
G75*
G02*
X210975000Y-107850000I0J225000D01*
G01*
X210975000Y-107350000D01*
G75*
G02*
X211200000Y-107125000I225000J0D01*
G01*
X211650000Y-107125000D01*
G75*
G02*
X211875000Y-107350000I0J-225000D01*
G01*
G37*
G04 #@! TD*
G04 #@! TO.C,C36*
G36*
G01*
X210225000Y-120350000D02*
X210225000Y-120850000D01*
G75*
G02*
X210000000Y-121075000I-225000J0D01*
G01*
X209550000Y-121075000D01*
G75*
G02*
X209325000Y-120850000I0J225000D01*
G01*
X209325000Y-120350000D01*
G75*
G02*
X209550000Y-120125000I225000J0D01*
G01*
X210000000Y-120125000D01*
G75*
G02*
X210225000Y-120350000I0J-225000D01*
G01*
G37*
G36*
G01*
X211775000Y-120350000D02*
X211775000Y-120850000D01*
G75*
G02*
X211550000Y-121075000I-225000J0D01*
G01*
X211100000Y-121075000D01*
G75*
G02*
X210875000Y-120850000I0J225000D01*
G01*
X210875000Y-120350000D01*
G75*
G02*
X211100000Y-120125000I225000J0D01*
G01*
X211550000Y-120125000D01*
G75*
G02*
X211775000Y-120350000I0J-225000D01*
G01*
G37*
G04 #@! TD*
G04 #@! TO.C,C35*
G36*
G01*
X209125000Y-111250000D02*
X209125000Y-110750000D01*
G75*
G02*
X209350000Y-110525000I225000J0D01*
G01*
X209800000Y-110525000D01*
G75*
G02*
X210025000Y-110750000I0J-225000D01*
G01*
X210025000Y-111250000D01*
G75*
G02*
X209800000Y-111475000I-225000J0D01*
G01*
X209350000Y-111475000D01*
G75*
G02*
X209125000Y-111250000I0J225000D01*
G01*
G37*
G36*
G01*
X207575000Y-111250000D02*
X207575000Y-110750000D01*
G75*
G02*
X207800000Y-110525000I225000J0D01*
G01*
X208250000Y-110525000D01*
G75*
G02*
X208475000Y-110750000I0J-225000D01*
G01*
X208475000Y-111250000D01*
G75*
G02*
X208250000Y-111475000I-225000J0D01*
G01*
X207800000Y-111475000D01*
G75*
G02*
X207575000Y-111250000I0J225000D01*
G01*
G37*
G04 #@! TD*
G04 #@! TO.C,C34*
G36*
G01*
X230250000Y-129975000D02*
X229750000Y-129975000D01*
G75*
G02*
X229525000Y-129750000I0J225000D01*
G01*
X229525000Y-129300000D01*
G75*
G02*
X229750000Y-129075000I225000J0D01*
G01*
X230250000Y-129075000D01*
G75*
G02*
X230475000Y-129300000I0J-225000D01*
G01*
X230475000Y-129750000D01*
G75*
G02*
X230250000Y-129975000I-225000J0D01*
G01*
G37*
G36*
G01*
X230250000Y-131525000D02*
X229750000Y-131525000D01*
G75*
G02*
X229525000Y-131300000I0J225000D01*
G01*
X229525000Y-130850000D01*
G75*
G02*
X229750000Y-130625000I225000J0D01*
G01*
X230250000Y-130625000D01*
G75*
G02*
X230475000Y-130850000I0J-225000D01*
G01*
X230475000Y-131300000D01*
G75*
G02*
X230250000Y-131525000I-225000J0D01*
G01*
G37*
G04 #@! TD*
G04 #@! TO.C,C33*
G36*
G01*
X262325000Y-98000000D02*
X262325000Y-97500000D01*
G75*
G02*
X262550000Y-97275000I225000J0D01*
G01*
X263000000Y-97275000D01*
G75*
G02*
X263225000Y-97500000I0J-225000D01*
G01*
X263225000Y-98000000D01*
G75*
G02*
X263000000Y-98225000I-225000J0D01*
G01*
X262550000Y-98225000D01*
G75*
G02*
X262325000Y-98000000I0J225000D01*
G01*
G37*
G36*
G01*
X260775000Y-98000000D02*
X260775000Y-97500000D01*
G75*
G02*
X261000000Y-97275000I225000J0D01*
G01*
X261450000Y-97275000D01*
G75*
G02*
X261675000Y-97500000I0J-225000D01*
G01*
X261675000Y-98000000D01*
G75*
G02*
X261450000Y-98225000I-225000J0D01*
G01*
X261000000Y-98225000D01*
G75*
G02*
X260775000Y-98000000I0J225000D01*
G01*
G37*
G04 #@! TD*
G04 #@! TO.C,C32*
G36*
G01*
X251300000Y-97775000D02*
X251800000Y-97775000D01*
G75*
G02*
X252025000Y-98000000I0J-225000D01*
G01*
X252025000Y-98450000D01*
G75*
G02*
X251800000Y-98675000I-225000J0D01*
G01*
X251300000Y-98675000D01*
G75*
G02*
X251075000Y-98450000I0J225000D01*
G01*
X251075000Y-98000000D01*
G75*
G02*
X251300000Y-97775000I225000J0D01*
G01*
G37*
G36*
G01*
X251300000Y-96225000D02*
X251800000Y-96225000D01*
G75*
G02*
X252025000Y-96450000I0J-225000D01*
G01*
X252025000Y-96900000D01*
G75*
G02*
X251800000Y-97125000I-225000J0D01*
G01*
X251300000Y-97125000D01*
G75*
G02*
X251075000Y-96900000I0J225000D01*
G01*
X251075000Y-96450000D01*
G75*
G02*
X251300000Y-96225000I225000J0D01*
G01*
G37*
G04 #@! TD*
G04 #@! TO.C,C30*
G36*
G01*
X186100000Y-132049999D02*
X186100000Y-133350001D01*
G75*
G02*
X185850001Y-133600000I-249999J0D01*
G01*
X185199999Y-133600000D01*
G75*
G02*
X184950000Y-133350001I0J249999D01*
G01*
X184950000Y-132049999D01*
G75*
G02*
X185199999Y-131800000I249999J0D01*
G01*
X185850001Y-131800000D01*
G75*
G02*
X186100000Y-132049999I0J-249999D01*
G01*
G37*
G36*
G01*
X189050000Y-132049999D02*
X189050000Y-133350001D01*
G75*
G02*
X188800001Y-133600000I-249999J0D01*
G01*
X188149999Y-133600000D01*
G75*
G02*
X187900000Y-133350001I0J249999D01*
G01*
X187900000Y-132049999D01*
G75*
G02*
X188149999Y-131800000I249999J0D01*
G01*
X188800001Y-131800000D01*
G75*
G02*
X189050000Y-132049999I0J-249999D01*
G01*
G37*
G04 #@! TD*
G04 #@! TO.C,C23*
G36*
G01*
X222100000Y-124325000D02*
X222600000Y-124325000D01*
G75*
G02*
X222825000Y-124550000I0J-225000D01*
G01*
X222825000Y-125000000D01*
G75*
G02*
X222600000Y-125225000I-225000J0D01*
G01*
X222100000Y-125225000D01*
G75*
G02*
X221875000Y-125000000I0J225000D01*
G01*
X221875000Y-124550000D01*
G75*
G02*
X222100000Y-124325000I225000J0D01*
G01*
G37*
G36*
G01*
X222100000Y-122775000D02*
X222600000Y-122775000D01*
G75*
G02*
X222825000Y-123000000I0J-225000D01*
G01*
X222825000Y-123450000D01*
G75*
G02*
X222600000Y-123675000I-225000J0D01*
G01*
X222100000Y-123675000D01*
G75*
G02*
X221875000Y-123450000I0J225000D01*
G01*
X221875000Y-123000000D01*
G75*
G02*
X222100000Y-122775000I225000J0D01*
G01*
G37*
G04 #@! TD*
G04 #@! TO.C,C18*
G36*
G01*
X232600000Y-144599999D02*
X232600000Y-145900001D01*
G75*
G02*
X232350001Y-146150000I-249999J0D01*
G01*
X231699999Y-146150000D01*
G75*
G02*
X231450000Y-145900001I0J249999D01*
G01*
X231450000Y-144599999D01*
G75*
G02*
X231699999Y-144350000I249999J0D01*
G01*
X232350001Y-144350000D01*
G75*
G02*
X232600000Y-144599999I0J-249999D01*
G01*
G37*
G36*
G01*
X235550000Y-144599999D02*
X235550000Y-145900001D01*
G75*
G02*
X235300001Y-146150000I-249999J0D01*
G01*
X234649999Y-146150000D01*
G75*
G02*
X234400000Y-145900001I0J249999D01*
G01*
X234400000Y-144599999D01*
G75*
G02*
X234649999Y-144350000I249999J0D01*
G01*
X235300001Y-144350000D01*
G75*
G02*
X235550000Y-144599999I0J-249999D01*
G01*
G37*
G04 #@! TD*
G04 #@! TO.C,C17*
G36*
G01*
X235500000Y-137075000D02*
X236000000Y-137075000D01*
G75*
G02*
X236225000Y-137300000I0J-225000D01*
G01*
X236225000Y-137750000D01*
G75*
G02*
X236000000Y-137975000I-225000J0D01*
G01*
X235500000Y-137975000D01*
G75*
G02*
X235275000Y-137750000I0J225000D01*
G01*
X235275000Y-137300000D01*
G75*
G02*
X235500000Y-137075000I225000J0D01*
G01*
G37*
G36*
G01*
X235500000Y-135525000D02*
X236000000Y-135525000D01*
G75*
G02*
X236225000Y-135750000I0J-225000D01*
G01*
X236225000Y-136200000D01*
G75*
G02*
X236000000Y-136425000I-225000J0D01*
G01*
X235500000Y-136425000D01*
G75*
G02*
X235275000Y-136200000I0J225000D01*
G01*
X235275000Y-135750000D01*
G75*
G02*
X235500000Y-135525000I225000J0D01*
G01*
G37*
G04 #@! TD*
G04 #@! TO.C,C15*
G36*
G01*
X240250000Y-119475000D02*
X239750000Y-119475000D01*
G75*
G02*
X239525000Y-119250000I0J225000D01*
G01*
X239525000Y-118800000D01*
G75*
G02*
X239750000Y-118575000I225000J0D01*
G01*
X240250000Y-118575000D01*
G75*
G02*
X240475000Y-118800000I0J-225000D01*
G01*
X240475000Y-119250000D01*
G75*
G02*
X240250000Y-119475000I-225000J0D01*
G01*
G37*
G36*
G01*
X240250000Y-121025000D02*
X239750000Y-121025000D01*
G75*
G02*
X239525000Y-120800000I0J225000D01*
G01*
X239525000Y-120350000D01*
G75*
G02*
X239750000Y-120125000I225000J0D01*
G01*
X240250000Y-120125000D01*
G75*
G02*
X240475000Y-120350000I0J-225000D01*
G01*
X240475000Y-120800000D01*
G75*
G02*
X240250000Y-121025000I-225000J0D01*
G01*
G37*
G04 #@! TD*
G04 #@! TO.C,C14*
G36*
G01*
X187475000Y-130500000D02*
X187475000Y-131000000D01*
G75*
G02*
X187250000Y-131225000I-225000J0D01*
G01*
X186800000Y-131225000D01*
G75*
G02*
X186575000Y-131000000I0J225000D01*
G01*
X186575000Y-130500000D01*
G75*
G02*
X186800000Y-130275000I225000J0D01*
G01*
X187250000Y-130275000D01*
G75*
G02*
X187475000Y-130500000I0J-225000D01*
G01*
G37*
G36*
G01*
X189025000Y-130500000D02*
X189025000Y-131000000D01*
G75*
G02*
X188800000Y-131225000I-225000J0D01*
G01*
X188350000Y-131225000D01*
G75*
G02*
X188125000Y-131000000I0J225000D01*
G01*
X188125000Y-130500000D01*
G75*
G02*
X188350000Y-130275000I225000J0D01*
G01*
X188800000Y-130275000D01*
G75*
G02*
X189025000Y-130500000I0J-225000D01*
G01*
G37*
G04 #@! TD*
G04 #@! TO.C,C13*
G36*
G01*
X218050000Y-139875000D02*
X217550000Y-139875000D01*
G75*
G02*
X217325000Y-139650000I0J225000D01*
G01*
X217325000Y-139200000D01*
G75*
G02*
X217550000Y-138975000I225000J0D01*
G01*
X218050000Y-138975000D01*
G75*
G02*
X218275000Y-139200000I0J-225000D01*
G01*
X218275000Y-139650000D01*
G75*
G02*
X218050000Y-139875000I-225000J0D01*
G01*
G37*
G36*
G01*
X218050000Y-141425000D02*
X217550000Y-141425000D01*
G75*
G02*
X217325000Y-141200000I0J225000D01*
G01*
X217325000Y-140750000D01*
G75*
G02*
X217550000Y-140525000I225000J0D01*
G01*
X218050000Y-140525000D01*
G75*
G02*
X218275000Y-140750000I0J-225000D01*
G01*
X218275000Y-141200000D01*
G75*
G02*
X218050000Y-141425000I-225000J0D01*
G01*
G37*
G04 #@! TD*
G04 #@! TO.C,R89*
G36*
G01*
X187825000Y-145825000D02*
X188375000Y-145825000D01*
G75*
G02*
X188575000Y-146025000I0J-200000D01*
G01*
X188575000Y-146425000D01*
G75*
G02*
X188375000Y-146625000I-200000J0D01*
G01*
X187825000Y-146625000D01*
G75*
G02*
X187625000Y-146425000I0J200000D01*
G01*
X187625000Y-146025000D01*
G75*
G02*
X187825000Y-145825000I200000J0D01*
G01*
G37*
G36*
G01*
X187825000Y-144175000D02*
X188375000Y-144175000D01*
G75*
G02*
X188575000Y-144375000I0J-200000D01*
G01*
X188575000Y-144775000D01*
G75*
G02*
X188375000Y-144975000I-200000J0D01*
G01*
X187825000Y-144975000D01*
G75*
G02*
X187625000Y-144775000I0J200000D01*
G01*
X187625000Y-144375000D01*
G75*
G02*
X187825000Y-144175000I200000J0D01*
G01*
G37*
G04 #@! TD*
G04 #@! TO.C,R88*
G36*
G01*
X199725000Y-149675000D02*
X200275000Y-149675000D01*
G75*
G02*
X200475000Y-149875000I0J-200000D01*
G01*
X200475000Y-150275000D01*
G75*
G02*
X200275000Y-150475000I-200000J0D01*
G01*
X199725000Y-150475000D01*
G75*
G02*
X199525000Y-150275000I0J200000D01*
G01*
X199525000Y-149875000D01*
G75*
G02*
X199725000Y-149675000I200000J0D01*
G01*
G37*
G36*
G01*
X199725000Y-148025000D02*
X200275000Y-148025000D01*
G75*
G02*
X200475000Y-148225000I0J-200000D01*
G01*
X200475000Y-148625000D01*
G75*
G02*
X200275000Y-148825000I-200000J0D01*
G01*
X199725000Y-148825000D01*
G75*
G02*
X199525000Y-148625000I0J200000D01*
G01*
X199525000Y-148225000D01*
G75*
G02*
X199725000Y-148025000I200000J0D01*
G01*
G37*
G04 #@! TD*
G04 #@! TO.C,R87*
G36*
G01*
X249025000Y-99375000D02*
X249025000Y-98825000D01*
G75*
G02*
X249225000Y-98625000I200000J0D01*
G01*
X249625000Y-98625000D01*
G75*
G02*
X249825000Y-98825000I0J-200000D01*
G01*
X249825000Y-99375000D01*
G75*
G02*
X249625000Y-99575000I-200000J0D01*
G01*
X249225000Y-99575000D01*
G75*
G02*
X249025000Y-99375000I0J200000D01*
G01*
G37*
G36*
G01*
X247375000Y-99375000D02*
X247375000Y-98825000D01*
G75*
G02*
X247575000Y-98625000I200000J0D01*
G01*
X247975000Y-98625000D01*
G75*
G02*
X248175000Y-98825000I0J-200000D01*
G01*
X248175000Y-99375000D01*
G75*
G02*
X247975000Y-99575000I-200000J0D01*
G01*
X247575000Y-99575000D01*
G75*
G02*
X247375000Y-99375000I0J200000D01*
G01*
G37*
G04 #@! TD*
G04 #@! TO.C,R86*
G36*
G01*
X261025000Y-109475000D02*
X261025000Y-108925000D01*
G75*
G02*
X261225000Y-108725000I200000J0D01*
G01*
X261625000Y-108725000D01*
G75*
G02*
X261825000Y-108925000I0J-200000D01*
G01*
X261825000Y-109475000D01*
G75*
G02*
X261625000Y-109675000I-200000J0D01*
G01*
X261225000Y-109675000D01*
G75*
G02*
X261025000Y-109475000I0J200000D01*
G01*
G37*
G36*
G01*
X259375000Y-109475000D02*
X259375000Y-108925000D01*
G75*
G02*
X259575000Y-108725000I200000J0D01*
G01*
X259975000Y-108725000D01*
G75*
G02*
X260175000Y-108925000I0J-200000D01*
G01*
X260175000Y-109475000D01*
G75*
G02*
X259975000Y-109675000I-200000J0D01*
G01*
X259575000Y-109675000D01*
G75*
G02*
X259375000Y-109475000I0J200000D01*
G01*
G37*
G04 #@! TD*
G04 #@! TO.C,R85*
G36*
G01*
X212475000Y-138725000D02*
X212475000Y-138175000D01*
G75*
G02*
X212675000Y-137975000I200000J0D01*
G01*
X213075000Y-137975000D01*
G75*
G02*
X213275000Y-138175000I0J-200000D01*
G01*
X213275000Y-138725000D01*
G75*
G02*
X213075000Y-138925000I-200000J0D01*
G01*
X212675000Y-138925000D01*
G75*
G02*
X212475000Y-138725000I0J200000D01*
G01*
G37*
G36*
G01*
X210825000Y-138725000D02*
X210825000Y-138175000D01*
G75*
G02*
X211025000Y-137975000I200000J0D01*
G01*
X211425000Y-137975000D01*
G75*
G02*
X211625000Y-138175000I0J-200000D01*
G01*
X211625000Y-138725000D01*
G75*
G02*
X211425000Y-138925000I-200000J0D01*
G01*
X211025000Y-138925000D01*
G75*
G02*
X210825000Y-138725000I0J200000D01*
G01*
G37*
G04 #@! TD*
G04 #@! TO.C,R84*
G36*
G01*
X212475000Y-140225000D02*
X212475000Y-139675000D01*
G75*
G02*
X212675000Y-139475000I200000J0D01*
G01*
X213075000Y-139475000D01*
G75*
G02*
X213275000Y-139675000I0J-200000D01*
G01*
X213275000Y-140225000D01*
G75*
G02*
X213075000Y-140425000I-200000J0D01*
G01*
X212675000Y-140425000D01*
G75*
G02*
X212475000Y-140225000I0J200000D01*
G01*
G37*
G36*
G01*
X210825000Y-140225000D02*
X210825000Y-139675000D01*
G75*
G02*
X211025000Y-139475000I200000J0D01*
G01*
X211425000Y-139475000D01*
G75*
G02*
X211625000Y-139675000I0J-200000D01*
G01*
X211625000Y-140225000D01*
G75*
G02*
X211425000Y-140425000I-200000J0D01*
G01*
X211025000Y-140425000D01*
G75*
G02*
X210825000Y-140225000I0J200000D01*
G01*
G37*
G04 #@! TD*
G04 #@! TO.C,R8*
G36*
G01*
X263275000Y-108175000D02*
X262725000Y-108175000D01*
G75*
G02*
X262525000Y-107975000I0J200000D01*
G01*
X262525000Y-107575000D01*
G75*
G02*
X262725000Y-107375000I200000J0D01*
G01*
X263275000Y-107375000D01*
G75*
G02*
X263475000Y-107575000I0J-200000D01*
G01*
X263475000Y-107975000D01*
G75*
G02*
X263275000Y-108175000I-200000J0D01*
G01*
G37*
G36*
G01*
X263275000Y-109825000D02*
X262725000Y-109825000D01*
G75*
G02*
X262525000Y-109625000I0J200000D01*
G01*
X262525000Y-109225000D01*
G75*
G02*
X262725000Y-109025000I200000J0D01*
G01*
X263275000Y-109025000D01*
G75*
G02*
X263475000Y-109225000I0J-200000D01*
G01*
X263475000Y-109625000D01*
G75*
G02*
X263275000Y-109825000I-200000J0D01*
G01*
G37*
G04 #@! TD*
G04 #@! TO.C,R1*
G36*
G01*
X255325000Y-140725000D02*
X255875000Y-140725000D01*
G75*
G02*
X256075000Y-140925000I0J-200000D01*
G01*
X256075000Y-141325000D01*
G75*
G02*
X255875000Y-141525000I-200000J0D01*
G01*
X255325000Y-141525000D01*
G75*
G02*
X255125000Y-141325000I0J200000D01*
G01*
X255125000Y-140925000D01*
G75*
G02*
X255325000Y-140725000I200000J0D01*
G01*
G37*
G36*
G01*
X255325000Y-139075000D02*
X255875000Y-139075000D01*
G75*
G02*
X256075000Y-139275000I0J-200000D01*
G01*
X256075000Y-139675000D01*
G75*
G02*
X255875000Y-139875000I-200000J0D01*
G01*
X255325000Y-139875000D01*
G75*
G02*
X255125000Y-139675000I0J200000D01*
G01*
X255125000Y-139275000D01*
G75*
G02*
X255325000Y-139075000I200000J0D01*
G01*
G37*
G04 #@! TD*
D18*
G04 #@! TO.C,Q9*
X249700000Y-101600000D03*
X247700000Y-102550000D03*
X247700000Y-100650000D03*
G04 #@! TD*
D11*
G04 #@! TO.C,Q8*
X258200000Y-141200000D03*
X257250000Y-139200000D03*
X259150000Y-139200000D03*
G04 #@! TD*
D26*
G04 #@! TO.C,J1*
X192250000Y-144745000D03*
X192750000Y-144745000D03*
X193250000Y-144745000D03*
X195750000Y-144745000D03*
X195250000Y-144745000D03*
X194750000Y-144745000D03*
X193750000Y-144745000D03*
X194250000Y-144745000D03*
D27*
X196400000Y-144745000D03*
X191600000Y-144745000D03*
X197200000Y-144745000D03*
X190800000Y-144745000D03*
G04 #@! TD*
G04 #@! TO.C,FL1*
G36*
G01*
X256650000Y-133775000D02*
X256650000Y-135525000D01*
G75*
G02*
X256275000Y-135900000I-375000J0D01*
G01*
X255525000Y-135900000D01*
G75*
G02*
X255150000Y-135525000I0J375000D01*
G01*
X255150000Y-133775000D01*
G75*
G02*
X255525000Y-133400000I375000J0D01*
G01*
X256275000Y-133400000D01*
G75*
G02*
X256650000Y-133775000I0J-375000D01*
G01*
G37*
G36*
G01*
X256650000Y-126955500D02*
X256650000Y-129344500D01*
G75*
G02*
X256594500Y-129400000I-55500J0D01*
G01*
X255205500Y-129400000D01*
G75*
G02*
X255150000Y-129344500I0J55500D01*
G01*
X255150000Y-126955500D01*
G75*
G02*
X255205500Y-126900000I55500J0D01*
G01*
X256594500Y-126900000D01*
G75*
G02*
X256650000Y-126955500I0J-55500D01*
G01*
G37*
G36*
G01*
X259650000Y-133455500D02*
X259650000Y-135844500D01*
G75*
G02*
X259594500Y-135900000I-55500J0D01*
G01*
X258205500Y-135900000D01*
G75*
G02*
X258150000Y-135844500I0J55500D01*
G01*
X258150000Y-133455500D01*
G75*
G02*
X258205500Y-133400000I55500J0D01*
G01*
X259594500Y-133400000D01*
G75*
G02*
X259650000Y-133455500I0J-55500D01*
G01*
G37*
G36*
G01*
X259650000Y-126955500D02*
X259650000Y-129344500D01*
G75*
G02*
X259594500Y-129400000I-55500J0D01*
G01*
X258205500Y-129400000D01*
G75*
G02*
X258150000Y-129344500I0J55500D01*
G01*
X258150000Y-126955500D01*
G75*
G02*
X258205500Y-126900000I55500J0D01*
G01*
X259594500Y-126900000D01*
G75*
G02*
X259650000Y-126955500I0J-55500D01*
G01*
G37*
G04 #@! TD*
D28*
G04 #@! TO.C,D24*
X245800000Y-100850000D03*
X245800000Y-104150000D03*
G04 #@! TD*
G04 #@! TO.C,D18*
X255600000Y-119250000D03*
X255600000Y-115950000D03*
G04 #@! TD*
D24*
G04 #@! TO.C,D14*
X261750000Y-137300000D03*
X258450000Y-137300000D03*
G04 #@! TD*
D29*
G04 #@! TO.C,D13*
X260550000Y-144200000D03*
X256250000Y-144200000D03*
G04 #@! TD*
D24*
G04 #@! TO.C,D9*
X248450000Y-130000000D03*
X245150000Y-130000000D03*
G04 #@! TD*
G04 #@! TO.C,D8*
X210650000Y-145700000D03*
X213950000Y-145700000D03*
G04 #@! TD*
G04 #@! TO.C,D1*
X202150000Y-145450000D03*
X205450000Y-145450000D03*
G04 #@! TD*
G04 #@! TO.C,C24*
G36*
G01*
X242375000Y-115000000D02*
X242375000Y-115500000D01*
G75*
G02*
X242150000Y-115725000I-225000J0D01*
G01*
X241700000Y-115725000D01*
G75*
G02*
X241475000Y-115500000I0J225000D01*
G01*
X241475000Y-115000000D01*
G75*
G02*
X241700000Y-114775000I225000J0D01*
G01*
X242150000Y-114775000D01*
G75*
G02*
X242375000Y-115000000I0J-225000D01*
G01*
G37*
G36*
G01*
X243925000Y-115000000D02*
X243925000Y-115500000D01*
G75*
G02*
X243700000Y-115725000I-225000J0D01*
G01*
X243250000Y-115725000D01*
G75*
G02*
X243025000Y-115500000I0J225000D01*
G01*
X243025000Y-115000000D01*
G75*
G02*
X243250000Y-114775000I225000J0D01*
G01*
X243700000Y-114775000D01*
G75*
G02*
X243925000Y-115000000I0J-225000D01*
G01*
G37*
G04 #@! TD*
G04 #@! TO.C,C22*
G36*
G01*
X247400000Y-115900001D02*
X247400000Y-114599999D01*
G75*
G02*
X247649999Y-114350000I249999J0D01*
G01*
X248300001Y-114350000D01*
G75*
G02*
X248550000Y-114599999I0J-249999D01*
G01*
X248550000Y-115900001D01*
G75*
G02*
X248300001Y-116150000I-249999J0D01*
G01*
X247649999Y-116150000D01*
G75*
G02*
X247400000Y-115900001I0J249999D01*
G01*
G37*
G36*
G01*
X244450000Y-115900001D02*
X244450000Y-114599999D01*
G75*
G02*
X244699999Y-114350000I249999J0D01*
G01*
X245350001Y-114350000D01*
G75*
G02*
X245600000Y-114599999I0J-249999D01*
G01*
X245600000Y-115900001D01*
G75*
G02*
X245350001Y-116150000I-249999J0D01*
G01*
X244699999Y-116150000D01*
G75*
G02*
X244450000Y-115900001I0J249999D01*
G01*
G37*
G04 #@! TD*
G04 #@! TO.C,C12*
G36*
G01*
X241300000Y-103349999D02*
X241300000Y-104650001D01*
G75*
G02*
X241050001Y-104900000I-249999J0D01*
G01*
X240399999Y-104900000D01*
G75*
G02*
X240150000Y-104650001I0J249999D01*
G01*
X240150000Y-103349999D01*
G75*
G02*
X240399999Y-103100000I249999J0D01*
G01*
X241050001Y-103100000D01*
G75*
G02*
X241300000Y-103349999I0J-249999D01*
G01*
G37*
G36*
G01*
X244250000Y-103349999D02*
X244250000Y-104650001D01*
G75*
G02*
X244000001Y-104900000I-249999J0D01*
G01*
X243349999Y-104900000D01*
G75*
G02*
X243100000Y-104650001I0J249999D01*
G01*
X243100000Y-103349999D01*
G75*
G02*
X243349999Y-103100000I249999J0D01*
G01*
X244000001Y-103100000D01*
G75*
G02*
X244250000Y-103349999I0J-249999D01*
G01*
G37*
G04 #@! TD*
G04 #@! TO.C,C11*
G36*
G01*
X258550000Y-106575000D02*
X258050000Y-106575000D01*
G75*
G02*
X257825000Y-106350000I0J225000D01*
G01*
X257825000Y-105900000D01*
G75*
G02*
X258050000Y-105675000I225000J0D01*
G01*
X258550000Y-105675000D01*
G75*
G02*
X258775000Y-105900000I0J-225000D01*
G01*
X258775000Y-106350000D01*
G75*
G02*
X258550000Y-106575000I-225000J0D01*
G01*
G37*
G36*
G01*
X258550000Y-108125000D02*
X258050000Y-108125000D01*
G75*
G02*
X257825000Y-107900000I0J225000D01*
G01*
X257825000Y-107450000D01*
G75*
G02*
X258050000Y-107225000I225000J0D01*
G01*
X258550000Y-107225000D01*
G75*
G02*
X258775000Y-107450000I0J-225000D01*
G01*
X258775000Y-107900000D01*
G75*
G02*
X258550000Y-108125000I-225000J0D01*
G01*
G37*
G04 #@! TD*
G04 #@! TO.C,C8*
G36*
G01*
X257850000Y-116375000D02*
X257350000Y-116375000D01*
G75*
G02*
X257125000Y-116150000I0J225000D01*
G01*
X257125000Y-115700000D01*
G75*
G02*
X257350000Y-115475000I225000J0D01*
G01*
X257850000Y-115475000D01*
G75*
G02*
X258075000Y-115700000I0J-225000D01*
G01*
X258075000Y-116150000D01*
G75*
G02*
X257850000Y-116375000I-225000J0D01*
G01*
G37*
G36*
G01*
X257850000Y-117925000D02*
X257350000Y-117925000D01*
G75*
G02*
X257125000Y-117700000I0J225000D01*
G01*
X257125000Y-117250000D01*
G75*
G02*
X257350000Y-117025000I225000J0D01*
G01*
X257850000Y-117025000D01*
G75*
G02*
X258075000Y-117250000I0J-225000D01*
G01*
X258075000Y-117700000D01*
G75*
G02*
X257850000Y-117925000I-225000J0D01*
G01*
G37*
G04 #@! TD*
G04 #@! TO.C,C7*
G36*
G01*
X261870000Y-112300000D02*
X261530000Y-112300000D01*
G75*
G02*
X261390000Y-112160000I0J140000D01*
G01*
X261390000Y-111880000D01*
G75*
G02*
X261530000Y-111740000I140000J0D01*
G01*
X261870000Y-111740000D01*
G75*
G02*
X262010000Y-111880000I0J-140000D01*
G01*
X262010000Y-112160000D01*
G75*
G02*
X261870000Y-112300000I-140000J0D01*
G01*
G37*
G36*
G01*
X261870000Y-113260000D02*
X261530000Y-113260000D01*
G75*
G02*
X261390000Y-113120000I0J140000D01*
G01*
X261390000Y-112840000D01*
G75*
G02*
X261530000Y-112700000I140000J0D01*
G01*
X261870000Y-112700000D01*
G75*
G02*
X262010000Y-112840000I0J-140000D01*
G01*
X262010000Y-113120000D01*
G75*
G02*
X261870000Y-113260000I-140000J0D01*
G01*
G37*
G04 #@! TD*
G04 #@! TO.C,C5*
G36*
G01*
X260575000Y-114050000D02*
X260575000Y-114550000D01*
G75*
G02*
X260350000Y-114775000I-225000J0D01*
G01*
X259900000Y-114775000D01*
G75*
G02*
X259675000Y-114550000I0J225000D01*
G01*
X259675000Y-114050000D01*
G75*
G02*
X259900000Y-113825000I225000J0D01*
G01*
X260350000Y-113825000D01*
G75*
G02*
X260575000Y-114050000I0J-225000D01*
G01*
G37*
G36*
G01*
X262125000Y-114050000D02*
X262125000Y-114550000D01*
G75*
G02*
X261900000Y-114775000I-225000J0D01*
G01*
X261450000Y-114775000D01*
G75*
G02*
X261225000Y-114550000I0J225000D01*
G01*
X261225000Y-114050000D01*
G75*
G02*
X261450000Y-113825000I225000J0D01*
G01*
X261900000Y-113825000D01*
G75*
G02*
X262125000Y-114050000I0J-225000D01*
G01*
G37*
G04 #@! TD*
G04 #@! TO.C,C4*
G36*
G01*
X260125000Y-123750000D02*
X260125000Y-123250000D01*
G75*
G02*
X260350000Y-123025000I225000J0D01*
G01*
X260800000Y-123025000D01*
G75*
G02*
X261025000Y-123250000I0J-225000D01*
G01*
X261025000Y-123750000D01*
G75*
G02*
X260800000Y-123975000I-225000J0D01*
G01*
X260350000Y-123975000D01*
G75*
G02*
X260125000Y-123750000I0J225000D01*
G01*
G37*
G36*
G01*
X258575000Y-123750000D02*
X258575000Y-123250000D01*
G75*
G02*
X258800000Y-123025000I225000J0D01*
G01*
X259250000Y-123025000D01*
G75*
G02*
X259475000Y-123250000I0J-225000D01*
G01*
X259475000Y-123750000D01*
G75*
G02*
X259250000Y-123975000I-225000J0D01*
G01*
X258800000Y-123975000D01*
G75*
G02*
X258575000Y-123750000I0J225000D01*
G01*
G37*
G04 #@! TD*
G04 #@! TO.C,C3*
G36*
G01*
X263325000Y-123750000D02*
X263325000Y-123250000D01*
G75*
G02*
X263550000Y-123025000I225000J0D01*
G01*
X264000000Y-123025000D01*
G75*
G02*
X264225000Y-123250000I0J-225000D01*
G01*
X264225000Y-123750000D01*
G75*
G02*
X264000000Y-123975000I-225000J0D01*
G01*
X263550000Y-123975000D01*
G75*
G02*
X263325000Y-123750000I0J225000D01*
G01*
G37*
G36*
G01*
X261775000Y-123750000D02*
X261775000Y-123250000D01*
G75*
G02*
X262000000Y-123025000I225000J0D01*
G01*
X262450000Y-123025000D01*
G75*
G02*
X262675000Y-123250000I0J-225000D01*
G01*
X262675000Y-123750000D01*
G75*
G02*
X262450000Y-123975000I-225000J0D01*
G01*
X262000000Y-123975000D01*
G75*
G02*
X261775000Y-123750000I0J225000D01*
G01*
G37*
G04 #@! TD*
G04 #@! TO.C,C2*
G36*
G01*
X261500000Y-126150001D02*
X261500000Y-124849999D01*
G75*
G02*
X261749999Y-124600000I249999J0D01*
G01*
X262400001Y-124600000D01*
G75*
G02*
X262650000Y-124849999I0J-249999D01*
G01*
X262650000Y-126150001D01*
G75*
G02*
X262400001Y-126400000I-249999J0D01*
G01*
X261749999Y-126400000D01*
G75*
G02*
X261500000Y-126150001I0J249999D01*
G01*
G37*
G36*
G01*
X258550000Y-126150001D02*
X258550000Y-124849999D01*
G75*
G02*
X258799999Y-124600000I249999J0D01*
G01*
X259450001Y-124600000D01*
G75*
G02*
X259700000Y-124849999I0J-249999D01*
G01*
X259700000Y-126150001D01*
G75*
G02*
X259450001Y-126400000I-249999J0D01*
G01*
X258799999Y-126400000D01*
G75*
G02*
X258550000Y-126150001I0J249999D01*
G01*
G37*
G04 #@! TD*
G04 #@! TO.C,R82*
G36*
G01*
X238875000Y-124375000D02*
X238325000Y-124375000D01*
G75*
G02*
X238125000Y-124175000I0J200000D01*
G01*
X238125000Y-123775000D01*
G75*
G02*
X238325000Y-123575000I200000J0D01*
G01*
X238875000Y-123575000D01*
G75*
G02*
X239075000Y-123775000I0J-200000D01*
G01*
X239075000Y-124175000D01*
G75*
G02*
X238875000Y-124375000I-200000J0D01*
G01*
G37*
G36*
G01*
X238875000Y-126025000D02*
X238325000Y-126025000D01*
G75*
G02*
X238125000Y-125825000I0J200000D01*
G01*
X238125000Y-125425000D01*
G75*
G02*
X238325000Y-125225000I200000J0D01*
G01*
X238875000Y-125225000D01*
G75*
G02*
X239075000Y-125425000I0J-200000D01*
G01*
X239075000Y-125825000D01*
G75*
G02*
X238875000Y-126025000I-200000J0D01*
G01*
G37*
G04 #@! TD*
G04 #@! TO.C,R81*
G36*
G01*
X209225000Y-114275000D02*
X209225000Y-113725000D01*
G75*
G02*
X209425000Y-113525000I200000J0D01*
G01*
X209825000Y-113525000D01*
G75*
G02*
X210025000Y-113725000I0J-200000D01*
G01*
X210025000Y-114275000D01*
G75*
G02*
X209825000Y-114475000I-200000J0D01*
G01*
X209425000Y-114475000D01*
G75*
G02*
X209225000Y-114275000I0J200000D01*
G01*
G37*
G36*
G01*
X207575000Y-114275000D02*
X207575000Y-113725000D01*
G75*
G02*
X207775000Y-113525000I200000J0D01*
G01*
X208175000Y-113525000D01*
G75*
G02*
X208375000Y-113725000I0J-200000D01*
G01*
X208375000Y-114275000D01*
G75*
G02*
X208175000Y-114475000I-200000J0D01*
G01*
X207775000Y-114475000D01*
G75*
G02*
X207575000Y-114275000I0J200000D01*
G01*
G37*
G04 #@! TD*
G04 #@! TO.C,R80*
G36*
G01*
X206775000Y-107825000D02*
X206225000Y-107825000D01*
G75*
G02*
X206025000Y-107625000I0J200000D01*
G01*
X206025000Y-107225000D01*
G75*
G02*
X206225000Y-107025000I200000J0D01*
G01*
X206775000Y-107025000D01*
G75*
G02*
X206975000Y-107225000I0J-200000D01*
G01*
X206975000Y-107625000D01*
G75*
G02*
X206775000Y-107825000I-200000J0D01*
G01*
G37*
G36*
G01*
X206775000Y-109475000D02*
X206225000Y-109475000D01*
G75*
G02*
X206025000Y-109275000I0J200000D01*
G01*
X206025000Y-108875000D01*
G75*
G02*
X206225000Y-108675000I200000J0D01*
G01*
X206775000Y-108675000D01*
G75*
G02*
X206975000Y-108875000I0J-200000D01*
G01*
X206975000Y-109275000D01*
G75*
G02*
X206775000Y-109475000I-200000J0D01*
G01*
G37*
G04 #@! TD*
G04 #@! TO.C,R79*
G36*
G01*
X203725000Y-107725000D02*
X203175000Y-107725000D01*
G75*
G02*
X202975000Y-107525000I0J200000D01*
G01*
X202975000Y-107125000D01*
G75*
G02*
X203175000Y-106925000I200000J0D01*
G01*
X203725000Y-106925000D01*
G75*
G02*
X203925000Y-107125000I0J-200000D01*
G01*
X203925000Y-107525000D01*
G75*
G02*
X203725000Y-107725000I-200000J0D01*
G01*
G37*
G36*
G01*
X203725000Y-109375000D02*
X203175000Y-109375000D01*
G75*
G02*
X202975000Y-109175000I0J200000D01*
G01*
X202975000Y-108775000D01*
G75*
G02*
X203175000Y-108575000I200000J0D01*
G01*
X203725000Y-108575000D01*
G75*
G02*
X203925000Y-108775000I0J-200000D01*
G01*
X203925000Y-109175000D01*
G75*
G02*
X203725000Y-109375000I-200000J0D01*
G01*
G37*
G04 #@! TD*
G04 #@! TO.C,R78*
G36*
G01*
X189725000Y-107725000D02*
X189175000Y-107725000D01*
G75*
G02*
X188975000Y-107525000I0J200000D01*
G01*
X188975000Y-107125000D01*
G75*
G02*
X189175000Y-106925000I200000J0D01*
G01*
X189725000Y-106925000D01*
G75*
G02*
X189925000Y-107125000I0J-200000D01*
G01*
X189925000Y-107525000D01*
G75*
G02*
X189725000Y-107725000I-200000J0D01*
G01*
G37*
G36*
G01*
X189725000Y-109375000D02*
X189175000Y-109375000D01*
G75*
G02*
X188975000Y-109175000I0J200000D01*
G01*
X188975000Y-108775000D01*
G75*
G02*
X189175000Y-108575000I200000J0D01*
G01*
X189725000Y-108575000D01*
G75*
G02*
X189925000Y-108775000I0J-200000D01*
G01*
X189925000Y-109175000D01*
G75*
G02*
X189725000Y-109375000I-200000J0D01*
G01*
G37*
G04 #@! TD*
G04 #@! TO.C,R77*
G36*
G01*
X191475000Y-107725000D02*
X190925000Y-107725000D01*
G75*
G02*
X190725000Y-107525000I0J200000D01*
G01*
X190725000Y-107125000D01*
G75*
G02*
X190925000Y-106925000I200000J0D01*
G01*
X191475000Y-106925000D01*
G75*
G02*
X191675000Y-107125000I0J-200000D01*
G01*
X191675000Y-107525000D01*
G75*
G02*
X191475000Y-107725000I-200000J0D01*
G01*
G37*
G36*
G01*
X191475000Y-109375000D02*
X190925000Y-109375000D01*
G75*
G02*
X190725000Y-109175000I0J200000D01*
G01*
X190725000Y-108775000D01*
G75*
G02*
X190925000Y-108575000I200000J0D01*
G01*
X191475000Y-108575000D01*
G75*
G02*
X191675000Y-108775000I0J-200000D01*
G01*
X191675000Y-109175000D01*
G75*
G02*
X191475000Y-109375000I-200000J0D01*
G01*
G37*
G04 #@! TD*
G04 #@! TO.C,R76*
G36*
G01*
X197975000Y-107725000D02*
X197425000Y-107725000D01*
G75*
G02*
X197225000Y-107525000I0J200000D01*
G01*
X197225000Y-107125000D01*
G75*
G02*
X197425000Y-106925000I200000J0D01*
G01*
X197975000Y-106925000D01*
G75*
G02*
X198175000Y-107125000I0J-200000D01*
G01*
X198175000Y-107525000D01*
G75*
G02*
X197975000Y-107725000I-200000J0D01*
G01*
G37*
G36*
G01*
X197975000Y-109375000D02*
X197425000Y-109375000D01*
G75*
G02*
X197225000Y-109175000I0J200000D01*
G01*
X197225000Y-108775000D01*
G75*
G02*
X197425000Y-108575000I200000J0D01*
G01*
X197975000Y-108575000D01*
G75*
G02*
X198175000Y-108775000I0J-200000D01*
G01*
X198175000Y-109175000D01*
G75*
G02*
X197975000Y-109375000I-200000J0D01*
G01*
G37*
G04 #@! TD*
G04 #@! TO.C,R75*
G36*
G01*
X201975000Y-107725000D02*
X201425000Y-107725000D01*
G75*
G02*
X201225000Y-107525000I0J200000D01*
G01*
X201225000Y-107125000D01*
G75*
G02*
X201425000Y-106925000I200000J0D01*
G01*
X201975000Y-106925000D01*
G75*
G02*
X202175000Y-107125000I0J-200000D01*
G01*
X202175000Y-107525000D01*
G75*
G02*
X201975000Y-107725000I-200000J0D01*
G01*
G37*
G36*
G01*
X201975000Y-109375000D02*
X201425000Y-109375000D01*
G75*
G02*
X201225000Y-109175000I0J200000D01*
G01*
X201225000Y-108775000D01*
G75*
G02*
X201425000Y-108575000I200000J0D01*
G01*
X201975000Y-108575000D01*
G75*
G02*
X202175000Y-108775000I0J-200000D01*
G01*
X202175000Y-109175000D01*
G75*
G02*
X201975000Y-109375000I-200000J0D01*
G01*
G37*
G04 #@! TD*
G04 #@! TO.C,R74*
G36*
G01*
X199975000Y-107725000D02*
X199425000Y-107725000D01*
G75*
G02*
X199225000Y-107525000I0J200000D01*
G01*
X199225000Y-107125000D01*
G75*
G02*
X199425000Y-106925000I200000J0D01*
G01*
X199975000Y-106925000D01*
G75*
G02*
X200175000Y-107125000I0J-200000D01*
G01*
X200175000Y-107525000D01*
G75*
G02*
X199975000Y-107725000I-200000J0D01*
G01*
G37*
G36*
G01*
X199975000Y-109375000D02*
X199425000Y-109375000D01*
G75*
G02*
X199225000Y-109175000I0J200000D01*
G01*
X199225000Y-108775000D01*
G75*
G02*
X199425000Y-108575000I200000J0D01*
G01*
X199975000Y-108575000D01*
G75*
G02*
X200175000Y-108775000I0J-200000D01*
G01*
X200175000Y-109175000D01*
G75*
G02*
X199975000Y-109375000I-200000J0D01*
G01*
G37*
G04 #@! TD*
G04 #@! TO.C,R73*
G36*
G01*
X196275000Y-107675000D02*
X195725000Y-107675000D01*
G75*
G02*
X195525000Y-107475000I0J200000D01*
G01*
X195525000Y-107075000D01*
G75*
G02*
X195725000Y-106875000I200000J0D01*
G01*
X196275000Y-106875000D01*
G75*
G02*
X196475000Y-107075000I0J-200000D01*
G01*
X196475000Y-107475000D01*
G75*
G02*
X196275000Y-107675000I-200000J0D01*
G01*
G37*
G36*
G01*
X196275000Y-109325000D02*
X195725000Y-109325000D01*
G75*
G02*
X195525000Y-109125000I0J200000D01*
G01*
X195525000Y-108725000D01*
G75*
G02*
X195725000Y-108525000I200000J0D01*
G01*
X196275000Y-108525000D01*
G75*
G02*
X196475000Y-108725000I0J-200000D01*
G01*
X196475000Y-109125000D01*
G75*
G02*
X196275000Y-109325000I-200000J0D01*
G01*
G37*
G04 #@! TD*
G04 #@! TO.C,R72*
G36*
G01*
X215475000Y-113425000D02*
X215475000Y-113975000D01*
G75*
G02*
X215275000Y-114175000I-200000J0D01*
G01*
X214875000Y-114175000D01*
G75*
G02*
X214675000Y-113975000I0J200000D01*
G01*
X214675000Y-113425000D01*
G75*
G02*
X214875000Y-113225000I200000J0D01*
G01*
X215275000Y-113225000D01*
G75*
G02*
X215475000Y-113425000I0J-200000D01*
G01*
G37*
G36*
G01*
X217125000Y-113425000D02*
X217125000Y-113975000D01*
G75*
G02*
X216925000Y-114175000I-200000J0D01*
G01*
X216525000Y-114175000D01*
G75*
G02*
X216325000Y-113975000I0J200000D01*
G01*
X216325000Y-113425000D01*
G75*
G02*
X216525000Y-113225000I200000J0D01*
G01*
X216925000Y-113225000D01*
G75*
G02*
X217125000Y-113425000I0J-200000D01*
G01*
G37*
G04 #@! TD*
G04 #@! TO.C,R71*
G36*
G01*
X205475000Y-107725000D02*
X204925000Y-107725000D01*
G75*
G02*
X204725000Y-107525000I0J200000D01*
G01*
X204725000Y-107125000D01*
G75*
G02*
X204925000Y-106925000I200000J0D01*
G01*
X205475000Y-106925000D01*
G75*
G02*
X205675000Y-107125000I0J-200000D01*
G01*
X205675000Y-107525000D01*
G75*
G02*
X205475000Y-107725000I-200000J0D01*
G01*
G37*
G36*
G01*
X205475000Y-109375000D02*
X204925000Y-109375000D01*
G75*
G02*
X204725000Y-109175000I0J200000D01*
G01*
X204725000Y-108775000D01*
G75*
G02*
X204925000Y-108575000I200000J0D01*
G01*
X205475000Y-108575000D01*
G75*
G02*
X205675000Y-108775000I0J-200000D01*
G01*
X205675000Y-109175000D01*
G75*
G02*
X205475000Y-109375000I-200000J0D01*
G01*
G37*
G04 #@! TD*
G04 #@! TO.C,R70*
G36*
G01*
X194725000Y-107725000D02*
X194175000Y-107725000D01*
G75*
G02*
X193975000Y-107525000I0J200000D01*
G01*
X193975000Y-107125000D01*
G75*
G02*
X194175000Y-106925000I200000J0D01*
G01*
X194725000Y-106925000D01*
G75*
G02*
X194925000Y-107125000I0J-200000D01*
G01*
X194925000Y-107525000D01*
G75*
G02*
X194725000Y-107725000I-200000J0D01*
G01*
G37*
G36*
G01*
X194725000Y-109375000D02*
X194175000Y-109375000D01*
G75*
G02*
X193975000Y-109175000I0J200000D01*
G01*
X193975000Y-108775000D01*
G75*
G02*
X194175000Y-108575000I200000J0D01*
G01*
X194725000Y-108575000D01*
G75*
G02*
X194925000Y-108775000I0J-200000D01*
G01*
X194925000Y-109175000D01*
G75*
G02*
X194725000Y-109375000I-200000J0D01*
G01*
G37*
G04 #@! TD*
G04 #@! TO.C,R69*
G36*
G01*
X193125000Y-107725000D02*
X192575000Y-107725000D01*
G75*
G02*
X192375000Y-107525000I0J200000D01*
G01*
X192375000Y-107125000D01*
G75*
G02*
X192575000Y-106925000I200000J0D01*
G01*
X193125000Y-106925000D01*
G75*
G02*
X193325000Y-107125000I0J-200000D01*
G01*
X193325000Y-107525000D01*
G75*
G02*
X193125000Y-107725000I-200000J0D01*
G01*
G37*
G36*
G01*
X193125000Y-109375000D02*
X192575000Y-109375000D01*
G75*
G02*
X192375000Y-109175000I0J200000D01*
G01*
X192375000Y-108775000D01*
G75*
G02*
X192575000Y-108575000I200000J0D01*
G01*
X193125000Y-108575000D01*
G75*
G02*
X193325000Y-108775000I0J-200000D01*
G01*
X193325000Y-109175000D01*
G75*
G02*
X193125000Y-109375000I-200000J0D01*
G01*
G37*
G04 #@! TD*
G04 #@! TO.C,R68*
G36*
G01*
X257175000Y-102725000D02*
X257175000Y-103275000D01*
G75*
G02*
X256975000Y-103475000I-200000J0D01*
G01*
X256575000Y-103475000D01*
G75*
G02*
X256375000Y-103275000I0J200000D01*
G01*
X256375000Y-102725000D01*
G75*
G02*
X256575000Y-102525000I200000J0D01*
G01*
X256975000Y-102525000D01*
G75*
G02*
X257175000Y-102725000I0J-200000D01*
G01*
G37*
G36*
G01*
X258825000Y-102725000D02*
X258825000Y-103275000D01*
G75*
G02*
X258625000Y-103475000I-200000J0D01*
G01*
X258225000Y-103475000D01*
G75*
G02*
X258025000Y-103275000I0J200000D01*
G01*
X258025000Y-102725000D01*
G75*
G02*
X258225000Y-102525000I200000J0D01*
G01*
X258625000Y-102525000D01*
G75*
G02*
X258825000Y-102725000I0J-200000D01*
G01*
G37*
G04 #@! TD*
G04 #@! TO.C,R67*
G36*
G01*
X233725000Y-124925000D02*
X234275000Y-124925000D01*
G75*
G02*
X234475000Y-125125000I0J-200000D01*
G01*
X234475000Y-125525000D01*
G75*
G02*
X234275000Y-125725000I-200000J0D01*
G01*
X233725000Y-125725000D01*
G75*
G02*
X233525000Y-125525000I0J200000D01*
G01*
X233525000Y-125125000D01*
G75*
G02*
X233725000Y-124925000I200000J0D01*
G01*
G37*
G36*
G01*
X233725000Y-123275000D02*
X234275000Y-123275000D01*
G75*
G02*
X234475000Y-123475000I0J-200000D01*
G01*
X234475000Y-123875000D01*
G75*
G02*
X234275000Y-124075000I-200000J0D01*
G01*
X233725000Y-124075000D01*
G75*
G02*
X233525000Y-123875000I0J200000D01*
G01*
X233525000Y-123475000D01*
G75*
G02*
X233725000Y-123275000I200000J0D01*
G01*
G37*
G04 #@! TD*
G04 #@! TO.C,R62*
G36*
G01*
X203725000Y-131925000D02*
X204275000Y-131925000D01*
G75*
G02*
X204475000Y-132125000I0J-200000D01*
G01*
X204475000Y-132525000D01*
G75*
G02*
X204275000Y-132725000I-200000J0D01*
G01*
X203725000Y-132725000D01*
G75*
G02*
X203525000Y-132525000I0J200000D01*
G01*
X203525000Y-132125000D01*
G75*
G02*
X203725000Y-131925000I200000J0D01*
G01*
G37*
G36*
G01*
X203725000Y-130275000D02*
X204275000Y-130275000D01*
G75*
G02*
X204475000Y-130475000I0J-200000D01*
G01*
X204475000Y-130875000D01*
G75*
G02*
X204275000Y-131075000I-200000J0D01*
G01*
X203725000Y-131075000D01*
G75*
G02*
X203525000Y-130875000I0J200000D01*
G01*
X203525000Y-130475000D01*
G75*
G02*
X203725000Y-130275000I200000J0D01*
G01*
G37*
G04 #@! TD*
G04 #@! TO.C,R61*
G36*
G01*
X202225000Y-131925000D02*
X202775000Y-131925000D01*
G75*
G02*
X202975000Y-132125000I0J-200000D01*
G01*
X202975000Y-132525000D01*
G75*
G02*
X202775000Y-132725000I-200000J0D01*
G01*
X202225000Y-132725000D01*
G75*
G02*
X202025000Y-132525000I0J200000D01*
G01*
X202025000Y-132125000D01*
G75*
G02*
X202225000Y-131925000I200000J0D01*
G01*
G37*
G36*
G01*
X202225000Y-130275000D02*
X202775000Y-130275000D01*
G75*
G02*
X202975000Y-130475000I0J-200000D01*
G01*
X202975000Y-130875000D01*
G75*
G02*
X202775000Y-131075000I-200000J0D01*
G01*
X202225000Y-131075000D01*
G75*
G02*
X202025000Y-130875000I0J200000D01*
G01*
X202025000Y-130475000D01*
G75*
G02*
X202225000Y-130275000I200000J0D01*
G01*
G37*
G04 #@! TD*
G04 #@! TO.C,R60*
G36*
G01*
X200725000Y-131925000D02*
X201275000Y-131925000D01*
G75*
G02*
X201475000Y-132125000I0J-200000D01*
G01*
X201475000Y-132525000D01*
G75*
G02*
X201275000Y-132725000I-200000J0D01*
G01*
X200725000Y-132725000D01*
G75*
G02*
X200525000Y-132525000I0J200000D01*
G01*
X200525000Y-132125000D01*
G75*
G02*
X200725000Y-131925000I200000J0D01*
G01*
G37*
G36*
G01*
X200725000Y-130275000D02*
X201275000Y-130275000D01*
G75*
G02*
X201475000Y-130475000I0J-200000D01*
G01*
X201475000Y-130875000D01*
G75*
G02*
X201275000Y-131075000I-200000J0D01*
G01*
X200725000Y-131075000D01*
G75*
G02*
X200525000Y-130875000I0J200000D01*
G01*
X200525000Y-130475000D01*
G75*
G02*
X200725000Y-130275000I200000J0D01*
G01*
G37*
G04 #@! TD*
G04 #@! TO.C,R59*
G36*
G01*
X199225000Y-131925000D02*
X199775000Y-131925000D01*
G75*
G02*
X199975000Y-132125000I0J-200000D01*
G01*
X199975000Y-132525000D01*
G75*
G02*
X199775000Y-132725000I-200000J0D01*
G01*
X199225000Y-132725000D01*
G75*
G02*
X199025000Y-132525000I0J200000D01*
G01*
X199025000Y-132125000D01*
G75*
G02*
X199225000Y-131925000I200000J0D01*
G01*
G37*
G36*
G01*
X199225000Y-130275000D02*
X199775000Y-130275000D01*
G75*
G02*
X199975000Y-130475000I0J-200000D01*
G01*
X199975000Y-130875000D01*
G75*
G02*
X199775000Y-131075000I-200000J0D01*
G01*
X199225000Y-131075000D01*
G75*
G02*
X199025000Y-130875000I0J200000D01*
G01*
X199025000Y-130475000D01*
G75*
G02*
X199225000Y-130275000I200000J0D01*
G01*
G37*
G04 #@! TD*
G04 #@! TO.C,R58*
G36*
G01*
X197725000Y-131925000D02*
X198275000Y-131925000D01*
G75*
G02*
X198475000Y-132125000I0J-200000D01*
G01*
X198475000Y-132525000D01*
G75*
G02*
X198275000Y-132725000I-200000J0D01*
G01*
X197725000Y-132725000D01*
G75*
G02*
X197525000Y-132525000I0J200000D01*
G01*
X197525000Y-132125000D01*
G75*
G02*
X197725000Y-131925000I200000J0D01*
G01*
G37*
G36*
G01*
X197725000Y-130275000D02*
X198275000Y-130275000D01*
G75*
G02*
X198475000Y-130475000I0J-200000D01*
G01*
X198475000Y-130875000D01*
G75*
G02*
X198275000Y-131075000I-200000J0D01*
G01*
X197725000Y-131075000D01*
G75*
G02*
X197525000Y-130875000I0J200000D01*
G01*
X197525000Y-130475000D01*
G75*
G02*
X197725000Y-130275000I200000J0D01*
G01*
G37*
G04 #@! TD*
G04 #@! TO.C,R57*
G36*
G01*
X196225000Y-131925000D02*
X196775000Y-131925000D01*
G75*
G02*
X196975000Y-132125000I0J-200000D01*
G01*
X196975000Y-132525000D01*
G75*
G02*
X196775000Y-132725000I-200000J0D01*
G01*
X196225000Y-132725000D01*
G75*
G02*
X196025000Y-132525000I0J200000D01*
G01*
X196025000Y-132125000D01*
G75*
G02*
X196225000Y-131925000I200000J0D01*
G01*
G37*
G36*
G01*
X196225000Y-130275000D02*
X196775000Y-130275000D01*
G75*
G02*
X196975000Y-130475000I0J-200000D01*
G01*
X196975000Y-130875000D01*
G75*
G02*
X196775000Y-131075000I-200000J0D01*
G01*
X196225000Y-131075000D01*
G75*
G02*
X196025000Y-130875000I0J200000D01*
G01*
X196025000Y-130475000D01*
G75*
G02*
X196225000Y-130275000I200000J0D01*
G01*
G37*
G04 #@! TD*
G04 #@! TO.C,R56*
G36*
G01*
X194725000Y-131925000D02*
X195275000Y-131925000D01*
G75*
G02*
X195475000Y-132125000I0J-200000D01*
G01*
X195475000Y-132525000D01*
G75*
G02*
X195275000Y-132725000I-200000J0D01*
G01*
X194725000Y-132725000D01*
G75*
G02*
X194525000Y-132525000I0J200000D01*
G01*
X194525000Y-132125000D01*
G75*
G02*
X194725000Y-131925000I200000J0D01*
G01*
G37*
G36*
G01*
X194725000Y-130275000D02*
X195275000Y-130275000D01*
G75*
G02*
X195475000Y-130475000I0J-200000D01*
G01*
X195475000Y-130875000D01*
G75*
G02*
X195275000Y-131075000I-200000J0D01*
G01*
X194725000Y-131075000D01*
G75*
G02*
X194525000Y-130875000I0J200000D01*
G01*
X194525000Y-130475000D01*
G75*
G02*
X194725000Y-130275000I200000J0D01*
G01*
G37*
G04 #@! TD*
G04 #@! TO.C,R55*
G36*
G01*
X193225000Y-131925000D02*
X193775000Y-131925000D01*
G75*
G02*
X193975000Y-132125000I0J-200000D01*
G01*
X193975000Y-132525000D01*
G75*
G02*
X193775000Y-132725000I-200000J0D01*
G01*
X193225000Y-132725000D01*
G75*
G02*
X193025000Y-132525000I0J200000D01*
G01*
X193025000Y-132125000D01*
G75*
G02*
X193225000Y-131925000I200000J0D01*
G01*
G37*
G36*
G01*
X193225000Y-130275000D02*
X193775000Y-130275000D01*
G75*
G02*
X193975000Y-130475000I0J-200000D01*
G01*
X193975000Y-130875000D01*
G75*
G02*
X193775000Y-131075000I-200000J0D01*
G01*
X193225000Y-131075000D01*
G75*
G02*
X193025000Y-130875000I0J200000D01*
G01*
X193025000Y-130475000D01*
G75*
G02*
X193225000Y-130275000I200000J0D01*
G01*
G37*
G04 #@! TD*
G04 #@! TO.C,R54*
G36*
G01*
X195375000Y-133425000D02*
X195375000Y-133975000D01*
G75*
G02*
X195175000Y-134175000I-200000J0D01*
G01*
X194775000Y-134175000D01*
G75*
G02*
X194575000Y-133975000I0J200000D01*
G01*
X194575000Y-133425000D01*
G75*
G02*
X194775000Y-133225000I200000J0D01*
G01*
X195175000Y-133225000D01*
G75*
G02*
X195375000Y-133425000I0J-200000D01*
G01*
G37*
G36*
G01*
X197025000Y-133425000D02*
X197025000Y-133975000D01*
G75*
G02*
X196825000Y-134175000I-200000J0D01*
G01*
X196425000Y-134175000D01*
G75*
G02*
X196225000Y-133975000I0J200000D01*
G01*
X196225000Y-133425000D01*
G75*
G02*
X196425000Y-133225000I200000J0D01*
G01*
X196825000Y-133225000D01*
G75*
G02*
X197025000Y-133425000I0J-200000D01*
G01*
G37*
G04 #@! TD*
G04 #@! TO.C,R53*
G36*
G01*
X190325000Y-134725000D02*
X189775000Y-134725000D01*
G75*
G02*
X189575000Y-134525000I0J200000D01*
G01*
X189575000Y-134125000D01*
G75*
G02*
X189775000Y-133925000I200000J0D01*
G01*
X190325000Y-133925000D01*
G75*
G02*
X190525000Y-134125000I0J-200000D01*
G01*
X190525000Y-134525000D01*
G75*
G02*
X190325000Y-134725000I-200000J0D01*
G01*
G37*
G36*
G01*
X190325000Y-136375000D02*
X189775000Y-136375000D01*
G75*
G02*
X189575000Y-136175000I0J200000D01*
G01*
X189575000Y-135775000D01*
G75*
G02*
X189775000Y-135575000I200000J0D01*
G01*
X190325000Y-135575000D01*
G75*
G02*
X190525000Y-135775000I0J-200000D01*
G01*
X190525000Y-136175000D01*
G75*
G02*
X190325000Y-136375000I-200000J0D01*
G01*
G37*
G04 #@! TD*
G04 #@! TO.C,R48*
G36*
G01*
X191125000Y-132325000D02*
X191675000Y-132325000D01*
G75*
G02*
X191875000Y-132525000I0J-200000D01*
G01*
X191875000Y-132925000D01*
G75*
G02*
X191675000Y-133125000I-200000J0D01*
G01*
X191125000Y-133125000D01*
G75*
G02*
X190925000Y-132925000I0J200000D01*
G01*
X190925000Y-132525000D01*
G75*
G02*
X191125000Y-132325000I200000J0D01*
G01*
G37*
G36*
G01*
X191125000Y-130675000D02*
X191675000Y-130675000D01*
G75*
G02*
X191875000Y-130875000I0J-200000D01*
G01*
X191875000Y-131275000D01*
G75*
G02*
X191675000Y-131475000I-200000J0D01*
G01*
X191125000Y-131475000D01*
G75*
G02*
X190925000Y-131275000I0J200000D01*
G01*
X190925000Y-130875000D01*
G75*
G02*
X191125000Y-130675000I200000J0D01*
G01*
G37*
G04 #@! TD*
G04 #@! TO.C,R42*
G36*
G01*
X216875000Y-118775000D02*
X216875000Y-119325000D01*
G75*
G02*
X216675000Y-119525000I-200000J0D01*
G01*
X216275000Y-119525000D01*
G75*
G02*
X216075000Y-119325000I0J200000D01*
G01*
X216075000Y-118775000D01*
G75*
G02*
X216275000Y-118575000I200000J0D01*
G01*
X216675000Y-118575000D01*
G75*
G02*
X216875000Y-118775000I0J-200000D01*
G01*
G37*
G36*
G01*
X218525000Y-118775000D02*
X218525000Y-119325000D01*
G75*
G02*
X218325000Y-119525000I-200000J0D01*
G01*
X217925000Y-119525000D01*
G75*
G02*
X217725000Y-119325000I0J200000D01*
G01*
X217725000Y-118775000D01*
G75*
G02*
X217925000Y-118575000I200000J0D01*
G01*
X218325000Y-118575000D01*
G75*
G02*
X218525000Y-118775000I0J-200000D01*
G01*
G37*
G04 #@! TD*
G04 #@! TO.C,R41*
G36*
G01*
X213375000Y-129675000D02*
X213375000Y-130225000D01*
G75*
G02*
X213175000Y-130425000I-200000J0D01*
G01*
X212775000Y-130425000D01*
G75*
G02*
X212575000Y-130225000I0J200000D01*
G01*
X212575000Y-129675000D01*
G75*
G02*
X212775000Y-129475000I200000J0D01*
G01*
X213175000Y-129475000D01*
G75*
G02*
X213375000Y-129675000I0J-200000D01*
G01*
G37*
G36*
G01*
X215025000Y-129675000D02*
X215025000Y-130225000D01*
G75*
G02*
X214825000Y-130425000I-200000J0D01*
G01*
X214425000Y-130425000D01*
G75*
G02*
X214225000Y-130225000I0J200000D01*
G01*
X214225000Y-129675000D01*
G75*
G02*
X214425000Y-129475000I200000J0D01*
G01*
X214825000Y-129475000D01*
G75*
G02*
X215025000Y-129675000I0J-200000D01*
G01*
G37*
G04 #@! TD*
G04 #@! TO.C,R34*
G36*
G01*
X236375000Y-116425000D02*
X236375000Y-116975000D01*
G75*
G02*
X236175000Y-117175000I-200000J0D01*
G01*
X235775000Y-117175000D01*
G75*
G02*
X235575000Y-116975000I0J200000D01*
G01*
X235575000Y-116425000D01*
G75*
G02*
X235775000Y-116225000I200000J0D01*
G01*
X236175000Y-116225000D01*
G75*
G02*
X236375000Y-116425000I0J-200000D01*
G01*
G37*
G36*
G01*
X238025000Y-116425000D02*
X238025000Y-116975000D01*
G75*
G02*
X237825000Y-117175000I-200000J0D01*
G01*
X237425000Y-117175000D01*
G75*
G02*
X237225000Y-116975000I0J200000D01*
G01*
X237225000Y-116425000D01*
G75*
G02*
X237425000Y-116225000I200000J0D01*
G01*
X237825000Y-116225000D01*
G75*
G02*
X238025000Y-116425000I0J-200000D01*
G01*
G37*
G04 #@! TD*
G04 #@! TO.C,R31*
G36*
G01*
X197075000Y-141525000D02*
X196525000Y-141525000D01*
G75*
G02*
X196325000Y-141325000I0J200000D01*
G01*
X196325000Y-140925000D01*
G75*
G02*
X196525000Y-140725000I200000J0D01*
G01*
X197075000Y-140725000D01*
G75*
G02*
X197275000Y-140925000I0J-200000D01*
G01*
X197275000Y-141325000D01*
G75*
G02*
X197075000Y-141525000I-200000J0D01*
G01*
G37*
G36*
G01*
X197075000Y-143175000D02*
X196525000Y-143175000D01*
G75*
G02*
X196325000Y-142975000I0J200000D01*
G01*
X196325000Y-142575000D01*
G75*
G02*
X196525000Y-142375000I200000J0D01*
G01*
X197075000Y-142375000D01*
G75*
G02*
X197275000Y-142575000I0J-200000D01*
G01*
X197275000Y-142975000D01*
G75*
G02*
X197075000Y-143175000I-200000J0D01*
G01*
G37*
G04 #@! TD*
G04 #@! TO.C,R28*
G36*
G01*
X227475000Y-113775000D02*
X226925000Y-113775000D01*
G75*
G02*
X226725000Y-113575000I0J200000D01*
G01*
X226725000Y-113175000D01*
G75*
G02*
X226925000Y-112975000I200000J0D01*
G01*
X227475000Y-112975000D01*
G75*
G02*
X227675000Y-113175000I0J-200000D01*
G01*
X227675000Y-113575000D01*
G75*
G02*
X227475000Y-113775000I-200000J0D01*
G01*
G37*
G36*
G01*
X227475000Y-115425000D02*
X226925000Y-115425000D01*
G75*
G02*
X226725000Y-115225000I0J200000D01*
G01*
X226725000Y-114825000D01*
G75*
G02*
X226925000Y-114625000I200000J0D01*
G01*
X227475000Y-114625000D01*
G75*
G02*
X227675000Y-114825000I0J-200000D01*
G01*
X227675000Y-115225000D01*
G75*
G02*
X227475000Y-115425000I-200000J0D01*
G01*
G37*
G04 #@! TD*
G04 #@! TO.C,R26*
G36*
G01*
X233825000Y-117625000D02*
X234375000Y-117625000D01*
G75*
G02*
X234575000Y-117825000I0J-200000D01*
G01*
X234575000Y-118225000D01*
G75*
G02*
X234375000Y-118425000I-200000J0D01*
G01*
X233825000Y-118425000D01*
G75*
G02*
X233625000Y-118225000I0J200000D01*
G01*
X233625000Y-117825000D01*
G75*
G02*
X233825000Y-117625000I200000J0D01*
G01*
G37*
G36*
G01*
X233825000Y-115975000D02*
X234375000Y-115975000D01*
G75*
G02*
X234575000Y-116175000I0J-200000D01*
G01*
X234575000Y-116575000D01*
G75*
G02*
X234375000Y-116775000I-200000J0D01*
G01*
X233825000Y-116775000D01*
G75*
G02*
X233625000Y-116575000I0J200000D01*
G01*
X233625000Y-116175000D01*
G75*
G02*
X233825000Y-115975000I200000J0D01*
G01*
G37*
G04 #@! TD*
G04 #@! TO.C,R25*
G36*
G01*
X232325000Y-117625000D02*
X232875000Y-117625000D01*
G75*
G02*
X233075000Y-117825000I0J-200000D01*
G01*
X233075000Y-118225000D01*
G75*
G02*
X232875000Y-118425000I-200000J0D01*
G01*
X232325000Y-118425000D01*
G75*
G02*
X232125000Y-118225000I0J200000D01*
G01*
X232125000Y-117825000D01*
G75*
G02*
X232325000Y-117625000I200000J0D01*
G01*
G37*
G36*
G01*
X232325000Y-115975000D02*
X232875000Y-115975000D01*
G75*
G02*
X233075000Y-116175000I0J-200000D01*
G01*
X233075000Y-116575000D01*
G75*
G02*
X232875000Y-116775000I-200000J0D01*
G01*
X232325000Y-116775000D01*
G75*
G02*
X232125000Y-116575000I0J200000D01*
G01*
X232125000Y-116175000D01*
G75*
G02*
X232325000Y-115975000I200000J0D01*
G01*
G37*
G04 #@! TD*
G04 #@! TO.C,R17*
G36*
G01*
X216875000Y-117275000D02*
X216875000Y-117825000D01*
G75*
G02*
X216675000Y-118025000I-200000J0D01*
G01*
X216275000Y-118025000D01*
G75*
G02*
X216075000Y-117825000I0J200000D01*
G01*
X216075000Y-117275000D01*
G75*
G02*
X216275000Y-117075000I200000J0D01*
G01*
X216675000Y-117075000D01*
G75*
G02*
X216875000Y-117275000I0J-200000D01*
G01*
G37*
G36*
G01*
X218525000Y-117275000D02*
X218525000Y-117825000D01*
G75*
G02*
X218325000Y-118025000I-200000J0D01*
G01*
X217925000Y-118025000D01*
G75*
G02*
X217725000Y-117825000I0J200000D01*
G01*
X217725000Y-117275000D01*
G75*
G02*
X217925000Y-117075000I200000J0D01*
G01*
X218325000Y-117075000D01*
G75*
G02*
X218525000Y-117275000I0J-200000D01*
G01*
G37*
G04 #@! TD*
G04 #@! TO.C,R15*
G36*
G01*
X216875000Y-115425000D02*
X216875000Y-115975000D01*
G75*
G02*
X216675000Y-116175000I-200000J0D01*
G01*
X216275000Y-116175000D01*
G75*
G02*
X216075000Y-115975000I0J200000D01*
G01*
X216075000Y-115425000D01*
G75*
G02*
X216275000Y-115225000I200000J0D01*
G01*
X216675000Y-115225000D01*
G75*
G02*
X216875000Y-115425000I0J-200000D01*
G01*
G37*
G36*
G01*
X218525000Y-115425000D02*
X218525000Y-115975000D01*
G75*
G02*
X218325000Y-116175000I-200000J0D01*
G01*
X217925000Y-116175000D01*
G75*
G02*
X217725000Y-115975000I0J200000D01*
G01*
X217725000Y-115425000D01*
G75*
G02*
X217925000Y-115225000I200000J0D01*
G01*
X218325000Y-115225000D01*
G75*
G02*
X218525000Y-115425000I0J-200000D01*
G01*
G37*
G04 #@! TD*
G04 #@! TO.C,R4*
G36*
G01*
X199525000Y-145825000D02*
X200075000Y-145825000D01*
G75*
G02*
X200275000Y-146025000I0J-200000D01*
G01*
X200275000Y-146425000D01*
G75*
G02*
X200075000Y-146625000I-200000J0D01*
G01*
X199525000Y-146625000D01*
G75*
G02*
X199325000Y-146425000I0J200000D01*
G01*
X199325000Y-146025000D01*
G75*
G02*
X199525000Y-145825000I200000J0D01*
G01*
G37*
G36*
G01*
X199525000Y-144175000D02*
X200075000Y-144175000D01*
G75*
G02*
X200275000Y-144375000I0J-200000D01*
G01*
X200275000Y-144775000D01*
G75*
G02*
X200075000Y-144975000I-200000J0D01*
G01*
X199525000Y-144975000D01*
G75*
G02*
X199325000Y-144775000I0J200000D01*
G01*
X199325000Y-144375000D01*
G75*
G02*
X199525000Y-144175000I200000J0D01*
G01*
G37*
G04 #@! TD*
G04 #@! TO.C,R3*
G36*
G01*
X188275000Y-148975000D02*
X187725000Y-148975000D01*
G75*
G02*
X187525000Y-148775000I0J200000D01*
G01*
X187525000Y-148375000D01*
G75*
G02*
X187725000Y-148175000I200000J0D01*
G01*
X188275000Y-148175000D01*
G75*
G02*
X188475000Y-148375000I0J-200000D01*
G01*
X188475000Y-148775000D01*
G75*
G02*
X188275000Y-148975000I-200000J0D01*
G01*
G37*
G36*
G01*
X188275000Y-150625000D02*
X187725000Y-150625000D01*
G75*
G02*
X187525000Y-150425000I0J200000D01*
G01*
X187525000Y-150025000D01*
G75*
G02*
X187725000Y-149825000I200000J0D01*
G01*
X188275000Y-149825000D01*
G75*
G02*
X188475000Y-150025000I0J-200000D01*
G01*
X188475000Y-150425000D01*
G75*
G02*
X188275000Y-150625000I-200000J0D01*
G01*
G37*
G04 #@! TD*
G04 #@! TO.C,D23*
G36*
G01*
X215400000Y-138706250D02*
X215400000Y-138193750D01*
G75*
G02*
X215618750Y-137975000I218750J0D01*
G01*
X216056250Y-137975000D01*
G75*
G02*
X216275000Y-138193750I0J-218750D01*
G01*
X216275000Y-138706250D01*
G75*
G02*
X216056250Y-138925000I-218750J0D01*
G01*
X215618750Y-138925000D01*
G75*
G02*
X215400000Y-138706250I0J218750D01*
G01*
G37*
G36*
G01*
X213825000Y-138706250D02*
X213825000Y-138193750D01*
G75*
G02*
X214043750Y-137975000I218750J0D01*
G01*
X214481250Y-137975000D01*
G75*
G02*
X214700000Y-138193750I0J-218750D01*
G01*
X214700000Y-138706250D01*
G75*
G02*
X214481250Y-138925000I-218750J0D01*
G01*
X214043750Y-138925000D01*
G75*
G02*
X213825000Y-138706250I0J218750D01*
G01*
G37*
G04 #@! TD*
G04 #@! TO.C,D4*
G36*
G01*
X215400000Y-140206250D02*
X215400000Y-139693750D01*
G75*
G02*
X215618750Y-139475000I218750J0D01*
G01*
X216056250Y-139475000D01*
G75*
G02*
X216275000Y-139693750I0J-218750D01*
G01*
X216275000Y-140206250D01*
G75*
G02*
X216056250Y-140425000I-218750J0D01*
G01*
X215618750Y-140425000D01*
G75*
G02*
X215400000Y-140206250I0J218750D01*
G01*
G37*
G36*
G01*
X213825000Y-140206250D02*
X213825000Y-139693750D01*
G75*
G02*
X214043750Y-139475000I218750J0D01*
G01*
X214481250Y-139475000D01*
G75*
G02*
X214700000Y-139693750I0J-218750D01*
G01*
X214700000Y-140206250D01*
G75*
G02*
X214481250Y-140425000I-218750J0D01*
G01*
X214043750Y-140425000D01*
G75*
G02*
X213825000Y-140206250I0J218750D01*
G01*
G37*
G04 #@! TD*
D28*
G04 #@! TO.C,D3*
X198500000Y-139450000D03*
X198500000Y-136150000D03*
G04 #@! TD*
G04 #@! TO.C,C28*
G36*
G01*
X231950000Y-120175000D02*
X231450000Y-120175000D01*
G75*
G02*
X231225000Y-119950000I0J225000D01*
G01*
X231225000Y-119500000D01*
G75*
G02*
X231450000Y-119275000I225000J0D01*
G01*
X231950000Y-119275000D01*
G75*
G02*
X232175000Y-119500000I0J-225000D01*
G01*
X232175000Y-119950000D01*
G75*
G02*
X231950000Y-120175000I-225000J0D01*
G01*
G37*
G36*
G01*
X231950000Y-121725000D02*
X231450000Y-121725000D01*
G75*
G02*
X231225000Y-121500000I0J225000D01*
G01*
X231225000Y-121050000D01*
G75*
G02*
X231450000Y-120825000I225000J0D01*
G01*
X231950000Y-120825000D01*
G75*
G02*
X232175000Y-121050000I0J-225000D01*
G01*
X232175000Y-121500000D01*
G75*
G02*
X231950000Y-121725000I-225000J0D01*
G01*
G37*
G04 #@! TD*
G04 #@! TO.C,C27*
G36*
G01*
X225325000Y-128650000D02*
X225325000Y-128150000D01*
G75*
G02*
X225550000Y-127925000I225000J0D01*
G01*
X226000000Y-127925000D01*
G75*
G02*
X226225000Y-128150000I0J-225000D01*
G01*
X226225000Y-128650000D01*
G75*
G02*
X226000000Y-128875000I-225000J0D01*
G01*
X225550000Y-128875000D01*
G75*
G02*
X225325000Y-128650000I0J225000D01*
G01*
G37*
G36*
G01*
X223775000Y-128650000D02*
X223775000Y-128150000D01*
G75*
G02*
X224000000Y-127925000I225000J0D01*
G01*
X224450000Y-127925000D01*
G75*
G02*
X224675000Y-128150000I0J-225000D01*
G01*
X224675000Y-128650000D01*
G75*
G02*
X224450000Y-128875000I-225000J0D01*
G01*
X224000000Y-128875000D01*
G75*
G02*
X223775000Y-128650000I0J225000D01*
G01*
G37*
G04 #@! TD*
G04 #@! TO.C,C26*
G36*
G01*
X232250000Y-124825000D02*
X232750000Y-124825000D01*
G75*
G02*
X232975000Y-125050000I0J-225000D01*
G01*
X232975000Y-125500000D01*
G75*
G02*
X232750000Y-125725000I-225000J0D01*
G01*
X232250000Y-125725000D01*
G75*
G02*
X232025000Y-125500000I0J225000D01*
G01*
X232025000Y-125050000D01*
G75*
G02*
X232250000Y-124825000I225000J0D01*
G01*
G37*
G36*
G01*
X232250000Y-123275000D02*
X232750000Y-123275000D01*
G75*
G02*
X232975000Y-123500000I0J-225000D01*
G01*
X232975000Y-123950000D01*
G75*
G02*
X232750000Y-124175000I-225000J0D01*
G01*
X232250000Y-124175000D01*
G75*
G02*
X232025000Y-123950000I0J225000D01*
G01*
X232025000Y-123500000D01*
G75*
G02*
X232250000Y-123275000I225000J0D01*
G01*
G37*
G04 #@! TD*
G04 #@! TO.C,C25*
G36*
G01*
X224525000Y-117700000D02*
X224525000Y-118200000D01*
G75*
G02*
X224300000Y-118425000I-225000J0D01*
G01*
X223850000Y-118425000D01*
G75*
G02*
X223625000Y-118200000I0J225000D01*
G01*
X223625000Y-117700000D01*
G75*
G02*
X223850000Y-117475000I225000J0D01*
G01*
X224300000Y-117475000D01*
G75*
G02*
X224525000Y-117700000I0J-225000D01*
G01*
G37*
G36*
G01*
X226075000Y-117700000D02*
X226075000Y-118200000D01*
G75*
G02*
X225850000Y-118425000I-225000J0D01*
G01*
X225400000Y-118425000D01*
G75*
G02*
X225175000Y-118200000I0J225000D01*
G01*
X225175000Y-117700000D01*
G75*
G02*
X225400000Y-117475000I225000J0D01*
G01*
X225850000Y-117475000D01*
G75*
G02*
X226075000Y-117700000I0J-225000D01*
G01*
G37*
G04 #@! TD*
G04 #@! TO.C,C21*
G36*
G01*
X244500000Y-116849999D02*
X244500000Y-118150001D01*
G75*
G02*
X244250001Y-118400000I-249999J0D01*
G01*
X243599999Y-118400000D01*
G75*
G02*
X243350000Y-118150001I0J249999D01*
G01*
X243350000Y-116849999D01*
G75*
G02*
X243599999Y-116600000I249999J0D01*
G01*
X244250001Y-116600000D01*
G75*
G02*
X244500000Y-116849999I0J-249999D01*
G01*
G37*
G36*
G01*
X247450000Y-116849999D02*
X247450000Y-118150001D01*
G75*
G02*
X247200001Y-118400000I-249999J0D01*
G01*
X246549999Y-118400000D01*
G75*
G02*
X246300000Y-118150001I0J249999D01*
G01*
X246300000Y-116849999D01*
G75*
G02*
X246549999Y-116600000I249999J0D01*
G01*
X247200001Y-116600000D01*
G75*
G02*
X247450000Y-116849999I0J-249999D01*
G01*
G37*
G04 #@! TD*
G04 #@! TO.C,C6*
G36*
G01*
X202950000Y-138375000D02*
X202450000Y-138375000D01*
G75*
G02*
X202225000Y-138150000I0J225000D01*
G01*
X202225000Y-137700000D01*
G75*
G02*
X202450000Y-137475000I225000J0D01*
G01*
X202950000Y-137475000D01*
G75*
G02*
X203175000Y-137700000I0J-225000D01*
G01*
X203175000Y-138150000D01*
G75*
G02*
X202950000Y-138375000I-225000J0D01*
G01*
G37*
G36*
G01*
X202950000Y-139925000D02*
X202450000Y-139925000D01*
G75*
G02*
X202225000Y-139700000I0J225000D01*
G01*
X202225000Y-139250000D01*
G75*
G02*
X202450000Y-139025000I225000J0D01*
G01*
X202950000Y-139025000D01*
G75*
G02*
X203175000Y-139250000I0J-225000D01*
G01*
X203175000Y-139700000D01*
G75*
G02*
X202950000Y-139925000I-225000J0D01*
G01*
G37*
G04 #@! TD*
D24*
G04 #@! TO.C,D20*
X233350000Y-128600000D03*
X236650000Y-128600000D03*
G04 #@! TD*
D18*
G04 #@! TO.C,D11*
X214750000Y-111150000D03*
X216750000Y-110200000D03*
X216750000Y-112100000D03*
G04 #@! TD*
G04 #@! TO.C,D10*
X208550000Y-116450000D03*
X210550000Y-115500000D03*
X210550000Y-117400000D03*
G04 #@! TD*
G04 #@! TO.C,D6*
X208000000Y-107000000D03*
X210000000Y-106050000D03*
X210000000Y-107950000D03*
G04 #@! TD*
M02*
