M48
; DRILL file {KiCad 7.0.1} date Thu May 18 20:02:10 2023
; FORMAT={-:-/ absolute / metric / decimal}
; #@! TF.CreationDate,2023-05-18T20:02:10+01:00
; #@! TF.GenerationSoftware,Kicad,Pcbnew,7.0.1
; #@! TF.FileFunction,Plated,1,4,PTH
FMAT,2
METRIC
; #@! TA.AperFunction,Plated,PTH,ComponentDrill
T1C0.200
; #@! TA.AperFunction,Plated,PTH,ViaDrill
T2C0.300
; #@! TA.AperFunction,Plated,PTH,ComponentDrill
T3C0.300
; #@! TA.AperFunction,Plated,PTH,ComponentDrill
T4C0.400
; #@! TA.AperFunction,Plated,PTH,ComponentDrill
T5C0.600
; #@! TA.AperFunction,Plated,PTH,ComponentDrill
T6C0.800
; #@! TA.AperFunction,Plated,PTH,ComponentDrill
T7C1.000
; #@! TA.AperFunction,Plated,PTH,ComponentDrill
T8C1.500
; #@! TA.AperFunction,Plated,PTH,ComponentDrill
T9C1.600
%
G90
G05
T1
X193.71Y-120.7
X193.71Y-122.1
X194.41Y-120.0
X194.41Y-121.4
X194.41Y-122.8
X195.11Y-120.7
X195.11Y-122.1
X195.81Y-120.0
X195.81Y-121.4
X195.81Y-122.8
X196.51Y-120.7
X196.51Y-122.1
X231.25Y-135.81
X231.25Y-136.75
X231.25Y-137.69
X232.25Y-135.81
X232.25Y-136.75
X232.25Y-137.69
X236.5Y-120.7
X236.5Y-121.7
X237.5Y-120.7
X237.5Y-121.7
X242.2Y-137.3
X242.2Y-138.7
X243.0Y-137.3
X243.0Y-138.7
T2
X181.2Y-130.4
X181.2Y-143.0
X182.3Y-104.7
X182.3Y-108.7
X183.0Y-143.0
X184.1Y-130.4
X185.2Y-136.4
X185.2Y-141.4
X185.525Y-134.075
X186.05Y-130.75
X186.2Y-104.7
X186.9Y-114.5
X187.0Y-145.9
X187.2Y-113.4
X187.2Y-117.5
X187.2Y-123.15
X187.2Y-125.4
X187.25Y-109.5
X187.3Y-120.5
X187.39Y-127.19
X187.4Y-132.1
X187.4Y-133.2
X188.0Y-102.25
X188.0Y-105.9
X188.0Y-107.3
X188.225Y-109.5
X188.3Y-140.4
X188.6Y-126.9
X188.8Y-104.45
X189.2Y-147.9
X189.45Y-116.15
X189.45Y-119.65
X189.55Y-130.75
X189.8Y-140.3
X189.95Y-112.65
X190.0Y-133.1
X190.05Y-137.2
X190.4Y-108.2
X190.6Y-131.9
X190.8Y-147.7
X190.95Y-149.65
X191.05Y-138.2
X191.2Y-116.4
X191.2Y-119.15
X191.2Y-142.2
X191.55Y-136.85
X191.6Y-105.8
X191.6Y-112.8
X191.6Y-127.1
X191.8Y-130.1
X191.9Y-141.5
X192.0Y-140.0
X192.4Y-147.8
X192.5Y-121.0
X192.5Y-127.0
X192.775Y-104.325
X193.0Y-138.0
X193.3Y-101.3
X193.3Y-149.7
X193.4Y-105.4
X193.4Y-127.0
X193.4Y-133.3
X193.6Y-108.0
X193.6Y-116.5
X193.762Y-106.637
X194.0Y-134.2
X194.2Y-103.4
X194.6Y-106.4
X194.8Y-138.2
X195.0Y-134.6
X195.0Y-137.0
X195.0Y-147.8
X195.175Y-141.575
X195.256Y-105.194
X195.3Y-143.5
X195.5Y-126.9
X195.8Y-142.4
X195.911Y-138.006
X196.15Y-103.6
X196.2Y-135.9
X196.226Y-127.088
X196.5Y-114.2
X196.5Y-116.25
X196.6Y-134.9
X196.7Y-149.65
X197.1Y-141.3
X197.2Y-131.6
X197.3Y-102.9
X197.4Y-101.4
X197.5Y-124.3
X198.0Y-133.4
X198.1Y-143.2
X198.4Y-105.8
X198.634Y-108.633
X198.8Y-107.4
X199.0Y-113.8
X199.2Y-125.5
X199.5Y-133.3
X199.5Y-139.4
X199.6Y-104.55
X199.9Y-119.7
X200.0Y-137.5
X200.2Y-101.3
X200.3Y-122.3
X200.6Y-112.9
X200.807Y-126.807
X200.825Y-146.225
X200.9Y-147.9
X201.0Y-116.2
X201.0Y-133.2
X201.2Y-119.1
X201.2Y-123.7
X201.2Y-125.2
X201.2Y-145.5
X201.563Y-140.9
X201.8Y-134.0
X201.9Y-113.2
X201.9Y-117.6
X201.9Y-121.6
X201.9Y-126.5
X202.3Y-106.2
X202.5Y-125.4
X202.5Y-133.2
X202.6Y-124.3
X202.7Y-117.6
X202.7Y-140.4
X202.8Y-102.8
X202.975Y-141.875
X203.3Y-113.1
X203.55Y-103.3
X203.7Y-117.7
X203.8Y-116.7
X203.8Y-136.5
X203.9Y-137.3
X203.9Y-138.4
X203.9Y-139.4
X204.0Y-133.2
X204.543Y-136.686
X205.0Y-103.325
X205.0Y-128.0
X205.1Y-139.5
X205.2Y-142.7
X205.4Y-130.225
X205.8Y-108.15
X205.9Y-111.45
X206.0Y-129.0
X206.4Y-103.3
X206.502Y-133.252
X206.55Y-145.45
X206.6Y-144.3
X206.8Y-126.8
X206.8Y-130.8
X206.9Y-121.8
X207.0Y-115.25
X207.05Y-150.2
X207.15Y-116.8
X207.175Y-119.475
X207.2Y-147.7
X207.25Y-123.6
X207.4Y-107.9
X207.607Y-121.2
X207.75Y-115.2
X207.8Y-103.2
X208.0Y-143.8
X208.15Y-127.05
X208.2Y-131.6
X208.2Y-133.2
X208.3Y-125.857
X208.5Y-115.1
X208.75Y-107.9
X208.803Y-108.648
X208.85Y-121.2
X208.9Y-110.2
X208.9Y-111.8
X208.9Y-122.725
X208.912Y-118.212
X209.0Y-124.1
X209.2Y-105.3
X209.7Y-103.4
X209.7Y-106.9
X210.05Y-135.45
X210.05Y-142.95
X210.425Y-119.7
X210.5Y-110.0
X210.5Y-113.6
X210.5Y-116.5
X210.543Y-109.143
X210.55Y-111.95
X210.6Y-104.6
X210.6Y-107.2
X210.6Y-126.2
X210.6Y-144.7
X211.3Y-116.2
X211.4Y-132.35
X211.575Y-117.6
X211.6Y-104.5
X211.6Y-115.4
X211.8Y-101.4
X211.9Y-135.9
X211.925Y-114.325
X212.05Y-150.2
X212.2Y-148.7
X212.25Y-133.5
X212.3Y-121.2
X212.3Y-147.45
X212.4Y-125.7
X212.5Y-119.2
X212.6Y-118.2
X212.6Y-128.5
X212.8Y-103.0
X212.8Y-131.2
X212.8Y-144.9
X213.2Y-124.125
X213.2Y-135.8
X213.8Y-136.95
X213.95Y-109.4
X214.0Y-122.5
X214.162Y-114.675
X214.2Y-119.2
X214.2Y-131.4
X214.2Y-141.6
X214.4Y-135.15
X214.4Y-135.9
X214.6Y-133.4
X214.8Y-108.4
X214.8Y-121.8
X214.925Y-112.625
X215.0Y-104.5
X215.016Y-134.024
X215.207Y-132.407
X215.4Y-120.6
X215.5Y-143.5
X215.6Y-103.3
X215.6Y-116.6
X215.6Y-123.2
X215.837Y-140.987
X216.4Y-128.0
X216.4Y-129.036
X216.6Y-103.6
X216.7Y-142.0
X216.8Y-138.4
X216.9Y-111.1
X217.1Y-134.4
X217.15Y-129.35
X217.7Y-106.0
X217.7Y-110.2
X217.8Y-105.0
X217.8Y-108.4
X217.8Y-138.45
X218.2Y-106.8
X218.2Y-112.0
X218.225Y-113.2
X218.3Y-109.4
X218.3Y-114.1
X218.4Y-107.6
X218.6Y-110.7
X218.8Y-132.0
X218.862Y-116.438
X219.0Y-121.4
X219.0Y-122.4
X219.0Y-134.2
X219.1Y-103.2
X219.3Y-144.95
X219.6Y-105.6
X219.75Y-126.25
X220.75Y-124.2
X220.9Y-142.1
X221.0Y-145.1
X221.2Y-136.4
X221.4Y-113.2
X221.45Y-109.4
X221.525Y-114.475
X221.6Y-107.3
X221.6Y-133.8
X221.6Y-137.6
X221.7Y-115.7
X222.1Y-143.5
X222.25Y-125.75
X222.3Y-105.0
X222.45Y-126.9
X222.7Y-128.4
X222.9Y-144.4
X223.05Y-149.7
X223.1Y-148.0
X223.25Y-133.0
X223.3Y-103.2
X223.3Y-107.95
X223.3Y-138.2
X223.4Y-112.0
X223.4Y-124.1
X223.405Y-113.205
X223.5Y-115.8
X223.6Y-110.7
X223.7Y-143.5
X223.8Y-125.2
X224.2Y-116.65
X224.295Y-101.886
X224.35Y-121.9
X224.5Y-103.4
X224.7Y-144.9
X225.05Y-105.45
X225.1Y-142.2
X225.4Y-103.7
X225.5Y-104.7
X225.75Y-131.75
X225.75Y-135.75
X226.25Y-128.4
X226.25Y-129.9
X226.475Y-142.625
X226.5Y-105.1
X226.5Y-140.75
X226.65Y-117.95
X226.8Y-111.0
X227.0Y-145.5
X227.1Y-106.4
X227.1Y-137.5
X227.15Y-112.15
X227.2Y-119.0
X227.2Y-122.2
X227.5Y-103.4
X228.05Y-110.9
X228.1Y-140.1
X228.35Y-123.6
X228.5Y-109.5
X228.75Y-145.5
X228.75Y-148.0
X229.0Y-116.5
X229.081Y-122.179
X229.4Y-103.4
X229.45Y-117.95
X229.5Y-132.5
X229.5Y-140.6
X230.0Y-118.9
X230.0Y-144.6
X230.2Y-138.4
X230.25Y-128.0
X230.25Y-133.25
X230.7Y-144.1
X230.9Y-143.0
X231.0Y-110.6
X231.0Y-126.0
X231.05Y-105.7
X231.2Y-141.0
X231.25Y-134.0
X231.5Y-103.2
X231.6Y-123.0
X231.65Y-116.45
X232.1Y-117.5
X232.2Y-119.85
X232.5Y-102.4
X232.6Y-126.0
X232.75Y-127.75
X232.8Y-112.45
X233.05Y-110.45
X233.107Y-119.307
X233.8Y-103.95
X234.0Y-126.0
X234.2Y-120.4
X234.55Y-102.2
X234.7Y-104.15
X234.7Y-134.5
X234.7Y-140.3
X234.8Y-121.2
X234.8Y-146.8
X234.9Y-139.0
X235.0Y-123.8
X235.05Y-112.7
X235.25Y-125.774
X235.8Y-119.0
X235.91Y-123.8
X236.2Y-105.4
X236.293Y-118.107
X236.55Y-102.7
X236.55Y-108.2
X236.6Y-124.2
X236.6Y-141.0
X236.621Y-138.492
X236.7Y-140.0
X236.7Y-142.9
X237.0Y-118.8
X237.3Y-112.7
X237.45Y-105.4
X237.5Y-111.5
X237.6Y-124.0
X237.9Y-143.3
X238.3Y-97.8
X238.4Y-119.6
X238.5Y-130.5
X238.5Y-133.274
X238.55Y-113.2
X238.8Y-117.1
X238.9Y-118.6
X239.3Y-110.7
X239.5Y-109.6
X239.8Y-131.6
X239.87Y-125.62
X240.0Y-118.2
X240.2Y-106.0
X240.6Y-142.2
X240.725Y-102.625
X241.025Y-123.625
X241.025Y-135.675
X241.2Y-139.7
X241.3Y-134.3
X241.4Y-118.2
X241.4Y-121.4
X241.7Y-109.8
X241.7Y-140.5
X242.0Y-133.1
X242.4Y-116.8
X243.4Y-121.6
X243.4Y-127.0
X243.6Y-106.0
X243.7Y-101.4
X243.7Y-133.1
X244.2Y-110.4
X244.4Y-123.4
X244.6Y-98.1
X244.6Y-131.6
X244.7Y-150.4
X245.0Y-117.6
X245.2Y-122.4
X245.2Y-145.2
X245.5Y-134.5
X245.8Y-98.4
X245.8Y-99.6
X245.8Y-117.6
X245.95Y-115.65
X246.55Y-130.25
X246.6Y-108.4
X246.6Y-112.4
X246.6Y-123.4
X246.6Y-145.2
X246.6Y-147.2
X246.6Y-149.4
X246.9Y-115.2
X246.9Y-127.0
X247.4Y-95.8
X247.4Y-97.2
X248.0Y-106.8
X248.2Y-145.2
X248.2Y-147.2
X248.2Y-150.4
X248.4Y-128.0
X248.45Y-122.25
X248.6Y-102.6
X249.4Y-95.8
X249.4Y-97.2
X249.4Y-98.1
X249.6Y-129.1
X249.75Y-115.25
X249.75Y-119.55
X249.8Y-108.4
X249.8Y-112.4
X249.9Y-121.5
X249.9Y-133.3
X250.1Y-126.8
X250.25Y-104.175
X251.2Y-115.8
X251.2Y-119.6
X251.3Y-134.5
X251.5Y-95.75
X251.55Y-99.2
X251.9Y-121.5
X252.2Y-103.6
X252.3Y-128.1
X252.3Y-132.4
X252.425Y-104.625
X252.5Y-145.4
X252.6Y-118.4
X252.662Y-106.537
X252.8Y-100.8
X252.85Y-98.15
X253.0Y-123.75
X253.0Y-125.5
X253.05Y-138.45
X253.05Y-141.7
X253.1Y-129.1
X253.1Y-136.0
X253.5Y-115.5
X253.6Y-131.4
X254.0Y-99.6
X254.5Y-121.0
X254.5Y-149.7
X254.55Y-134.2
X254.55Y-135.45
X254.55Y-141.2
X254.55Y-143.2
X254.55Y-145.2
X254.6Y-129.1
X254.6Y-146.2
X254.6Y-147.9
X255.2Y-101.1
X255.6Y-118.2
X255.6Y-138.2
X255.9Y-130.2
X256.0Y-100.6
X256.0Y-131.8
X256.3Y-125.5
X257.0Y-96.0
X257.0Y-97.4
X257.0Y-99.0
X257.0Y-100.6
X257.2Y-134.2
X257.2Y-135.45
X257.425Y-104.625
X257.5Y-146.1
X257.6Y-118.6
X257.8Y-143.2
X258.05Y-145.2
X258.3Y-105.3
X258.425Y-121.375
X259.0Y-99.8
X259.0Y-109.2
X259.0Y-130.2
X259.0Y-131.8
X259.3Y-146.0
X260.0Y-96.0
X260.0Y-111.0
X260.1Y-113.3
X260.4Y-133.2
X260.4Y-146.0
X260.5Y-141.0
X260.6Y-124.7
X260.7Y-139.0
X260.8Y-129.2
X261.4Y-146.0
X261.5Y-104.4
X262.0Y-96.0
X263.05Y-143.4
X263.2Y-125.5
X263.6Y-105.7
X264.0Y-97.8
X264.0Y-131.2
X264.0Y-132.8
X264.0Y-134.4
X264.05Y-129.2
X264.1Y-127.4
X264.2Y-136.65
X264.2Y-139.65
X264.2Y-144.4
X264.25Y-122.25
X264.3Y-107.4
X264.3Y-109.4
X264.3Y-111.4
X264.3Y-113.6
X264.3Y-116.0
X264.3Y-142.05
X264.4Y-143.5
X264.5Y-141.0
T3
X225.3Y-123.3
X225.3Y-124.3
X225.8Y-123.8
X226.3Y-123.3
X226.3Y-124.3
T4
X260.1Y-118.25
X260.1Y-119.55
X261.1Y-118.25
X261.1Y-119.55
X262.1Y-118.25
X262.1Y-119.55
T6
X230.38Y-107.0
X230.38Y-114.62
X232.92Y-107.0
X232.92Y-114.62
X235.46Y-107.0
X235.46Y-114.62
X238.0Y-107.0
X238.0Y-114.62
T7
X188.373Y-97.232
X188.373Y-99.772
X190.913Y-97.232
X190.913Y-99.772
X193.453Y-97.232
X193.453Y-99.772
X195.993Y-97.232
X195.993Y-99.772
X198.533Y-97.232
X198.533Y-99.772
X201.073Y-97.232
X201.073Y-99.772
X203.613Y-97.232
X203.613Y-99.772
X206.153Y-97.232
X206.153Y-99.772
X208.693Y-97.232
X208.693Y-99.772
X211.233Y-97.232
X211.233Y-99.772
X213.773Y-97.232
X213.773Y-99.772
X216.313Y-97.232
X216.313Y-99.772
X218.853Y-97.232
X218.853Y-99.772
X221.393Y-97.232
X221.393Y-99.772
X223.933Y-97.232
X223.933Y-99.772
X226.473Y-97.232
X226.473Y-99.772
X229.013Y-97.232
X229.013Y-99.772
X231.553Y-97.232
X231.553Y-99.772
X232.25Y-148.5
X234.093Y-97.232
X234.093Y-99.772
X234.75Y-148.5
X236.633Y-97.232
X236.633Y-99.772
T8
X219.91Y-128.4
X240.4Y-128.4
T9
X204.6Y-148.7
X209.68Y-148.7
X214.76Y-148.7
X220.68Y-148.7
X225.76Y-148.7
X251.3Y-148.5
X256.38Y-148.5
X261.46Y-148.5
T5
G00X189.68Y-144.77
M15
G01X189.68Y-145.87
M16
G05
G00X189.68Y-149.1
M15
G01X189.68Y-149.9
M16
G05
G00X198.32Y-144.77
M15
G01X198.32Y-145.87
M16
G05
G00X198.32Y-149.1
M15
G01X198.32Y-149.9
M16
G05
T0
M30
