G04 #@! TF.GenerationSoftware,KiCad,Pcbnew,7.0.1*
G04 #@! TF.CreationDate,2023-05-18T20:02:15+01:00*
G04 #@! TF.ProjectId,AnthC,416e7468-432e-46b6-9963-61645f706362,rev?*
G04 #@! TF.SameCoordinates,Original*
G04 #@! TF.FileFunction,Other,ECO1*
%FSLAX46Y46*%
G04 Gerber Fmt 4.6, Leading zero omitted, Abs format (unit mm)*
G04 Created by KiCad (PCBNEW 7.0.1) date 2023-05-18 20:02:15*
%MOMM*%
%LPD*%
G01*
G04 APERTURE LIST*
%ADD10C,0.150000*%
G04 APERTURE END LIST*
D10*
X158695952Y-127142856D02*
X159362619Y-127142856D01*
X158315000Y-127380951D02*
X159029285Y-127619046D01*
X159029285Y-127619046D02*
X159029285Y-126999999D01*
X159362619Y-126571427D02*
X159362619Y-126380951D01*
X159362619Y-126380951D02*
X159315000Y-126285713D01*
X159315000Y-126285713D02*
X159267380Y-126238094D01*
X159267380Y-126238094D02*
X159124523Y-126142856D01*
X159124523Y-126142856D02*
X158934047Y-126095237D01*
X158934047Y-126095237D02*
X158553095Y-126095237D01*
X158553095Y-126095237D02*
X158457857Y-126142856D01*
X158457857Y-126142856D02*
X158410238Y-126190475D01*
X158410238Y-126190475D02*
X158362619Y-126285713D01*
X158362619Y-126285713D02*
X158362619Y-126476189D01*
X158362619Y-126476189D02*
X158410238Y-126571427D01*
X158410238Y-126571427D02*
X158457857Y-126619046D01*
X158457857Y-126619046D02*
X158553095Y-126666665D01*
X158553095Y-126666665D02*
X158791190Y-126666665D01*
X158791190Y-126666665D02*
X158886428Y-126619046D01*
X158886428Y-126619046D02*
X158934047Y-126571427D01*
X158934047Y-126571427D02*
X158981666Y-126476189D01*
X158981666Y-126476189D02*
X158981666Y-126285713D01*
X158981666Y-126285713D02*
X158934047Y-126190475D01*
X158934047Y-126190475D02*
X158886428Y-126142856D01*
X158886428Y-126142856D02*
X158791190Y-126095237D01*
X159267380Y-125666665D02*
X159315000Y-125619046D01*
X159315000Y-125619046D02*
X159362619Y-125666665D01*
X159362619Y-125666665D02*
X159315000Y-125714284D01*
X159315000Y-125714284D02*
X159267380Y-125666665D01*
X159267380Y-125666665D02*
X159362619Y-125666665D01*
X158362619Y-124999999D02*
X158362619Y-124904761D01*
X158362619Y-124904761D02*
X158410238Y-124809523D01*
X158410238Y-124809523D02*
X158457857Y-124761904D01*
X158457857Y-124761904D02*
X158553095Y-124714285D01*
X158553095Y-124714285D02*
X158743571Y-124666666D01*
X158743571Y-124666666D02*
X158981666Y-124666666D01*
X158981666Y-124666666D02*
X159172142Y-124714285D01*
X159172142Y-124714285D02*
X159267380Y-124761904D01*
X159267380Y-124761904D02*
X159315000Y-124809523D01*
X159315000Y-124809523D02*
X159362619Y-124904761D01*
X159362619Y-124904761D02*
X159362619Y-124999999D01*
X159362619Y-124999999D02*
X159315000Y-125095237D01*
X159315000Y-125095237D02*
X159267380Y-125142856D01*
X159267380Y-125142856D02*
X159172142Y-125190475D01*
X159172142Y-125190475D02*
X158981666Y-125238094D01*
X158981666Y-125238094D02*
X158743571Y-125238094D01*
X158743571Y-125238094D02*
X158553095Y-125190475D01*
X158553095Y-125190475D02*
X158457857Y-125142856D01*
X158457857Y-125142856D02*
X158410238Y-125095237D01*
X158410238Y-125095237D02*
X158362619Y-124999999D01*
X158362619Y-124047618D02*
X158362619Y-123952380D01*
X158362619Y-123952380D02*
X158410238Y-123857142D01*
X158410238Y-123857142D02*
X158457857Y-123809523D01*
X158457857Y-123809523D02*
X158553095Y-123761904D01*
X158553095Y-123761904D02*
X158743571Y-123714285D01*
X158743571Y-123714285D02*
X158981666Y-123714285D01*
X158981666Y-123714285D02*
X159172142Y-123761904D01*
X159172142Y-123761904D02*
X159267380Y-123809523D01*
X159267380Y-123809523D02*
X159315000Y-123857142D01*
X159315000Y-123857142D02*
X159362619Y-123952380D01*
X159362619Y-123952380D02*
X159362619Y-124047618D01*
X159362619Y-124047618D02*
X159315000Y-124142856D01*
X159315000Y-124142856D02*
X159267380Y-124190475D01*
X159267380Y-124190475D02*
X159172142Y-124238094D01*
X159172142Y-124238094D02*
X158981666Y-124285713D01*
X158981666Y-124285713D02*
X158743571Y-124285713D01*
X158743571Y-124285713D02*
X158553095Y-124238094D01*
X158553095Y-124238094D02*
X158457857Y-124190475D01*
X158457857Y-124190475D02*
X158410238Y-124142856D01*
X158410238Y-124142856D02*
X158362619Y-124047618D01*
X158362619Y-123095237D02*
X158362619Y-122999999D01*
X158362619Y-122999999D02*
X158410238Y-122904761D01*
X158410238Y-122904761D02*
X158457857Y-122857142D01*
X158457857Y-122857142D02*
X158553095Y-122809523D01*
X158553095Y-122809523D02*
X158743571Y-122761904D01*
X158743571Y-122761904D02*
X158981666Y-122761904D01*
X158981666Y-122761904D02*
X159172142Y-122809523D01*
X159172142Y-122809523D02*
X159267380Y-122857142D01*
X159267380Y-122857142D02*
X159315000Y-122904761D01*
X159315000Y-122904761D02*
X159362619Y-122999999D01*
X159362619Y-122999999D02*
X159362619Y-123095237D01*
X159362619Y-123095237D02*
X159315000Y-123190475D01*
X159315000Y-123190475D02*
X159267380Y-123238094D01*
X159267380Y-123238094D02*
X159172142Y-123285713D01*
X159172142Y-123285713D02*
X158981666Y-123333332D01*
X158981666Y-123333332D02*
X158743571Y-123333332D01*
X158743571Y-123333332D02*
X158553095Y-123285713D01*
X158553095Y-123285713D02*
X158457857Y-123238094D01*
X158457857Y-123238094D02*
X158410238Y-123190475D01*
X158410238Y-123190475D02*
X158362619Y-123095237D01*
X158362619Y-122142856D02*
X158362619Y-122047618D01*
X158362619Y-122047618D02*
X158410238Y-121952380D01*
X158410238Y-121952380D02*
X158457857Y-121904761D01*
X158457857Y-121904761D02*
X158553095Y-121857142D01*
X158553095Y-121857142D02*
X158743571Y-121809523D01*
X158743571Y-121809523D02*
X158981666Y-121809523D01*
X158981666Y-121809523D02*
X159172142Y-121857142D01*
X159172142Y-121857142D02*
X159267380Y-121904761D01*
X159267380Y-121904761D02*
X159315000Y-121952380D01*
X159315000Y-121952380D02*
X159362619Y-122047618D01*
X159362619Y-122047618D02*
X159362619Y-122142856D01*
X159362619Y-122142856D02*
X159315000Y-122238094D01*
X159315000Y-122238094D02*
X159267380Y-122285713D01*
X159267380Y-122285713D02*
X159172142Y-122333332D01*
X159172142Y-122333332D02*
X158981666Y-122380951D01*
X158981666Y-122380951D02*
X158743571Y-122380951D01*
X158743571Y-122380951D02*
X158553095Y-122333332D01*
X158553095Y-122333332D02*
X158457857Y-122285713D01*
X158457857Y-122285713D02*
X158410238Y-122238094D01*
X158410238Y-122238094D02*
X158362619Y-122142856D01*
X159362619Y-120619046D02*
X158695952Y-120619046D01*
X158791190Y-120619046D02*
X158743571Y-120571427D01*
X158743571Y-120571427D02*
X158695952Y-120476189D01*
X158695952Y-120476189D02*
X158695952Y-120333332D01*
X158695952Y-120333332D02*
X158743571Y-120238094D01*
X158743571Y-120238094D02*
X158838809Y-120190475D01*
X158838809Y-120190475D02*
X159362619Y-120190475D01*
X158838809Y-120190475D02*
X158743571Y-120142856D01*
X158743571Y-120142856D02*
X158695952Y-120047618D01*
X158695952Y-120047618D02*
X158695952Y-119904761D01*
X158695952Y-119904761D02*
X158743571Y-119809522D01*
X158743571Y-119809522D02*
X158838809Y-119761903D01*
X158838809Y-119761903D02*
X159362619Y-119761903D01*
X159362619Y-119285713D02*
X158695952Y-119285713D01*
X158791190Y-119285713D02*
X158743571Y-119238094D01*
X158743571Y-119238094D02*
X158695952Y-119142856D01*
X158695952Y-119142856D02*
X158695952Y-118999999D01*
X158695952Y-118999999D02*
X158743571Y-118904761D01*
X158743571Y-118904761D02*
X158838809Y-118857142D01*
X158838809Y-118857142D02*
X159362619Y-118857142D01*
X158838809Y-118857142D02*
X158743571Y-118809523D01*
X158743571Y-118809523D02*
X158695952Y-118714285D01*
X158695952Y-118714285D02*
X158695952Y-118571428D01*
X158695952Y-118571428D02*
X158743571Y-118476189D01*
X158743571Y-118476189D02*
X158838809Y-118428570D01*
X158838809Y-118428570D02*
X159362619Y-118428570D01*
X183500000Y-98500000D02*
X159463580Y-98500000D01*
X183500000Y-147500000D02*
X159463580Y-147500000D01*
X160050000Y-98500000D02*
X160050000Y-147500000D01*
X160050000Y-98500000D02*
X160050000Y-147500000D01*
X160050000Y-98500000D02*
X160636421Y-99626504D01*
X160050000Y-98500000D02*
X159463579Y-99626504D01*
X160050000Y-147500000D02*
X159463579Y-146373496D01*
X160050000Y-147500000D02*
X160636421Y-146373496D01*
X208404762Y-85012619D02*
X207928572Y-85012619D01*
X207928572Y-85012619D02*
X207880953Y-85488809D01*
X207880953Y-85488809D02*
X207928572Y-85441190D01*
X207928572Y-85441190D02*
X208023810Y-85393571D01*
X208023810Y-85393571D02*
X208261905Y-85393571D01*
X208261905Y-85393571D02*
X208357143Y-85441190D01*
X208357143Y-85441190D02*
X208404762Y-85488809D01*
X208404762Y-85488809D02*
X208452381Y-85584047D01*
X208452381Y-85584047D02*
X208452381Y-85822142D01*
X208452381Y-85822142D02*
X208404762Y-85917380D01*
X208404762Y-85917380D02*
X208357143Y-85965000D01*
X208357143Y-85965000D02*
X208261905Y-86012619D01*
X208261905Y-86012619D02*
X208023810Y-86012619D01*
X208023810Y-86012619D02*
X207928572Y-85965000D01*
X207928572Y-85965000D02*
X207880953Y-85917380D01*
X209023810Y-85441190D02*
X208928572Y-85393571D01*
X208928572Y-85393571D02*
X208880953Y-85345952D01*
X208880953Y-85345952D02*
X208833334Y-85250714D01*
X208833334Y-85250714D02*
X208833334Y-85203095D01*
X208833334Y-85203095D02*
X208880953Y-85107857D01*
X208880953Y-85107857D02*
X208928572Y-85060238D01*
X208928572Y-85060238D02*
X209023810Y-85012619D01*
X209023810Y-85012619D02*
X209214286Y-85012619D01*
X209214286Y-85012619D02*
X209309524Y-85060238D01*
X209309524Y-85060238D02*
X209357143Y-85107857D01*
X209357143Y-85107857D02*
X209404762Y-85203095D01*
X209404762Y-85203095D02*
X209404762Y-85250714D01*
X209404762Y-85250714D02*
X209357143Y-85345952D01*
X209357143Y-85345952D02*
X209309524Y-85393571D01*
X209309524Y-85393571D02*
X209214286Y-85441190D01*
X209214286Y-85441190D02*
X209023810Y-85441190D01*
X209023810Y-85441190D02*
X208928572Y-85488809D01*
X208928572Y-85488809D02*
X208880953Y-85536428D01*
X208880953Y-85536428D02*
X208833334Y-85631666D01*
X208833334Y-85631666D02*
X208833334Y-85822142D01*
X208833334Y-85822142D02*
X208880953Y-85917380D01*
X208880953Y-85917380D02*
X208928572Y-85965000D01*
X208928572Y-85965000D02*
X209023810Y-86012619D01*
X209023810Y-86012619D02*
X209214286Y-86012619D01*
X209214286Y-86012619D02*
X209309524Y-85965000D01*
X209309524Y-85965000D02*
X209357143Y-85917380D01*
X209357143Y-85917380D02*
X209404762Y-85822142D01*
X209404762Y-85822142D02*
X209404762Y-85631666D01*
X209404762Y-85631666D02*
X209357143Y-85536428D01*
X209357143Y-85536428D02*
X209309524Y-85488809D01*
X209309524Y-85488809D02*
X209214286Y-85441190D01*
X209833334Y-85917380D02*
X209880953Y-85965000D01*
X209880953Y-85965000D02*
X209833334Y-86012619D01*
X209833334Y-86012619D02*
X209785715Y-85965000D01*
X209785715Y-85965000D02*
X209833334Y-85917380D01*
X209833334Y-85917380D02*
X209833334Y-86012619D01*
X210500000Y-85012619D02*
X210595238Y-85012619D01*
X210595238Y-85012619D02*
X210690476Y-85060238D01*
X210690476Y-85060238D02*
X210738095Y-85107857D01*
X210738095Y-85107857D02*
X210785714Y-85203095D01*
X210785714Y-85203095D02*
X210833333Y-85393571D01*
X210833333Y-85393571D02*
X210833333Y-85631666D01*
X210833333Y-85631666D02*
X210785714Y-85822142D01*
X210785714Y-85822142D02*
X210738095Y-85917380D01*
X210738095Y-85917380D02*
X210690476Y-85965000D01*
X210690476Y-85965000D02*
X210595238Y-86012619D01*
X210595238Y-86012619D02*
X210500000Y-86012619D01*
X210500000Y-86012619D02*
X210404762Y-85965000D01*
X210404762Y-85965000D02*
X210357143Y-85917380D01*
X210357143Y-85917380D02*
X210309524Y-85822142D01*
X210309524Y-85822142D02*
X210261905Y-85631666D01*
X210261905Y-85631666D02*
X210261905Y-85393571D01*
X210261905Y-85393571D02*
X210309524Y-85203095D01*
X210309524Y-85203095D02*
X210357143Y-85107857D01*
X210357143Y-85107857D02*
X210404762Y-85060238D01*
X210404762Y-85060238D02*
X210500000Y-85012619D01*
X211452381Y-85012619D02*
X211547619Y-85012619D01*
X211547619Y-85012619D02*
X211642857Y-85060238D01*
X211642857Y-85060238D02*
X211690476Y-85107857D01*
X211690476Y-85107857D02*
X211738095Y-85203095D01*
X211738095Y-85203095D02*
X211785714Y-85393571D01*
X211785714Y-85393571D02*
X211785714Y-85631666D01*
X211785714Y-85631666D02*
X211738095Y-85822142D01*
X211738095Y-85822142D02*
X211690476Y-85917380D01*
X211690476Y-85917380D02*
X211642857Y-85965000D01*
X211642857Y-85965000D02*
X211547619Y-86012619D01*
X211547619Y-86012619D02*
X211452381Y-86012619D01*
X211452381Y-86012619D02*
X211357143Y-85965000D01*
X211357143Y-85965000D02*
X211309524Y-85917380D01*
X211309524Y-85917380D02*
X211261905Y-85822142D01*
X211261905Y-85822142D02*
X211214286Y-85631666D01*
X211214286Y-85631666D02*
X211214286Y-85393571D01*
X211214286Y-85393571D02*
X211261905Y-85203095D01*
X211261905Y-85203095D02*
X211309524Y-85107857D01*
X211309524Y-85107857D02*
X211357143Y-85060238D01*
X211357143Y-85060238D02*
X211452381Y-85012619D01*
X212404762Y-85012619D02*
X212500000Y-85012619D01*
X212500000Y-85012619D02*
X212595238Y-85060238D01*
X212595238Y-85060238D02*
X212642857Y-85107857D01*
X212642857Y-85107857D02*
X212690476Y-85203095D01*
X212690476Y-85203095D02*
X212738095Y-85393571D01*
X212738095Y-85393571D02*
X212738095Y-85631666D01*
X212738095Y-85631666D02*
X212690476Y-85822142D01*
X212690476Y-85822142D02*
X212642857Y-85917380D01*
X212642857Y-85917380D02*
X212595238Y-85965000D01*
X212595238Y-85965000D02*
X212500000Y-86012619D01*
X212500000Y-86012619D02*
X212404762Y-86012619D01*
X212404762Y-86012619D02*
X212309524Y-85965000D01*
X212309524Y-85965000D02*
X212261905Y-85917380D01*
X212261905Y-85917380D02*
X212214286Y-85822142D01*
X212214286Y-85822142D02*
X212166667Y-85631666D01*
X212166667Y-85631666D02*
X212166667Y-85393571D01*
X212166667Y-85393571D02*
X212214286Y-85203095D01*
X212214286Y-85203095D02*
X212261905Y-85107857D01*
X212261905Y-85107857D02*
X212309524Y-85060238D01*
X212309524Y-85060238D02*
X212404762Y-85012619D01*
X213357143Y-85012619D02*
X213452381Y-85012619D01*
X213452381Y-85012619D02*
X213547619Y-85060238D01*
X213547619Y-85060238D02*
X213595238Y-85107857D01*
X213595238Y-85107857D02*
X213642857Y-85203095D01*
X213642857Y-85203095D02*
X213690476Y-85393571D01*
X213690476Y-85393571D02*
X213690476Y-85631666D01*
X213690476Y-85631666D02*
X213642857Y-85822142D01*
X213642857Y-85822142D02*
X213595238Y-85917380D01*
X213595238Y-85917380D02*
X213547619Y-85965000D01*
X213547619Y-85965000D02*
X213452381Y-86012619D01*
X213452381Y-86012619D02*
X213357143Y-86012619D01*
X213357143Y-86012619D02*
X213261905Y-85965000D01*
X213261905Y-85965000D02*
X213214286Y-85917380D01*
X213214286Y-85917380D02*
X213166667Y-85822142D01*
X213166667Y-85822142D02*
X213119048Y-85631666D01*
X213119048Y-85631666D02*
X213119048Y-85393571D01*
X213119048Y-85393571D02*
X213166667Y-85203095D01*
X213166667Y-85203095D02*
X213214286Y-85107857D01*
X213214286Y-85107857D02*
X213261905Y-85060238D01*
X213261905Y-85060238D02*
X213357143Y-85012619D01*
X214880953Y-86012619D02*
X214880953Y-85345952D01*
X214880953Y-85441190D02*
X214928572Y-85393571D01*
X214928572Y-85393571D02*
X215023810Y-85345952D01*
X215023810Y-85345952D02*
X215166667Y-85345952D01*
X215166667Y-85345952D02*
X215261905Y-85393571D01*
X215261905Y-85393571D02*
X215309524Y-85488809D01*
X215309524Y-85488809D02*
X215309524Y-86012619D01*
X215309524Y-85488809D02*
X215357143Y-85393571D01*
X215357143Y-85393571D02*
X215452381Y-85345952D01*
X215452381Y-85345952D02*
X215595238Y-85345952D01*
X215595238Y-85345952D02*
X215690477Y-85393571D01*
X215690477Y-85393571D02*
X215738096Y-85488809D01*
X215738096Y-85488809D02*
X215738096Y-86012619D01*
X216214286Y-86012619D02*
X216214286Y-85345952D01*
X216214286Y-85441190D02*
X216261905Y-85393571D01*
X216261905Y-85393571D02*
X216357143Y-85345952D01*
X216357143Y-85345952D02*
X216500000Y-85345952D01*
X216500000Y-85345952D02*
X216595238Y-85393571D01*
X216595238Y-85393571D02*
X216642857Y-85488809D01*
X216642857Y-85488809D02*
X216642857Y-86012619D01*
X216642857Y-85488809D02*
X216690476Y-85393571D01*
X216690476Y-85393571D02*
X216785714Y-85345952D01*
X216785714Y-85345952D02*
X216928571Y-85345952D01*
X216928571Y-85345952D02*
X217023810Y-85393571D01*
X217023810Y-85393571D02*
X217071429Y-85488809D01*
X217071429Y-85488809D02*
X217071429Y-86012619D01*
X241500000Y-98500000D02*
X241500000Y-86113580D01*
X183500000Y-98500000D02*
X183500000Y-86113580D01*
X241500000Y-86700000D02*
X183500000Y-86700000D01*
X241500000Y-86700000D02*
X183500000Y-86700000D01*
X241500000Y-86700000D02*
X240373496Y-87286421D01*
X241500000Y-86700000D02*
X240373496Y-86113579D01*
X183500000Y-86700000D02*
X184626504Y-86113579D01*
X183500000Y-86700000D02*
X184626504Y-87286421D01*
X208404762Y-162012618D02*
X207928572Y-162012618D01*
X207928572Y-162012618D02*
X207880953Y-162488808D01*
X207880953Y-162488808D02*
X207928572Y-162441189D01*
X207928572Y-162441189D02*
X208023810Y-162393570D01*
X208023810Y-162393570D02*
X208261905Y-162393570D01*
X208261905Y-162393570D02*
X208357143Y-162441189D01*
X208357143Y-162441189D02*
X208404762Y-162488808D01*
X208404762Y-162488808D02*
X208452381Y-162584046D01*
X208452381Y-162584046D02*
X208452381Y-162822141D01*
X208452381Y-162822141D02*
X208404762Y-162917379D01*
X208404762Y-162917379D02*
X208357143Y-162964999D01*
X208357143Y-162964999D02*
X208261905Y-163012618D01*
X208261905Y-163012618D02*
X208023810Y-163012618D01*
X208023810Y-163012618D02*
X207928572Y-162964999D01*
X207928572Y-162964999D02*
X207880953Y-162917379D01*
X209023810Y-162441189D02*
X208928572Y-162393570D01*
X208928572Y-162393570D02*
X208880953Y-162345951D01*
X208880953Y-162345951D02*
X208833334Y-162250713D01*
X208833334Y-162250713D02*
X208833334Y-162203094D01*
X208833334Y-162203094D02*
X208880953Y-162107856D01*
X208880953Y-162107856D02*
X208928572Y-162060237D01*
X208928572Y-162060237D02*
X209023810Y-162012618D01*
X209023810Y-162012618D02*
X209214286Y-162012618D01*
X209214286Y-162012618D02*
X209309524Y-162060237D01*
X209309524Y-162060237D02*
X209357143Y-162107856D01*
X209357143Y-162107856D02*
X209404762Y-162203094D01*
X209404762Y-162203094D02*
X209404762Y-162250713D01*
X209404762Y-162250713D02*
X209357143Y-162345951D01*
X209357143Y-162345951D02*
X209309524Y-162393570D01*
X209309524Y-162393570D02*
X209214286Y-162441189D01*
X209214286Y-162441189D02*
X209023810Y-162441189D01*
X209023810Y-162441189D02*
X208928572Y-162488808D01*
X208928572Y-162488808D02*
X208880953Y-162536427D01*
X208880953Y-162536427D02*
X208833334Y-162631665D01*
X208833334Y-162631665D02*
X208833334Y-162822141D01*
X208833334Y-162822141D02*
X208880953Y-162917379D01*
X208880953Y-162917379D02*
X208928572Y-162964999D01*
X208928572Y-162964999D02*
X209023810Y-163012618D01*
X209023810Y-163012618D02*
X209214286Y-163012618D01*
X209214286Y-163012618D02*
X209309524Y-162964999D01*
X209309524Y-162964999D02*
X209357143Y-162917379D01*
X209357143Y-162917379D02*
X209404762Y-162822141D01*
X209404762Y-162822141D02*
X209404762Y-162631665D01*
X209404762Y-162631665D02*
X209357143Y-162536427D01*
X209357143Y-162536427D02*
X209309524Y-162488808D01*
X209309524Y-162488808D02*
X209214286Y-162441189D01*
X209833334Y-162917379D02*
X209880953Y-162964999D01*
X209880953Y-162964999D02*
X209833334Y-163012618D01*
X209833334Y-163012618D02*
X209785715Y-162964999D01*
X209785715Y-162964999D02*
X209833334Y-162917379D01*
X209833334Y-162917379D02*
X209833334Y-163012618D01*
X210500000Y-162012618D02*
X210595238Y-162012618D01*
X210595238Y-162012618D02*
X210690476Y-162060237D01*
X210690476Y-162060237D02*
X210738095Y-162107856D01*
X210738095Y-162107856D02*
X210785714Y-162203094D01*
X210785714Y-162203094D02*
X210833333Y-162393570D01*
X210833333Y-162393570D02*
X210833333Y-162631665D01*
X210833333Y-162631665D02*
X210785714Y-162822141D01*
X210785714Y-162822141D02*
X210738095Y-162917379D01*
X210738095Y-162917379D02*
X210690476Y-162964999D01*
X210690476Y-162964999D02*
X210595238Y-163012618D01*
X210595238Y-163012618D02*
X210500000Y-163012618D01*
X210500000Y-163012618D02*
X210404762Y-162964999D01*
X210404762Y-162964999D02*
X210357143Y-162917379D01*
X210357143Y-162917379D02*
X210309524Y-162822141D01*
X210309524Y-162822141D02*
X210261905Y-162631665D01*
X210261905Y-162631665D02*
X210261905Y-162393570D01*
X210261905Y-162393570D02*
X210309524Y-162203094D01*
X210309524Y-162203094D02*
X210357143Y-162107856D01*
X210357143Y-162107856D02*
X210404762Y-162060237D01*
X210404762Y-162060237D02*
X210500000Y-162012618D01*
X211452381Y-162012618D02*
X211547619Y-162012618D01*
X211547619Y-162012618D02*
X211642857Y-162060237D01*
X211642857Y-162060237D02*
X211690476Y-162107856D01*
X211690476Y-162107856D02*
X211738095Y-162203094D01*
X211738095Y-162203094D02*
X211785714Y-162393570D01*
X211785714Y-162393570D02*
X211785714Y-162631665D01*
X211785714Y-162631665D02*
X211738095Y-162822141D01*
X211738095Y-162822141D02*
X211690476Y-162917379D01*
X211690476Y-162917379D02*
X211642857Y-162964999D01*
X211642857Y-162964999D02*
X211547619Y-163012618D01*
X211547619Y-163012618D02*
X211452381Y-163012618D01*
X211452381Y-163012618D02*
X211357143Y-162964999D01*
X211357143Y-162964999D02*
X211309524Y-162917379D01*
X211309524Y-162917379D02*
X211261905Y-162822141D01*
X211261905Y-162822141D02*
X211214286Y-162631665D01*
X211214286Y-162631665D02*
X211214286Y-162393570D01*
X211214286Y-162393570D02*
X211261905Y-162203094D01*
X211261905Y-162203094D02*
X211309524Y-162107856D01*
X211309524Y-162107856D02*
X211357143Y-162060237D01*
X211357143Y-162060237D02*
X211452381Y-162012618D01*
X212404762Y-162012618D02*
X212500000Y-162012618D01*
X212500000Y-162012618D02*
X212595238Y-162060237D01*
X212595238Y-162060237D02*
X212642857Y-162107856D01*
X212642857Y-162107856D02*
X212690476Y-162203094D01*
X212690476Y-162203094D02*
X212738095Y-162393570D01*
X212738095Y-162393570D02*
X212738095Y-162631665D01*
X212738095Y-162631665D02*
X212690476Y-162822141D01*
X212690476Y-162822141D02*
X212642857Y-162917379D01*
X212642857Y-162917379D02*
X212595238Y-162964999D01*
X212595238Y-162964999D02*
X212500000Y-163012618D01*
X212500000Y-163012618D02*
X212404762Y-163012618D01*
X212404762Y-163012618D02*
X212309524Y-162964999D01*
X212309524Y-162964999D02*
X212261905Y-162917379D01*
X212261905Y-162917379D02*
X212214286Y-162822141D01*
X212214286Y-162822141D02*
X212166667Y-162631665D01*
X212166667Y-162631665D02*
X212166667Y-162393570D01*
X212166667Y-162393570D02*
X212214286Y-162203094D01*
X212214286Y-162203094D02*
X212261905Y-162107856D01*
X212261905Y-162107856D02*
X212309524Y-162060237D01*
X212309524Y-162060237D02*
X212404762Y-162012618D01*
X213357143Y-162012618D02*
X213452381Y-162012618D01*
X213452381Y-162012618D02*
X213547619Y-162060237D01*
X213547619Y-162060237D02*
X213595238Y-162107856D01*
X213595238Y-162107856D02*
X213642857Y-162203094D01*
X213642857Y-162203094D02*
X213690476Y-162393570D01*
X213690476Y-162393570D02*
X213690476Y-162631665D01*
X213690476Y-162631665D02*
X213642857Y-162822141D01*
X213642857Y-162822141D02*
X213595238Y-162917379D01*
X213595238Y-162917379D02*
X213547619Y-162964999D01*
X213547619Y-162964999D02*
X213452381Y-163012618D01*
X213452381Y-163012618D02*
X213357143Y-163012618D01*
X213357143Y-163012618D02*
X213261905Y-162964999D01*
X213261905Y-162964999D02*
X213214286Y-162917379D01*
X213214286Y-162917379D02*
X213166667Y-162822141D01*
X213166667Y-162822141D02*
X213119048Y-162631665D01*
X213119048Y-162631665D02*
X213119048Y-162393570D01*
X213119048Y-162393570D02*
X213166667Y-162203094D01*
X213166667Y-162203094D02*
X213214286Y-162107856D01*
X213214286Y-162107856D02*
X213261905Y-162060237D01*
X213261905Y-162060237D02*
X213357143Y-162012618D01*
X214880953Y-163012618D02*
X214880953Y-162345951D01*
X214880953Y-162441189D02*
X214928572Y-162393570D01*
X214928572Y-162393570D02*
X215023810Y-162345951D01*
X215023810Y-162345951D02*
X215166667Y-162345951D01*
X215166667Y-162345951D02*
X215261905Y-162393570D01*
X215261905Y-162393570D02*
X215309524Y-162488808D01*
X215309524Y-162488808D02*
X215309524Y-163012618D01*
X215309524Y-162488808D02*
X215357143Y-162393570D01*
X215357143Y-162393570D02*
X215452381Y-162345951D01*
X215452381Y-162345951D02*
X215595238Y-162345951D01*
X215595238Y-162345951D02*
X215690477Y-162393570D01*
X215690477Y-162393570D02*
X215738096Y-162488808D01*
X215738096Y-162488808D02*
X215738096Y-163012618D01*
X216214286Y-163012618D02*
X216214286Y-162345951D01*
X216214286Y-162441189D02*
X216261905Y-162393570D01*
X216261905Y-162393570D02*
X216357143Y-162345951D01*
X216357143Y-162345951D02*
X216500000Y-162345951D01*
X216500000Y-162345951D02*
X216595238Y-162393570D01*
X216595238Y-162393570D02*
X216642857Y-162488808D01*
X216642857Y-162488808D02*
X216642857Y-163012618D01*
X216642857Y-162488808D02*
X216690476Y-162393570D01*
X216690476Y-162393570D02*
X216785714Y-162345951D01*
X216785714Y-162345951D02*
X216928571Y-162345951D01*
X216928571Y-162345951D02*
X217023810Y-162393570D01*
X217023810Y-162393570D02*
X217071429Y-162488808D01*
X217071429Y-162488808D02*
X217071429Y-163012618D01*
X241500000Y-147500000D02*
X241500000Y-164286419D01*
X183500000Y-147500000D02*
X183500000Y-164286419D01*
X241500000Y-163699999D02*
X183500000Y-163699999D01*
X241500000Y-163699999D02*
X183500000Y-163699999D01*
X241500000Y-163699999D02*
X240373496Y-164286420D01*
X241500000Y-163699999D02*
X240373496Y-163113578D01*
X183500000Y-163699999D02*
X184626504Y-163113578D01*
X183500000Y-163699999D02*
X184626504Y-164286420D01*
M02*
