G04 #@! TF.GenerationSoftware,KiCad,Pcbnew,7.0.1*
G04 #@! TF.CreationDate,2023-05-18T20:02:15+01:00*
G04 #@! TF.ProjectId,AnthC,416e7468-432e-46b6-9963-61645f706362,rev?*
G04 #@! TF.SameCoordinates,Original*
G04 #@! TF.FileFunction,Soldermask,Bot*
G04 #@! TF.FilePolarity,Negative*
%FSLAX46Y46*%
G04 Gerber Fmt 4.6, Leading zero omitted, Abs format (unit mm)*
G04 Created by KiCad (PCBNEW 7.0.1) date 2023-05-18 20:02:15*
%MOMM*%
%LPD*%
G01*
G04 APERTURE LIST*
G04 Aperture macros list*
%AMRoundRect*
0 Rectangle with rounded corners*
0 $1 Rounding radius*
0 $2 $3 $4 $5 $6 $7 $8 $9 X,Y pos of 4 corners*
0 Add a 4 corners polygon primitive as box body*
4,1,4,$2,$3,$4,$5,$6,$7,$8,$9,$2,$3,0*
0 Add four circle primitives for the rounded corners*
1,1,$1+$1,$2,$3*
1,1,$1+$1,$4,$5*
1,1,$1+$1,$6,$7*
1,1,$1+$1,$8,$9*
0 Add four rect primitives between the rounded corners*
20,1,$1+$1,$2,$3,$4,$5,0*
20,1,$1+$1,$4,$5,$6,$7,0*
20,1,$1+$1,$6,$7,$8,$9,0*
20,1,$1+$1,$8,$9,$2,$3,0*%
G04 Aperture macros list end*
%ADD10C,3.600000*%
%ADD11C,1.000000*%
%ADD12RoundRect,0.200000X0.850000X-0.850000X0.850000X0.850000X-0.850000X0.850000X-0.850000X-0.850000X0*%
%ADD13O,2.100000X2.100000*%
%ADD14C,1.050000*%
%ADD15O,1.400000X2.400000*%
%ADD16O,1.450000X2.500000*%
%ADD17RoundRect,0.200000X-0.800000X0.800000X-0.800000X-0.800000X0.800000X-0.800000X0.800000X0.800000X0*%
%ADD18O,2.000000X2.000000*%
%ADD19RoundRect,0.200000X1.500000X1.500000X-1.500000X1.500000X-1.500000X-1.500000X1.500000X-1.500000X0*%
%ADD20C,3.400000*%
%ADD21O,2.100000X2.400000*%
%ADD22RoundRect,0.200000X0.850000X1.000000X-0.850000X1.000000X-0.850000X-1.000000X0.850000X-1.000000X0*%
%ADD23C,1.900000*%
%ADD24RoundRect,0.200000X1.300000X1.300000X-1.300000X1.300000X-1.300000X-1.300000X1.300000X-1.300000X0*%
%ADD25C,3.000000*%
G04 APERTURE END LIST*
D10*
X241500000Y-98500000D03*
X241500000Y-147500000D03*
X183500000Y-98500000D03*
X183500000Y-147500000D03*
D11*
X194410000Y-122800000D03*
X195810000Y-122800000D03*
X193710000Y-122100000D03*
X195110000Y-122100000D03*
X196510000Y-122100000D03*
X194410000Y-121400000D03*
X195810000Y-121400000D03*
X193710000Y-120700000D03*
X195110000Y-120700000D03*
X196510000Y-120700000D03*
X194410000Y-120000000D03*
X195810000Y-120000000D03*
X225300000Y-123300000D03*
X225300000Y-124300000D03*
X225800000Y-123800000D03*
X226300000Y-123300000D03*
X226300000Y-124300000D03*
D12*
X188372600Y-99772300D03*
D13*
X188372600Y-97232300D03*
X190912600Y-99772300D03*
X190912600Y-97232300D03*
X193452600Y-99772300D03*
X193452600Y-97232300D03*
X195992600Y-99772300D03*
X195992600Y-97232300D03*
X198532600Y-99772300D03*
X198532600Y-97232300D03*
X201072600Y-99772300D03*
X201072600Y-97232300D03*
X203612600Y-99772300D03*
X203612600Y-97232300D03*
X206152600Y-99772300D03*
X206152600Y-97232300D03*
X208692600Y-99772300D03*
X208692600Y-97232300D03*
X211232600Y-99772300D03*
X211232600Y-97232300D03*
X213772600Y-99772300D03*
X213772600Y-97232300D03*
X216312600Y-99772300D03*
X216312600Y-97232300D03*
X218852600Y-99772300D03*
X218852600Y-97232300D03*
X221392600Y-99772300D03*
X221392600Y-97232300D03*
X223932600Y-99772300D03*
X223932600Y-97232300D03*
X226472600Y-99772300D03*
X226472600Y-97232300D03*
X229012600Y-99772300D03*
X229012600Y-97232300D03*
X231552600Y-99772300D03*
X231552600Y-97232300D03*
X234092600Y-99772300D03*
X234092600Y-97232300D03*
X236632600Y-99772300D03*
X236632600Y-97232300D03*
D14*
X191110000Y-145820000D03*
X196890000Y-145820000D03*
D15*
X189680000Y-149500000D03*
X198320000Y-149500000D03*
D16*
X189680000Y-145320000D03*
X198320000Y-145320000D03*
D17*
X238000000Y-107000000D03*
D18*
X235460000Y-107000000D03*
X232920000Y-107000000D03*
X230380000Y-107000000D03*
X230380000Y-114620000D03*
X232920000Y-114620000D03*
X235460000Y-114620000D03*
X238000000Y-114620000D03*
D11*
X242200000Y-137300000D03*
X242200000Y-138700000D03*
X243000000Y-137300000D03*
X243000000Y-138700000D03*
D19*
X240400000Y-128400000D03*
D20*
X219910000Y-128400000D03*
D21*
X234750000Y-148500000D03*
D22*
X232250000Y-148500000D03*
D23*
X211800000Y-141600000D03*
X234800000Y-145400000D03*
X246000000Y-131400000D03*
X237750000Y-128500000D03*
X240600000Y-116800000D03*
X233000000Y-121400000D03*
X234400000Y-119100000D03*
X208000000Y-105800000D03*
X194700000Y-107800000D03*
X230500000Y-116800000D03*
X200800000Y-106200000D03*
X263000000Y-142000000D03*
X257600000Y-120200000D03*
X251200000Y-105400000D03*
X245000000Y-106000000D03*
X243400000Y-128400000D03*
X261200000Y-134600000D03*
X230400000Y-122200000D03*
X213600000Y-143400000D03*
X211600000Y-124300000D03*
D24*
X261460000Y-148500000D03*
D25*
X256380000Y-148500000D03*
X251300000Y-148500000D03*
D23*
X251300000Y-144100000D03*
X232200000Y-145400000D03*
X225100000Y-143600000D03*
X220900000Y-143700000D03*
X239700000Y-134600000D03*
D24*
X214760000Y-148700000D03*
D25*
X209680000Y-148700000D03*
X204600000Y-148700000D03*
D24*
X225760000Y-148700000D03*
D25*
X220680000Y-148700000D03*
M02*
