G04 #@! TF.GenerationSoftware,KiCad,Pcbnew,(5.1.9)-1*
G04 #@! TF.CreationDate,2022-02-23T20:10:39+01:00*
G04 #@! TF.ProjectId,AnthC,416e7468-432e-46b6-9963-61645f706362,rev?*
G04 #@! TF.SameCoordinates,Original*
G04 #@! TF.FileFunction,Legend,Top*
G04 #@! TF.FilePolarity,Positive*
%FSLAX46Y46*%
G04 Gerber Fmt 4.6, Leading zero omitted, Abs format (unit mm)*
G04 Created by KiCad (PCBNEW (5.1.9)-1) date 2022-02-23 20:10:39*
%MOMM*%
%LPD*%
G01*
G04 APERTURE LIST*
%ADD10C,0.150000*%
%ADD11C,0.100000*%
%ADD12C,0.120000*%
%ADD13C,0.400000*%
%ADD14C,0.300000*%
%ADD15C,0.250000*%
%ADD16C,0.500000*%
%ADD17C,0.200000*%
G04 APERTURE END LIST*
D10*
X225200000Y-131429000D02*
X226000000Y-131429000D01*
X225390476Y-132561904D02*
X225390476Y-131761904D01*
X225695238Y-131761904D01*
X225771428Y-131800000D01*
X225809523Y-131838095D01*
X225847619Y-131914285D01*
X225847619Y-132028571D01*
X225809523Y-132104761D01*
X225771428Y-132142857D01*
X225695238Y-132180952D01*
X225390476Y-132180952D01*
X226000000Y-131429000D02*
X226800000Y-131429000D01*
X226609523Y-131800000D02*
X226533333Y-131761904D01*
X226419047Y-131761904D01*
X226304761Y-131800000D01*
X226228571Y-131876190D01*
X226190476Y-131952380D01*
X226152380Y-132104761D01*
X226152380Y-132219047D01*
X226190476Y-132371428D01*
X226228571Y-132447619D01*
X226304761Y-132523809D01*
X226419047Y-132561904D01*
X226495238Y-132561904D01*
X226609523Y-132523809D01*
X226647619Y-132485714D01*
X226647619Y-132219047D01*
X226495238Y-132219047D01*
X220290476Y-132523809D02*
X220404761Y-132561904D01*
X220595238Y-132561904D01*
X220671428Y-132523809D01*
X220709523Y-132485714D01*
X220747619Y-132409523D01*
X220747619Y-132333333D01*
X220709523Y-132257142D01*
X220671428Y-132219047D01*
X220595238Y-132180952D01*
X220442857Y-132142857D01*
X220366666Y-132104761D01*
X220328571Y-132066666D01*
X220290476Y-131990476D01*
X220290476Y-131914285D01*
X220328571Y-131838095D01*
X220366666Y-131800000D01*
X220442857Y-131761904D01*
X220633333Y-131761904D01*
X220747619Y-131800000D01*
X221052380Y-131838095D02*
X221090476Y-131800000D01*
X221166666Y-131761904D01*
X221357142Y-131761904D01*
X221433333Y-131800000D01*
X221471428Y-131838095D01*
X221509523Y-131914285D01*
X221509523Y-131990476D01*
X221471428Y-132104761D01*
X221014285Y-132561904D01*
X221509523Y-132561904D01*
X222890476Y-132523809D02*
X223004761Y-132561904D01*
X223195238Y-132561904D01*
X223271428Y-132523809D01*
X223309523Y-132485714D01*
X223347619Y-132409523D01*
X223347619Y-132333333D01*
X223309523Y-132257142D01*
X223271428Y-132219047D01*
X223195238Y-132180952D01*
X223042857Y-132142857D01*
X222966666Y-132104761D01*
X222928571Y-132066666D01*
X222890476Y-131990476D01*
X222890476Y-131914285D01*
X222928571Y-131838095D01*
X222966666Y-131800000D01*
X223042857Y-131761904D01*
X223233333Y-131761904D01*
X223347619Y-131800000D01*
X224109523Y-132561904D02*
X223652380Y-132561904D01*
X223880952Y-132561904D02*
X223880952Y-131761904D01*
X223804761Y-131876190D01*
X223728571Y-131952380D01*
X223652380Y-131990476D01*
X186600000Y-143864285D02*
X186600000Y-143435714D01*
X186857142Y-143950000D02*
X185957142Y-143650000D01*
X186857142Y-143350000D01*
X186257142Y-143050000D02*
X186857142Y-143050000D01*
X186342857Y-143050000D02*
X186300000Y-143007142D01*
X186257142Y-142921428D01*
X186257142Y-142792857D01*
X186300000Y-142707142D01*
X186385714Y-142664285D01*
X186857142Y-142664285D01*
X186257142Y-142364285D02*
X186257142Y-142021428D01*
X185957142Y-142235714D02*
X186728571Y-142235714D01*
X186814285Y-142192857D01*
X186857142Y-142107142D01*
X186857142Y-142021428D01*
X186857142Y-141721428D02*
X185957142Y-141721428D01*
X186857142Y-141335714D02*
X186385714Y-141335714D01*
X186300000Y-141378571D01*
X186257142Y-141464285D01*
X186257142Y-141592857D01*
X186300000Y-141678571D01*
X186342857Y-141721428D01*
X186771428Y-140392857D02*
X186814285Y-140435714D01*
X186857142Y-140564285D01*
X186857142Y-140650000D01*
X186814285Y-140778571D01*
X186728571Y-140864285D01*
X186642857Y-140907142D01*
X186471428Y-140950000D01*
X186342857Y-140950000D01*
X186171428Y-140907142D01*
X186085714Y-140864285D01*
X186000000Y-140778571D01*
X185957142Y-140650000D01*
X185957142Y-140564285D01*
X186000000Y-140435714D01*
X186042857Y-140392857D01*
X186514285Y-140007142D02*
X186514285Y-139321428D01*
X186857142Y-138892857D02*
X185957142Y-138892857D01*
X186600000Y-138592857D01*
X185957142Y-138292857D01*
X186857142Y-138292857D01*
X186042857Y-137907142D02*
X186000000Y-137864285D01*
X185957142Y-137778571D01*
X185957142Y-137564285D01*
X186000000Y-137478571D01*
X186042857Y-137435714D01*
X186128571Y-137392857D01*
X186214285Y-137392857D01*
X186342857Y-137435714D01*
X186857142Y-137950000D01*
X186857142Y-137392857D01*
X186857142Y-136492857D02*
X186428571Y-136792857D01*
X186857142Y-137007142D02*
X185957142Y-137007142D01*
X185957142Y-136664285D01*
X186000000Y-136578571D01*
X186042857Y-136535714D01*
X186128571Y-136492857D01*
X186257142Y-136492857D01*
X186342857Y-136535714D01*
X186385714Y-136578571D01*
X186428571Y-136664285D01*
X186428571Y-137007142D01*
X186857142Y-135635714D02*
X186857142Y-136150000D01*
X186857142Y-135892857D02*
X185957142Y-135892857D01*
X186085714Y-135978571D01*
X186171428Y-136064285D01*
X186214285Y-136150000D01*
X182358333Y-144890476D02*
X182358333Y-144509523D01*
X182586904Y-144966666D02*
X181786904Y-144700000D01*
X182586904Y-144433333D01*
X182053571Y-144166666D02*
X182586904Y-144166666D01*
X182129761Y-144166666D02*
X182091666Y-144128571D01*
X182053571Y-144052380D01*
X182053571Y-143938095D01*
X182091666Y-143861904D01*
X182167857Y-143823809D01*
X182586904Y-143823809D01*
X182053571Y-143557142D02*
X182053571Y-143252380D01*
X181786904Y-143442857D02*
X182472619Y-143442857D01*
X182548809Y-143404761D01*
X182586904Y-143328571D01*
X182586904Y-143252380D01*
X182586904Y-142985714D02*
X181786904Y-142985714D01*
X182586904Y-142642857D02*
X182167857Y-142642857D01*
X182091666Y-142680952D01*
X182053571Y-142757142D01*
X182053571Y-142871428D01*
X182091666Y-142947619D01*
X182129761Y-142985714D01*
X182586904Y-142261904D02*
X182053571Y-142261904D01*
X181786904Y-142261904D02*
X181825000Y-142300000D01*
X181863095Y-142261904D01*
X181825000Y-142223809D01*
X181786904Y-142261904D01*
X181863095Y-142261904D01*
X182586904Y-141766666D02*
X182548809Y-141842857D01*
X182472619Y-141880952D01*
X181786904Y-141880952D01*
X182586904Y-141347619D02*
X182548809Y-141423809D01*
X182472619Y-141461904D01*
X181786904Y-141461904D01*
X182586904Y-140700000D02*
X182167857Y-140700000D01*
X182091666Y-140738095D01*
X182053571Y-140814285D01*
X182053571Y-140966666D01*
X182091666Y-141042857D01*
X182548809Y-140700000D02*
X182586904Y-140776190D01*
X182586904Y-140966666D01*
X182548809Y-141042857D01*
X182472619Y-141080952D01*
X182396428Y-141080952D01*
X182320238Y-141042857D01*
X182282142Y-140966666D01*
X182282142Y-140776190D01*
X182244047Y-140700000D01*
X182548809Y-139747619D02*
X182586904Y-139671428D01*
X182586904Y-139519047D01*
X182548809Y-139442857D01*
X182472619Y-139404761D01*
X182434523Y-139404761D01*
X182358333Y-139442857D01*
X182320238Y-139519047D01*
X182320238Y-139633333D01*
X182282142Y-139709523D01*
X182205952Y-139747619D01*
X182167857Y-139747619D01*
X182091666Y-139709523D01*
X182053571Y-139633333D01*
X182053571Y-139519047D01*
X182091666Y-139442857D01*
X182586904Y-139061904D02*
X182053571Y-139061904D01*
X182205952Y-139061904D02*
X182129761Y-139023809D01*
X182091666Y-138985714D01*
X182053571Y-138909523D01*
X182053571Y-138833333D01*
X182586904Y-138452380D02*
X182548809Y-138528571D01*
X182472619Y-138566666D01*
X181786904Y-138566666D01*
X182548809Y-138109523D02*
X182586904Y-138109523D01*
X182663095Y-138147619D01*
X182701190Y-138185714D01*
X182586904Y-137157142D02*
X181786904Y-137157142D01*
X182053571Y-136890476D02*
X182053571Y-136585714D01*
X181786904Y-136776190D02*
X182472619Y-136776190D01*
X182548809Y-136738095D01*
X182586904Y-136661904D01*
X182586904Y-136585714D01*
X182586904Y-135976190D02*
X182167857Y-135976190D01*
X182091666Y-136014285D01*
X182053571Y-136090476D01*
X182053571Y-136242857D01*
X182091666Y-136319047D01*
X182548809Y-135976190D02*
X182586904Y-136052380D01*
X182586904Y-136242857D01*
X182548809Y-136319047D01*
X182472619Y-136357142D01*
X182396428Y-136357142D01*
X182320238Y-136319047D01*
X182282142Y-136242857D01*
X182282142Y-136052380D01*
X182244047Y-135976190D01*
X182586904Y-135480952D02*
X182548809Y-135557142D01*
X182472619Y-135595238D01*
X181786904Y-135595238D01*
X182053571Y-135252380D02*
X182586904Y-135061904D01*
X182053571Y-134871428D02*
X182586904Y-135061904D01*
X182777380Y-135138095D01*
X182815476Y-135176190D01*
X182853571Y-135252380D01*
X183403571Y-144947619D02*
X183936904Y-144795238D01*
X183555952Y-144642857D01*
X183936904Y-144490476D01*
X183403571Y-144338095D01*
X183403571Y-144109523D02*
X183936904Y-143957142D01*
X183555952Y-143804761D01*
X183936904Y-143652380D01*
X183403571Y-143500000D01*
X183403571Y-143271428D02*
X183936904Y-143119047D01*
X183555952Y-142966666D01*
X183936904Y-142814285D01*
X183403571Y-142661904D01*
X183860714Y-142357142D02*
X183898809Y-142319047D01*
X183936904Y-142357142D01*
X183898809Y-142395238D01*
X183860714Y-142357142D01*
X183936904Y-142357142D01*
X183936904Y-141633333D02*
X183517857Y-141633333D01*
X183441666Y-141671428D01*
X183403571Y-141747619D01*
X183403571Y-141900000D01*
X183441666Y-141976190D01*
X183898809Y-141633333D02*
X183936904Y-141709523D01*
X183936904Y-141900000D01*
X183898809Y-141976190D01*
X183822619Y-142014285D01*
X183746428Y-142014285D01*
X183670238Y-141976190D01*
X183632142Y-141900000D01*
X183632142Y-141709523D01*
X183594047Y-141633333D01*
X183403571Y-141252380D02*
X183936904Y-141252380D01*
X183479761Y-141252380D02*
X183441666Y-141214285D01*
X183403571Y-141138095D01*
X183403571Y-141023809D01*
X183441666Y-140947619D01*
X183517857Y-140909523D01*
X183936904Y-140909523D01*
X183403571Y-140642857D02*
X183403571Y-140338095D01*
X183136904Y-140528571D02*
X183822619Y-140528571D01*
X183898809Y-140490476D01*
X183936904Y-140414285D01*
X183936904Y-140338095D01*
X183936904Y-140071428D02*
X183136904Y-140071428D01*
X183936904Y-139728571D02*
X183517857Y-139728571D01*
X183441666Y-139766666D01*
X183403571Y-139842857D01*
X183403571Y-139957142D01*
X183441666Y-140033333D01*
X183479761Y-140071428D01*
X183936904Y-139347619D02*
X183403571Y-139347619D01*
X183136904Y-139347619D02*
X183175000Y-139385714D01*
X183213095Y-139347619D01*
X183175000Y-139309523D01*
X183136904Y-139347619D01*
X183213095Y-139347619D01*
X183936904Y-138852380D02*
X183898809Y-138928571D01*
X183822619Y-138966666D01*
X183136904Y-138966666D01*
X183936904Y-138433333D02*
X183898809Y-138509523D01*
X183822619Y-138547619D01*
X183136904Y-138547619D01*
X183936904Y-137785714D02*
X183517857Y-137785714D01*
X183441666Y-137823809D01*
X183403571Y-137900000D01*
X183403571Y-138052380D01*
X183441666Y-138128571D01*
X183898809Y-137785714D02*
X183936904Y-137861904D01*
X183936904Y-138052380D01*
X183898809Y-138128571D01*
X183822619Y-138166666D01*
X183746428Y-138166666D01*
X183670238Y-138128571D01*
X183632142Y-138052380D01*
X183632142Y-137861904D01*
X183594047Y-137785714D01*
X183860714Y-137404761D02*
X183898809Y-137366666D01*
X183936904Y-137404761D01*
X183898809Y-137442857D01*
X183860714Y-137404761D01*
X183936904Y-137404761D01*
X183898809Y-136680952D02*
X183936904Y-136757142D01*
X183936904Y-136909523D01*
X183898809Y-136985714D01*
X183860714Y-137023809D01*
X183784523Y-137061904D01*
X183555952Y-137061904D01*
X183479761Y-137023809D01*
X183441666Y-136985714D01*
X183403571Y-136909523D01*
X183403571Y-136757142D01*
X183441666Y-136680952D01*
X183936904Y-136223809D02*
X183898809Y-136300000D01*
X183860714Y-136338095D01*
X183784523Y-136376190D01*
X183555952Y-136376190D01*
X183479761Y-136338095D01*
X183441666Y-136300000D01*
X183403571Y-136223809D01*
X183403571Y-136109523D01*
X183441666Y-136033333D01*
X183479761Y-135995238D01*
X183555952Y-135957142D01*
X183784523Y-135957142D01*
X183860714Y-135995238D01*
X183898809Y-136033333D01*
X183936904Y-136109523D01*
X183936904Y-136223809D01*
X183936904Y-135614285D02*
X183403571Y-135614285D01*
X183479761Y-135614285D02*
X183441666Y-135576190D01*
X183403571Y-135500000D01*
X183403571Y-135385714D01*
X183441666Y-135309523D01*
X183517857Y-135271428D01*
X183936904Y-135271428D01*
X183517857Y-135271428D02*
X183441666Y-135233333D01*
X183403571Y-135157142D01*
X183403571Y-135042857D01*
X183441666Y-134966666D01*
X183517857Y-134928571D01*
X183936904Y-134928571D01*
D11*
G04 #@! TO.C,D12*
G36*
X259500000Y-103500000D02*
G01*
X259500000Y-102700000D01*
X264500000Y-102700000D01*
X264500000Y-103500000D01*
X259500000Y-103500000D01*
G37*
X259500000Y-103500000D02*
X259500000Y-102700000D01*
X264500000Y-102700000D01*
X264500000Y-103500000D01*
X259500000Y-103500000D01*
D12*
X264750000Y-98350000D02*
X264750000Y-105650000D01*
X259250000Y-98350000D02*
X259250000Y-105650000D01*
X259250000Y-105650000D02*
X260400000Y-105650000D01*
G04 #@! TO.C,D21*
X211220000Y-104160000D02*
X211220000Y-102700000D01*
X214380000Y-104160000D02*
X214380000Y-102000000D01*
X214380000Y-104160000D02*
X213450000Y-104160000D01*
X211220000Y-104160000D02*
X212150000Y-104160000D01*
G04 #@! TO.C,D32*
X192020000Y-104160000D02*
X192020000Y-102700000D01*
X195180000Y-104160000D02*
X195180000Y-102000000D01*
X195180000Y-104160000D02*
X194250000Y-104160000D01*
X192020000Y-104160000D02*
X192950000Y-104160000D01*
G04 #@! TO.C,D33*
X195720000Y-104160000D02*
X195720000Y-102700000D01*
X198880000Y-104160000D02*
X198880000Y-102000000D01*
X198880000Y-104160000D02*
X197950000Y-104160000D01*
X195720000Y-104160000D02*
X196650000Y-104160000D01*
G04 #@! TO.C,D17*
X207220000Y-104160000D02*
X207220000Y-102700000D01*
X210380000Y-104160000D02*
X210380000Y-102000000D01*
X210380000Y-104160000D02*
X209450000Y-104160000D01*
X207220000Y-104160000D02*
X208150000Y-104160000D01*
G04 #@! TO.C,D15*
X199320000Y-104160000D02*
X199320000Y-102700000D01*
X202480000Y-104160000D02*
X202480000Y-102000000D01*
X202480000Y-104160000D02*
X201550000Y-104160000D01*
X199320000Y-104160000D02*
X200250000Y-104160000D01*
G04 #@! TO.C,D30*
X223880000Y-144190000D02*
X223880000Y-145650000D01*
X220720000Y-144190000D02*
X220720000Y-146350000D01*
X220720000Y-144190000D02*
X221650000Y-144190000D01*
X223880000Y-144190000D02*
X222950000Y-144190000D01*
G04 #@! TO.C,D29*
X230820000Y-104160000D02*
X230820000Y-102700000D01*
X233980000Y-104160000D02*
X233980000Y-102000000D01*
X233980000Y-104160000D02*
X233050000Y-104160000D01*
X230820000Y-104160000D02*
X231750000Y-104160000D01*
G04 #@! TO.C,D28*
X222820000Y-104160000D02*
X222820000Y-102700000D01*
X225980000Y-104160000D02*
X225980000Y-102000000D01*
X225980000Y-104160000D02*
X225050000Y-104160000D01*
X222820000Y-104160000D02*
X223750000Y-104160000D01*
G04 #@! TO.C,D27*
X215020000Y-104160000D02*
X215020000Y-102700000D01*
X218180000Y-104160000D02*
X218180000Y-102000000D01*
X218180000Y-104160000D02*
X217250000Y-104160000D01*
X215020000Y-104160000D02*
X215950000Y-104160000D01*
G04 #@! TO.C,D26*
X203420000Y-104160000D02*
X203420000Y-102700000D01*
X206580000Y-104160000D02*
X206580000Y-102000000D01*
X206580000Y-104160000D02*
X205650000Y-104160000D01*
X203420000Y-104160000D02*
X204350000Y-104160000D01*
G04 #@! TO.C,D25*
X226820000Y-104160000D02*
X226820000Y-102700000D01*
X229980000Y-104160000D02*
X229980000Y-102000000D01*
X229980000Y-104160000D02*
X229050000Y-104160000D01*
X226820000Y-104160000D02*
X227750000Y-104160000D01*
G04 #@! TO.C,D22*
X218920000Y-104160000D02*
X218920000Y-102700000D01*
X222080000Y-104160000D02*
X222080000Y-102000000D01*
X222080000Y-104160000D02*
X221150000Y-104160000D01*
X218920000Y-104160000D02*
X219850000Y-104160000D01*
G04 #@! TO.C,D2*
X188320000Y-104160000D02*
X188320000Y-102700000D01*
X191480000Y-104160000D02*
X191480000Y-102000000D01*
X191480000Y-104160000D02*
X190550000Y-104160000D01*
X188320000Y-104160000D02*
X189250000Y-104160000D01*
G04 #@! TO.C,U2*
X232675000Y-135250000D02*
X232675000Y-138050000D01*
X232675000Y-138050000D02*
X230825000Y-138050000D01*
X230825000Y-138050000D02*
X230825000Y-135450000D01*
X231425000Y-135150000D02*
X232675000Y-135150000D01*
X232675000Y-135150000D02*
X232675000Y-135250000D01*
X230825000Y-135450000D02*
X231125000Y-135150000D01*
X231125000Y-135150000D02*
X231425000Y-135150000D01*
D13*
X230150000Y-135150000D02*
G75*
G03*
X230150000Y-135150000I-100000J0D01*
G01*
D12*
G04 #@! TO.C,Q7*
X213050000Y-119150000D02*
X214700000Y-119150000D01*
X214700000Y-120950000D02*
X213400000Y-120950000D01*
G04 #@! TO.C,Q5*
X215050000Y-128100000D02*
X213400000Y-128100000D01*
X213400000Y-126300000D02*
X214700000Y-126300000D01*
G04 #@! TO.C,Q2*
X215050000Y-117450000D02*
X213400000Y-117450000D01*
X213400000Y-115650000D02*
X214700000Y-115650000D01*
G04 #@! TO.C,Q1*
X215200000Y-124300000D02*
X213550000Y-124300000D01*
X213550000Y-122500000D02*
X214850000Y-122500000D01*
G04 #@! TO.C,U10*
X238610000Y-122360000D02*
X238610000Y-122810000D01*
X238610000Y-122810000D02*
X238160000Y-122810000D01*
X235390000Y-120040000D02*
X235390000Y-119590000D01*
X235390000Y-119590000D02*
X235840000Y-119590000D01*
X235390000Y-122360000D02*
X235390000Y-122810000D01*
X235390000Y-122810000D02*
X235840000Y-122810000D01*
X238610000Y-120040000D02*
X238610000Y-119590000D01*
G04 #@! TO.C,R83*
X240522500Y-123037258D02*
X240522500Y-122562742D01*
X239477500Y-123037258D02*
X239477500Y-122562742D01*
G04 #@! TO.C,U6*
X186400000Y-110780000D02*
X186400000Y-129020000D01*
X180535000Y-129020000D02*
X186400000Y-129020000D01*
X180535000Y-110780000D02*
X186400000Y-110780000D01*
X180535000Y-129020000D02*
X180535000Y-110780000D01*
X206280000Y-110780000D02*
X206280000Y-111780000D01*
X205500000Y-110780000D02*
X206280000Y-110780000D01*
X206280000Y-129020000D02*
X206280000Y-128020000D01*
X205500000Y-129020000D02*
X206280000Y-129020000D01*
G04 #@! TO.C,C9*
X255190000Y-106811252D02*
X255190000Y-105388748D01*
X257010000Y-106811252D02*
X257010000Y-105388748D01*
G04 #@! TO.C,R30*
X236737258Y-135022500D02*
X236262742Y-135022500D01*
X236737258Y-133977500D02*
X236262742Y-133977500D01*
G04 #@! TO.C,C20*
X242140580Y-106510000D02*
X241859420Y-106510000D01*
X242140580Y-105490000D02*
X241859420Y-105490000D01*
G04 #@! TO.C,U3*
X245030000Y-106950000D02*
X243530000Y-106950000D01*
X243530000Y-106950000D02*
X243530000Y-107220000D01*
X243530000Y-107220000D02*
X240700000Y-107220000D01*
X245030000Y-113850000D02*
X243530000Y-113850000D01*
X243530000Y-113850000D02*
X243530000Y-113580000D01*
X243530000Y-113580000D02*
X242430000Y-113580000D01*
G04 #@! TO.C,Q6*
X237460000Y-141580000D02*
X237460000Y-140650000D01*
X237460000Y-138420000D02*
X237460000Y-139350000D01*
X237460000Y-138420000D02*
X235300000Y-138420000D01*
X237460000Y-141580000D02*
X236000000Y-141580000D01*
D14*
G04 #@! TO.C,U12*
X241450000Y-137000000D02*
G75*
G03*
X241450000Y-137000000I-150000J0D01*
G01*
D10*
X242200000Y-137400000D02*
X243600000Y-137400000D01*
X241675000Y-140550000D02*
X243725000Y-140550000D01*
D12*
G04 #@! TO.C,R37*
X243062742Y-142022500D02*
X243537258Y-142022500D01*
X243062742Y-140977500D02*
X243537258Y-140977500D01*
G04 #@! TO.C,D7*
X242300000Y-133550000D02*
X242300000Y-136850000D01*
X242300000Y-136850000D02*
X247700000Y-136850000D01*
X242300000Y-133550000D02*
X247700000Y-133550000D01*
G04 #@! TO.C,Q4*
X212130000Y-124190000D02*
X211200000Y-124190000D01*
X208970000Y-124190000D02*
X209900000Y-124190000D01*
X208970000Y-124190000D02*
X208970000Y-126350000D01*
X212130000Y-124190000D02*
X212130000Y-125650000D01*
G04 #@! TO.C,Q3*
X208970000Y-133210000D02*
X209900000Y-133210000D01*
X212130000Y-133210000D02*
X211200000Y-133210000D01*
X212130000Y-133210000D02*
X212130000Y-131050000D01*
X208970000Y-133210000D02*
X208970000Y-131750000D01*
G04 #@! TO.C,J3*
X187042600Y-101102300D02*
X187042600Y-99772300D01*
X188372600Y-101102300D02*
X187042600Y-101102300D01*
X187042600Y-98502300D02*
X187042600Y-95902300D01*
X189642600Y-98502300D02*
X187042600Y-98502300D01*
X189642600Y-101102300D02*
X189642600Y-98502300D01*
X187042600Y-95902300D02*
X237962600Y-95902300D01*
X189642600Y-101102300D02*
X237962600Y-101102300D01*
X237962600Y-101102300D02*
X237962600Y-95902300D01*
G04 #@! TO.C,C43*
X238540000Y-137861252D02*
X238540000Y-136438748D01*
X240360000Y-137861252D02*
X240360000Y-136438748D01*
G04 #@! TO.C,U11*
X222550000Y-106140000D02*
X219100000Y-106140000D01*
X222550000Y-106140000D02*
X224500000Y-106140000D01*
X222550000Y-116260000D02*
X220600000Y-116260000D01*
X222550000Y-116260000D02*
X224500000Y-116260000D01*
G04 #@! TO.C,D5*
X193100000Y-139390000D02*
X191250000Y-139390000D01*
X193100000Y-139390000D02*
X193850000Y-139390000D01*
X193100000Y-142510000D02*
X192350000Y-142510000D01*
X193100000Y-142510000D02*
X193850000Y-142510000D01*
G04 #@! TO.C,R33*
X217062742Y-121222500D02*
X217537258Y-121222500D01*
X217062742Y-120177500D02*
X217537258Y-120177500D01*
G04 #@! TO.C,R6*
X203222500Y-135462742D02*
X203222500Y-135937258D01*
X202177500Y-135462742D02*
X202177500Y-135937258D01*
G04 #@! TO.C,TP3*
X224700000Y-134000000D02*
G75*
G03*
X224700000Y-134000000I-1200000J0D01*
G01*
G04 #@! TO.C,TP2*
X222200000Y-134000000D02*
G75*
G03*
X222200000Y-134000000I-1200000J0D01*
G01*
G04 #@! TO.C,TP1*
X227200000Y-134000000D02*
G75*
G03*
X227200000Y-134000000I-1200000J0D01*
G01*
G04 #@! TO.C,TH1*
X234322500Y-139962742D02*
X234322500Y-140437258D01*
X233277500Y-139962742D02*
X233277500Y-140437258D01*
G04 #@! TO.C,R12*
X232722500Y-139962742D02*
X232722500Y-140437258D01*
X231677500Y-139962742D02*
X231677500Y-140437258D01*
G04 #@! TO.C,C42*
X241910000Y-119940580D02*
X241910000Y-119659420D01*
X240890000Y-119940580D02*
X240890000Y-119659420D01*
G04 #@! TO.C,C39*
X203790000Y-142034420D02*
X203790000Y-142315580D01*
X204810000Y-142034420D02*
X204810000Y-142315580D01*
G04 #@! TO.C,C19*
X201610000Y-138840580D02*
X201610000Y-138559420D01*
X200590000Y-138840580D02*
X200590000Y-138559420D01*
D10*
G04 #@! TO.C,U8*
X254370711Y-97700000D02*
G75*
G03*
X254370711Y-97700000I-70711J0D01*
G01*
G04 #@! TO.C,U7*
X233050000Y-129825000D02*
X231550000Y-129825000D01*
D15*
X230875000Y-129800000D02*
G75*
G03*
X230875000Y-129800000I-125000J0D01*
G01*
D12*
G04 #@! TO.C,U5*
X209085000Y-135340000D02*
X209560000Y-135340000D01*
X209560000Y-135340000D02*
X209560000Y-135815000D01*
X205815000Y-139560000D02*
X205340000Y-139560000D01*
X205340000Y-139560000D02*
X205340000Y-139085000D01*
X209085000Y-139560000D02*
X209560000Y-139560000D01*
X209560000Y-139560000D02*
X209560000Y-139085000D01*
X205815000Y-135340000D02*
X205340000Y-135340000D01*
G04 #@! TO.C,R92*
X211812742Y-136427500D02*
X212287258Y-136427500D01*
X211812742Y-137472500D02*
X212287258Y-137472500D01*
G04 #@! TO.C,R91*
X237022500Y-131862742D02*
X237022500Y-132337258D01*
X235977500Y-131862742D02*
X235977500Y-132337258D01*
G04 #@! TO.C,R90*
X235422500Y-131862742D02*
X235422500Y-132337258D01*
X234377500Y-131862742D02*
X234377500Y-132337258D01*
G04 #@! TO.C,R65*
X218322500Y-142962742D02*
X218322500Y-143437258D01*
X217277500Y-142962742D02*
X217277500Y-143437258D01*
G04 #@! TO.C,R64*
X219822500Y-142962742D02*
X219822500Y-143437258D01*
X218777500Y-142962742D02*
X218777500Y-143437258D01*
G04 #@! TO.C,R7*
X191027500Y-135387258D02*
X191027500Y-134912742D01*
X192072500Y-135387258D02*
X192072500Y-134912742D01*
G04 #@! TO.C,D34*
X201835000Y-136500000D02*
X201835000Y-134215000D01*
X201835000Y-134215000D02*
X200365000Y-134215000D01*
X200365000Y-134215000D02*
X200365000Y-136500000D01*
G04 #@! TO.C,C40*
X193560000Y-135009420D02*
X193560000Y-135290580D01*
X192540000Y-135009420D02*
X192540000Y-135290580D01*
G04 #@! TO.C,C31*
X203310000Y-142059420D02*
X203310000Y-142340580D01*
X202290000Y-142059420D02*
X202290000Y-142340580D01*
G04 #@! TO.C,C16*
X228160000Y-136788748D02*
X228160000Y-138211252D01*
X226340000Y-136788748D02*
X226340000Y-138211252D01*
G04 #@! TO.C,U1*
X263200000Y-120200000D02*
X263200000Y-117500000D01*
X263200000Y-117500000D02*
X258900000Y-117500000D01*
X258900000Y-120200000D02*
X258900000Y-119300000D01*
X263200000Y-120200000D02*
X258900000Y-120200000D01*
X258900000Y-118400000D02*
X258900000Y-117500000D01*
D14*
X258450000Y-121600000D02*
G75*
G03*
X258450000Y-121600000I-150000J0D01*
G01*
D12*
X258900000Y-118400000D02*
G75*
G02*
X258900000Y-119300000I0J-450000D01*
G01*
G04 #@! TO.C,R20*
X190622500Y-142137258D02*
X190622500Y-141662742D01*
X189577500Y-142137258D02*
X189577500Y-141662742D01*
G04 #@! TO.C,U4*
X223600000Y-141050000D02*
X222700000Y-141050000D01*
X221000000Y-141050000D02*
X221000000Y-136850000D01*
X221000000Y-136850000D02*
X223600000Y-136850000D01*
X223600000Y-136850000D02*
X223600000Y-141050000D01*
X221900000Y-141050000D02*
X221000000Y-141050000D01*
X221900000Y-141050000D02*
G75*
G02*
X222700000Y-141050000I400000J0D01*
G01*
G04 #@! TO.C,U13*
X242800000Y-122900000D02*
X242800000Y-121200000D01*
X242800000Y-121200000D02*
X247200000Y-121200000D01*
X247200000Y-121200000D02*
X247200000Y-123800000D01*
X247200000Y-123800000D02*
X243600000Y-123800000D01*
X243600000Y-123800000D02*
X242800000Y-122900000D01*
G04 #@! TO.C,U9*
X226935000Y-122190000D02*
X227410000Y-122190000D01*
X227410000Y-122190000D02*
X227410000Y-122665000D01*
X224665000Y-125410000D02*
X224190000Y-125410000D01*
X224190000Y-125410000D02*
X224190000Y-124935000D01*
X226935000Y-125410000D02*
X227410000Y-125410000D01*
X227410000Y-125410000D02*
X227410000Y-124935000D01*
D14*
X224391421Y-122350000D02*
G75*
G03*
X224391421Y-122350000I-141421J0D01*
G01*
D12*
G04 #@! TO.C,SW1*
X240110000Y-107400000D02*
X240110000Y-114221000D01*
X228270000Y-107400000D02*
X228270000Y-114221000D01*
X240110000Y-107400000D02*
X239040000Y-107400000D01*
X236960000Y-107400000D02*
X236449000Y-107400000D01*
X234470000Y-107400000D02*
X233909000Y-107400000D01*
X231930000Y-107400000D02*
X231369000Y-107400000D01*
X229390000Y-107400000D02*
X228270000Y-107400000D01*
X229390000Y-114221000D02*
X228270000Y-114221000D01*
X231930000Y-114221000D02*
X231369000Y-114221000D01*
X234470000Y-114221000D02*
X233909000Y-114221000D01*
X240110000Y-114221000D02*
X238990000Y-114221000D01*
X237010000Y-114221000D02*
X236449000Y-114221000D01*
X240350000Y-107160000D02*
X240350000Y-108543000D01*
X240350000Y-107160000D02*
X239040000Y-107160000D01*
X238635000Y-109000000D02*
X237365000Y-109000000D01*
X237365000Y-109000000D02*
X237365000Y-112620000D01*
X237365000Y-112620000D02*
X238635000Y-112620000D01*
X238635000Y-112620000D02*
X238635000Y-109000000D01*
X238515000Y-109000000D02*
X238515000Y-110206667D01*
X238395000Y-109000000D02*
X238395000Y-110206667D01*
X238275000Y-109000000D02*
X238275000Y-110206667D01*
X238155000Y-109000000D02*
X238155000Y-110206667D01*
X238035000Y-109000000D02*
X238035000Y-110206667D01*
X237915000Y-109000000D02*
X237915000Y-110206667D01*
X237795000Y-109000000D02*
X237795000Y-110206667D01*
X237675000Y-109000000D02*
X237675000Y-110206667D01*
X237555000Y-109000000D02*
X237555000Y-110206667D01*
X237435000Y-109000000D02*
X237435000Y-110206667D01*
X238635000Y-110206667D02*
X237365000Y-110206667D01*
X236095000Y-109000000D02*
X234825000Y-109000000D01*
X234825000Y-109000000D02*
X234825000Y-112620000D01*
X234825000Y-112620000D02*
X236095000Y-112620000D01*
X236095000Y-112620000D02*
X236095000Y-109000000D01*
X235975000Y-109000000D02*
X235975000Y-110206667D01*
X235855000Y-109000000D02*
X235855000Y-110206667D01*
X235735000Y-109000000D02*
X235735000Y-110206667D01*
X235615000Y-109000000D02*
X235615000Y-110206667D01*
X235495000Y-109000000D02*
X235495000Y-110206667D01*
X235375000Y-109000000D02*
X235375000Y-110206667D01*
X235255000Y-109000000D02*
X235255000Y-110206667D01*
X235135000Y-109000000D02*
X235135000Y-110206667D01*
X235015000Y-109000000D02*
X235015000Y-110206667D01*
X234895000Y-109000000D02*
X234895000Y-110206667D01*
X236095000Y-110206667D02*
X234825000Y-110206667D01*
X233555000Y-109000000D02*
X232285000Y-109000000D01*
X232285000Y-109000000D02*
X232285000Y-112620000D01*
X232285000Y-112620000D02*
X233555000Y-112620000D01*
X233555000Y-112620000D02*
X233555000Y-109000000D01*
X233435000Y-109000000D02*
X233435000Y-110206667D01*
X233315000Y-109000000D02*
X233315000Y-110206667D01*
X233195000Y-109000000D02*
X233195000Y-110206667D01*
X233075000Y-109000000D02*
X233075000Y-110206667D01*
X232955000Y-109000000D02*
X232955000Y-110206667D01*
X232835000Y-109000000D02*
X232835000Y-110206667D01*
X232715000Y-109000000D02*
X232715000Y-110206667D01*
X232595000Y-109000000D02*
X232595000Y-110206667D01*
X232475000Y-109000000D02*
X232475000Y-110206667D01*
X232355000Y-109000000D02*
X232355000Y-110206667D01*
X233555000Y-110206667D02*
X232285000Y-110206667D01*
X231015000Y-109000000D02*
X229745000Y-109000000D01*
X229745000Y-109000000D02*
X229745000Y-112620000D01*
X229745000Y-112620000D02*
X231015000Y-112620000D01*
X231015000Y-112620000D02*
X231015000Y-109000000D01*
X230895000Y-109000000D02*
X230895000Y-110206667D01*
X230775000Y-109000000D02*
X230775000Y-110206667D01*
X230655000Y-109000000D02*
X230655000Y-110206667D01*
X230535000Y-109000000D02*
X230535000Y-110206667D01*
X230415000Y-109000000D02*
X230415000Y-110206667D01*
X230295000Y-109000000D02*
X230295000Y-110206667D01*
X230175000Y-109000000D02*
X230175000Y-110206667D01*
X230055000Y-109000000D02*
X230055000Y-110206667D01*
X229935000Y-109000000D02*
X229935000Y-110206667D01*
X229815000Y-109000000D02*
X229815000Y-110206667D01*
X231015000Y-110206667D02*
X229745000Y-110206667D01*
G04 #@! TO.C,R27*
X224612742Y-119972500D02*
X225087258Y-119972500D01*
X224612742Y-118927500D02*
X225087258Y-118927500D01*
G04 #@! TO.C,C41*
X246188748Y-133210000D02*
X247611252Y-133210000D01*
X246188748Y-131390000D02*
X247611252Y-131390000D01*
G04 #@! TO.C,R66*
X208562742Y-113022500D02*
X209037258Y-113022500D01*
X208562742Y-111977500D02*
X209037258Y-111977500D01*
G04 #@! TO.C,D16*
X215040000Y-105820000D02*
X216500000Y-105820000D01*
X215040000Y-108980000D02*
X217200000Y-108980000D01*
X215040000Y-108980000D02*
X215040000Y-108050000D01*
X215040000Y-105820000D02*
X215040000Y-106750000D01*
G04 #@! TO.C,D31*
X235750000Y-144000000D02*
X235750000Y-142000000D01*
X235750000Y-142000000D02*
X231850000Y-142000000D01*
X235750000Y-144000000D02*
X231850000Y-144000000D01*
D16*
G04 #@! TO.C,L1*
X256310555Y-113750000D02*
G75*
G03*
X256310555Y-113750000I-250000J0D01*
G01*
D12*
X256500000Y-114600000D02*
X254500000Y-114600000D01*
X254500000Y-108600000D02*
X256500000Y-108600000D01*
G04 #@! TO.C,C1*
X256511252Y-126410000D02*
X255088748Y-126410000D01*
X256511252Y-124590000D02*
X255088748Y-124590000D01*
G04 #@! TO.C,C29*
X245059420Y-127510000D02*
X245340580Y-127510000D01*
X245059420Y-126490000D02*
X245340580Y-126490000D01*
G04 #@! TO.C,R19*
X217537258Y-125677500D02*
X217062742Y-125677500D01*
X217537258Y-126722500D02*
X217062742Y-126722500D01*
G04 #@! TO.C,R63*
X207027500Y-141962742D02*
X207027500Y-142437258D01*
X208072500Y-141962742D02*
X208072500Y-142437258D01*
G04 #@! TO.C,R52*
X212437258Y-113077500D02*
X211962742Y-113077500D01*
X212437258Y-114122500D02*
X211962742Y-114122500D01*
G04 #@! TO.C,R51*
X212437258Y-109622500D02*
X211962742Y-109622500D01*
X212437258Y-108577500D02*
X211962742Y-108577500D01*
G04 #@! TO.C,R50*
X210787258Y-118427500D02*
X210312742Y-118427500D01*
X210787258Y-119472500D02*
X210312742Y-119472500D01*
G04 #@! TO.C,R49*
X208562742Y-110022500D02*
X209037258Y-110022500D01*
X208562742Y-108977500D02*
X209037258Y-108977500D01*
G04 #@! TO.C,R47*
X206572500Y-142437258D02*
X206572500Y-141962742D01*
X205527500Y-142437258D02*
X205527500Y-141962742D01*
G04 #@! TO.C,R46*
X211962742Y-105477500D02*
X212437258Y-105477500D01*
X211962742Y-106522500D02*
X212437258Y-106522500D01*
G04 #@! TO.C,R45*
X211962742Y-111122500D02*
X212437258Y-111122500D01*
X211962742Y-110077500D02*
X212437258Y-110077500D01*
G04 #@! TO.C,R44*
X210312742Y-122622500D02*
X210787258Y-122622500D01*
X210312742Y-121577500D02*
X210787258Y-121577500D01*
G04 #@! TO.C,R43*
X209572500Y-142437258D02*
X209572500Y-141962742D01*
X208527500Y-142437258D02*
X208527500Y-141962742D01*
G04 #@! TO.C,R40*
X206037258Y-105327500D02*
X205562742Y-105327500D01*
X206037258Y-106372500D02*
X205562742Y-106372500D01*
G04 #@! TO.C,R39*
X227237258Y-143477500D02*
X226762742Y-143477500D01*
X227237258Y-144522500D02*
X226762742Y-144522500D01*
G04 #@! TO.C,R38*
X226762742Y-143022500D02*
X227237258Y-143022500D01*
X226762742Y-141977500D02*
X227237258Y-141977500D01*
G04 #@! TO.C,R36*
X243537258Y-142627500D02*
X243062742Y-142627500D01*
X243537258Y-143672500D02*
X243062742Y-143672500D01*
G04 #@! TO.C,R35*
X217537258Y-123677500D02*
X217062742Y-123677500D01*
X217537258Y-124722500D02*
X217062742Y-124722500D01*
G04 #@! TO.C,R32*
X225237258Y-129377500D02*
X224762742Y-129377500D01*
X225237258Y-130422500D02*
X224762742Y-130422500D01*
G04 #@! TO.C,R29*
X229677500Y-120262742D02*
X229677500Y-120737258D01*
X230722500Y-120262742D02*
X230722500Y-120737258D01*
G04 #@! TO.C,R24*
X231522500Y-124737258D02*
X231522500Y-124262742D01*
X230477500Y-124737258D02*
X230477500Y-124262742D01*
G04 #@! TO.C,R23*
X229222500Y-120737258D02*
X229222500Y-120262742D01*
X228177500Y-120737258D02*
X228177500Y-120262742D01*
G04 #@! TO.C,R22*
X230022500Y-124737258D02*
X230022500Y-124262742D01*
X228977500Y-124737258D02*
X228977500Y-124262742D01*
G04 #@! TO.C,R21*
X210072500Y-128937258D02*
X210072500Y-128462742D01*
X209027500Y-128937258D02*
X209027500Y-128462742D01*
G04 #@! TO.C,R18*
X211027500Y-128462742D02*
X211027500Y-128937258D01*
X212072500Y-128462742D02*
X212072500Y-128937258D01*
G04 #@! TO.C,R16*
X189562742Y-106422500D02*
X190037258Y-106422500D01*
X189562742Y-105377500D02*
X190037258Y-105377500D01*
G04 #@! TO.C,R14*
X196987258Y-105377500D02*
X196512742Y-105377500D01*
X196987258Y-106422500D02*
X196512742Y-106422500D01*
G04 #@! TO.C,R13*
X224612742Y-121472500D02*
X225087258Y-121472500D01*
X224612742Y-120427500D02*
X225087258Y-120427500D01*
G04 #@! TO.C,R11*
X237772500Y-136987258D02*
X237772500Y-136512742D01*
X236727500Y-136987258D02*
X236727500Y-136512742D01*
G04 #@! TO.C,R10*
X225237258Y-126377500D02*
X224762742Y-126377500D01*
X225237258Y-127422500D02*
X224762742Y-127422500D01*
G04 #@! TO.C,R9*
X217537258Y-121927500D02*
X217062742Y-121927500D01*
X217537258Y-122972500D02*
X217062742Y-122972500D01*
G04 #@! TO.C,R5*
X222537258Y-141927500D02*
X222062742Y-141927500D01*
X222537258Y-142972500D02*
X222062742Y-142972500D01*
G04 #@! TO.C,C38*
X212340580Y-111590000D02*
X212059420Y-111590000D01*
X212340580Y-112610000D02*
X212059420Y-112610000D01*
G04 #@! TO.C,C37*
X212340580Y-108110000D02*
X212059420Y-108110000D01*
X212340580Y-107090000D02*
X212059420Y-107090000D01*
G04 #@! TO.C,C36*
X210690580Y-120090000D02*
X210409420Y-120090000D01*
X210690580Y-121110000D02*
X210409420Y-121110000D01*
G04 #@! TO.C,C35*
X208659420Y-111510000D02*
X208940580Y-111510000D01*
X208659420Y-110490000D02*
X208940580Y-110490000D01*
G04 #@! TO.C,C34*
X230510000Y-130440580D02*
X230510000Y-130159420D01*
X229490000Y-130440580D02*
X229490000Y-130159420D01*
G04 #@! TO.C,C33*
X261859420Y-98260000D02*
X262140580Y-98260000D01*
X261859420Y-97240000D02*
X262140580Y-97240000D01*
G04 #@! TO.C,C32*
X251040000Y-97309420D02*
X251040000Y-97590580D01*
X252060000Y-97309420D02*
X252060000Y-97590580D01*
G04 #@! TO.C,C30*
X187711252Y-131790000D02*
X186288748Y-131790000D01*
X187711252Y-133610000D02*
X186288748Y-133610000D01*
G04 #@! TO.C,C23*
X221840000Y-123859420D02*
X221840000Y-124140580D01*
X222860000Y-123859420D02*
X222860000Y-124140580D01*
G04 #@! TO.C,C18*
X234211252Y-144340000D02*
X232788748Y-144340000D01*
X234211252Y-146160000D02*
X232788748Y-146160000D01*
G04 #@! TO.C,C17*
X235240000Y-136609420D02*
X235240000Y-136890580D01*
X236260000Y-136609420D02*
X236260000Y-136890580D01*
G04 #@! TO.C,C15*
X240510000Y-119940580D02*
X240510000Y-119659420D01*
X239490000Y-119940580D02*
X239490000Y-119659420D01*
G04 #@! TO.C,C14*
X187940580Y-130240000D02*
X187659420Y-130240000D01*
X187940580Y-131260000D02*
X187659420Y-131260000D01*
G04 #@! TO.C,C13*
X218310000Y-140340580D02*
X218310000Y-140059420D01*
X217290000Y-140340580D02*
X217290000Y-140059420D01*
G04 #@! TO.C,R89*
X188622500Y-145162742D02*
X188622500Y-145637258D01*
X187577500Y-145162742D02*
X187577500Y-145637258D01*
G04 #@! TO.C,R88*
X200522500Y-149012742D02*
X200522500Y-149487258D01*
X199477500Y-149012742D02*
X199477500Y-149487258D01*
G04 #@! TO.C,R87*
X248362742Y-98577500D02*
X248837258Y-98577500D01*
X248362742Y-99622500D02*
X248837258Y-99622500D01*
G04 #@! TO.C,R86*
X260362742Y-108677500D02*
X260837258Y-108677500D01*
X260362742Y-109722500D02*
X260837258Y-109722500D01*
G04 #@! TO.C,R85*
X211812742Y-137927500D02*
X212287258Y-137927500D01*
X211812742Y-138972500D02*
X212287258Y-138972500D01*
G04 #@! TO.C,R84*
X211812742Y-139427500D02*
X212287258Y-139427500D01*
X211812742Y-140472500D02*
X212287258Y-140472500D01*
G04 #@! TO.C,R8*
X262477500Y-108837258D02*
X262477500Y-108362742D01*
X263522500Y-108837258D02*
X263522500Y-108362742D01*
G04 #@! TO.C,R1*
X256122500Y-140062742D02*
X256122500Y-140537258D01*
X255077500Y-140062742D02*
X255077500Y-140537258D01*
G04 #@! TO.C,Q9*
X249460000Y-103180000D02*
X249460000Y-102250000D01*
X249460000Y-100020000D02*
X249460000Y-100950000D01*
X249460000Y-100020000D02*
X247300000Y-100020000D01*
X249460000Y-103180000D02*
X248000000Y-103180000D01*
G04 #@! TO.C,Q8*
X256620000Y-140960000D02*
X257550000Y-140960000D01*
X259780000Y-140960000D02*
X258850000Y-140960000D01*
X259780000Y-140960000D02*
X259780000Y-138800000D01*
X256620000Y-140960000D02*
X256620000Y-139500000D01*
D17*
G04 #@! TO.C,J1*
X198790000Y-146850000D02*
X198790000Y-148100000D01*
X189210000Y-146850000D02*
X189210000Y-148100000D01*
X198790000Y-152100000D02*
X198790000Y-150820000D01*
X189210000Y-152100000D02*
X198790000Y-152100000D01*
X189210000Y-150820000D02*
X189210000Y-152100000D01*
D12*
G04 #@! TO.C,FL1*
X260600000Y-127800000D02*
X260600000Y-135000000D01*
X254200000Y-127800000D02*
X255000000Y-127800000D01*
X256800000Y-135000000D02*
X258000000Y-135000000D01*
X259800000Y-135000000D02*
X260600000Y-135000000D01*
X260600000Y-127800000D02*
X259800000Y-127800000D01*
X258000000Y-127800000D02*
X256800000Y-127800000D01*
X255000000Y-135000000D02*
X254200000Y-134000000D01*
X254200000Y-134000000D02*
X254200000Y-127800000D01*
G04 #@! TO.C,D24*
X244800000Y-104750000D02*
X244800000Y-100850000D01*
X246800000Y-104750000D02*
X246800000Y-100850000D01*
X244800000Y-104750000D02*
X246800000Y-104750000D01*
G04 #@! TO.C,D18*
X256600000Y-115350000D02*
X254600000Y-115350000D01*
X254600000Y-115350000D02*
X254600000Y-119250000D01*
X256600000Y-115350000D02*
X256600000Y-119250000D01*
G04 #@! TO.C,D14*
X257850000Y-136300000D02*
X261750000Y-136300000D01*
X257850000Y-138300000D02*
X261750000Y-138300000D01*
X257850000Y-136300000D02*
X257850000Y-138300000D01*
G04 #@! TO.C,D13*
X261950000Y-146350000D02*
X261950000Y-142050000D01*
X261950000Y-142050000D02*
X256250000Y-142050000D01*
X261950000Y-146350000D02*
X256250000Y-146350000D01*
G04 #@! TO.C,D9*
X244550000Y-129000000D02*
X248450000Y-129000000D01*
X244550000Y-131000000D02*
X248450000Y-131000000D01*
X244550000Y-129000000D02*
X244550000Y-131000000D01*
G04 #@! TO.C,D8*
X214550000Y-146700000D02*
X210650000Y-146700000D01*
X214550000Y-144700000D02*
X210650000Y-144700000D01*
X214550000Y-146700000D02*
X214550000Y-144700000D01*
G04 #@! TO.C,D1*
X206050000Y-146450000D02*
X202150000Y-146450000D01*
X206050000Y-144450000D02*
X202150000Y-144450000D01*
X206050000Y-146450000D02*
X206050000Y-144450000D01*
G04 #@! TO.C,C24*
X242840580Y-115760000D02*
X242559420Y-115760000D01*
X242840580Y-114740000D02*
X242559420Y-114740000D01*
G04 #@! TO.C,C22*
X245788748Y-114340000D02*
X247211252Y-114340000D01*
X245788748Y-116160000D02*
X247211252Y-116160000D01*
G04 #@! TO.C,C12*
X242911252Y-104910000D02*
X241488748Y-104910000D01*
X242911252Y-103090000D02*
X241488748Y-103090000D01*
G04 #@! TO.C,C11*
X257790000Y-107040580D02*
X257790000Y-106759420D01*
X258810000Y-107040580D02*
X258810000Y-106759420D01*
G04 #@! TO.C,C8*
X257090000Y-116840580D02*
X257090000Y-116559420D01*
X258110000Y-116840580D02*
X258110000Y-116559420D01*
G04 #@! TO.C,C7*
X261340000Y-112607836D02*
X261340000Y-112392164D01*
X262060000Y-112607836D02*
X262060000Y-112392164D01*
G04 #@! TO.C,C5*
X261040580Y-114810000D02*
X260759420Y-114810000D01*
X261040580Y-113790000D02*
X260759420Y-113790000D01*
G04 #@! TO.C,C4*
X259659420Y-122990000D02*
X259940580Y-122990000D01*
X259659420Y-124010000D02*
X259940580Y-124010000D01*
G04 #@! TO.C,C3*
X262859420Y-122990000D02*
X263140580Y-122990000D01*
X262859420Y-124010000D02*
X263140580Y-124010000D01*
G04 #@! TO.C,C2*
X259888748Y-124590000D02*
X261311252Y-124590000D01*
X259888748Y-126410000D02*
X261311252Y-126410000D01*
G04 #@! TO.C,R82*
X239122500Y-125037258D02*
X239122500Y-124562742D01*
X238077500Y-125037258D02*
X238077500Y-124562742D01*
G04 #@! TO.C,R81*
X208562742Y-114522500D02*
X209037258Y-114522500D01*
X208562742Y-113477500D02*
X209037258Y-113477500D01*
G04 #@! TO.C,R80*
X207022500Y-108487258D02*
X207022500Y-108012742D01*
X205977500Y-108487258D02*
X205977500Y-108012742D01*
G04 #@! TO.C,R79*
X203972500Y-108387258D02*
X203972500Y-107912742D01*
X202927500Y-108387258D02*
X202927500Y-107912742D01*
G04 #@! TO.C,R78*
X189972500Y-108387258D02*
X189972500Y-107912742D01*
X188927500Y-108387258D02*
X188927500Y-107912742D01*
G04 #@! TO.C,R77*
X191722500Y-108387258D02*
X191722500Y-107912742D01*
X190677500Y-108387258D02*
X190677500Y-107912742D01*
G04 #@! TO.C,R76*
X198222500Y-108387258D02*
X198222500Y-107912742D01*
X197177500Y-108387258D02*
X197177500Y-107912742D01*
G04 #@! TO.C,R75*
X202222500Y-108387258D02*
X202222500Y-107912742D01*
X201177500Y-108387258D02*
X201177500Y-107912742D01*
G04 #@! TO.C,R74*
X200222500Y-108387258D02*
X200222500Y-107912742D01*
X199177500Y-108387258D02*
X199177500Y-107912742D01*
G04 #@! TO.C,R73*
X196522500Y-108337258D02*
X196522500Y-107862742D01*
X195477500Y-108337258D02*
X195477500Y-107862742D01*
G04 #@! TO.C,R72*
X216137258Y-113177500D02*
X215662742Y-113177500D01*
X216137258Y-114222500D02*
X215662742Y-114222500D01*
G04 #@! TO.C,R71*
X205722500Y-108387258D02*
X205722500Y-107912742D01*
X204677500Y-108387258D02*
X204677500Y-107912742D01*
G04 #@! TO.C,R70*
X194972500Y-108387258D02*
X194972500Y-107912742D01*
X193927500Y-108387258D02*
X193927500Y-107912742D01*
G04 #@! TO.C,R69*
X193372500Y-108387258D02*
X193372500Y-107912742D01*
X192327500Y-108387258D02*
X192327500Y-107912742D01*
G04 #@! TO.C,R68*
X257837258Y-102477500D02*
X257362742Y-102477500D01*
X257837258Y-103522500D02*
X257362742Y-103522500D01*
G04 #@! TO.C,R67*
X233477500Y-124262742D02*
X233477500Y-124737258D01*
X234522500Y-124262742D02*
X234522500Y-124737258D01*
G04 #@! TO.C,R62*
X203477500Y-131262742D02*
X203477500Y-131737258D01*
X204522500Y-131262742D02*
X204522500Y-131737258D01*
G04 #@! TO.C,R61*
X201977500Y-131262742D02*
X201977500Y-131737258D01*
X203022500Y-131262742D02*
X203022500Y-131737258D01*
G04 #@! TO.C,R60*
X200477500Y-131262742D02*
X200477500Y-131737258D01*
X201522500Y-131262742D02*
X201522500Y-131737258D01*
G04 #@! TO.C,R59*
X198977500Y-131262742D02*
X198977500Y-131737258D01*
X200022500Y-131262742D02*
X200022500Y-131737258D01*
G04 #@! TO.C,R58*
X197477500Y-131262742D02*
X197477500Y-131737258D01*
X198522500Y-131262742D02*
X198522500Y-131737258D01*
G04 #@! TO.C,R57*
X195977500Y-131262742D02*
X195977500Y-131737258D01*
X197022500Y-131262742D02*
X197022500Y-131737258D01*
G04 #@! TO.C,R56*
X194477500Y-131262742D02*
X194477500Y-131737258D01*
X195522500Y-131262742D02*
X195522500Y-131737258D01*
G04 #@! TO.C,R55*
X192977500Y-131262742D02*
X192977500Y-131737258D01*
X194022500Y-131262742D02*
X194022500Y-131737258D01*
G04 #@! TO.C,R54*
X196037258Y-133177500D02*
X195562742Y-133177500D01*
X196037258Y-134222500D02*
X195562742Y-134222500D01*
G04 #@! TO.C,R53*
X190572500Y-135387258D02*
X190572500Y-134912742D01*
X189527500Y-135387258D02*
X189527500Y-134912742D01*
G04 #@! TO.C,R48*
X190877500Y-131662742D02*
X190877500Y-132137258D01*
X191922500Y-131662742D02*
X191922500Y-132137258D01*
G04 #@! TO.C,R42*
X217537258Y-118527500D02*
X217062742Y-118527500D01*
X217537258Y-119572500D02*
X217062742Y-119572500D01*
G04 #@! TO.C,R41*
X214037258Y-129427500D02*
X213562742Y-129427500D01*
X214037258Y-130472500D02*
X213562742Y-130472500D01*
G04 #@! TO.C,R34*
X237037258Y-116177500D02*
X236562742Y-116177500D01*
X237037258Y-117222500D02*
X236562742Y-117222500D01*
G04 #@! TO.C,R31*
X197322500Y-142187258D02*
X197322500Y-141712742D01*
X196277500Y-142187258D02*
X196277500Y-141712742D01*
G04 #@! TO.C,R28*
X227722500Y-114437258D02*
X227722500Y-113962742D01*
X226677500Y-114437258D02*
X226677500Y-113962742D01*
G04 #@! TO.C,R26*
X233577500Y-116962742D02*
X233577500Y-117437258D01*
X234622500Y-116962742D02*
X234622500Y-117437258D01*
G04 #@! TO.C,R25*
X232077500Y-116962742D02*
X232077500Y-117437258D01*
X233122500Y-116962742D02*
X233122500Y-117437258D01*
G04 #@! TO.C,R17*
X217537258Y-117027500D02*
X217062742Y-117027500D01*
X217537258Y-118072500D02*
X217062742Y-118072500D01*
G04 #@! TO.C,R15*
X217537258Y-115177500D02*
X217062742Y-115177500D01*
X217537258Y-116222500D02*
X217062742Y-116222500D01*
G04 #@! TO.C,R4*
X199277500Y-145162742D02*
X199277500Y-145637258D01*
X200322500Y-145162742D02*
X200322500Y-145637258D01*
G04 #@! TO.C,R3*
X188522500Y-149637258D02*
X188522500Y-149162742D01*
X187477500Y-149637258D02*
X187477500Y-149162742D01*
G04 #@! TO.C,D23*
X213565000Y-139185000D02*
X215850000Y-139185000D01*
X213565000Y-137715000D02*
X213565000Y-139185000D01*
X215850000Y-137715000D02*
X213565000Y-137715000D01*
G04 #@! TO.C,D4*
X213565000Y-140685000D02*
X215850000Y-140685000D01*
X213565000Y-139215000D02*
X213565000Y-140685000D01*
X215850000Y-139215000D02*
X213565000Y-139215000D01*
G04 #@! TO.C,D3*
X199500000Y-135550000D02*
X199500000Y-139450000D01*
X197500000Y-135550000D02*
X197500000Y-139450000D01*
X199500000Y-135550000D02*
X197500000Y-135550000D01*
G04 #@! TO.C,C28*
X232210000Y-120640580D02*
X232210000Y-120359420D01*
X231190000Y-120640580D02*
X231190000Y-120359420D01*
G04 #@! TO.C,C27*
X224859420Y-128910000D02*
X225140580Y-128910000D01*
X224859420Y-127890000D02*
X225140580Y-127890000D01*
G04 #@! TO.C,C26*
X231990000Y-124359420D02*
X231990000Y-124640580D01*
X233010000Y-124359420D02*
X233010000Y-124640580D01*
G04 #@! TO.C,C25*
X224990580Y-117440000D02*
X224709420Y-117440000D01*
X224990580Y-118460000D02*
X224709420Y-118460000D01*
G04 #@! TO.C,C21*
X246111252Y-116590000D02*
X244688748Y-116590000D01*
X246111252Y-118410000D02*
X244688748Y-118410000D01*
G04 #@! TO.C,C6*
X203210000Y-138840580D02*
X203210000Y-138559420D01*
X202190000Y-138840580D02*
X202190000Y-138559420D01*
G04 #@! TO.C,D20*
X237250000Y-129600000D02*
X237250000Y-127600000D01*
X237250000Y-127600000D02*
X233350000Y-127600000D01*
X237250000Y-129600000D02*
X233350000Y-129600000D01*
G04 #@! TO.C,D11*
X214990000Y-109570000D02*
X214990000Y-110500000D01*
X214990000Y-112730000D02*
X214990000Y-111800000D01*
X214990000Y-112730000D02*
X217150000Y-112730000D01*
X214990000Y-109570000D02*
X216450000Y-109570000D01*
G04 #@! TO.C,D10*
X208790000Y-114870000D02*
X208790000Y-115800000D01*
X208790000Y-118030000D02*
X208790000Y-117100000D01*
X208790000Y-118030000D02*
X210950000Y-118030000D01*
X208790000Y-114870000D02*
X210250000Y-114870000D01*
G04 #@! TO.C,D6*
X208240000Y-105420000D02*
X208240000Y-106350000D01*
X208240000Y-108580000D02*
X208240000Y-107650000D01*
X208240000Y-108580000D02*
X210400000Y-108580000D01*
X208240000Y-105420000D02*
X209700000Y-105420000D01*
G04 #@! TO.C,D12*
D10*
X259052380Y-99214285D02*
X258052380Y-99214285D01*
X258052380Y-98976190D01*
X258100000Y-98833333D01*
X258195238Y-98738095D01*
X258290476Y-98690476D01*
X258480952Y-98642857D01*
X258623809Y-98642857D01*
X258814285Y-98690476D01*
X258909523Y-98738095D01*
X259004761Y-98833333D01*
X259052380Y-98976190D01*
X259052380Y-99214285D01*
X259052380Y-97690476D02*
X259052380Y-98261904D01*
X259052380Y-97976190D02*
X258052380Y-97976190D01*
X258195238Y-98071428D01*
X258290476Y-98166666D01*
X258338095Y-98261904D01*
X258147619Y-97309523D02*
X258100000Y-97261904D01*
X258052380Y-97166666D01*
X258052380Y-96928571D01*
X258100000Y-96833333D01*
X258147619Y-96785714D01*
X258242857Y-96738095D01*
X258338095Y-96738095D01*
X258480952Y-96785714D01*
X259052380Y-97357142D01*
X259052380Y-96738095D01*
X260852380Y-105964285D02*
X260852380Y-106535714D01*
X260852380Y-106250000D02*
X259852380Y-106250000D01*
X259995238Y-106345238D01*
X260090476Y-106440476D01*
X260138095Y-106535714D01*
G04 #@! TO.C,U2*
X228838095Y-133252380D02*
X228838095Y-134061904D01*
X228885714Y-134157142D01*
X228933333Y-134204761D01*
X229028571Y-134252380D01*
X229219047Y-134252380D01*
X229314285Y-134204761D01*
X229361904Y-134157142D01*
X229409523Y-134061904D01*
X229409523Y-133252380D01*
X229838095Y-133347619D02*
X229885714Y-133300000D01*
X229980952Y-133252380D01*
X230219047Y-133252380D01*
X230314285Y-133300000D01*
X230361904Y-133347619D01*
X230409523Y-133442857D01*
X230409523Y-133538095D01*
X230361904Y-133680952D01*
X229790476Y-134252380D01*
X230409523Y-134252380D01*
G04 #@! TO.C,Q7*
X213954761Y-118897619D02*
X213859523Y-118850000D01*
X213764285Y-118754761D01*
X213621428Y-118611904D01*
X213526190Y-118564285D01*
X213430952Y-118564285D01*
X213478571Y-118802380D02*
X213383333Y-118754761D01*
X213288095Y-118659523D01*
X213240476Y-118469047D01*
X213240476Y-118135714D01*
X213288095Y-117945238D01*
X213383333Y-117850000D01*
X213478571Y-117802380D01*
X213669047Y-117802380D01*
X213764285Y-117850000D01*
X213859523Y-117945238D01*
X213907142Y-118135714D01*
X213907142Y-118469047D01*
X213859523Y-118659523D01*
X213764285Y-118754761D01*
X213669047Y-118802380D01*
X213478571Y-118802380D01*
X214240476Y-117802380D02*
X214907142Y-117802380D01*
X214478571Y-118802380D01*
G04 #@! TO.C,Q5*
X215104761Y-129347619D02*
X215009523Y-129300000D01*
X214914285Y-129204761D01*
X214771428Y-129061904D01*
X214676190Y-129014285D01*
X214580952Y-129014285D01*
X214628571Y-129252380D02*
X214533333Y-129204761D01*
X214438095Y-129109523D01*
X214390476Y-128919047D01*
X214390476Y-128585714D01*
X214438095Y-128395238D01*
X214533333Y-128300000D01*
X214628571Y-128252380D01*
X214819047Y-128252380D01*
X214914285Y-128300000D01*
X215009523Y-128395238D01*
X215057142Y-128585714D01*
X215057142Y-128919047D01*
X215009523Y-129109523D01*
X214914285Y-129204761D01*
X214819047Y-129252380D01*
X214628571Y-129252380D01*
X215961904Y-128252380D02*
X215485714Y-128252380D01*
X215438095Y-128728571D01*
X215485714Y-128680952D01*
X215580952Y-128633333D01*
X215819047Y-128633333D01*
X215914285Y-128680952D01*
X215961904Y-128728571D01*
X216009523Y-128823809D01*
X216009523Y-129061904D01*
X215961904Y-129157142D01*
X215914285Y-129204761D01*
X215819047Y-129252380D01*
X215580952Y-129252380D01*
X215485714Y-129204761D01*
X215438095Y-129157142D01*
G04 #@! TO.C,Q2*
X213954761Y-118797619D02*
X213859523Y-118750000D01*
X213764285Y-118654761D01*
X213621428Y-118511904D01*
X213526190Y-118464285D01*
X213430952Y-118464285D01*
X213478571Y-118702380D02*
X213383333Y-118654761D01*
X213288095Y-118559523D01*
X213240476Y-118369047D01*
X213240476Y-118035714D01*
X213288095Y-117845238D01*
X213383333Y-117750000D01*
X213478571Y-117702380D01*
X213669047Y-117702380D01*
X213764285Y-117750000D01*
X213859523Y-117845238D01*
X213907142Y-118035714D01*
X213907142Y-118369047D01*
X213859523Y-118559523D01*
X213764285Y-118654761D01*
X213669047Y-118702380D01*
X213478571Y-118702380D01*
X214288095Y-117797619D02*
X214335714Y-117750000D01*
X214430952Y-117702380D01*
X214669047Y-117702380D01*
X214764285Y-117750000D01*
X214811904Y-117797619D01*
X214859523Y-117892857D01*
X214859523Y-117988095D01*
X214811904Y-118130952D01*
X214240476Y-118702380D01*
X214859523Y-118702380D01*
G04 #@! TO.C,Q1*
X214104761Y-125647619D02*
X214009523Y-125600000D01*
X213914285Y-125504761D01*
X213771428Y-125361904D01*
X213676190Y-125314285D01*
X213580952Y-125314285D01*
X213628571Y-125552380D02*
X213533333Y-125504761D01*
X213438095Y-125409523D01*
X213390476Y-125219047D01*
X213390476Y-124885714D01*
X213438095Y-124695238D01*
X213533333Y-124600000D01*
X213628571Y-124552380D01*
X213819047Y-124552380D01*
X213914285Y-124600000D01*
X214009523Y-124695238D01*
X214057142Y-124885714D01*
X214057142Y-125219047D01*
X214009523Y-125409523D01*
X213914285Y-125504761D01*
X213819047Y-125552380D01*
X213628571Y-125552380D01*
X215009523Y-125552380D02*
X214438095Y-125552380D01*
X214723809Y-125552380D02*
X214723809Y-124552380D01*
X214628571Y-124695238D01*
X214533333Y-124790476D01*
X214438095Y-124838095D01*
G04 #@! TO.C,R2*
X260433333Y-112202380D02*
X260100000Y-111726190D01*
X259861904Y-112202380D02*
X259861904Y-111202380D01*
X260242857Y-111202380D01*
X260338095Y-111250000D01*
X260385714Y-111297619D01*
X260433333Y-111392857D01*
X260433333Y-111535714D01*
X260385714Y-111630952D01*
X260338095Y-111678571D01*
X260242857Y-111726190D01*
X259861904Y-111726190D01*
X260814285Y-111297619D02*
X260861904Y-111250000D01*
X260957142Y-111202380D01*
X261195238Y-111202380D01*
X261290476Y-111250000D01*
X261338095Y-111297619D01*
X261385714Y-111392857D01*
X261385714Y-111488095D01*
X261338095Y-111630952D01*
X260766666Y-112202380D01*
X261385714Y-112202380D01*
G04 #@! TO.C,U10*
X235761904Y-117452380D02*
X235761904Y-118261904D01*
X235809523Y-118357142D01*
X235857142Y-118404761D01*
X235952380Y-118452380D01*
X236142857Y-118452380D01*
X236238095Y-118404761D01*
X236285714Y-118357142D01*
X236333333Y-118261904D01*
X236333333Y-117452380D01*
X237333333Y-118452380D02*
X236761904Y-118452380D01*
X237047619Y-118452380D02*
X237047619Y-117452380D01*
X236952380Y-117595238D01*
X236857142Y-117690476D01*
X236761904Y-117738095D01*
X237952380Y-117452380D02*
X238047619Y-117452380D01*
X238142857Y-117500000D01*
X238190476Y-117547619D01*
X238238095Y-117642857D01*
X238285714Y-117833333D01*
X238285714Y-118071428D01*
X238238095Y-118261904D01*
X238190476Y-118357142D01*
X238142857Y-118404761D01*
X238047619Y-118452380D01*
X237952380Y-118452380D01*
X237857142Y-118404761D01*
X237809523Y-118357142D01*
X237761904Y-118261904D01*
X237714285Y-118071428D01*
X237714285Y-117833333D01*
X237761904Y-117642857D01*
X237809523Y-117547619D01*
X237857142Y-117500000D01*
X237952380Y-117452380D01*
G04 #@! TO.C,U6*
X205938095Y-130152380D02*
X205938095Y-130961904D01*
X205985714Y-131057142D01*
X206033333Y-131104761D01*
X206128571Y-131152380D01*
X206319047Y-131152380D01*
X206414285Y-131104761D01*
X206461904Y-131057142D01*
X206509523Y-130961904D01*
X206509523Y-130152380D01*
X207414285Y-130152380D02*
X207223809Y-130152380D01*
X207128571Y-130200000D01*
X207080952Y-130247619D01*
X206985714Y-130390476D01*
X206938095Y-130580952D01*
X206938095Y-130961904D01*
X206985714Y-131057142D01*
X207033333Y-131104761D01*
X207128571Y-131152380D01*
X207319047Y-131152380D01*
X207414285Y-131104761D01*
X207461904Y-131057142D01*
X207509523Y-130961904D01*
X207509523Y-130723809D01*
X207461904Y-130628571D01*
X207414285Y-130580952D01*
X207319047Y-130533333D01*
X207128571Y-130533333D01*
X207033333Y-130580952D01*
X206985714Y-130628571D01*
X206938095Y-130723809D01*
X202538095Y-112497619D02*
X202585714Y-112450000D01*
X202680952Y-112402380D01*
X202919047Y-112402380D01*
X203014285Y-112450000D01*
X203061904Y-112497619D01*
X203109523Y-112592857D01*
X203109523Y-112688095D01*
X203061904Y-112830952D01*
X202490476Y-113402380D01*
X203109523Y-113402380D01*
X203966666Y-112402380D02*
X203776190Y-112402380D01*
X203680952Y-112450000D01*
X203633333Y-112497619D01*
X203538095Y-112640476D01*
X203490476Y-112830952D01*
X203490476Y-113211904D01*
X203538095Y-113307142D01*
X203585714Y-113354761D01*
X203680952Y-113402380D01*
X203871428Y-113402380D01*
X203966666Y-113354761D01*
X204014285Y-113307142D01*
X204061904Y-113211904D01*
X204061904Y-112973809D01*
X204014285Y-112878571D01*
X203966666Y-112830952D01*
X203871428Y-112783333D01*
X203680952Y-112783333D01*
X203585714Y-112830952D01*
X203538095Y-112878571D01*
X203490476Y-112973809D01*
X203159523Y-127252380D02*
X202588095Y-127252380D01*
X202873809Y-127252380D02*
X202873809Y-126252380D01*
X202778571Y-126395238D01*
X202683333Y-126490476D01*
X202588095Y-126538095D01*
X204064285Y-126252380D02*
X203588095Y-126252380D01*
X203540476Y-126728571D01*
X203588095Y-126680952D01*
X203683333Y-126633333D01*
X203921428Y-126633333D01*
X204016666Y-126680952D01*
X204064285Y-126728571D01*
X204111904Y-126823809D01*
X204111904Y-127061904D01*
X204064285Y-127157142D01*
X204016666Y-127204761D01*
X203921428Y-127252380D01*
X203683333Y-127252380D01*
X203588095Y-127204761D01*
X203540476Y-127157142D01*
X187175714Y-113435714D02*
X187842380Y-113435714D01*
X186794761Y-113673809D02*
X187509047Y-113911904D01*
X187509047Y-113292857D01*
X186842380Y-112721428D02*
X186842380Y-112626190D01*
X186890000Y-112530952D01*
X186937619Y-112483333D01*
X187032857Y-112435714D01*
X187223333Y-112388095D01*
X187461428Y-112388095D01*
X187651904Y-112435714D01*
X187747142Y-112483333D01*
X187794761Y-112530952D01*
X187842380Y-112626190D01*
X187842380Y-112721428D01*
X187794761Y-112816666D01*
X187747142Y-112864285D01*
X187651904Y-112911904D01*
X187461428Y-112959523D01*
X187223333Y-112959523D01*
X187032857Y-112911904D01*
X186937619Y-112864285D01*
X186890000Y-112816666D01*
X186842380Y-112721428D01*
X187842380Y-126364285D02*
X187842380Y-126935714D01*
X187842380Y-126650000D02*
X186842380Y-126650000D01*
X186985238Y-126745238D01*
X187080476Y-126840476D01*
X187128095Y-126935714D01*
G04 #@! TO.C,C9*
X254607142Y-106266666D02*
X254654761Y-106314285D01*
X254702380Y-106457142D01*
X254702380Y-106552380D01*
X254654761Y-106695238D01*
X254559523Y-106790476D01*
X254464285Y-106838095D01*
X254273809Y-106885714D01*
X254130952Y-106885714D01*
X253940476Y-106838095D01*
X253845238Y-106790476D01*
X253750000Y-106695238D01*
X253702380Y-106552380D01*
X253702380Y-106457142D01*
X253750000Y-106314285D01*
X253797619Y-106266666D01*
X254702380Y-105790476D02*
X254702380Y-105600000D01*
X254654761Y-105504761D01*
X254607142Y-105457142D01*
X254464285Y-105361904D01*
X254273809Y-105314285D01*
X253892857Y-105314285D01*
X253797619Y-105361904D01*
X253750000Y-105409523D01*
X253702380Y-105504761D01*
X253702380Y-105695238D01*
X253750000Y-105790476D01*
X253797619Y-105838095D01*
X253892857Y-105885714D01*
X254130952Y-105885714D01*
X254226190Y-105838095D01*
X254273809Y-105790476D01*
X254321428Y-105695238D01*
X254321428Y-105504761D01*
X254273809Y-105409523D01*
X254226190Y-105361904D01*
X254130952Y-105314285D01*
G04 #@! TO.C,U3*
X245238095Y-105352380D02*
X245238095Y-106161904D01*
X245285714Y-106257142D01*
X245333333Y-106304761D01*
X245428571Y-106352380D01*
X245619047Y-106352380D01*
X245714285Y-106304761D01*
X245761904Y-106257142D01*
X245809523Y-106161904D01*
X245809523Y-105352380D01*
X246190476Y-105352380D02*
X246809523Y-105352380D01*
X246476190Y-105733333D01*
X246619047Y-105733333D01*
X246714285Y-105780952D01*
X246761904Y-105828571D01*
X246809523Y-105923809D01*
X246809523Y-106161904D01*
X246761904Y-106257142D01*
X246714285Y-106304761D01*
X246619047Y-106352380D01*
X246333333Y-106352380D01*
X246238095Y-106304761D01*
X246190476Y-106257142D01*
G04 #@! TO.C,U12*
X238861904Y-141152380D02*
X238861904Y-141961904D01*
X238909523Y-142057142D01*
X238957142Y-142104761D01*
X239052380Y-142152380D01*
X239242857Y-142152380D01*
X239338095Y-142104761D01*
X239385714Y-142057142D01*
X239433333Y-141961904D01*
X239433333Y-141152380D01*
X240433333Y-142152380D02*
X239861904Y-142152380D01*
X240147619Y-142152380D02*
X240147619Y-141152380D01*
X240052380Y-141295238D01*
X239957142Y-141390476D01*
X239861904Y-141438095D01*
X240814285Y-141247619D02*
X240861904Y-141200000D01*
X240957142Y-141152380D01*
X241195238Y-141152380D01*
X241290476Y-141200000D01*
X241338095Y-141247619D01*
X241385714Y-141342857D01*
X241385714Y-141438095D01*
X241338095Y-141580952D01*
X240766666Y-142152380D01*
X241385714Y-142152380D01*
G04 #@! TO.C,D7*
X249561904Y-135652380D02*
X249561904Y-134652380D01*
X249800000Y-134652380D01*
X249942857Y-134700000D01*
X250038095Y-134795238D01*
X250085714Y-134890476D01*
X250133333Y-135080952D01*
X250133333Y-135223809D01*
X250085714Y-135414285D01*
X250038095Y-135509523D01*
X249942857Y-135604761D01*
X249800000Y-135652380D01*
X249561904Y-135652380D01*
X250466666Y-134652380D02*
X251133333Y-134652380D01*
X250704761Y-135652380D01*
G04 #@! TO.C,L2*
X248852380Y-145216666D02*
X248852380Y-145692857D01*
X247852380Y-145692857D01*
X247947619Y-144930952D02*
X247900000Y-144883333D01*
X247852380Y-144788095D01*
X247852380Y-144550000D01*
X247900000Y-144454761D01*
X247947619Y-144407142D01*
X248042857Y-144359523D01*
X248138095Y-144359523D01*
X248280952Y-144407142D01*
X248852380Y-144978571D01*
X248852380Y-144359523D01*
G04 #@! TO.C,Q3*
X213597619Y-132545238D02*
X213550000Y-132640476D01*
X213454761Y-132735714D01*
X213311904Y-132878571D01*
X213264285Y-132973809D01*
X213264285Y-133069047D01*
X213502380Y-133021428D02*
X213454761Y-133116666D01*
X213359523Y-133211904D01*
X213169047Y-133259523D01*
X212835714Y-133259523D01*
X212645238Y-133211904D01*
X212550000Y-133116666D01*
X212502380Y-133021428D01*
X212502380Y-132830952D01*
X212550000Y-132735714D01*
X212645238Y-132640476D01*
X212835714Y-132592857D01*
X213169047Y-132592857D01*
X213359523Y-132640476D01*
X213454761Y-132735714D01*
X213502380Y-132830952D01*
X213502380Y-133021428D01*
X212502380Y-132259523D02*
X212502380Y-131640476D01*
X212883333Y-131973809D01*
X212883333Y-131830952D01*
X212930952Y-131735714D01*
X212978571Y-131688095D01*
X213073809Y-131640476D01*
X213311904Y-131640476D01*
X213407142Y-131688095D01*
X213454761Y-131735714D01*
X213502380Y-131830952D01*
X213502380Y-132116666D01*
X213454761Y-132211904D01*
X213407142Y-132259523D01*
G04 #@! TO.C,J3*
X185494980Y-98835633D02*
X186209266Y-98835633D01*
X186352123Y-98883252D01*
X186447361Y-98978490D01*
X186494980Y-99121347D01*
X186494980Y-99216585D01*
X185494980Y-98454680D02*
X185494980Y-97835633D01*
X185875933Y-98168966D01*
X185875933Y-98026109D01*
X185923552Y-97930871D01*
X185971171Y-97883252D01*
X186066409Y-97835633D01*
X186304504Y-97835633D01*
X186399742Y-97883252D01*
X186447361Y-97930871D01*
X186494980Y-98026109D01*
X186494980Y-98311823D01*
X186447361Y-98407061D01*
X186399742Y-98454680D01*
G04 #@! TO.C,U11*
X221311904Y-104752380D02*
X221311904Y-105561904D01*
X221359523Y-105657142D01*
X221407142Y-105704761D01*
X221502380Y-105752380D01*
X221692857Y-105752380D01*
X221788095Y-105704761D01*
X221835714Y-105657142D01*
X221883333Y-105561904D01*
X221883333Y-104752380D01*
X222883333Y-105752380D02*
X222311904Y-105752380D01*
X222597619Y-105752380D02*
X222597619Y-104752380D01*
X222502380Y-104895238D01*
X222407142Y-104990476D01*
X222311904Y-105038095D01*
X223835714Y-105752380D02*
X223264285Y-105752380D01*
X223550000Y-105752380D02*
X223550000Y-104752380D01*
X223454761Y-104895238D01*
X223359523Y-104990476D01*
X223264285Y-105038095D01*
G04 #@! TO.C,D5*
X192361904Y-139002380D02*
X192361904Y-138002380D01*
X192600000Y-138002380D01*
X192742857Y-138050000D01*
X192838095Y-138145238D01*
X192885714Y-138240476D01*
X192933333Y-138430952D01*
X192933333Y-138573809D01*
X192885714Y-138764285D01*
X192838095Y-138859523D01*
X192742857Y-138954761D01*
X192600000Y-139002380D01*
X192361904Y-139002380D01*
X193838095Y-138002380D02*
X193361904Y-138002380D01*
X193314285Y-138478571D01*
X193361904Y-138430952D01*
X193457142Y-138383333D01*
X193695238Y-138383333D01*
X193790476Y-138430952D01*
X193838095Y-138478571D01*
X193885714Y-138573809D01*
X193885714Y-138811904D01*
X193838095Y-138907142D01*
X193790476Y-138954761D01*
X193695238Y-139002380D01*
X193457142Y-139002380D01*
X193361904Y-138954761D01*
X193314285Y-138907142D01*
G04 #@! TO.C,R33*
X219657142Y-121102380D02*
X219323809Y-120626190D01*
X219085714Y-121102380D02*
X219085714Y-120102380D01*
X219466666Y-120102380D01*
X219561904Y-120150000D01*
X219609523Y-120197619D01*
X219657142Y-120292857D01*
X219657142Y-120435714D01*
X219609523Y-120530952D01*
X219561904Y-120578571D01*
X219466666Y-120626190D01*
X219085714Y-120626190D01*
X219990476Y-120102380D02*
X220609523Y-120102380D01*
X220276190Y-120483333D01*
X220419047Y-120483333D01*
X220514285Y-120530952D01*
X220561904Y-120578571D01*
X220609523Y-120673809D01*
X220609523Y-120911904D01*
X220561904Y-121007142D01*
X220514285Y-121054761D01*
X220419047Y-121102380D01*
X220133333Y-121102380D01*
X220038095Y-121054761D01*
X219990476Y-121007142D01*
X220942857Y-120102380D02*
X221561904Y-120102380D01*
X221228571Y-120483333D01*
X221371428Y-120483333D01*
X221466666Y-120530952D01*
X221514285Y-120578571D01*
X221561904Y-120673809D01*
X221561904Y-120911904D01*
X221514285Y-121007142D01*
X221466666Y-121054761D01*
X221371428Y-121102380D01*
X221085714Y-121102380D01*
X220990476Y-121054761D01*
X220942857Y-121007142D01*
G04 #@! TO.C,U8*
X252788095Y-98202380D02*
X252788095Y-99011904D01*
X252835714Y-99107142D01*
X252883333Y-99154761D01*
X252978571Y-99202380D01*
X253169047Y-99202380D01*
X253264285Y-99154761D01*
X253311904Y-99107142D01*
X253359523Y-99011904D01*
X253359523Y-98202380D01*
X253978571Y-98630952D02*
X253883333Y-98583333D01*
X253835714Y-98535714D01*
X253788095Y-98440476D01*
X253788095Y-98392857D01*
X253835714Y-98297619D01*
X253883333Y-98250000D01*
X253978571Y-98202380D01*
X254169047Y-98202380D01*
X254264285Y-98250000D01*
X254311904Y-98297619D01*
X254359523Y-98392857D01*
X254359523Y-98440476D01*
X254311904Y-98535714D01*
X254264285Y-98583333D01*
X254169047Y-98630952D01*
X253978571Y-98630952D01*
X253883333Y-98678571D01*
X253835714Y-98726190D01*
X253788095Y-98821428D01*
X253788095Y-99011904D01*
X253835714Y-99107142D01*
X253883333Y-99154761D01*
X253978571Y-99202380D01*
X254169047Y-99202380D01*
X254264285Y-99154761D01*
X254311904Y-99107142D01*
X254359523Y-99011904D01*
X254359523Y-98821428D01*
X254311904Y-98726190D01*
X254264285Y-98678571D01*
X254169047Y-98630952D01*
G04 #@! TO.C,U7*
X230638095Y-127652380D02*
X230638095Y-128461904D01*
X230685714Y-128557142D01*
X230733333Y-128604761D01*
X230828571Y-128652380D01*
X231019047Y-128652380D01*
X231114285Y-128604761D01*
X231161904Y-128557142D01*
X231209523Y-128461904D01*
X231209523Y-127652380D01*
X231590476Y-127652380D02*
X232257142Y-127652380D01*
X231828571Y-128652380D01*
G04 #@! TO.C,U5*
X206688095Y-133602380D02*
X206688095Y-134411904D01*
X206735714Y-134507142D01*
X206783333Y-134554761D01*
X206878571Y-134602380D01*
X207069047Y-134602380D01*
X207164285Y-134554761D01*
X207211904Y-134507142D01*
X207259523Y-134411904D01*
X207259523Y-133602380D01*
X208211904Y-133602380D02*
X207735714Y-133602380D01*
X207688095Y-134078571D01*
X207735714Y-134030952D01*
X207830952Y-133983333D01*
X208069047Y-133983333D01*
X208164285Y-134030952D01*
X208211904Y-134078571D01*
X208259523Y-134173809D01*
X208259523Y-134411904D01*
X208211904Y-134507142D01*
X208164285Y-134554761D01*
X208069047Y-134602380D01*
X207830952Y-134602380D01*
X207735714Y-134554761D01*
X207688095Y-134507142D01*
G04 #@! TO.C,U1*
X263652380Y-119461904D02*
X264461904Y-119461904D01*
X264557142Y-119414285D01*
X264604761Y-119366666D01*
X264652380Y-119271428D01*
X264652380Y-119080952D01*
X264604761Y-118985714D01*
X264557142Y-118938095D01*
X264461904Y-118890476D01*
X263652380Y-118890476D01*
X264652380Y-117890476D02*
X264652380Y-118461904D01*
X264652380Y-118176190D02*
X263652380Y-118176190D01*
X263795238Y-118271428D01*
X263890476Y-118366666D01*
X263938095Y-118461904D01*
G04 #@! TO.C,U4*
X218538095Y-134952380D02*
X218538095Y-135761904D01*
X218585714Y-135857142D01*
X218633333Y-135904761D01*
X218728571Y-135952380D01*
X218919047Y-135952380D01*
X219014285Y-135904761D01*
X219061904Y-135857142D01*
X219109523Y-135761904D01*
X219109523Y-134952380D01*
X220014285Y-135285714D02*
X220014285Y-135952380D01*
X219776190Y-134904761D02*
X219538095Y-135619047D01*
X220157142Y-135619047D01*
G04 #@! TO.C,U13*
X247652380Y-123838095D02*
X248461904Y-123838095D01*
X248557142Y-123790476D01*
X248604761Y-123742857D01*
X248652380Y-123647619D01*
X248652380Y-123457142D01*
X248604761Y-123361904D01*
X248557142Y-123314285D01*
X248461904Y-123266666D01*
X247652380Y-123266666D01*
X248652380Y-122266666D02*
X248652380Y-122838095D01*
X248652380Y-122552380D02*
X247652380Y-122552380D01*
X247795238Y-122647619D01*
X247890476Y-122742857D01*
X247938095Y-122838095D01*
X247652380Y-121933333D02*
X247652380Y-121314285D01*
X248033333Y-121647619D01*
X248033333Y-121504761D01*
X248080952Y-121409523D01*
X248128571Y-121361904D01*
X248223809Y-121314285D01*
X248461904Y-121314285D01*
X248557142Y-121361904D01*
X248604761Y-121409523D01*
X248652380Y-121504761D01*
X248652380Y-121790476D01*
X248604761Y-121885714D01*
X248557142Y-121933333D01*
G04 #@! TO.C,D16*
X218652380Y-108514285D02*
X217652380Y-108514285D01*
X217652380Y-108276190D01*
X217700000Y-108133333D01*
X217795238Y-108038095D01*
X217890476Y-107990476D01*
X218080952Y-107942857D01*
X218223809Y-107942857D01*
X218414285Y-107990476D01*
X218509523Y-108038095D01*
X218604761Y-108133333D01*
X218652380Y-108276190D01*
X218652380Y-108514285D01*
X218652380Y-106990476D02*
X218652380Y-107561904D01*
X218652380Y-107276190D02*
X217652380Y-107276190D01*
X217795238Y-107371428D01*
X217890476Y-107466666D01*
X217938095Y-107561904D01*
X217652380Y-106133333D02*
X217652380Y-106323809D01*
X217700000Y-106419047D01*
X217747619Y-106466666D01*
X217890476Y-106561904D01*
X218080952Y-106609523D01*
X218461904Y-106609523D01*
X218557142Y-106561904D01*
X218604761Y-106514285D01*
X218652380Y-106419047D01*
X218652380Y-106228571D01*
X218604761Y-106133333D01*
X218557142Y-106085714D01*
X218461904Y-106038095D01*
X218223809Y-106038095D01*
X218128571Y-106085714D01*
X218080952Y-106133333D01*
X218033333Y-106228571D01*
X218033333Y-106419047D01*
X218080952Y-106514285D01*
X218128571Y-106561904D01*
X218223809Y-106609523D01*
G04 #@! TO.C,L1*
X252533333Y-115952380D02*
X252057142Y-115952380D01*
X252057142Y-114952380D01*
X253390476Y-115952380D02*
X252819047Y-115952380D01*
X253104761Y-115952380D02*
X253104761Y-114952380D01*
X253009523Y-115095238D01*
X252914285Y-115190476D01*
X252819047Y-115238095D01*
G04 #@! TO.C,C1*
X254233333Y-123957142D02*
X254185714Y-124004761D01*
X254042857Y-124052380D01*
X253947619Y-124052380D01*
X253804761Y-124004761D01*
X253709523Y-123909523D01*
X253661904Y-123814285D01*
X253614285Y-123623809D01*
X253614285Y-123480952D01*
X253661904Y-123290476D01*
X253709523Y-123195238D01*
X253804761Y-123100000D01*
X253947619Y-123052380D01*
X254042857Y-123052380D01*
X254185714Y-123100000D01*
X254233333Y-123147619D01*
X255185714Y-124052380D02*
X254614285Y-124052380D01*
X254900000Y-124052380D02*
X254900000Y-123052380D01*
X254804761Y-123195238D01*
X254709523Y-123290476D01*
X254614285Y-123338095D01*
G04 #@! TO.C,R19*
X219657142Y-125602380D02*
X219323809Y-125126190D01*
X219085714Y-125602380D02*
X219085714Y-124602380D01*
X219466666Y-124602380D01*
X219561904Y-124650000D01*
X219609523Y-124697619D01*
X219657142Y-124792857D01*
X219657142Y-124935714D01*
X219609523Y-125030952D01*
X219561904Y-125078571D01*
X219466666Y-125126190D01*
X219085714Y-125126190D01*
X220609523Y-125602380D02*
X220038095Y-125602380D01*
X220323809Y-125602380D02*
X220323809Y-124602380D01*
X220228571Y-124745238D01*
X220133333Y-124840476D01*
X220038095Y-124888095D01*
X221085714Y-125602380D02*
X221276190Y-125602380D01*
X221371428Y-125554761D01*
X221419047Y-125507142D01*
X221514285Y-125364285D01*
X221561904Y-125173809D01*
X221561904Y-124792857D01*
X221514285Y-124697619D01*
X221466666Y-124650000D01*
X221371428Y-124602380D01*
X221180952Y-124602380D01*
X221085714Y-124650000D01*
X221038095Y-124697619D01*
X220990476Y-124792857D01*
X220990476Y-125030952D01*
X221038095Y-125126190D01*
X221085714Y-125173809D01*
X221180952Y-125221428D01*
X221371428Y-125221428D01*
X221466666Y-125173809D01*
X221514285Y-125126190D01*
X221561904Y-125030952D01*
G04 #@! TO.C,R35*
X219657142Y-123902380D02*
X219323809Y-123426190D01*
X219085714Y-123902380D02*
X219085714Y-122902380D01*
X219466666Y-122902380D01*
X219561904Y-122950000D01*
X219609523Y-122997619D01*
X219657142Y-123092857D01*
X219657142Y-123235714D01*
X219609523Y-123330952D01*
X219561904Y-123378571D01*
X219466666Y-123426190D01*
X219085714Y-123426190D01*
X219990476Y-122902380D02*
X220609523Y-122902380D01*
X220276190Y-123283333D01*
X220419047Y-123283333D01*
X220514285Y-123330952D01*
X220561904Y-123378571D01*
X220609523Y-123473809D01*
X220609523Y-123711904D01*
X220561904Y-123807142D01*
X220514285Y-123854761D01*
X220419047Y-123902380D01*
X220133333Y-123902380D01*
X220038095Y-123854761D01*
X219990476Y-123807142D01*
X221514285Y-122902380D02*
X221038095Y-122902380D01*
X220990476Y-123378571D01*
X221038095Y-123330952D01*
X221133333Y-123283333D01*
X221371428Y-123283333D01*
X221466666Y-123330952D01*
X221514285Y-123378571D01*
X221561904Y-123473809D01*
X221561904Y-123711904D01*
X221514285Y-123807142D01*
X221466666Y-123854761D01*
X221371428Y-123902380D01*
X221133333Y-123902380D01*
X221038095Y-123854761D01*
X220990476Y-123807142D01*
G04 #@! TO.C,R29*
X230752380Y-118142857D02*
X230276190Y-118476190D01*
X230752380Y-118714285D02*
X229752380Y-118714285D01*
X229752380Y-118333333D01*
X229800000Y-118238095D01*
X229847619Y-118190476D01*
X229942857Y-118142857D01*
X230085714Y-118142857D01*
X230180952Y-118190476D01*
X230228571Y-118238095D01*
X230276190Y-118333333D01*
X230276190Y-118714285D01*
X229847619Y-117761904D02*
X229800000Y-117714285D01*
X229752380Y-117619047D01*
X229752380Y-117380952D01*
X229800000Y-117285714D01*
X229847619Y-117238095D01*
X229942857Y-117190476D01*
X230038095Y-117190476D01*
X230180952Y-117238095D01*
X230752380Y-117809523D01*
X230752380Y-117190476D01*
X230752380Y-116714285D02*
X230752380Y-116523809D01*
X230704761Y-116428571D01*
X230657142Y-116380952D01*
X230514285Y-116285714D01*
X230323809Y-116238095D01*
X229942857Y-116238095D01*
X229847619Y-116285714D01*
X229800000Y-116333333D01*
X229752380Y-116428571D01*
X229752380Y-116619047D01*
X229800000Y-116714285D01*
X229847619Y-116761904D01*
X229942857Y-116809523D01*
X230180952Y-116809523D01*
X230276190Y-116761904D01*
X230323809Y-116714285D01*
X230371428Y-116619047D01*
X230371428Y-116428571D01*
X230323809Y-116333333D01*
X230276190Y-116285714D01*
X230180952Y-116238095D01*
G04 #@! TO.C,R23*
X229152380Y-118142857D02*
X228676190Y-118476190D01*
X229152380Y-118714285D02*
X228152380Y-118714285D01*
X228152380Y-118333333D01*
X228200000Y-118238095D01*
X228247619Y-118190476D01*
X228342857Y-118142857D01*
X228485714Y-118142857D01*
X228580952Y-118190476D01*
X228628571Y-118238095D01*
X228676190Y-118333333D01*
X228676190Y-118714285D01*
X228247619Y-117761904D02*
X228200000Y-117714285D01*
X228152380Y-117619047D01*
X228152380Y-117380952D01*
X228200000Y-117285714D01*
X228247619Y-117238095D01*
X228342857Y-117190476D01*
X228438095Y-117190476D01*
X228580952Y-117238095D01*
X229152380Y-117809523D01*
X229152380Y-117190476D01*
X228152380Y-116857142D02*
X228152380Y-116238095D01*
X228533333Y-116571428D01*
X228533333Y-116428571D01*
X228580952Y-116333333D01*
X228628571Y-116285714D01*
X228723809Y-116238095D01*
X228961904Y-116238095D01*
X229057142Y-116285714D01*
X229104761Y-116333333D01*
X229152380Y-116428571D01*
X229152380Y-116714285D01*
X229104761Y-116809523D01*
X229057142Y-116857142D01*
G04 #@! TO.C,R9*
X219633333Y-122552380D02*
X219300000Y-122076190D01*
X219061904Y-122552380D02*
X219061904Y-121552380D01*
X219442857Y-121552380D01*
X219538095Y-121600000D01*
X219585714Y-121647619D01*
X219633333Y-121742857D01*
X219633333Y-121885714D01*
X219585714Y-121980952D01*
X219538095Y-122028571D01*
X219442857Y-122076190D01*
X219061904Y-122076190D01*
X220109523Y-122552380D02*
X220300000Y-122552380D01*
X220395238Y-122504761D01*
X220442857Y-122457142D01*
X220538095Y-122314285D01*
X220585714Y-122123809D01*
X220585714Y-121742857D01*
X220538095Y-121647619D01*
X220490476Y-121600000D01*
X220395238Y-121552380D01*
X220204761Y-121552380D01*
X220109523Y-121600000D01*
X220061904Y-121647619D01*
X220014285Y-121742857D01*
X220014285Y-121980952D01*
X220061904Y-122076190D01*
X220109523Y-122123809D01*
X220204761Y-122171428D01*
X220395238Y-122171428D01*
X220490476Y-122123809D01*
X220538095Y-122076190D01*
X220585714Y-121980952D01*
G04 #@! TO.C,R5*
X224733333Y-142902380D02*
X224400000Y-142426190D01*
X224161904Y-142902380D02*
X224161904Y-141902380D01*
X224542857Y-141902380D01*
X224638095Y-141950000D01*
X224685714Y-141997619D01*
X224733333Y-142092857D01*
X224733333Y-142235714D01*
X224685714Y-142330952D01*
X224638095Y-142378571D01*
X224542857Y-142426190D01*
X224161904Y-142426190D01*
X225638095Y-141902380D02*
X225161904Y-141902380D01*
X225114285Y-142378571D01*
X225161904Y-142330952D01*
X225257142Y-142283333D01*
X225495238Y-142283333D01*
X225590476Y-142330952D01*
X225638095Y-142378571D01*
X225685714Y-142473809D01*
X225685714Y-142711904D01*
X225638095Y-142807142D01*
X225590476Y-142854761D01*
X225495238Y-142902380D01*
X225257142Y-142902380D01*
X225161904Y-142854761D01*
X225114285Y-142807142D01*
G04 #@! TO.C,R1*
X254552380Y-140366666D02*
X254076190Y-140700000D01*
X254552380Y-140938095D02*
X253552380Y-140938095D01*
X253552380Y-140557142D01*
X253600000Y-140461904D01*
X253647619Y-140414285D01*
X253742857Y-140366666D01*
X253885714Y-140366666D01*
X253980952Y-140414285D01*
X254028571Y-140461904D01*
X254076190Y-140557142D01*
X254076190Y-140938095D01*
X254552380Y-139414285D02*
X254552380Y-139985714D01*
X254552380Y-139700000D02*
X253552380Y-139700000D01*
X253695238Y-139795238D01*
X253790476Y-139890476D01*
X253838095Y-139985714D01*
G04 #@! TO.C,Q9*
X251604761Y-102147619D02*
X251509523Y-102100000D01*
X251414285Y-102004761D01*
X251271428Y-101861904D01*
X251176190Y-101814285D01*
X251080952Y-101814285D01*
X251128571Y-102052380D02*
X251033333Y-102004761D01*
X250938095Y-101909523D01*
X250890476Y-101719047D01*
X250890476Y-101385714D01*
X250938095Y-101195238D01*
X251033333Y-101100000D01*
X251128571Y-101052380D01*
X251319047Y-101052380D01*
X251414285Y-101100000D01*
X251509523Y-101195238D01*
X251557142Y-101385714D01*
X251557142Y-101719047D01*
X251509523Y-101909523D01*
X251414285Y-102004761D01*
X251319047Y-102052380D01*
X251128571Y-102052380D01*
X252033333Y-102052380D02*
X252223809Y-102052380D01*
X252319047Y-102004761D01*
X252366666Y-101957142D01*
X252461904Y-101814285D01*
X252509523Y-101623809D01*
X252509523Y-101242857D01*
X252461904Y-101147619D01*
X252414285Y-101100000D01*
X252319047Y-101052380D01*
X252128571Y-101052380D01*
X252033333Y-101100000D01*
X251985714Y-101147619D01*
X251938095Y-101242857D01*
X251938095Y-101480952D01*
X251985714Y-101576190D01*
X252033333Y-101623809D01*
X252128571Y-101671428D01*
X252319047Y-101671428D01*
X252414285Y-101623809D01*
X252461904Y-101576190D01*
X252509523Y-101480952D01*
G04 #@! TO.C,Q8*
X261747619Y-140595238D02*
X261700000Y-140690476D01*
X261604761Y-140785714D01*
X261461904Y-140928571D01*
X261414285Y-141023809D01*
X261414285Y-141119047D01*
X261652380Y-141071428D02*
X261604761Y-141166666D01*
X261509523Y-141261904D01*
X261319047Y-141309523D01*
X260985714Y-141309523D01*
X260795238Y-141261904D01*
X260700000Y-141166666D01*
X260652380Y-141071428D01*
X260652380Y-140880952D01*
X260700000Y-140785714D01*
X260795238Y-140690476D01*
X260985714Y-140642857D01*
X261319047Y-140642857D01*
X261509523Y-140690476D01*
X261604761Y-140785714D01*
X261652380Y-140880952D01*
X261652380Y-141071428D01*
X261080952Y-140071428D02*
X261033333Y-140166666D01*
X260985714Y-140214285D01*
X260890476Y-140261904D01*
X260842857Y-140261904D01*
X260747619Y-140214285D01*
X260700000Y-140166666D01*
X260652380Y-140071428D01*
X260652380Y-139880952D01*
X260700000Y-139785714D01*
X260747619Y-139738095D01*
X260842857Y-139690476D01*
X260890476Y-139690476D01*
X260985714Y-139738095D01*
X261033333Y-139785714D01*
X261080952Y-139880952D01*
X261080952Y-140071428D01*
X261128571Y-140166666D01*
X261176190Y-140214285D01*
X261271428Y-140261904D01*
X261461904Y-140261904D01*
X261557142Y-140214285D01*
X261604761Y-140166666D01*
X261652380Y-140071428D01*
X261652380Y-139880952D01*
X261604761Y-139785714D01*
X261557142Y-139738095D01*
X261461904Y-139690476D01*
X261271428Y-139690476D01*
X261176190Y-139738095D01*
X261128571Y-139785714D01*
X261080952Y-139880952D01*
G04 #@! TO.C,J1*
X185966666Y-148502380D02*
X185966666Y-149216666D01*
X185919047Y-149359523D01*
X185823809Y-149454761D01*
X185680952Y-149502380D01*
X185585714Y-149502380D01*
X186966666Y-149502380D02*
X186395238Y-149502380D01*
X186680952Y-149502380D02*
X186680952Y-148502380D01*
X186585714Y-148645238D01*
X186490476Y-148740476D01*
X186395238Y-148788095D01*
G04 #@! TO.C,FL1*
X261728571Y-132738095D02*
X261728571Y-133071428D01*
X262252380Y-133071428D02*
X261252380Y-133071428D01*
X261252380Y-132595238D01*
X262252380Y-131738095D02*
X262252380Y-132214285D01*
X261252380Y-132214285D01*
X262252380Y-130880952D02*
X262252380Y-131452380D01*
X262252380Y-131166666D02*
X261252380Y-131166666D01*
X261395238Y-131261904D01*
X261490476Y-131357142D01*
X261538095Y-131452380D01*
G04 #@! TO.C,D18*
X256152380Y-122414285D02*
X255152380Y-122414285D01*
X255152380Y-122176190D01*
X255200000Y-122033333D01*
X255295238Y-121938095D01*
X255390476Y-121890476D01*
X255580952Y-121842857D01*
X255723809Y-121842857D01*
X255914285Y-121890476D01*
X256009523Y-121938095D01*
X256104761Y-122033333D01*
X256152380Y-122176190D01*
X256152380Y-122414285D01*
X256152380Y-120890476D02*
X256152380Y-121461904D01*
X256152380Y-121176190D02*
X255152380Y-121176190D01*
X255295238Y-121271428D01*
X255390476Y-121366666D01*
X255438095Y-121461904D01*
X255580952Y-120319047D02*
X255533333Y-120414285D01*
X255485714Y-120461904D01*
X255390476Y-120509523D01*
X255342857Y-120509523D01*
X255247619Y-120461904D01*
X255200000Y-120414285D01*
X255152380Y-120319047D01*
X255152380Y-120128571D01*
X255200000Y-120033333D01*
X255247619Y-119985714D01*
X255342857Y-119938095D01*
X255390476Y-119938095D01*
X255485714Y-119985714D01*
X255533333Y-120033333D01*
X255580952Y-120128571D01*
X255580952Y-120319047D01*
X255628571Y-120414285D01*
X255676190Y-120461904D01*
X255771428Y-120509523D01*
X255961904Y-120509523D01*
X256057142Y-120461904D01*
X256104761Y-120414285D01*
X256152380Y-120319047D01*
X256152380Y-120128571D01*
X256104761Y-120033333D01*
X256057142Y-119985714D01*
X255961904Y-119938095D01*
X255771428Y-119938095D01*
X255676190Y-119985714D01*
X255628571Y-120033333D01*
X255580952Y-120128571D01*
G04 #@! TO.C,D14*
X263952380Y-138314285D02*
X262952380Y-138314285D01*
X262952380Y-138076190D01*
X263000000Y-137933333D01*
X263095238Y-137838095D01*
X263190476Y-137790476D01*
X263380952Y-137742857D01*
X263523809Y-137742857D01*
X263714285Y-137790476D01*
X263809523Y-137838095D01*
X263904761Y-137933333D01*
X263952380Y-138076190D01*
X263952380Y-138314285D01*
X263952380Y-136790476D02*
X263952380Y-137361904D01*
X263952380Y-137076190D02*
X262952380Y-137076190D01*
X263095238Y-137171428D01*
X263190476Y-137266666D01*
X263238095Y-137361904D01*
X263285714Y-135933333D02*
X263952380Y-135933333D01*
X262904761Y-136171428D02*
X263619047Y-136409523D01*
X263619047Y-135790476D01*
G04 #@! TO.C,D13*
X254452380Y-145514285D02*
X253452380Y-145514285D01*
X253452380Y-145276190D01*
X253500000Y-145133333D01*
X253595238Y-145038095D01*
X253690476Y-144990476D01*
X253880952Y-144942857D01*
X254023809Y-144942857D01*
X254214285Y-144990476D01*
X254309523Y-145038095D01*
X254404761Y-145133333D01*
X254452380Y-145276190D01*
X254452380Y-145514285D01*
X254452380Y-143990476D02*
X254452380Y-144561904D01*
X254452380Y-144276190D02*
X253452380Y-144276190D01*
X253595238Y-144371428D01*
X253690476Y-144466666D01*
X253738095Y-144561904D01*
X253452380Y-143657142D02*
X253452380Y-143038095D01*
X253833333Y-143371428D01*
X253833333Y-143228571D01*
X253880952Y-143133333D01*
X253928571Y-143085714D01*
X254023809Y-143038095D01*
X254261904Y-143038095D01*
X254357142Y-143085714D01*
X254404761Y-143133333D01*
X254452380Y-143228571D01*
X254452380Y-143514285D01*
X254404761Y-143609523D01*
X254357142Y-143657142D01*
G04 #@! TO.C,D9*
X246061904Y-128452380D02*
X246061904Y-127452380D01*
X246300000Y-127452380D01*
X246442857Y-127500000D01*
X246538095Y-127595238D01*
X246585714Y-127690476D01*
X246633333Y-127880952D01*
X246633333Y-128023809D01*
X246585714Y-128214285D01*
X246538095Y-128309523D01*
X246442857Y-128404761D01*
X246300000Y-128452380D01*
X246061904Y-128452380D01*
X247109523Y-128452380D02*
X247300000Y-128452380D01*
X247395238Y-128404761D01*
X247442857Y-128357142D01*
X247538095Y-128214285D01*
X247585714Y-128023809D01*
X247585714Y-127642857D01*
X247538095Y-127547619D01*
X247490476Y-127500000D01*
X247395238Y-127452380D01*
X247204761Y-127452380D01*
X247109523Y-127500000D01*
X247061904Y-127547619D01*
X247014285Y-127642857D01*
X247014285Y-127880952D01*
X247061904Y-127976190D01*
X247109523Y-128023809D01*
X247204761Y-128071428D01*
X247395238Y-128071428D01*
X247490476Y-128023809D01*
X247538095Y-127976190D01*
X247585714Y-127880952D01*
G04 #@! TO.C,D8*
X214961904Y-146252380D02*
X214961904Y-145252380D01*
X215200000Y-145252380D01*
X215342857Y-145300000D01*
X215438095Y-145395238D01*
X215485714Y-145490476D01*
X215533333Y-145680952D01*
X215533333Y-145823809D01*
X215485714Y-146014285D01*
X215438095Y-146109523D01*
X215342857Y-146204761D01*
X215200000Y-146252380D01*
X214961904Y-146252380D01*
X216104761Y-145680952D02*
X216009523Y-145633333D01*
X215961904Y-145585714D01*
X215914285Y-145490476D01*
X215914285Y-145442857D01*
X215961904Y-145347619D01*
X216009523Y-145300000D01*
X216104761Y-145252380D01*
X216295238Y-145252380D01*
X216390476Y-145300000D01*
X216438095Y-145347619D01*
X216485714Y-145442857D01*
X216485714Y-145490476D01*
X216438095Y-145585714D01*
X216390476Y-145633333D01*
X216295238Y-145680952D01*
X216104761Y-145680952D01*
X216009523Y-145728571D01*
X215961904Y-145776190D01*
X215914285Y-145871428D01*
X215914285Y-146061904D01*
X215961904Y-146157142D01*
X216009523Y-146204761D01*
X216104761Y-146252380D01*
X216295238Y-146252380D01*
X216390476Y-146204761D01*
X216438095Y-146157142D01*
X216485714Y-146061904D01*
X216485714Y-145871428D01*
X216438095Y-145776190D01*
X216390476Y-145728571D01*
X216295238Y-145680952D01*
G04 #@! TO.C,D1*
X207061904Y-146052380D02*
X207061904Y-145052380D01*
X207300000Y-145052380D01*
X207442857Y-145100000D01*
X207538095Y-145195238D01*
X207585714Y-145290476D01*
X207633333Y-145480952D01*
X207633333Y-145623809D01*
X207585714Y-145814285D01*
X207538095Y-145909523D01*
X207442857Y-146004761D01*
X207300000Y-146052380D01*
X207061904Y-146052380D01*
X208585714Y-146052380D02*
X208014285Y-146052380D01*
X208300000Y-146052380D02*
X208300000Y-145052380D01*
X208204761Y-145195238D01*
X208109523Y-145290476D01*
X208014285Y-145338095D01*
G04 #@! TO.C,C8*
X258057142Y-120166666D02*
X258104761Y-120214285D01*
X258152380Y-120357142D01*
X258152380Y-120452380D01*
X258104761Y-120595238D01*
X258009523Y-120690476D01*
X257914285Y-120738095D01*
X257723809Y-120785714D01*
X257580952Y-120785714D01*
X257390476Y-120738095D01*
X257295238Y-120690476D01*
X257200000Y-120595238D01*
X257152380Y-120452380D01*
X257152380Y-120357142D01*
X257200000Y-120214285D01*
X257247619Y-120166666D01*
X257580952Y-119595238D02*
X257533333Y-119690476D01*
X257485714Y-119738095D01*
X257390476Y-119785714D01*
X257342857Y-119785714D01*
X257247619Y-119738095D01*
X257200000Y-119690476D01*
X257152380Y-119595238D01*
X257152380Y-119404761D01*
X257200000Y-119309523D01*
X257247619Y-119261904D01*
X257342857Y-119214285D01*
X257390476Y-119214285D01*
X257485714Y-119261904D01*
X257533333Y-119309523D01*
X257580952Y-119404761D01*
X257580952Y-119595238D01*
X257628571Y-119690476D01*
X257676190Y-119738095D01*
X257771428Y-119785714D01*
X257961904Y-119785714D01*
X258057142Y-119738095D01*
X258104761Y-119690476D01*
X258152380Y-119595238D01*
X258152380Y-119404761D01*
X258104761Y-119309523D01*
X258057142Y-119261904D01*
X257961904Y-119214285D01*
X257771428Y-119214285D01*
X257676190Y-119261904D01*
X257628571Y-119309523D01*
X257580952Y-119404761D01*
G04 #@! TO.C,C4*
X257033333Y-123907142D02*
X256985714Y-123954761D01*
X256842857Y-124002380D01*
X256747619Y-124002380D01*
X256604761Y-123954761D01*
X256509523Y-123859523D01*
X256461904Y-123764285D01*
X256414285Y-123573809D01*
X256414285Y-123430952D01*
X256461904Y-123240476D01*
X256509523Y-123145238D01*
X256604761Y-123050000D01*
X256747619Y-123002380D01*
X256842857Y-123002380D01*
X256985714Y-123050000D01*
X257033333Y-123097619D01*
X257890476Y-123335714D02*
X257890476Y-124002380D01*
X257652380Y-122954761D02*
X257414285Y-123669047D01*
X258033333Y-123669047D01*
G04 #@! TO.C,C3*
X264657142Y-121966666D02*
X264704761Y-122014285D01*
X264752380Y-122157142D01*
X264752380Y-122252380D01*
X264704761Y-122395238D01*
X264609523Y-122490476D01*
X264514285Y-122538095D01*
X264323809Y-122585714D01*
X264180952Y-122585714D01*
X263990476Y-122538095D01*
X263895238Y-122490476D01*
X263800000Y-122395238D01*
X263752380Y-122252380D01*
X263752380Y-122157142D01*
X263800000Y-122014285D01*
X263847619Y-121966666D01*
X263752380Y-121633333D02*
X263752380Y-121014285D01*
X264133333Y-121347619D01*
X264133333Y-121204761D01*
X264180952Y-121109523D01*
X264228571Y-121061904D01*
X264323809Y-121014285D01*
X264561904Y-121014285D01*
X264657142Y-121061904D01*
X264704761Y-121109523D01*
X264752380Y-121204761D01*
X264752380Y-121490476D01*
X264704761Y-121585714D01*
X264657142Y-121633333D01*
G04 #@! TO.C,C2*
X261833333Y-127757142D02*
X261785714Y-127804761D01*
X261642857Y-127852380D01*
X261547619Y-127852380D01*
X261404761Y-127804761D01*
X261309523Y-127709523D01*
X261261904Y-127614285D01*
X261214285Y-127423809D01*
X261214285Y-127280952D01*
X261261904Y-127090476D01*
X261309523Y-126995238D01*
X261404761Y-126900000D01*
X261547619Y-126852380D01*
X261642857Y-126852380D01*
X261785714Y-126900000D01*
X261833333Y-126947619D01*
X262214285Y-126947619D02*
X262261904Y-126900000D01*
X262357142Y-126852380D01*
X262595238Y-126852380D01*
X262690476Y-126900000D01*
X262738095Y-126947619D01*
X262785714Y-127042857D01*
X262785714Y-127138095D01*
X262738095Y-127280952D01*
X262166666Y-127852380D01*
X262785714Y-127852380D01*
G04 #@! TO.C,R42*
X219657142Y-119752380D02*
X219323809Y-119276190D01*
X219085714Y-119752380D02*
X219085714Y-118752380D01*
X219466666Y-118752380D01*
X219561904Y-118800000D01*
X219609523Y-118847619D01*
X219657142Y-118942857D01*
X219657142Y-119085714D01*
X219609523Y-119180952D01*
X219561904Y-119228571D01*
X219466666Y-119276190D01*
X219085714Y-119276190D01*
X220514285Y-119085714D02*
X220514285Y-119752380D01*
X220276190Y-118704761D02*
X220038095Y-119419047D01*
X220657142Y-119419047D01*
X220990476Y-118847619D02*
X221038095Y-118800000D01*
X221133333Y-118752380D01*
X221371428Y-118752380D01*
X221466666Y-118800000D01*
X221514285Y-118847619D01*
X221561904Y-118942857D01*
X221561904Y-119038095D01*
X221514285Y-119180952D01*
X220942857Y-119752380D01*
X221561904Y-119752380D01*
G04 #@! TO.C,R17*
X219657142Y-118252380D02*
X219323809Y-117776190D01*
X219085714Y-118252380D02*
X219085714Y-117252380D01*
X219466666Y-117252380D01*
X219561904Y-117300000D01*
X219609523Y-117347619D01*
X219657142Y-117442857D01*
X219657142Y-117585714D01*
X219609523Y-117680952D01*
X219561904Y-117728571D01*
X219466666Y-117776190D01*
X219085714Y-117776190D01*
X220609523Y-118252380D02*
X220038095Y-118252380D01*
X220323809Y-118252380D02*
X220323809Y-117252380D01*
X220228571Y-117395238D01*
X220133333Y-117490476D01*
X220038095Y-117538095D01*
X220942857Y-117252380D02*
X221609523Y-117252380D01*
X221180952Y-118252380D01*
G04 #@! TO.C,D11*
X218561904Y-111871428D02*
X217761904Y-111871428D01*
X217761904Y-111680952D01*
X217800000Y-111566666D01*
X217876190Y-111490476D01*
X217952380Y-111452380D01*
X218104761Y-111414285D01*
X218219047Y-111414285D01*
X218371428Y-111452380D01*
X218447619Y-111490476D01*
X218523809Y-111566666D01*
X218561904Y-111680952D01*
X218561904Y-111871428D01*
X218561904Y-110652380D02*
X218561904Y-111109523D01*
X218561904Y-110880952D02*
X217761904Y-110880952D01*
X217876190Y-110957142D01*
X217952380Y-111033333D01*
X217990476Y-111109523D01*
X218561904Y-109890476D02*
X218561904Y-110347619D01*
X218561904Y-110119047D02*
X217761904Y-110119047D01*
X217876190Y-110195238D01*
X217952380Y-110271428D01*
X217990476Y-110347619D01*
G04 #@! TD*
M02*
